0
SECTION
2
HEADER
9
$ACADVER
1
AC1027
9
$ACADMAINTVER
70
8
9
$DWGCODEPAGE
3
ANSI_1252
9
$LASTSAVEDBY
1
macc
9
$REQUIREDVERSIONS
160
0
9
$INSBASE
10
0.0
20
0.0
30
0.0
9
$EXTMIN
10
1.000000000000000E+20
20
1.000000000000000E+20
30
1.000000000000000E+20
9
$EXTMAX
10
-1.000000000000000E+20
20
-1.000000000000000E+20
30
-1.000000000000000E+20
9
$LIMMIN
10
0.0
20
0.0
9
$LIMMAX
10
12.0
20
9.0
9
$MEASUREMENT
70
1
9
$CELWEIGHT
370
-1
9
$ENDCAPS
280
0
9
$JOINSTYLE
280
0
9
$LWDISPLAY
290
0
9
$INSUNITS
70
0
9
$HYPERLINKBASE
1

9
$STYLESHEET
1

9
$XEDIT
290
1
9
$CEPSNTYPE
380
0
9
$PSTYLEMODE
290
1
9
$EXTNAMES
290
1
9
$PSVPSCALE
40
0.0
9
$OLESTARTUP
290
0
9
$SORTENTS
280
127
9
$INDEXCTL
280
0
9
$HIDETEXT
280
0
9
$XCLIPFRAME
280
2
9
$HALOGAP
280
0
9
$OBSCOLOR
70
257
9
$OBSLTYPE
280
0
9
$INTERSECTIONDISPLAY
280
0
9
$INTERSECTIONCOLOR
70
257
9
$DIMASSOC
280
1
9
$PROJECTNAME
1

9
$CAMERADISPLAY
290
0
9
$LENSLENGTH
40
50.0
9
$CAMERAHEIGHT
40
0.0
9
$STEPSPERSEC
40
2.0
9
$STEPSIZE
40
6.0
9
$3DDWFPREC
40
2.0
9
$PSOLWIDTH
40
0.25
9
$PSOLHEIGHT
40
4.0
9
$LOFTANG1
40
1.570796326794896
9
$LOFTANG2
40
1.570796326794896
9
$LOFTMAG1
40
0.0
9
$LOFTMAG2
40
0.0
9
$LOFTPARAM
70
7
9
$LOFTNORMALS
280
1
9
$LATITUDE
40
37.795
9
$LONGITUDE
40
-122.394
9
$NORTHDIRECTION
40
0.0
9
$TIMEZONE
70
-8000
9
$LIGHTGLYPHDISPLAY
280
1
9
$TILEMODELIGHTSYNCH
280
1
9
$CMATERIAL
347
222
9
$SOLIDHIST
280
0
9
$SHOWHIST
280
1
9
$DWFFRAME
280
2
9
$DGNFRAME
280
0
9
$REALWORLDSCALE
290
1
9
$INTERFERECOLOR
62
1
9
$INTERFEREOBJVS
345
244
9
$INTERFEREVPVS
346
241
9
$CSHADOW
280
0
9
$SHADOWPLANELOCATION
40
0.0
0
ENDSEC
0
SECTION
2
CLASSES
0
CLASS
1
ACDBDICTIONARYWDFLT
2
AcDbDictionaryWithDefault
3
ObjectDBX Classes
90
0
91
1
280
0
281
0
0
CLASS
1
MATERIAL
2
AcDbMaterial
3
ObjectDBX Classes
90
1153
91
3
280
0
281
0
0
CLASS
1
VISUALSTYLE
2
AcDbVisualStyle
3
ObjectDBX Classes
90
4095
91
24
280
0
281
0
0
CLASS
1
SCALE
2
AcDbScale
3
ObjectDBX Classes
90
1153
91
17
280
0
281
0
0
CLASS
1
TABLESTYLE
2
AcDbTableStyle
3
ObjectDBX Classes
90
4095
91
1
280
0
281
0
0
CLASS
1
MLEADERSTYLE
2
AcDbMLeaderStyle
3
ACDB_MLEADERSTYLE_CLASS
90
4095
91
1
280
0
281
0
0
CLASS
1
ACDBSECTIONVIEWSTYLE
2
AcDbSectionViewStyle
3
ObjectDBX Classes
90
1025
91
1
280
0
281
0
0
CLASS
1
ACDBDETAILVIEWSTYLE
2
AcDbDetailViewStyle
3
ObjectDBX Classes
90
1025
91
1
280
0
281
0
0
CLASS
1
DICTIONARYVAR
2
AcDbDictionaryVar
3
ObjectDBX Classes
90
0
91
9
280
0
281
0
0
CLASS
1
CELLSTYLEMAP
2
AcDbCellStyleMap
3
ObjectDBX Classes
90
1152
91
2
280
0
281
0
0
ENDSEC
0
SECTION
2
TABLES
0
TABLE
2
VPORT
5
219
330
0
100
AcDbSymbolTable
70
1
0
VPORT
5
285
330
219
100
AcDbSymbolTableRecord
100
AcDbViewportTableRecord
2
*ACTIVE
70
0
10
0.0
20
0.0
11
1.0
21
1.0
12
60.85393284500712
22
1.602311788490737
13
0.0
23
0.0
14
0.5
24
0.5
15
0.5
25
0.5
16
0.0
26
0.0
36
1.0
17
0.0
27
0.0
37
0.0
40
135.7601553851812
41
1.367970660146699
42
50.0
43
0.0
44
0.0
50
0.0
51
0.0
71
0
72
1000
73
1
74
3
75
0
76
1
77
0
78
0
281
0
65
1
110
0.0
120
0.0
130
0.0
111
1.0
121
0.0
131
0.0
112
0.0
122
1.0
132
0.0
79
0
146
0.0
348
240
60
3
61
5
292
1
282
0
141
0.0
142
0.0
63
250
421
3355443
1001
ACAD_NAV_VCDISPLAY
1070
3
0
ENDTAB
0
TABLE
2
LTYPE
5
216
330
0
100
AcDbSymbolTable
70
2
0
LTYPE
5
26B
330
216
100
AcDbSymbolTableRecord
100
AcDbLinetypeTableRecord
2
ByBlock
70
0
3

72
65
73
0
40
0.0
0
LTYPE
5
26C
330
216
100
AcDbSymbolTableRecord
100
AcDbLinetypeTableRecord
2
ByLayer
70
0
3

72
65
73
0
40
0.0
0
LTYPE
5
26D
330
216
100
AcDbSymbolTableRecord
100
AcDbLinetypeTableRecord
2
CONTINUOUS
70
0
3
Solid line
72
65
73
0
40
0.0
0
LTYPE
5
103D
330
216
100
AcDbSymbolTableRecord
100
AcDbLinetypeTableRecord
2
DOTTED
70
0
3
Dotted . . . . . . . . . . . . . . . . . . . .
72
65
73
2
40
3.0
49
0.0
74
0
49
-3.0
74
0
0
ENDTAB
0
TABLE
2
LAYER
5
213
102
{ACAD_XDICTIONARY
360
297
102
}
330
0
100
AcDbSymbolTable
70
4
0
LAYER
5
265
102
{ACAD_XDICTIONARY
360
292
102
}
330
213
100
AcDbSymbolTableRecord
100
AcDbLayerTableRecord
2
0
70
0
62
7
6
CONTINUOUS
370
-3
390
220
347
232
348
0
0
LAYER
5
1900
330
213
100
AcDbSymbolTableRecord
100
AcDbLayerTableRecord
2
gear
70
0
62
7
6
CONTINUOUS
370
-3
390
220
347
232
348
0
1001
AcAecLayerStandard
1000

1000

1001
AcCmTransparency
1071
0
0
LAYER
5
1901
330
213
100
AcDbSymbolTableRecord
100
AcDbLayerTableRecord
2
gear_guides
70
0
62
5
6
CONTINUOUS
370
-3
390
220
347
232
348
0
1001
AcAecLayerStandard
1000

1000

1001
AcCmTransparency
1071
0
0
LAYER
5
1902
330
213
100
AcDbSymbolTableRecord
100
AcDbLayerTableRecord
2
gear_texts
70
0
62
7
6
CONTINUOUS
370
-3
390
220
347
232
348
0
1001
AcAecLayerStandard
1000

1000

1001
AcCmTransparency
1071
0
0
ENDTAB
0
TABLE
2
STYLE
5
214
330
0
100
AcDbSymbolTable
70
3
0
STYLE
5
266
330
214
100
AcDbSymbolTableRecord
100
AcDbTextStyleTableRecord
2
STANDARD
70
0
40
0.0
41
1.0
50
0.0
71
0
42
0.2
3
txt
4

0
STYLE
5
26A
330
214
100
AcDbSymbolTableRecord
100
AcDbTextStyleTableRecord
2
ANNOTATIVE
70
0
40
0.0
41
1.0
50
0.0
71
0
42
0.2
3
txt
4

1001
ACADANNOTATIVE
1000
AnnotativeData
1002
{
1070
1
1070
1
1002
}
0
STYLE
5
301
330
214
100
AcDbSymbolTableRecord
100
AcDbTextStyleTableRecord
2

70
1
40
0.0
41
1.0
50
0.0
71
0
42
0.2
3
ltypeshp.shx
4

0
ENDTAB
0
TABLE
2
VIEW
5
217
330
0
100
AcDbSymbolTable
70
1
0
ENDTAB
0
TABLE
2
UCS
5
218
330
0
100
AcDbSymbolTable
70
0
0
ENDTAB
0
TABLE
2
APPID
5
21A
330
0
100
AcDbSymbolTable
70
10
0
APPID
5
267
330
21A
100
AcDbSymbolTableRecord
100
AcDbRegAppTableRecord
2
ACAD
70
0
0
APPID
5
26E
330
21A
100
AcDbSymbolTableRecord
100
AcDbRegAppTableRecord
2
ACADANNOTATIVE
70
0
0
APPID
5
286
330
21A
100
AcDbSymbolTableRecord
100
AcDbRegAppTableRecord
2
ACADANNOPO
70
0
0
APPID
5
287
330
21A
100
AcDbSymbolTableRecord
100
AcDbRegAppTableRecord
2
ACAD_DSTYLE_DIMJAG
70
0
0
APPID
5
288
330
21A
100
AcDbSymbolTableRecord
100
AcDbRegAppTableRecord
2
ACAD_DSTYLE_DIMTALN
70
0
0
APPID
5
289
330
21A
100
AcDbSymbolTableRecord
100
AcDbRegAppTableRecord
2
ACAD_MLEADERVER
70
0
0
APPID
5
28A
330
21A
100
AcDbSymbolTableRecord
100
AcDbRegAppTableRecord
2
ACAD_NAV_VCDISPLAY
70
0
0
APPID
5
2E7
330
21A
100
AcDbSymbolTableRecord
100
AcDbRegAppTableRecord
2
ACAD_EXEMPT_FROM_CAD_STANDARDS
70
0
0
APPID
5
2FC
330
21A
100
AcDbSymbolTableRecord
100
AcDbRegAppTableRecord
2
AcAecLayerStandard
70
0
0
APPID
5
2FD
330
21A
100
AcDbSymbolTableRecord
100
AcDbRegAppTableRecord
2
AcCmTransparency
70
0
0
ENDTAB
0
TABLE
2
DIMSTYLE
5
21B
330
0
100
AcDbSymbolTable
70
2
100
AcDbDimStyleTable
71
1
340
268
0
DIMSTYLE
105
268
330
21B
100
AcDbSymbolTableRecord
100
AcDbDimStyleTableRecord
2
STANDARD
70
0
279
2
340
266
0
DIMSTYLE
105
269
330
21B
100
AcDbSymbolTableRecord
100
AcDbDimStyleTableRecord
2
ANNOTATIVE
70
0
40
0.0
279
2
340
266
1001
ACADANNOTATIVE
1000
AnnotativeData
1002
{
1070
1
1070
1
1002
}
0
ENDTAB
0
TABLE
2
BLOCK_RECORD
5
212
330
0
100
AcDbSymbolTable
70
2
0
BLOCK_RECORD
5
281
330
212
100
AcDbSymbolTableRecord
100
AcDbBlockTableRecord
2
*Model_Space
340
284
70
0
280
1
281
0
0
BLOCK_RECORD
5
27D
330
212
100
AcDbSymbolTableRecord
100
AcDbBlockTableRecord
2
*Paper_Space
340
280
70
0
280
1
281
0
0
BLOCK_RECORD
5
28C
330
212
100
AcDbSymbolTableRecord
100
AcDbBlockTableRecord
2
$MODEL_SPACE
340
0
70
0
280
1
281
0
0
BLOCK_RECORD
5
28E
330
212
100
AcDbSymbolTableRecord
100
AcDbBlockTableRecord
2
$PAPER_SPACE
340
0
70
0
280
1
281
0
0
ENDTAB
0
ENDSEC
0
SECTION
2
BLOCKS
0
BLOCK
5
282
330
281
100
AcDbEntity
8
0
100
AcDbBlockBegin
2
*Model_Space
70
0
10
0.0
20
0.0
30
0.0
3
*Model_Space
1

0
ENDBLK
5
283
330
281
100
AcDbEntity
8
0
100
AcDbBlockEnd
0
BLOCK
5
27E
330
27D
100
AcDbEntity
67
1
8
0
100
AcDbBlockBegin
2
*Paper_Space
70
0
10
0.0
20
0.0
30
0.0
3
*Paper_Space
1

0
ENDBLK
5
27F
330
27D
100
AcDbEntity
67
1
8
0
100
AcDbBlockEnd
0
BLOCK
5
28D
330
28C
100
AcDbEntity
8
0
100
AcDbBlockBegin
2
$MODEL_SPACE
70
0
10
0.0
20
0.0
30
0.0
3
$MODEL_SPACE
1

0
ENDBLK
5
21
330
28C
100
AcDbEntity
8
0
100
AcDbBlockEnd
0
BLOCK
5
28F
330
28E
100
AcDbEntity
8
0
100
AcDbBlockBegin
2
$PAPER_SPACE
70
0
10
0.0
20
0.0
30
0.0
3
$PAPER_SPACE
1

0
ENDBLK
5
5B
330
28E
100
AcDbEntity
8
0
100
AcDbBlockEnd
0
ENDSEC
0
SECTION
2
ENTITIES
0
LWPOLYLINE
5
2000
100
AcDbEntity
100
AcDbPolyline
66
1
90
1040
70
1
43
0
10
17.877
20
0
30
0
10
18.984682
20
0.000034
30
0
10
19.007793
20
0.000908
30
0
10
19.053931
20
0.004202
30
0
10
19.122926
20
0.011521
30
0
10
19.214527
20
0.024463
30
0
10
19.328396
20
0.044609
30
0
10
19.464115
20
0.073526
30
0
10
19.621183
20
0.112757
30
0
10
19.799018
20
0.16382
30
0
10
19.996957
20
0.228205
30
0
10
20.214262
20
0.307369
30
0
10
20.450116
20
0.402733
30
0
10
20.703625
20
0.515676
30
0
10
20.973826
20
0.647537
30
0
10
21.25968
20
0.799604
30
0
10
21.560082
20
0.973119
30
0
10
21.873859
20
1.169268
30
0
10
22.035379
20
1.276186
30
0
10
22.117227
20
1.331915
30
0
10
22.158414
20
1.360355
30
0
10
22.168738
20
1.367525
30
0
10
22.173904
20
1.371119
30
0
10
22.176487
20
1.372919
30
0
10
22.177134
20
1.373369
30
0
10
22.17749
20
1.373801
30
0
10
22.06539
20
2.616673
30
0
10
22.064962
20
2.617034
30
0
10
22.064245
20
2.617361
30
0
10
22.061381
20
2.618669
30
0
10
22.055656
20
2.621281
30
0
10
22.044215
20
2.626488
30
0
10
21.998604
20
2.647099
30
0
10
21.908105
20
2.687284
30
0
10
21.730061
20
2.763575
30
0
10
21.386251
20
2.900413
30
0
10
21.059649
20
3.017375
30
0
10
20.751198
20
3.11584
30
0
10
20.461764
20
3.197224
30
0
10
20.192136
20
3.262983
30
0
10
19.943026
20
3.314606
30
0
10
19.715062
20
3.353609
30
0
10
19.508796
20
3.381537
30
0
10
19.324695
20
3.399955
30
0
10
19.163142
20
3.410448
30
0
10
19.02444
20
3.414614
30
0
10
18.908803
20
3.41406
30
0
10
18.816365
20
3.410402
30
0
10
18.747173
20
3.405258
30
0
10
18.701191
20
3.400243
30
0
10
18.678296
20
3.396968
30
0
10
17.588485
20
3.198799
30
0
10
17.002037
20
5.524297
30
0
10
18.055495
20
5.866621
30
0
10
18.077205
20
5.874595
30
0
10
18.120067
20
5.891984
30
0
10
18.183423
20
5.920266
30
0
10
18.266542
20
5.960881
30
0
10
18.368612
20
6.015229
30
0
10
18.488753
20
6.08467
30
0
10
18.62601
20
6.170517
30
0
10
18.779362
20
6.274035
30
0
10
18.947717
20
6.396436
30
0
10
19.129924
20
6.538876
30
0
10
19.324764
20
6.702455
30
0
10
19.530965
20
6.888209
30
0
10
19.747194
20
7.097112
30
0
10
19.972066
20
7.330071
30
0
10
20.204146
20
7.587923
30
0
10
20.441953
20
7.871434
30
0
10
20.562527
20
8.023031
30
0
10
20.623148
20
8.101326
30
0
10
20.653531
20
8.141101
30
0
10
20.661134
20
8.151111
30
0
10
20.664936
20
8.156125
30
0
10
20.666838
20
8.158635
30
0
10
20.667313
20
8.159263
30
0
10
20.667519
20
8.159784
30
0
10
20.176836
20
9.307184
30
0
10
20.176317
20
9.307395
30
0
10
20.175535
20
9.307485
30
0
10
20.172407
20
9.307844
30
0
10
20.166155
20
9.308559
30
0
10
20.153665
20
9.309976
30
0
10
20.103917
20
9.315484
30
0
10
20.00543
20
9.325736
30
0
10
19.812525
20
9.343274
30
0
10
19.443256
20
9.367171
30
0
10
19.096496
20
9.377484
30
0
10
18.772714
20
9.375812
30
0
10
18.472297
20
9.363774
30
0
10
18.195545
20
9.342995
30
0
10
17.942675
20
9.315111
30
0
10
17.713816
20
9.281761
30
0
10
17.509016
20
9.244582
30
0
10
17.328233
20
9.205209
30
0
10
17.171345
20
9.165266
30
0
10
17.038144
20
9.126366
30
0
10
16.928338
20
9.090106
30
0
10
16.841554
20
9.058062
30
0
10
16.777339
20
9.031788
30
0
10
16.735157
20
9.012809
30
0
10
16.714395
20
9.002619
30
0
10
15.73916
20
8.47738
30
0
10
14.462797
20
10.507837
30
0
10
15.35891
20
11.158943
30
0
10
15.377094
20
11.173235
30
0
10
15.412484
20
11.203019
30
0
10
15.464
20
11.249495
30
0
10
15.5305
20
11.313806
30
0
10
15.61078
20
11.397036
30
0
10
15.703583
20
11.500204
30
0
10
15.807594
20
11.624264
30
0
10
15.921451
20
11.770104
30
0
10
16.043743
20
11.938538
30
0
10
16.173015
20
12.130312
30
0
10
16.307771
20
12.346094
30
0
10
16.446478
20
12.586476
30
0
10
16.587569
20
12.851974
30
0
10
16.729447
20
13.14302
30
0
10
16.870488
20
13.459968
30
0
10
17.009045
20
13.80309
30
0
10
17.076873
20
13.984527
30
0
10
17.110332
20
14.077722
30
0
10
17.126937
20
14.124939
30
0
10
17.131074
20
14.136808
30
0
10
17.133141
20
14.142752
30
0
10
17.134174
20
14.145727
30
0
10
17.134432
20
14.146471
30
0
10
17.134466
20
14.14703
30
0
10
16.313234
20
15.086643
30
0
10
16.312675
20
15.086684
30
0
10
16.311903
20
15.086528
30
0
10
16.308817
20
15.085902
30
0
10
16.30265
20
15.08465
30
0
10
16.290334
20
15.082138
30
0
10
16.241319
20
15.072003
30
0
10
16.144483
20
15.05132
30
0
10
15.9556
20
15.008388
30
0
10
15.59702
20
14.917006
30
0
10
15.264045
20
14.819659
30
0
10
14.956627
20
14.718015
30
0
10
14.674633
20
14.613732
30
0
10
14.417848
20
14.508449
30
0
10
14.18597
20
14.403789
30
0
10
13.978619
20
14.30135
30
0
10
13.79533
20
14.202704
30
0
10
13.635563
20
14.109393
30
0
10
13.498697
20
14.022923
30
0
10
13.384035
20
13.944766
30
0
10
13.290809
20
13.876348
30
0
10
13.218175
20
13.819055
30
0
10
13.165222
20
13.774224
30
0
10
13.130969
20
13.743138
30
0
10
13.114372
20
13.727032
30
0
10
12.349176
20
12.926135
30
0
10
10.507837
20
14.462797
30
0
10
11.158889
20
15.35895
30
0
10
11.171766
20
15.378161
30
0
10
11.19622
20
15.417423
30
0
10
11.230853
20
15.477544
30
0
10
11.274225
20
15.559258
30
0
10
11.324857
20
15.663222
30
0
10
11.381236
20
15.790017
30
0
10
11.44182
20
15.940147
30
0
10
11.505037
20
16.114033
30
0
10
11.569295
20
16.312014
30
0
10
11.632978
20
16.534349
30
0
10
11.694459
20
16.781211
30
0
10
11.752095
20
17.052692
30
0
10
11.804237
20
17.348794
30
0
10
11.849233
20
17.669438
30
0
10
11.885428
20
18.014458
30
0
10
11.911174
20
18.383602
30
0
10
11.919615
20
18.577119
30
0
10
11.922638
20
18.676093
30
0
10
11.923838
20
18.72613
30
0
10
11.924106
20
18.738697
30
0
10
11.924235
20
18.744989
30
0
10
11.924298
20
18.748137
30
0
10
11.924313
20
18.748924
30
0
10
11.924173
20
18.749466
30
0
10
10.852778
20
19.389317
30
0
10
10.852234
20
19.389183
30
0
10
10.851548
20
19.388796
30
0
10
10.848807
20
19.387247
30
0
10
10.843328
20
19.38415
30
0
10
10.832391
20
19.377956
30
0
10
10.788907
20
19.35317
30
0
10
10.703203
20
19.303575
30
0
10
10.53683
20
19.204377
30
0
10
10.224039
20
19.00666
30
0
10
9.937443
20
18.811182
30
0
10
9.676481
20
18.619516
30
0
10
9.440514
20
18.433196
30
0
10
9.228831
20
18.253715
30
0
10
9.040644
20
18.082523
30
0
10
8.875096
20
17.921022
30
0
10
8.731262
20
17.770565
30
0
10
8.608149
20
17.63245
30
0
10
8.504702
20
17.507919
30
0
10
8.419805
20
17.398155
30
0
10
8.352283
20
17.304277
30
0
10
8.300909
20
17.227343
30
0
10
8.264401
20
17.168342
30
0
10
8.24143
20
17.128194
30
0
10
8.230622
20
17.107747
30
0
10
7.750369
20
16.10959
30
0
10
5.524297
20
17.002037
30
0
10
5.866557
20
18.055516
30
0
10
5.872867
20
18.077766
30
0
10
5.883992
20
18.122663
30
0
10
5.898352
20
18.190544
30
0
10
5.91435
20
18.28166
30
0
10
5.930377
20
18.396182
30
0
10
5.944815
20
18.534194
30
0
10
5.956041
20
18.695698
30
0
10
5.962431
20
18.880608
30
0
10
5.962364
20
19.088756
30
0
10
5.954225
20
19.319888
30
0
10
5.936412
20
19.573667
30
0
10
5.907335
20
19.84967
30
0
10
5.865425
20
20.147393
30
0
10
5.809134
20
20.466249
30
0
10
5.73694
20
20.805567
30
0
10
5.647354
20
21.1646
30
0
10
5.595582
20
21.351254
30
0
10
5.567872
20
21.446317
30
0
10
5.553552
20
21.494277
30
0
10
5.549923
20
21.506311
30
0
10
5.548101
20
21.512335
30
0
10
5.547188
20
21.515348
30
0
10
5.54696
20
21.516102
30
0
10
5.546659
20
21.516574
30
0
10
4.329977
20
21.794029
30
0
10
4.329501
20
21.793733
30
0
10
4.328968
20
21.793153
30
0
10
4.326839
20
21.790834
30
0
10
4.322586
20
21.786195
30
0
10
4.314098
20
21.776924
30
0
10
4.280402
20
21.739914
30
0
10
4.214218
20
21.666263
30
0
10
4.086642
20
21.520508
30
0
10
3.850258
20
21.23581
30
0
10
3.638095
20
20.961336
30
0
10
3.449133
20
20.698409
30
0
10
3.282292
20
20.44829
30
0
10
3.136432
20
20.21218
30
0
10
3.010357
20
19.991214
30
0
10
2.902818
20
19.786461
30
0
10
2.812517
20
19.59892
30
0
10
2.738109
20
19.429521
30
0
10
2.678208
20
19.279118
30
0
10
2.631385
20
19.148491
30
0
10
2.596177
20
19.038343
30
0
10
2.571091
20
18.949299
30
0
10
2.554602
20
18.881904
30
0
10
2.545163
20
18.836622
30
0
10
2.541203
20
18.813836
30
0
10
2.392902
20
17.716127
30
0
10
0
20
17.877
30
0
10
-0.000034
20
18.984682
30
0
10
-0.000908
20
19.007793
30
0
10
-0.004202
20
19.053931
30
0
10
-0.011521
20
19.122926
30
0
10
-0.024463
20
19.214527
30
0
10
-0.044609
20
19.328396
30
0
10
-0.073526
20
19.464115
30
0
10
-0.112757
20
19.621183
30
0
10
-0.16382
20
19.799018
30
0
10
-0.228205
20
19.996957
30
0
10
-0.307369
20
20.214262
30
0
10
-0.402733
20
20.450116
30
0
10
-0.515676
20
20.703625
30
0
10
-0.647537
20
20.973826
30
0
10
-0.799604
20
21.25968
30
0
10
-0.973119
20
21.560082
30
0
10
-1.169268
20
21.873859
30
0
10
-1.276186
20
22.035379
30
0
10
-1.331915
20
22.117227
30
0
10
-1.360355
20
22.158414
30
0
10
-1.367525
20
22.168738
30
0
10
-1.371119
20
22.173904
30
0
10
-1.372919
20
22.176487
30
0
10
-1.373369
20
22.177134
30
0
10
-1.373801
20
22.17749
30
0
10
-2.616673
20
22.06539
30
0
10
-2.617034
20
22.064962
30
0
10
-2.617361
20
22.064245
30
0
10
-2.618669
20
22.061381
30
0
10
-2.621281
20
22.055656
30
0
10
-2.626488
20
22.044215
30
0
10
-2.647099
20
21.998604
30
0
10
-2.687284
20
21.908105
30
0
10
-2.763575
20
21.730061
30
0
10
-2.900413
20
21.386251
30
0
10
-3.017375
20
21.059649
30
0
10
-3.11584
20
20.751198
30
0
10
-3.197224
20
20.461764
30
0
10
-3.262983
20
20.192136
30
0
10
-3.314606
20
19.943026
30
0
10
-3.353609
20
19.715062
30
0
10
-3.381537
20
19.508796
30
0
10
-3.399955
20
19.324695
30
0
10
-3.410448
20
19.163142
30
0
10
-3.414614
20
19.02444
30
0
10
-3.41406
20
18.908803
30
0
10
-3.410402
20
18.816365
30
0
10
-3.405258
20
18.747173
30
0
10
-3.400243
20
18.701191
30
0
10
-3.396968
20
18.678296
30
0
10
-3.198799
20
17.588485
30
0
10
-5.524297
20
17.002037
30
0
10
-5.866621
20
18.055495
30
0
10
-5.874595
20
18.077205
30
0
10
-5.891984
20
18.120067
30
0
10
-5.920266
20
18.183423
30
0
10
-5.960881
20
18.266542
30
0
10
-6.015229
20
18.368612
30
0
10
-6.08467
20
18.488753
30
0
10
-6.170517
20
18.62601
30
0
10
-6.274035
20
18.779362
30
0
10
-6.396436
20
18.947717
30
0
10
-6.538876
20
19.129924
30
0
10
-6.702455
20
19.324764
30
0
10
-6.888209
20
19.530965
30
0
10
-7.097112
20
19.747194
30
0
10
-7.330071
20
19.972066
30
0
10
-7.587923
20
20.204146
30
0
10
-7.871434
20
20.441953
30
0
10
-8.023031
20
20.562527
30
0
10
-8.101326
20
20.623148
30
0
10
-8.141101
20
20.653531
30
0
10
-8.151111
20
20.661134
30
0
10
-8.156125
20
20.664936
30
0
10
-8.158635
20
20.666838
30
0
10
-8.159263
20
20.667313
30
0
10
-8.159784
20
20.667519
30
0
10
-9.307184
20
20.176836
30
0
10
-9.307395
20
20.176317
30
0
10
-9.307485
20
20.175535
30
0
10
-9.307844
20
20.172407
30
0
10
-9.308559
20
20.166155
30
0
10
-9.309976
20
20.153665
30
0
10
-9.315484
20
20.103917
30
0
10
-9.325736
20
20.00543
30
0
10
-9.343274
20
19.812525
30
0
10
-9.367171
20
19.443256
30
0
10
-9.377484
20
19.096496
30
0
10
-9.375812
20
18.772714
30
0
10
-9.363774
20
18.472297
30
0
10
-9.342995
20
18.195545
30
0
10
-9.315111
20
17.942675
30
0
10
-9.281761
20
17.713816
30
0
10
-9.244582
20
17.509016
30
0
10
-9.205209
20
17.328233
30
0
10
-9.165266
20
17.171345
30
0
10
-9.126366
20
17.038144
30
0
10
-9.090106
20
16.928338
30
0
10
-9.058062
20
16.841554
30
0
10
-9.031788
20
16.777339
30
0
10
-9.012809
20
16.735157
30
0
10
-9.002619
20
16.714395
30
0
10
-8.47738
20
15.73916
30
0
10
-10.507837
20
14.462797
30
0
10
-11.158943
20
15.35891
30
0
10
-11.173235
20
15.377094
30
0
10
-11.203019
20
15.412484
30
0
10
-11.249495
20
15.464
30
0
10
-11.313806
20
15.5305
30
0
10
-11.397036
20
15.61078
30
0
10
-11.500204
20
15.703583
30
0
10
-11.624264
20
15.807594
30
0
10
-11.770104
20
15.921451
30
0
10
-11.938538
20
16.043743
30
0
10
-12.130312
20
16.173015
30
0
10
-12.346094
20
16.307771
30
0
10
-12.586476
20
16.446478
30
0
10
-12.851974
20
16.587569
30
0
10
-13.14302
20
16.729447
30
0
10
-13.459968
20
16.870488
30
0
10
-13.80309
20
17.009045
30
0
10
-13.984527
20
17.076873
30
0
10
-14.077722
20
17.110332
30
0
10
-14.124939
20
17.126937
30
0
10
-14.136808
20
17.131074
30
0
10
-14.142752
20
17.133141
30
0
10
-14.145727
20
17.134174
30
0
10
-14.146471
20
17.134432
30
0
10
-14.14703
20
17.134466
30
0
10
-15.086643
20
16.313234
30
0
10
-15.086684
20
16.312675
30
0
10
-15.086528
20
16.311903
30
0
10
-15.085902
20
16.308817
30
0
10
-15.08465
20
16.30265
30
0
10
-15.082138
20
16.290334
30
0
10
-15.072003
20
16.241319
30
0
10
-15.05132
20
16.144483
30
0
10
-15.008388
20
15.9556
30
0
10
-14.917006
20
15.59702
30
0
10
-14.819659
20
15.264045
30
0
10
-14.718015
20
14.956627
30
0
10
-14.613732
20
14.674633
30
0
10
-14.508449
20
14.417848
30
0
10
-14.403789
20
14.18597
30
0
10
-14.30135
20
13.978619
30
0
10
-14.202704
20
13.79533
30
0
10
-14.109393
20
13.635563
30
0
10
-14.022923
20
13.498697
30
0
10
-13.944766
20
13.384035
30
0
10
-13.876348
20
13.290809
30
0
10
-13.819055
20
13.218175
30
0
10
-13.774224
20
13.165222
30
0
10
-13.743138
20
13.130969
30
0
10
-13.727032
20
13.114372
30
0
10
-12.926135
20
12.349176
30
0
10
-14.462797
20
10.507837
30
0
10
-15.35895
20
11.158889
30
0
10
-15.378161
20
11.171766
30
0
10
-15.417423
20
11.19622
30
0
10
-15.477544
20
11.230853
30
0
10
-15.559258
20
11.274225
30
0
10
-15.663222
20
11.324857
30
0
10
-15.790017
20
11.381236
30
0
10
-15.940147
20
11.44182
30
0
10
-16.114033
20
11.505037
30
0
10
-16.312014
20
11.569295
30
0
10
-16.534349
20
11.632978
30
0
10
-16.781211
20
11.694459
30
0
10
-17.052692
20
11.752095
30
0
10
-17.348794
20
11.804237
30
0
10
-17.669438
20
11.849233
30
0
10
-18.014458
20
11.885428
30
0
10
-18.383602
20
11.911174
30
0
10
-18.577119
20
11.919615
30
0
10
-18.676093
20
11.922638
30
0
10
-18.72613
20
11.923838
30
0
10
-18.738697
20
11.924106
30
0
10
-18.744989
20
11.924235
30
0
10
-18.748137
20
11.924298
30
0
10
-18.748924
20
11.924313
30
0
10
-18.749466
20
11.924173
30
0
10
-19.389317
20
10.852778
30
0
10
-19.389183
20
10.852234
30
0
10
-19.388796
20
10.851548
30
0
10
-19.387247
20
10.848807
30
0
10
-19.38415
20
10.843328
30
0
10
-19.377956
20
10.832391
30
0
10
-19.35317
20
10.788907
30
0
10
-19.303575
20
10.703203
30
0
10
-19.204377
20
10.53683
30
0
10
-19.00666
20
10.224039
30
0
10
-18.811182
20
9.937443
30
0
10
-18.619516
20
9.676481
30
0
10
-18.433196
20
9.440514
30
0
10
-18.253715
20
9.228831
30
0
10
-18.082523
20
9.040644
30
0
10
-17.921022
20
8.875096
30
0
10
-17.770565
20
8.731262
30
0
10
-17.63245
20
8.608149
30
0
10
-17.507919
20
8.504702
30
0
10
-17.398155
20
8.419805
30
0
10
-17.304277
20
8.352283
30
0
10
-17.227343
20
8.300909
30
0
10
-17.168342
20
8.264401
30
0
10
-17.128194
20
8.24143
30
0
10
-17.107747
20
8.230622
30
0
10
-16.10959
20
7.750369
30
0
10
-17.002037
20
5.524297
30
0
10
-18.055516
20
5.866557
30
0
10
-18.077766
20
5.872867
30
0
10
-18.122663
20
5.883992
30
0
10
-18.190544
20
5.898352
30
0
10
-18.28166
20
5.91435
30
0
10
-18.396182
20
5.930377
30
0
10
-18.534194
20
5.944815
30
0
10
-18.695698
20
5.956041
30
0
10
-18.880608
20
5.962431
30
0
10
-19.088756
20
5.962364
30
0
10
-19.319888
20
5.954225
30
0
10
-19.573667
20
5.936412
30
0
10
-19.84967
20
5.907335
30
0
10
-20.147393
20
5.865425
30
0
10
-20.466249
20
5.809134
30
0
10
-20.805567
20
5.73694
30
0
10
-21.1646
20
5.647354
30
0
10
-21.351254
20
5.595582
30
0
10
-21.446317
20
5.567872
30
0
10
-21.494277
20
5.553552
30
0
10
-21.506311
20
5.549923
30
0
10
-21.512335
20
5.548101
30
0
10
-21.515348
20
5.547188
30
0
10
-21.516102
20
5.54696
30
0
10
-21.516574
20
5.546659
30
0
10
-21.794029
20
4.329977
30
0
10
-21.793733
20
4.329501
30
0
10
-21.793153
20
4.328968
30
0
10
-21.790834
20
4.326839
30
0
10
-21.786195
20
4.322586
30
0
10
-21.776924
20
4.314098
30
0
10
-21.739914
20
4.280402
30
0
10
-21.666263
20
4.214218
30
0
10
-21.520508
20
4.086642
30
0
10
-21.23581
20
3.850258
30
0
10
-20.961336
20
3.638095
30
0
10
-20.698409
20
3.449133
30
0
10
-20.44829
20
3.282292
30
0
10
-20.21218
20
3.136432
30
0
10
-19.991214
20
3.010357
30
0
10
-19.786461
20
2.902818
30
0
10
-19.59892
20
2.812517
30
0
10
-19.429521
20
2.738109
30
0
10
-19.279118
20
2.678208
30
0
10
-19.148491
20
2.631385
30
0
10
-19.038343
20
2.596177
30
0
10
-18.949299
20
2.571091
30
0
10
-18.881904
20
2.554602
30
0
10
-18.836622
20
2.545163
30
0
10
-18.813836
20
2.541203
30
0
10
-17.716127
20
2.392902
30
0
10
-17.877
20
0
30
0
10
-18.984682
20
-0.000034
30
0
10
-19.007793
20
-0.000908
30
0
10
-19.053931
20
-0.004202
30
0
10
-19.122926
20
-0.011521
30
0
10
-19.214527
20
-0.024463
30
0
10
-19.328396
20
-0.044609
30
0
10
-19.464115
20
-0.073526
30
0
10
-19.621183
20
-0.112757
30
0
10
-19.799018
20
-0.16382
30
0
10
-19.996957
20
-0.228205
30
0
10
-20.214262
20
-0.307369
30
0
10
-20.450116
20
-0.402733
30
0
10
-20.703625
20
-0.515676
30
0
10
-20.973826
20
-0.647537
30
0
10
-21.25968
20
-0.799604
30
0
10
-21.560082
20
-0.973119
30
0
10
-21.873859
20
-1.169268
30
0
10
-22.035379
20
-1.276186
30
0
10
-22.117227
20
-1.331915
30
0
10
-22.158414
20
-1.360355
30
0
10
-22.168738
20
-1.367525
30
0
10
-22.173904
20
-1.371119
30
0
10
-22.176487
20
-1.372919
30
0
10
-22.177134
20
-1.373369
30
0
10
-22.17749
20
-1.373801
30
0
10
-22.06539
20
-2.616673
30
0
10
-22.064962
20
-2.617034
30
0
10
-22.064245
20
-2.617361
30
0
10
-22.061381
20
-2.618669
30
0
10
-22.055656
20
-2.621281
30
0
10
-22.044215
20
-2.626488
30
0
10
-21.998604
20
-2.647099
30
0
10
-21.908105
20
-2.687284
30
0
10
-21.730061
20
-2.763575
30
0
10
-21.386251
20
-2.900413
30
0
10
-21.059649
20
-3.017375
30
0
10
-20.751198
20
-3.11584
30
0
10
-20.461764
20
-3.197224
30
0
10
-20.192136
20
-3.262983
30
0
10
-19.943026
20
-3.314606
30
0
10
-19.715062
20
-3.353609
30
0
10
-19.508796
20
-3.381537
30
0
10
-19.324695
20
-3.399955
30
0
10
-19.163142
20
-3.410448
30
0
10
-19.02444
20
-3.414614
30
0
10
-18.908803
20
-3.41406
30
0
10
-18.816365
20
-3.410402
30
0
10
-18.747173
20
-3.405258
30
0
10
-18.701191
20
-3.400243
30
0
10
-18.678296
20
-3.396968
30
0
10
-17.588485
20
-3.198799
30
0
10
-17.002037
20
-5.524297
30
0
10
-18.055495
20
-5.866621
30
0
10
-18.077205
20
-5.874595
30
0
10
-18.120067
20
-5.891984
30
0
10
-18.183423
20
-5.920266
30
0
10
-18.266542
20
-5.960881
30
0
10
-18.368612
20
-6.015229
30
0
10
-18.488753
20
-6.08467
30
0
10
-18.62601
20
-6.170517
30
0
10
-18.779362
20
-6.274035
30
0
10
-18.947717
20
-6.396436
30
0
10
-19.129924
20
-6.538876
30
0
10
-19.324764
20
-6.702455
30
0
10
-19.530965
20
-6.888209
30
0
10
-19.747194
20
-7.097112
30
0
10
-19.972066
20
-7.330071
30
0
10
-20.204146
20
-7.587923
30
0
10
-20.441953
20
-7.871434
30
0
10
-20.562527
20
-8.023031
30
0
10
-20.623148
20
-8.101326
30
0
10
-20.653531
20
-8.141101
30
0
10
-20.661134
20
-8.151111
30
0
10
-20.664936
20
-8.156125
30
0
10
-20.666838
20
-8.158635
30
0
10
-20.667313
20
-8.159263
30
0
10
-20.667519
20
-8.159784
30
0
10
-20.176836
20
-9.307184
30
0
10
-20.176317
20
-9.307395
30
0
10
-20.175535
20
-9.307485
30
0
10
-20.172407
20
-9.307844
30
0
10
-20.166155
20
-9.308559
30
0
10
-20.153665
20
-9.309976
30
0
10
-20.103917
20
-9.315484
30
0
10
-20.00543
20
-9.325736
30
0
10
-19.812525
20
-9.343274
30
0
10
-19.443256
20
-9.367171
30
0
10
-19.096496
20
-9.377484
30
0
10
-18.772714
20
-9.375812
30
0
10
-18.472297
20
-9.363774
30
0
10
-18.195545
20
-9.342995
30
0
10
-17.942675
20
-9.315111
30
0
10
-17.713816
20
-9.281761
30
0
10
-17.509016
20
-9.244582
30
0
10
-17.328233
20
-9.205209
30
0
10
-17.171345
20
-9.165266
30
0
10
-17.038144
20
-9.126366
30
0
10
-16.928338
20
-9.090106
30
0
10
-16.841554
20
-9.058062
30
0
10
-16.777339
20
-9.031788
30
0
10
-16.735157
20
-9.012809
30
0
10
-16.714395
20
-9.002619
30
0
10
-15.73916
20
-8.47738
30
0
10
-14.462797
20
-10.507837
30
0
10
-15.35891
20
-11.158943
30
0
10
-15.377094
20
-11.173235
30
0
10
-15.412484
20
-11.203019
30
0
10
-15.464
20
-11.249495
30
0
10
-15.5305
20
-11.313806
30
0
10
-15.61078
20
-11.397036
30
0
10
-15.703583
20
-11.500204
30
0
10
-15.807594
20
-11.624264
30
0
10
-15.921451
20
-11.770104
30
0
10
-16.043743
20
-11.938538
30
0
10
-16.173015
20
-12.130312
30
0
10
-16.307771
20
-12.346094
30
0
10
-16.446478
20
-12.586476
30
0
10
-16.587569
20
-12.851974
30
0
10
-16.729447
20
-13.14302
30
0
10
-16.870488
20
-13.459968
30
0
10
-17.009045
20
-13.80309
30
0
10
-17.076873
20
-13.984527
30
0
10
-17.110332
20
-14.077722
30
0
10
-17.126937
20
-14.124939
30
0
10
-17.131074
20
-14.136808
30
0
10
-17.133141
20
-14.142752
30
0
10
-17.134174
20
-14.145727
30
0
10
-17.134432
20
-14.146471
30
0
10
-17.134466
20
-14.14703
30
0
10
-16.313234
20
-15.086643
30
0
10
-16.312675
20
-15.086684
30
0
10
-16.311903
20
-15.086528
30
0
10
-16.308817
20
-15.085902
30
0
10
-16.30265
20
-15.08465
30
0
10
-16.290334
20
-15.082138
30
0
10
-16.241319
20
-15.072003
30
0
10
-16.144483
20
-15.05132
30
0
10
-15.9556
20
-15.008388
30
0
10
-15.59702
20
-14.917006
30
0
10
-15.264045
20
-14.819659
30
0
10
-14.956627
20
-14.718015
30
0
10
-14.674633
20
-14.613732
30
0
10
-14.417848
20
-14.508449
30
0
10
-14.18597
20
-14.403789
30
0
10
-13.978619
20
-14.30135
30
0
10
-13.79533
20
-14.202704
30
0
10
-13.635563
20
-14.109393
30
0
10
-13.498697
20
-14.022923
30
0
10
-13.384035
20
-13.944766
30
0
10
-13.290809
20
-13.876348
30
0
10
-13.218175
20
-13.819055
30
0
10
-13.165222
20
-13.774224
30
0
10
-13.130969
20
-13.743138
30
0
10
-13.114372
20
-13.727032
30
0
10
-12.349176
20
-12.926135
30
0
10
-10.507837
20
-14.462797
30
0
10
-11.158889
20
-15.35895
30
0
10
-11.171766
20
-15.378161
30
0
10
-11.19622
20
-15.417423
30
0
10
-11.230853
20
-15.477544
30
0
10
-11.274225
20
-15.559258
30
0
10
-11.324857
20
-15.663222
30
0
10
-11.381236
20
-15.790017
30
0
10
-11.44182
20
-15.940147
30
0
10
-11.505037
20
-16.114033
30
0
10
-11.569295
20
-16.312014
30
0
10
-11.632978
20
-16.534349
30
0
10
-11.694459
20
-16.781211
30
0
10
-11.752095
20
-17.052692
30
0
10
-11.804237
20
-17.348794
30
0
10
-11.849233
20
-17.669438
30
0
10
-11.885428
20
-18.014458
30
0
10
-11.911174
20
-18.383602
30
0
10
-11.919615
20
-18.577119
30
0
10
-11.922638
20
-18.676093
30
0
10
-11.923838
20
-18.72613
30
0
10
-11.924106
20
-18.738697
30
0
10
-11.924235
20
-18.744989
30
0
10
-11.924298
20
-18.748137
30
0
10
-11.924313
20
-18.748924
30
0
10
-11.924173
20
-18.749466
30
0
10
-10.852778
20
-19.389317
30
0
10
-10.852234
20
-19.389183
30
0
10
-10.851548
20
-19.388796
30
0
10
-10.848807
20
-19.387247
30
0
10
-10.843328
20
-19.38415
30
0
10
-10.832391
20
-19.377956
30
0
10
-10.788907
20
-19.35317
30
0
10
-10.703203
20
-19.303575
30
0
10
-10.53683
20
-19.204377
30
0
10
-10.224039
20
-19.00666
30
0
10
-9.937443
20
-18.811182
30
0
10
-9.676481
20
-18.619516
30
0
10
-9.440514
20
-18.433196
30
0
10
-9.228831
20
-18.253715
30
0
10
-9.040644
20
-18.082523
30
0
10
-8.875096
20
-17.921022
30
0
10
-8.731262
20
-17.770565
30
0
10
-8.608149
20
-17.63245
30
0
10
-8.504702
20
-17.507919
30
0
10
-8.419805
20
-17.398155
30
0
10
-8.352283
20
-17.304277
30
0
10
-8.300909
20
-17.227343
30
0
10
-8.264401
20
-17.168342
30
0
10
-8.24143
20
-17.128194
30
0
10
-8.230622
20
-17.107747
30
0
10
-7.750369
20
-16.10959
30
0
10
-5.524297
20
-17.002037
30
0
10
-5.866557
20
-18.055516
30
0
10
-5.872867
20
-18.077766
30
0
10
-5.883992
20
-18.122663
30
0
10
-5.898352
20
-18.190544
30
0
10
-5.91435
20
-18.28166
30
0
10
-5.930377
20
-18.396182
30
0
10
-5.944815
20
-18.534194
30
0
10
-5.956041
20
-18.695698
30
0
10
-5.962431
20
-18.880608
30
0
10
-5.962364
20
-19.088756
30
0
10
-5.954225
20
-19.319888
30
0
10
-5.936412
20
-19.573667
30
0
10
-5.907335
20
-19.84967
30
0
10
-5.865425
20
-20.147393
30
0
10
-5.809134
20
-20.466249
30
0
10
-5.73694
20
-20.805567
30
0
10
-5.647354
20
-21.1646
30
0
10
-5.595582
20
-21.351254
30
0
10
-5.567872
20
-21.446317
30
0
10
-5.553552
20
-21.494277
30
0
10
-5.549923
20
-21.506311
30
0
10
-5.548101
20
-21.512335
30
0
10
-5.547188
20
-21.515348
30
0
10
-5.54696
20
-21.516102
30
0
10
-5.546659
20
-21.516574
30
0
10
-4.329977
20
-21.794029
30
0
10
-4.329501
20
-21.793733
30
0
10
-4.328968
20
-21.793153
30
0
10
-4.326839
20
-21.790834
30
0
10
-4.322586
20
-21.786195
30
0
10
-4.314098
20
-21.776924
30
0
10
-4.280402
20
-21.739914
30
0
10
-4.214218
20
-21.666263
30
0
10
-4.086642
20
-21.520508
30
0
10
-3.850258
20
-21.23581
30
0
10
-3.638095
20
-20.961336
30
0
10
-3.449133
20
-20.698409
30
0
10
-3.282292
20
-20.44829
30
0
10
-3.136432
20
-20.21218
30
0
10
-3.010357
20
-19.991214
30
0
10
-2.902818
20
-19.786461
30
0
10
-2.812517
20
-19.59892
30
0
10
-2.738109
20
-19.429521
30
0
10
-2.678208
20
-19.279118
30
0
10
-2.631385
20
-19.148491
30
0
10
-2.596177
20
-19.038343
30
0
10
-2.571091
20
-18.949299
30
0
10
-2.554602
20
-18.881904
30
0
10
-2.545163
20
-18.836622
30
0
10
-2.541203
20
-18.813836
30
0
10
-2.392902
20
-17.716127
30
0
10
0
20
-17.877
30
0
10
0.000034
20
-18.984682
30
0
10
0.000908
20
-19.007793
30
0
10
0.004202
20
-19.053931
30
0
10
0.011521
20
-19.122926
30
0
10
0.024463
20
-19.214527
30
0
10
0.044609
20
-19.328396
30
0
10
0.073526
20
-19.464115
30
0
10
0.112757
20
-19.621183
30
0
10
0.16382
20
-19.799018
30
0
10
0.228205
20
-19.996957
30
0
10
0.307369
20
-20.214262
30
0
10
0.402733
20
-20.450116
30
0
10
0.515676
20
-20.703625
30
0
10
0.647537
20
-20.973826
30
0
10
0.799604
20
-21.25968
30
0
10
0.973119
20
-21.560082
30
0
10
1.169268
20
-21.873859
30
0
10
1.276186
20
-22.035379
30
0
10
1.331915
20
-22.117227
30
0
10
1.360355
20
-22.158414
30
0
10
1.367525
20
-22.168738
30
0
10
1.371119
20
-22.173904
30
0
10
1.372919
20
-22.176487
30
0
10
1.373369
20
-22.177134
30
0
10
1.373801
20
-22.17749
30
0
10
2.616673
20
-22.06539
30
0
10
2.617034
20
-22.064962
30
0
10
2.617361
20
-22.064245
30
0
10
2.618669
20
-22.061381
30
0
10
2.621281
20
-22.055656
30
0
10
2.626488
20
-22.044215
30
0
10
2.647099
20
-21.998604
30
0
10
2.687284
20
-21.908105
30
0
10
2.763575
20
-21.730061
30
0
10
2.900413
20
-21.386251
30
0
10
3.017375
20
-21.059649
30
0
10
3.11584
20
-20.751198
30
0
10
3.197224
20
-20.461764
30
0
10
3.262983
20
-20.192136
30
0
10
3.314606
20
-19.943026
30
0
10
3.353609
20
-19.715062
30
0
10
3.381537
20
-19.508796
30
0
10
3.399955
20
-19.324695
30
0
10
3.410448
20
-19.163142
30
0
10
3.414614
20
-19.02444
30
0
10
3.41406
20
-18.908803
30
0
10
3.410402
20
-18.816365
30
0
10
3.405258
20
-18.747173
30
0
10
3.400243
20
-18.701191
30
0
10
3.396968
20
-18.678296
30
0
10
3.198799
20
-17.588485
30
0
10
5.524297
20
-17.002037
30
0
10
5.866621
20
-18.055495
30
0
10
5.874595
20
-18.077205
30
0
10
5.891984
20
-18.120067
30
0
10
5.920266
20
-18.183423
30
0
10
5.960881
20
-18.266542
30
0
10
6.015229
20
-18.368612
30
0
10
6.08467
20
-18.488753
30
0
10
6.170517
20
-18.62601
30
0
10
6.274035
20
-18.779362
30
0
10
6.396436
20
-18.947717
30
0
10
6.538876
20
-19.129924
30
0
10
6.702455
20
-19.324764
30
0
10
6.888209
20
-19.530965
30
0
10
7.097112
20
-19.747194
30
0
10
7.330071
20
-19.972066
30
0
10
7.587923
20
-20.204146
30
0
10
7.871434
20
-20.441953
30
0
10
8.023031
20
-20.562527
30
0
10
8.101326
20
-20.623148
30
0
10
8.141101
20
-20.653531
30
0
10
8.151111
20
-20.661134
30
0
10
8.156125
20
-20.664936
30
0
10
8.158635
20
-20.666838
30
0
10
8.159263
20
-20.667313
30
0
10
8.159784
20
-20.667519
30
0
10
9.307184
20
-20.176836
30
0
10
9.307395
20
-20.176317
30
0
10
9.307485
20
-20.175535
30
0
10
9.307844
20
-20.172407
30
0
10
9.308559
20
-20.166155
30
0
10
9.309976
20
-20.153665
30
0
10
9.315484
20
-20.103917
30
0
10
9.325736
20
-20.00543
30
0
10
9.343274
20
-19.812525
30
0
10
9.367171
20
-19.443256
30
0
10
9.377484
20
-19.096496
30
0
10
9.375812
20
-18.772714
30
0
10
9.363774
20
-18.472297
30
0
10
9.342995
20
-18.195545
30
0
10
9.315111
20
-17.942675
30
0
10
9.281761
20
-17.713816
30
0
10
9.244582
20
-17.509016
30
0
10
9.205209
20
-17.328233
30
0
10
9.165266
20
-17.171345
30
0
10
9.126366
20
-17.038144
30
0
10
9.090106
20
-16.928338
30
0
10
9.058062
20
-16.841554
30
0
10
9.031788
20
-16.777339
30
0
10
9.012809
20
-16.735157
30
0
10
9.002619
20
-16.714395
30
0
10
8.47738
20
-15.73916
30
0
10
10.507837
20
-14.462797
30
0
10
11.158943
20
-15.35891
30
0
10
11.173235
20
-15.377094
30
0
10
11.203019
20
-15.412484
30
0
10
11.249495
20
-15.464
30
0
10
11.313806
20
-15.5305
30
0
10
11.397036
20
-15.61078
30
0
10
11.500204
20
-15.703583
30
0
10
11.624264
20
-15.807594
30
0
10
11.770104
20
-15.921451
30
0
10
11.938538
20
-16.043743
30
0
10
12.130312
20
-16.173015
30
0
10
12.346094
20
-16.307771
30
0
10
12.586476
20
-16.446478
30
0
10
12.851974
20
-16.587569
30
0
10
13.14302
20
-16.729447
30
0
10
13.459968
20
-16.870488
30
0
10
13.80309
20
-17.009045
30
0
10
13.984527
20
-17.076873
30
0
10
14.077722
20
-17.110332
30
0
10
14.124939
20
-17.126937
30
0
10
14.136808
20
-17.131074
30
0
10
14.142752
20
-17.133141
30
0
10
14.145727
20
-17.134174
30
0
10
14.146471
20
-17.134432
30
0
10
14.14703
20
-17.134466
30
0
10
15.086643
20
-16.313234
30
0
10
15.086684
20
-16.312675
30
0
10
15.086528
20
-16.311903
30
0
10
15.085902
20
-16.308817
30
0
10
15.08465
20
-16.30265
30
0
10
15.082138
20
-16.290334
30
0
10
15.072003
20
-16.241319
30
0
10
15.05132
20
-16.144483
30
0
10
15.008388
20
-15.9556
30
0
10
14.917006
20
-15.59702
30
0
10
14.819659
20
-15.264045
30
0
10
14.718015
20
-14.956627
30
0
10
14.613732
20
-14.674633
30
0
10
14.508449
20
-14.417848
30
0
10
14.403789
20
-14.18597
30
0
10
14.30135
20
-13.978619
30
0
10
14.202704
20
-13.79533
30
0
10
14.109393
20
-13.635563
30
0
10
14.022923
20
-13.498697
30
0
10
13.944766
20
-13.384035
30
0
10
13.876348
20
-13.290809
30
0
10
13.819055
20
-13.218175
30
0
10
13.774224
20
-13.165222
30
0
10
13.743138
20
-13.130969
30
0
10
13.727032
20
-13.114372
30
0
10
12.926135
20
-12.349176
30
0
10
14.462797
20
-10.507837
30
0
10
15.35895
20
-11.158889
30
0
10
15.378161
20
-11.171766
30
0
10
15.417423
20
-11.19622
30
0
10
15.477544
20
-11.230853
30
0
10
15.559258
20
-11.274225
30
0
10
15.663222
20
-11.324857
30
0
10
15.790017
20
-11.381236
30
0
10
15.940147
20
-11.44182
30
0
10
16.114033
20
-11.505037
30
0
10
16.312014
20
-11.569295
30
0
10
16.534349
20
-11.632978
30
0
10
16.781211
20
-11.694459
30
0
10
17.052692
20
-11.752095
30
0
10
17.348794
20
-11.804237
30
0
10
17.669438
20
-11.849233
30
0
10
18.014458
20
-11.885428
30
0
10
18.383602
20
-11.911174
30
0
10
18.577119
20
-11.919615
30
0
10
18.676093
20
-11.922638
30
0
10
18.72613
20
-11.923838
30
0
10
18.738697
20
-11.924106
30
0
10
18.744989
20
-11.924235
30
0
10
18.748137
20
-11.924298
30
0
10
18.748924
20
-11.924313
30
0
10
18.749466
20
-11.924173
30
0
10
19.389317
20
-10.852778
30
0
10
19.389183
20
-10.852234
30
0
10
19.388796
20
-10.851548
30
0
10
19.387247
20
-10.848807
30
0
10
19.38415
20
-10.843328
30
0
10
19.377956
20
-10.832391
30
0
10
19.35317
20
-10.788907
30
0
10
19.303575
20
-10.703203
30
0
10
19.204377
20
-10.53683
30
0
10
19.00666
20
-10.224039
30
0
10
18.811182
20
-9.937443
30
0
10
18.619516
20
-9.676481
30
0
10
18.433196
20
-9.440514
30
0
10
18.253715
20
-9.228831
30
0
10
18.082523
20
-9.040644
30
0
10
17.921022
20
-8.875096
30
0
10
17.770565
20
-8.731262
30
0
10
17.63245
20
-8.608149
30
0
10
17.507919
20
-8.504702
30
0
10
17.398155
20
-8.419805
30
0
10
17.304277
20
-8.352283
30
0
10
17.227343
20
-8.300909
30
0
10
17.168342
20
-8.264401
30
0
10
17.128194
20
-8.24143
30
0
10
17.107747
20
-8.230622
30
0
10
16.10959
20
-7.750369
30
0
10
17.002037
20
-5.524297
30
0
10
18.055516
20
-5.866557
30
0
10
18.077766
20
-5.872867
30
0
10
18.122663
20
-5.883992
30
0
10
18.190544
20
-5.898352
30
0
10
18.28166
20
-5.91435
30
0
10
18.396182
20
-5.930377
30
0
10
18.534194
20
-5.944815
30
0
10
18.695698
20
-5.956041
30
0
10
18.880608
20
-5.962431
30
0
10
19.088756
20
-5.962364
30
0
10
19.319888
20
-5.954225
30
0
10
19.573667
20
-5.936412
30
0
10
19.84967
20
-5.907335
30
0
10
20.147393
20
-5.865425
30
0
10
20.466249
20
-5.809134
30
0
10
20.805567
20
-5.73694
30
0
10
21.1646
20
-5.647354
30
0
10
21.351254
20
-5.595582
30
0
10
21.446317
20
-5.567872
30
0
10
21.494277
20
-5.553552
30
0
10
21.506311
20
-5.549923
30
0
10
21.512335
20
-5.548101
30
0
10
21.515348
20
-5.547188
30
0
10
21.516102
20
-5.54696
30
0
10
21.516574
20
-5.546659
30
0
10
21.794029
20
-4.329977
30
0
10
21.793733
20
-4.329501
30
0
10
21.793153
20
-4.328968
30
0
10
21.790834
20
-4.326839
30
0
10
21.786195
20
-4.322586
30
0
10
21.776924
20
-4.314098
30
0
10
21.739914
20
-4.280402
30
0
10
21.666263
20
-4.214218
30
0
10
21.520508
20
-4.086642
30
0
10
21.23581
20
-3.850258
30
0
10
20.961336
20
-3.638095
30
0
10
20.698409
20
-3.449133
30
0
10
20.44829
20
-3.282292
30
0
10
20.21218
20
-3.136432
30
0
10
19.991214
20
-3.010357
30
0
10
19.786461
20
-2.902818
30
0
10
19.59892
20
-2.812517
30
0
10
19.429521
20
-2.738109
30
0
10
19.279118
20
-2.678208
30
0
10
19.148491
20
-2.631385
30
0
10
19.038343
20
-2.596177
30
0
10
18.949299
20
-2.571091
30
0
10
18.881904
20
-2.554602
30
0
10
18.836622
20
-2.545163
30
0
10
18.813836
20
-2.541203
30
0
10
17.716127
20
-2.392902
30
0
8
gear
0
CIRCLE
5
2001
100
AcDbEntity
100
AcDbCircle
10
20.118334
20
1.814567
30
0
40
0.79285
8
gear_guides
0
CIRCLE
5
2002
100
AcDbEntity
100
AcDbCircle
10
0
20
0
30
0
40
20.2
8
gear_guides
0
CIRCLE
5
2003
100
AcDbEntity
100
AcDbCircle
10
0
20
0
30
0
40
22.22
8
gear_guides
0
CIRCLE
5
2004
100
AcDbEntity
100
AcDbCircle
10
0
20
0
30
0
40
18.981791
8
gear_guides
0
LINE
5
2005
100
AcDbEntity
100
AcDbLine
10
1.6
20
0
30
0
11
-1.6
21
0
31
0
8
gear_guides
0
LINE
5
2006
100
AcDbEntity
100
AcDbLine
10
0
20
1.6
30
0
11
0
21
-1.6
31
0
8
gear_guides
0
LWPOLYLINE
5
2007
100
AcDbEntity
100
AcDbPolyline
66
1
90
2
70
0
43
0
10
-11.503199
20
6.641375
30
0
10
-12.485385
20
7.20844
30
0
8
gear_texts
0
LWPOLYLINE
5
2008
100
AcDbEntity
100
AcDbPolyline
66
1
90
2
70
0
43
0
10
-12.730932
20
7.350207
30
0
10
-12.976478
20
7.491973
30
0
8
gear_texts
0
LWPOLYLINE
5
2009
100
AcDbEntity
100
AcDbPolyline
66
1
90
2
70
0
43
0
10
-11.227544
20
7.097443
30
0
10
-12.186194
20
7.70345
30
0
8
gear_texts
0
LWPOLYLINE
5
2010
100
AcDbEntity
100
AcDbPolyline
66
1
90
6
70
0
43
0
10
-11.706869
20
7.400447
30
0
10
-11.792636
20
7.790075
30
0
10
-11.867387
20
8.186059
30
0
10
-11.700788
20
8.422471
30
0
10
-11.302732
20
8.485268
30
0
10
-10.622491
20
7.974592
30
0
8
gear_texts
0
LWPOLYLINE
5
2011
100
AcDbEntity
100
AcDbPolyline
66
1
90
2
70
0
43
0
10
-9.854595
20
8.035894
30
0
10
-11.173013
20
9.110995
30
0
8
gear_texts
0
LWPOLYLINE
5
2012
100
AcDbEntity
100
AcDbPolyline
66
1
90
10
70
0
43
0
10
-10.953277
20
8.931811
30
0
10
-10.988
20
9.333291
30
0
10
-10.798564
20
9.551831
30
0
10
-10.604782
20
9.766527
30
0
10
-10.202066
20
9.781073
30
0
10
-9.792733
20
9.388631
30
0
10
-9.770537
20
8.998225
30
0
10
-9.949074
20
8.800419
30
0
10
-10.123608
20
8.59907
30
0
10
-10.294068
20
8.394261
30
0
8
gear_texts
0
LWPOLYLINE
5
2013
100
AcDbEntity
100
AcDbPolyline
66
1
90
2
70
0
43
0
10
-9.133391
20
11.154713
30
0
10
-8.414895
20
10.277207
30
0
8
gear_texts
0
LWPOLYLINE
5
2014
100
AcDbEntity
100
AcDbPolyline
66
1
90
6
70
0
43
0
10
-8.774143
20
10.71596
30
0
10
-8.80335
20
10.322066
30
0
10
-8.82036
20
9.9314
30
0
10
-9.017808
20
9.752466
30
0
10
-9.408258
20
9.773879
30
0
10
-9.99815
20
10.386696
30
0
8
gear_texts
0
LWPOLYLINE
5
2015
100
AcDbEntity
100
AcDbPolyline
66
1
90
4
70
0
43
0
10
-7.271935
20
11.452641
30
0
10
-7.343458
20
11.068201
30
0
10
-7.725468
20
11.151734
30
0
10
-8.532772
20
12.317079
30
0
8
gear_texts
0
LWPOLYLINE
5
2016
100
AcDbEntity
100
AcDbPolyline
66
1
90
5
70
0
43
0
10
-7.727881
20
12.170715
30
0
10
-7.97047
20
12.013245
30
0
10
-8.20985
20
11.850941
30
0
10
-8.445927
20
11.683868
30
0
10
-8.678605
20
11.512092
30
0
8
gear_texts
0
LWPOLYLINE
5
2017
100
AcDbEntity
100
AcDbPolyline
66
1
90
5
70
0
43
0
10
-5.23655
20
12.206965
30
0
10
-5.795446
20
13.50981
30
0
10
-5.629804
20
13.886107
30
0
10
-5.350117
20
13.996246
30
0
10
-4.972373
20
13.833932
30
0
8
gear_texts
0
LWPOLYLINE
5
2018
100
AcDbEntity
100
AcDbPolyline
66
1
90
4
70
0
43
0
10
-5.046405
20
13.201717
30
0
10
-5.310215
20
13.09783
30
0
10
-5.571888
20
12.988672
30
0
10
-5.831318
20
12.874287
30
0
8
gear_texts
0
LWPOLYLINE
5
2019
100
AcDbEntity
100
AcDbPolyline
66
1
90
11
70
0
43
0
10
-3.022572
20
13.225282
30
0
10
-3.218559
20
12.886905
30
0
10
-3.476421
20
12.819748
30
0
10
-3.732885
20
12.747432
30
0
10
-4.07297
20
12.940438
30
0
10
-4.243219
20
13.481343
30
0
10
-4.051613
20
13.835855
30
0
10
-3.773251
20
13.914346
30
0
10
-3.493371
20
13.987237
30
0
10
-3.148915
20
13.778094
30
0
10
-3.022572
20
13.225282
30
0
8
gear_texts
0
LWPOLYLINE
5
2020
100
AcDbEntity
100
AcDbPolyline
66
1
90
2
70
0
43
0
10
-1.501222
20
14.338507
30
0
10
-1.383125
20
13.210542
30
0
8
gear_texts
0
LWPOLYLINE
5
2021
100
AcDbEntity
100
AcDbPolyline
66
1
90
6
70
0
43
0
10
-1.442173
20
13.774524
30
0
10
-1.683024
20
13.46148
30
0
10
-1.91191
20
13.14443
30
0
10
-2.175201
20
13.103433
30
0
10
-2.489651
20
13.335879
30
0
10
-2.64575
20
14.172031
30
0
8
gear_texts
0
LWPOLYLINE
5
2022
100
AcDbEntity
100
AcDbPolyline
66
1
90
2
70
0
43
0
10
-0.852114
20
13.255389
30
0
10
-0.924871
20
14.387184
30
0
8
gear_texts
0
LWPOLYLINE
5
2023
100
AcDbEntity
100
AcDbPolyline
66
1
90
5
70
0
43
0
10
-0.888492
20
13.821287
30
0
10
-0.623569
20
14.119585
30
0
10
-0.347031
20
14.412704
30
0
10
-0.057844
20
14.416765
30
0
10
0.226816
20
14.131528
30
0
8
gear_texts
0
LWPOLYLINE
5
2024
100
AcDbEntity
100
AcDbPolyline
66
1
90
4
70
0
43
0
10
1.844931
20
13.440248
30
0
10
1.542033
20
13.192937
30
0
10
1.304334
20
13.503434
30
0
10
1.440636
20
14.91453
30
0
8
gear_texts
0
LWPOLYLINE
5
2025
100
AcDbEntity
100
AcDbPolyline
66
1
90
5
70
0
43
0
10
1.960607
20
14.282943
30
0
10
1.673698
20
14.319399
30
0
10
1.386115
20
14.350092
30
0
10
1.097975
20
14.37501
30
0
10
0.809392
20
14.394142
30
0
8
gear_texts
0
LWPOLYLINE
5
2026
100
AcDbEntity
100
AcDbPolyline
66
1
90
6
70
0
43
0
10
2.432353
20
13.634553
30
0
10
2.760755
20
13.861088
30
0
10
3.099203
20
14.079822
30
0
10
3.38102
20
14.014819
30
0
10
3.589466
20
13.66994
30
0
10
3.373438
20
12.847232
30
0
8
gear_texts
0
LWPOLYLINE
5
2027
100
AcDbEntity
100
AcDbPolyline
66
1
90
2
70
0
43
0
10
2.332763
20
13.076302
30
0
10
2.631533
20
14.751057
30
0
8
gear_texts
0
LWPOLYLINE
5
2028
100
AcDbEntity
100
AcDbPolyline
66
1
90
15
70
0
43
0
10
6.103727
20
11.797286
30
0
10
5.865846
20
11.917353
30
0
10
5.625605
20
12.032623
30
0
10
5.3831
20
12.143051
30
0
10
5.248113
20
12.51005
30
0
10
5.467482
20
13.032965
30
0
10
5.842729
20
13.17987
30
0
10
6.10594
20
13.060013
30
0
10
6.366694
20
12.934901
30
0
10
6.494596
20
12.552759
30
0
10
5.973437
20
11.545462
30
0
10
5.615422
20
11.408579
30
0
10
5.385437
20
11.518928
30
0
10
5.153285
20
11.624641
30
0
10
5.028743
20
11.987134
30
0
8
gear_texts
0
LWPOLYLINE
5
2029
100
AcDbEntity
100
AcDbPolyline
66
1
90
13
70
0
43
0
10
7.254405
20
11.126772
30
0
10
7.029744
20
11.270055
30
0
10
6.802253
20
11.408804
30
0
10
6.712311
20
11.789356
30
0
10
6.992883
20
12.282146
30
0
10
7.383055
20
12.38293
30
0
10
7.62997
20
12.232335
30
0
10
7.873814
20
12.076817
30
0
10
7.954904
20
11.682082
30
0
10
7.56411
20
11.601794
30
0
10
7.329857
20
11.751195
30
0
10
7.092654
20
11.895867
30
0
10
6.852597
20
12.035751
30
0
8
gear_texts
0
LWPOLYLINE
5
2030
100
AcDbEntity
100
AcDbPolyline
66
1
90
10
70
0
43
0
10
8.720238
20
10.392375
30
0
10
8.332156
20
10.344401
30
0
10
8.122972
20
10.509461
30
0
10
8.079376
20
10.89806
30
0
10
8.41709
20
11.353595
30
0
10
8.816541
20
11.406799
30
0
10
9.043587
20
11.227644
30
0
10
9.084741
20
10.826773
30
0
10
8.720238
20
10.392375
30
0
10
8.740382
20
10.001858
30
0
8
gear_texts
0
LWPOLYLINE
5
2031
100
AcDbEntity
100
AcDbPolyline
66
1
90
2
70
0
43
0
10
9.13454
20
9.643217
30
0
10
9.914481
20
10.46659
30
0
8
gear_texts
0
LWPOLYLINE
5
2032
100
AcDbEntity
100
AcDbPolyline
66
1
90
5
70
0
43
0
10
9.524511
20
10.054904
30
0
10
9.92337
20
10.06371
30
0
10
10.326335
20
10.06048
30
0
10
10.52607
20
9.85131
30
0
10
10.51071
20
9.448625
30
0
8
gear_texts
0
LWPOLYLINE
5
2033
100
AcDbEntity
100
AcDbPolyline
66
1
90
5
70
0
43
0
10
12.32401
20
6.918838
30
0
10
12.182739
20
7.164664
30
0
10
12.036565
20
7.407607
30
0
10
11.885547
20
7.647569
30
0
10
11.729745
20
7.884453
30
0
8
gear_texts
0
LWPOLYLINE
5
2034
100
AcDbEntity
100
AcDbPolyline
66
1
90
5
70
0
43
0
10
13.539599
20
4.05349
30
0
10
13.455562
20
4.324277
30
0
10
13.36611
20
4.593325
30
0
10
13.271279
20
4.860523
30
0
10
13.171107
20
5.125766
30
0
8
gear_texts
0
LWPOLYLINE
5
2035
100
AcDbEntity
100
AcDbPolyline
66
1
90
2
70
0
43
0
10
12.829828
20
4.409029
30
0
10
13.902392
20
4.77762
30
0
8
gear_texts
0
LWPOLYLINE
5
2036
100
AcDbEntity
100
AcDbPolyline
66
1
90
5
70
0
43
0
10
14.082842
20
4.216126
30
0
10
13.725498
20
4.411028
30
0
10
13.36611
20
4.593325
30
0
10
13.00504
20
4.763015
30
0
10
12.642649
20
4.920107
30
0
8
gear_texts
0
LWPOLYLINE
5
2037
100
AcDbEntity
100
AcDbPolyline
66
1
90
5
70
0
43
0
10
12.996357
20
3.890854
30
0
10
13.185627
20
4.237527
30
0
10
13.36611
20
4.593325
30
0
10
13.537517
20
4.958032
30
0
10
13.699565
20
5.331425
30
0
8
gear_texts
0
LWPOLYLINE
5
2038
100
AcDbEntity
100
AcDbPolyline
66
1
90
3
70
0
43
0
10
14.240624
20
3.647846
30
0
10
14.586955
20
3.426279
30
0
10
12.930831
20
3.037278
30
0
8
gear_texts
0
LWPOLYLINE
5
2039
100
AcDbEntity
100
AcDbPolyline
66
1
90
3
70
0
43
0
10
12.989157
20
2.777276
30
0
10
12.930831
20
3.037278
30
0
10
12.867301
20
3.296058
30
0
8
gear_texts
0
LWPOLYLINE
5
2040
100
AcDbEntity
100
AcDbPolyline
66
1
90
7
70
0
43
0
10
13.282082
20
-0.133232
30
0
10
14.983192
20
-0.150296
30
0
10
14.416156
20
0.144608
30
0
10
13.843545
20
0.416704
30
0
10
14.398753
20
0.722749
30
0
10
14.947026
20
1.051224
30
0
10
13.250021
20
0.931874
30
0
8
gear_texts
0
LWPOLYLINE
5
2041
100
AcDbEntity
100
AcDbPolyline
66
1
90
15
70
0
43
0
10
13.169982
20
-1.727142
30
0
10
13.201978
20
-1.462606
30
0
10
13.228662
20
-1.197481
30
0
10
13.250021
20
-0.931874
30
0
10
13.266048
20
-0.665892
30
0
10
13.832401
20
-0.694321
30
0
10
14.098523
20
-0.991549
30
0
10
14.075796
20
-1.274165
30
0
10
14.047404
20
-1.556268
30
0
10
14.294484
20
-1.874612
30
0
10
14.57561
20
-1.911479
30
0
10
14.89283
20
-1.64993
30
0
10
14.92293
20
-1.350849
30
0
10
14.947026
20
-1.051224
30
0
10
14.681929
20
-0.736963
30
0
8
gear_texts
0
LWPOLYLINE
5
2042
100
AcDbEntity
100
AcDbPolyline
66
1
90
2
70
0
43
0
10
13.369525
20
-2.302137
30
0
10
13.090104
20
-2.254023
30
0
8
gear_texts
0
LWPOLYLINE
5
2043
100
AcDbEntity
100
AcDbPolyline
66
1
90
9
70
0
43
0
10
13.071792
20
-3.629365
30
0
10
12.867301
20
-3.296058
30
0
10
12.930831
20
-3.037278
30
0
10
13.266422
20
-2.836559
30
0
10
14.375485
20
-3.073693
30
0
10
14.586955
20
-3.426279
30
0
10
14.515289
20
-3.718203
30
0
10
14.164583
20
-3.932777
30
0
10
13.071792
20
-3.629365
30
0
8
gear_texts
0
LWPOLYLINE
5
2044
100
AcDbEntity
100
AcDbPolyline
66
1
90
15
70
0
43
0
10
12.279295
20
-5.064619
30
0
10
12.37842
20
-4.817278
30
0
10
12.472563
20
-4.567999
30
0
10
12.561687
20
-4.316881
30
0
10
12.645756
20
-4.064026
30
0
10
13.185627
20
-4.237527
30
0
10
13.36611
20
-4.593325
30
0
10
13.271279
20
-4.860523
30
0
10
13.171107
20
-5.125766
30
0
10
13.327747
20
-5.497055
30
0
10
13.58986
20
-5.605164
30
0
10
13.963794
20
-5.434254
30
0
10
14.069994
20
-5.153048
30
0
10
14.170533
20
-4.869768
30
0
10
13.995433
20
-4.497778
30
0
8
gear_texts
0
LWPOLYLINE
5
2045
100
AcDbEntity
100
AcDbPolyline
66
1
90
7
70
0
43
0
10
12.265503
20
-8.606746
30
0
10
10.872944
20
-7.629582
30
0
10
11.376775
20
-7.647195
30
0
10
11.885547
20
-7.647569
30
0
10
12.398767
20
-7.630516
30
0
10
12.915942
20
-7.595861
30
0
10
11.449535
20
-6.733468
30
0
8
gear_texts
0
LWPOLYLINE
5
2046
100
AcDbEntity
100
AcDbPolyline
66
1
90
5
70
0
43
0
10
10.721568
20
-9.638176
30
0
10
10.912752
20
-9.421163
30
0
10
11.099543
20
-9.200358
30
0
10
11.281868
20
-8.975851
30
0
10
11.459653
20
-8.747732
30
0
8
gear_texts
0
LWPOLYLINE
5
2047
100
AcDbEntity
100
AcDbPolyline
66
1
90
5
70
0
43
0
10
10.299852
20
-9.259073
30
0
10
10.483516
20
-9.050596
30
0
10
10.66296
20
-8.838476
30
0
10
10.838114
20
-8.6228
30
0
10
11.008905
20
-8.403653
30
0
8
gear_texts
0
LWPOLYLINE
5
2048
100
AcDbEntity
100
AcDbPolyline
66
1
90
15
70
0
43
0
10
8.740382
20
-10.001858
30
0
10
8.93926
20
-9.824514
30
0
10
9.13454
20
-9.643217
30
0
10
9.326144
20
-9.458038
30
0
10
9.513995
20
-9.269053
30
0
10
9.920165
20
-9.664767
30
0
10
9.92337
20
-10.06371
30
0
10
9.719496
20
-10.260747
30
0
10
9.51171
20
-10.453655
30
0
10
9.486669
20
-10.855854
30
0
10
9.67324
20
-11.069353
30
0
10
10.084161
20
-11.082795
30
0
10
10.304452
20
-10.878277
30
0
10
10.520596
20
-10.669382
30
0
10
10.52942
20
-10.258336
30
0
8
gear_texts
0
LWPOLYLINE
5
2049
100
AcDbEntity
100
AcDbPolyline
66
1
90
9
70
0
43
0
10
7.859136
20
-11.057939
30
0
10
7.910518
20
-10.670293
30
0
10
8.122972
20
-10.509461
30
0
10
8.510014
20
-10.565212
30
0
10
9.221444
20
-11.448455
30
0
10
9.163326
20
-11.855467
30
0
10
8.923663
20
-12.036897
30
0
10
8.516154
20
-11.982374
30
0
10
7.859136
20
-11.057939
30
0
8
gear_texts
0
LWPOLYLINE
5
2050
100
AcDbEntity
100
AcDbPolyline
66
1
90
10
70
0
43
0
10
6.103727
20
-11.797286
30
0
10
5.865846
20
-11.917353
30
0
10
5.625605
20
-12.032623
30
0
10
5.3831
20
-12.143051
30
0
10
5.248113
20
-12.51005
30
0
10
5.686851
20
-13.55588
30
0
10
6.072543
20
-13.69828
30
0
10
6.346108
20
-13.573708
30
0
10
6.617118
20
-13.443675
30
0
10
6.885466
20
-13.308231
30
0
8
gear_texts
0
LWPOLYLINE
5
2051
100
AcDbEntity
100
AcDbPolyline
66
1
90
2
70
0
43
0
10
6.617118
20
-13.443675
30
0
10
5.865846
20
-11.917353
30
0
8
gear_texts
0
LWPOLYLINE
5
2052
100
AcDbEntity
100
AcDbPolyline
66
1
90
5
70
0
43
0
10
3.940457
20
-13.867922
30
0
10
4.217854
20
-13.786086
30
0
10
4.493553
20
-13.698702
30
0
10
4.767443
20
-13.605805
30
0
10
5.039415
20
-13.507433
30
0
8
gear_texts
0
LWPOLYLINE
5
2053
100
AcDbEntity
100
AcDbPolyline
66
1
90
5
70
0
43
0
10
3.785466
20
-13.322449
30
0
10
4.051951
20
-13.243832
30
0
10
4.316806
20
-13.159885
30
0
10
4.579923
20
-13.070642
30
0
10
4.841198
20
-12.976139
30
0
8
gear_texts
0
LWPOLYLINE
5
2054
100
AcDbEntity
100
AcDbPolyline
66
1
90
9
70
0
43
0
10
2.158355
20
-13.680603
30
0
10
2.432353
20
-13.634553
30
0
10
2.705371
20
-13.583017
30
0
10
2.977301
20
-13.526014
30
0
10
3.248032
20
-13.463568
30
0
10
3.058569
20
-13.89522
30
0
10
2.853062
20
-14.324539
30
0
10
2.631533
20
-14.751057
30
0
10
2.332763
20
-13.076302
30
0
8
gear_texts
0
LWPOLYLINE
5
2055
100
AcDbEntity
100
AcDbPolyline
66
1
90
9
70
0
43
0
10
0.761638
20
-13.544886
30
0
10
1.0116
20
-13.244173
30
0
10
1.277074
20
-13.221215
30
0
10
1.574949
20
-13.474552
30
0
10
1.706614
20
-14.601015
30
0
10
1.440636
20
-14.91453
30
0
10
1.141162
20
-14.940428
30
0
10
0.82531
20
-14.677228
30
0
10
0.761638
20
-13.544886
30
0
8
gear_texts
0
LWPOLYLINE
5
2056
100
AcDbEntity
100
AcDbPolyline
66
1
90
2
70
0
43
0
10
0.217716
20
-13.564536
30
0
10
0.213166
20
-13.281039
30
0
8
gear_texts
0
LWPOLYLINE
5
2057
100
AcDbEntity
100
AcDbPolyline
66
1
90
9
70
0
43
0
10
-1.442173
20
-13.774524
30
0
10
-1.165567
20
-13.800683
30
0
10
-0.888492
20
-13.821287
30
0
10
-0.61106
20
-13.836329
30
0
10
-0.333381
20
-13.845802
30
0
10
-0.627739
20
-14.214004
30
0
10
-0.936997
20
-14.575817
30
0
10
-1.261013
20
-14.93079
30
0
10
-1.117845
20
-13.235629
30
0
8
gear_texts
0
LWPOLYLINE
5
2058
100
AcDbEntity
100
AcDbPolyline
66
1
90
2
70
0
43
0
10
-1.91191
20
-13.14443
30
0
10
-2.075156
20
-14.266751
30
0
8
gear_texts
0
LWPOLYLINE
5
2059
100
AcDbEntity
100
AcDbPolyline
66
1
90
6
70
0
43
0
10
-2.034344
20
-13.986171
30
0
10
-2.360928
20
-14.222253
30
0
10
-2.593717
20
-13.893314
30
0
10
-2.929507
20
-14.116106
30
0
10
-3.148915
20
-13.778094
30
0
10
-2.959401
20
-12.948876
30
0
8
gear_texts
0
LWPOLYLINE
5
2060
100
AcDbEntity
100
AcDbPolyline
66
1
90
2
70
0
43
0
10
-2.541684
20
-13.614596
30
0
10
-2.593717
20
-13.893314
30
0
8
gear_texts
0
LWPOLYLINE
5
2061
100
AcDbEntity
100
AcDbPolyline
66
1
90
2
70
0
43
0
10
-3.476421
20
-12.819748
30
0
10
-3.773251
20
-13.914346
30
0
8
gear_texts
0
LWPOLYLINE
5
2062
100
AcDbEntity
100
AcDbPolyline
66
1
90
6
70
0
43
0
10
-3.699044
20
-13.640697
30
0
10
-4.051613
20
-13.835855
30
0
10
-4.243219
20
-13.481343
30
0
10
-4.603332
20
-13.662203
30
0
10
-4.780564
20
-13.300291
30
0
10
-4.492852
20
-12.499829
30
0
8
gear_texts
0
LWPOLYLINE
5
2063
100
AcDbEntity
100
AcDbPolyline
66
1
90
2
70
0
43
0
10
-4.158095
20
-13.210891
30
0
10
-4.243219
20
-13.481343
30
0
8
gear_texts
0
LWPOLYLINE
5
2064
100
AcDbEntity
100
AcDbPolyline
66
1
90
11
70
0
43
0
10
-6.595116
20
-12.500239
30
0
10
-6.844542
20
-12.365426
30
0
10
-7.091214
20
-12.225637
30
0
10
-7.335033
20
-12.080928
30
0
10
-7.727881
20
-12.170715
30
0
10
-7.879863
20
-12.410073
30
0
10
-7.776483
20
-12.808004
30
0
10
-7.51799
20
-12.961422
30
0
10
-7.256473
20
-13.109624
30
0
10
-6.992035
20
-13.252551
30
0
10
-6.198197
20
-11.747928
30
0
8
gear_texts
0
LWPOLYLINE
5
2065
100
AcDbEntity
100
AcDbPolyline
66
1
90
7
70
0
43
0
10
-7.564007
20
-10.918665
30
0
10
-7.886929
20
-11.384803
30
0
10
-8.445927
20
-11.683868
30
0
10
-9.019964
20
-11.964902
30
0
10
-8.90779
20
-11.335684
30
0
10
-8.774143
20
-10.71596
30
0
10
-8.414895
20
-10.277207
30
0
8
gear_texts
0
LWPOLYLINE
5
2066
100
AcDbEntity
100
AcDbPolyline
66
1
90
5
70
0
43
0
10
-7.886929
20
-11.384803
30
0
10
-8.11372
20
-11.224301
30
0
10
-8.337246
20
-11.059282
30
0
10
-8.557416
20
-10.889812
30
0
10
-8.774143
20
-10.71596
30
0
8
gear_texts
0
LWPOLYLINE
5
2067
100
AcDbEntity
100
AcDbPolyline
66
1
90
5
70
0
43
0
10
-10.406732
20
-9.977293
30
0
10
-10.204495
20
-10.184044
30
0
10
-9.99815
20
-10.386696
30
0
10
-9.787782
20
-10.585168
30
0
10
-9.573475
20
-10.77938
30
0
8
gear_texts
0
LWPOLYLINE
5
2068
100
AcDbEntity
100
AcDbPolyline
66
1
90
5
70
0
43
0
10
-9.9974
20
-9.584852
30
0
10
-9.803117
20
-9.78347
30
0
10
-9.604889
20
-9.978151
30
0
10
-9.402795
20
-10.168817
30
0
10
-9.196918
20
-10.35539
30
0
8
gear_texts
0
LWPOLYLINE
5
2069
100
AcDbEntity
100
AcDbPolyline
66
1
90
15
70
0
43
0
10
-10.622491
20
-7.974592
30
0
10
-10.460384
20
-8.186074
30
0
10
-10.294068
20
-8.394261
30
0
10
-10.123608
20
-8.59907
30
0
10
-9.949074
20
-8.800419
30
0
10
-10.373819
20
-9.176125
30
0
10
-10.771902
20
-9.149736
30
0
10
-10.953277
20
-8.931811
30
0
10
-11.130244
20
-8.710292
30
0
10
-11.529479
20
-8.655493
30
0
10
-11.756226
20
-8.825718
30
0
10
-11.800104
20
-9.23451
30
0
10
-11.612486
20
-9.469361
30
0
10
-11.420195
20
-9.700401
30
0
10
-11.010936
20
-9.739684
30
0
8
gear_texts
0
LWPOLYLINE
5
2070
100
AcDbEntity
100
AcDbPolyline
66
1
90
9
70
0
43
0
10
-11.610312
20
-7.017455
30
0
10
-11.227544
20
-7.097443
30
0
10
-11.082911
20
-7.321239
30
0
10
-11.16721
20
-7.703081
30
0
10
-12.10078
20
-8.347052
30
0
10
-12.502361
20
-8.258911
30
0
10
-12.665519
20
-8.006453
30
0
10
-12.580925
20
-7.604109
30
0
10
-11.610312
20
-7.017455
30
0
8
gear_texts
0
ENDSEC
0
SECTION
2
OBJECTS
0
DICTIONARY
5
21D
330
0
100
AcDbDictionary
281
1
3
ACAD_CIP_PREVIOUS_PRODUCT_INFO
350
291
3
ACAD_COLOR
350
273
3
ACAD_DETAILVIEWSTYLE
350
27B
3
ACAD_GROUP
350
21E
3
ACAD_LAYOUT
350
272
3
ACAD_MATERIAL
350
221
3
ACAD_MLEADERSTYLE
350
276
3
ACAD_MLINESTYLE
350
26F
3
ACAD_PLOTSETTINGS
350
271
3
ACAD_PLOTSTYLENAME
350
21F
3
ACAD_SCALELIST
350
253
3
ACAD_SECTIONVIEWSTYLE
350
278
3
ACAD_TABLESTYLE
350
274
3
ACAD_VISUALSTYLE
350
23A
3
ACDB_RECOMPOSE_DATA
350
1057
3
AcDbVariableDictionary
350
29D
0
DICTIONARY
5
297
330
213
100
AcDbDictionary
280
1
281
1
3
ACAD_LAYERSTATES
360
298
0
DICTIONARY
5
292
330
265
100
AcDbDictionary
280
1
281
1
3
ADSK_XREC_LAYER_RECONCILED
360
293
0
XRECORD
5
291
102
{ACAD_REACTORS
330
21D
102
}
330
21D
100
AcDbXrecord
280
1
300
ACDMAC
300
2013
300
ACDMAC_F_S
0
DICTIONARY
5
273
102
{ACAD_REACTORS
330
21D
102
}
330
21D
100
AcDbDictionary
281
1
0
DICTIONARY
5
21E
102
{ACAD_REACTORS
330
21D
102
}
330
21D
100
AcDbDictionary
281
1
0
DICTIONARY
5
272
102
{ACAD_REACTORS
330
21D
102
}
330
21D
100
AcDbDictionary
281
1
3
Layout1
350
280
3
Model
350
284
0
DICTIONARY
5
221
102
{ACAD_REACTORS
330
21D
102
}
330
21D
100
AcDbDictionary
281
1
3
ByBlock
350
22A
3
ByLayer
350
222
3
Global
350
232
0
DICTIONARY
5
276
102
{ACAD_REACTORS
330
21D
102
}
330
21D
100
AcDbDictionary
281
1
3
Standard
350
277
0
DICTIONARY
5
26F
102
{ACAD_REACTORS
330
21D
102
}
330
21D
100
AcDbDictionary
281
1
3
Standard
350
270
0
DICTIONARY
5
271
102
{ACAD_REACTORS
330
21D
102
}
330
21D
100
AcDbDictionary
281
1
0
ACDBDICTIONARYWDFLT
5
21F
102
{ACAD_REACTORS
330
21D
102
}
330
21D
100
AcDbDictionary
281
1
3
Normal
350
220
100
AcDbDictionaryWithDefault
340
220
0
DICTIONARY
5
253
102
{ACAD_REACTORS
330
21D
102
}
330
21D
100
AcDbDictionary
281
1
3
A0
350
254
3
A1
350
255
3
A2
350
256
3
A3
350
257
3
A4
350
258
3
A5
350
259
3
A6
350
25A
3
A7
350
25B
3
A8
350
25C
3
A9
350
25D
3
B0
350
25E
3
B1
350
25F
3
B2
350
260
3
B3
350
261
3
B4
350
262
3
B5
350
263
3
B6
350
264
0
DICTIONARY
5
274
102
{ACAD_REACTORS
330
21D
102
}
330
21D
100
AcDbDictionary
281
1
3
Standard
350
275
0
DICTIONARY
5
23A
102
{ACAD_REACTORS
330
21D
102
}
330
21D
100
AcDbDictionary
281
1
3
2dWireframe
350
240
3
Basic
350
23F
3
Brighten
350
246
3
ColorChange
350
24A
3
Conceptual
350
243
3
Dim
350
245
3
EdgeColorOff
350
252
3
Facepattern
350
249
3
Flat
350
23B
3
FlatWithEdges
350
23C
3
Gouraud
350
23D
3
GouraudWithEdges
350
23E
3
Hidden
350
242
3
JitterOff
350
250
3
Linepattern
350
248
3
OverhangOff
350
251
3
Realistic
350
244
3
Shaded
350
24F
3
Shaded with edges
350
24E
3
Shades of Gray
350
24B
3
Sketchy
350
24C
3
Thicken
350
247
3
Wireframe
350
241
3
X-Ray
350
24D
0
XRECORD
5
1057
102
{ACAD_REACTORS
330
21D
102
}
330
21D
100
AcDbXrecord
280
1
90
1
330
275
0
DICTIONARY
5
29D
102
{ACAD_REACTORS
330
21D
102
}
330
21D
100
AcDbDictionary
281
1
3
CANNOSCALE
350
2A3
3
CMLEADERSTYLE
350
29F
3
CTABLESTYLE
350
29E
3
CVIEWDETAILSTYLE
350
2A0
3
CVIEWSECTIONSTYLE
350
2A1
3
LAYEREVAL
350
2A5
3
LAYERNOTIFY
350
2A6
3
LIGHTINGUNITS
350
2A4
3
MSLTSCALE
350
2A2
0
ENDSEC
0
EOF
