0
SECTION
2
HEADER
9
$ACADVER
1
AC1027
9
$ACADMAINTVER
70
8
9
$DWGCODEPAGE
3
ANSI_1252
9
$LASTSAVEDBY
1
macc
9
$REQUIREDVERSIONS
160
0
9
$INSBASE
10
0.0
20
0.0
30
0.0
9
$EXTMIN
10
1.000000000000000E+20
20
1.000000000000000E+20
30
1.000000000000000E+20
9
$EXTMAX
10
-1.000000000000000E+20
20
-1.000000000000000E+20
30
-1.000000000000000E+20
9
$LIMMIN
10
0.0
20
0.0
9
$LIMMAX
10
12.0
20
9.0
9
$MEASUREMENT
70
1
9
$CELWEIGHT
370
-1
9
$ENDCAPS
280
0
9
$JOINSTYLE
280
0
9
$LWDISPLAY
290
0
9
$INSUNITS
70
0
9
$HYPERLINKBASE
1

9
$STYLESHEET
1

9
$XEDIT
290
1
9
$CEPSNTYPE
380
0
9
$PSTYLEMODE
290
1
9
$EXTNAMES
290
1
9
$PSVPSCALE
40
0.0
9
$OLESTARTUP
290
0
9
$SORTENTS
280
127
9
$INDEXCTL
280
0
9
$HIDETEXT
280
0
9
$XCLIPFRAME
280
2
9
$HALOGAP
280
0
9
$OBSCOLOR
70
257
9
$OBSLTYPE
280
0
9
$INTERSECTIONDISPLAY
280
0
9
$INTERSECTIONCOLOR
70
257
9
$DIMASSOC
280
1
9
$PROJECTNAME
1

9
$CAMERADISPLAY
290
0
9
$LENSLENGTH
40
50.0
9
$CAMERAHEIGHT
40
0.0
9
$STEPSPERSEC
40
2.0
9
$STEPSIZE
40
6.0
9
$3DDWFPREC
40
2.0
9
$PSOLWIDTH
40
0.25
9
$PSOLHEIGHT
40
4.0
9
$LOFTANG1
40
1.570796326794896
9
$LOFTANG2
40
1.570796326794896
9
$LOFTMAG1
40
0.0
9
$LOFTMAG2
40
0.0
9
$LOFTPARAM
70
7
9
$LOFTNORMALS
280
1
9
$LATITUDE
40
37.795
9
$LONGITUDE
40
-122.394
9
$NORTHDIRECTION
40
0.0
9
$TIMEZONE
70
-8000
9
$LIGHTGLYPHDISPLAY
280
1
9
$TILEMODELIGHTSYNCH
280
1
9
$CMATERIAL
347
222
9
$SOLIDHIST
280
0
9
$SHOWHIST
280
1
9
$DWFFRAME
280
2
9
$DGNFRAME
280
0
9
$REALWORLDSCALE
290
1
9
$INTERFERECOLOR
62
1
9
$INTERFEREOBJVS
345
244
9
$INTERFEREVPVS
346
241
9
$CSHADOW
280
0
9
$SHADOWPLANELOCATION
40
0.0
0
ENDSEC
0
SECTION
2
CLASSES
0
CLASS
1
ACDBDICTIONARYWDFLT
2
AcDbDictionaryWithDefault
3
ObjectDBX Classes
90
0
91
1
280
0
281
0
0
CLASS
1
MATERIAL
2
AcDbMaterial
3
ObjectDBX Classes
90
1153
91
3
280
0
281
0
0
CLASS
1
VISUALSTYLE
2
AcDbVisualStyle
3
ObjectDBX Classes
90
4095
91
24
280
0
281
0
0
CLASS
1
SCALE
2
AcDbScale
3
ObjectDBX Classes
90
1153
91
17
280
0
281
0
0
CLASS
1
TABLESTYLE
2
AcDbTableStyle
3
ObjectDBX Classes
90
4095
91
1
280
0
281
0
0
CLASS
1
MLEADERSTYLE
2
AcDbMLeaderStyle
3
ACDB_MLEADERSTYLE_CLASS
90
4095
91
1
280
0
281
0
0
CLASS
1
ACDBSECTIONVIEWSTYLE
2
AcDbSectionViewStyle
3
ObjectDBX Classes
90
1025
91
1
280
0
281
0
0
CLASS
1
ACDBDETAILVIEWSTYLE
2
AcDbDetailViewStyle
3
ObjectDBX Classes
90
1025
91
1
280
0
281
0
0
CLASS
1
DICTIONARYVAR
2
AcDbDictionaryVar
3
ObjectDBX Classes
90
0
91
9
280
0
281
0
0
CLASS
1
CELLSTYLEMAP
2
AcDbCellStyleMap
3
ObjectDBX Classes
90
1152
91
2
280
0
281
0
0
ENDSEC
0
SECTION
2
TABLES
0
TABLE
2
VPORT
5
219
330
0
100
AcDbSymbolTable
70
1
0
VPORT
5
285
330
219
100
AcDbSymbolTableRecord
100
AcDbViewportTableRecord
2
*ACTIVE
70
0
10
0.0
20
0.0
11
1.0
21
1.0
12
60.85393284500712
22
1.602311788490737
13
0.0
23
0.0
14
0.5
24
0.5
15
0.5
25
0.5
16
0.0
26
0.0
36
1.0
17
0.0
27
0.0
37
0.0
40
135.7601553851812
41
1.367970660146699
42
50.0
43
0.0
44
0.0
50
0.0
51
0.0
71
0
72
1000
73
1
74
3
75
0
76
1
77
0
78
0
281
0
65
1
110
0.0
120
0.0
130
0.0
111
1.0
121
0.0
131
0.0
112
0.0
122
1.0
132
0.0
79
0
146
0.0
348
240
60
3
61
5
292
1
282
0
141
0.0
142
0.0
63
250
421
3355443
1001
ACAD_NAV_VCDISPLAY
1070
3
0
ENDTAB
0
TABLE
2
LTYPE
5
216
330
0
100
AcDbSymbolTable
70
2
0
LTYPE
5
26B
330
216
100
AcDbSymbolTableRecord
100
AcDbLinetypeTableRecord
2
ByBlock
70
0
3

72
65
73
0
40
0.0
0
LTYPE
5
26C
330
216
100
AcDbSymbolTableRecord
100
AcDbLinetypeTableRecord
2
ByLayer
70
0
3

72
65
73
0
40
0.0
0
LTYPE
5
26D
330
216
100
AcDbSymbolTableRecord
100
AcDbLinetypeTableRecord
2
CONTINUOUS
70
0
3
Solid line
72
65
73
0
40
0.0
0
LTYPE
5
103D
330
216
100
AcDbSymbolTableRecord
100
AcDbLinetypeTableRecord
2
DOTTED
70
0
3
Dotted . . . . . . . . . . . . . . . . . . . .
72
65
73
2
40
3.0
49
0.0
74
0
49
-3.0
74
0
0
ENDTAB
0
TABLE
2
LAYER
5
213
102
{ACAD_XDICTIONARY
360
297
102
}
330
0
100
AcDbSymbolTable
70
4
0
LAYER
5
265
102
{ACAD_XDICTIONARY
360
292
102
}
330
213
100
AcDbSymbolTableRecord
100
AcDbLayerTableRecord
2
0
70
0
62
7
6
CONTINUOUS
370
-3
390
220
347
232
348
0
0
LAYER
5
1900
330
213
100
AcDbSymbolTableRecord
100
AcDbLayerTableRecord
2
gear
70
0
62
7
6
CONTINUOUS
370
-3
390
220
347
232
348
0
1001
AcAecLayerStandard
1000

1000

1001
AcCmTransparency
1071
0
0
LAYER
5
1901
330
213
100
AcDbSymbolTableRecord
100
AcDbLayerTableRecord
2
gear_guides
70
0
62
5
6
CONTINUOUS
370
-3
390
220
347
232
348
0
1001
AcAecLayerStandard
1000

1000

1001
AcCmTransparency
1071
0
0
LAYER
5
1902
330
213
100
AcDbSymbolTableRecord
100
AcDbLayerTableRecord
2
gear_texts
70
0
62
7
6
CONTINUOUS
370
-3
390
220
347
232
348
0
1001
AcAecLayerStandard
1000

1000

1001
AcCmTransparency
1071
0
0
ENDTAB
0
TABLE
2
STYLE
5
214
330
0
100
AcDbSymbolTable
70
3
0
STYLE
5
266
330
214
100
AcDbSymbolTableRecord
100
AcDbTextStyleTableRecord
2
STANDARD
70
0
40
0.0
41
1.0
50
0.0
71
0
42
0.2
3
txt
4

0
STYLE
5
26A
330
214
100
AcDbSymbolTableRecord
100
AcDbTextStyleTableRecord
2
ANNOTATIVE
70
0
40
0.0
41
1.0
50
0.0
71
0
42
0.2
3
txt
4

1001
ACADANNOTATIVE
1000
AnnotativeData
1002
{
1070
1
1070
1
1002
}
0
STYLE
5
301
330
214
100
AcDbSymbolTableRecord
100
AcDbTextStyleTableRecord
2

70
1
40
0.0
41
1.0
50
0.0
71
0
42
0.2
3
ltypeshp.shx
4

0
ENDTAB
0
TABLE
2
VIEW
5
217
330
0
100
AcDbSymbolTable
70
1
0
ENDTAB
0
TABLE
2
UCS
5
218
330
0
100
AcDbSymbolTable
70
0
0
ENDTAB
0
TABLE
2
APPID
5
21A
330
0
100
AcDbSymbolTable
70
10
0
APPID
5
267
330
21A
100
AcDbSymbolTableRecord
100
AcDbRegAppTableRecord
2
ACAD
70
0
0
APPID
5
26E
330
21A
100
AcDbSymbolTableRecord
100
AcDbRegAppTableRecord
2
ACADANNOTATIVE
70
0
0
APPID
5
286
330
21A
100
AcDbSymbolTableRecord
100
AcDbRegAppTableRecord
2
ACADANNOPO
70
0
0
APPID
5
287
330
21A
100
AcDbSymbolTableRecord
100
AcDbRegAppTableRecord
2
ACAD_DSTYLE_DIMJAG
70
0
0
APPID
5
288
330
21A
100
AcDbSymbolTableRecord
100
AcDbRegAppTableRecord
2
ACAD_DSTYLE_DIMTALN
70
0
0
APPID
5
289
330
21A
100
AcDbSymbolTableRecord
100
AcDbRegAppTableRecord
2
ACAD_MLEADERVER
70
0
0
APPID
5
28A
330
21A
100
AcDbSymbolTableRecord
100
AcDbRegAppTableRecord
2
ACAD_NAV_VCDISPLAY
70
0
0
APPID
5
2E7
330
21A
100
AcDbSymbolTableRecord
100
AcDbRegAppTableRecord
2
ACAD_EXEMPT_FROM_CAD_STANDARDS
70
0
0
APPID
5
2FC
330
21A
100
AcDbSymbolTableRecord
100
AcDbRegAppTableRecord
2
AcAecLayerStandard
70
0
0
APPID
5
2FD
330
21A
100
AcDbSymbolTableRecord
100
AcDbRegAppTableRecord
2
AcCmTransparency
70
0
0
ENDTAB
0
TABLE
2
DIMSTYLE
5
21B
330
0
100
AcDbSymbolTable
70
2
100
AcDbDimStyleTable
71
1
340
268
0
DIMSTYLE
105
268
330
21B
100
AcDbSymbolTableRecord
100
AcDbDimStyleTableRecord
2
STANDARD
70
0
279
2
340
266
0
DIMSTYLE
105
269
330
21B
100
AcDbSymbolTableRecord
100
AcDbDimStyleTableRecord
2
ANNOTATIVE
70
0
40
0.0
279
2
340
266
1001
ACADANNOTATIVE
1000
AnnotativeData
1002
{
1070
1
1070
1
1002
}
0
ENDTAB
0
TABLE
2
BLOCK_RECORD
5
212
330
0
100
AcDbSymbolTable
70
2
0
BLOCK_RECORD
5
281
330
212
100
AcDbSymbolTableRecord
100
AcDbBlockTableRecord
2
*Model_Space
340
284
70
0
280
1
281
0
0
BLOCK_RECORD
5
27D
330
212
100
AcDbSymbolTableRecord
100
AcDbBlockTableRecord
2
*Paper_Space
340
280
70
0
280
1
281
0
0
BLOCK_RECORD
5
28C
330
212
100
AcDbSymbolTableRecord
100
AcDbBlockTableRecord
2
$MODEL_SPACE
340
0
70
0
280
1
281
0
0
BLOCK_RECORD
5
28E
330
212
100
AcDbSymbolTableRecord
100
AcDbBlockTableRecord
2
$PAPER_SPACE
340
0
70
0
280
1
281
0
0
ENDTAB
0
ENDSEC
0
SECTION
2
BLOCKS
0
BLOCK
5
282
330
281
100
AcDbEntity
8
0
100
AcDbBlockBegin
2
*Model_Space
70
0
10
0.0
20
0.0
30
0.0
3
*Model_Space
1

0
ENDBLK
5
283
330
281
100
AcDbEntity
8
0
100
AcDbBlockEnd
0
BLOCK
5
27E
330
27D
100
AcDbEntity
67
1
8
0
100
AcDbBlockBegin
2
*Paper_Space
70
0
10
0.0
20
0.0
30
0.0
3
*Paper_Space
1

0
ENDBLK
5
27F
330
27D
100
AcDbEntity
67
1
8
0
100
AcDbBlockEnd
0
BLOCK
5
28D
330
28C
100
AcDbEntity
8
0
100
AcDbBlockBegin
2
$MODEL_SPACE
70
0
10
0.0
20
0.0
30
0.0
3
$MODEL_SPACE
1

0
ENDBLK
5
21
330
28C
100
AcDbEntity
8
0
100
AcDbBlockEnd
0
BLOCK
5
28F
330
28E
100
AcDbEntity
8
0
100
AcDbBlockBegin
2
$PAPER_SPACE
70
0
10
0.0
20
0.0
30
0.0
3
$PAPER_SPACE
1

0
ENDBLK
5
5B
330
28E
100
AcDbEntity
8
0
100
AcDbBlockEnd
0
ENDSEC
0
SECTION
2
ENTITIES
0
LWPOLYLINE
5
2000
100
AcDbEntity
100
AcDbPolyline
66
1
90
792
70
1
43
0
10
15.857
20
0
30
0
10
17.086214
20
0.00003
30
0
10
17.110606
20
0.001013
30
0
10
17.160566
20
0.004882
30
0
10
17.235867
20
0.013619
30
0
10
17.336168
20
0.02919
30
0
10
17.461016
20
0.053543
30
0
10
17.60984
20
0.088596
30
0
10
17.781963
20
0.136236
30
0
10
17.976594
20
0.198313
30
0
10
18.192836
20
0.276632
30
0
10
18.429686
20
0.37295
30
0
10
18.686036
20
0.488968
30
0
10
18.960682
20
0.626326
30
0
10
19.252318
20
0.786602
30
0
10
19.559546
20
0.971301
30
0
10
19.880879
20
1.181852
30
0
10
20.046345
20
1.297248
30
0
10
20.13019
20
1.357547
30
0
10
20.151262
20
1.372896
30
0
10
20.152581
20
1.373859
30
0
10
20.153193
20
1.374338
30
0
10
20.033439
20
2.58869
30
0
10
20.032745
20
2.58904
30
0
10
20.031264
20
2.589727
30
0
10
20.007599
20
2.600664
30
0
10
19.913591
20
2.643424
30
0
10
19.728772
20
2.724277
30
0
10
19.372502
20
2.868006
30
0
10
19.035114
20
2.989135
30
0
10
18.717789
20
3.089358
30
0
10
18.421603
20
3.170424
30
0
10
18.147528
20
3.234133
30
0
10
17.896427
20
3.282331
30
0
10
17.669053
20
3.316903
30
0
10
17.466045
20
3.339767
30
0
10
17.287932
20
3.352868
30
0
10
17.135127
20
3.358176
30
0
10
17.007928
20
3.357673
30
0
10
16.906517
20
3.353352
30
0
10
16.83096
20
3.347212
30
0
10
16.781207
20
3.341248
30
0
10
16.757092
20
3.337447
30
0
10
15.551551
20
3.097372
30
0
10
14.900706
20
5.423413
30
0
10
16.055779
20
5.843858
30
0
10
16.078364
20
5.853123
30
0
10
16.123987
20
5.873846
30
0
10
16.191759
20
5.907811
30
0
10
16.280686
20
5.956749
30
0
10
16.389675
20
6.022333
30
0
10
16.517536
20
6.106173
30
0
10
16.662984
20
6.209809
30
0
10
16.824646
20
6.334711
30
0
10
17.00106
20
6.482266
30
0
10
17.190683
20
6.653782
30
0
10
17.391894
20
6.85048
30
0
10
17.602997
20
7.073489
30
0
10
17.822227
20
7.323845
30
0
10
18.047757
20
7.602483
30
0
10
18.277698
20
7.910239
30
0
10
18.393718
20
8.075268
30
0
10
18.451882
20
8.160607
30
0
10
18.466434
20
8.182238
30
0
10
18.467344
20
8.183594
30
0
10
18.467756
20
8.184253
30
0
10
17.939891
20
9.284413
30
0
10
17.939119
20
9.284504
30
0
10
17.937492
20
9.284643
30
0
10
17.911514
20
9.286827
30
0
10
17.80855
20
9.294856
30
0
10
17.607224
20
9.30762
30
0
10
17.223281
20
9.32083
30
0
10
16.864812
20
9.31926
30
0
10
16.532345
20
9.304907
30
0
10
16.226296
20
9.279783
30
0
10
15.94696
20
9.245911
30
0
10
15.694517
20
9.205321
30
0
10
15.469031
20
9.160041
30
0
10
15.270446
20
9.112093
30
0
10
15.098594
20
9.063487
30
0
10
14.953189
20
9.016212
30
0
10
14.833833
20
8.972234
30
0
10
14.740015
20
8.93349
30
0
10
14.671115
20
8.901878
30
0
10
14.626402
20
8.879257
30
0
10
14.605042
20
8.867437
30
0
10
13.554314
20
8.229522
30
0
10
12.147167
20
10.192683
30
0
10
13.08878
20
10.98283
30
0
10
13.106834
20
10.999261
30
0
10
13.142618
20
11.034339
30
0
10
13.194686
20
11.089434
30
0
10
13.261512
20
11.165835
30
0
10
13.341497
20
11.264741
30
0
10
13.432972
20
11.387255
30
0
10
13.534203
20
11.534388
30
0
10
13.643397
20
11.707049
30
0
10
13.758705
20
11.906042
30
0
10
13.878231
20
12.13207
30
0
10
14.000032
20
12.385724
30
0
10
14.12213
20
12.667485
30
0
10
14.242513
20
12.977724
30
0
10
14.359142
20
13.316693
30
0
10
14.469957
20
13.684534
30
0
10
14.522537
20
13.879292
30
0
10
14.548005
20
13.979378
30
0
10
14.554282
20
14.004681
30
0
10
14.554673
20
14.006267
30
0
10
14.554834
20
14.007027
30
0
10
13.682527
20
14.860298
30
0
10
13.68177
20
14.86012
30
0
10
13.680194
20
14.859694
30
0
10
13.655036
20
14.852861
30
0
10
13.555536
20
14.82519
30
0
10
13.361985
20
14.768327
30
0
10
12.996679
20
14.649424
30
0
10
12.660364
20
14.525346
30
0
10
12.352857
20
14.398148
30
0
10
12.073858
20
14.269864
30
0
10
11.822953
20
14.142496
30
0
10
11.599617
20
14.018013
30
0
10
11.403215
20
13.898343
30
0
10
11.233006
20
13.785367
30
0
10
11.088142
20
13.680915
30
0
10
10.967675
20
13.586759
30
0
10
10.870558
20
13.504612
30
0
10
10.79565
20
13.436116
30
0
10
10.741717
20
13.382846
30
0
10
10.707437
20
13.346296
30
0
10
10.691408
20
13.327884
30
0
10
9.922227
20
12.369069
30
0
10
7.9285
20
13.732565
30
0
10
8.543081
20
14.79711
30
0
10
8.554426
20
14.818726
30
0
10
8.576055
20
14.863927
30
0
10
8.606139
20
14.933508
30
0
10
8.642805
20
15.028157
30
0
10
8.684138
20
15.148454
30
0
10
8.728194
20
15.294867
30
0
10
8.772998
20
15.46775
30
0
10
8.816553
20
15.667344
30
0
10
8.856847
20
15.893774
30
0
10
8.891858
20
16.147051
30
0
10
8.91956
20
16.427066
30
0
10
8.937926
20
16.733595
30
0
10
8.944941
20
17.066297
30
0
10
8.938602
20
17.424714
30
0
10
8.916926
20
17.808272
30
0
10
8.899723
20
18.009268
30
0
10
8.889425
20
18.112029
30
0
10
8.886668
20
18.137953
30
0
10
8.886493
20
18.139577
30
0
10
8.886385
20
18.140346
30
0
10
7.774848
20
18.643812
30
0
10
7.774198
20
18.643386
30
0
10
7.772863
20
18.642447
30
0
10
7.751558
20
18.627421
30
0
10
7.667523
20
18.567388
30
0
10
7.505093
20
18.447756
30
0
10
7.202485
20
18.211081
30
0
10
6.92889
20
17.97946
30
0
10
6.683432
20
17.754759
30
0
10
6.465134
20
17.538788
30
0
10
6.272923
20
17.333287
30
0
10
6.105632
20
17.139926
30
0
10
5.962004
20
16.9603
30
0
10
5.8407
20
16.795922
30
0
10
5.740297
20
16.648223
30
0
10
5.659298
20
16.518543
30
0
10
5.596134
20
16.408134
30
0
10
5.54917
20
16.318149
30
0
10
5.516709
20
16.249645
30
0
10
5.496998
20
16.203576
30
0
10
5.488232
20
16.180791
30
0
10
5.093372
20
15.016724
30
0
10
2.753539
20
15.616097
30
0
10
2.96696
20
16.826641
30
0
10
2.970228
20
16.850833
30
0
10
2.975094
20
16.900706
30
0
10
2.979565
20
16.97638
30
0
10
2.981647
20
17.077862
30
0
10
2.979344
20
17.205041
30
0
10
2.970667
20
17.357692
30
0
10
2.953639
20
17.535472
30
0
10
2.926303
20
17.737926
30
0
10
2.886723
20
17.964483
30
0
10
2.832997
20
18.214459
30
0
10
2.763257
20
18.487062
30
0
10
2.675677
20
18.781387
30
0
10
2.568478
20
19.096424
30
0
10
2.439935
20
19.431057
30
0
10
2.288381
20
19.78407
30
0
10
2.203472
20
19.967061
30
0
10
2.158648
20
20.060103
30
0
10
2.147191
20
20.08352
30
0
10
2.146472
20
20.084986
30
0
10
2.146107
20
20.085672
30
0
10
0.929408
20
20.178607
30
0
10
0.928943
20
20.177985
30
0
10
0.92801
20
20.176645
30
0
10
0.913129
20
20.155239
30
0
10
0.854694
20
20.070085
30
0
10
0.742977
20
19.902113
30
0
10
0.539565
20
19.576214
30
0
10
0.36169
20
19.264986
30
0
10
0.207887
20
18.969885
30
0
10
0.07662
20
18.692276
30
0
10
-0.033714
20
18.433428
30
0
10
-0.124783
20
18.194511
30
0
10
-0.198313
20
17.976594
30
0
10
-0.256081
20
17.780641
30
0
10
-0.299913
20
17.607509
30
0
10
-0.331674
20
17.457947
30
0
10
-0.353266
20
17.332593
30
0
10
-0.366621
20
17.231972
30
0
10
-0.373695
20
17.156497
30
0
10
-0.376461
20
17.106464
30
0
10
-0.376905
20
17.082056
30
0
10
-0.349818
20
15.853141
30
0
10
-2.753539
20
15.616097
30
0
10
-2.96702
20
16.82663
30
0
10
-2.972223
20
16.850482
30
0
10
-2.984708
20
16.899011
30
0
10
-3.006389
20
16.97165
30
0
10
-3.039141
20
17.067724
30
0
10
-3.084803
20
17.186446
30
0
10
-3.145166
20
17.326923
30
0
10
-3.221972
20
17.488158
30
0
10
-3.316903
20
17.669053
30
0
10
-3.431583
20
17.868409
30
0
10
-3.567566
20
18.084935
30
0
10
-3.726335
20
18.317245
30
0
10
-3.909299
20
18.563866
30
0
10
-4.117782
20
18.82324
30
0
10
-4.353024
20
19.093728
30
0
10
-4.616175
20
19.373617
30
0
10
-4.758551
20
19.516532
30
0
10
-4.832494
20
19.588631
30
0
10
-4.851269
20
19.606718
30
0
10
-4.852446
20
19.60785
30
0
10
-4.853024
20
19.60837
30
0
10
-6.028132
20
19.279565
30
0
10
-6.028356
20
19.278821
30
0
10
-6.028775
20
19.277243
30
0
10
-6.035437
20
19.252038
30
0
10
-6.061224
20
19.152033
30
0
10
-6.108754
20
18.955982
30
0
10
-6.188434
20
18.580166
30
0
10
-6.249136
20
18.22687
30
0
10
-6.292733
20
17.896962
30
0
10
-6.321135
20
17.591199
30
0
10
-6.336284
20
17.310225
30
0
10
-6.340147
20
17.05457
30
0
10
-6.334711
20
16.824646
30
0
10
-6.321975
20
16.620752
30
0
10
-6.303949
20
16.44307
30
0
10
-6.282641
20
16.291665
30
0
10
-6.260058
20
16.166486
30
0
10
-6.238193
20
16.067365
30
0
10
-6.219026
20
15.994022
30
0
10
-6.204513
20
15.946061
30
0
10
-6.196582
20
15.922973
30
0
10
-5.750815
20
14.777435
30
0
10
-7.9285
20
13.732565
30
0
10
-8.543133
20
14.79708
30
0
10
-8.55618
20
14.817713
30
0
10
-8.58451
20
14.859045
30
0
10
-8.629727
20
14.919889
30
0
10
-8.693364
20
14.998967
30
0
10
-8.776877
20
15.094912
30
0
10
-8.881646
20
15.206271
30
0
10
-9.008965
20
15.331514
30
0
10
-9.160041
20
15.469031
30
0
10
-9.335989
20
15.617142
30
0
10
-9.537827
20
15.774101
30
0
10
-9.766477
20
15.938098
30
0
10
-10.022756
20
16.107269
30
0
10
-10.307376
20
16.279695
30
0
10
-10.620944
20
16.453414
30
0
10
-10.963953
20
16.62642
30
0
10
-11.146622
20
16.71202
30
0
10
-11.240765
20
16.754482
30
0
10
-11.264594
20
16.765057
30
0
10
-11.266087
20
16.765717
30
0
10
-11.266808
20
16.766008
30
0
10
-12.258591
20
16.055122
30
0
10
-12.258547
20
16.054346
30
0
10
-12.258401
20
16.05272
30
0
10
-12.256041
20
16.026757
30
0
10
-12.246068
20
15.923964
30
0
10
-12.223679
20
15.723479
30
0
10
-12.170017
20
15.343076
30
0
10
-12.106224
20
14.990325
30
0
10
-12.034357
20
14.665402
30
0
10
-11.956469
20
14.368365
30
0
10
-11.874605
20
14.099154
30
0
10
-11.790796
20
13.857595
30
0
10
-11.707049
20
13.643397
30
0
10
-11.625345
20
13.456155
30
0
10
-11.547635
20
13.295354
30
0
10
-11.475829
20
13.160368
30
0
10
-11.411794
20
13.050462
30
0
10
-11.357347
20
12.964797
30
0
10
-11.314251
20
12.902433
30
0
10
-11.284209
20
12.862327
30
0
10
-11.26886
20
12.843344
30
0
10
-10.458179
20
11.919352
30
0
10
-12.147167
20
10.192683
30
0
10
-13.088818
20
10.982783
30
0
10
-13.108136
20
10.99771
30
0
10
-13.148894
20
11.02686
30
0
10
-13.212194
20
11.068569
30
0
10
-13.299039
20
11.121113
30
0
10
-13.410331
20
11.182708
30
0
10
-13.546868
20
11.251519
30
0
10
-13.709345
20
11.325663
30
0
10
-13.898343
20
11.403215
30
0
10
-14.114337
20
11.482217
30
0
10
-14.357686
20
11.560677
30
0
10
-14.628637
20
11.636582
30
0
10
-14.92732
20
11.707897
30
0
10
-15.253749
20
11.772579
30
0
10
-15.607822
20
11.828575
30
0
10
-15.989317
20
11.873831
30
0
10
-16.190246
20
11.891793
30
0
10
-16.293235
20
11.899495
30
0
10
-16.319243
20
11.901282
30
0
10
-16.320872
20
11.901392
30
0
10
-16.321649
20
11.901419
30
0
10
-17.010483
20
10.894195
30
0
10
-17.010176
20
10.893481
30
0
10
-17.009483
20
10.892002
30
0
10
-16.998385
20
10.868413
30
0
10
-16.953856
20
10.775229
30
0
10
-16.864247
20
10.594493
30
0
10
-16.683716
20
10.255384
30
0
10
-16.503122
20
9.945725
30
0
10
-16.324459
20
9.664977
30
0
10
-16.149676
20
9.412493
30
0
10
-15.980674
20
9.187517
30
0
10
-15.819301
20
8.98919
30
0
10
-15.667344
20
8.816553
30
0
10
-15.526527
20
8.668548
30
0
10
-15.398507
20
8.544022
30
0
10
-15.284863
20
8.441736
30
0
10
-15.187099
20
8.360359
30
0
10
-15.106637
20
8.298483
30
0
10
-15.04481
20
8.254619
30
0
10
-15.002863
20
8.227207
30
0
10
-14.981947
20
8.214619
30
0
10
-13.904132
20
7.623619
30
0
10
-14.900706
20
5.423413
30
0
10
-16.055799
20
5.843801
30
0
10
-16.079057
20
5.85122
30
0
10
-16.127327
20
5.864672
30
0
10
-16.201075
20
5.882216
30
0
10
-16.300653
20
5.901889
30
0
10
-16.4263
20
5.921705
30
0
10
-16.578138
20
5.939668
30
0
10
-16.756175
20
5.95377
30
0
10
-16.9603
20
5.962004
30
0
10
-17.190288
20
5.962367
30
0
10
-17.445796
20
5.952865
30
0
10
-17.726367
20
5.931521
30
0
10
-18.031429
20
5.896381
30
0
10
-18.360295
20
5.845516
30
0
10
-18.712166
20
5.777035
30
0
10
-19.086132
20
5.689083
30
0
10
-19.281088
20
5.63724
30
0
10
-19.380499
20
5.609253
30
0
10
-19.405551
20
5.602037
30
0
10
-19.407119
20
5.601583
30
0
10
-19.407858
20
5.601343
30
0
10
-19.710659
20
4.419267
30
0
10
-19.710126
20
4.418701
30
0
10
-19.708969
20
4.417549
30
0
10
-19.690473
20
4.399177
30
0
10
-19.616759
20
4.326843
30
0
10
-19.470739
20
4.187655
30
0
10
-19.185113
20
3.930742
30
0
10
-18.9095
20
3.701524
30
0
10
-18.64559
20
3.498814
30
0
10
-18.394993
20
3.321336
30
0
10
-18.159237
20
3.167729
30
0
10
-17.939764
20
3.036556
30
0
10
-17.737926
20
2.926303
30
0
10
-17.554981
20
2.835385
30
0
10
-17.392091
20
2.762155
30
0
10
-17.250316
20
2.704906
30
0
10
-17.130616
20
2.661874
30
0
10
-17.033843
20
2.631249
30
0
10
-16.960743
20
2.611177
30
0
10
-16.91195
20
2.599765
30
0
10
-16.88799
20
2.595089
30
0
10
-15.673041
20
2.408366
30
0
10
-15.857
20
0
30
0
10
-17.086214
20
-0.00003
30
0
10
-17.110606
20
-0.001013
30
0
10
-17.160566
20
-0.004882
30
0
10
-17.235867
20
-0.013619
30
0
10
-17.336168
20
-0.02919
30
0
10
-17.461016
20
-0.053543
30
0
10
-17.60984
20
-0.088596
30
0
10
-17.781963
20
-0.136236
30
0
10
-17.976594
20
-0.198313
30
0
10
-18.192836
20
-0.276632
30
0
10
-18.429686
20
-0.37295
30
0
10
-18.686036
20
-0.488968
30
0
10
-18.960682
20
-0.626326
30
0
10
-19.252318
20
-0.786602
30
0
10
-19.559546
20
-0.971301
30
0
10
-19.880879
20
-1.181852
30
0
10
-20.046345
20
-1.297248
30
0
10
-20.13019
20
-1.357547
30
0
10
-20.151262
20
-1.372896
30
0
10
-20.152581
20
-1.373859
30
0
10
-20.153193
20
-1.374338
30
0
10
-20.033439
20
-2.58869
30
0
10
-20.032745
20
-2.58904
30
0
10
-20.031264
20
-2.589727
30
0
10
-20.007599
20
-2.600664
30
0
10
-19.913591
20
-2.643424
30
0
10
-19.728772
20
-2.724277
30
0
10
-19.372502
20
-2.868006
30
0
10
-19.035114
20
-2.989135
30
0
10
-18.717789
20
-3.089358
30
0
10
-18.421603
20
-3.170424
30
0
10
-18.147528
20
-3.234133
30
0
10
-17.896427
20
-3.282331
30
0
10
-17.669053
20
-3.316903
30
0
10
-17.466045
20
-3.339767
30
0
10
-17.287932
20
-3.352868
30
0
10
-17.135127
20
-3.358176
30
0
10
-17.007928
20
-3.357673
30
0
10
-16.906517
20
-3.353352
30
0
10
-16.83096
20
-3.347212
30
0
10
-16.781207
20
-3.341248
30
0
10
-16.757092
20
-3.337447
30
0
10
-15.551551
20
-3.097372
30
0
10
-14.900706
20
-5.423413
30
0
10
-16.055779
20
-5.843858
30
0
10
-16.078364
20
-5.853123
30
0
10
-16.123987
20
-5.873846
30
0
10
-16.191759
20
-5.907811
30
0
10
-16.280686
20
-5.956749
30
0
10
-16.389675
20
-6.022333
30
0
10
-16.517536
20
-6.106173
30
0
10
-16.662984
20
-6.209809
30
0
10
-16.824646
20
-6.334711
30
0
10
-17.00106
20
-6.482266
30
0
10
-17.190683
20
-6.653782
30
0
10
-17.391894
20
-6.85048
30
0
10
-17.602997
20
-7.073489
30
0
10
-17.822227
20
-7.323845
30
0
10
-18.047757
20
-7.602483
30
0
10
-18.277698
20
-7.910239
30
0
10
-18.393718
20
-8.075268
30
0
10
-18.451882
20
-8.160607
30
0
10
-18.466434
20
-8.182238
30
0
10
-18.467344
20
-8.183594
30
0
10
-18.467756
20
-8.184253
30
0
10
-17.939891
20
-9.284413
30
0
10
-17.939119
20
-9.284504
30
0
10
-17.937492
20
-9.284643
30
0
10
-17.911514
20
-9.286827
30
0
10
-17.80855
20
-9.294856
30
0
10
-17.607224
20
-9.30762
30
0
10
-17.223281
20
-9.32083
30
0
10
-16.864812
20
-9.31926
30
0
10
-16.532345
20
-9.304907
30
0
10
-16.226296
20
-9.279783
30
0
10
-15.94696
20
-9.245911
30
0
10
-15.694517
20
-9.205321
30
0
10
-15.469031
20
-9.160041
30
0
10
-15.270446
20
-9.112093
30
0
10
-15.098594
20
-9.063487
30
0
10
-14.953189
20
-9.016212
30
0
10
-14.833833
20
-8.972234
30
0
10
-14.740015
20
-8.93349
30
0
10
-14.671115
20
-8.901878
30
0
10
-14.626402
20
-8.879257
30
0
10
-14.605042
20
-8.867437
30
0
10
-13.554314
20
-8.229522
30
0
10
-12.147167
20
-10.192683
30
0
10
-13.08878
20
-10.98283
30
0
10
-13.106834
20
-10.999261
30
0
10
-13.142618
20
-11.034339
30
0
10
-13.194686
20
-11.089434
30
0
10
-13.261512
20
-11.165835
30
0
10
-13.341497
20
-11.264741
30
0
10
-13.432972
20
-11.387255
30
0
10
-13.534203
20
-11.534388
30
0
10
-13.643397
20
-11.707049
30
0
10
-13.758705
20
-11.906042
30
0
10
-13.878231
20
-12.13207
30
0
10
-14.000032
20
-12.385724
30
0
10
-14.12213
20
-12.667485
30
0
10
-14.242513
20
-12.977724
30
0
10
-14.359142
20
-13.316693
30
0
10
-14.469957
20
-13.684534
30
0
10
-14.522537
20
-13.879292
30
0
10
-14.548005
20
-13.979378
30
0
10
-14.554282
20
-14.004681
30
0
10
-14.554673
20
-14.006267
30
0
10
-14.554834
20
-14.007027
30
0
10
-13.682527
20
-14.860298
30
0
10
-13.68177
20
-14.86012
30
0
10
-13.680194
20
-14.859694
30
0
10
-13.655036
20
-14.852861
30
0
10
-13.555536
20
-14.82519
30
0
10
-13.361985
20
-14.768327
30
0
10
-12.996679
20
-14.649424
30
0
10
-12.660364
20
-14.525346
30
0
10
-12.352857
20
-14.398148
30
0
10
-12.073858
20
-14.269864
30
0
10
-11.822953
20
-14.142496
30
0
10
-11.599617
20
-14.018013
30
0
10
-11.403215
20
-13.898343
30
0
10
-11.233006
20
-13.785367
30
0
10
-11.088142
20
-13.680915
30
0
10
-10.967675
20
-13.586759
30
0
10
-10.870558
20
-13.504612
30
0
10
-10.79565
20
-13.436116
30
0
10
-10.741717
20
-13.382846
30
0
10
-10.707437
20
-13.346296
30
0
10
-10.691408
20
-13.327884
30
0
10
-9.922227
20
-12.369069
30
0
10
-7.9285
20
-13.732565
30
0
10
-8.543081
20
-14.79711
30
0
10
-8.554426
20
-14.818726
30
0
10
-8.576055
20
-14.863927
30
0
10
-8.606139
20
-14.933508
30
0
10
-8.642805
20
-15.028157
30
0
10
-8.684138
20
-15.148454
30
0
10
-8.728194
20
-15.294867
30
0
10
-8.772998
20
-15.46775
30
0
10
-8.816553
20
-15.667344
30
0
10
-8.856847
20
-15.893774
30
0
10
-8.891858
20
-16.147051
30
0
10
-8.91956
20
-16.427066
30
0
10
-8.937926
20
-16.733595
30
0
10
-8.944941
20
-17.066297
30
0
10
-8.938602
20
-17.424714
30
0
10
-8.916926
20
-17.808272
30
0
10
-8.899723
20
-18.009268
30
0
10
-8.889425
20
-18.112029
30
0
10
-8.886668
20
-18.137953
30
0
10
-8.886493
20
-18.139577
30
0
10
-8.886385
20
-18.140346
30
0
10
-7.774848
20
-18.643812
30
0
10
-7.774198
20
-18.643386
30
0
10
-7.772863
20
-18.642447
30
0
10
-7.751558
20
-18.627421
30
0
10
-7.667523
20
-18.567388
30
0
10
-7.505093
20
-18.447756
30
0
10
-7.202485
20
-18.211081
30
0
10
-6.92889
20
-17.97946
30
0
10
-6.683432
20
-17.754759
30
0
10
-6.465134
20
-17.538788
30
0
10
-6.272923
20
-17.333287
30
0
10
-6.105632
20
-17.139926
30
0
10
-5.962004
20
-16.9603
30
0
10
-5.8407
20
-16.795922
30
0
10
-5.740297
20
-16.648223
30
0
10
-5.659298
20
-16.518543
30
0
10
-5.596134
20
-16.408134
30
0
10
-5.54917
20
-16.318149
30
0
10
-5.516709
20
-16.249645
30
0
10
-5.496998
20
-16.203576
30
0
10
-5.488232
20
-16.180791
30
0
10
-5.093372
20
-15.016724
30
0
10
-2.753539
20
-15.616097
30
0
10
-2.96696
20
-16.826641
30
0
10
-2.970228
20
-16.850833
30
0
10
-2.975094
20
-16.900706
30
0
10
-2.979565
20
-16.97638
30
0
10
-2.981647
20
-17.077862
30
0
10
-2.979344
20
-17.205041
30
0
10
-2.970667
20
-17.357692
30
0
10
-2.953639
20
-17.535472
30
0
10
-2.926303
20
-17.737926
30
0
10
-2.886723
20
-17.964483
30
0
10
-2.832997
20
-18.214459
30
0
10
-2.763257
20
-18.487062
30
0
10
-2.675677
20
-18.781387
30
0
10
-2.568478
20
-19.096424
30
0
10
-2.439935
20
-19.431057
30
0
10
-2.288381
20
-19.78407
30
0
10
-2.203472
20
-19.967061
30
0
10
-2.158648
20
-20.060103
30
0
10
-2.147191
20
-20.08352
30
0
10
-2.146472
20
-20.084986
30
0
10
-2.146107
20
-20.085672
30
0
10
-0.929408
20
-20.178607
30
0
10
-0.928943
20
-20.177985
30
0
10
-0.92801
20
-20.176645
30
0
10
-0.913129
20
-20.155239
30
0
10
-0.854694
20
-20.070085
30
0
10
-0.742977
20
-19.902113
30
0
10
-0.539565
20
-19.576214
30
0
10
-0.36169
20
-19.264986
30
0
10
-0.207887
20
-18.969885
30
0
10
-0.07662
20
-18.692276
30
0
10
0.033714
20
-18.433428
30
0
10
0.124783
20
-18.194511
30
0
10
0.198313
20
-17.976594
30
0
10
0.256081
20
-17.780641
30
0
10
0.299913
20
-17.607509
30
0
10
0.331674
20
-17.457947
30
0
10
0.353266
20
-17.332593
30
0
10
0.366621
20
-17.231972
30
0
10
0.373695
20
-17.156497
30
0
10
0.376461
20
-17.106464
30
0
10
0.376905
20
-17.082056
30
0
10
0.349818
20
-15.853141
30
0
10
2.753539
20
-15.616097
30
0
10
2.96702
20
-16.82663
30
0
10
2.972223
20
-16.850482
30
0
10
2.984708
20
-16.899011
30
0
10
3.006389
20
-16.97165
30
0
10
3.039141
20
-17.067724
30
0
10
3.084803
20
-17.186446
30
0
10
3.145166
20
-17.326923
30
0
10
3.221972
20
-17.488158
30
0
10
3.316903
20
-17.669053
30
0
10
3.431583
20
-17.868409
30
0
10
3.567566
20
-18.084935
30
0
10
3.726335
20
-18.317245
30
0
10
3.909299
20
-18.563866
30
0
10
4.117782
20
-18.82324
30
0
10
4.353024
20
-19.093728
30
0
10
4.616175
20
-19.373617
30
0
10
4.758551
20
-19.516532
30
0
10
4.832494
20
-19.588631
30
0
10
4.851269
20
-19.606718
30
0
10
4.852446
20
-19.60785
30
0
10
4.853024
20
-19.60837
30
0
10
6.028132
20
-19.279565
30
0
10
6.028356
20
-19.278821
30
0
10
6.028775
20
-19.277243
30
0
10
6.035437
20
-19.252038
30
0
10
6.061224
20
-19.152033
30
0
10
6.108754
20
-18.955982
30
0
10
6.188434
20
-18.580166
30
0
10
6.249136
20
-18.22687
30
0
10
6.292733
20
-17.896962
30
0
10
6.321135
20
-17.591199
30
0
10
6.336284
20
-17.310225
30
0
10
6.340147
20
-17.05457
30
0
10
6.334711
20
-16.824646
30
0
10
6.321975
20
-16.620752
30
0
10
6.303949
20
-16.44307
30
0
10
6.282641
20
-16.291665
30
0
10
6.260058
20
-16.166486
30
0
10
6.238193
20
-16.067365
30
0
10
6.219026
20
-15.994022
30
0
10
6.204513
20
-15.946061
30
0
10
6.196582
20
-15.922973
30
0
10
5.750815
20
-14.777435
30
0
10
7.9285
20
-13.732565
30
0
10
8.543133
20
-14.79708
30
0
10
8.55618
20
-14.817713
30
0
10
8.58451
20
-14.859045
30
0
10
8.629727
20
-14.919889
30
0
10
8.693364
20
-14.998967
30
0
10
8.776877
20
-15.094912
30
0
10
8.881646
20
-15.206271
30
0
10
9.008965
20
-15.331514
30
0
10
9.160041
20
-15.469031
30
0
10
9.335989
20
-15.617142
30
0
10
9.537827
20
-15.774101
30
0
10
9.766477
20
-15.938098
30
0
10
10.022756
20
-16.107269
30
0
10
10.307376
20
-16.279695
30
0
10
10.620944
20
-16.453414
30
0
10
10.963953
20
-16.62642
30
0
10
11.146622
20
-16.71202
30
0
10
11.240765
20
-16.754482
30
0
10
11.264594
20
-16.765057
30
0
10
11.266087
20
-16.765717
30
0
10
11.266808
20
-16.766008
30
0
10
12.258591
20
-16.055122
30
0
10
12.258547
20
-16.054346
30
0
10
12.258401
20
-16.05272
30
0
10
12.256041
20
-16.026757
30
0
10
12.246068
20
-15.923964
30
0
10
12.223679
20
-15.723479
30
0
10
12.170017
20
-15.343076
30
0
10
12.106224
20
-14.990325
30
0
10
12.034357
20
-14.665402
30
0
10
11.956469
20
-14.368365
30
0
10
11.874605
20
-14.099154
30
0
10
11.790796
20
-13.857595
30
0
10
11.707049
20
-13.643397
30
0
10
11.625345
20
-13.456155
30
0
10
11.547635
20
-13.295354
30
0
10
11.475829
20
-13.160368
30
0
10
11.411794
20
-13.050462
30
0
10
11.357347
20
-12.964797
30
0
10
11.314251
20
-12.902433
30
0
10
11.284209
20
-12.862327
30
0
10
11.26886
20
-12.843344
30
0
10
10.458179
20
-11.919352
30
0
10
12.147167
20
-10.192683
30
0
10
13.088818
20
-10.982783
30
0
10
13.108136
20
-10.99771
30
0
10
13.148894
20
-11.02686
30
0
10
13.212194
20
-11.068569
30
0
10
13.299039
20
-11.121113
30
0
10
13.410331
20
-11.182708
30
0
10
13.546868
20
-11.251519
30
0
10
13.709345
20
-11.325663
30
0
10
13.898343
20
-11.403215
30
0
10
14.114337
20
-11.482217
30
0
10
14.357686
20
-11.560677
30
0
10
14.628637
20
-11.636582
30
0
10
14.92732
20
-11.707897
30
0
10
15.253749
20
-11.772579
30
0
10
15.607822
20
-11.828575
30
0
10
15.989317
20
-11.873831
30
0
10
16.190246
20
-11.891793
30
0
10
16.293235
20
-11.899495
30
0
10
16.319243
20
-11.901282
30
0
10
16.320872
20
-11.901392
30
0
10
16.321649
20
-11.901419
30
0
10
17.010483
20
-10.894195
30
0
10
17.010176
20
-10.893481
30
0
10
17.009483
20
-10.892002
30
0
10
16.998385
20
-10.868413
30
0
10
16.953856
20
-10.775229
30
0
10
16.864247
20
-10.594493
30
0
10
16.683716
20
-10.255384
30
0
10
16.503122
20
-9.945725
30
0
10
16.324459
20
-9.664977
30
0
10
16.149676
20
-9.412493
30
0
10
15.980674
20
-9.187517
30
0
10
15.819301
20
-8.98919
30
0
10
15.667344
20
-8.816553
30
0
10
15.526527
20
-8.668548
30
0
10
15.398507
20
-8.544022
30
0
10
15.284863
20
-8.441736
30
0
10
15.187099
20
-8.360359
30
0
10
15.106637
20
-8.298483
30
0
10
15.04481
20
-8.254619
30
0
10
15.002863
20
-8.227207
30
0
10
14.981947
20
-8.214619
30
0
10
13.904132
20
-7.623619
30
0
10
14.900706
20
-5.423413
30
0
10
16.055799
20
-5.843801
30
0
10
16.079057
20
-5.85122
30
0
10
16.127327
20
-5.864672
30
0
10
16.201075
20
-5.882216
30
0
10
16.300653
20
-5.901889
30
0
10
16.4263
20
-5.921705
30
0
10
16.578138
20
-5.939668
30
0
10
16.756175
20
-5.95377
30
0
10
16.9603
20
-5.962004
30
0
10
17.190288
20
-5.962367
30
0
10
17.445796
20
-5.952865
30
0
10
17.726367
20
-5.931521
30
0
10
18.031429
20
-5.896381
30
0
10
18.360295
20
-5.845516
30
0
10
18.712166
20
-5.777035
30
0
10
19.086132
20
-5.689083
30
0
10
19.281088
20
-5.63724
30
0
10
19.380499
20
-5.609253
30
0
10
19.405551
20
-5.602037
30
0
10
19.407119
20
-5.601583
30
0
10
19.407858
20
-5.601343
30
0
10
19.710659
20
-4.419267
30
0
10
19.710126
20
-4.418701
30
0
10
19.708969
20
-4.417549
30
0
10
19.690473
20
-4.399177
30
0
10
19.616759
20
-4.326843
30
0
10
19.470739
20
-4.187655
30
0
10
19.185113
20
-3.930742
30
0
10
18.9095
20
-3.701524
30
0
10
18.64559
20
-3.498814
30
0
10
18.394993
20
-3.321336
30
0
10
18.159237
20
-3.167729
30
0
10
17.939764
20
-3.036556
30
0
10
17.737926
20
-2.926303
30
0
10
17.554981
20
-2.835385
30
0
10
17.392091
20
-2.762155
30
0
10
17.250316
20
-2.704906
30
0
10
17.130616
20
-2.661874
30
0
10
17.033843
20
-2.631249
30
0
10
16.960743
20
-2.611177
30
0
10
16.91195
20
-2.599765
30
0
10
16.88799
20
-2.595089
30
0
10
15.673041
20
-2.408366
30
0
8
gear
0
CIRCLE
5
2001
100
AcDbEntity
100
AcDbCircle
10
18.092239
20
1.784177
30
0
40
0.79285
8
gear_guides
0
CIRCLE
5
2002
100
AcDbEntity
100
AcDbCircle
10
0
20
0
30
0
40
18.18
8
gear_guides
0
CIRCLE
5
2003
100
AcDbEntity
100
AcDbCircle
10
0
20
0
30
0
40
20.2
8
gear_guides
0
CIRCLE
5
2004
100
AcDbEntity
100
AcDbCircle
10
0
20
0
30
0
40
17.083612
8
gear_guides
0
LINE
5
2005
100
AcDbEntity
100
AcDbLine
10
1.6
20
0
30
0
11
-1.6
21
0
31
0
8
gear_guides
0
LINE
5
2006
100
AcDbEntity
100
AcDbLine
10
0
20
1.6
30
0
11
0
21
-1.6
31
0
8
gear_guides
0
LWPOLYLINE
5
2007
100
AcDbEntity
100
AcDbPolyline
66
1
90
2
70
0
43
0
10
-10.145062
20
5.857254
30
0
10
-11.025645
20
6.365659
30
0
8
gear_texts
0
LWPOLYLINE
5
2008
100
AcDbEntity
100
AcDbPolyline
66
1
90
2
70
0
43
0
10
-11.245791
20
6.49276
30
0
10
-11.465937
20
6.619862
30
0
8
gear_texts
0
LWPOLYLINE
5
2009
100
AcDbEntity
100
AcDbPolyline
66
1
90
2
70
0
43
0
10
-9.898042
20
6.265659
30
0
10
-10.757184
20
6.809513
30
0
8
gear_texts
0
LWPOLYLINE
5
2010
100
AcDbEntity
100
AcDbPolyline
66
1
90
6
70
0
43
0
10
-10.327613
20
6.537586
30
0
10
-10.404256
20
6.886935
30
0
10
-10.470864
20
7.242062
30
0
10
-10.321155
20
7.453873
30
0
10
-9.964158
20
7.509592
30
0
10
-9.355144
20
7.050603
30
0
8
gear_texts
0
LWPOLYLINE
5
2011
100
AcDbEntity
100
AcDbPolyline
66
1
90
2
70
0
43
0
10
-8.66696
20
7.10356
30
0
10
-9.846582
20
8.070395
30
0
8
gear_texts
0
LWPOLYLINE
5
2012
100
AcDbEntity
100
AcDbPolyline
66
1
90
10
70
0
43
0
10
-9.649979
20
7.909256
30
0
10
-9.680128
20
8.269316
30
0
10
-9.509656
20
8.464804
30
0
10
-9.335237
20
8.656779
30
0
10
-8.974109
20
8.668552
30
0
10
-8.608441
20
8.315335
30
0
10
-8.589661
20
7.96539
30
0
10
-8.75015
20
7.788747
30
0
10
-8.907007
20
7.608872
30
0
10
-9.060167
20
7.425839
30
0
8
gear_texts
0
LWPOLYLINE
5
2013
100
AcDbEntity
100
AcDbPolyline
66
1
90
2
70
0
43
0
10
-8.010062
20
9.895725
30
0
10
-7.370324
20
9.105385
30
0
8
gear_texts
0
LWPOLYLINE
5
2014
100
AcDbEntity
100
AcDbPolyline
66
1
90
6
70
0
43
0
10
-7.690193
20
9.500555
30
0
10
-7.718217
20
9.147632
30
0
10
-7.735121
20
8.797592
30
0
10
-7.912741
20
8.638185
30
0
10
-8.262564
20
8.659103
30
0
10
-8.789028
20
9.210833
30
0
8
gear_texts
0
LWPOLYLINE
5
2015
100
AcDbEntity
100
AcDbPolyline
66
1
90
4
70
0
43
0
10
-6.339693
20
10.151765
30
0
10
-6.406177
20
9.807681
30
0
10
-6.74797
20
9.885087
30
0
10
-7.464568
20
10.934829
30
0
8
gear_texts
0
LWPOLYLINE
5
2016
100
AcDbEntity
100
AcDbPolyline
66
1
90
5
70
0
43
0
10
-6.743638
20
10.798603
30
0
10
-6.962228
20
10.65898
30
0
10
-7.177929
20
10.514932
30
0
10
-7.39065
20
10.366521
30
0
10
-7.600304
20
10.213806
30
0
8
gear_texts
0
LWPOLYLINE
5
2017
100
AcDbEntity
100
AcDbPolyline
66
1
90
4
70
0
43
0
10
-3.925054
20
11.306812
30
0
10
-4.066344
20
10.986107
30
0
10
-4.382388
20
11.137537
30
0
10
-4.847773
20
12.320283
30
0
8
gear_texts
0
LWPOLYLINE
5
2018
100
AcDbEntity
100
AcDbPolyline
66
1
90
5
70
0
43
0
10
-4.175146
20
12.027245
30
0
10
-4.4193
20
11.939692
30
0
10
-4.661619
20
11.847184
30
0
10
-4.902003
20
11.749759
30
0
10
-5.140353
20
11.647456
30
0
8
gear_texts
0
LWPOLYLINE
5
2019
100
AcDbEntity
100
AcDbPolyline
66
1
90
6
70
0
43
0
10
-3.534718
20
11.700657
30
0
10
-3.364157
20
12.015027
30
0
10
-3.182226
20
12.327202
30
0
10
-2.930435
20
12.389472
30
0
10
-2.623968
20
12.198082
30
0
10
-2.46359
20
11.45253
30
0
8
gear_texts
0
LWPOLYLINE
5
2020
100
AcDbEntity
100
AcDbPolyline
66
1
90
2
70
0
43
0
10
-3.387693
20
11.213975
30
0
10
-3.828767
20
12.674021
30
0
8
gear_texts
0
LWPOLYLINE
5
2021
100
AcDbEntity
100
AcDbPolyline
66
1
90
2
70
0
43
0
10
-1.995018
20
11.54338
30
0
10
-2.168184
20
12.545336
30
0
8
gear_texts
0
LWPOLYLINE
5
2022
100
AcDbEntity
100
AcDbPolyline
66
1
90
2
70
0
43
0
10
-2.211476
20
12.795824
30
0
10
-2.254767
20
13.046313
30
0
8
gear_texts
0
LWPOLYLINE
5
2023
100
AcDbEntity
100
AcDbPolyline
66
1
90
2
70
0
43
0
10
-1.523134
20
11.615067
30
0
10
-1.655341
20
12.623245
30
0
8
gear_texts
0
LWPOLYLINE
5
2024
100
AcDbEntity
100
AcDbPolyline
66
1
90
5
70
0
43
0
10
-1.589238
20
12.119156
30
0
10
-1.369926
20
12.401682
30
0
10
-1.13975
20
12.680199
30
0
10
-0.881192
20
12.700786
30
0
10
-0.609843
20
12.462203
30
0
8
gear_texts
0
LWPOLYLINE
5
2025
100
AcDbEntity
100
AcDbPolyline
66
1
90
12
70
0
43
0
10
0.858426
20
11.683014
30
0
10
0.895681
20
12.190052
30
0
10
0.633699
20
11.951923
30
0
10
0.381797
20
11.708285
30
0
10
0.143196
20
11.713633
30
0
10
-0.097537
20
11.968314
30
0
10
-0.10168
20
12.476702
30
0
10
0.155625
20
12.730367
30
0
10
0.414937
20
12.724555
30
0
10
0.660617
20
12.459615
30
0
10
0.895681
20
12.190052
30
0
10
0.970191
20
13.204128
30
0
8
gear_texts
0
LWPOLYLINE
5
2026
100
AcDbEntity
100
AcDbPolyline
66
1
90
15
70
0
43
0
10
3.433359
20
11.200079
30
0
10
3.204477
20
11.267699
30
0
10
2.974266
20
11.330642
30
0
10
2.74282
20
11.388883
30
0
10
2.564707
20
11.690694
30
0
10
2.67365
20
12.187289
30
0
10
2.980894
20
12.377429
30
0
10
3.232429
20
12.314133
30
0
10
3.482623
20
12.245726
30
0
10
3.656868
20
11.929197
30
0
10
3.358855
20
10.957039
30
0
10
3.065404
20
10.778685
30
0
10
2.845184
20
10.838897
30
0
10
2.623782
20
10.89461
30
0
10
2.455763
20
11.194099
30
0
8
gear_texts
0
LWPOLYLINE
5
2027
100
AcDbEntity
100
AcDbPolyline
66
1
90
13
70
0
43
0
10
4.554511
20
10.792874
30
0
10
4.333693
20
10.883419
30
0
10
4.111076
20
10.969447
30
0
10
3.971094
20
11.290724
30
0
10
4.139777
20
11.77033
30
0
10
4.467914
20
11.921586
30
0
10
4.709854
20
11.828091
30
0
10
4.949839
20
11.729687
30
0
10
5.084188
20
11.394273
30
0
10
4.752175
20
11.261281
30
0
10
4.521773
20
11.355755
30
0
10
4.289495
20
11.445517
30
0
10
4.055435
20
11.530527
30
0
8
gear_texts
0
LWPOLYLINE
5
2028
100
AcDbEntity
100
AcDbPolyline
66
1
90
10
70
0
43
0
10
5.963226
20
10.377378
30
0
10
5.628443
20
10.273769
30
0
10
5.417977
20
10.3863
30
0
10
5.318215
20
10.722249
30
0
10
5.544121
20
11.177707
30
0
10
5.888253
20
11.287823
30
0
10
6.116987
20
11.165524
30
0
10
6.21653
20
10.818187
30
0
10
5.963226
20
10.377378
30
0
10
6.042281
20
10.035963
30
0
8
gear_texts
0
LWPOLYLINE
5
2029
100
AcDbEntity
100
AcDbPolyline
66
1
90
2
70
0
43
0
10
6.446087
20
9.781496
30
0
10
7.005602
20
10.630522
30
0
8
gear_texts
0
LWPOLYLINE
5
2030
100
AcDbEntity
100
AcDbPolyline
66
1
90
5
70
0
43
0
10
6.725845
20
10.206009
30
0
10
7.076541
20
10.276234
30
0
10
7.432829
20
10.33632
30
0
10
7.641859
20
10.182753
30
0
10
7.691024
20
9.824794
30
0
8
gear_texts
0
LWPOLYLINE
5
2031
100
AcDbEntity
100
AcDbPolyline
66
1
90
5
70
0
43
0
10
9.682126
20
7.86987
30
0
10
9.519791
20
8.065482
30
0
10
9.353505
20
8.257746
30
0
10
9.183336
20
8.446583
30
0
10
9.009356
20
8.631913
30
0
8
gear_texts
0
LWPOLYLINE
5
2032
100
AcDbEntity
100
AcDbPolyline
66
1
90
5
70
0
43
0
10
11.188979
20
5.521337
30
0
10
11.074176
20
5.748134
30
0
10
10.954776
20
5.972545
30
0
10
10.83083
20
6.194477
30
0
10
10.702388
20
6.413838
30
0
8
gear_texts
0
LWPOLYLINE
5
2033
100
AcDbEntity
100
AcDbPolyline
66
1
90
2
70
0
43
0
10
10.508402
20
5.729182
30
0
10
11.401151
20
6.215908
30
0
8
gear_texts
0
LWPOLYLINE
5
2034
100
AcDbEntity
100
AcDbPolyline
66
1
90
5
70
0
43
0
10
11.644897
20
5.746315
30
0
10
11.299796
20
5.865243
30
0
10
10.954776
20
5.972545
30
0
10
10.610168
20
6.068274
30
0
10
10.266298
20
6.152494
30
0
8
gear_texts
0
LWPOLYLINE
5
2035
100
AcDbEntity
100
AcDbPolyline
66
1
90
5
70
0
43
0
10
10.733062
20
5.296359
30
0
10
10.848556
20
5.631024
30
0
10
10.954776
20
5.972545
30
0
10
11.051492
20
6.32068
30
0
10
11.138478
20
6.675183
30
0
8
gear_texts
0
LWPOLYLINE
5
2036
100
AcDbEntity
100
AcDbPolyline
66
1
90
3
70
0
43
0
10
11.869311
20
5.267182
30
0
10
12.208555
20
5.122641
30
0
10
10.802131
20
4.532513
30
0
8
gear_texts
0
LWPOLYLINE
5
2037
100
AcDbEntity
100
AcDbPolyline
66
1
90
3
70
0
43
0
10
10.892226
20
4.311511
30
0
10
10.802131
20
4.532513
30
0
10
10.707553
20
4.751634
30
0
8
gear_texts
0
LWPOLYLINE
5
2038
100
AcDbEntity
100
AcDbPolyline
66
1
90
7
70
0
43
0
10
11.578018
20
1.783034
30
0
10
13.085462
20
2.015182
30
0
10
12.540892
20
2.193739
30
0
10
11.994687
20
2.35098
30
0
10
12.441119
20
2.70278
30
0
10
12.87799
20
3.073701
30
0
10
11.394447
20
2.719611
30
0
8
gear_texts
0
LWPOLYLINE
5
2039
100
AcDbEntity
100
AcDbPolyline
66
1
90
15
70
0
43
0
10
11.709039
20
0.357942
30
0
10
11.699317
20
0.596406
30
0
10
11.684739
20
0.834621
30
0
10
11.665311
20
1.072491
30
0
10
11.641041
20
1.309915
30
0
10
12.146257
20
1.366765
30
0
10
12.424715
20
1.142309
30
0
10
12.445408
20
0.888955
30
0
10
12.460935
20
0.635231
30
0
10
12.725374
20
0.389012
30
0
10
12.979457
20
0.396779
30
0
10
13.222553
20
0.674057
30
0
10
13.206077
20
0.943288
30
0
10
13.18412
20
1.212128
30
0
10
12.904082
20
1.452039
30
0
8
gear_texts
0
LWPOLYLINE
5
2040
100
AcDbEntity
100
AcDbPolyline
66
1
90
2
70
0
43
0
10
11.96809
20
-0.12192
30
0
10
11.713901
20
-0.119331
30
0
8
gear_texts
0
LWPOLYLINE
5
2041
100
AcDbEntity
100
AcDbPolyline
66
1
90
9
70
0
43
0
10
11.893649
20
-1.33834
30
0
10
11.665311
20
-1.072491
30
0
10
11.684739
20
-0.834621
30
0
10
11.953189
20
-0.609348
30
0
10
12.968681
20
-0.661115
30
0
10
13.206077
20
-0.943288
30
0
10
13.18412
20
-1.212128
30
0
10
12.904082
20
-1.452039
30
0
10
11.893649
20
-1.33834
30
0
8
gear_texts
0
LWPOLYLINE
5
2042
100
AcDbEntity
100
AcDbPolyline
66
1
90
15
70
0
43
0
10
11.394447
20
-2.719611
30
0
10
11.447487
20
-2.486918
30
0
10
11.495775
20
-2.253192
30
0
10
11.539291
20
-2.018532
30
0
10
11.578018
20
-1.783034
30
0
10
12.080499
20
-1.860416
30
0
10
12.290492
20
-2.149937
30
0
10
12.244143
20
-2.399874
30
0
10
12.192711
20
-2.648814
30
0
10
12.383476
20
-2.955671
30
0
10
12.630733
20
-3.014686
30
0
10
12.937935
20
-2.810711
30
0
10
12.99251
20
-2.546555
30
0
10
13.041693
20
-2.281342
30
0
10
12.834221
20
-1.976491
30
0
8
gear_texts
0
LWPOLYLINE
5
2043
100
AcDbEntity
100
AcDbPolyline
66
1
90
7
70
0
43
0
10
11.872855
20
-5.858804
30
0
10
10.505104
20
-5.18387
30
0
10
10.953834
20
-5.130516
30
0
10
11.404608
20
-5.060963
30
0
10
11.856949
20
-4.975109
30
0
10
12.31038
20
-4.872864
30
0
10
10.892226
20
-4.311511
30
0
8
gear_texts
0
LWPOLYLINE
5
2044
100
AcDbEntity
100
AcDbPolyline
66
1
90
5
70
0
43
0
10
10.644773
20
-6.98393
30
0
10
10.784841
20
-6.765624
30
0
10
10.920433
20
-6.54451
30
0
10
11.051492
20
-6.32068
30
0
10
11.177963
20
-6.094227
30
0
8
gear_texts
0
LWPOLYLINE
5
2045
100
AcDbEntity
100
AcDbPolyline
66
1
90
5
70
0
43
0
10
10.219691
20
-6.705038
30
0
10
10.354166
20
-6.49545
30
0
10
10.484343
20
-6.283166
30
0
10
10.610168
20
-6.068274
30
0
10
10.731589
20
-5.850863
30
0
8
gear_texts
0
LWPOLYLINE
5
2046
100
AcDbEntity
100
AcDbPolyline
66
1
90
3
70
0
43
0
10
10.558126
20
-7.559744
30
0
10
10.605554
20
-7.925434
30
0
10
9.383795
20
-7.012425
30
0
8
gear_texts
0
LWPOLYLINE
5
2047
100
AcDbEntity
100
AcDbPolyline
66
1
90
3
70
0
43
0
10
9.23899
20
-7.202137
30
0
10
9.383795
20
-7.012425
30
0
10
9.524705
20
-6.819802
30
0
8
gear_texts
0
LWPOLYLINE
5
2048
100
AcDbEntity
100
AcDbPolyline
66
1
90
19
70
0
43
0
10
9.353505
20
-8.257746
30
0
10
9.32584
20
-7.90116
30
0
10
9.131888
20
-7.736838
30
0
10
8.781814
20
-7.753029
30
0
10
8.622046
20
-7.930323
30
0
10
8.4587
20
-8.104327
30
0
10
8.471774
20
-8.454531
30
0
10
8.651705
20
-8.634096
30
0
10
9.009356
20
-8.631913
30
0
10
9.183336
20
-8.446583
30
0
10
9.353505
20
-8.257746
30
0
10
9.713743
20
-8.229804
30
0
10
9.907694
20
-8.394126
30
0
10
9.925196
20
-8.762463
30
0
10
9.744626
20
-8.962842
30
0
10
9.560012
20
-9.1595
30
0
10
9.191499
20
-9.172791
30
0
10
9.011567
20
-8.993226
30
0
10
9.009356
20
-8.631913
30
0
8
gear_texts
0
LWPOLYLINE
5
2049
100
AcDbEntity
100
AcDbPolyline
66
1
90
10
70
0
43
0
10
7.031528
20
-9.369489
30
0
10
6.839193
20
-9.510791
30
0
10
6.644019
20
-9.648146
30
0
10
6.446087
20
-9.781496
30
0
10
6.381006
20
-10.125849
30
0
10
6.923108
20
-10.986097
30
0
10
7.28536
20
-11.055035
30
0
10
7.509062
20
-10.904323
30
0
10
7.729647
20
-10.749085
30
0
10
7.947025
20
-10.589385
30
0
8
gear_texts
0
LWPOLYLINE
5
2050
100
AcDbEntity
100
AcDbPolyline
66
1
90
2
70
0
43
0
10
7.729647
20
-10.749085
30
0
10
6.839193
20
-9.510791
30
0
8
gear_texts
0
LWPOLYLINE
5
2051
100
AcDbEntity
100
AcDbPolyline
66
1
90
5
70
0
43
0
10
5.423548
20
-11.518316
30
0
10
5.657074
20
-11.405436
30
0
10
5.888253
20
-11.287823
30
0
10
6.116987
20
-11.165524
30
0
10
6.343183
20
-11.038591
30
0
8
gear_texts
0
LWPOLYLINE
5
2052
100
AcDbEntity
100
AcDbPolyline
66
1
90
5
70
0
43
0
10
5.206967
20
-11.05835
30
0
10
5.431168
20
-10.949978
30
0
10
5.653115
20
-10.837062
30
0
10
5.872715
20
-10.719647
30
0
10
6.089878
20
-10.597783
30
0
8
gear_texts
0
LWPOLYLINE
5
2053
100
AcDbEntity
100
AcDbPolyline
66
1
90
13
70
0
43
0
10
5.048671
20
-11.96389
30
0
10
4.897934
20
-12.300427
30
0
10
4.646333
20
-12.397656
30
0
10
4.392802
20
-12.489738
30
0
10
4.05801
20
-12.335165
30
0
10
3.978571
20
-12.093694
30
0
10
4.139777
20
-11.77033
30
0
10
3.819693
20
-11.610752
30
0
10
3.740254
20
-11.369281
30
0
10
3.886752
20
-11.050922
30
0
10
4.111076
20
-10.969447
30
0
10
4.333693
20
-10.883419
30
0
10
4.653343
20
-11.027077
30
0
8
gear_texts
0
LWPOLYLINE
5
2054
100
AcDbEntity
100
AcDbPolyline
66
1
90
2
70
0
43
0
10
4.378704
20
-11.683551
30
0
10
4.139777
20
-11.77033
30
0
8
gear_texts
0
LWPOLYLINE
5
2055
100
AcDbEntity
100
AcDbPolyline
66
1
90
14
70
0
43
0
10
3.413087
20
-12.001219
30
0
10
3.167888
20
-12.06826
30
0
10
2.921375
20
-12.130292
30
0
10
2.67365
20
-12.187289
30
0
10
2.375412
20
-11.989872
30
0
10
2.326011
20
-11.740516
30
0
10
2.510235
20
-11.442396
30
0
10
2.74282
20
-11.388883
30
0
10
2.974266
20
-11.330642
30
0
10
3.274014
20
-11.512206
30
0
10
3.482623
20
-12.245726
30
0
10
3.29697
20
-12.560005
30
0
10
3.099931
20
-12.871701
30
0
10
2.837065
20
-12.932182
30
0
8
gear_texts
0
LWPOLYLINE
5
2056
100
AcDbEntity
100
AcDbPolyline
66
1
90
2
70
0
43
0
10
1.845822
20
-11.825523
30
0
10
1.806618
20
-11.574361
30
0
8
gear_texts
0
LWPOLYLINE
5
2057
100
AcDbEntity
100
AcDbPolyline
66
1
90
13
70
0
43
0
10
1.478326
20
-12.901097
30
0
10
1.238986
20
-13.181623
30
0
10
0.970191
20
-13.204128
30
0
10
0.700995
20
-13.221153
30
0
10
0.423222
20
-12.978622
30
0
10
0.414937
20
-12.724555
30
0
10
0.660617
20
-12.459615
30
0
10
0.398367
20
-12.21642
30
0
10
0.390082
20
-11.962353
30
0
10
0.62024
20
-11.698077
30
0
10
0.858426
20
-11.683014
30
0
10
1.096255
20
-11.663101
30
0
10
1.362568
20
-11.890898
30
0
8
gear_texts
0
LWPOLYLINE
5
2058
100
AcDbEntity
100
AcDbPolyline
66
1
90
2
70
0
43
0
10
0.914309
20
-12.443571
30
0
10
0.660617
20
-12.459615
30
0
8
gear_texts
0
LWPOLYLINE
5
2059
100
AcDbEntity
100
AcDbPolyline
66
1
90
14
70
0
43
0
10
-0.10168
20
-12.476702
30
0
10
-0.355835
20
-12.472041
30
0
10
-0.609843
20
-12.462203
30
0
10
-0.863597
20
-12.447193
30
0
10
-1.094236
20
-12.173835
30
0
10
-1.071479
20
-11.920653
30
0
10
-0.810814
20
-11.686415
30
0
10
-0.572569
20
-11.700507
30
0
10
-0.334086
20
-11.709744
30
0
10
-0.097537
20
-11.968314
30
0
10
-0.103751
20
-12.730896
30
0
10
-0.370334
20
-12.980239
30
0
10
-0.647117
20
-13.223899
30
0
10
-0.916381
20
-13.207972
30
0
8
gear_texts
0
LWPOLYLINE
5
2060
100
AcDbEntity
100
AcDbPolyline
66
1
90
2
70
0
43
0
10
-1.523134
20
-11.615067
30
0
10
-1.655341
20
-12.623245
30
0
8
gear_texts
0
LWPOLYLINE
5
2061
100
AcDbEntity
100
AcDbPolyline
66
1
90
6
70
0
43
0
10
-1.62229
20
-12.3712
30
0
10
-1.912159
20
-12.586902
30
0
10
-2.124893
20
-12.294847
30
0
10
-2.423309
20
-12.498562
30
0
10
-2.623968
20
-12.198082
30
0
10
-2.46359
20
-11.45253
30
0
8
gear_texts
0
LWPOLYLINE
5
2062
100
AcDbEntity
100
AcDbPolyline
66
1
90
2
70
0
43
0
10
-2.081601
20
-12.044358
30
0
10
-2.124893
20
-12.294847
30
0
8
gear_texts
0
LWPOLYLINE
5
2063
100
AcDbEntity
100
AcDbPolyline
66
1
90
2
70
0
43
0
10
-2.928072
20
-11.342667
30
0
10
-3.182226
20
-12.327202
30
0
8
gear_texts
0
LWPOLYLINE
5
2064
100
AcDbEntity
100
AcDbPolyline
66
1
90
6
70
0
43
0
10
-3.118688
20
-12.081068
30
0
10
-3.432697
20
-12.259815
30
0
10
-3.60823
20
-11.943998
30
0
10
-3.92926
20
-12.109805
30
0
10
-4.091782
20
-11.7871
30
0
10
-3.841691
20
-11.066667
30
0
8
gear_texts
0
LWPOLYLINE
5
2065
100
AcDbEntity
100
AcDbPolyline
66
1
90
2
70
0
43
0
10
-3.534718
20
-11.700657
30
0
10
-3.60823
20
-11.943998
30
0
8
gear_texts
0
LWPOLYLINE
5
2066
100
AcDbEntity
100
AcDbPolyline
66
1
90
11
70
0
43
0
10
-5.72556
20
-11.085864
30
0
10
-5.950214
20
-10.966922
30
0
10
-6.172398
20
-10.843428
30
0
10
-6.39202
20
-10.715433
30
0
10
-6.743638
20
-10.798603
30
0
10
-6.878286
20
-11.014215
30
0
10
-6.782704
20
-11.370365
30
0
10
-6.549658
20
-11.506183
30
0
10
-6.313894
20
-11.637225
30
0
10
-6.075509
20
-11.763437
30
0
10
-5.375611
20
-10.408291
30
0
8
gear_texts
0
LWPOLYLINE
5
2067
100
AcDbEntity
100
AcDbPolyline
66
1
90
7
70
0
43
0
10
-6.604651
20
-9.675138
30
0
10
-6.89129
20
-10.095035
30
0
10
-7.39065
20
-10.366521
30
0
10
-7.90381
20
-10.621678
30
0
10
-7.806803
20
-10.056853
30
0
10
-7.690193
20
-9.500555
30
0
10
-7.370324
20
-9.105385
30
0
8
gear_texts
0
LWPOLYLINE
5
2068
100
AcDbEntity
100
AcDbPolyline
66
1
90
5
70
0
43
0
10
-6.89129
20
-10.095035
30
0
10
-7.095517
20
-9.95255
30
0
10
-7.296798
20
-9.805934
30
0
10
-7.495051
20
-9.655248
30
0
10
-7.690193
20
-9.500555
30
0
8
gear_texts
0
LWPOLYLINE
5
2069
100
AcDbEntity
100
AcDbPolyline
66
1
90
5
70
0
43
0
10
-9.156943
20
-8.845161
30
0
10
-8.974848
20
-9.029871
30
0
10
-8.789028
20
-9.210833
30
0
10
-8.59956
20
-9.387973
30
0
10
-8.406523
20
-9.561215
30
0
8
gear_texts
0
LWPOLYLINE
5
2070
100
AcDbEntity
100
AcDbPolyline
66
1
90
5
70
0
43
0
10
-8.791275
20
-8.491943
30
0
10
-8.616452
20
-8.669277
30
0
10
-8.438052
20
-8.843013
30
0
10
-8.256151
20
-9.013079
30
0
10
-8.070822
20
-9.179403
30
0
8
gear_texts
0
LWPOLYLINE
5
2071
100
AcDbEntity
100
AcDbPolyline
66
1
90
15
70
0
43
0
10
-9.355144
20
-7.050603
30
0
10
-9.209567
20
-7.239723
30
0
10
-9.060167
20
-7.425839
30
0
10
-8.907007
20
-7.608872
30
0
10
-8.75015
20
-7.788747
30
0
10
-9.129903
20
-8.126776
30
0
10
-9.486848
20
-8.104205
30
0
10
-9.649979
20
-7.909256
30
0
10
-9.809104
20
-7.711025
30
0
10
-10.167163
20
-7.662589
30
0
10
-10.370167
20
-7.815586
30
0
10
-10.408641
20
-8.182326
30
0
10
-10.23979
20
-8.392674
30
0
10
-10.066689
20
-8.599538
30
0
10
-9.699532
20
-8.633818
30
0
8
gear_texts
0
LWPOLYLINE
5
2072
100
AcDbEntity
100
AcDbPolyline
66
1
90
9
70
0
43
0
10
-10.241143
20
-6.194274
30
0
10
-9.898042
20
-6.265659
30
0
10
-9.768343
20
-6.466002
30
0
10
-9.843658
20
-6.808262
30
0
10
-10.679933
20
-7.386662
30
0
10
-11.040169
20
-7.307868
30
0
10
-11.186755
20
-7.08144
30
0
10
-11.111186
20
-6.720513
30
0
10
-10.241143
20
-6.194274
30
0
8
gear_texts
0
ENDSEC
0
SECTION
2
OBJECTS
0
DICTIONARY
5
21D
330
0
100
AcDbDictionary
281
1
3
ACAD_CIP_PREVIOUS_PRODUCT_INFO
350
291
3
ACAD_COLOR
350
273
3
ACAD_DETAILVIEWSTYLE
350
27B
3
ACAD_GROUP
350
21E
3
ACAD_LAYOUT
350
272
3
ACAD_MATERIAL
350
221
3
ACAD_MLEADERSTYLE
350
276
3
ACAD_MLINESTYLE
350
26F
3
ACAD_PLOTSETTINGS
350
271
3
ACAD_PLOTSTYLENAME
350
21F
3
ACAD_SCALELIST
350
253
3
ACAD_SECTIONVIEWSTYLE
350
278
3
ACAD_TABLESTYLE
350
274
3
ACAD_VISUALSTYLE
350
23A
3
ACDB_RECOMPOSE_DATA
350
1057
3
AcDbVariableDictionary
350
29D
0
DICTIONARY
5
297
330
213
100
AcDbDictionary
280
1
281
1
3
ACAD_LAYERSTATES
360
298
0
DICTIONARY
5
292
330
265
100
AcDbDictionary
280
1
281
1
3
ADSK_XREC_LAYER_RECONCILED
360
293
0
XRECORD
5
291
102
{ACAD_REACTORS
330
21D
102
}
330
21D
100
AcDbXrecord
280
1
300
ACDMAC
300
2013
300
ACDMAC_F_S
0
DICTIONARY
5
273
102
{ACAD_REACTORS
330
21D
102
}
330
21D
100
AcDbDictionary
281
1
0
DICTIONARY
5
21E
102
{ACAD_REACTORS
330
21D
102
}
330
21D
100
AcDbDictionary
281
1
0
DICTIONARY
5
272
102
{ACAD_REACTORS
330
21D
102
}
330
21D
100
AcDbDictionary
281
1
3
Layout1
350
280
3
Model
350
284
0
DICTIONARY
5
221
102
{ACAD_REACTORS
330
21D
102
}
330
21D
100
AcDbDictionary
281
1
3
ByBlock
350
22A
3
ByLayer
350
222
3
Global
350
232
0
DICTIONARY
5
276
102
{ACAD_REACTORS
330
21D
102
}
330
21D
100
AcDbDictionary
281
1
3
Standard
350
277
0
DICTIONARY
5
26F
102
{ACAD_REACTORS
330
21D
102
}
330
21D
100
AcDbDictionary
281
1
3
Standard
350
270
0
DICTIONARY
5
271
102
{ACAD_REACTORS
330
21D
102
}
330
21D
100
AcDbDictionary
281
1
0
ACDBDICTIONARYWDFLT
5
21F
102
{ACAD_REACTORS
330
21D
102
}
330
21D
100
AcDbDictionary
281
1
3
Normal
350
220
100
AcDbDictionaryWithDefault
340
220
0
DICTIONARY
5
253
102
{ACAD_REACTORS
330
21D
102
}
330
21D
100
AcDbDictionary
281
1
3
A0
350
254
3
A1
350
255
3
A2
350
256
3
A3
350
257
3
A4
350
258
3
A5
350
259
3
A6
350
25A
3
A7
350
25B
3
A8
350
25C
3
A9
350
25D
3
B0
350
25E
3
B1
350
25F
3
B2
350
260
3
B3
350
261
3
B4
350
262
3
B5
350
263
3
B6
350
264
0
DICTIONARY
5
274
102
{ACAD_REACTORS
330
21D
102
}
330
21D
100
AcDbDictionary
281
1
3
Standard
350
275
0
DICTIONARY
5
23A
102
{ACAD_REACTORS
330
21D
102
}
330
21D
100
AcDbDictionary
281
1
3
2dWireframe
350
240
3
Basic
350
23F
3
Brighten
350
246
3
ColorChange
350
24A
3
Conceptual
350
243
3
Dim
350
245
3
EdgeColorOff
350
252
3
Facepattern
350
249
3
Flat
350
23B
3
FlatWithEdges
350
23C
3
Gouraud
350
23D
3
GouraudWithEdges
350
23E
3
Hidden
350
242
3
JitterOff
350
250
3
Linepattern
350
248
3
OverhangOff
350
251
3
Realistic
350
244
3
Shaded
350
24F
3
Shaded with edges
350
24E
3
Shades of Gray
350
24B
3
Sketchy
350
24C
3
Thicken
350
247
3
Wireframe
350
241
3
X-Ray
350
24D
0
XRECORD
5
1057
102
{ACAD_REACTORS
330
21D
102
}
330
21D
100
AcDbXrecord
280
1
90
1
330
275
0
DICTIONARY
5
29D
102
{ACAD_REACTORS
330
21D
102
}
330
21D
100
AcDbDictionary
281
1
3
CANNOSCALE
350
2A3
3
CMLEADERSTYLE
350
29F
3
CTABLESTYLE
350
29E
3
CVIEWDETAILSTYLE
350
2A0
3
CVIEWSECTIONSTYLE
350
2A1
3
LAYEREVAL
350
2A5
3
LAYERNOTIFY
350
2A6
3
LIGHTINGUNITS
350
2A4
3
MSLTSCALE
350
2A2
0
ENDSEC
0
EOF
