0
SECTION
2
HEADER
9
$ACADVER
1
AC1027
9
$ACADMAINTVER
70
8
9
$DWGCODEPAGE
3
ANSI_1252
9
$LASTSAVEDBY
1
macc
9
$REQUIREDVERSIONS
160
0
9
$INSBASE
10
0.0
20
0.0
30
0.0
9
$EXTMIN
10
1.000000000000000E+20
20
1.000000000000000E+20
30
1.000000000000000E+20
9
$EXTMAX
10
-1.000000000000000E+20
20
-1.000000000000000E+20
30
-1.000000000000000E+20
9
$LIMMIN
10
0.0
20
0.0
9
$LIMMAX
10
12.0
20
9.0
9
$MEASUREMENT
70
1
9
$CELWEIGHT
370
-1
9
$ENDCAPS
280
0
9
$JOINSTYLE
280
0
9
$LWDISPLAY
290
0
9
$INSUNITS
70
0
9
$HYPERLINKBASE
1

9
$STYLESHEET
1

9
$XEDIT
290
1
9
$CEPSNTYPE
380
0
9
$PSTYLEMODE
290
1
9
$EXTNAMES
290
1
9
$PSVPSCALE
40
0.0
9
$OLESTARTUP
290
0
9
$SORTENTS
280
127
9
$INDEXCTL
280
0
9
$HIDETEXT
280
0
9
$XCLIPFRAME
280
2
9
$HALOGAP
280
0
9
$OBSCOLOR
70
257
9
$OBSLTYPE
280
0
9
$INTERSECTIONDISPLAY
280
0
9
$INTERSECTIONCOLOR
70
257
9
$DIMASSOC
280
1
9
$PROJECTNAME
1

9
$CAMERADISPLAY
290
0
9
$LENSLENGTH
40
50.0
9
$CAMERAHEIGHT
40
0.0
9
$STEPSPERSEC
40
2.0
9
$STEPSIZE
40
6.0
9
$3DDWFPREC
40
2.0
9
$PSOLWIDTH
40
0.25
9
$PSOLHEIGHT
40
4.0
9
$LOFTANG1
40
1.570796326794896
9
$LOFTANG2
40
1.570796326794896
9
$LOFTMAG1
40
0.0
9
$LOFTMAG2
40
0.0
9
$LOFTPARAM
70
7
9
$LOFTNORMALS
280
1
9
$LATITUDE
40
37.795
9
$LONGITUDE
40
-122.394
9
$NORTHDIRECTION
40
0.0
9
$TIMEZONE
70
-8000
9
$LIGHTGLYPHDISPLAY
280
1
9
$TILEMODELIGHTSYNCH
280
1
9
$CMATERIAL
347
222
9
$SOLIDHIST
280
0
9
$SHOWHIST
280
1
9
$DWFFRAME
280
2
9
$DGNFRAME
280
0
9
$REALWORLDSCALE
290
1
9
$INTERFERECOLOR
62
1
9
$INTERFEREOBJVS
345
244
9
$INTERFEREVPVS
346
241
9
$CSHADOW
280
0
9
$SHADOWPLANELOCATION
40
0.0
0
ENDSEC
0
SECTION
2
CLASSES
0
CLASS
1
ACDBDICTIONARYWDFLT
2
AcDbDictionaryWithDefault
3
ObjectDBX Classes
90
0
91
1
280
0
281
0
0
CLASS
1
MATERIAL
2
AcDbMaterial
3
ObjectDBX Classes
90
1153
91
3
280
0
281
0
0
CLASS
1
VISUALSTYLE
2
AcDbVisualStyle
3
ObjectDBX Classes
90
4095
91
24
280
0
281
0
0
CLASS
1
SCALE
2
AcDbScale
3
ObjectDBX Classes
90
1153
91
17
280
0
281
0
0
CLASS
1
TABLESTYLE
2
AcDbTableStyle
3
ObjectDBX Classes
90
4095
91
1
280
0
281
0
0
CLASS
1
MLEADERSTYLE
2
AcDbMLeaderStyle
3
ACDB_MLEADERSTYLE_CLASS
90
4095
91
1
280
0
281
0
0
CLASS
1
ACDBSECTIONVIEWSTYLE
2
AcDbSectionViewStyle
3
ObjectDBX Classes
90
1025
91
1
280
0
281
0
0
CLASS
1
ACDBDETAILVIEWSTYLE
2
AcDbDetailViewStyle
3
ObjectDBX Classes
90
1025
91
1
280
0
281
0
0
CLASS
1
DICTIONARYVAR
2
AcDbDictionaryVar
3
ObjectDBX Classes
90
0
91
9
280
0
281
0
0
CLASS
1
CELLSTYLEMAP
2
AcDbCellStyleMap
3
ObjectDBX Classes
90
1152
91
2
280
0
281
0
0
ENDSEC
0
SECTION
2
TABLES
0
TABLE
2
VPORT
5
219
330
0
100
AcDbSymbolTable
70
1
0
VPORT
5
285
330
219
100
AcDbSymbolTableRecord
100
AcDbViewportTableRecord
2
*ACTIVE
70
0
10
0.0
20
0.0
11
1.0
21
1.0
12
60.85393284500712
22
1.602311788490737
13
0.0
23
0.0
14
0.5
24
0.5
15
0.5
25
0.5
16
0.0
26
0.0
36
1.0
17
0.0
27
0.0
37
0.0
40
135.7601553851812
41
1.367970660146699
42
50.0
43
0.0
44
0.0
50
0.0
51
0.0
71
0
72
1000
73
1
74
3
75
0
76
1
77
0
78
0
281
0
65
1
110
0.0
120
0.0
130
0.0
111
1.0
121
0.0
131
0.0
112
0.0
122
1.0
132
0.0
79
0
146
0.0
348
240
60
3
61
5
292
1
282
0
141
0.0
142
0.0
63
250
421
3355443
1001
ACAD_NAV_VCDISPLAY
1070
3
0
ENDTAB
0
TABLE
2
LTYPE
5
216
330
0
100
AcDbSymbolTable
70
2
0
LTYPE
5
26B
330
216
100
AcDbSymbolTableRecord
100
AcDbLinetypeTableRecord
2
ByBlock
70
0
3

72
65
73
0
40
0.0
0
LTYPE
5
26C
330
216
100
AcDbSymbolTableRecord
100
AcDbLinetypeTableRecord
2
ByLayer
70
0
3

72
65
73
0
40
0.0
0
LTYPE
5
26D
330
216
100
AcDbSymbolTableRecord
100
AcDbLinetypeTableRecord
2
CONTINUOUS
70
0
3
Solid line
72
65
73
0
40
0.0
0
LTYPE
5
103D
330
216
100
AcDbSymbolTableRecord
100
AcDbLinetypeTableRecord
2
DOTTED
70
0
3
Dotted . . . . . . . . . . . . . . . . . . . .
72
65
73
2
40
3.0
49
0.0
74
0
49
-3.0
74
0
0
ENDTAB
0
TABLE
2
LAYER
5
213
102
{ACAD_XDICTIONARY
360
297
102
}
330
0
100
AcDbSymbolTable
70
4
0
LAYER
5
265
102
{ACAD_XDICTIONARY
360
292
102
}
330
213
100
AcDbSymbolTableRecord
100
AcDbLayerTableRecord
2
0
70
0
62
7
6
CONTINUOUS
370
-3
390
220
347
232
348
0
0
LAYER
5
1900
330
213
100
AcDbSymbolTableRecord
100
AcDbLayerTableRecord
2
gear
70
0
62
7
6
CONTINUOUS
370
-3
390
220
347
232
348
0
1001
AcAecLayerStandard
1000

1000

1001
AcCmTransparency
1071
0
0
LAYER
5
1901
330
213
100
AcDbSymbolTableRecord
100
AcDbLayerTableRecord
2
gear_guides
70
0
62
5
6
CONTINUOUS
370
-3
390
220
347
232
348
0
1001
AcAecLayerStandard
1000

1000

1001
AcCmTransparency
1071
0
0
LAYER
5
1902
330
213
100
AcDbSymbolTableRecord
100
AcDbLayerTableRecord
2
gear_texts
70
0
62
7
6
CONTINUOUS
370
-3
390
220
347
232
348
0
1001
AcAecLayerStandard
1000

1000

1001
AcCmTransparency
1071
0
0
ENDTAB
0
TABLE
2
STYLE
5
214
330
0
100
AcDbSymbolTable
70
3
0
STYLE
5
266
330
214
100
AcDbSymbolTableRecord
100
AcDbTextStyleTableRecord
2
STANDARD
70
0
40
0.0
41
1.0
50
0.0
71
0
42
0.2
3
txt
4

0
STYLE
5
26A
330
214
100
AcDbSymbolTableRecord
100
AcDbTextStyleTableRecord
2
ANNOTATIVE
70
0
40
0.0
41
1.0
50
0.0
71
0
42
0.2
3
txt
4

1001
ACADANNOTATIVE
1000
AnnotativeData
1002
{
1070
1
1070
1
1002
}
0
STYLE
5
301
330
214
100
AcDbSymbolTableRecord
100
AcDbTextStyleTableRecord
2

70
1
40
0.0
41
1.0
50
0.0
71
0
42
0.2
3
ltypeshp.shx
4

0
ENDTAB
0
TABLE
2
VIEW
5
217
330
0
100
AcDbSymbolTable
70
1
0
ENDTAB
0
TABLE
2
UCS
5
218
330
0
100
AcDbSymbolTable
70
0
0
ENDTAB
0
TABLE
2
APPID
5
21A
330
0
100
AcDbSymbolTable
70
10
0
APPID
5
267
330
21A
100
AcDbSymbolTableRecord
100
AcDbRegAppTableRecord
2
ACAD
70
0
0
APPID
5
26E
330
21A
100
AcDbSymbolTableRecord
100
AcDbRegAppTableRecord
2
ACADANNOTATIVE
70
0
0
APPID
5
286
330
21A
100
AcDbSymbolTableRecord
100
AcDbRegAppTableRecord
2
ACADANNOPO
70
0
0
APPID
5
287
330
21A
100
AcDbSymbolTableRecord
100
AcDbRegAppTableRecord
2
ACAD_DSTYLE_DIMJAG
70
0
0
APPID
5
288
330
21A
100
AcDbSymbolTableRecord
100
AcDbRegAppTableRecord
2
ACAD_DSTYLE_DIMTALN
70
0
0
APPID
5
289
330
21A
100
AcDbSymbolTableRecord
100
AcDbRegAppTableRecord
2
ACAD_MLEADERVER
70
0
0
APPID
5
28A
330
21A
100
AcDbSymbolTableRecord
100
AcDbRegAppTableRecord
2
ACAD_NAV_VCDISPLAY
70
0
0
APPID
5
2E7
330
21A
100
AcDbSymbolTableRecord
100
AcDbRegAppTableRecord
2
ACAD_EXEMPT_FROM_CAD_STANDARDS
70
0
0
APPID
5
2FC
330
21A
100
AcDbSymbolTableRecord
100
AcDbRegAppTableRecord
2
AcAecLayerStandard
70
0
0
APPID
5
2FD
330
21A
100
AcDbSymbolTableRecord
100
AcDbRegAppTableRecord
2
AcCmTransparency
70
0
0
ENDTAB
0
TABLE
2
DIMSTYLE
5
21B
330
0
100
AcDbSymbolTable
70
2
100
AcDbDimStyleTable
71
1
340
268
0
DIMSTYLE
105
268
330
21B
100
AcDbSymbolTableRecord
100
AcDbDimStyleTableRecord
2
STANDARD
70
0
279
2
340
266
0
DIMSTYLE
105
269
330
21B
100
AcDbSymbolTableRecord
100
AcDbDimStyleTableRecord
2
ANNOTATIVE
70
0
40
0.0
279
2
340
266
1001
ACADANNOTATIVE
1000
AnnotativeData
1002
{
1070
1
1070
1
1002
}
0
ENDTAB
0
TABLE
2
BLOCK_RECORD
5
212
330
0
100
AcDbSymbolTable
70
2
0
BLOCK_RECORD
5
281
330
212
100
AcDbSymbolTableRecord
100
AcDbBlockTableRecord
2
*Model_Space
340
284
70
0
280
1
281
0
0
BLOCK_RECORD
5
27D
330
212
100
AcDbSymbolTableRecord
100
AcDbBlockTableRecord
2
*Paper_Space
340
280
70
0
280
1
281
0
0
BLOCK_RECORD
5
28C
330
212
100
AcDbSymbolTableRecord
100
AcDbBlockTableRecord
2
$MODEL_SPACE
340
0
70
0
280
1
281
0
0
BLOCK_RECORD
5
28E
330
212
100
AcDbSymbolTableRecord
100
AcDbBlockTableRecord
2
$PAPER_SPACE
340
0
70
0
280
1
281
0
0
ENDTAB
0
ENDSEC
0
SECTION
2
BLOCKS
0
BLOCK
5
282
330
281
100
AcDbEntity
8
0
100
AcDbBlockBegin
2
*Model_Space
70
0
10
0.0
20
0.0
30
0.0
3
*Model_Space
1

0
ENDBLK
5
283
330
281
100
AcDbEntity
8
0
100
AcDbBlockEnd
0
BLOCK
5
27E
330
27D
100
AcDbEntity
67
1
8
0
100
AcDbBlockBegin
2
*Paper_Space
70
0
10
0.0
20
0.0
30
0.0
3
*Paper_Space
1

0
ENDBLK
5
27F
330
27D
100
AcDbEntity
67
1
8
0
100
AcDbBlockEnd
0
BLOCK
5
28D
330
28C
100
AcDbEntity
8
0
100
AcDbBlockBegin
2
$MODEL_SPACE
70
0
10
0.0
20
0.0
30
0.0
3
$MODEL_SPACE
1

0
ENDBLK
5
21
330
28C
100
AcDbEntity
8
0
100
AcDbBlockEnd
0
BLOCK
5
28F
330
28E
100
AcDbEntity
8
0
100
AcDbBlockBegin
2
$PAPER_SPACE
70
0
10
0.0
20
0.0
30
0.0
3
$PAPER_SPACE
1

0
ENDBLK
5
5B
330
28E
100
AcDbEntity
8
0
100
AcDbBlockEnd
0
ENDSEC
0
SECTION
2
ENTITIES
0
LWPOLYLINE
5
2000
100
AcDbEntity
100
AcDbPolyline
66
1
90
1300
70
1
43
0
10
22.927
20
0
30
0
10
23.730852
20
0.000042
30
0
10
23.751656
20
0.000739
30
0
10
23.790902
20
0.003114
30
0
10
23.848498
20
0.008196
30
0
10
23.924309
20
0.017011
30
0
10
24.018159
20
0.030578
30
0
10
24.129825
20
0.04991
30
0
10
24.259045
20
0.076009
30
0
10
24.405514
20
0.109869
30
0
10
24.568886
20
0.152468
30
0
10
24.748772
20
0.204775
30
0
10
24.944744
20
0.26774
30
0
10
25.156334
20
0.342298
30
0
10
25.383033
20
0.429366
30
0
10
25.624294
20
0.52984
30
0
10
25.879532
20
0.644595
30
0
10
26.148124
20
0.774486
30
0
10
26.429411
20
0.92034
30
0
10
26.722699
20
1.082961
30
0
10
27.027258
20
1.263127
30
0
10
27.183526
20
1.360024
30
0
10
27.222993
20
1.384973
30
0
10
27.232884
20
1.391256
30
0
10
27.234121
20
1.392043
30
0
10
27.234428
20
1.392421
30
0
10
27.128839
20
2.771103
30
0
10
27.128478
20
2.771429
30
0
10
27.127135
20
2.772018
30
0
10
27.116403
20
2.776722
30
0
10
27.073598
20
2.79537
30
0
10
26.904396
20
2.86734
30
0
10
26.575953
20
2.999026
30
0
10
26.261322
20
3.115089
30
0
10
25.961104
20
3.216407
30
0
10
25.675865
20
3.303881
30
0
10
25.406128
20
3.378431
30
0
10
25.152381
20
3.440993
30
0
10
24.915067
20
3.492524
30
0
10
24.694592
20
3.533991
30
0
10
24.491317
20
3.566379
30
0
10
24.305563
20
3.590682
30
0
10
24.13761
20
3.607907
30
0
10
23.987692
20
3.619067
30
0
10
23.856005
20
3.625184
30
0
10
23.742697
20
3.627285
30
0
10
23.647877
20
3.626403
30
0
10
23.571607
20
3.623571
30
0
10
23.513909
20
3.619823
30
0
10
23.474759
20
3.616194
30
0
10
23.454092
20
3.613714
30
0
10
22.659608
20
3.491345
30
0
10
22.206706
20
5.701713
30
0
10
22.985293
20
5.901664
30
0
10
23.00527
20
5.907512
30
0
10
23.042692
20
5.919572
30
0
10
23.097215
20
5.938819
30
0
10
23.168453
20
5.96621
30
0
10
23.255979
20
6.002691
30
0
10
23.35933
20
6.049185
30
0
10
23.478
20
6.106601
30
0
10
23.611447
20
6.175821
30
0
10
23.759092
20
6.257712
30
0
10
23.920318
20
6.353111
30
0
10
24.094475
20
6.462834
30
0
10
24.280875
20
6.58767
30
0
10
24.478799
20
6.72838
30
0
10
24.687494
20
6.885696
30
0
10
24.906174
20
7.060322
30
0
10
25.134026
20
7.252928
30
0
10
25.370204
20
7.464153
30
0
10
25.613835
20
7.694603
30
0
10
25.86402
20
7.944849
30
0
10
25.991282
20
8.077564
30
0
10
26.023303
20
8.111545
30
0
10
26.031321
20
8.12009
30
0
10
26.032324
20
8.12116
30
0
10
26.032527
20
8.121602
30
0
10
25.587391
20
9.430711
30
0
10
25.58696
20
9.430937
30
0
10
25.585514
20
9.431174
30
0
10
25.573949
20
9.433061
30
0
10
25.52785
20
9.440478
30
0
10
25.346066
20
9.468109
30
0
10
24.995193
20
9.513977
30
0
10
24.661583
20
9.548148
30
0
10
24.3456
20
9.571622
30
0
10
24.047568
20
9.585412
30
0
10
23.767767
20
9.590538
30
0
10
23.506432
20
9.588031
30
0
10
23.263759
20
9.578925
30
0
10
23.039898
20
9.564259
30
0
10
22.834954
20
9.545077
30
0
10
22.648993
20
9.522422
30
0
10
22.482032
20
9.497337
30
0
10
22.33405
20
9.470864
30
0
10
22.204978
20
9.444039
30
0
10
22.094708
20
9.417896
30
0
10
22.003085
20
9.393461
30
0
10
21.929916
20
9.37175
30
0
10
21.874962
20
9.353771
30
0
10
21.837945
20
9.340519
30
0
10
21.818544
20
9.332978
30
0
10
21.079453
20
9.016873
30
0
10
20.091083
20
11.045166
30
0
10
20.795484
20
11.432462
30
0
10
20.813379
20
11.443095
30
0
10
20.846626
20
11.464083
30
0
10
20.89465
20
11.496284
30
0
10
20.956837
20
11.540531
30
0
10
21.032542
20
11.597632
30
0
10
21.121082
20
11.668368
30
0
10
21.221745
20
11.753492
30
0
10
21.333785
20
11.853725
30
0
10
21.456427
20
11.96976
30
0
10
21.588863
20
12.102257
30
0
10
21.730261
20
12.251844
30
0
10
21.87976
20
12.419114
30
0
10
22.036473
20
12.604625
30
0
10
22.199488
20
12.8089
30
0
10
22.36787
20
13.032423
30
0
10
22.540664
20
13.275642
30
0
10
22.716893
20
13.538966
30
0
10
22.895559
20
13.822765
30
0
10
23.075651
20
14.127367
30
0
10
23.165909
20
14.287562
30
0
10
23.188474
20
14.328438
30
0
10
23.194115
20
14.338709
30
0
10
23.19482
20
14.339994
30
0
10
23.194907
20
14.340473
30
0
10
22.438194
20
15.497753
30
0
10
22.43772
20
15.497865
30
0
10
22.43626
20
15.497735
30
0
10
22.424589
20
15.496686
30
0
10
22.378094
20
15.492407
30
0
10
22.19515
20
15.473961
30
0
10
21.843894
20
15.43113
30
0
10
21.512266
20
15.381261
30
0
10
21.200373
20
15.325416
30
0
10
20.908275
20
15.264655
30
0
10
20.635989
20
15.200037
30
0
10
20.383488
20
15.132617
30
0
10
20.150704
20
15.063447
30
0
10
19.937522
20
14.99357
30
0
10
19.743788
20
14.924023
30
0
10
19.569303
20
14.855833
30
0
10
19.413826
20
14.790015
30
0
10
19.277077
20
14.727571
30
0
10
19.158731
20
14.669491
30
0
10
19.058426
20
14.616746
30
0
10
18.975759
20
14.570293
30
0
10
18.910288
20
14.531067
30
0
10
18.861532
20
14.499987
30
0
10
18.828973
20
14.477946
30
0
10
18.812057
20
14.465817
30
0
10
18.174798
20
13.975838
30
0
10
16.713064
20
15.694611
30
0
10
17.299018
20
16.244917
30
0
10
17.313706
20
16.259666
30
0
10
17.340689
20
16.288263
30
0
10
17.379196
20
16.331395
30
0
10
17.428426
20
16.389717
30
0
10
17.487552
20
16.463852
30
0
10
17.555719
20
16.554385
30
0
10
17.632051
20
16.661867
30
0
10
17.715644
20
16.786815
30
0
10
17.805575
20
16.929704
30
0
10
17.9009
20
17.090975
30
0
10
18.000655
20
17.271026
30
0
10
18.103859
20
17.47022
30
0
10
18.209513
20
17.688876
30
0
10
18.316606
20
17.927272
30
0
10
18.424111
20
18.185648
30
0
10
18.53099
20
18.464198
30
0
10
18.636196
20
18.763076
30
0
10
18.738671
20
19.082391
30
0
10
18.837353
20
19.422211
30
0
10
18.884938
20
19.599819
30
0
10
18.896628
20
19.645023
30
0
10
18.899537
20
19.656374
30
0
10
18.899901
20
19.657794
30
0
10
18.899866
20
19.65828
30
0
10
17.879122
20
20.591015
30
0
10
17.878636
20
20.591006
30
0
10
17.877254
20
20.590516
30
0
10
17.86621
20
20.586598
30
0
10
17.822241
20
20.57089
30
0
10
17.649631
20
20.507528
30
0
10
17.320062
20
20.378688
30
0
10
17.011255
20
20.247914
30
0
10
16.723048
20
20.116259
30
0
10
16.455237
20
19.984765
30
0
10
16.207576
20
19.854462
30
0
10
15.979775
20
19.726366
30
0
10
15.771505
20
19.601477
30
0
10
15.582399
20
19.48078
30
0
10
15.412047
20
19.365238
30
0
10
15.260002
20
19.255798
30
0
10
15.125778
20
19.153382
30
0
10
15.008854
20
19.058891
30
0
10
14.90867
20
18.973204
30
0
10
14.824634
20
18.897172
30
0
10
14.756116
20
18.83162
30
0
10
14.702457
20
18.777345
30
0
10
14.662962
20
18.735115
30
0
10
14.636908
20
18.70567
30
0
10
14.623539
20
18.689715
30
0
10
14.128154
20
18.05665
30
0
10
12.284901
20
19.357906
30
0
10
12.715591
20
20.036644
30
0
10
12.72615
20
20.054582
30
0
10
12.745174
20
20.088991
30
0
10
12.771744
20
20.140344
30
0
10
12.804923
20
20.209077
30
0
10
12.843755
20
20.295587
30
0
10
12.887266
20
20.400228
30
0
10
12.934469
20
20.523317
30
0
10
12.984363
20
20.665128
30
0
10
13.035934
20
20.825893
30
0
10
13.088158
20
21.005803
30
0
10
13.140002
20
21.205006
30
0
10
13.190426
20
21.423608
30
0
10
13.238384
20
21.661669
30
0
10
13.282825
20
21.919209
30
0
10
13.322697
20
22.196203
30
0
10
13.356946
20
22.492581
30
0
10
13.384518
20
22.808233
30
0
10
13.404364
20
23.143001
30
0
10
13.415436
20
23.496686
30
0
10
13.417356
20
23.680548
30
0
10
13.417437
20
23.727239
30
0
10
13.417432
20
23.738957
30
0
10
13.417431
20
23.740423
30
0
10
13.417277
20
23.740884
30
0
10
12.196639
20
24.390467
30
0
10
12.19617
20
24.390337
30
0
10
12.194954
20
24.389519
30
0
10
12.185232
20
24.382978
30
0
10
12.14655
20
24.356829
30
0
10
11.995121
20
24.252531
30
0
10
11.707946
20
24.045778
30
0
10
11.441363
20
23.842316
30
0
10
11.194953
20
23.643122
30
0
10
10.968257
20
23.449158
30
0
10
10.760781
20
23.261357
30
0
10
10.571993
20
23.080634
30
0
10
10.401325
20
22.907875
30
0
10
10.248176
20
22.74394
30
0
10
10.11191
20
22.589664
30
0
10
9.991859
20
22.445849
30
0
10
9.887322
20
22.313271
30
0
10
9.797569
20
22.192671
30
0
10
9.721843
20
22.084762
30
0
10
9.659355
20
21.990219
30
0
10
9.609293
20
21.909687
30
0
10
9.570817
20
21.843772
30
0
10
9.543065
20
21.793048
30
0
10
9.525152
20
21.758048
30
0
10
9.516171
20
21.73927
30
0
10
9.193786
20
21.002896
30
0
10
7.084833
20
21.804873
30
0
10
7.333197
20
22.569395
30
0
10
7.338963
20
22.589395
30
0
10
7.348832
20
22.627454
30
0
10
7.361796
20
22.683802
30
0
10
7.37684
20
22.758627
30
0
10
7.392937
20
22.852075
30
0
10
7.409059
20
22.96425
30
0
10
7.424168
20
23.095211
30
0
10
7.437227
20
23.244974
30
0
10
7.447197
20
23.413514
30
0
10
7.453039
20
23.60076
30
0
10
7.453714
20
23.806598
30
0
10
7.44819
20
24.030871
30
0
10
7.435437
20
24.27338
30
0
10
7.414435
20
24.533881
30
0
10
7.384169
20
24.812088
30
0
10
7.343635
20
25.107673
30
0
10
7.291842
20
25.420264
30
0
10
7.227811
20
25.749451
30
0
10
7.150577
20
26.094777
30
0
10
7.106712
20
26.27334
30
0
10
7.09518
20
26.318585
30
0
10
7.092261
20
26.329933
30
0
10
7.091895
20
26.331353
30
0
10
7.09163
20
26.331762
30
0
10
5.747797
20
26.657377
30
0
10
5.747375
20
26.657134
30
0
10
5.7464
20
26.656039
30
0
10
5.73861
20
26.647286
30
0
10
5.707647
20
26.612338
30
0
10
5.586913
20
26.473658
30
0
10
5.360178
20
26.201984
30
0
10
5.152569
20
25.938617
30
0
10
4.963437
20
25.684402
30
0
10
4.792101
20
25.440154
30
0
10
4.637847
20
25.206656
30
0
10
4.499934
20
24.984661
30
0
10
4.377592
20
24.774886
30
0
10
4.270023
20
24.578016
30
0
10
4.176405
20
24.394698
30
0
10
4.09589
20
24.225546
30
0
10
4.027608
20
24.071135
30
0
10
3.970668
20
23.932004
30
0
10
3.924156
20
23.808652
30
0
10
3.887144
20
23.70154
30
0
10
3.858681
20
23.611087
30
0
10
3.837807
20
23.537675
30
0
10
3.823541
20
23.481643
30
0
10
3.814895
20
23.443288
30
0
10
3.810866
20
23.422866
30
0
10
3.681738
20
22.629453
30
0
10
1.439598
20
22.881759
30
0
10
1.490031
20
23.684027
30
0
10
1.490641
20
23.704834
30
0
10
1.490736
20
23.744151
30
0
10
1.48928
20
23.801953
30
0
10
1.485242
20
23.878168
30
0
10
1.477595
20
23.972684
30
0
10
1.465313
20
24.085344
30
0
10
1.447379
20
24.215948
30
0
10
1.422783
20
24.364254
30
0
10
1.390526
20
24.529978
30
0
10
1.349617
20
24.712794
30
0
10
1.299082
20
24.912333
30
0
10
1.237957
20
25.128187
30
0
10
1.165295
20
25.359905
30
0
10
1.080169
20
25.606999
30
0
10
0.981666
20
25.868939
30
0
10
0.868897
20
26.145157
30
0
10
0.740993
20
26.435048
30
0
10
0.597108
20
26.737968
30
0
10
0.436421
20
27.053238
30
0
10
0.349528
20
27.215283
30
0
10
0.327106
20
27.256237
30
0
10
0.321456
20
27.266504
30
0
10
0.320748
20
27.267788
30
0
10
0.320391
20
27.268118
30
0
10
-1.0622
20
27.249305
30
0
10
-1.062549
20
27.248965
30
0
10
-1.063221
20
27.247662
30
0
10
-1.068589
20
27.237247
30
0
10
-1.089889
20
27.195697
30
0
10
-1.172341
20
27.031348
30
0
10
-1.32439
20
26.711822
30
0
10
-1.45998
20
26.405099
30
0
10
-1.579949
20
26.111836
30
0
10
-1.685161
20
25.832652
30
0
10
-1.7765
20
25.568129
30
0
10
-1.854872
20
25.31881
30
0
10
-1.921202
20
25.0852
30
0
10
-1.976431
20
24.867764
30
0
10
-2.021519
20
24.666923
30
0
10
-2.057438
20
24.483062
30
0
10
-2.085174
20
24.316522
30
0
10
-2.105726
20
24.167601
30
0
10
-2.120099
20
24.036558
30
0
10
-2.129312
20
23.923606
30
0
10
-2.134385
20
23.828917
30
0
10
-2.136347
20
23.75262
30
0
10
-2.136229
20
23.6948
30
0
10
-2.135066
20
23.655499
30
0
10
-2.133889
20
23.634717
30
0
10
-2.061647
20
22.834118
30
0
10
-4.296091
20
22.5209
30
0
10
-4.44676
20
23.310506
30
0
10
-4.451342
20
23.33081
30
0
10
-4.461029
20
23.368916
30
0
10
-4.476814
20
23.42454
30
0
10
-4.499678
20
23.497357
30
0
10
-4.530591
20
23.587001
30
0
10
-4.570504
20
23.693067
30
0
10
-4.620355
20
23.815108
30
0
10
-4.68106
20
23.952638
30
0
10
-4.753518
20
24.105133
30
0
10
-4.838605
20
24.272032
30
0
10
-4.937176
20
24.452735
30
0
10
-5.050062
20
24.646606
30
0
10
-5.178066
20
24.852974
30
0
10
-5.321968
20
25.071135
30
0
10
-5.482518
20
25.300349
30
0
10
-5.660437
20
25.539845
30
0
10
-5.856416
20
25.788819
30
0
10
-6.071113
20
26.04644
30
0
10
-6.305156
20
26.311845
30
0
10
-6.429619
20
26.447188
30
0
10
-6.461522
20
26.481281
30
0
10
-6.469547
20
26.489819
30
0
10
-6.470551
20
26.490887
30
0
10
-6.47098
20
26.491118
30
0
10
-7.805456
20
26.12906
30
0
10
-7.805709
20
26.128644
30
0
10
-7.806036
20
26.127215
30
0
10
-7.808645
20
26.115791
30
0
10
-7.818943
20
26.07025
30
0
10
-7.857933
20
25.890559
30
0
10
-7.925742
20
25.543259
30
0
10
-7.980793
20
25.212452
30
0
10
-8.024062
20
24.898567
30
0
10
-8.056538
20
24.601989
30
0
10
-8.079223
20
24.323061
30
0
10
-8.09313
20
24.062085
30
0
10
-8.099279
20
23.819319
30
0
10
-8.098699
20
23.594979
30
0
10
-8.092424
20
23.389235
30
0
10
-8.08149
20
23.202218
30
0
10
-8.066938
20
23.034012
30
0
10
-8.049808
20
22.884659
30
0
10
-8.031141
20
22.754158
30
0
10
-8.011974
20
22.642463
30
0
10
-7.99334
20
22.549488
30
0
10
-7.976266
20
22.475099
30
0
10
-7.961773
20
22.419125
30
0
10
-7.950872
20
22.381349
30
0
10
-7.944564
20
22.361513
30
0
10
-7.67549
20
21.604031
30
0
10
-9.761842
20
20.74497
30
0
10
-10.104144
20
21.472299
30
0
10
-10.113632
20
21.490826
30
0
10
-10.132491
20
21.525326
30
0
10
-10.161612
20
21.575276
30
0
10
-10.201867
20
21.640119
30
0
10
-10.254103
20
21.71926
30
0
10
-10.31914
20
21.812067
30
0
10
-10.397774
20
21.917877
30
0
10
-10.490775
20
22.03599
30
0
10
-10.59888
20
22.165675
30
0
10
-10.7228
20
22.306169
30
0
10
-10.863214
20
22.456681
30
0
10
-11.020767
20
22.616388
30
0
10
-11.196071
20
22.78444
30
0
10
-11.389707
20
22.959959
30
0
10
-11.602216
20
23.142045
30
0
10
-11.834105
20
23.32977
30
0
10
-12.085844
20
23.522185
30
0
10
-12.357864
20
23.718319
30
0
10
-12.650558
20
23.917181
30
0
10
-12.804769
20
24.01732
30
0
10
-12.844148
20
24.042407
30
0
10
-12.854044
20
24.048682
30
0
10
-12.855283
20
24.049466
30
0
10
-12.855755
20
24.049583
30
0
10
-14.058266
20
23.367029
30
0
10
-14.058408
20
23.366563
30
0
10
-14.058369
20
23.365098
30
0
10
-14.058056
20
23.353384
30
0
10
-14.056704
20
23.306713
30
0
10
-14.049782
20
23.122971
30
0
10
-14.029091
20
22.769718
30
0
10
-14.000144
20
22.435614
30
0
10
-13.963993
20
22.12083
30
0
10
-13.921693
20
21.825493
30
0
10
-13.874299
20
21.549686
30
0
10
-13.822867
20
21.293451
30
0
10
-13.76845
20
21.056783
30
0
10
-13.712096
20
20.839634
30
0
10
-13.654852
20
20.641915
30
0
10
-13.597752
20
20.463493
30
0
10
-13.541826
20
20.30419
30
0
10
-13.488092
20
20.163789
30
0
10
-13.437557
20
20.04203
30
0
10
-13.391215
20
19.938612
30
0
10
-13.350044
20
19.853191
30
0
10
-13.315007
20
19.785386
30
0
10
-13.287049
20
19.734775
30
0
10
-13.267096
20
19.700896
30
0
10
-13.256053
20
19.683252
30
0
10
-12.807055
20
19.016484
30
0
10
-14.61422
20
17.665557
30
0
10
-15.126647
20
18.284909
30
0
10
-15.140445
20
18.300494
30
0
10
-15.167291
20
18.32922
30
0
10
-15.20792
20
18.370359
30
0
10
-15.263036
20
18.423154
30
0
10
-15.333311
20
18.486818
30
0
10
-15.419386
20
18.560536
30
0
10
-15.521863
20
18.643465
30
0
10
-15.641315
20
18.734739
30
0
10
-15.778276
20
18.833465
30
0
10
-15.933243
20
18.938728
30
0
10
-16.106676
20
19.049592
30
0
10
-16.298996
20
19.165099
30
0
10
-16.510586
20
19.284275
30
0
10
-16.741788
20
19.406125
30
0
10
-16.992903
20
19.529641
30
0
10
-17.264193
20
19.6538
30
0
10
-17.555875
20
19.777565
30
0
10
-17.868125
20
19.899888
30
0
10
-18.201078
20
20.019713
30
0
10
-18.375348
20
20.078355
30
0
10
-18.419729
20
20.092861
30
0
10
-18.430875
20
20.096477
30
0
10
-18.432269
20
20.096929
30
0
10
-18.432756
20
20.096925
30
0
10
-19.427744
20
19.136762
30
0
10
-19.427765
20
19.136276
30
0
10
-19.427363
20
19.134866
30
0
10
-19.424146
20
19.123598
30
0
10
-19.41123
20
19.078729
30
0
10
-19.358831
20
18.902482
30
0
10
-19.25094
20
18.565473
30
0
10
-19.139814
20
18.249064
30
0
10
-19.026515
20
17.953159
30
0
10
-18.912096
20
17.677621
30
0
10
-18.797601
20
17.422266
30
0
10
-18.684062
20
17.186871
30
0
10
-18.572497
20
16.971171
30
0
10
-18.463912
20
16.774859
30
0
10
-18.359295
20
16.597588
30
0
10
-18.259617
20
16.438971
30
0
10
-18.165831
20
16.298582
30
0
10
-18.078869
20
16.175955
30
0
10
-17.999642
20
16.070589
30
0
10
-17.929036
20
15.981944
30
0
10
-17.867916
20
15.909446
30
0
10
-17.817117
20
15.852484
30
0
10
-17.777451
20
15.810416
30
0
10
-17.749699
20
15.782564
30
0
10
-17.734615
20
15.76822
30
0
10
-17.133905
20
15.234061
30
0
10
-18.548333
20
13.476152
30
0
10
-19.198687
20
13.948611
30
0
10
-19.215928
20
13.960275
30
0
10
-19.249074
20
13.981422
30
0
10
-19.298657
20
14.011165
30
0
10
-19.365172
20
14.048594
30
0
10
-19.449072
20
14.092781
30
0
10
-19.550775
20
14.142777
30
0
10
-19.670657
20
14.197616
30
0
10
-19.809055
20
14.256316
30
0
10
-19.966265
20
14.317879
30
0
10
-20.142541
20
14.381297
30
0
10
-20.338096
20
14.445547
30
0
10
-20.553099
20
14.509597
30
0
10
-20.78768
20
14.572408
30
0
10
-21.041921
20
14.632933
30
0
10
-21.315864
20
14.690118
30
0
10
-21.609508
20
14.742909
30
0
10
-21.922805
20
14.790248
30
0
10
-22.255666
20
14.831075
30
0
10
-22.607958
20
14.864333
30
0
10
-22.791337
20
14.877794
30
0
10
-22.837931
20
14.880807
30
0
10
-22.849626
20
14.881537
30
0
10
-22.851089
20
14.881628
30
0
10
-22.851559
20
14.881503
30
0
10
-23.576505
20
13.704062
30
0
10
-23.576404
20
13.703586
30
0
10
-23.575665
20
13.70232
30
0
10
-23.569747
20
13.692207
30
0
10
-23.546078
20
13.651959
30
0
10
-23.451494
20
13.49428
30
0
10
-23.263181
20
13.19469
30
0
10
-23.076859
20
12.915858
30
0
10
-22.893531
20
12.657426
30
0
10
-22.714183
20
12.418999
30
0
10
-22.539781
20
12.20014
30
0
10
-22.371269
20
12.000377
30
0
10
-22.209567
20
11.819198
30
0
10
-22.055572
20
11.656058
30
0
10
-21.910156
20
11.510373
30
0
10
-21.774164
20
11.381528
30
0
10
-21.648411
20
11.268873
30
0
10
-21.533685
20
11.171725
30
0
10
-21.430743
20
11.089373
30
0
10
-21.340311
20
11.021072
30
0
10
-21.26308
20
10.966051
30
0
10
-21.199712
20
10.923513
30
0
10
-21.15083
20
10.89263
30
0
10
-21.117024
20
10.872555
30
0
10
-21.098847
20
10.862413
30
0
10
-20.384169
20
10.494426
30
0
10
-21.316985
20
8.439992
30
0
10
-22.064404
20
8.73587
30
0
10
-22.084003
20
8.742881
30
0
10
-22.121367
20
8.75512
30
0
10
-22.17679
20
8.771597
30
0
10
-22.250522
20
8.791309
30
0
10
-22.342776
20
8.813243
30
0
10
-22.453717
20
8.836376
30
0
10
-22.58347
20
8.859678
30
0
10
-22.732118
20
8.882116
30
0
10
-22.8997
20
8.902649
30
0
10
-23.086209
20
8.920236
30
0
10
-23.291598
20
8.933835
30
0
10
-23.515776
20
8.942403
30
0
10
-23.758607
20
8.944903
30
0
10
-24.019913
20
8.940299
30
0
10
-24.299471
20
8.927561
30
0
10
-24.597018
20
8.905668
30
0
10
-24.912245
20
8.873605
30
0
10
-25.244802
20
8.83037
30
0
10
-25.594297
20
8.774972
30
0
10
-25.775262
20
8.742406
30
0
10
-25.821141
20
8.733736
30
0
10
-25.832651
20
8.731536
30
0
10
-25.83409
20
8.73126
30
0
10
-25.834515
20
8.731022
30
0
10
-26.243867
20
7.410286
30
0
10
-26.243652
20
7.409849
30
0
10
-26.24262
20
7.408807
30
0
10
-26.234373
20
7.400483
30
0
10
-26.201439
20
7.367386
30
0
10
-26.070613
20
7.238183
30
0
10
-25.813712
20
6.994837
30
0
10
-25.5639
20
6.771101
30
0
10
-25.322063
20
6.56638
30
0
10
-25.089055
20
6.380045
30
0
10
-24.865704
20
6.211434
30
0
10
-24.652806
20
6.059854
30
0
10
-24.451127
20
5.924582
30
0
10
-24.261399
20
5.804864
30
0
10
-24.084322
20
5.69992
30
0
10
-23.920559
20
5.608943
30
0
10
-23.770741
20
5.5311
30
0
10
-23.63546
20
5.465536
30
0
10
-23.515272
20
5.411371
30
0
10
-23.410695
20
5.367705
30
0
10
-23.322208
20
5.33362
30
0
10
-23.250251
20
5.308176
30
0
10
-23.195225
20
5.290421
30
0
10
-23.157488
20
5.279383
30
0
10
-23.13736
20
5.27408
30
0
10
-22.35362
20
5.095388
30
0
10
-22.746214
20
2.873515
30
0
10
-23.543733
20
2.974223
30
0
10
-23.56446
20
2.976139
30
0
10
-23.603694
20
2.978702
30
0
10
-23.661473
20
2.980878
30
0
10
-23.737791
20
2.981634
30
0
10
-23.832601
20
2.979936
30
0
10
-23.945809
20
2.974752
30
0
10
-24.077282
20
2.965055
30
0
10
-24.226839
20
2.94982
30
0
10
-24.394262
20
2.928032
30
0
10
-24.579286
20
2.898683
30
0
10
-24.781604
20
2.860777
30
0
10
-25.00087
20
2.813326
30
0
10
-25.236694
20
2.755358
30
0
10
-25.488645
20
2.685914
30
0
10
-25.756253
20
2.604053
30
0
10
-26.039007
20
2.50885
30
0
10
-26.336357
20
2.399401
30
0
10
-26.647714
20
2.274821
30
0
10
-26.972452
20
2.134247
30
0
10
-27.139632
20
2.0577
30
0
10
-27.181914
20
2.037893
30
0
10
-27.192515
20
2.0329
30
0
10
-27.193841
20
2.032274
30
0
10
-27.194193
20
2.031938
30
0
10
-27.262231
20
0.650894
30
0
10
-27.261914
20
0.650525
30
0
10
-27.260656
20
0.649772
30
0
10
-27.250597
20
0.64376
30
0
10
-27.210467
20
0.619894
30
0
10
-27.05162
20
0.527284
30
0
10
-26.742272
20
0.355472
30
0
10
-26.444668
20
0.200891
30
0
10
-26.159516
20
0.062744
30
0
10
-25.887489
20
-0.05979
30
0
10
-25.629223
20
-0.167558
30
0
10
-25.385318
20
-0.261431
30
0
10
-25.156334
20
-0.342298
30
0
10
-24.942794
20
-0.411072
30
0
10
-24.745181
20
-0.468681
30
0
10
-24.563938
20
-0.516074
30
0
10
-24.399468
20
-0.554213
30
0
10
-24.252132
20
-0.584074
30
0
10
-24.122249
20
-0.606648
30
0
10
-24.010098
20
-0.622934
30
0
10
-23.915915
20
-0.633943
30
0
10
-23.839892
20
-0.640692
30
0
10
-23.782178
20
-0.644205
30
0
10
-23.742883
20
-0.645511
30
0
10
-23.722068
20
-0.645642
30
0
10
-22.918512
20
-0.623812
30
0
10
-22.746214
20
-2.873515
30
0
10
-23.543722
20
-2.974306
30
0
10
-23.564274
20
-2.977605
30
0
10
-23.602913
20
-2.98488
30
0
10
-23.659418
20
-2.997141
30
0
10
-23.733527
20
-3.015388
30
0
10
-23.824936
20
-3.040611
30
0
10
-23.933298
20
-3.073785
30
0
10
-24.058229
20
-3.115875
30
0
10
-24.199299
20
-3.167824
30
0
10
-24.356043
20
-3.230564
30
0
10
-24.527955
20
-3.305004
30
0
10
-24.714491
20
-3.392034
30
0
10
-24.915067
20
-3.492524
30
0
10
-25.129066
20
-3.607318
30
0
10
-25.355832
20
-3.737237
30
0
10
-25.594674
20
-3.883078
30
0
10
-25.844869
20
-4.045608
30
0
10
-26.105658
20
-4.225566
30
0
10
-26.376252
20
-4.423664
30
0
10
-26.655828
20
-4.64058
30
0
10
-26.79872
20
-4.756299
30
0
10
-26.834748
20
-4.785998
30
0
10
-26.843774
20
-4.793471
30
0
10
-26.844902
20
-4.794407
30
0
10
-26.84516
20
-4.79482
30
0
10
-26.567608
20
-6.149397
30
0
10
-26.567209
20
-6.149675
30
0
10
-26.565804
20
-6.150091
30
0
10
-26.554566
20
-6.153413
30
0
10
-26.509761
20
-6.166549
30
0
10
-26.332874
20
-6.216746
30
0
10
-25.990516
20
-6.306228
30
0
10
-25.663819
20
-6.381942
30
0
10
-25.35327
20
-6.444834
30
0
10
-25.059317
20
-6.495868
30
0
10
-24.782364
20
-6.536023
30
0
10
-24.522776
20
-6.566289
30
0
10
-24.280875
20
-6.58767
30
0
10
-24.056941
20
-6.601178
30
0
10
-23.851209
20
-6.607833
30
0
10
-23.663875
20
-6.608663
30
0
10
-23.495087
20
-6.604702
30
0
10
-23.344953
20
-6.596984
30
0
10
-23.213537
20
-6.586548
30
0
10
-23.10086
20
-6.574432
30
0
10
-23.006897
20
-6.561673
30
0
10
-22.931584
20
-6.549303
30
0
10
-22.87481
20
-6.538354
30
0
10
-22.836424
20
-6.529846
30
0
10
-22.816231
20
-6.524796
30
0
10
-22.043349
20
-6.303816
30
0
10
-21.316985
20
-8.439992
30
0
10
-22.064373
20
-8.735948
30
0
10
-22.083459
20
-8.744255
30
0
10
-22.119075
20
-8.76091
30
0
10
-22.170755
20
-8.786838
30
0
10
-22.237998
20
-8.822942
30
0
10
-22.320262
20
-8.870105
30
0
10
-22.41697
20
-8.929186
30
0
10
-22.527509
20
-9.001022
30
0
10
-22.651228
20
-9.086422
30
0
10
-22.787445
20
-9.186171
30
0
10
-22.935444
20
-9.301025
30
0
10
-23.094475
20
-9.431711
30
0
10
-23.263759
20
-9.578925
30
0
10
-23.442487
20
-9.743332
30
0
10
-23.629819
20
-9.925564
30
0
10
-23.824889
20
-10.12622
30
0
10
-24.026803
20
-10.345865
30
0
10
-24.234646
20
-10.585025
30
0
10
-24.447473
20
-10.844193
30
0
10
-24.664321
20
-11.123823
30
0
10
-24.773946
20
-11.271442
30
0
10
-24.801456
20
-11.309168
30
0
10
-24.808339
20
-11.318651
30
0
10
-24.8092
20
-11.319837
30
0
10
-24.809347
20
-11.320301
30
0
10
-24.203645
20
-12.563298
30
0
10
-24.20319
20
-12.563468
30
0
10
-24.201725
20
-12.563522
30
0
10
-24.190014
20
-12.563944
30
0
10
-24.14335
20
-12.565526
30
0
10
-23.959536
20
-12.570154
30
0
10
-23.605681
20
-12.571685
30
0
10
-23.270419
20
-12.563774
30
0
10
-22.953986
20
-12.54746
30
0
10
-22.656575
20
-12.523787
30
0
10
-22.378338
20
-12.493805
30
0
10
-22.119378
20
-12.458564
30
0
10
-21.87976
20
-12.419114
30
0
10
-21.659502
20
-12.376507
30
0
10
-21.458579
20
-12.33179
30
0
10
-21.276923
20
-12.286006
30
0
10
-21.114423
20
-12.240194
30
0
10
-20.970925
20
-12.195382
30
0
10
-20.846233
20
-12.152592
30
0
10
-20.740109
20
-12.112835
30
0
10
-20.652272
20
-12.077108
30
0
10
-20.5824
20
-12.046398
30
0
10
-20.530134
20
-12.021673
30
0
10
-20.495069
20
-12.003887
30
0
10
-20.476766
20
-11.993974
30
0
10
-19.783121
20
-11.587728
30
0
10
-18.548333
20
-13.476152
30
0
10
-19.198638
20
-13.948679
30
0
10
-19.215059
20
-13.961471
30
0
10
-19.245414
20
-13.98646
30
0
10
-19.289023
20
-14.024426
30
0
10
-19.345174
20
-14.076118
30
0
10
-19.413125
20
-14.142258
30
0
10
-19.492102
20
-14.223533
30
0
10
-19.581302
20
-14.320602
30
0
10
-19.679896
20
-14.434087
30
0
10
-19.787027
20
-14.564578
30
0
10
-19.901813
20
-14.71263
30
0
10
-20.023348
20
-14.878759
30
0
10
-20.150704
20
-15.063447
30
0
10
-20.28293
20
-15.267136
30
0
10
-20.419057
20
-15.490231
30
0
10
-20.558097
20
-15.733095
30
0
10
-20.699045
20
-15.996054
30
0
10
-20.840881
20
-16.279389
30
0
10
-20.982569
20
-16.583342
30
0
10
-21.123064
20
-16.908115
30
0
10
-21.192533
20
-17.078358
30
0
10
-21.209797
20
-17.12174
30
0
10
-21.214106
20
-17.132637
30
0
10
-21.214644
20
-17.134001
30
0
10
-21.214671
20
-17.134487
30
0
10
-20.318878
20
-18.1878
30
0
10
-20.318394
20
-18.187852
30
0
10
-20.316962
20
-18.18754
30
0
10
-20.305515
20
-18.185037
30
0
10
-20.259923
20
-18.174963
30
0
10
-20.080733
20
-18.133734
30
0
10
-19.737615
20
-18.047217
30
0
10
-19.414852
20
-17.956178
30
0
10
-19.112418
20
-17.861682
30
0
10
-18.830238
20
-17.764791
30
0
10
-18.568198
20
-17.666555
30
0
10
-18.326139
20
-17.568021
30
0
10
-18.103859
20
-17.47022
30
0
10
-17.901116
20
-17.374176
30
0
10
-17.717626
20
-17.280896
30
0
10
-17.553063
20
-17.191374
30
0
10
-17.407062
20
-17.106589
30
0
10
-17.279217
20
-17.027498
30
0
10
-17.169084
20
-16.955043
30
0
10
-17.076181
20
-16.890143
30
0
10
-16.999988
20
-16.833695
30
0
10
-16.939949
20
-16.786573
30
0
10
-16.895473
20
-16.749627
30
0
10
-16.865934
20
-16.723679
30
0
10
-16.850671
20
-16.709526
30
0
10
-16.279847
20
-16.143541
30
0
10
-14.61422
20
-17.665557
30
0
10
-15.126582
20
-18.284963
30
0
10
-15.139306
20
-18.301436
30
0
10
-15.162492
20
-18.33319
30
0
10
-15.19529
20
-18.380808
30
0
10
-15.236822
20
-18.44484
30
0
10
-15.286189
20
-18.525801
30
0
10
-15.342473
20
-18.624163
30
0
10
-15.404731
20
-18.740366
30
0
10
-15.472005
20
-18.874805
30
0
10
-15.543318
20
-19.027839
30
0
10
-15.617679
20
-19.199785
30
0
10
-15.694081
20
-19.39092
30
0
10
-15.771505
20
-19.601477
30
0
10
-15.848922
20
-19.831651
30
0
10
-15.925291
20
-20.08159
30
0
10
-15.999565
20
-20.351402
30
0
10
-16.07069
20
-20.641151
30
0
10
-16.137607
20
-20.950858
30
0
10
-16.199254
20
-21.280499
30
0
10
-16.254567
20
-21.630007
30
0
10
-16.279516
20
-21.812179
30
0
10
-16.285448
20
-21.858491
30
0
10
-16.286912
20
-21.870118
30
0
10
-16.287094
20
-21.871572
30
0
10
-16.286999
20
-21.87205
30
0
10
-15.157401
20
-22.669497
30
0
10
-15.15692
20
-22.669427
30
0
10
-15.15561
20
-22.668768
30
0
10
-15.145145
20
-22.663496
30
0
10
-15.103491
20
-22.642401
30
0
10
-14.940184
20
-22.557905
30
0
10
-14.629361
20
-22.388775
30
0
10
-14.339379
20
-22.220329
30
0
10
-14.069946
20
-22.05359
30
0
10
-13.820728
20
-21.889567
30
0
10
-13.59135
20
-21.729251
30
0
10
-13.3814
20
-21.573614
30
0
10
-13.190426
20
-21.423608
30
0
10
-13.017938
20
-21.280161
30
0
10
-12.86341
20
-21.144179
30
0
10
-12.726281
20
-21.016545
30
0
10
-12.605952
20
-20.898114
30
0
10
-12.501792
20
-20.789715
30
0
10
-12.413138
20
-20.692147
30
0
10
-12.339293
20
-20.606181
30
0
10
-12.279532
20
-20.532559
30
0
10
-12.233098
20
-20.471986
30
0
10
-12.199208
20
-20.42514
30
0
10
-12.177049
20
-20.392661
30
0
10
-12.165786
20
-20.375156
30
0
10
-11.753651
20
-19.684995
30
0
10
-9.761842
20
-20.74497
30
0
10
-10.104067
20
-21.472335
30
0
10
-10.112295
20
-21.491455
30
0
10
-10.126856
20
-21.527977
30
0
10
-10.146781
20
-21.582256
30
0
10
-10.171084
20
-21.654605
30
0
10
-10.198766
20
-21.745299
30
0
10
-10.22882
20
-21.854569
30
0
10
-10.260224
20
-21.982603
30
0
10
-10.29195
20
-22.129549
30
0
10
-10.322965
20
-22.29551
30
0
10
-10.352229
20
-22.480547
30
0
10
-10.378697
20
-22.684677
30
0
10
-10.401325
20
-22.907875
30
0
10
-10.419068
20
-23.15007
30
0
10
-10.43088
20
-23.411149
30
0
10
-10.435721
20
-23.690956
30
0
10
-10.432554
20
-23.98929
30
0
10
-10.420348
20
-24.305908
30
0
10
-10.398079
20
-24.640524
30
0
10
-10.364736
20
-24.992807
30
0
10
-10.343596
20
-25.17546
30
0
10
-10.337825
20
-25.221793
30
0
10
-10.336352
20
-25.233418
30
0
10
-10.336167
20
-25.234872
30
0
10
-10.335956
20
-25.235311
30
0
10
-9.043529
20
-25.726785
30
0
10
-9.04308
20
-25.726598
30
0
10
-9.041976
20
-25.725634
30
0
10
-9.03315
20
-25.717925
30
0
10
-8.998051
20
-25.687134
30
0
10
-8.860887
20
-25.564679
30
0
10
-8.601891
20
-25.323565
30
0
10
-8.36291
20
-25.088295
30
0
10
-8.143408
20
-24.859789
30
0
10
-7.94281
20
-24.638941
30
0
10
-7.760508
20
-24.426618
30
0
10
-7.595859
20
-24.223658
30
0
10
-7.44819
20
-24.030871
30
0
10
-7.316795
20
-23.849035
30
0
10
-7.200939
20
-23.678896
30
0
10
-7.099859
20
-23.521169
30
0
10
-7.012763
20
-23.376534
30
0
10
-6.938833
20
-23.245637
30
0
10
-6.877229
20
-23.129087
30
0
10
-6.827083
20
-23.027458
30
0
10
-6.787509
20
-22.941286
30
0
10
-6.757597
20
-22.871069
30
0
10
-6.736422
20
-22.817266
30
0
10
-6.723036
20
-22.780297
30
0
10
-6.71648
20
-22.760541
30
0
10
-6.488929
20
-21.989569
30
0
10
-4.296091
20
-22.5209
30
0
10
-4.446677
20
-23.310522
30
0
10
-4.449891
20
-23.331087
30
0
10
-4.454912
20
-23.370083
30
0
10
-4.460712
20
-23.427611
30
0
10
-4.466259
20
-23.503732
30
0
10
-4.470517
20
-23.598461
30
0
10
-4.472452
20
-23.711771
30
0
10
-4.471029
20
-23.843593
30
0
10
-4.465215
20
-23.993813
30
0
10
-4.453982
20
-24.162273
30
0
10
-4.43631
20
-24.348774
30
0
10
-4.411181
20
-24.553074
30
0
10
-4.377592
20
-24.774886
30
0
10
-4.334546
20
-25.013884
30
0
10
-4.281059
20
-25.269699
30
0
10
-4.216163
20
-25.541919
30
0
10
-4.138902
20
-25.830093
30
0
10
-4.04834
20
-26.133728
30
0
10
-3.943556
20
-26.452293
30
0
10
-3.82365
20
-26.785217
30
0
10
-3.757751
20
-26.956875
30
0
10
-3.740639
20
-27.000317
30
0
10
-3.73632
20
-27.01121
30
0
10
-3.735779
20
-27.012572
30
0
10
-3.735466
20
-27.012945
30
0
10
-2.361419
20
-27.167565
30
0
10
-2.361031
20
-27.167272
30
0
10
-2.3602
20
-27.166063
30
0
10
-2.353569
20
-27.156402
30
0
10
-2.32723
20
-27.11785
30
0
10
-2.224829
20
-26.965131
30
0
10
-2.033932
20
-26.667182
30
0
10
-1.860969
20
-26.379871
30
0
10
-1.70519
20
-26.103956
30
0
10
-1.565817
20
-25.84016
30
0
10
-1.442044
20
-25.589171
30
0
10
-1.333042
20
-25.351641
30
0
10
-1.237957
20
-25.128187
30
0
10
-1.155911
20
-24.919386
30
0
10
-1.086007
20
-24.725781
30
0
10
-1.027327
20
-24.547871
30
0
10
-0.978936
20
-24.38612
30
0
10
-0.939882
20
-24.24095
30
0
10
-0.909198
20
-24.112741
30
0
10
-0.885902
20
-24.001834
30
0
10
-0.869001
20
-23.908528
30
0
10
-0.857491
20
-23.833078
30
0
10
-0.850361
20
-23.7757
30
0
10
-0.84659
20
-23.736563
30
0
10
-0.845153
20
-23.715798
30
0
10
-0.816484
20
-22.912457
30
0
10
1.439598
20
-22.881759
30
0
10
1.490115
20
-23.684022
30
0
10
1.492116
20
-23.704741
30
0
10
1.496951
20
-23.74376
30
0
10
1.505639
20
-23.800924
30
0
10
1.519197
20
-23.876032
30
0
10
1.538631
20
-23.968844
30
0
10
1.564936
20
-24.079076
30
0
10
1.599097
20
-24.206402
30
0
10
1.642087
20
-24.350457
30
0
10
1.694861
20
-24.510831
30
0
10
1.758359
20
-24.687078
30
0
10
1.833505
20
-24.87871
30
0
10
1.921202
20
-25.0852
30
0
10
2.022332
20
-25.305985
30
0
10
2.137757
20
-25.540461
30
0
10
2.268313
20
-25.78799
30
0
10
2.414812
20
-26.047896
30
0
10
2.57804
20
-26.31947
30
0
10
2.758756
20
-26.601968
30
0
10
2.95769
20
-26.894613
30
0
10
3.064208
20
-27.044489
30
0
10
3.091586
20
-27.082311
30
0
10
3.098478
20
-27.091788
30
0
10
3.099341
20
-27.092973
30
0
10
3.099737
20
-27.093256
30
0
10
4.469068
20
-26.901307
30
0
10
4.469371
20
-26.900926
30
0
10
4.469875
20
-26.89955
30
0
10
4.473895
20
-26.888543
30
0
10
4.489819
20
-26.844651
30
0
10
4.551023
20
-26.671264
30
0
10
4.661826
20
-26.335201
30
0
10
4.757904
20
-26.013903
30
0
10
4.840172
20
-25.707916
30
0
10
4.909563
20
-25.417747
30
0
10
4.967028
20
-25.143862
30
0
10
5.013534
20
-24.886687
30
0
10
5.050062
20
-24.646606
30
0
10
5.077604
20
-24.423961
30
0
10
5.097164
20
-24.219054
30
0
10
5.109756
20
-24.032141
30
0
10
5.1164
20
-23.863437
30
0
10
5.118125
20
-23.713115
30
0
10
5.115961
20
-23.581303
30
0
10
5.110944
20
-23.468087
30
0
10
5.10411
20
-23.373509
30
0
10
5.096494
20
-23.297568
30
0
10
5.089131
20
-23.240219
30
0
10
5.08305
20
-23.201374
30
0
10
5.079278
20
-23.180903
30
0
10
4.907264
20
-22.395671
30
0
10
7.084833
20
-21.804873
30
0
10
7.333277
20
-22.569369
30
0
10
7.340368
20
-22.588939
30
0
10
7.354754
20
-22.62553
30
0
10
7.377386
20
-22.678737
30
0
10
7.409197
20
-22.748114
30
0
10
7.451101
20
-22.833177
30
0
10
7.503993
20
-22.933404
30
0
10
7.568746
20
-23.048234
30
0
10
7.64621
20
-23.177072
30
0
10
7.737209
20
-23.319284
30
0
10
7.842544
20
-23.474202
30
0
10
7.962986
20
-23.641125
30
0
10
8.099279
20
-23.819319
30
0
10
8.25214
20
-24.008017
30
0
10
8.42225
20
-24.206422
30
0
10
8.610262
20
-24.413706
30
0
10
8.816794
20
-24.629014
30
0
10
9.042432
20
-24.851463
30
0
10
9.287725
20
-25.080144
30
0
10
9.553187
20
-25.314122
30
0
10
9.693631
20
-25.4328
30
0
10
9.729555
20
-25.462624
30
0
10
9.738587
20
-25.47009
30
0
10
9.739718
20
-25.471023
30
0
10
9.740172
20
-25.471199
30
0
10
11.018747
20
-24.944741
30
0
10
11.018946
20
-24.944297
30
0
10
11.019092
20
-24.942838
30
0
10
11.020248
20
-24.931177
30
0
10
11.024757
20
-24.884704
30
0
10
11.040918
20
-24.701544
30
0
10
11.064665
20
-24.348484
30
0
10
11.07782
20
-24.013386
30
0
10
11.081407
20
-23.696553
30
0
10
11.076456
20
-23.398243
30
0
10
11.064004
20
-23.118671
30
0
10
11.045092
20
-22.85801
30
0
10
11.020767
20
-22.616388
30
0
10
10.992074
20
-22.393889
30
0
10
10.960061
20
-22.190554
30
0
10
10.925774
20
-22.006382
30
0
10
10.890255
20
-21.841326
30
0
10
10.854542
20
-21.695298
30
0
10
10.819666
20
-21.568166
30
0
10
10.78665
20
-21.459754
30
0
10
10.75651
20
-21.369847
30
0
10
10.730248
20
-21.298185
30
0
10
10.708853
20
-21.244469
30
0
10
10.693304
20
-21.208357
30
0
10
10.684559
20
-21.189468
30
0
10
10.32267
20
-20.471683
30
0
10
12.284901
20
-19.357906
30
0
10
12.715662
20
-20.036599
30
0
10
12.727397
20
-20.05379
30
0
10
12.750432
20
-20.085654
30
0
10
12.785584
20
-20.131561
30
0
10
12.833649
20
-20.190848
30
0
10
12.895391
20
-20.262817
30
0
10
12.971547
20
-20.346742
30
0
10
13.062823
20
-20.441861
30
0
10
13.169894
20
-20.547386
30
0
10
13.293401
20
-20.6625
30
0
10
13.433952
20
-20.786355
30
0
10
13.592123
20
-20.918082
30
0
10
13.76845
20
-21.056783
30
0
10
13.963434
20
-21.201538
30
0
10
14.177541
20
-21.351404
30
0
10
14.411196
20
-21.50542
30
0
10
14.664785
20
-21.662601
30
0
10
14.938655
20
-21.821947
30
0
10
15.233113
20
-21.982442
30
0
10
15.548422
20
-22.143051
30
0
10
15.713968
20
-22.223073
30
0
10
15.75618
20
-22.243027
30
0
10
15.766785
20
-22.248012
30
0
10
15.768112
20
-22.248635
30
0
10
15.768596
20
-22.248692
30
0
10
16.876078
20
-21.420805
30
0
10
16.87616
20
-21.420325
30
0
10
16.875938
20
-21.418876
30
0
10
16.874159
20
-21.407294
30
0
10
16.866968
20
-21.36116
30
0
10
16.837072
20
-21.179735
30
0
10
16.77227
20
-20.831861
30
0
10
16.701676
20
-20.504019
30
0
10
16.626358
20
-20.196248
30
0
10
16.547375
20
-19.908541
30
0
10
16.465788
20
-19.64085
30
0
10
16.382646
20
-19.393081
30
0
10
16.298996
20
-19.165099
30
0
10
16.215871
20
-18.956726
30
0
10
16.134297
20
-18.767741
30
0
10
16.055285
20
-18.597882
30
0
10
15.979834
20
-18.446845
30
0
10
15.908927
20
-18.314286
30
0
10
15.843531
20
-18.199821
30
0
10
15.784592
20
-18.103026
30
0
10
15.733039
20
-18.023439
30
0
10
15.689781
20
-17.96056
30
0
10
15.6557
20
-17.913851
30
0
10
15.631658
20
-17.882741
30
0
10
15.618491
20
-17.86662
30
0
10
15.089465
20
-17.261384
30
0
10
16.713064
20
-15.694611
30
0
10
17.299076
20
-16.244856
30
0
10
17.314718
20
-16.258589
30
0
10
17.344952
20
-16.283723
30
0
10
17.390417
20
-16.319446
30
0
10
17.451716
20
-16.364916
30
0
10
17.529416
20
-16.41927
30
0
10
17.624051
20
-16.481619
30
0
10
17.736115
20
-16.55105
30
0
10
17.866064
20
-16.626633
30
0
10
18.014319
20
-16.707415
30
0
10
18.181256
20
-16.792426
30
0
10
18.367217
20
-16.880678
30
0
10
18.572497
20
-16.971171
30
0
10
18.797356
20
-17.062887
30
0
10
19.042006
20
-17.1548
30
0
10
19.306622
20
-17.245869
30
0
10
19.591334
20
-17.335047
30
0
10
19.896228
20
-17.421278
30
0
10
20.221347
20
-17.503502
30
0
10
20.566693
20
-17.580651
30
0
10
20.746938
20
-17.61699
30
0
10
20.792787
20
-17.625819
30
0
10
20.804298
20
-17.62801
30
0
10
20.805739
20
-17.628283
30
0
10
20.806221
20
-17.628218
30
0
10
21.673023
20
-16.550921
30
0
10
21.672983
20
-16.550436
30
0
10
21.672407
20
-16.549088
30
0
10
21.667804
20
-16.538312
30
0
10
21.649366
20
-16.495416
30
0
10
21.57529
20
-16.327125
30
0
10
21.426011
20
-16.006296
30
0
10
21.276105
20
-15.70631
30
0
10
21.126613
20
-15.426939
30
0
10
20.978562
20
-15.167913
30
0
10
20.832965
20
-14.928922
30
0
10
20.690819
20
-14.709613
30
0
10
20.553099
20
-14.509597
30
0
10
20.420766
20
-14.328443
30
0
10
20.294756
20
-14.165681
30
0
10
20.175984
20
-14.020808
30
0
10
20.065342
20
-13.89328
30
0
10
19.963697
20
-13.782519
30
0
10
19.871888
20
-13.687914
30
0
10
19.790729
20
-13.608817
30
0
10
19.721004
20
-13.544551
30
0
10
19.663467
20
-13.494406
30
0
10
19.618841
20
-13.457641
30
0
10
19.587818
20
-13.433487
30
0
10
19.571055
20
-13.421146
30
0
10
18.908133
20
-12.966489
30
0
10
20.091083
20
-11.045166
30
0
10
20.795525
20
-11.432388
30
0
10
20.814091
20
-11.4418
30
0
10
20.849626
20
-11.458626
30
0
10
20.902546
20
-11.481919
30
0
10
20.973227
20
-11.510717
30
0
10
21.062004
20
-11.54404
30
0
10
21.169171
20
-11.580895
30
0
10
21.294981
20
-11.620276
30
0
10
21.439645
20
-11.661167
30
0
10
21.603331
20
-11.702542
30
0
10
21.786165
20
-11.743366
30
0
10
21.988231
20
-11.7826
30
0
10
22.209567
20
-11.819198
30
0
10
22.45017
20
-11.852113
30
0
10
22.709992
20
-11.880296
30
0
10
22.988942
20
-11.902696
30
0
10
23.286887
20
-11.918268
30
0
10
23.603647
20
-11.925966
30
0
10
23.939
20
-11.924752
30
0
10
24.292683
20
-11.913594
30
0
10
24.476302
20
-11.903966
30
0
10
24.522906
20
-11.901115
30
0
10
24.534601
20
-11.900375
30
0
10
24.536064
20
-11.900281
30
0
10
24.536515
20
-11.900098
30
0
10
25.108171
20
-10.641082
30
0
10
25.108012
20
-10.640622
30
0
10
25.10712
20
-10.639459
30
0
10
25.099981
20
-10.630167
30
0
10
25.071454
20
-10.593203
30
0
10
24.957854
20
-10.448622
30
0
10
24.733477
20
-10.174996
30
0
10
24.513677
20
-9.921715
30
0
10
24.299405
20
-9.688298
30
0
10
24.091589
20
-9.474229
30
0
10
23.891131
20
-9.278954
30
0
10
23.698911
20
-9.101887
30
0
10
23.515776
20
-8.942403
30
0
10
23.342549
20
-8.79985
30
0
10
23.18002
20
-8.67354
30
0
10
23.028952
20
-8.562755
30
0
10
22.890071
20
-8.466749
30
0
10
22.764074
20
-8.384747
30
0
10
22.651622
20
-8.315945
30
0
10
22.553342
20
-8.259517
30
0
10
22.469825
20
-8.21461
30
0
10
22.401625
20
-8.180349
30
0
10
22.349258
20
-8.155837
30
0
10
22.313202
20
-8.140157
30
0
10
22.293897
20
-8.132373
30
0
10
21.538734
20
-7.856861
30
0
10
22.206706
20
-5.701713
30
0
10
22.985314
20
-5.901582
30
0
10
23.005638
20
-5.906081
30
0
10
23.044241
20
-5.913541
30
0
10
23.101292
20
-5.922942
30
0
10
23.176914
20
-5.933257
30
0
10
23.271188
20
-5.943455
30
0
10
23.384154
20
-5.952501
30
0
10
23.515805
20
-5.959358
30
0
10
23.666093
20
-5.962988
30
0
10
23.834926
20
-5.962355
30
0
10
24.022169
20
-5.956428
30
0
10
24.227643
20
-5.944177
30
0
10
24.451127
20
-5.924582
30
0
10
24.692357
20
-5.896627
30
0
10
24.951025
20
-5.859309
30
0
10
25.226783
20
-5.811634
30
0
10
25.519239
20
-5.75262
30
0
10
25.827962
20
-5.681302
30
0
10
26.152478
20
-5.596727
30
0
10
26.492274
20
-5.497963
30
0
10
26.66773
20
-5.442972
30
0
10
26.712161
20
-5.428621
30
0
10
26.723304
20
-5.424995
30
0
10
26.724698
20
-5.424541
30
0
10
26.725089
20
-5.424252
30
0
10
26.965682
20
-4.062625
30
0
10
26.965413
20
-4.062219
30
0
10
26.964259
20
-4.061314
30
0
10
26.955034
20
-4.054089
30
0
10
26.918211
20
-4.025381
30
0
10
26.772223
20
-3.913594
30
0
10
26.486848
20
-3.704365
30
0
10
26.210965
20
-3.513703
30
0
10
25.945376
20
-3.340906
30
0
10
25.690852
20
-3.185244
30
0
10
25.44813
20
-3.045956
30
0
10
25.217913
20
-2.922255
30
0
10
25.00087
20
-2.813326
30
0
10
24.797633
20
-2.718331
30
0
10
24.608799
20
-2.636408
30
0
10
24.434925
20
-2.566673
30
0
10
24.276532
20
-2.508222
30
0
10
24.1341
20
-2.46013
30
0
10
24.008071
20
-2.421455
30
0
10
23.898846
20
-2.391241
30
0
10
23.806785
20
-2.368515
30
0
10
23.732207
20
-2.352291
30
0
10
23.675389
20
-2.341572
30
0
10
23.636567
20
-2.335351
30
0
10
23.615932
20
-2.332613
30
0
10
22.815977
20
-2.253558
30
0
8
gear
0
CIRCLE
5
2001
100
AcDbEntity
100
AcDbCircle
10
25.176271
20
1.928177
30
0
40
0.79285
8
gear_guides
0
CIRCLE
5
2002
100
AcDbEntity
100
AcDbCircle
10
0
20
0
30
0
40
25.25
8
gear_guides
0
CIRCLE
5
2003
100
AcDbEntity
100
AcDbCircle
10
0
20
0
30
0
40
27.27
8
gear_guides
0
CIRCLE
5
2004
100
AcDbEntity
100
AcDbCircle
10
0
20
0
30
0
40
23.727239
8
gear_guides
0
LINE
5
2005
100
AcDbEntity
100
AcDbLine
10
1.6
20
0
30
0
11
-1.6
21
0
31
0
8
gear_guides
0
LINE
5
2006
100
AcDbEntity
100
AcDbLine
10
0
20
1.6
30
0
11
0
21
-1.6
31
0
8
gear_guides
0
LWPOLYLINE
5
2007
100
AcDbEntity
100
AcDbPolyline
66
1
90
11
70
0
43
0
10
-14.510949
20
9.934219
30
0
10
-14.405641
20
9.461551
30
0
10
-14.584447
20
9.183535
30
0
10
-14.757889
20
8.902142
30
0
10
-15.22965
20
8.792843
30
0
10
-15.837146
20
9.14358
30
0
10
-15.959203
20
9.626789
30
0
10
-15.771643
20
9.931089
30
0
10
-15.578281
20
10.231735
30
0
10
-15.089776
20
10.330485
30
0
10
-14.510949
20
9.934219
30
0
8
gear_texts
0
LWPOLYLINE
5
2008
100
AcDbEntity
100
AcDbPolyline
66
1
90
2
70
0
43
0
10
-14.068545
20
12.224863
30
0
10
-13.009549
20
11.304648
30
0
8
gear_texts
0
LWPOLYLINE
5
2009
100
AcDbEntity
100
AcDbPolyline
66
1
90
6
70
0
43
0
10
-13.539047
20
11.764756
30
0
10
-13.493072
20
11.278002
30
0
10
-13.433506
20
10.797423
30
0
10
-13.638111
20
10.537806
30
0
10
-14.119302
20
10.483398
30
0
10
-14.964109
20
11.110656
30
0
8
gear_texts
0
LWPOLYLINE
5
2010
100
AcDbEntity
100
AcDbPolyline
66
1
90
4
70
0
43
0
10
-11.862054
20
12.982604
30
0
10
-11.867351
20
12.498376
30
0
10
-12.351204
20
12.51815
30
0
10
-13.582897
20
13.766491
30
0
8
gear_texts
0
LWPOLYLINE
5
2011
100
AcDbEntity
100
AcDbPolyline
66
1
90
5
70
0
43
0
10
-12.571802
20
13.759398
30
0
10
-12.833371
20
13.515762
30
0
10
-13.09022
20
13.267154
30
0
10
-13.342253
20
13.013667
30
0
10
-13.589379
20
12.755392
30
0
8
gear_texts
0
LWPOLYLINE
5
2012
100
AcDbEntity
100
AcDbPolyline
66
1
90
2
70
0
43
0
10
-10.676016
20
12.624516
30
0
10
-12.034888
20
14.231399
30
0
8
gear_texts
0
LWPOLYLINE
5
2013
100
AcDbEntity
100
AcDbPolyline
66
1
90
10
70
0
43
0
10
-11.80841
20
13.963585
30
0
10
-11.759741
20
14.459589
30
0
10
-11.480269
20
14.682461
30
0
10
-11.196573
20
14.899933
30
0
10
-10.703472
20
14.827539
30
0
10
-10.292899
20
14.258771
30
0
10
-10.353762
20
13.778354
30
0
10
-10.616102
20
13.577253
30
0
10
-10.874538
20
13.371157
30
0
10
-11.128974
20
13.160143
30
0
8
gear_texts
0
LWPOLYLINE
5
2014
100
AcDbEntity
100
AcDbPolyline
66
1
90
2
70
0
43
0
10
-9.101414
20
16.264547
30
0
10
-8.416314
20
15.040249
30
0
8
gear_texts
0
LWPOLYLINE
5
2015
100
AcDbEntity
100
AcDbPolyline
66
1
90
6
70
0
43
0
10
-8.758864
20
15.652398
30
0
10
-8.880326
20
15.178806
30
0
10
-8.986909
20
14.706424
30
0
10
-9.267299
20
14.531366
30
0
10
-9.738511
20
14.64301
30
0
10
-10.3212
20
15.519152
30
0
8
gear_texts
0
LWPOLYLINE
5
2016
100
AcDbEntity
100
AcDbPolyline
66
1
90
4
70
0
43
0
10
-6.768682
20
16.230874
30
0
10
-6.937536
20
15.777009
30
0
10
-7.386149
20
15.959359
30
0
10
-8.122714
20
17.550865
30
0
8
gear_texts
0
LWPOLYLINE
5
2017
100
AcDbEntity
100
AcDbPolyline
66
1
90
5
70
0
43
0
10
-7.173676
20
17.202024
30
0
10
-7.502262
20
17.061281
30
0
10
-7.828088
20
16.914263
30
0
10
-8.151034
20
16.761023
30
0
10
-8.470982
20
16.601617
30
0
8
gear_texts
0
LWPOLYLINE
5
2018
100
AcDbEntity
100
AcDbPolyline
66
1
90
5
70
0
43
0
10
-4.124593
20
16.734132
30
0
10
-4.544278
20
18.43686
30
0
10
-4.267246
20
18.862714
30
0
10
-3.904707
20
18.941083
30
0
10
-3.476517
20
18.667676
30
0
8
gear_texts
0
LWPOLYLINE
5
2019
100
AcDbEntity
100
AcDbPolyline
66
1
90
4
70
0
43
0
10
-3.69226
20
17.91054
30
0
10
-4.035074
20
17.836435
30
0
10
-4.376404
20
17.755769
30
0
10
-4.716124
20
17.668571
30
0
8
gear_texts
0
LWPOLYLINE
5
2020
100
AcDbEntity
100
AcDbPolyline
66
1
90
11
70
0
43
0
10
-1.213257
20
17.543783
30
0
10
-1.518589
20
17.167915
30
0
10
-1.84756
20
17.135634
30
0
10
-2.175852
20
17.097049
30
0
10
-2.554288
20
17.399194
30
0
10
-2.656176
20
18.09323
30
0
10
-2.35297
20
18.488774
30
0
10
-1.997955
20
18.5305
30
0
10
-1.642204
20
18.565409
30
0
10
-1.261652
20
18.243587
30
0
10
-1.213257
20
17.543783
30
0
8
gear_texts
0
LWPOLYLINE
5
2021
100
AcDbEntity
100
AcDbPolyline
66
1
90
2
70
0
43
0
10
0.857612
20
18.618156
30
0
10
0.793056
20
17.216692
30
0
8
gear_texts
0
LWPOLYLINE
5
2022
100
AcDbEntity
100
AcDbPolyline
66
1
90
6
70
0
43
0
10
0.825334
20
17.917424
30
0
10
0.47214
20
17.579346
30
0
10
0.132221
20
17.234441
30
0
10
-0.19833
20
17.233807
30
0
10
-0.539569
20
17.577406
30
0
10
-0.571853
20
18.629123
30
0
8
gear_texts
0
LWPOLYLINE
5
2023
100
AcDbEntity
100
AcDbPolyline
66
1
90
2
70
0
43
0
10
1.452724
20
17.173614
30
0
10
1.570978
20
18.571572
30
0
8
gear_texts
0
LWPOLYLINE
5
2024
100
AcDbEntity
100
AcDbPolyline
66
1
90
5
70
0
43
0
10
1.511851
20
17.872593
30
0
10
1.890599
20
18.189169
30
0
10
2.282032
20
18.497664
30
0
10
2.636365
20
18.450496
30
0
10
2.933467
20
18.050347
30
0
8
gear_texts
0
LWPOLYLINE
5
2025
100
AcDbEntity
100
AcDbPolyline
66
1
90
4
70
0
43
0
10
4.795374
20
16.919241
30
0
10
4.380858
20
16.668878
30
0
10
4.143003
20
17.090695
30
0
10
4.556153
20
18.795021
30
0
8
gear_texts
0
LWPOLYLINE
5
2026
100
AcDbEntity
100
AcDbPolyline
66
1
90
5
70
0
43
0
10
5.082298
20
17.931578
30
0
10
4.737467
20
18.02575
30
0
10
4.390893
20
18.113291
30
0
10
4.042704
20
18.194169
30
0
10
3.693028
20
18.268355
30
0
8
gear_texts
0
LWPOLYLINE
5
2027
100
AcDbEntity
100
AcDbPolyline
66
1
90
6
70
0
43
0
10
5.549203
20
17.056425
30
0
10
5.990183
20
17.278251
30
0
10
6.441671
20
17.489314
30
0
10
6.775901
20
17.362558
30
0
10
6.973883
20
16.905182
30
0
10
6.572618
20
15.932486
30
0
8
gear_texts
0
LWPOLYLINE
5
2028
100
AcDbEntity
100
AcDbPolyline
66
1
90
2
70
0
43
0
10
5.332179
20
16.389365
30
0
10
5.98325
20
18.390543
30
0
8
gear_texts
0
LWPOLYLINE
5
2029
100
AcDbEntity
100
AcDbPolyline
66
1
90
15
70
0
43
0
10
9.763344
20
14.202836
30
0
10
9.489163
20
14.387467
30
0
10
9.211491
20
14.566807
30
0
10
8.93043
20
14.740788
30
0
10
8.822036
20
15.212758
30
0
10
9.173938
20
15.81958
30
0
10
9.657381
20
15.94071
30
0
10
9.96132
20
15.752567
30
0
10
10.261594
20
15.558629
30
0
10
10.359407
20
15.069934
30
0
10
9.564656
20
13.913803
30
0
10
9.102947
20
13.801887
30
0
10
8.836576
20
13.973927
30
0
10
8.566955
20
14.140827
30
0
10
8.470134
20
14.605937
30
0
8
gear_texts
0
LWPOLYLINE
5
2030
100
AcDbEntity
100
AcDbPolyline
66
1
90
13
70
0
43
0
10
11.078411
20
13.202736
30
0
10
10.823168
20
13.412772
30
0
10
10.563943
20
13.617875
30
0
10
10.510459
20
14.099169
30
0
10
10.929711
20
14.661571
30
0
10
11.423864
20
14.72639
30
0
10
11.70419
20
14.504592
30
0
10
11.98021
20
14.277458
30
0
10
12.021262
20
13.780765
30
0
10
11.52931
20
13.740097
30
0
10
11.263679
20
13.958682
30
0
10
10.993904
20
14.172133
30
0
10
10.720085
20
14.38037
30
0
8
gear_texts
0
LWPOLYLINE
5
2031
100
AcDbEntity
100
AcDbPolyline
66
1
90
10
70
0
43
0
10
12.775923
20
12.084375
30
0
10
12.291676
20
12.081313
30
0
10
12.057716
20
12.314824
30
0
10
12.059849
20
12.799077
30
0
10
12.540904
20
13.309619
30
0
10
13.039232
20
13.317269
30
0
10
13.292236
20
13.06475
30
0
10
13.285542
20
12.566408
30
0
10
12.775923
20
12.084375
30
0
10
12.745946
20
11.601047
30
0
8
gear_texts
0
LWPOLYLINE
5
2032
100
AcDbEntity
100
AcDbPolyline
66
1
90
2
70
0
43
0
10
13.181464
20
11.103713
30
0
10
14.254455
20
12.007571
30
0
8
gear_texts
0
LWPOLYLINE
5
2033
100
AcDbEntity
100
AcDbPolyline
66
1
90
5
70
0
43
0
10
13.717959
20
11.555642
30
0
10
14.209585
20
11.511209
30
0
10
14.704453
20
11.452087
30
0
10
14.92138
20
11.167975
30
0
10
14.848041
20
10.675014
30
0
8
gear_texts
0
LWPOLYLINE
5
2034
100
AcDbEntity
100
AcDbPolyline
66
1
90
5
70
0
43
0
10
16.7543
20
7.32896
30
0
10
16.610662
20
7.64893
30
0
10
16.460914
20
7.966087
30
0
10
16.305111
20
8.280314
30
0
10
16.14331
20
8.591495
30
0
8
gear_texts
0
LWPOLYLINE
5
2035
100
AcDbEntity
100
AcDbPolyline
66
1
90
5
70
0
43
0
10
17.917589
20
3.657902
30
0
10
17.844141
20
4.000857
30
0
10
17.76413
20
4.342341
30
0
10
17.677584
20
4.682228
30
0
10
17.584536
20
5.020392
30
0
8
gear_texts
0
LWPOLYLINE
5
2036
100
AcDbEntity
100
AcDbPolyline
66
1
90
2
70
0
43
0
10
17.082718
20
4.175774
30
0
10
18.445542
20
4.508909
30
0
8
gear_texts
0
LWPOLYLINE
5
2037
100
AcDbEntity
100
AcDbPolyline
66
1
90
5
70
0
43
0
10
18.604888
20
3.798215
30
0
10
18.186382
20
4.077592
30
0
10
17.76413
20
4.342341
30
0
10
17.338538
20
4.592425
30
0
10
16.910013
20
4.827816
30
0
8
gear_texts
0
LWPOLYLINE
5
2038
100
AcDbEntity
100
AcDbPolyline
66
1
90
5
70
0
43
0
10
17.23029
20
3.517589
30
0
10
17.501901
20
3.924123
30
0
10
17.76413
20
4.342341
30
0
10
18.01663
20
4.77203
30
0
10
18.259059
20
5.212969
30
0
8
gear_texts
0
LWPOLYLINE
5
2039
100
AcDbEntity
100
AcDbPolyline
66
1
90
9
70
0
43
0
10
17.487934
20
1.851622
30
0
10
17.101191
20
2.143057
30
0
10
17.056946
20
2.470634
30
0
10
17.352513
20
2.854229
30
0
10
18.736861
20
3.081933
30
0
10
19.139636
20
2.772304
30
0
10
19.189284
20
2.404729
30
0
10
18.883086
20
1.99934
30
0
10
17.487934
20
1.851622
30
0
8
gear_texts
0
LWPOLYLINE
5
2040
100
AcDbEntity
100
AcDbPolyline
66
1
90
7
70
0
43
0
10
17.139146
20
-1.814692
30
0
10
19.231873
20
-2.03627
30
0
10
18.568524
20
-1.606594
30
0
10
17.896026
20
-1.203133
30
0
10
18.616477
20
-0.893319
30
0
10
19.33137
20
-0.556301
30
0
10
17.227816
20
-0.495767
30
0
8
gear_texts
0
LWPOLYLINE
5
2041
100
AcDbEntity
100
AcDbPolyline
66
1
90
15
70
0
43
0
10
16.817419
20
-3.770655
30
0
10
16.886641
20
-3.447432
30
0
10
16.949651
20
-3.122942
30
0
10
17.006426
20
-2.797303
30
0
10
17.056946
20
-2.470634
30
0
10
17.751176
20
-2.571191
30
0
10
18.044687
20
-2.968081
30
0
10
17.984446
20
-3.313601
30
0
10
17.917589
20
-3.657902
30
0
10
18.186382
20
-4.077592
30
0
10
18.528623
20
-4.154326
30
0
10
18.948537
20
-3.868372
30
0
10
19.019241
20
-3.50426
30
0
10
19.082948
20
-3.138859
30
0
10
18.792521
20
-2.722026
30
0
8
gear_texts
0
LWPOLYLINE
5
2042
100
AcDbEntity
100
AcDbPolyline
66
1
90
2
70
0
43
0
10
16.999492
20
-4.502623
30
0
10
16.660445
20
-4.41282
30
0
8
gear_texts
0
LWPOLYLINE
5
2043
100
AcDbEntity
100
AcDbPolyline
66
1
90
9
70
0
43
0
10
16.490258
20
-6.109641
30
0
10
16.273231
20
-5.676739
30
0
10
16.379108
20
-5.363603
30
0
10
16.814313
20
-5.151232
30
0
10
18.155725
20
-5.562187
30
0
10
18.379034
20
-6.018511
30
0
10
18.260229
20
-6.369882
30
0
10
17.805817
20
-6.597056
30
0
10
16.490258
20
-6.109641
30
0
8
gear_texts
0
LWPOLYLINE
5
2044
100
AcDbEntity
100
AcDbPolyline
66
1
90
15
70
0
43
0
10
15.366942
20
-7.803879
30
0
10
15.513781
20
-7.507732
30
0
10
15.654913
20
-7.208824
30
0
10
15.790286
20
-6.907264
30
0
10
15.919851
20
-6.603163
30
0
10
16.567801
20
-6.871917
30
0
10
16.7543
20
-7.32896
30
0
10
16.610662
20
-7.64893
30
0
10
16.460914
20
-7.966087
30
0
10
16.617834
20
-8.439126
30
0
10
16.930557
20
-8.597938
30
0
10
17.408047
20
-8.424443
30
0
10
17.566412
20
-8.089037
30
0
10
17.718315
20
-7.750656
30
0
10
17.539725
20
-7.275047
30
0
8
gear_texts
0
LWPOLYLINE
5
2045
100
AcDbEntity
100
AcDbPolyline
66
1
90
7
70
0
43
0
10
15.027181
20
-12.173544
30
0
10
13.39199
20
-10.848873
30
0
10
14.012663
20
-10.913309
30
0
10
14.640581
20
-10.957811
30
0
10
15.275206
20
-10.982125
30
0
10
15.915992
20
-10.986016
30
0
10
14.184084
20
-9.790566
30
0
8
gear_texts
0
LWPOLYLINE
5
2046
100
AcDbEntity
100
AcDbPolyline
66
1
90
5
70
0
43
0
10
13.039232
20
-13.317269
30
0
10
13.292236
20
-13.06475
30
0
10
13.540351
20
-12.807425
30
0
10
13.783485
20
-12.545389
30
0
10
14.021548
20
-12.278739
30
0
8
gear_texts
0
LWPOLYLINE
5
2047
100
AcDbEntity
100
AcDbPolyline
66
1
90
5
70
0
43
0
10
12.548474
20
-12.816047
30
0
10
12.791956
20
-12.573032
30
0
10
13.030732
20
-12.325392
30
0
10
13.264715
20
-12.073218
30
0
10
13.493819
20
-11.816603
30
0
8
gear_texts
0
LWPOLYLINE
5
2048
100
AcDbEntity
100
AcDbPolyline
66
1
90
15
70
0
43
0
10
10.563943
20
-13.617875
30
0
10
10.823168
20
-13.412772
30
0
10
11.078411
20
-13.202736
30
0
10
11.329579
20
-12.987843
30
0
10
11.57658
20
-12.768173
30
0
10
12.047755
20
-13.287847
30
0
10
12.021262
20
-13.780765
30
0
10
11.75476
20
-14.008778
30
0
10
11.483934
20
-14.231637
30
0
10
11.423864
20
-14.72639
30
0
10
11.638844
20
-15.003519
30
0
10
12.144701
20
-15.050502
30
0
10
12.431109
20
-14.814819
30
0
10
12.712946
20
-14.573687
30
0
10
12.754518
20
-14.067358
30
0
8
gear_texts
0
LWPOLYLINE
5
2049
100
AcDbEntity
100
AcDbPolyline
66
1
90
15
70
0
43
0
10
10.020856
20
-16.540671
30
0
10
10.336234
20
-16.345446
30
0
10
10.64781
20
-16.144209
30
0
10
10.95547
20
-15.937033
30
0
10
11.2591
20
-15.723995
30
0
10
10.850711
20
-15.153657
30
0
10
10.558095
20
-15.358967
30
0
10
10.261594
20
-15.558629
30
0
10
9.96132
20
-15.752567
30
0
10
9.475643
20
-15.64073
30
0
10
9.112168
20
-15.040769
30
0
10
9.211491
20
-14.566807
30
0
10
9.489163
20
-14.387467
30
0
10
9.763344
20
-14.202836
30
0
10
10.238128
20
-14.298149
30
0
8
gear_texts
0
LWPOLYLINE
5
2050
100
AcDbEntity
100
AcDbPolyline
66
1
90
10
70
0
43
0
10
6.876966
20
-15.803505
30
0
10
6.572618
20
-15.932486
30
0
10
6.265851
20
-16.055608
30
0
10
5.95678
20
-16.172823
30
0
10
5.760406
20
-16.615476
30
0
10
6.21996
20
-17.941025
30
0
10
6.684116
20
-18.14756
30
0
10
7.030926
20
-18.016033
30
0
10
7.375149
20
-17.877878
30
0
10
7.716659
20
-17.733148
30
0
8
gear_texts
0
LWPOLYLINE
5
2051
100
AcDbEntity
100
AcDbPolyline
66
1
90
2
70
0
43
0
10
7.375149
20
-17.877878
30
0
10
6.572618
20
-15.932486
30
0
8
gear_texts
0
LWPOLYLINE
5
2052
100
AcDbEntity
100
AcDbPolyline
66
1
90
5
70
0
43
0
10
4.042704
20
-18.194169
30
0
10
4.390893
20
-18.113291
30
0
10
4.737467
20
-18.02575
30
0
10
5.082298
20
-17.931578
30
0
10
5.42526
20
-17.83081
30
0
8
gear_texts
0
LWPOLYLINE
5
2053
100
AcDbEntity
100
AcDbPolyline
66
1
90
5
70
0
43
0
10
3.890548
20
-17.509395
30
0
10
4.225633
20
-17.43156
30
0
10
4.559163
20
-17.347314
30
0
10
4.891016
20
-17.256687
30
0
10
5.221069
20
-17.159712
30
0
8
gear_texts
0
LWPOLYLINE
5
2054
100
AcDbEntity
100
AcDbPolyline
66
1
90
15
70
0
43
0
10
1.99938
20
-19.235744
30
0
10
2.367921
20
-19.193861
30
0
10
2.73559
20
-19.144918
30
0
10
3.102254
20
-19.088933
30
0
10
3.467776
20
-19.025927
30
0
10
3.341993
20
-18.335821
30
0
10
2.989729
20
-18.396542
30
0
10
2.636365
20
-18.450496
30
0
10
2.282032
20
-18.497664
30
0
10
1.890599
20
-18.189169
30
0
10
1.818077
20
-17.491453
30
0
10
2.110254
20
-17.10527
30
0
10
2.437916
20
-17.061653
30
0
10
2.76468
20
-17.01176
30
0
10
3.153319
20
-17.300662
30
0
8
gear_texts
0
LWPOLYLINE
5
2055
100
AcDbEntity
100
AcDbPolyline
66
1
90
9
70
0
43
0
10
0.134912
20
-17.585168
30
0
10
0.462724
20
-17.228735
30
0
10
0.793056
20
-17.216692
30
0
10
1.145952
20
-17.548308
30
0
10
1.237374
20
-18.948277
30
0
10
0.88989
20
-19.318888
30
0
10
0.519223
20
-19.332402
30
0
10
0.145675
20
-18.988077
30
0
10
0.134912
20
-17.585168
30
0
8
gear_texts
0
LWPOLYLINE
5
2056
100
AcDbEntity
100
AcDbPolyline
66
1
90
2
70
0
43
0
10
-0.539569
20
-17.577406
30
0
10
-0.528808
20
-17.226833
30
0
8
gear_texts
0
LWPOLYLINE
5
2057
100
AcDbEntity
100
AcDbPolyline
66
1
90
15
70
0
43
0
10
-2.809008
20
-19.134284
30
0
10
-2.441529
20
-19.184637
30
0
10
-2.073152
20
-19.227933
30
0
10
-1.704012
20
-19.264156
30
0
10
-1.334245
20
-19.293293
30
0
10
-1.28585
20
-18.593489
30
0
10
-1.642204
20
-18.565409
30
0
10
-1.997955
20
-18.5305
30
0
10
-2.35297
20
-18.488774
30
0
10
-2.656176
20
-18.09323
30
0
10
-2.554288
20
-17.399194
30
0
10
-2.175852
20
-17.097049
30
0
10
-1.84756
20
-17.135634
30
0
10
-1.518589
20
-17.167915
30
0
10
-1.213257
20
-17.543783
30
0
8
gear_texts
0
LWPOLYLINE
5
2058
100
AcDbEntity
100
AcDbPolyline
66
1
90
2
70
0
43
0
10
-3.155445
20
-16.94363
30
0
10
-3.412302
20
-18.322866
30
0
8
gear_texts
0
LWPOLYLINE
5
2059
100
AcDbEntity
100
AcDbPolyline
66
1
90
6
70
0
43
0
10
-3.348088
20
-17.978057
30
0
10
-3.763076
20
-18.254054
30
0
10
-4.035074
20
-17.836435
30
0
10
-4.460341
20
-18.096315
30
0
10
-4.716124
20
-17.668571
30
0
10
-4.444766
20
-16.651951
30
0
8
gear_texts
0
LWPOLYLINE
5
2060
100
AcDbEntity
100
AcDbPolyline
66
1
90
2
70
0
43
0
10
-3.957684
20
-17.494342
30
0
10
-4.035074
20
-17.836435
30
0
8
gear_texts
0
LWPOLYLINE
5
2061
100
AcDbEntity
100
AcDbPolyline
66
1
90
2
70
0
43
0
10
-5.08009
20
-16.469247
30
0
10
-5.493617
20
-17.809868
30
0
8
gear_texts
0
LWPOLYLINE
5
2062
100
AcDbEntity
100
AcDbPolyline
66
1
90
6
70
0
43
0
10
-5.390235
20
-17.474713
30
0
10
-5.834169
20
-17.701235
30
0
10
-6.056416
20
-17.255146
30
0
10
-6.50871
20
-17.464476
30
0
10
-6.713687
20
-17.010192
30
0
10
-6.327393
20
-16.031454
30
0
8
gear_texts
0
LWPOLYLINE
5
2063
100
AcDbEntity
100
AcDbPolyline
66
1
90
2
70
0
43
0
10
-5.940258
20
-16.924202
30
0
10
-6.056416
20
-17.255146
30
0
8
gear_texts
0
LWPOLYLINE
5
2064
100
AcDbEntity
100
AcDbPolyline
66
1
90
11
70
0
43
0
10
-8.930139
20
-15.958473
30
0
10
-9.234553
20
-15.784273
30
0
10
-9.535569
20
-15.604267
30
0
10
-9.833078
20
-15.418522
30
0
10
-10.3212
20
-15.519152
30
0
10
-10.51543
20
-15.811199
30
0
10
-10.398857
20
-16.305678
30
0
10
-10.08423
20
-16.502111
30
0
10
-9.765893
20
-16.692474
30
0
10
-9.443965
20
-16.876697
30
0
10
-8.416314
20
-15.040249
30
0
8
gear_texts
0
LWPOLYLINE
5
2065
100
AcDbEntity
100
AcDbPolyline
66
1
90
7
70
0
43
0
10
-10.087612
20
-13.974387
30
0
10
-10.498186
20
-14.543155
30
0
10
-11.196573
20
-14.899933
30
0
10
-11.912352
20
-15.235066
30
0
10
-11.759741
20
-14.459589
30
0
10
-11.581931
20
-13.695771
30
0
10
-11.128974
20
-13.160143
30
0
8
gear_texts
0
LWPOLYLINE
5
2066
100
AcDbEntity
100
AcDbPolyline
66
1
90
5
70
0
43
0
10
-10.498186
20
-14.543155
30
0
10
-10.775167
20
-14.339144
30
0
10
-11.048185
20
-14.129857
30
0
10
-11.31714
20
-13.915373
30
0
10
-11.581931
20
-13.695771
30
0
8
gear_texts
0
LWPOLYLINE
5
2067
100
AcDbEntity
100
AcDbPolyline
66
1
90
5
70
0
43
0
10
-13.589379
20
-12.755392
30
0
10
-13.342253
20
-13.013667
30
0
10
-13.09022
20
-13.267154
30
0
10
-12.833371
20
-13.515762
30
0
10
-12.571802
20
-13.759398
30
0
8
gear_texts
0
LWPOLYLINE
5
2068
100
AcDbEntity
100
AcDbPolyline
66
1
90
5
70
0
43
0
10
-13.077915
20
-12.275317
30
0
10
-12.840091
20
-12.523871
30
0
10
-12.597543
20
-12.767818
30
0
10
-12.350361
20
-13.007069
30
0
10
-12.098637
20
-13.241535
30
0
8
gear_texts
0
LWPOLYLINE
5
2069
100
AcDbEntity
100
AcDbPolyline
66
1
90
15
70
0
43
0
10
-13.8377
20
-10.274312
30
0
10
-13.638111
20
-10.537806
30
0
10
-13.433506
20
-10.797423
30
0
10
-13.22396
20
-11.053068
30
0
10
-13.009549
20
-11.304648
30
0
10
-13.539047
20
-11.764756
30
0
10
-14.031297
20
-11.727871
30
0
10
-14.253636
20
-11.456618
30
0
10
-14.470733
20
-11.18115
30
0
10
-14.964109
20
-11.110656
30
0
10
-15.245711
20
-11.319743
30
0
10
-15.303355
20
-11.824495
30
0
10
-15.073767
20
-12.115812
30
0
10
-14.838634
20
-12.402673
30
0
10
-14.333294
20
-12.454917
30
0
8
gear_texts
0
LWPOLYLINE
5
2070
100
AcDbEntity
100
AcDbPolyline
66
1
90
9
70
0
43
0
10
-15.058218
20
-9.083304
30
0
10
-14.584447
20
-9.183535
30
0
10
-14.405641
20
-9.461551
30
0
10
-14.510949
20
-9.934219
30
0
10
-15.668602
20
-10.72675
30
0
10
-16.164601
20
-10.616827
30
0
10
-16.365241
20
-10.304865
30
0
10
-16.259532
20
-9.807951
30
0
10
-15.058218
20
-9.083304
30
0
8
gear_texts
0
ENDSEC
0
SECTION
2
OBJECTS
0
DICTIONARY
5
21D
330
0
100
AcDbDictionary
281
1
3
ACAD_CIP_PREVIOUS_PRODUCT_INFO
350
291
3
ACAD_COLOR
350
273
3
ACAD_DETAILVIEWSTYLE
350
27B
3
ACAD_GROUP
350
21E
3
ACAD_LAYOUT
350
272
3
ACAD_MATERIAL
350
221
3
ACAD_MLEADERSTYLE
350
276
3
ACAD_MLINESTYLE
350
26F
3
ACAD_PLOTSETTINGS
350
271
3
ACAD_PLOTSTYLENAME
350
21F
3
ACAD_SCALELIST
350
253
3
ACAD_SECTIONVIEWSTYLE
350
278
3
ACAD_TABLESTYLE
350
274
3
ACAD_VISUALSTYLE
350
23A
3
ACDB_RECOMPOSE_DATA
350
1057
3
AcDbVariableDictionary
350
29D
0
DICTIONARY
5
297
330
213
100
AcDbDictionary
280
1
281
1
3
ACAD_LAYERSTATES
360
298
0
DICTIONARY
5
292
330
265
100
AcDbDictionary
280
1
281
1
3
ADSK_XREC_LAYER_RECONCILED
360
293
0
XRECORD
5
291
102
{ACAD_REACTORS
330
21D
102
}
330
21D
100
AcDbXrecord
280
1
300
ACDMAC
300
2013
300
ACDMAC_F_S
0
DICTIONARY
5
273
102
{ACAD_REACTORS
330
21D
102
}
330
21D
100
AcDbDictionary
281
1
0
DICTIONARY
5
21E
102
{ACAD_REACTORS
330
21D
102
}
330
21D
100
AcDbDictionary
281
1
0
DICTIONARY
5
272
102
{ACAD_REACTORS
330
21D
102
}
330
21D
100
AcDbDictionary
281
1
3
Layout1
350
280
3
Model
350
284
0
DICTIONARY
5
221
102
{ACAD_REACTORS
330
21D
102
}
330
21D
100
AcDbDictionary
281
1
3
ByBlock
350
22A
3
ByLayer
350
222
3
Global
350
232
0
DICTIONARY
5
276
102
{ACAD_REACTORS
330
21D
102
}
330
21D
100
AcDbDictionary
281
1
3
Standard
350
277
0
DICTIONARY
5
26F
102
{ACAD_REACTORS
330
21D
102
}
330
21D
100
AcDbDictionary
281
1
3
Standard
350
270
0
DICTIONARY
5
271
102
{ACAD_REACTORS
330
21D
102
}
330
21D
100
AcDbDictionary
281
1
0
ACDBDICTIONARYWDFLT
5
21F
102
{ACAD_REACTORS
330
21D
102
}
330
21D
100
AcDbDictionary
281
1
3
Normal
350
220
100
AcDbDictionaryWithDefault
340
220
0
DICTIONARY
5
253
102
{ACAD_REACTORS
330
21D
102
}
330
21D
100
AcDbDictionary
281
1
3
A0
350
254
3
A1
350
255
3
A2
350
256
3
A3
350
257
3
A4
350
258
3
A5
350
259
3
A6
350
25A
3
A7
350
25B
3
A8
350
25C
3
A9
350
25D
3
B0
350
25E
3
B1
350
25F
3
B2
350
260
3
B3
350
261
3
B4
350
262
3
B5
350
263
3
B6
350
264
0
DICTIONARY
5
274
102
{ACAD_REACTORS
330
21D
102
}
330
21D
100
AcDbDictionary
281
1
3
Standard
350
275
0
DICTIONARY
5
23A
102
{ACAD_REACTORS
330
21D
102
}
330
21D
100
AcDbDictionary
281
1
3
2dWireframe
350
240
3
Basic
350
23F
3
Brighten
350
246
3
ColorChange
350
24A
3
Conceptual
350
243
3
Dim
350
245
3
EdgeColorOff
350
252
3
Facepattern
350
249
3
Flat
350
23B
3
FlatWithEdges
350
23C
3
Gouraud
350
23D
3
GouraudWithEdges
350
23E
3
Hidden
350
242
3
JitterOff
350
250
3
Linepattern
350
248
3
OverhangOff
350
251
3
Realistic
350
244
3
Shaded
350
24F
3
Shaded with edges
350
24E
3
Shades of Gray
350
24B
3
Sketchy
350
24C
3
Thicken
350
247
3
Wireframe
350
241
3
X-Ray
350
24D
0
XRECORD
5
1057
102
{ACAD_REACTORS
330
21D
102
}
330
21D
100
AcDbXrecord
280
1
90
1
330
275
0
DICTIONARY
5
29D
102
{ACAD_REACTORS
330
21D
102
}
330
21D
100
AcDbDictionary
281
1
3
CANNOSCALE
350
2A3
3
CMLEADERSTYLE
350
29F
3
CTABLESTYLE
350
29E
3
CVIEWDETAILSTYLE
350
2A0
3
CVIEWSECTIONSTYLE
350
2A1
3
LAYEREVAL
350
2A5
3
LAYERNOTIFY
350
2A6
3
LIGHTINGUNITS
350
2A4
3
MSLTSCALE
350
2A2
0
ENDSEC
0
EOF
