0
SECTION
2
HEADER
9
$ACADVER
1
AC1027
9
$ACADMAINTVER
70
8
9
$DWGCODEPAGE
3
ANSI_1252
9
$LASTSAVEDBY
1
macc
9
$REQUIREDVERSIONS
160
0
9
$INSBASE
10
0.0
20
0.0
30
0.0
9
$EXTMIN
10
1.000000000000000E+20
20
1.000000000000000E+20
30
1.000000000000000E+20
9
$EXTMAX
10
-1.000000000000000E+20
20
-1.000000000000000E+20
30
-1.000000000000000E+20
9
$LIMMIN
10
0.0
20
0.0
9
$LIMMAX
10
12.0
20
9.0
9
$MEASUREMENT
70
1
9
$CELWEIGHT
370
-1
9
$ENDCAPS
280
0
9
$JOINSTYLE
280
0
9
$LWDISPLAY
290
0
9
$INSUNITS
70
0
9
$HYPERLINKBASE
1

9
$STYLESHEET
1

9
$XEDIT
290
1
9
$CEPSNTYPE
380
0
9
$PSTYLEMODE
290
1
9
$EXTNAMES
290
1
9
$PSVPSCALE
40
0.0
9
$OLESTARTUP
290
0
9
$SORTENTS
280
127
9
$INDEXCTL
280
0
9
$HIDETEXT
280
0
9
$XCLIPFRAME
280
2
9
$HALOGAP
280
0
9
$OBSCOLOR
70
257
9
$OBSLTYPE
280
0
9
$INTERSECTIONDISPLAY
280
0
9
$INTERSECTIONCOLOR
70
257
9
$DIMASSOC
280
1
9
$PROJECTNAME
1

9
$CAMERADISPLAY
290
0
9
$LENSLENGTH
40
50.0
9
$CAMERAHEIGHT
40
0.0
9
$STEPSPERSEC
40
2.0
9
$STEPSIZE
40
6.0
9
$3DDWFPREC
40
2.0
9
$PSOLWIDTH
40
0.25
9
$PSOLHEIGHT
40
4.0
9
$LOFTANG1
40
1.570796326794896
9
$LOFTANG2
40
1.570796326794896
9
$LOFTMAG1
40
0.0
9
$LOFTMAG2
40
0.0
9
$LOFTPARAM
70
7
9
$LOFTNORMALS
280
1
9
$LATITUDE
40
37.795
9
$LONGITUDE
40
-122.394
9
$NORTHDIRECTION
40
0.0
9
$TIMEZONE
70
-8000
9
$LIGHTGLYPHDISPLAY
280
1
9
$TILEMODELIGHTSYNCH
280
1
9
$CMATERIAL
347
222
9
$SOLIDHIST
280
0
9
$SHOWHIST
280
1
9
$DWFFRAME
280
2
9
$DGNFRAME
280
0
9
$REALWORLDSCALE
290
1
9
$INTERFERECOLOR
62
1
9
$INTERFEREOBJVS
345
244
9
$INTERFEREVPVS
346
241
9
$CSHADOW
280
0
9
$SHADOWPLANELOCATION
40
0.0
0
ENDSEC
0
SECTION
2
CLASSES
0
CLASS
1
ACDBDICTIONARYWDFLT
2
AcDbDictionaryWithDefault
3
ObjectDBX Classes
90
0
91
1
280
0
281
0
0
CLASS
1
MATERIAL
2
AcDbMaterial
3
ObjectDBX Classes
90
1153
91
3
280
0
281
0
0
CLASS
1
VISUALSTYLE
2
AcDbVisualStyle
3
ObjectDBX Classes
90
4095
91
24
280
0
281
0
0
CLASS
1
SCALE
2
AcDbScale
3
ObjectDBX Classes
90
1153
91
17
280
0
281
0
0
CLASS
1
TABLESTYLE
2
AcDbTableStyle
3
ObjectDBX Classes
90
4095
91
1
280
0
281
0
0
CLASS
1
MLEADERSTYLE
2
AcDbMLeaderStyle
3
ACDB_MLEADERSTYLE_CLASS
90
4095
91
1
280
0
281
0
0
CLASS
1
ACDBSECTIONVIEWSTYLE
2
AcDbSectionViewStyle
3
ObjectDBX Classes
90
1025
91
1
280
0
281
0
0
CLASS
1
ACDBDETAILVIEWSTYLE
2
AcDbDetailViewStyle
3
ObjectDBX Classes
90
1025
91
1
280
0
281
0
0
CLASS
1
DICTIONARYVAR
2
AcDbDictionaryVar
3
ObjectDBX Classes
90
0
91
9
280
0
281
0
0
CLASS
1
CELLSTYLEMAP
2
AcDbCellStyleMap
3
ObjectDBX Classes
90
1152
91
2
280
0
281
0
0
ENDSEC
0
SECTION
2
TABLES
0
TABLE
2
VPORT
5
219
330
0
100
AcDbSymbolTable
70
1
0
VPORT
5
285
330
219
100
AcDbSymbolTableRecord
100
AcDbViewportTableRecord
2
*ACTIVE
70
0
10
0.0
20
0.0
11
1.0
21
1.0
12
60.85393284500712
22
1.602311788490737
13
0.0
23
0.0
14
0.5
24
0.5
15
0.5
25
0.5
16
0.0
26
0.0
36
1.0
17
0.0
27
0.0
37
0.0
40
135.7601553851812
41
1.367970660146699
42
50.0
43
0.0
44
0.0
50
0.0
51
0.0
71
0
72
1000
73
1
74
3
75
0
76
1
77
0
78
0
281
0
65
1
110
0.0
120
0.0
130
0.0
111
1.0
121
0.0
131
0.0
112
0.0
122
1.0
132
0.0
79
0
146
0.0
348
240
60
3
61
5
292
1
282
0
141
0.0
142
0.0
63
250
421
3355443
1001
ACAD_NAV_VCDISPLAY
1070
3
0
ENDTAB
0
TABLE
2
LTYPE
5
216
330
0
100
AcDbSymbolTable
70
2
0
LTYPE
5
26B
330
216
100
AcDbSymbolTableRecord
100
AcDbLinetypeTableRecord
2
ByBlock
70
0
3

72
65
73
0
40
0.0
0
LTYPE
5
26C
330
216
100
AcDbSymbolTableRecord
100
AcDbLinetypeTableRecord
2
ByLayer
70
0
3

72
65
73
0
40
0.0
0
LTYPE
5
26D
330
216
100
AcDbSymbolTableRecord
100
AcDbLinetypeTableRecord
2
CONTINUOUS
70
0
3
Solid line
72
65
73
0
40
0.0
0
LTYPE
5
103D
330
216
100
AcDbSymbolTableRecord
100
AcDbLinetypeTableRecord
2
DOTTED
70
0
3
Dotted . . . . . . . . . . . . . . . . . . . .
72
65
73
2
40
3.0
49
0.0
74
0
49
-3.0
74
0
0
ENDTAB
0
TABLE
2
LAYER
5
213
102
{ACAD_XDICTIONARY
360
297
102
}
330
0
100
AcDbSymbolTable
70
4
0
LAYER
5
265
102
{ACAD_XDICTIONARY
360
292
102
}
330
213
100
AcDbSymbolTableRecord
100
AcDbLayerTableRecord
2
0
70
0
62
7
6
CONTINUOUS
370
-3
390
220
347
232
348
0
0
LAYER
5
1900
330
213
100
AcDbSymbolTableRecord
100
AcDbLayerTableRecord
2
gear
70
0
62
7
6
CONTINUOUS
370
-3
390
220
347
232
348
0
1001
AcAecLayerStandard
1000

1000

1001
AcCmTransparency
1071
0
0
LAYER
5
1901
330
213
100
AcDbSymbolTableRecord
100
AcDbLayerTableRecord
2
gear_guides
70
0
62
5
6
CONTINUOUS
370
-3
390
220
347
232
348
0
1001
AcAecLayerStandard
1000

1000

1001
AcCmTransparency
1071
0
0
LAYER
5
1902
330
213
100
AcDbSymbolTableRecord
100
AcDbLayerTableRecord
2
gear_texts
70
0
62
7
6
CONTINUOUS
370
-3
390
220
347
232
348
0
1001
AcAecLayerStandard
1000

1000

1001
AcCmTransparency
1071
0
0
ENDTAB
0
TABLE
2
STYLE
5
214
330
0
100
AcDbSymbolTable
70
3
0
STYLE
5
266
330
214
100
AcDbSymbolTableRecord
100
AcDbTextStyleTableRecord
2
STANDARD
70
0
40
0.0
41
1.0
50
0.0
71
0
42
0.2
3
txt
4

0
STYLE
5
26A
330
214
100
AcDbSymbolTableRecord
100
AcDbTextStyleTableRecord
2
ANNOTATIVE
70
0
40
0.0
41
1.0
50
0.0
71
0
42
0.2
3
txt
4

1001
ACADANNOTATIVE
1000
AnnotativeData
1002
{
1070
1
1070
1
1002
}
0
STYLE
5
301
330
214
100
AcDbSymbolTableRecord
100
AcDbTextStyleTableRecord
2

70
1
40
0.0
41
1.0
50
0.0
71
0
42
0.2
3
ltypeshp.shx
4

0
ENDTAB
0
TABLE
2
VIEW
5
217
330
0
100
AcDbSymbolTable
70
1
0
ENDTAB
0
TABLE
2
UCS
5
218
330
0
100
AcDbSymbolTable
70
0
0
ENDTAB
0
TABLE
2
APPID
5
21A
330
0
100
AcDbSymbolTable
70
10
0
APPID
5
267
330
21A
100
AcDbSymbolTableRecord
100
AcDbRegAppTableRecord
2
ACAD
70
0
0
APPID
5
26E
330
21A
100
AcDbSymbolTableRecord
100
AcDbRegAppTableRecord
2
ACADANNOTATIVE
70
0
0
APPID
5
286
330
21A
100
AcDbSymbolTableRecord
100
AcDbRegAppTableRecord
2
ACADANNOPO
70
0
0
APPID
5
287
330
21A
100
AcDbSymbolTableRecord
100
AcDbRegAppTableRecord
2
ACAD_DSTYLE_DIMJAG
70
0
0
APPID
5
288
330
21A
100
AcDbSymbolTableRecord
100
AcDbRegAppTableRecord
2
ACAD_DSTYLE_DIMTALN
70
0
0
APPID
5
289
330
21A
100
AcDbSymbolTableRecord
100
AcDbRegAppTableRecord
2
ACAD_MLEADERVER
70
0
0
APPID
5
28A
330
21A
100
AcDbSymbolTableRecord
100
AcDbRegAppTableRecord
2
ACAD_NAV_VCDISPLAY
70
0
0
APPID
5
2E7
330
21A
100
AcDbSymbolTableRecord
100
AcDbRegAppTableRecord
2
ACAD_EXEMPT_FROM_CAD_STANDARDS
70
0
0
APPID
5
2FC
330
21A
100
AcDbSymbolTableRecord
100
AcDbRegAppTableRecord
2
AcAecLayerStandard
70
0
0
APPID
5
2FD
330
21A
100
AcDbSymbolTableRecord
100
AcDbRegAppTableRecord
2
AcCmTransparency
70
0
0
ENDTAB
0
TABLE
2
DIMSTYLE
5
21B
330
0
100
AcDbSymbolTable
70
2
100
AcDbDimStyleTable
71
1
340
268
0
DIMSTYLE
105
268
330
21B
100
AcDbSymbolTableRecord
100
AcDbDimStyleTableRecord
2
STANDARD
70
0
279
2
340
266
0
DIMSTYLE
105
269
330
21B
100
AcDbSymbolTableRecord
100
AcDbDimStyleTableRecord
2
ANNOTATIVE
70
0
40
0.0
279
2
340
266
1001
ACADANNOTATIVE
1000
AnnotativeData
1002
{
1070
1
1070
1
1002
}
0
ENDTAB
0
TABLE
2
BLOCK_RECORD
5
212
330
0
100
AcDbSymbolTable
70
2
0
BLOCK_RECORD
5
281
330
212
100
AcDbSymbolTableRecord
100
AcDbBlockTableRecord
2
*Model_Space
340
284
70
0
280
1
281
0
0
BLOCK_RECORD
5
27D
330
212
100
AcDbSymbolTableRecord
100
AcDbBlockTableRecord
2
*Paper_Space
340
280
70
0
280
1
281
0
0
BLOCK_RECORD
5
28C
330
212
100
AcDbSymbolTableRecord
100
AcDbBlockTableRecord
2
$MODEL_SPACE
340
0
70
0
280
1
281
0
0
BLOCK_RECORD
5
28E
330
212
100
AcDbSymbolTableRecord
100
AcDbBlockTableRecord
2
$PAPER_SPACE
340
0
70
0
280
1
281
0
0
ENDTAB
0
ENDSEC
0
SECTION
2
BLOCKS
0
BLOCK
5
282
330
281
100
AcDbEntity
8
0
100
AcDbBlockBegin
2
*Model_Space
70
0
10
0.0
20
0.0
30
0.0
3
*Model_Space
1

0
ENDBLK
5
283
330
281
100
AcDbEntity
8
0
100
AcDbBlockEnd
0
BLOCK
5
27E
330
27D
100
AcDbEntity
67
1
8
0
100
AcDbBlockBegin
2
*Paper_Space
70
0
10
0.0
20
0.0
30
0.0
3
*Paper_Space
1

0
ENDBLK
5
27F
330
27D
100
AcDbEntity
67
1
8
0
100
AcDbBlockEnd
0
BLOCK
5
28D
330
28C
100
AcDbEntity
8
0
100
AcDbBlockBegin
2
$MODEL_SPACE
70
0
10
0.0
20
0.0
30
0.0
3
$MODEL_SPACE
1

0
ENDBLK
5
21
330
28C
100
AcDbEntity
8
0
100
AcDbBlockEnd
0
BLOCK
5
28F
330
28E
100
AcDbEntity
8
0
100
AcDbBlockBegin
2
$PAPER_SPACE
70
0
10
0.0
20
0.0
30
0.0
3
$PAPER_SPACE
1

0
ENDBLK
5
5B
330
28E
100
AcDbEntity
8
0
100
AcDbBlockEnd
0
ENDSEC
0
SECTION
2
ENTITIES
0
LWPOLYLINE
5
2000
100
AcDbEntity
100
AcDbPolyline
66
1
90
1740
70
1
43
0
10
27.977
20
0
30
0
10
28.477023
20
0.00005
30
0
10
28.496287
20
0.000641
30
0
10
28.53093
20
0.002486
30
0
10
28.580896
20
0.006303
30
0
10
28.646103
20
0.012803
30
0
10
28.726445
20
0.022698
30
0
10
28.82179
20
0.036694
30
0
10
28.931984
20
0.055494
30
0
10
29.056847
20
0.079795
30
0
10
29.196173
20
0.110289
30
0
10
29.349734
20
0.147659
30
0
10
29.517277
20
0.192583
30
0
10
29.698526
20
0.24573
30
0
10
29.893181
20
0.307759
30
0
10
30.100919
20
0.37932
30
0
10
30.321393
20
0.461054
30
0
10
30.554236
20
0.553588
30
0
10
30.799055
20
0.65754
30
0
10
31.055438
20
0.773514
30
0
10
31.32295
20
0.902101
30
0
10
31.601136
20
1.043877
30
0
10
31.88952
20
1.199406
30
0
10
32.187604
20
1.369235
30
0
10
32.263581
20
1.413989
30
0
10
32.282664
20
1.425324
30
0
10
32.28744
20
1.428167
30
0
10
32.288037
20
1.428522
30
0
10
32.288399
20
1.428867
30
0
10
32.201393
20
2.766346
30
0
10
32.200989
20
2.766641
30
0
10
32.200351
20
2.766916
30
0
10
32.195247
20
2.769116
30
0
10
32.174856
20
2.777883
30
0
10
32.093722
20
2.812417
30
0
10
31.776147
20
2.942196
30
0
10
31.470045
20
3.059052
30
0
10
31.175835
20
3.163593
30
0
10
30.893918
20
3.256437
30
0
10
30.62467
20
3.338218
30
0
10
30.368447
20
3.409576
30
0
10
30.125579
20
3.471164
30
0
10
29.896373
20
3.523645
30
0
10
29.681115
20
3.56769
30
0
10
29.480064
20
3.603977
30
0
10
29.293457
20
3.633194
30
0
10
29.121506
20
3.656033
30
0
10
28.964397
20
3.673193
30
0
10
28.822295
20
3.685379
30
0
10
28.695337
20
3.693299
30
0
10
28.583636
20
3.697664
30
0
10
28.48728
20
3.69919
30
0
10
28.406333
20
3.698593
30
0
10
28.340834
20
3.69659
30
0
10
28.290795
20
3.693901
30
0
10
28.256205
20
3.691243
30
0
10
28.237026
20
3.689332
30
0
10
27.741211
20
3.624601
30
0
10
27.365635
20
5.816745
30
0
10
27.854721
20
5.920755
30
0
10
27.873442
20
5.925338
30
0
10
27.906944
20
5.934346
30
0
10
27.955025
20
5.948467
30
0
10
28.017455
20
5.968383
30
0
10
28.093984
20
5.994765
30
0
10
28.184336
20
6.028279
30
0
10
28.288213
20
6.069579
30
0
10
28.405295
20
6.11931
30
0
10
28.535236
20
6.178105
30
0
10
28.677672
20
6.246585
30
0
10
28.832214
20
6.325362
30
0
10
28.998452
20
6.415031
30
0
10
29.175957
20
6.516175
30
0
10
29.364277
20
6.629364
30
0
10
29.56294
20
6.755151
30
0
10
29.771455
20
6.894074
30
0
10
29.989311
20
7.046655
30
0
10
30.215979
20
7.2134
30
0
10
30.450911
20
7.394795
30
0
10
30.693542
20
7.591312
30
0
10
30.943287
20
7.803401
30
0
10
31.199548
20
8.031493
30
0
10
31.264559
20
8.091066
30
0
10
31.280869
20
8.10612
30
0
10
31.284949
20
8.109894
30
0
10
31.28546
20
8.110366
30
0
10
31.285742
20
8.110779
30
0
10
30.92256
20
9.400941
30
0
10
30.922103
20
9.401146
30
0
10
30.921422
20
9.401282
30
0
10
30.915972
20
9.402373
30
0
10
30.894204
20
9.406708
30
0
10
30.807663
20
9.423619
30
0
10
30.470046
20
9.484534
30
0
10
30.146336
20
9.535194
30
0
10
29.83682
20
9.576281
30
0
10
29.54176
20
9.608483
30
0
10
29.261393
20
9.632497
30
0
10
28.995933
20
9.649024
30
0
10
28.745567
20
9.658771
30
0
10
28.510459
20
9.662451
30
0
10
28.290747
20
9.660778
30
0
10
28.086545
20
9.654472
30
0
10
27.897942
20
9.644252
30
0
10
27.724999
20
9.630841
30
0
10
27.567756
20
9.614962
30
0
10
27.426225
20
9.597337
30
0
10
27.300395
20
9.578688
30
0
10
27.190227
20
9.559734
30
0
10
27.09566
20
9.541193
30
0
10
27.016606
20
9.523779
30
0
10
26.952955
20
9.508202
30
0
10
26.904568
20
9.495167
30
0
10
26.871286
20
9.485375
30
0
10
26.852924
20
9.479519
30
0
10
26.381402
20
9.313117
30
0
10
25.558261
20
11.379271
30
0
10
26.015034
20
11.582695
30
0
10
26.032393
20
11.59107
30
0
10
26.063291
20
11.606846
30
0
10
26.107384
20
11.630655
30
0
10
26.16431
20
11.663116
30
0
10
26.233681
20
11.704833
30
0
10
26.315091
20
11.7564
30
0
10
26.408111
20
11.818395
30
0
10
26.512295
20
11.891381
30
0
10
26.627173
20
11.975907
30
0
10
26.752258
20
12.072506
30
0
10
26.887044
20
12.181692
30
0
10
27.031006
20
12.303964
30
0
10
27.183603
20
12.439804
30
0
10
27.344274
20
12.589673
30
0
10
27.512444
20
12.754016
30
0
10
27.687519
20
12.933255
30
0
10
27.868891
20
13.127797
30
0
10
28.055938
20
13.338025
30
0
10
28.248021
20
13.564302
30
0
10
28.444491
20
13.80697
30
0
10
28.644684
20
14.066349
30
0
10
28.847921
20
14.342737
30
0
10
28.899126
20
14.414524
30
0
10
28.911949
20
14.43264
30
0
10
28.915156
20
14.43718
30
0
10
28.915557
20
14.437748
30
0
10
28.915748
20
14.438211
30
0
10
28.292262
20
15.624669
30
0
10
28.291773
20
15.624775
30
0
10
28.291078
20
15.624767
30
0
10
28.28552
20
15.6247
30
0
10
28.263327
20
15.624415
30
0
10
28.175161
20
15.622963
30
0
10
27.832256
20
15.612353
30
0
10
27.505088
20
15.594603
30
0
10
27.193793
20
15.57044
30
0
10
26.898486
20
15.540592
30
0
10
26.619253
20
15.505789
30
0
10
26.356157
20
15.466763
30
0
10
26.109236
20
15.424243
30
0
10
25.8785
20
15.378961
30
0
10
25.663938
20
15.331644
30
0
10
25.465509
20
15.283019
30
0
10
25.283152
20
15.23381
30
0
10
25.116777
20
15.184736
30
0
10
24.966271
20
15.136511
30
0
10
24.831498
20
15.089845
30
0
10
24.712294
20
15.045441
30
0
10
24.608475
20
15.003997
30
0
10
24.519829
20
14.966199
30
0
10
24.446124
20
14.932729
30
0
10
24.387102
20
14.904259
30
0
10
24.342483
20
14.881449
30
0
10
24.311964
20
14.864952
30
0
10
24.29522
20
14.855406
30
0
10
23.868599
20
14.594605
30
0
10
22.633868
20
16.444468
30
0
10
23.038366
20
16.738415
30
0
10
23.053604
20
16.750216
30
0
10
23.080546
20
16.772072
30
0
10
23.118726
20
16.804528
30
0
10
23.167659
20
16.848114
30
0
10
23.22684
20
16.903343
30
0
10
23.29575
20
16.970709
30
0
10
23.373848
20
17.050689
30
0
10
23.46058
20
17.143742
30
0
10
23.555374
20
17.250305
30
0
10
23.657642
20
17.3708
30
0
10
23.766781
20
17.505623
30
0
10
23.882176
20
17.655155
30
0
10
24.003196
20
17.819753
30
0
10
24.129196
20
17.999753
30
0
10
24.259522
20
18.195468
30
0
10
24.393505
20
18.407192
30
0
10
24.530466
20
18.635192
30
0
10
24.669717
20
18.879715
30
0
10
24.810557
20
19.140983
30
0
10
24.952281
20
19.419197
30
0
10
25.09417
20
19.71453
30
0
10
25.235503
20
20.027134
30
0
10
25.270663
20
20.107999
30
0
10
25.279439
20
20.128385
30
0
10
25.281632
20
20.133492
30
0
10
25.281907
20
20.134131
30
0
10
25.281997
20
20.134623
30
0
10
24.425457
20
21.165525
30
0
10
24.424957
20
21.165526
30
0
10
24.424279
20
21.165374
30
0
10
24.418856
20
21.164154
30
0
10
24.397207
20
21.159261
30
0
10
24.311269
20
21.139509
30
0
10
23.978064
20
21.057837
30
0
10
23.661735
20
20.972453
30
0
10
23.362267
20
20.884096
30
0
10
23.079619
20
20.793503
30
0
10
22.813724
20
20.701405
30
0
10
22.564491
20
20.60853
30
0
10
22.331806
20
20.515602
30
0
10
22.115527
20
20.423336
30
0
10
21.915491
20
20.332443
30
0
10
21.731508
20
20.243626
30
0
10
21.563367
20
20.157578
30
0
10
21.410831
20
20.074984
30
0
10
21.273641
20
19.996522
30
0
10
21.151515
20
19.922854
30
0
10
21.044148
20
19.854637
30
0
10
20.951214
20
19.792513
30
0
10
20.872364
20
19.737111
30
0
10
20.807228
20
19.689048
30
0
10
20.755415
20
19.648929
30
0
10
20.716514
20
19.617341
30
0
10
20.690092
20
19.594859
30
0
10
20.675699
20
19.58204
30
0
10
20.312624
20
19.238239
30
0
10
18.720267
20
20.790963
30
0
10
19.05481
20
21.162586
30
0
10
19.067262
20
21.177297
30
0
10
19.089071
20
21.204277
30
0
10
19.119669
20
21.243962
30
0
10
19.15847
20
21.29677
30
0
10
19.204876
20
21.363096
30
0
10
19.258273
20
21.443317
30
0
10
19.318036
20
21.537787
30
0
10
19.383526
20
21.646839
30
0
10
19.454092
20
21.770782
30
0
10
19.529073
20
21.909906
30
0
10
19.607796
20
22.064475
30
0
10
19.68958
20
22.234732
30
0
10
19.773733
20
22.420894
30
0
10
19.859556
20
22.623157
30
0
10
19.946343
20
22.841692
30
0
10
20.033378
20
23.076645
30
0
10
20.119942
20
23.328139
30
0
10
20.205311
20
23.59627
30
0
10
20.288753
20
23.881112
30
0
10
20.369536
20
24.182711
30
0
10
20.446921
20
24.501091
30
0
10
20.520171
20
24.836249
30
0
10
20.53775
20
24.922657
30
0
10
20.542096
20
24.944422
30
0
10
20.54318
20
24.949874
30
0
10
20.543315
20
24.950556
30
0
10
20.543301
20
24.951056
30
0
10
19.491142
20
25.781345
30
0
10
19.490652
20
25.781243
30
0
10
19.490021
20
25.780953
30
0
10
19.48497
20
25.778632
30
0
10
19.464812
20
25.769345
30
0
10
19.384859
20
25.732157
30
0
10
19.075915
20
25.582993
30
0
10
18.784252
20
25.433706
30
0
10
18.509698
20
25.285017
30
0
10
18.252061
20
25.137637
30
0
10
18.011125
20
24.992269
30
0
10
17.786649
20
24.849606
30
0
10
17.578369
20
24.71033
30
0
10
17.386
20
24.575114
30
0
10
17.209232
20
24.444618
30
0
10
17.047736
20
24.319489
30
0
10
16.90116
20
24.200362
30
0
10
16.769129
20
24.08786
30
0
10
16.65125
20
23.982588
30
0
10
16.547109
20
23.88514
30
0
10
16.456272
20
23.79609
30
0
10
16.378285
20
23.716001
30
0
10
16.312677
20
23.645416
30
0
10
16.258957
20
23.584861
30
0
10
16.216618
20
23.534846
30
0
10
16.185134
20
23.49586
30
0
10
16.163964
20
23.468376
30
0
10
16.15255
20
23.452845
30
0
10
15.86889
20
23.041069
30
0
10
13.9885
20
24.228793
30
0
10
14.238468
20
24.66185
30
0
10
14.247589
20
24.678829
30
0
10
14.263312
20
24.709754
30
0
10
14.28499
20
24.754933
30
0
10
14.311964
20
24.814654
30
0
10
14.343566
20
24.88918
30
0
10
14.379117
20
24.97875
30
0
10
14.417933
20
25.083581
30
0
10
14.459319
20
25.203865
30
0
10
14.502573
20
25.339772
30
0
10
14.54699
20
25.491445
30
0
10
14.591857
20
25.659004
30
0
10
14.636455
20
25.842543
30
0
10
14.680064
20
26.042134
30
0
10
14.721959
20
26.257821
30
0
10
14.761412
20
26.489624
30
0
10
14.797696
20
26.737539
30
0
10
14.830081
20
27.001534
30
0
10
14.857836
20
27.281555
30
0
10
14.880233
20
27.577521
30
0
10
14.896544
20
27.889326
30
0
10
14.906044
20
28.216838
30
0
10
14.90801
20
28.559901
30
0
10
14.90724
20
28.648075
30
0
10
14.906965
20
28.670269
30
0
10
14.906891
20
28.675827
30
0
10
14.906882
20
28.676521
30
0
10
14.906764
20
28.677008
30
0
10
13.704971
20
29.270398
30
0
10
13.704513
20
29.270195
30
0
10
13.703956
20
29.26978
30
0
10
13.699498
20
29.26646
30
0
10
13.681711
20
29.253184
30
0
10
13.611237
20
29.200187
30
0
10
13.340058
20
28.990049
30
0
10
13.085806
20
28.783384
30
0
10
12.848166
20
28.580861
30
0
10
12.626801
20
28.383136
30
0
10
12.421354
20
28.190851
30
0
10
12.231444
20
28.004634
30
0
10
12.056673
20
27.825099
30
0
10
11.89662
20
27.652841
30
0
10
11.750848
20
27.488445
30
0
10
11.618896
20
27.332473
30
0
10
11.500291
20
27.185475
30
0
10
11.394536
20
27.04798
30
0
10
11.30112
20
26.920501
30
0
10
11.219515
20
26.803529
30
0
10
11.149177
20
26.69754
30
0
10
11.089546
20
26.602987
30
0
10
11.040047
20
26.520303
30
0
10
11.000091
20
26.449903
30
0
10
10.969076
20
26.392177
30
0
10
10.946386
20
26.347498
30
0
10
10.931393
20
26.316213
30
0
10
10.923458
20
26.298648
30
0
10
10.731609
20
25.836894
30
0
10
8.645368
20
26.607708
30
0
10
8.799836
20
27.083274
30
0
10
8.805227
20
27.101778
30
0
10
8.814178
20
27.135296
30
0
10
8.825988
20
27.183995
30
0
10
8.839956
20
27.248019
30
0
10
8.855373
20
27.327486
30
0
10
8.871525
20
27.422491
30
0
10
8.887697
20
27.533101
30
0
10
8.90317
20
27.659362
30
0
10
8.917223
20
27.801292
30
0
10
8.929134
20
27.958885
30
0
10
8.938183
20
28.13211
30
0
10
8.943646
20
28.320912
30
0
10
8.944805
20
28.525208
30
0
10
8.94094
20
28.744892
30
0
10
8.931337
20
28.979832
30
0
10
8.915284
20
29.229873
30
0
10
8.892073
20
29.494833
30
0
10
8.861002
20
29.774506
30
0
10
8.821375
20
30.06866
30
0
10
8.772502
20
30.377043
30
0
10
8.7137
20
30.699373
30
0
10
8.644297
20
31.035348
30
0
10
8.625211
20
31.121436
30
0
10
8.620328
20
31.143087
30
0
10
8.619101
20
31.148508
30
0
10
8.618947
20
31.149186
30
0
10
8.61873
20
31.149637
30
0
10
7.319827
20
31.480193
30
0
10
7.319421
20
31.4799
30
0
10
7.318962
20
31.479378
30
0
10
7.315292
20
31.475203
30
0
10
7.300654
20
31.45852
30
0
10
7.242738
20
31.392028
30
0
10
7.021175
20
31.130101
30
0
10
6.815447
20
30.87509
30
0
10
6.625107
20
30.627585
30
0
10
6.44969
20
30.388156
30
0
10
6.28871
20
30.157358
30
0
10
6.141667
20
29.935726
30
0
10
6.008042
20
29.723777
30
0
10
5.887302
20
29.522007
30
0
10
5.778894
20
29.330895
30
0
10
5.682255
20
29.150898
30
0
10
5.596803
20
28.982452
30
0
10
5.521946
20
28.825974
30
0
10
5.457076
20
28.681858
30
0
10
5.401575
20
28.550476
30
0
10
5.354811
20
28.432179
30
0
10
5.316141
20
28.327294
30
0
10
5.284915
20
28.236126
30
0
10
5.260469
20
28.158957
30
0
10
5.242133
20
28.096044
30
0
10
5.229228
20
28.047623
30
0
10
5.221067
20
28.013904
30
0
10
5.216957
20
27.995074
30
0
10
5.125305
20
27.503523
30
0
10
2.924393
20
27.823739
30
0
10
2.976609
20
28.321028
30
0
10
2.978036
20
28.340249
30
0
10
2.979822
20
28.374895
30
0
10
2.981249
20
28.424986
30
0
10
2.9816
20
28.490515
30
0
10
2.980158
20
28.571451
30
0
10
2.976204
20
28.667737
30
0
10
2.969026
20
28.779293
30
0
10
2.957909
20
28.906011
30
0
10
2.942146
20
29.047761
30
0
10
2.921032
20
29.204388
30
0
10
2.893867
20
29.375709
30
0
10
2.859958
20
29.56152
30
0
10
2.818615
20
29.761593
30
0
10
2.76916
20
29.975673
30
0
10
2.71092
20
30.203483
30
0
10
2.643231
20
30.444722
30
0
10
2.565439
20
30.699066
30
0
10
2.4769
20
30.966167
30
0
10
2.376981
20
31.245655
30
0
10
2.265059
20
31.537137
30
0
10
2.140527
20
31.840198
30
0
10
2.002786
20
32.154401
30
0
10
1.966219
20
32.23464
30
0
10
1.956941
20
32.254803
30
0
10
1.954614
20
32.25985
30
0
10
1.954322
20
32.260481
30
0
10
1.954017
20
32.260878
30
0
10
0.614771
20
32.314153
30
0
10
0.614435
20
32.313782
30
0
10
0.614094
20
32.313176
30
0
10
0.611373
20
32.308329
30
0
10
0.600523
20
32.288967
30
0
10
0.557697
20
32.211887
30
0
10
0.395434
20
31.909618
30
0
10
0.247221
20
31.617406
30
0
10
0.1125
20
31.335736
30
0
10
-0.009305
20
31.065068
30
0
10
-0.118781
20
30.805844
30
0
10
-0.216531
20
30.558483
30
0
10
-0.303168
20
30.323383
30
0
10
-0.37932
20
30.100919
30
0
10
-0.445624
20
29.891444
30
0
10
-0.502728
20
29.695288
30
0
10
-0.551291
20
29.512757
30
0
10
-0.591979
20
29.344135
30
0
10
-0.625467
20
29.189681
30
0
10
-0.65244
20
29.049631
30
0
10
-0.673587
20
28.924195
30
0
10
-0.689605
20
28.813563
30
0
10
-0.701194
20
28.717894
30
0
10
-0.709061
20
28.637329
30
0
10
-0.713916
20
28.571979
30
0
10
-0.716472
20
28.521933
30
0
10
-0.717444
20
28.487254
30
0
10
-0.717549
20
28.467981
30
0
10
-0.704999
20
27.968116
30
0
10
-2.924393
20
27.823739
30
0
10
-2.97671
20
28.321017
30
0
10
-2.979311
20
28.340115
30
0
10
-2.984767
20
28.374375
30
0
10
-2.993785
20
28.423668
30
0
10
-3.007066
20
28.487838
30
0
10
-3.025304
20
28.566706
30
0
10
-3.04919
20
28.660066
30
0
10
-3.079406
20
28.767691
30
0
10
-3.116626
20
28.889329
30
0
10
-3.161516
20
29.024705
30
0
10
-3.214733
20
29.173518
30
0
10
-3.276924
20
29.335448
30
0
10
-3.348725
20
29.510149
30
0
10
-3.430761
20
29.697254
30
0
10
-3.523645
20
29.896373
30
0
10
-3.627977
20
30.107096
30
0
10
-3.744343
20
30.328991
30
0
10
-3.873316
20
30.561603
30
0
10
-4.015454
20
30.804459
30
0
10
-4.171299
20
31.057065
30
0
10
-4.341377
20
31.318907
30
0
10
-4.526198
20
31.589454
30
0
10
-4.726255
20
31.868153
30
0
10
-4.778706
20
31.939035
30
0
10
-4.791973
20
31.956829
30
0
10
-4.795299
20
31.961282
30
0
10
-4.795715
20
31.961839
30
0
10
-4.796097
20
31.962163
30
0
10
-6.117154
20
31.735829
30
0
10
-6.117405
20
31.735396
30
0
10
-6.117612
20
31.734733
30
0
10
-6.119267
20
31.729426
30
0
10
-6.125854
20
31.708231
30
0
10
-6.151717
20
31.623931
30
0
10
-6.24759
20
31.294531
30
0
10
-6.331809
20
30.97789
30
0
10
-6.405024
20
30.674365
30
0
10
-6.467892
20
30.384287
30
0
10
-6.52108
20
30.107966
30
0
10
-6.565265
20
29.845688
30
0
10
-6.601129
20
29.597712
30
0
10
-6.629364
20
29.364277
30
0
10
-6.650667
20
29.145594
30
0
10
-6.66574
20
28.941851
30
0
10
-6.675291
20
28.753213
30
0
10
-6.680031
20
28.579816
30
0
10
-6.680675
20
28.421774
30
0
10
-6.677941
20
28.279176
30
0
10
-6.672546
20
28.152086
30
0
10
-6.665212
20
28.04054
30
0
10
-6.656657
20
27.944553
30
0
10
-6.647602
20
27.864112
30
0
10
-6.638764
20
27.799181
30
0
10
-6.630859
20
27.749697
30
0
10
-6.624599
20
27.715574
30
0
10
-6.620695
20
27.696701
30
0
10
-6.504491
20
27.210368
30
0
10
-8.645368
20
26.607708
30
0
10
-8.799932
20
27.083242
30
0
10
-8.806447
20
27.101382
30
0
10
-8.818907
20
27.133759
30
0
10
-8.837977
20
27.1801
30
0
10
-8.864309
20
27.240106
30
0
10
-8.898546
20
27.313458
30
0
10
-8.941321
20
27.399812
30
0
10
-8.993253
20
27.498804
30
0
10
-9.054949
20
27.610045
30
0
10
-9.127005
20
27.733129
30
0
10
-9.209999
20
27.867626
30
0
10
-9.304498
20
28.013087
30
0
10
-9.411052
20
28.169042
30
0
10
-9.530197
20
28.335002
30
0
10
-9.662451
20
28.510459
30
0
10
-9.808314
20
28.694885
30
0
10
-9.968272
20
28.887737
30
0
10
-10.14279
20
29.088451
30
0
10
-10.332314
20
29.296447
30
0
10
-10.537273
20
29.511131
30
0
10
-10.758075
20
29.731891
30
0
10
-10.995107
20
29.958099
30
0
10
-11.248737
20
30.189114
30
0
10
-11.314779
20
30.247542
30
0
10
-11.331455
20
30.262188
30
0
10
-11.335635
20
30.265852
30
0
10
-11.336158
20
30.266311
30
0
10
-11.336598
20
30.266548
30
0
10
-12.581729
20
29.770497
30
0
10
-12.581885
20
29.770022
30
0
10
-12.58195
20
29.76933
30
0
10
-12.582465
20
29.763795
30
0
10
-12.584501
20
29.741694
30
0
10
-12.592273
20
29.653859
30
0
10
-12.617564
20
29.311724
30
0
10
-12.63411
20
28.984492
30
0
10
-12.642618
20
28.672377
30
0
10
-12.643802
20
28.375567
30
0
10
-12.638377
20
28.094226
30
0
10
-12.627066
20
27.828493
30
0
10
-12.610589
20
27.578479
30
0
10
-12.589673
20
27.344274
30
0
10
-12.565044
20
27.125941
30
0
10
-12.537427
20
26.923517
30
0
10
-12.507549
20
26.737015
30
0
10
-12.476134
20
26.566422
30
0
10
-12.443906
20
26.4117
30
0
10
-12.411583
20
26.272787
30
0
10
-12.379883
20
26.149595
30
0
10
-12.349517
20
26.042012
30
0
10
-12.321193
20
25.949901
30
0
10
-12.295611
20
25.873101
30
0
10
-12.273466
20
25.811426
30
0
10
-12.255445
20
25.764667
30
0
10
-12.242228
20
25.732591
30
0
10
-12.234484
20
25.714941
30
0
10
-12.019706
20
25.263396
30
0
10
-13.9885
20
24.228793
30
0
10
-14.238555
20
24.6618
30
0
10
-14.248699
20
24.678188
30
0
10
-14.267619
20
24.707267
30
0
10
-14.295906
20
24.748631
30
0
10
-14.334139
20
24.801851
30
0
10
-14.382879
20
24.866482
30
0
10
-14.442673
20
24.942056
30
0
10
-14.514052
20
25.028086
30
0
10
-14.597528
20
25.12407
30
0
10
-14.693599
20
25.229483
30
0
10
-14.802744
20
25.343785
30
0
10
-14.925421
20
25.46642
30
0
10
-15.062071
20
25.596813
30
0
10
-15.213118
20
25.734375
30
0
10
-15.378961
20
25.8785
30
0
10
-15.559981
20
26.02857
30
0
10
-15.75654
20
26.18395
30
0
10
-15.968974
20
26.343994
30
0
10
-16.197602
20
26.508041
30
0
10
-16.442717
20
26.67542
30
0
10
-16.704593
20
26.845448
30
0
10
-16.983476
20
27.017431
30
0
10
-17.279595
20
27.190665
30
0
10
-17.356341
20
27.234086
30
0
10
-17.375699
20
27.244945
30
0
10
-17.380549
20
27.24766
30
0
10
-17.381155
20
27.247999
30
0
10
-17.381635
20
27.24814
30
0
10
-18.496422
20
26.504052
30
0
10
-18.496476
20
26.503554
30
0
10
-18.496396
20
26.502864
30
0
10
-18.495749
20
26.497343
30
0
10
-18.493145
20
26.475301
30
0
10
-18.482485
20
26.38777
30
0
10
-18.43609
20
26.047853
30
0
10
-18.384239
20
25.724332
30
0
10
-18.327669
20
25.417269
30
0
10
-18.267117
20
25.126699
30
0
10
-18.203317
20
24.852634
30
0
10
-18.137003
20
24.595059
30
0
10
-18.068906
20
24.353934
30
0
10
-17.999753
20
24.129196
30
0
10
-17.930268
20
23.920755
30
0
10
-17.861168
20
23.728496
30
0
10
-17.793167
20
23.552281
30
0
10
-17.72697
20
23.391947
30
0
10
-17.663278
20
23.247307
30
0
10
-17.60278
20
23.11815
30
0
10
-17.546159
20
23.004241
30
0
10
-17.494089
20
22.905322
30
0
10
-17.447233
20
22.821113
30
0
10
-17.406242
20
22.75131
30
0
10
-17.371758
20
22.695587
30
0
10
-17.34441
20
22.653597
30
0
10
-17.324812
20
22.62497
30
0
10
-17.313569
20
22.609316
30
0
10
-17.009602
20
22.212293
30
0
10
-18.720267
20
20.790963
30
0
10
-19.054885
20
21.162518
30
0
10
-19.068214
20
21.17644
30
0
10
-19.092767
20
21.20095
30
0
10
-19.129036
20
21.235528
30
0
10
-19.177498
20
21.279636
30
0
10
-19.238611
20
21.332721
30
0
10
-19.312811
20
21.394211
30
0
10
-19.400516
20
21.463522
30
0
10
-19.502125
20
21.540052
30
0
10
-19.618013
20
21.623187
30
0
10
-19.748537
20
21.7123
30
0
10
-19.894031
20
21.806748
30
0
10
-20.054806
20
21.905881
30
0
10
-20.231152
20
22.009032
30
0
10
-20.423336
20
22.115527
30
0
10
-20.631602
20
22.224681
30
0
10
-20.856171
20
22.335799
30
0
10
-21.097238
20
22.448178
30
0
10
-21.354977
20
22.561106
30
0
10
-21.629536
20
22.673865
30
0
10
-21.92104
20
22.785731
30
0
10
-22.229587
20
22.895972
30
0
10
-22.555251
20
23.003854
30
0
10
-22.639348
20
23.03037
30
0
10
-22.66054
20
23.036967
30
0
10
-22.665849
20
23.038614
30
0
10
-22.666513
20
23.03882
30
0
10
-22.667012
20
23.038858
30
0
10
-23.602733
20
22.079252
30
0
10
-23.602683
20
22.078754
30
0
10
-23.60246
20
22.078096
30
0
10
-23.60068
20
22.072831
30
0
10
-23.59355
20
22.051811
30
0
10
-23.564924
20
21.968409
30
0
10
-23.44887
20
21.645566
30
0
10
-23.330889
20
21.339896
30
0
10
-23.211713
20
21.051304
30
0
10
-23.092071
20
20.779673
30
0
10
-22.972684
20
20.524862
30
0
10
-22.854266
20
20.286703
30
0
10
-22.737524
20
20.065006
30
0
10
-22.623157
20
19.859556
30
0
10
-22.511853
20
19.670117
30
0
10
-22.40429
20
19.496426
30
0
10
-22.301138
20
19.3382
30
0
10
-22.203053
20
19.195133
30
0
10
-22.11068
20
19.066896
30
0
10
-22.02465
20
18.953139
30
0
10
-21.945584
20
18.853491
30
0
10
-21.874086
20
18.76756
30
0
10
-21.810745
20
18.694933
30
0
10
-21.756137
20
18.635178
30
0
10
-21.710821
20
18.587843
30
0
10
-21.67534
20
18.552456
30
0
10
-21.650219
20
18.528529
30
0
10
-21.635967
20
18.515555
30
0
10
-21.256097
20
18.190406
30
0
10
-22.633868
20
16.444468
30
0
10
-23.038425
20
16.738333
30
0
10
-23.054357
20
16.749179
30
0
10
-23.083469
20
16.768049
30
0
10
-23.126135
20
16.79433
30
0
10
-23.182709
20
16.827399
30
0
10
-23.253523
20
16.866618
30
0
10
-23.338886
20
16.911337
30
0
10
-23.439086
20
16.960898
30
0
10
-23.554385
20
17.01463
30
0
10
-23.685026
20
17.071854
30
0
10
-23.831225
20
17.131882
30
0
10
-23.993176
20
17.194017
30
0
10
-24.171049
20
17.257556
30
0
10
-24.364988
20
17.321789
30
0
10
-24.575114
20
17.386
30
0
10
-24.801523
20
17.449467
30
0
10
-25.044287
20
17.511467
30
0
10
-25.303451
20
17.571269
30
0
10
-25.579037
20
17.628142
30
0
10
-25.871041
20
17.681353
30
0
10
-26.179432
20
17.730167
30
0
10
-26.504157
20
17.773849
30
0
10
-26.845135
20
17.811664
30
0
10
-26.932907
20
17.820115
30
0
10
-26.955008
20
17.822162
30
0
10
-26.960543
20
17.82267
30
0
10
-26.961235
20
17.822733
30
0
10
-26.961731
20
17.822667
30
0
10
-27.677492
20
16.689483
30
0
10
-27.677339
20
16.689007
30
0
10
-27.676984
20
16.688409
30
0
10
-27.674148
20
16.683629
30
0
10
-27.662804
20
16.664552
30
0
10
-27.617463
20
16.588923
30
0
10
-27.436822
20
16.297265
30
0
10
-27.257866
20
16.022803
30
0
10
-27.081293
20
15.765296
30
0
10
-26.90779
20
15.524476
30
0
10
-26.738034
20
15.300055
30
0
10
-26.572688
20
15.09172
30
0
10
-26.412404
20
14.89914
30
0
10
-26.257821
20
14.721959
30
0
10
-26.109562
20
14.5598
30
0
10
-25.968238
20
14.412268
30
0
10
-25.834443
20
14.278947
30
0
10
-25.708755
20
14.159399
30
0
10
-25.591739
20
14.05317
30
0
10
-25.483938
20
13.959785
30
0
10
-25.385882
20
13.878754
30
0
10
-25.29808
20
13.809566
30
0
10
-25.221023
20
13.751695
30
0
10
-25.155185
20
13.704599
30
0
10
-25.101018
20
13.66772
30
0
10
-25.058955
20
13.640484
30
0
10
-25.029408
20
13.622302
30
0
10
-25.012769
20
13.612575
30
0
10
-24.573598
20
13.373511
30
0
10
-25.558261
20
11.379271
30
0
10
-26.015075
20
11.582603
30
0
10
-26.032914
20
11.589899
30
0
10
-26.065313
20
11.602303
30
0
10
-26.112511
20
11.61914
30
0
10
-26.174724
20
11.639724
30
0
10
-26.252145
20
11.663362
30
0
10
-26.34494
20
11.689357
30
0
10
-26.453254
20
11.717002
30
0
10
-26.577206
20
11.745588
30
0
10
-26.71689
20
11.774399
30
0
10
-26.872374
20
11.802719
30
0
10
-27.043705
20
11.829825
30
0
10
-27.230901
20
11.854993
30
0
10
-27.433957
20
11.877501
30
0
10
-27.652841
20
11.89662
30
0
10
-27.887499
20
11.911628
30
0
10
-28.137848
20
11.921799
30
0
10
-28.403782
20
11.926411
30
0
10
-28.685171
20
11.924744
30
0
10
-28.981856
20
11.916081
30
0
10
-29.293658
20
11.899711
30
0
10
-29.620369
20
11.874924
30
0
10
-29.961758
20
11.841019
30
0
10
-30.049369
20
11.831037
30
0
10
-30.071412
20
11.828444
30
0
10
-30.076932
20
11.82779
30
0
10
-30.077622
20
11.827708
30
0
10
-30.078093
20
11.82754
30
0
10
-30.542611
20
10.570304
30
0
10
-30.542362
20
10.56987
30
0
10
-30.541891
20
10.569359
30
0
10
-30.538123
20
10.565273
30
0
10
-30.523061
20
10.548971
30
0
10
-30.462987
20
10.484422
30
0
10
-30.225654
20
10.236694
30
0
10
-29.993545
20
10.005437
30
0
10
-29.767291
20
9.790269
30
0
10
-29.547511
20
9.590785
30
0
10
-29.334804
20
9.406562
30
0
10
-29.129756
20
9.237158
30
0
10
-28.932935
20
9.08211
30
0
10
-28.744892
20
8.94094
30
0
10
-28.566158
20
8.81315
30
0
10
-28.397248
20
8.698225
30
0
10
-28.238658
20
8.595635
30
0
10
-28.090862
20
8.504831
30
0
10
-27.954316
20
8.425253
30
0
10
-27.829456
20
8.356322
30
0
10
-27.716694
20
8.297448
30
0
10
-27.616426
20
8.248027
30
0
10
-27.529021
20
8.207442
30
0
10
-27.45483
20
8.175064
30
0
10
-27.394179
20
8.150252
30
0
10
-27.347372
20
8.132357
30
0
10
-27.314691
20
8.120716
30
0
10
-27.296394
20
8.114661
30
0
10
-26.817116
20
7.972129
30
0
10
-27.365635
20
5.816745
30
0
10
-27.854742
20
5.920657
30
0
10
-27.873708
20
5.924084
30
0
10
-27.907978
20
5.929482
30
0
10
-27.957645
20
5.936138
30
0
10
-28.022779
20
5.943337
30
0
10
-28.103422
20
5.950362
30
0
10
-28.199594
20
5.956495
30
0
10
-28.311289
20
5.961016
30
0
10
-28.438475
20
5.963206
30
0
10
-28.581097
20
5.962347
30
0
10
-28.739072
20
5.95772
30
0
10
-28.912294
20
5.948612
30
0
10
-29.100632
20
5.934311
30
0
10
-29.30393
20
5.914108
30
0
10
-29.522007
20
5.887302
30
0
10
-29.754657
20
5.853193
30
0
10
-30.00165
20
5.811092
30
0
10
-30.262732
20
5.760312
30
0
10
-30.537625
20
5.700177
30
0
10
-30.826026
20
5.63002
30
0
10
-31.12761
20
5.54918
30
0
10
-31.442028
20
5.457008
30
0
10
-31.768908
20
5.352865
30
0
10
-31.852529
20
5.324885
30
0
10
-31.873552
20
5.317766
30
0
10
-31.878814
20
5.315979
30
0
10
-31.879473
20
5.315755
30
0
10
-31.879899
20
5.315492
30
0
10
-32.072871
20
3.989152
30
0
10
-32.072538
20
3.988779
30
0
10
-32.07197
20
3.988377
30
0
10
-32.067435
20
3.985164
30
0
10
-32.049313
20
3.972349
30
0
10
-31.977131
20
3.921701
30
0
10
-31.693479
20
3.728731
30
0
10
-31.418361
20
3.550786
30
0
10
-31.152316
20
3.38736
30
0
10
-30.895863
20
3.23793
30
0
10
-30.649502
20
3.101957
30
0
10
-30.413714
20
2.978887
30
0
10
-30.188958
20
2.868149
30
0
10
-29.975673
20
2.76916
30
0
10
-29.774276
20
2.681324
30
0
10
-29.585163
20
2.604028
30
0
10
-29.408708
20
2.536652
30
0
10
-29.245263
20
2.478562
30
0
10
-29.095156
20
2.429112
30
0
10
-28.958692
20
2.387647
30
0
10
-28.836155
20
2.353504
30
0
10
-28.727802
20
2.32601
30
0
10
-28.633869
20
2.304485
30
0
10
-28.554568
20
2.288239
30
0
10
-28.490083
20
2.27658
30
0
10
-28.440579
20
2.268807
30
0
10
-28.406191
20
2.264215
30
0
10
-28.387035
20
2.262096
30
0
10
-27.888596
20
2.222327
30
0
10
-27.977
20
0
30
0
10
-28.477023
20
-0.00005
30
0
10
-28.496287
20
-0.000641
30
0
10
-28.53093
20
-0.002486
30
0
10
-28.580896
20
-0.006303
30
0
10
-28.646103
20
-0.012803
30
0
10
-28.726445
20
-0.022698
30
0
10
-28.82179
20
-0.036694
30
0
10
-28.931984
20
-0.055494
30
0
10
-29.056847
20
-0.079795
30
0
10
-29.196173
20
-0.110289
30
0
10
-29.349734
20
-0.147659
30
0
10
-29.517277
20
-0.192583
30
0
10
-29.698526
20
-0.24573
30
0
10
-29.893181
20
-0.307759
30
0
10
-30.100919
20
-0.37932
30
0
10
-30.321393
20
-0.461054
30
0
10
-30.554236
20
-0.553588
30
0
10
-30.799055
20
-0.65754
30
0
10
-31.055438
20
-0.773514
30
0
10
-31.32295
20
-0.902101
30
0
10
-31.601136
20
-1.043877
30
0
10
-31.88952
20
-1.199406
30
0
10
-32.187604
20
-1.369235
30
0
10
-32.263581
20
-1.413989
30
0
10
-32.282664
20
-1.425324
30
0
10
-32.28744
20
-1.428167
30
0
10
-32.288037
20
-1.428522
30
0
10
-32.288399
20
-1.428867
30
0
10
-32.201393
20
-2.766346
30
0
10
-32.200989
20
-2.766641
30
0
10
-32.200351
20
-2.766916
30
0
10
-32.195247
20
-2.769116
30
0
10
-32.174856
20
-2.777883
30
0
10
-32.093722
20
-2.812417
30
0
10
-31.776147
20
-2.942196
30
0
10
-31.470045
20
-3.059052
30
0
10
-31.175835
20
-3.163593
30
0
10
-30.893918
20
-3.256437
30
0
10
-30.62467
20
-3.338218
30
0
10
-30.368447
20
-3.409576
30
0
10
-30.125579
20
-3.471164
30
0
10
-29.896373
20
-3.523645
30
0
10
-29.681115
20
-3.56769
30
0
10
-29.480064
20
-3.603977
30
0
10
-29.293457
20
-3.633194
30
0
10
-29.121506
20
-3.656033
30
0
10
-28.964397
20
-3.673193
30
0
10
-28.822295
20
-3.685379
30
0
10
-28.695337
20
-3.693299
30
0
10
-28.583636
20
-3.697664
30
0
10
-28.48728
20
-3.69919
30
0
10
-28.406333
20
-3.698593
30
0
10
-28.340834
20
-3.69659
30
0
10
-28.290795
20
-3.693901
30
0
10
-28.256205
20
-3.691243
30
0
10
-28.237026
20
-3.689332
30
0
10
-27.741211
20
-3.624601
30
0
10
-27.365635
20
-5.816745
30
0
10
-27.854721
20
-5.920755
30
0
10
-27.873442
20
-5.925338
30
0
10
-27.906944
20
-5.934346
30
0
10
-27.955025
20
-5.948467
30
0
10
-28.017455
20
-5.968383
30
0
10
-28.093984
20
-5.994765
30
0
10
-28.184336
20
-6.028279
30
0
10
-28.288213
20
-6.069579
30
0
10
-28.405295
20
-6.11931
30
0
10
-28.535236
20
-6.178105
30
0
10
-28.677672
20
-6.246585
30
0
10
-28.832214
20
-6.325362
30
0
10
-28.998452
20
-6.415031
30
0
10
-29.175957
20
-6.516175
30
0
10
-29.364277
20
-6.629364
30
0
10
-29.56294
20
-6.755151
30
0
10
-29.771455
20
-6.894074
30
0
10
-29.989311
20
-7.046655
30
0
10
-30.215979
20
-7.2134
30
0
10
-30.450911
20
-7.394795
30
0
10
-30.693542
20
-7.591312
30
0
10
-30.943287
20
-7.803401
30
0
10
-31.199548
20
-8.031493
30
0
10
-31.264559
20
-8.091066
30
0
10
-31.280869
20
-8.10612
30
0
10
-31.284949
20
-8.109894
30
0
10
-31.28546
20
-8.110366
30
0
10
-31.285742
20
-8.110779
30
0
10
-30.92256
20
-9.400941
30
0
10
-30.922103
20
-9.401146
30
0
10
-30.921422
20
-9.401282
30
0
10
-30.915972
20
-9.402373
30
0
10
-30.894204
20
-9.406708
30
0
10
-30.807663
20
-9.423619
30
0
10
-30.470046
20
-9.484534
30
0
10
-30.146336
20
-9.535194
30
0
10
-29.83682
20
-9.576281
30
0
10
-29.54176
20
-9.608483
30
0
10
-29.261393
20
-9.632497
30
0
10
-28.995933
20
-9.649024
30
0
10
-28.745567
20
-9.658771
30
0
10
-28.510459
20
-9.662451
30
0
10
-28.290747
20
-9.660778
30
0
10
-28.086545
20
-9.654472
30
0
10
-27.897942
20
-9.644252
30
0
10
-27.724999
20
-9.630841
30
0
10
-27.567756
20
-9.614962
30
0
10
-27.426225
20
-9.597337
30
0
10
-27.300395
20
-9.578688
30
0
10
-27.190227
20
-9.559734
30
0
10
-27.09566
20
-9.541193
30
0
10
-27.016606
20
-9.523779
30
0
10
-26.952955
20
-9.508202
30
0
10
-26.904568
20
-9.495167
30
0
10
-26.871286
20
-9.485375
30
0
10
-26.852924
20
-9.479519
30
0
10
-26.381402
20
-9.313117
30
0
10
-25.558261
20
-11.379271
30
0
10
-26.015034
20
-11.582695
30
0
10
-26.032393
20
-11.59107
30
0
10
-26.063291
20
-11.606846
30
0
10
-26.107384
20
-11.630655
30
0
10
-26.16431
20
-11.663116
30
0
10
-26.233681
20
-11.704833
30
0
10
-26.315091
20
-11.7564
30
0
10
-26.408111
20
-11.818395
30
0
10
-26.512295
20
-11.891381
30
0
10
-26.627173
20
-11.975907
30
0
10
-26.752258
20
-12.072506
30
0
10
-26.887044
20
-12.181692
30
0
10
-27.031006
20
-12.303964
30
0
10
-27.183603
20
-12.439804
30
0
10
-27.344274
20
-12.589673
30
0
10
-27.512444
20
-12.754016
30
0
10
-27.687519
20
-12.933255
30
0
10
-27.868891
20
-13.127797
30
0
10
-28.055938
20
-13.338025
30
0
10
-28.248021
20
-13.564302
30
0
10
-28.444491
20
-13.80697
30
0
10
-28.644684
20
-14.066349
30
0
10
-28.847921
20
-14.342737
30
0
10
-28.899126
20
-14.414524
30
0
10
-28.911949
20
-14.43264
30
0
10
-28.915156
20
-14.43718
30
0
10
-28.915557
20
-14.437748
30
0
10
-28.915748
20
-14.438211
30
0
10
-28.292262
20
-15.624669
30
0
10
-28.291773
20
-15.624775
30
0
10
-28.291078
20
-15.624767
30
0
10
-28.28552
20
-15.6247
30
0
10
-28.263327
20
-15.624415
30
0
10
-28.175161
20
-15.622963
30
0
10
-27.832256
20
-15.612353
30
0
10
-27.505088
20
-15.594603
30
0
10
-27.193793
20
-15.57044
30
0
10
-26.898486
20
-15.540592
30
0
10
-26.619253
20
-15.505789
30
0
10
-26.356157
20
-15.466763
30
0
10
-26.109236
20
-15.424243
30
0
10
-25.8785
20
-15.378961
30
0
10
-25.663938
20
-15.331644
30
0
10
-25.465509
20
-15.283019
30
0
10
-25.283152
20
-15.23381
30
0
10
-25.116777
20
-15.184736
30
0
10
-24.966271
20
-15.136511
30
0
10
-24.831498
20
-15.089845
30
0
10
-24.712294
20
-15.045441
30
0
10
-24.608475
20
-15.003997
30
0
10
-24.519829
20
-14.966199
30
0
10
-24.446124
20
-14.932729
30
0
10
-24.387102
20
-14.904259
30
0
10
-24.342483
20
-14.881449
30
0
10
-24.311964
20
-14.864952
30
0
10
-24.29522
20
-14.855406
30
0
10
-23.868599
20
-14.594605
30
0
10
-22.633868
20
-16.444468
30
0
10
-23.038366
20
-16.738415
30
0
10
-23.053604
20
-16.750216
30
0
10
-23.080546
20
-16.772072
30
0
10
-23.118726
20
-16.804528
30
0
10
-23.167659
20
-16.848114
30
0
10
-23.22684
20
-16.903343
30
0
10
-23.29575
20
-16.970709
30
0
10
-23.373848
20
-17.050689
30
0
10
-23.46058
20
-17.143742
30
0
10
-23.555374
20
-17.250305
30
0
10
-23.657642
20
-17.3708
30
0
10
-23.766781
20
-17.505623
30
0
10
-23.882176
20
-17.655155
30
0
10
-24.003196
20
-17.819753
30
0
10
-24.129196
20
-17.999753
30
0
10
-24.259522
20
-18.195468
30
0
10
-24.393505
20
-18.407192
30
0
10
-24.530466
20
-18.635192
30
0
10
-24.669717
20
-18.879715
30
0
10
-24.810557
20
-19.140983
30
0
10
-24.952281
20
-19.419197
30
0
10
-25.09417
20
-19.71453
30
0
10
-25.235503
20
-20.027134
30
0
10
-25.270663
20
-20.107999
30
0
10
-25.279439
20
-20.128385
30
0
10
-25.281632
20
-20.133492
30
0
10
-25.281907
20
-20.134131
30
0
10
-25.281997
20
-20.134623
30
0
10
-24.425457
20
-21.165525
30
0
10
-24.424957
20
-21.165526
30
0
10
-24.424279
20
-21.165374
30
0
10
-24.418856
20
-21.164154
30
0
10
-24.397207
20
-21.159261
30
0
10
-24.311269
20
-21.139509
30
0
10
-23.978064
20
-21.057837
30
0
10
-23.661735
20
-20.972453
30
0
10
-23.362267
20
-20.884096
30
0
10
-23.079619
20
-20.793503
30
0
10
-22.813724
20
-20.701405
30
0
10
-22.564491
20
-20.60853
30
0
10
-22.331806
20
-20.515602
30
0
10
-22.115527
20
-20.423336
30
0
10
-21.915491
20
-20.332443
30
0
10
-21.731508
20
-20.243626
30
0
10
-21.563367
20
-20.157578
30
0
10
-21.410831
20
-20.074984
30
0
10
-21.273641
20
-19.996522
30
0
10
-21.151515
20
-19.922854
30
0
10
-21.044148
20
-19.854637
30
0
10
-20.951214
20
-19.792513
30
0
10
-20.872364
20
-19.737111
30
0
10
-20.807228
20
-19.689048
30
0
10
-20.755415
20
-19.648929
30
0
10
-20.716514
20
-19.617341
30
0
10
-20.690092
20
-19.594859
30
0
10
-20.675699
20
-19.58204
30
0
10
-20.312624
20
-19.238239
30
0
10
-18.720267
20
-20.790963
30
0
10
-19.05481
20
-21.162586
30
0
10
-19.067262
20
-21.177297
30
0
10
-19.089071
20
-21.204277
30
0
10
-19.119669
20
-21.243962
30
0
10
-19.15847
20
-21.29677
30
0
10
-19.204876
20
-21.363096
30
0
10
-19.258273
20
-21.443317
30
0
10
-19.318036
20
-21.537787
30
0
10
-19.383526
20
-21.646839
30
0
10
-19.454092
20
-21.770782
30
0
10
-19.529073
20
-21.909906
30
0
10
-19.607796
20
-22.064475
30
0
10
-19.68958
20
-22.234732
30
0
10
-19.773733
20
-22.420894
30
0
10
-19.859556
20
-22.623157
30
0
10
-19.946343
20
-22.841692
30
0
10
-20.033378
20
-23.076645
30
0
10
-20.119942
20
-23.328139
30
0
10
-20.205311
20
-23.59627
30
0
10
-20.288753
20
-23.881112
30
0
10
-20.369536
20
-24.182711
30
0
10
-20.446921
20
-24.501091
30
0
10
-20.520171
20
-24.836249
30
0
10
-20.53775
20
-24.922657
30
0
10
-20.542096
20
-24.944422
30
0
10
-20.54318
20
-24.949874
30
0
10
-20.543315
20
-24.950556
30
0
10
-20.543301
20
-24.951056
30
0
10
-19.491142
20
-25.781345
30
0
10
-19.490652
20
-25.781243
30
0
10
-19.490021
20
-25.780953
30
0
10
-19.48497
20
-25.778632
30
0
10
-19.464812
20
-25.769345
30
0
10
-19.384859
20
-25.732157
30
0
10
-19.075915
20
-25.582993
30
0
10
-18.784252
20
-25.433706
30
0
10
-18.509698
20
-25.285017
30
0
10
-18.252061
20
-25.137637
30
0
10
-18.011125
20
-24.992269
30
0
10
-17.786649
20
-24.849606
30
0
10
-17.578369
20
-24.71033
30
0
10
-17.386
20
-24.575114
30
0
10
-17.209232
20
-24.444618
30
0
10
-17.047736
20
-24.319489
30
0
10
-16.90116
20
-24.200362
30
0
10
-16.769129
20
-24.08786
30
0
10
-16.65125
20
-23.982588
30
0
10
-16.547109
20
-23.88514
30
0
10
-16.456272
20
-23.79609
30
0
10
-16.378285
20
-23.716001
30
0
10
-16.312677
20
-23.645416
30
0
10
-16.258957
20
-23.584861
30
0
10
-16.216618
20
-23.534846
30
0
10
-16.185134
20
-23.49586
30
0
10
-16.163964
20
-23.468376
30
0
10
-16.15255
20
-23.452845
30
0
10
-15.86889
20
-23.041069
30
0
10
-13.9885
20
-24.228793
30
0
10
-14.238468
20
-24.66185
30
0
10
-14.247589
20
-24.678829
30
0
10
-14.263312
20
-24.709754
30
0
10
-14.28499
20
-24.754933
30
0
10
-14.311964
20
-24.814654
30
0
10
-14.343566
20
-24.88918
30
0
10
-14.379117
20
-24.97875
30
0
10
-14.417933
20
-25.083581
30
0
10
-14.459319
20
-25.203865
30
0
10
-14.502573
20
-25.339772
30
0
10
-14.54699
20
-25.491445
30
0
10
-14.591857
20
-25.659004
30
0
10
-14.636455
20
-25.842543
30
0
10
-14.680064
20
-26.042134
30
0
10
-14.721959
20
-26.257821
30
0
10
-14.761412
20
-26.489624
30
0
10
-14.797696
20
-26.737539
30
0
10
-14.830081
20
-27.001534
30
0
10
-14.857836
20
-27.281555
30
0
10
-14.880233
20
-27.577521
30
0
10
-14.896544
20
-27.889326
30
0
10
-14.906044
20
-28.216838
30
0
10
-14.90801
20
-28.559901
30
0
10
-14.90724
20
-28.648075
30
0
10
-14.906965
20
-28.670269
30
0
10
-14.906891
20
-28.675827
30
0
10
-14.906882
20
-28.676521
30
0
10
-14.906764
20
-28.677008
30
0
10
-13.704971
20
-29.270398
30
0
10
-13.704513
20
-29.270195
30
0
10
-13.703956
20
-29.26978
30
0
10
-13.699498
20
-29.26646
30
0
10
-13.681711
20
-29.253184
30
0
10
-13.611237
20
-29.200187
30
0
10
-13.340058
20
-28.990049
30
0
10
-13.085806
20
-28.783384
30
0
10
-12.848166
20
-28.580861
30
0
10
-12.626801
20
-28.383136
30
0
10
-12.421354
20
-28.190851
30
0
10
-12.231444
20
-28.004634
30
0
10
-12.056673
20
-27.825099
30
0
10
-11.89662
20
-27.652841
30
0
10
-11.750848
20
-27.488445
30
0
10
-11.618896
20
-27.332473
30
0
10
-11.500291
20
-27.185475
30
0
10
-11.394536
20
-27.04798
30
0
10
-11.30112
20
-26.920501
30
0
10
-11.219515
20
-26.803529
30
0
10
-11.149177
20
-26.69754
30
0
10
-11.089546
20
-26.602987
30
0
10
-11.040047
20
-26.520303
30
0
10
-11.000091
20
-26.449903
30
0
10
-10.969076
20
-26.392177
30
0
10
-10.946386
20
-26.347498
30
0
10
-10.931393
20
-26.316213
30
0
10
-10.923458
20
-26.298648
30
0
10
-10.731609
20
-25.836894
30
0
10
-8.645368
20
-26.607708
30
0
10
-8.799836
20
-27.083274
30
0
10
-8.805227
20
-27.101778
30
0
10
-8.814178
20
-27.135296
30
0
10
-8.825988
20
-27.183995
30
0
10
-8.839956
20
-27.248019
30
0
10
-8.855373
20
-27.327486
30
0
10
-8.871525
20
-27.422491
30
0
10
-8.887697
20
-27.533101
30
0
10
-8.90317
20
-27.659362
30
0
10
-8.917223
20
-27.801292
30
0
10
-8.929134
20
-27.958885
30
0
10
-8.938183
20
-28.13211
30
0
10
-8.943646
20
-28.320912
30
0
10
-8.944805
20
-28.525208
30
0
10
-8.94094
20
-28.744892
30
0
10
-8.931337
20
-28.979832
30
0
10
-8.915284
20
-29.229873
30
0
10
-8.892073
20
-29.494833
30
0
10
-8.861002
20
-29.774506
30
0
10
-8.821375
20
-30.06866
30
0
10
-8.772502
20
-30.377043
30
0
10
-8.7137
20
-30.699373
30
0
10
-8.644297
20
-31.035348
30
0
10
-8.625211
20
-31.121436
30
0
10
-8.620328
20
-31.143087
30
0
10
-8.619101
20
-31.148508
30
0
10
-8.618947
20
-31.149186
30
0
10
-8.61873
20
-31.149637
30
0
10
-7.319827
20
-31.480193
30
0
10
-7.319421
20
-31.4799
30
0
10
-7.318962
20
-31.479378
30
0
10
-7.315292
20
-31.475203
30
0
10
-7.300654
20
-31.45852
30
0
10
-7.242738
20
-31.392028
30
0
10
-7.021175
20
-31.130101
30
0
10
-6.815447
20
-30.87509
30
0
10
-6.625107
20
-30.627585
30
0
10
-6.44969
20
-30.388156
30
0
10
-6.28871
20
-30.157358
30
0
10
-6.141667
20
-29.935726
30
0
10
-6.008042
20
-29.723777
30
0
10
-5.887302
20
-29.522007
30
0
10
-5.778894
20
-29.330895
30
0
10
-5.682255
20
-29.150898
30
0
10
-5.596803
20
-28.982452
30
0
10
-5.521946
20
-28.825974
30
0
10
-5.457076
20
-28.681858
30
0
10
-5.401575
20
-28.550476
30
0
10
-5.354811
20
-28.432179
30
0
10
-5.316141
20
-28.327294
30
0
10
-5.284915
20
-28.236126
30
0
10
-5.260469
20
-28.158957
30
0
10
-5.242133
20
-28.096044
30
0
10
-5.229228
20
-28.047623
30
0
10
-5.221067
20
-28.013904
30
0
10
-5.216957
20
-27.995074
30
0
10
-5.125305
20
-27.503523
30
0
10
-2.924393
20
-27.823739
30
0
10
-2.976609
20
-28.321028
30
0
10
-2.978036
20
-28.340249
30
0
10
-2.979822
20
-28.374895
30
0
10
-2.981249
20
-28.424986
30
0
10
-2.9816
20
-28.490515
30
0
10
-2.980158
20
-28.571451
30
0
10
-2.976204
20
-28.667737
30
0
10
-2.969026
20
-28.779293
30
0
10
-2.957909
20
-28.906011
30
0
10
-2.942146
20
-29.047761
30
0
10
-2.921032
20
-29.204388
30
0
10
-2.893867
20
-29.375709
30
0
10
-2.859958
20
-29.56152
30
0
10
-2.818615
20
-29.761593
30
0
10
-2.76916
20
-29.975673
30
0
10
-2.71092
20
-30.203483
30
0
10
-2.643231
20
-30.444722
30
0
10
-2.565439
20
-30.699066
30
0
10
-2.4769
20
-30.966167
30
0
10
-2.376981
20
-31.245655
30
0
10
-2.265059
20
-31.537137
30
0
10
-2.140527
20
-31.840198
30
0
10
-2.002786
20
-32.154401
30
0
10
-1.966219
20
-32.23464
30
0
10
-1.956941
20
-32.254803
30
0
10
-1.954614
20
-32.25985
30
0
10
-1.954322
20
-32.260481
30
0
10
-1.954017
20
-32.260878
30
0
10
-0.614771
20
-32.314153
30
0
10
-0.614435
20
-32.313782
30
0
10
-0.614094
20
-32.313176
30
0
10
-0.611373
20
-32.308329
30
0
10
-0.600523
20
-32.288967
30
0
10
-0.557697
20
-32.211887
30
0
10
-0.395434
20
-31.909618
30
0
10
-0.247221
20
-31.617406
30
0
10
-0.1125
20
-31.335736
30
0
10
0.009305
20
-31.065068
30
0
10
0.118781
20
-30.805844
30
0
10
0.216531
20
-30.558483
30
0
10
0.303168
20
-30.323383
30
0
10
0.37932
20
-30.100919
30
0
10
0.445624
20
-29.891444
30
0
10
0.502728
20
-29.695288
30
0
10
0.551291
20
-29.512757
30
0
10
0.591979
20
-29.344135
30
0
10
0.625467
20
-29.189681
30
0
10
0.65244
20
-29.049631
30
0
10
0.673587
20
-28.924195
30
0
10
0.689605
20
-28.813563
30
0
10
0.701194
20
-28.717894
30
0
10
0.709061
20
-28.637329
30
0
10
0.713916
20
-28.571979
30
0
10
0.716472
20
-28.521933
30
0
10
0.717444
20
-28.487254
30
0
10
0.717549
20
-28.467981
30
0
10
0.704999
20
-27.968116
30
0
10
2.924393
20
-27.823739
30
0
10
2.97671
20
-28.321017
30
0
10
2.979311
20
-28.340115
30
0
10
2.984767
20
-28.374375
30
0
10
2.993785
20
-28.423668
30
0
10
3.007066
20
-28.487838
30
0
10
3.025304
20
-28.566706
30
0
10
3.04919
20
-28.660066
30
0
10
3.079406
20
-28.767691
30
0
10
3.116626
20
-28.889329
30
0
10
3.161516
20
-29.024705
30
0
10
3.214733
20
-29.173518
30
0
10
3.276924
20
-29.335448
30
0
10
3.348725
20
-29.510149
30
0
10
3.430761
20
-29.697254
30
0
10
3.523645
20
-29.896373
30
0
10
3.627977
20
-30.107096
30
0
10
3.744343
20
-30.328991
30
0
10
3.873316
20
-30.561603
30
0
10
4.015454
20
-30.804459
30
0
10
4.171299
20
-31.057065
30
0
10
4.341377
20
-31.318907
30
0
10
4.526198
20
-31.589454
30
0
10
4.726255
20
-31.868153
30
0
10
4.778706
20
-31.939035
30
0
10
4.791973
20
-31.956829
30
0
10
4.795299
20
-31.961282
30
0
10
4.795715
20
-31.961839
30
0
10
4.796097
20
-31.962163
30
0
10
6.117154
20
-31.735829
30
0
10
6.117405
20
-31.735396
30
0
10
6.117612
20
-31.734733
30
0
10
6.119267
20
-31.729426
30
0
10
6.125854
20
-31.708231
30
0
10
6.151717
20
-31.623931
30
0
10
6.24759
20
-31.294531
30
0
10
6.331809
20
-30.97789
30
0
10
6.405024
20
-30.674365
30
0
10
6.467892
20
-30.384287
30
0
10
6.52108
20
-30.107966
30
0
10
6.565265
20
-29.845688
30
0
10
6.601129
20
-29.597712
30
0
10
6.629364
20
-29.364277
30
0
10
6.650667
20
-29.145594
30
0
10
6.66574
20
-28.941851
30
0
10
6.675291
20
-28.753213
30
0
10
6.680031
20
-28.579816
30
0
10
6.680675
20
-28.421774
30
0
10
6.677941
20
-28.279176
30
0
10
6.672546
20
-28.152086
30
0
10
6.665212
20
-28.04054
30
0
10
6.656657
20
-27.944553
30
0
10
6.647602
20
-27.864112
30
0
10
6.638764
20
-27.799181
30
0
10
6.630859
20
-27.749697
30
0
10
6.624599
20
-27.715574
30
0
10
6.620695
20
-27.696701
30
0
10
6.504491
20
-27.210368
30
0
10
8.645368
20
-26.607708
30
0
10
8.799932
20
-27.083242
30
0
10
8.806447
20
-27.101382
30
0
10
8.818907
20
-27.133759
30
0
10
8.837977
20
-27.1801
30
0
10
8.864309
20
-27.240106
30
0
10
8.898546
20
-27.313458
30
0
10
8.941321
20
-27.399812
30
0
10
8.993253
20
-27.498804
30
0
10
9.054949
20
-27.610045
30
0
10
9.127005
20
-27.733129
30
0
10
9.209999
20
-27.867626
30
0
10
9.304498
20
-28.013087
30
0
10
9.411052
20
-28.169042
30
0
10
9.530197
20
-28.335002
30
0
10
9.662451
20
-28.510459
30
0
10
9.808314
20
-28.694885
30
0
10
9.968272
20
-28.887737
30
0
10
10.14279
20
-29.088451
30
0
10
10.332314
20
-29.296447
30
0
10
10.537273
20
-29.511131
30
0
10
10.758075
20
-29.731891
30
0
10
10.995107
20
-29.958099
30
0
10
11.248737
20
-30.189114
30
0
10
11.314779
20
-30.247542
30
0
10
11.331455
20
-30.262188
30
0
10
11.335635
20
-30.265852
30
0
10
11.336158
20
-30.266311
30
0
10
11.336598
20
-30.266548
30
0
10
12.581729
20
-29.770497
30
0
10
12.581885
20
-29.770022
30
0
10
12.58195
20
-29.76933
30
0
10
12.582465
20
-29.763795
30
0
10
12.584501
20
-29.741694
30
0
10
12.592273
20
-29.653859
30
0
10
12.617564
20
-29.311724
30
0
10
12.63411
20
-28.984492
30
0
10
12.642618
20
-28.672377
30
0
10
12.643802
20
-28.375567
30
0
10
12.638377
20
-28.094226
30
0
10
12.627066
20
-27.828493
30
0
10
12.610589
20
-27.578479
30
0
10
12.589673
20
-27.344274
30
0
10
12.565044
20
-27.125941
30
0
10
12.537427
20
-26.923517
30
0
10
12.507549
20
-26.737015
30
0
10
12.476134
20
-26.566422
30
0
10
12.443906
20
-26.4117
30
0
10
12.411583
20
-26.272787
30
0
10
12.379883
20
-26.149595
30
0
10
12.349517
20
-26.042012
30
0
10
12.321193
20
-25.949901
30
0
10
12.295611
20
-25.873101
30
0
10
12.273466
20
-25.811426
30
0
10
12.255445
20
-25.764667
30
0
10
12.242228
20
-25.732591
30
0
10
12.234484
20
-25.714941
30
0
10
12.019706
20
-25.263396
30
0
10
13.9885
20
-24.228793
30
0
10
14.238555
20
-24.6618
30
0
10
14.248699
20
-24.678188
30
0
10
14.267619
20
-24.707267
30
0
10
14.295906
20
-24.748631
30
0
10
14.334139
20
-24.801851
30
0
10
14.382879
20
-24.866482
30
0
10
14.442673
20
-24.942056
30
0
10
14.514052
20
-25.028086
30
0
10
14.597528
20
-25.12407
30
0
10
14.693599
20
-25.229483
30
0
10
14.802744
20
-25.343785
30
0
10
14.925421
20
-25.46642
30
0
10
15.062071
20
-25.596813
30
0
10
15.213118
20
-25.734375
30
0
10
15.378961
20
-25.8785
30
0
10
15.559981
20
-26.02857
30
0
10
15.75654
20
-26.18395
30
0
10
15.968974
20
-26.343994
30
0
10
16.197602
20
-26.508041
30
0
10
16.442717
20
-26.67542
30
0
10
16.704593
20
-26.845448
30
0
10
16.983476
20
-27.017431
30
0
10
17.279595
20
-27.190665
30
0
10
17.356341
20
-27.234086
30
0
10
17.375699
20
-27.244945
30
0
10
17.380549
20
-27.24766
30
0
10
17.381155
20
-27.247999
30
0
10
17.381635
20
-27.24814
30
0
10
18.496422
20
-26.504052
30
0
10
18.496476
20
-26.503554
30
0
10
18.496396
20
-26.502864
30
0
10
18.495749
20
-26.497343
30
0
10
18.493145
20
-26.475301
30
0
10
18.482485
20
-26.38777
30
0
10
18.43609
20
-26.047853
30
0
10
18.384239
20
-25.724332
30
0
10
18.327669
20
-25.417269
30
0
10
18.267117
20
-25.126699
30
0
10
18.203317
20
-24.852634
30
0
10
18.137003
20
-24.595059
30
0
10
18.068906
20
-24.353934
30
0
10
17.999753
20
-24.129196
30
0
10
17.930268
20
-23.920755
30
0
10
17.861168
20
-23.728496
30
0
10
17.793167
20
-23.552281
30
0
10
17.72697
20
-23.391947
30
0
10
17.663278
20
-23.247307
30
0
10
17.60278
20
-23.11815
30
0
10
17.546159
20
-23.004241
30
0
10
17.494089
20
-22.905322
30
0
10
17.447233
20
-22.821113
30
0
10
17.406242
20
-22.75131
30
0
10
17.371758
20
-22.695587
30
0
10
17.34441
20
-22.653597
30
0
10
17.324812
20
-22.62497
30
0
10
17.313569
20
-22.609316
30
0
10
17.009602
20
-22.212293
30
0
10
18.720267
20
-20.790963
30
0
10
19.054885
20
-21.162518
30
0
10
19.068214
20
-21.17644
30
0
10
19.092767
20
-21.20095
30
0
10
19.129036
20
-21.235528
30
0
10
19.177498
20
-21.279636
30
0
10
19.238611
20
-21.332721
30
0
10
19.312811
20
-21.394211
30
0
10
19.400516
20
-21.463522
30
0
10
19.502125
20
-21.540052
30
0
10
19.618013
20
-21.623187
30
0
10
19.748537
20
-21.7123
30
0
10
19.894031
20
-21.806748
30
0
10
20.054806
20
-21.905881
30
0
10
20.231152
20
-22.009032
30
0
10
20.423336
20
-22.115527
30
0
10
20.631602
20
-22.224681
30
0
10
20.856171
20
-22.335799
30
0
10
21.097238
20
-22.448178
30
0
10
21.354977
20
-22.561106
30
0
10
21.629536
20
-22.673865
30
0
10
21.92104
20
-22.785731
30
0
10
22.229587
20
-22.895972
30
0
10
22.555251
20
-23.003854
30
0
10
22.639348
20
-23.03037
30
0
10
22.66054
20
-23.036967
30
0
10
22.665849
20
-23.038614
30
0
10
22.666513
20
-23.03882
30
0
10
22.667012
20
-23.038858
30
0
10
23.602733
20
-22.079252
30
0
10
23.602683
20
-22.078754
30
0
10
23.60246
20
-22.078096
30
0
10
23.60068
20
-22.072831
30
0
10
23.59355
20
-22.051811
30
0
10
23.564924
20
-21.968409
30
0
10
23.44887
20
-21.645566
30
0
10
23.330889
20
-21.339896
30
0
10
23.211713
20
-21.051304
30
0
10
23.092071
20
-20.779673
30
0
10
22.972684
20
-20.524862
30
0
10
22.854266
20
-20.286703
30
0
10
22.737524
20
-20.065006
30
0
10
22.623157
20
-19.859556
30
0
10
22.511853
20
-19.670117
30
0
10
22.40429
20
-19.496426
30
0
10
22.301138
20
-19.3382
30
0
10
22.203053
20
-19.195133
30
0
10
22.11068
20
-19.066896
30
0
10
22.02465
20
-18.953139
30
0
10
21.945584
20
-18.853491
30
0
10
21.874086
20
-18.76756
30
0
10
21.810745
20
-18.694933
30
0
10
21.756137
20
-18.635178
30
0
10
21.710821
20
-18.587843
30
0
10
21.67534
20
-18.552456
30
0
10
21.650219
20
-18.528529
30
0
10
21.635967
20
-18.515555
30
0
10
21.256097
20
-18.190406
30
0
10
22.633868
20
-16.444468
30
0
10
23.038425
20
-16.738333
30
0
10
23.054357
20
-16.749179
30
0
10
23.083469
20
-16.768049
30
0
10
23.126135
20
-16.79433
30
0
10
23.182709
20
-16.827399
30
0
10
23.253523
20
-16.866618
30
0
10
23.338886
20
-16.911337
30
0
10
23.439086
20
-16.960898
30
0
10
23.554385
20
-17.01463
30
0
10
23.685026
20
-17.071854
30
0
10
23.831225
20
-17.131882
30
0
10
23.993176
20
-17.194017
30
0
10
24.171049
20
-17.257556
30
0
10
24.364988
20
-17.321789
30
0
10
24.575114
20
-17.386
30
0
10
24.801523
20
-17.449467
30
0
10
25.044287
20
-17.511467
30
0
10
25.303451
20
-17.571269
30
0
10
25.579037
20
-17.628142
30
0
10
25.871041
20
-17.681353
30
0
10
26.179432
20
-17.730167
30
0
10
26.504157
20
-17.773849
30
0
10
26.845135
20
-17.811664
30
0
10
26.932907
20
-17.820115
30
0
10
26.955008
20
-17.822162
30
0
10
26.960543
20
-17.82267
30
0
10
26.961235
20
-17.822733
30
0
10
26.961731
20
-17.822667
30
0
10
27.677492
20
-16.689483
30
0
10
27.677339
20
-16.689007
30
0
10
27.676984
20
-16.688409
30
0
10
27.674148
20
-16.683629
30
0
10
27.662804
20
-16.664552
30
0
10
27.617463
20
-16.588923
30
0
10
27.436822
20
-16.297265
30
0
10
27.257866
20
-16.022803
30
0
10
27.081293
20
-15.765296
30
0
10
26.90779
20
-15.524476
30
0
10
26.738034
20
-15.300055
30
0
10
26.572688
20
-15.09172
30
0
10
26.412404
20
-14.89914
30
0
10
26.257821
20
-14.721959
30
0
10
26.109562
20
-14.5598
30
0
10
25.968238
20
-14.412268
30
0
10
25.834443
20
-14.278947
30
0
10
25.708755
20
-14.159399
30
0
10
25.591739
20
-14.05317
30
0
10
25.483938
20
-13.959785
30
0
10
25.385882
20
-13.878754
30
0
10
25.29808
20
-13.809566
30
0
10
25.221023
20
-13.751695
30
0
10
25.155185
20
-13.704599
30
0
10
25.101018
20
-13.66772
30
0
10
25.058955
20
-13.640484
30
0
10
25.029408
20
-13.622302
30
0
10
25.012769
20
-13.612575
30
0
10
24.573598
20
-13.373511
30
0
10
25.558261
20
-11.379271
30
0
10
26.015075
20
-11.582603
30
0
10
26.032914
20
-11.589899
30
0
10
26.065313
20
-11.602303
30
0
10
26.112511
20
-11.61914
30
0
10
26.174724
20
-11.639724
30
0
10
26.252145
20
-11.663362
30
0
10
26.34494
20
-11.689357
30
0
10
26.453254
20
-11.717002
30
0
10
26.577206
20
-11.745588
30
0
10
26.71689
20
-11.774399
30
0
10
26.872374
20
-11.802719
30
0
10
27.043705
20
-11.829825
30
0
10
27.230901
20
-11.854993
30
0
10
27.433957
20
-11.877501
30
0
10
27.652841
20
-11.89662
30
0
10
27.887499
20
-11.911628
30
0
10
28.137848
20
-11.921799
30
0
10
28.403782
20
-11.926411
30
0
10
28.685171
20
-11.924744
30
0
10
28.981856
20
-11.916081
30
0
10
29.293658
20
-11.899711
30
0
10
29.620369
20
-11.874924
30
0
10
29.961758
20
-11.841019
30
0
10
30.049369
20
-11.831037
30
0
10
30.071412
20
-11.828444
30
0
10
30.076932
20
-11.82779
30
0
10
30.077622
20
-11.827708
30
0
10
30.078093
20
-11.82754
30
0
10
30.542611
20
-10.570304
30
0
10
30.542362
20
-10.56987
30
0
10
30.541891
20
-10.569359
30
0
10
30.538123
20
-10.565273
30
0
10
30.523061
20
-10.548971
30
0
10
30.462987
20
-10.484422
30
0
10
30.225654
20
-10.236694
30
0
10
29.993545
20
-10.005437
30
0
10
29.767291
20
-9.790269
30
0
10
29.547511
20
-9.590785
30
0
10
29.334804
20
-9.406562
30
0
10
29.129756
20
-9.237158
30
0
10
28.932935
20
-9.08211
30
0
10
28.744892
20
-8.94094
30
0
10
28.566158
20
-8.81315
30
0
10
28.397248
20
-8.698225
30
0
10
28.238658
20
-8.595635
30
0
10
28.090862
20
-8.504831
30
0
10
27.954316
20
-8.425253
30
0
10
27.829456
20
-8.356322
30
0
10
27.716694
20
-8.297448
30
0
10
27.616426
20
-8.248027
30
0
10
27.529021
20
-8.207442
30
0
10
27.45483
20
-8.175064
30
0
10
27.394179
20
-8.150252
30
0
10
27.347372
20
-8.132357
30
0
10
27.314691
20
-8.120716
30
0
10
27.296394
20
-8.114661
30
0
10
26.817116
20
-7.972129
30
0
10
27.365635
20
-5.816745
30
0
10
27.854742
20
-5.920657
30
0
10
27.873708
20
-5.924084
30
0
10
27.907978
20
-5.929482
30
0
10
27.957645
20
-5.936138
30
0
10
28.022779
20
-5.943337
30
0
10
28.103422
20
-5.950362
30
0
10
28.199594
20
-5.956495
30
0
10
28.311289
20
-5.961016
30
0
10
28.438475
20
-5.963206
30
0
10
28.581097
20
-5.962347
30
0
10
28.739072
20
-5.95772
30
0
10
28.912294
20
-5.948612
30
0
10
29.100632
20
-5.934311
30
0
10
29.30393
20
-5.914108
30
0
10
29.522007
20
-5.887302
30
0
10
29.754657
20
-5.853193
30
0
10
30.00165
20
-5.811092
30
0
10
30.262732
20
-5.760312
30
0
10
30.537625
20
-5.700177
30
0
10
30.826026
20
-5.63002
30
0
10
31.12761
20
-5.54918
30
0
10
31.442028
20
-5.457008
30
0
10
31.768908
20
-5.352865
30
0
10
31.852529
20
-5.324885
30
0
10
31.873552
20
-5.317766
30
0
10
31.878814
20
-5.315979
30
0
10
31.879473
20
-5.315755
30
0
10
31.879899
20
-5.315492
30
0
10
32.072871
20
-3.989152
30
0
10
32.072538
20
-3.988779
30
0
10
32.07197
20
-3.988377
30
0
10
32.067435
20
-3.985164
30
0
10
32.049313
20
-3.972349
30
0
10
31.977131
20
-3.921701
30
0
10
31.693479
20
-3.728731
30
0
10
31.418361
20
-3.550786
30
0
10
31.152316
20
-3.38736
30
0
10
30.895863
20
-3.23793
30
0
10
30.649502
20
-3.101957
30
0
10
30.413714
20
-2.978887
30
0
10
30.188958
20
-2.868149
30
0
10
29.975673
20
-2.76916
30
0
10
29.774276
20
-2.681324
30
0
10
29.585163
20
-2.604028
30
0
10
29.408708
20
-2.536652
30
0
10
29.245263
20
-2.478562
30
0
10
29.095156
20
-2.429112
30
0
10
28.958692
20
-2.387647
30
0
10
28.836155
20
-2.353504
30
0
10
28.727802
20
-2.32601
30
0
10
28.633869
20
-2.304485
30
0
10
28.554568
20
-2.288239
30
0
10
28.490083
20
-2.27658
30
0
10
28.440579
20
-2.268807
30
0
10
28.406191
20
-2.264215
30
0
10
28.387035
20
-2.262096
30
0
10
27.888596
20
-2.222327
30
0
8
gear
0
CIRCLE
5
2001
100
AcDbEntity
100
AcDbCircle
10
30.236091
20
1.966929
30
0
40
0.79285
8
gear_guides
0
CIRCLE
5
2002
100
AcDbEntity
100
AcDbCircle
10
0
20
0
30
0
40
30.3
8
gear_guides
0
CIRCLE
5
2003
100
AcDbEntity
100
AcDbCircle
10
0
20
0
30
0
40
32.32
8
gear_guides
0
CIRCLE
5
2004
100
AcDbEntity
100
AcDbCircle
10
0
20
0
30
0
40
28.472686
8
gear_guides
0
LINE
5
2005
100
AcDbEntity
100
AcDbLine
10
1.6
20
0
30
0
11
-1.6
21
0
31
0
8
gear_guides
0
LINE
5
2006
100
AcDbEntity
100
AcDbLine
10
0
20
1.6
30
0
11
0
21
-1.6
31
0
8
gear_guides
0
LWPOLYLINE
5
2007
100
AcDbEntity
100
AcDbPolyline
66
1
90
11
70
0
43
0
10
-17.777762
20
12.17805
30
0
10
-17.64833
20
11.596677
30
0
10
-17.868281
20
11.25482
30
0
10
-18.081612
20
10.908792
30
0
10
-18.661868
20
10.774434
30
0
10
-19.409117
20
11.205859
30
0
10
-19.559225
20
11.800248
30
0
10
-19.328461
20
12.174553
30
0
10
-19.090535
20
12.544346
30
0
10
-18.489611
20
12.665678
30
0
10
-17.777762
20
12.17805
30
0
8
gear_texts
0
LWPOLYLINE
5
2008
100
AcDbEntity
100
AcDbPolyline
66
1
90
2
70
0
43
0
10
-17.232243
20
14.995298
30
0
10
-15.930423
20
13.862469
30
0
8
gear_texts
0
LWPOLYLINE
5
2009
100
AcDbEntity
100
AcDbPolyline
66
1
90
6
70
0
43
0
10
-16.581333
20
14.428883
30
0
10
-16.525153
20
13.83015
30
0
10
-16.45219
20
13.239028
30
0
10
-16.703977
20
12.919891
30
0
10
-17.29585
20
12.853299
30
0
10
-18.334678
20
13.625297
30
0
8
gear_texts
0
LWPOLYLINE
5
2010
100
AcDbEntity
100
AcDbPolyline
66
1
90
4
70
0
43
0
10
-14.517379
20
15.924806
30
0
10
-14.52449
20
15.329241
30
0
10
-15.119573
20
15.354226
30
0
10
-16.633099
20
16.891241
30
0
8
gear_texts
0
LWPOLYLINE
5
2011
100
AcDbEntity
100
AcDbPolyline
66
1
90
5
70
0
43
0
10
-15.389325
20
16.881286
30
0
10
-15.711418
20
16.581933
30
0
10
-16.027689
20
16.276435
30
0
10
-16.338021
20
15.964906
30
0
10
-16.642298
20
15.647462
30
0
8
gear_texts
0
LWPOLYLINE
5
2012
100
AcDbEntity
100
AcDbPolyline
66
1
90
2
70
0
43
0
10
-13.059184
20
15.482452
30
0
10
-14.728154
20
17.461118
30
0
8
gear_texts
0
LWPOLYLINE
5
2013
100
AcDbEntity
100
AcDbPolyline
66
1
90
10
70
0
43
0
10
-14.449992
20
17.13134
30
0
10
-14.38932
20
17.741381
30
0
10
-14.045155
20
18.015071
30
0
10
-13.695785
20
18.282085
30
0
10
-13.08937
20
18.192127
30
0
10
-12.58543
20
17.491732
30
0
10
-12.661129
20
16.900955
30
0
10
-12.984105
20
16.654112
30
0
10
-13.302271
20
16.401099
30
0
10
-13.615507
20
16.142008
30
0
8
gear_texts
0
LWPOLYLINE
5
2014
100
AcDbEntity
100
AcDbPolyline
66
1
90
2
70
0
43
0
10
-11.115575
20
19.956281
30
0
10
-10.275843
20
18.448672
30
0
8
gear_texts
0
LWPOLYLINE
5
2015
100
AcDbEntity
100
AcDbPolyline
66
1
90
6
70
0
43
0
10
-10.695709
20
19.202476
30
0
10
-10.846202
20
18.620248
30
0
10
-10.978325
20
18.03948
30
0
10
-11.323529
20
17.824818
30
0
10
-11.90284
20
17.963188
30
0
10
-12.617752
20
19.042098
30
0
8
gear_texts
0
LWPOLYLINE
5
2016
100
AcDbEntity
100
AcDbPolyline
66
1
90
4
70
0
43
0
10
-8.246395
20
19.908559
30
0
10
-8.455342
20
19.350805
30
0
10
-9.006573
20
19.576399
30
0
10
-9.908164
20
21.53607
30
0
8
gear_texts
0
LWPOLYLINE
5
2017
100
AcDbEntity
100
AcDbPolyline
66
1
90
5
70
0
43
0
10
-8.741692
20
21.104312
30
0
10
-9.146304
20
20.932135
30
0
10
-9.547528
20
20.752202
30
0
10
-9.945213
20
20.564579
30
0
10
-10.339213
20
20.369335
30
0
8
gear_texts
0
LWPOLYLINE
5
2018
100
AcDbEntity
100
AcDbPolyline
66
1
90
13
70
0
43
0
10
-4.110937
20
22.470188
30
0
10
-4.542699
20
22.386894
30
0
10
-4.972777
20
22.295305
30
0
10
-5.401013
20
22.195455
30
0
10
-5.717192
20
21.670229
30
0
10
-5.197002
20
21.357071
30
0
10
-4.784942
20
21.45315
30
0
10
-4.371108
20
21.541279
30
0
10
-3.878015
20
21.197046
30
0
10
-4.199518
20
20.695664
30
0
10
-4.597106
20
20.610994
30
0
10
-4.99299
20
20.518686
30
0
10
-5.387025
20
20.418776
30
0
8
gear_texts
0
LWPOLYLINE
5
2019
100
AcDbEntity
100
AcDbPolyline
66
1
90
13
70
0
43
0
10
-1.786505
20
21.041741
30
0
10
-2.191202
20
21.003454
30
0
10
-2.595087
20
20.957385
30
0
10
-3.059258
20
21.330604
30
0
10
-3.181756
20
22.184714
30
0
10
-2.807155
20
22.670003
30
0
10
-2.370265
20
22.719837
30
0
10
-1.932497
20
22.761252
30
0
10
-1.465796
20
22.363733
30
0
10
-1.859501
20
21.901496
30
0
10
-2.280734
20
21.861646
30
0
10
-2.701121
20
21.813694
30
0
10
-3.120507
20
21.757659
30
0
8
gear_texts
0
LWPOLYLINE
5
2020
100
AcDbEntity
100
AcDbPolyline
66
1
90
10
70
0
43
0
10
1.056484
20
21.091
30
0
10
0.650313
20
21.107429
30
0
10
0.2439
20
21.116036
30
0
10
-0.162602
20
21.116818
30
0
10
-0.58067
20
21.541044
30
0
10
-0.603921
20
22.403579
30
0
10
-0.17589
20
22.842465
30
0
10
0.263832
20
22.841619
30
0
10
0.703456
20
22.832308
30
0
10
1.142819
20
22.814537
30
0
8
gear_texts
0
LWPOLYLINE
5
2021
100
AcDbEntity
100
AcDbPolyline
66
1
90
11
70
0
43
0
10
3.551134
20
21.254251
30
0
10
3.078466
20
20.891852
30
0
10
2.675753
20
20.947238
30
0
10
2.272049
20
20.994862
30
0
10
1.905655
20
21.464441
30
0
10
1.98196
20
22.323909
30
0
10
2.457718
20
22.710543
30
0
10
2.894413
20
22.659027
30
0
10
3.330035
20
22.599115
30
0
10
3.693327
20
22.105303
30
0
10
3.551134
20
21.254251
30
0
8
gear_texts
0
LWPOLYLINE
5
2022
100
AcDbEntity
100
AcDbPolyline
66
1
90
2
70
0
43
0
10
4.279165
20
20.679342
30
0
10
4.628854
20
22.369239
30
0
8
gear_texts
0
LWPOLYLINE
5
2023
100
AcDbEntity
100
AcDbPolyline
66
1
90
6
70
0
43
0
10
4.45401
20
21.524291
30
0
10
4.963039
20
21.855282
30
0
10
5.486425
20
22.174496
30
0
10
5.91224
20
22.064781
30
0
10
6.216203
20
21.532392
30
0
10
5.857218
20
20.288899
30
0
8
gear_texts
0
LWPOLYLINE
5
2024
100
AcDbEntity
100
AcDbPolyline
66
1
90
12
70
0
43
0
10
8.156349
20
19.478717
30
0
10
8.489614
20
20.274608
30
0
10
7.938838
20
20.033187
30
0
10
7.400561
20
19.778224
30
0
10
7.018484
20
19.917011
30
0
10
6.769333
20
20.458003
30
0
10
7.040387
20
21.277172
30
0
10
7.592028
20
21.544611
30
0
10
8.005329
20
21.394482
30
0
10
8.256721
20
20.835346
30
0
10
8.489614
20
20.274608
30
0
10
9.156143
20
21.866391
30
0
8
gear_texts
0
LWPOLYLINE
5
2025
100
AcDbEntity
100
AcDbPolyline
66
1
90
15
70
0
43
0
10
12.068029
20
17.329429
30
0
10
11.732223
20
17.558513
30
0
10
11.39207
20
17.781091
30
0
10
11.047695
20
17.99708
30
0
10
10.91781
20
18.578352
30
0
10
11.354975
20
19.322257
30
0
10
11.950503
20
19.467785
30
0
10
12.323019
20
19.234145
30
0
10
12.69097
20
18.993379
30
0
10
12.807671
20
18.391538
30
0
10
11.821482
20
16.975393
30
0
10
11.25285
20
16.84108
30
0
10
10.926595
20
17.054563
30
0
10
10.596291
20
17.261727
30
0
10
10.480644
20
17.834447
30
0
8
gear_texts
0
LWPOLYLINE
5
2026
100
AcDbEntity
100
AcDbPolyline
66
1
90
13
70
0
43
0
10
13.677553
20
16.089468
30
0
10
13.365316
20
16.349763
30
0
10
13.048127
20
16.604
30
0
10
12.986095
20
17.196368
30
0
10
13.506077
20
17.884937
30
0
10
14.114408
20
17.960864
30
0
10
14.457518
20
17.685851
30
0
10
14.79527
20
17.404285
30
0
10
14.841835
20
16.793005
30
0
10
14.236411
20
16.746877
30
0
10
13.911417
20
17.017807
30
0
10
13.581268
20
17.282432
30
0
10
13.246086
20
17.540653
30
0
8
gear_texts
0
LWPOLYLINE
5
2027
100
AcDbEntity
100
AcDbPolyline
66
1
90
10
70
0
43
0
10
15.756072
20
14.700338
30
0
10
15.160465
20
14.70057
30
0
10
14.874688
20
14.989666
30
0
10
14.881335
20
15.585237
30
0
10
15.477206
20
16.209293
30
0
10
16.090234
20
16.214608
30
0
10
16.399364
20
15.901887
30
0
10
16.386969
20
15.288961
30
0
10
15.756072
20
14.700338
30
0
10
15.715061
20
14.106144
30
0
8
gear_texts
0
LWPOLYLINE
5
2028
100
AcDbEntity
100
AcDbPolyline
66
1
90
2
70
0
43
0
10
16.246367
20
13.490812
30
0
10
17.574005
20
14.593269
30
0
8
gear_texts
0
LWPOLYLINE
5
2029
100
AcDbEntity
100
AcDbPolyline
66
1
90
5
70
0
43
0
10
16.910186
20
14.04204
30
0
10
17.514498
20
13.983113
30
0
10
18.122683
20
13.906024
30
0
10
18.386999
20
13.554608
30
0
10
18.292375
20
12.948904
30
0
8
gear_texts
0
LWPOLYLINE
5
2030
100
AcDbEntity
100
AcDbPolyline
66
1
90
5
70
0
43
0
10
20.605289
20
8.815166
30
0
10
20.43179
20
9.210159
30
0
10
20.250721
20
9.60174
30
0
10
20.062147
20
9.989762
30
0
10
19.866139
20
10.374083
30
0
8
gear_texts
0
LWPOLYLINE
5
2031
100
AcDbEntity
100
AcDbPolyline
66
1
90
5
70
0
43
0
10
21.997753
20
4.28765
30
0
10
21.911146
20
4.710285
30
0
10
21.816419
20
5.131175
30
0
10
21.713608
20
5.550164
30
0
10
21.602751
20
5.967095
30
0
8
gear_texts
0
LWPOLYLINE
5
2032
100
AcDbEntity
100
AcDbPolyline
66
1
90
2
70
0
43
0
10
20.976489
20
4.933625
30
0
10
22.656349
20
5.328725
30
0
8
gear_texts
0
LWPOLYLINE
5
2033
100
AcDbEntity
100
AcDbPolyline
66
1
90
5
70
0
43
0
10
22.844665
20
4.452724
30
0
10
22.332934
20
4.800958
30
0
10
21.816419
20
5.131175
30
0
10
21.295622
20
5.443323
30
0
10
20.771047
20
5.737363
30
0
8
gear_texts
0
LWPOLYLINE
5
2034
100
AcDbEntity
100
AcDbPolyline
66
1
90
5
70
0
43
0
10
21.150842
20
4.122576
30
0
10
21.489357
20
4.619613
30
0
10
21.816419
20
5.131175
30
0
10
22.131594
20
5.657004
30
0
10
22.434455
20
6.196828
30
0
8
gear_texts
0
LWPOLYLINE
5
2035
100
AcDbEntity
100
AcDbPolyline
66
1
90
9
70
0
43
0
10
21.449131
20
2.070873
30
0
10
20.976745
20
2.43364
30
0
10
20.926014
20
2.836965
30
0
10
21.293848
20
3.305417
30
0
10
22.999123
20
3.570124
30
0
10
23.491096
20
3.184717
30
0
10
23.548046
20
2.731952
30
0
10
23.166842
20
2.236715
30
0
10
21.449131
20
2.070873
30
0
8
gear_texts
0
LWPOLYLINE
5
2036
100
AcDbEntity
100
AcDbPolyline
66
1
90
7
70
0
43
0
10
20.976745
20
-2.43364
30
0
10
23.548046
20
-2.731952
30
0
10
22.737414
20
-2.195254
30
0
10
21.915165
20
-1.690807
30
0
10
22.805061
20
-1.318455
30
0
10
23.688425
20
-0.912453
30
0
10
21.101795
20
-0.812819
30
0
8
gear_texts
0
LWPOLYLINE
5
2037
100
AcDbEntity
100
AcDbPolyline
66
1
90
15
70
0
43
0
10
20.556524
20
-4.83485
30
0
10
20.64578
20
-4.438267
30
0
10
20.727386
20
-4.040039
30
0
10
20.801312
20
-3.640314
30
0
10
20.867529
20
-3.23924
30
0
10
21.720167
20
-3.371594
30
0
10
22.07621
20
-3.863426
30
0
10
21.997753
20
-4.28765
30
0
10
21.911146
20
-4.710285
30
0
10
22.236384
20
-5.22995
30
0
10
22.656349
20
-5.328725
30
0
10
23.176511
20
-4.982304
30
0
10
23.268121
20
-4.535261
30
0
10
23.351108
20
-4.086538
30
0
10
22.999123
20
-3.570124
30
0
8
gear_texts
0
LWPOLYLINE
5
2038
100
AcDbEntity
100
AcDbPolyline
66
1
90
2
70
0
43
0
10
20.771047
20
-5.737363
30
0
10
20.355195
20
-5.622496
30
0
8
gear_texts
0
LWPOLYLINE
5
2039
100
AcDbEntity
100
AcDbPolyline
66
1
90
9
70
0
43
0
10
20.123542
20
-7.706931
30
0
10
19.862379
20
-7.171635
30
0
10
19.996744
20
-6.78798
30
0
10
20.534822
20
-6.532597
30
0
10
22.179312
20
-7.055747
30
0
10
22.447918
20
-7.620041
30
0
10
22.297082
20
-8.050724
30
0
10
21.735096
20
-8.324125
30
0
10
20.123542
20
-7.706931
30
0
8
gear_texts
0
LWPOLYLINE
5
2040
100
AcDbEntity
100
AcDbPolyline
66
1
90
15
70
0
43
0
10
18.718873
20
-9.774981
30
0
10
18.903561
20
-9.412855
30
0
10
19.081244
20
-9.047241
30
0
10
19.251857
20
-8.678274
30
0
10
19.415336
20
-8.306092
30
0
10
20.208638
20
-8.645475
30
0
10
20.43179
20
-9.210159
30
0
10
20.250721
20
-9.60174
30
0
10
20.062147
20
-9.989762
30
0
10
20.248562
20
-10.573784
30
0
10
20.630984
20
-10.773484
30
0
10
21.220733
20
-10.56667
30
0
10
21.420197
20
-10.156239
30
0
10
21.611723
20
-9.742045
30
0
10
21.398591
20
-9.154549
30
0
8
gear_texts
0
LWPOLYLINE
5
2041
100
AcDbEntity
100
AcDbPolyline
66
1
90
7
70
0
43
0
10
18.237825
20
-15.144497
30
0
10
16.246367
20
-13.490812
30
0
10
17.008769
20
-13.579351
30
0
10
17.780411
20
-13.643389
30
0
10
18.560631
20
-13.682607
30
0
10
19.348757
20
-13.696702
30
0
10
17.235993
20
-12.201107
30
0
8
gear_texts
0
LWPOLYLINE
5
2042
100
AcDbEntity
100
AcDbPolyline
66
1
90
5
70
0
43
0
10
15.775142
20
-16.521321
30
0
10
16.090234
20
-16.214608
30
0
10
16.399364
20
-15.901887
30
0
10
16.702418
20
-15.583273
30
0
10
16.999282
20
-15.258885
30
0
8
gear_texts
0
LWPOLYLINE
5
2043
100
AcDbEntity
100
AcDbPolyline
66
1
90
5
70
0
43
0
10
15.179271
20
-15.897265
30
0
10
15.482461
20
-15.602137
30
0
10
15.779915
20
-15.301228
30
0
10
16.071521
20
-14.994649
30
0
10
16.357172
20
-14.682514
30
0
8
gear_texts
0
LWPOLYLINE
5
2044
100
AcDbEntity
100
AcDbPolyline
66
1
90
13
70
0
43
0
10
15.413244
20
-17.439534
30
0
10
15.354128
20
-18.061693
30
0
10
15.003618
20
-18.353895
30
0
10
14.647549
20
-18.639296
30
0
10
14.02606
20
-18.573505
30
0
10
13.766069
20
-18.229221
30
0
10
13.847838
20
-17.621648
30
0
10
13.246086
20
-17.540653
30
0
10
12.986095
20
-17.196368
30
0
10
13.048127
20
-16.604
30
0
10
13.365316
20
-16.349763
30
0
10
13.677553
20
-16.089468
30
0
10
14.270426
20
-16.146476
30
0
8
gear_texts
0
LWPOLYLINE
5
2045
100
AcDbEntity
100
AcDbPolyline
66
1
90
2
70
0
43
0
10
14.184467
20
-17.351829
30
0
10
13.847838
20
-17.621648
30
0
8
gear_texts
0
LWPOLYLINE
5
2046
100
AcDbEntity
100
AcDbPolyline
66
1
90
9
70
0
43
0
10
11.273397
20
-18.364756
30
0
10
11.39207
20
-17.781091
30
0
10
11.732223
20
-17.558513
30
0
10
12.314576
20
-17.683465
30
0
10
13.300765
20
-19.09961
30
0
10
13.170343
20
-19.710812
30
0
10
12.788494
20
-19.960672
30
0
10
12.176205
20
-19.835461
30
0
10
11.273397
20
-18.364756
30
0
8
gear_texts
0
LWPOLYLINE
5
2047
100
AcDbEntity
100
AcDbPolyline
66
1
90
10
70
0
43
0
10
8.529779
20
-19.318108
30
0
10
8.156349
20
-19.478717
30
0
10
7.779897
20
-19.632108
30
0
10
7.400561
20
-19.778224
30
0
10
7.16187
20
-20.323911
30
0
10
7.735414
20
-21.951511
30
0
10
8.307712
20
-22.202611
30
0
10
8.733546
20
-22.038585
30
0
10
9.156143
20
-21.866391
30
0
10
9.575348
20
-21.686096
30
0
8
gear_texts
0
LWPOLYLINE
5
2048
100
AcDbEntity
100
AcDbPolyline
66
1
90
2
70
0
43
0
10
9.156143
20
-21.866391
30
0
10
8.156349
20
-19.478717
30
0
8
gear_texts
0
LWPOLYLINE
5
2049
100
AcDbEntity
100
AcDbPolyline
66
1
90
5
70
0
43
0
10
5.058577
20
-22.275995
30
0
10
5.486425
20
-22.174496
30
0
10
5.91224
20
-22.064781
30
0
10
6.335865
20
-21.94689
30
0
10
6.757141
20
-21.820866
30
0
8
gear_texts
0
LWPOLYLINE
5
2050
100
AcDbEntity
100
AcDbPolyline
66
1
90
5
70
0
43
0
10
4.8675
20
-21.434569
30
0
10
5.279188
20
-21.336904
30
0
10
5.688919
20
-21.231333
30
0
10
6.096541
20
-21.117895
30
0
10
6.501905
20
-20.996631
30
0
8
gear_texts
0
LWPOLYLINE
5
2051
100
AcDbEntity
100
AcDbPolyline
66
1
90
14
70
0
43
0
10
4.118142
20
-22.030116
30
0
10
3.693327
20
-22.105303
30
0
10
3.267143
20
-22.1723
30
0
10
2.839748
20
-22.23108
30
0
10
2.364884
20
-21.852703
30
0
10
2.318466
20
-21.423782
30
0
10
2.675753
20
-20.947238
30
0
10
3.078466
20
-20.891852
30
0
10
3.480038
20
-20.828725
30
0
10
3.959594
20
-21.181958
30
0
10
4.197416
20
-22.454194
30
0
10
3.83552
20
-22.956355
30
0
10
3.45582
20
-23.452747
30
0
10
3.003743
20
-23.514922
30
0
8
gear_texts
0
LWPOLYLINE
5
2052
100
AcDbEntity
100
AcDbPolyline
66
1
90
9
70
0
43
0
10
0.248883
20
-21.547431
30
0
10
0.650313
20
-21.107429
30
0
10
1.056484
20
-21.091
30
0
10
1.492138
20
-21.497145
30
0
10
1.611633
20
-23.218702
30
0
10
1.185987
20
-23.676306
30
0
10
0.730027
20
-23.694748
30
0
10
0.268815
20
-23.273014
30
0
10
0.248883
20
-21.547431
30
0
8
gear_texts
0
LWPOLYLINE
5
2053
100
AcDbEntity
100
AcDbPolyline
66
1
90
2
70
0
43
0
10
-0.58067
20
-21.541044
30
0
10
-0.569045
20
-21.109776
30
0
8
gear_texts
0
LWPOLYLINE
5
2054
100
AcDbEntity
100
AcDbPolyline
66
1
90
14
70
0
43
0
10
-1.465796
20
-22.363733
30
0
10
-1.895999
20
-22.331374
30
0
10
-2.325499
20
-22.290741
30
0
10
-2.754138
20
-22.241848
30
0
10
-3.120507
20
-21.757659
30
0
10
-3.059258
20
-21.330604
30
0
10
-2.595087
20
-20.957385
30
0
10
-2.191202
20
-21.003454
30
0
10
-1.786505
20
-21.041741
30
0
10
-1.409363
20
-21.502731
30
0
10
-1.494013
20
-22.794233
30
0
10
-1.968995
20
-23.19113
30
0
10
-2.459797
20
-23.578029
30
0
10
-2.913189
20
-23.526312
30
0
8
gear_texts
0
LWPOLYLINE
5
2055
100
AcDbEntity
100
AcDbPolyline
66
1
90
2
70
0
43
0
10
-3.800374
20
-20.772665
30
0
10
-4.110937
20
-22.470188
30
0
8
gear_texts
0
LWPOLYLINE
5
2056
100
AcDbEntity
100
AcDbPolyline
66
1
90
6
70
0
43
0
10
-4.033296
20
-22.045807
30
0
10
-4.542699
20
-22.386894
30
0
10
-4.878859
20
-21.874227
30
0
10
-5.401013
20
-22.195455
30
0
10
-5.717192
20
-21.670229
30
0
10
-5.387025
20
-20.418776
30
0
8
gear_texts
0
LWPOLYLINE
5
2057
100
AcDbEntity
100
AcDbPolyline
66
1
90
2
70
0
43
0
10
-4.784942
20
-21.45315
30
0
10
-4.878859
20
-21.874227
30
0
8
gear_texts
0
LWPOLYLINE
5
2058
100
AcDbEntity
100
AcDbPolyline
66
1
90
2
70
0
43
0
10
-6.16896
20
-20.196296
30
0
10
-6.673081
20
-21.846719
30
0
8
gear_texts
0
LWPOLYLINE
5
2059
100
AcDbEntity
100
AcDbPolyline
66
1
90
6
70
0
43
0
10
-6.547051
20
-21.434113
30
0
10
-7.092367
20
-21.714223
30
0
10
-7.367207
20
-21.166231
30
0
10
-7.922901
20
-21.425144
30
0
10
-8.176444
20
-20.86698
30
0
10
-7.704256
20
-19.661915
30
0
8
gear_texts
0
LWPOLYLINE
5
2060
100
AcDbEntity
100
AcDbPolyline
66
1
90
2
70
0
43
0
10
-7.225389
20
-20.758782
30
0
10
-7.367207
20
-21.166231
30
0
8
gear_texts
0
LWPOLYLINE
5
2061
100
AcDbEntity
100
AcDbPolyline
66
1
90
11
70
0
43
0
10
-10.905642
20
-19.579378
30
0
10
-11.280501
20
-19.365831
30
0
10
-11.651179
20
-19.145107
30
0
10
-12.01754
20
-18.917289
30
0
10
-12.617752
20
-19.042098
30
0
10
-12.856056
20
-19.401734
30
0
10
-12.711551
20
-20.00976
30
0
10
-12.324033
20
-20.250734
30
0
10
-11.931948
20
-20.484205
30
0
10
-11.535442
20
-20.710085
30
0
10
-10.275843
20
-18.448672
30
0
8
gear_texts
0
LWPOLYLINE
5
2062
100
AcDbEntity
100
AcDbPolyline
66
1
90
7
70
0
43
0
10
-12.33346
20
-17.141534
30
0
10
-12.8374
20
-17.84193
30
0
10
-13.695785
20
-18.282085
30
0
10
-14.575679
20
-18.69555
30
0
10
-14.38932
20
-17.741381
30
0
10
-14.171831
20
-16.801563
30
0
10
-13.615507
20
-16.142008
30
0
8
gear_texts
0
LWPOLYLINE
5
2063
100
AcDbEntity
100
AcDbPolyline
66
1
90
5
70
0
43
0
10
-12.8374
20
-17.84193
30
0
10
-13.178457
20
-17.59152
30
0
10
-13.51463
20
-17.334592
30
0
10
-13.845796
20
-17.07124
30
0
10
-14.171831
20
-16.801563
30
0
8
gear_texts
0
LWPOLYLINE
5
2064
100
AcDbEntity
100
AcDbPolyline
66
1
90
5
70
0
43
0
10
-16.642298
20
-15.647462
30
0
10
-16.338021
20
-15.964906
30
0
10
-16.027689
20
-16.276435
30
0
10
-15.711418
20
-16.581933
30
0
10
-15.389325
20
-16.881286
30
0
8
gear_texts
0
LWPOLYLINE
5
2065
100
AcDbEntity
100
AcDbPolyline
66
1
90
5
70
0
43
0
10
-16.013672
20
-15.056413
30
0
10
-15.720888
20
-15.361867
30
0
10
-15.422279
20
-15.661629
30
0
10
-15.117954
20
-15.955587
30
0
10
-14.808028
20
-16.243633
30
0
8
gear_texts
0
LWPOLYLINE
5
2066
100
AcDbEntity
100
AcDbPolyline
66
1
90
15
70
0
43
0
10
-16.949574
20
-12.595967
30
0
10
-16.703977
20
-12.919891
30
0
10
-16.45219
20
-13.239028
30
0
10
-16.194307
20
-13.55326
30
0
10
-15.930423
20
-13.862469
30
0
10
-16.581333
20
-14.428883
30
0
10
-17.186845
20
-14.38393
30
0
10
-17.460534
20
-14.050439
30
0
10
-17.727753
20
-13.711742
30
0
10
-18.334678
20
-13.625297
30
0
10
-18.680954
20
-13.88263
30
0
10
-18.751528
20
-14.503594
30
0
10
-18.468877
20
-14.86185
30
0
10
-18.179383
20
-15.2146
30
0
10
-17.557698
20
-15.278505
30
0
8
gear_texts
0
LWPOLYLINE
5
2067
100
AcDbEntity
100
AcDbPolyline
66
1
90
9
70
0
43
0
10
-18.451016
20
-11.131656
30
0
10
-17.868281
20
-11.25482
30
0
10
-17.64833
20
-11.596677
30
0
10
-17.777762
20
-12.17805
30
0
10
-19.201459
20
-13.153305
30
0
10
-19.811638
20
-13.018181
30
0
10
-20.058551
20
-12.63442
30
0
10
-19.928628
20
-12.023113
30
0
10
-18.451016
20
-11.131656
30
0
8
gear_texts
0
ENDSEC
0
SECTION
2
OBJECTS
0
DICTIONARY
5
21D
330
0
100
AcDbDictionary
281
1
3
ACAD_CIP_PREVIOUS_PRODUCT_INFO
350
291
3
ACAD_COLOR
350
273
3
ACAD_DETAILVIEWSTYLE
350
27B
3
ACAD_GROUP
350
21E
3
ACAD_LAYOUT
350
272
3
ACAD_MATERIAL
350
221
3
ACAD_MLEADERSTYLE
350
276
3
ACAD_MLINESTYLE
350
26F
3
ACAD_PLOTSETTINGS
350
271
3
ACAD_PLOTSTYLENAME
350
21F
3
ACAD_SCALELIST
350
253
3
ACAD_SECTIONVIEWSTYLE
350
278
3
ACAD_TABLESTYLE
350
274
3
ACAD_VISUALSTYLE
350
23A
3
ACDB_RECOMPOSE_DATA
350
1057
3
AcDbVariableDictionary
350
29D
0
DICTIONARY
5
297
330
213
100
AcDbDictionary
280
1
281
1
3
ACAD_LAYERSTATES
360
298
0
DICTIONARY
5
292
330
265
100
AcDbDictionary
280
1
281
1
3
ADSK_XREC_LAYER_RECONCILED
360
293
0
XRECORD
5
291
102
{ACAD_REACTORS
330
21D
102
}
330
21D
100
AcDbXrecord
280
1
300
ACDMAC
300
2013
300
ACDMAC_F_S
0
DICTIONARY
5
273
102
{ACAD_REACTORS
330
21D
102
}
330
21D
100
AcDbDictionary
281
1
0
DICTIONARY
5
21E
102
{ACAD_REACTORS
330
21D
102
}
330
21D
100
AcDbDictionary
281
1
0
DICTIONARY
5
272
102
{ACAD_REACTORS
330
21D
102
}
330
21D
100
AcDbDictionary
281
1
3
Layout1
350
280
3
Model
350
284
0
DICTIONARY
5
221
102
{ACAD_REACTORS
330
21D
102
}
330
21D
100
AcDbDictionary
281
1
3
ByBlock
350
22A
3
ByLayer
350
222
3
Global
350
232
0
DICTIONARY
5
276
102
{ACAD_REACTORS
330
21D
102
}
330
21D
100
AcDbDictionary
281
1
3
Standard
350
277
0
DICTIONARY
5
26F
102
{ACAD_REACTORS
330
21D
102
}
330
21D
100
AcDbDictionary
281
1
3
Standard
350
270
0
DICTIONARY
5
271
102
{ACAD_REACTORS
330
21D
102
}
330
21D
100
AcDbDictionary
281
1
0
ACDBDICTIONARYWDFLT
5
21F
102
{ACAD_REACTORS
330
21D
102
}
330
21D
100
AcDbDictionary
281
1
3
Normal
350
220
100
AcDbDictionaryWithDefault
340
220
0
DICTIONARY
5
253
102
{ACAD_REACTORS
330
21D
102
}
330
21D
100
AcDbDictionary
281
1
3
A0
350
254
3
A1
350
255
3
A2
350
256
3
A3
350
257
3
A4
350
258
3
A5
350
259
3
A6
350
25A
3
A7
350
25B
3
A8
350
25C
3
A9
350
25D
3
B0
350
25E
3
B1
350
25F
3
B2
350
260
3
B3
350
261
3
B4
350
262
3
B5
350
263
3
B6
350
264
0
DICTIONARY
5
274
102
{ACAD_REACTORS
330
21D
102
}
330
21D
100
AcDbDictionary
281
1
3
Standard
350
275
0
DICTIONARY
5
23A
102
{ACAD_REACTORS
330
21D
102
}
330
21D
100
AcDbDictionary
281
1
3
2dWireframe
350
240
3
Basic
350
23F
3
Brighten
350
246
3
ColorChange
350
24A
3
Conceptual
350
243
3
Dim
350
245
3
EdgeColorOff
350
252
3
Facepattern
350
249
3
Flat
350
23B
3
FlatWithEdges
350
23C
3
Gouraud
350
23D
3
GouraudWithEdges
350
23E
3
Hidden
350
242
3
JitterOff
350
250
3
Linepattern
350
248
3
OverhangOff
350
251
3
Realistic
350
244
3
Shaded
350
24F
3
Shaded with edges
350
24E
3
Shades of Gray
350
24B
3
Sketchy
350
24C
3
Thicken
350
247
3
Wireframe
350
241
3
X-Ray
350
24D
0
XRECORD
5
1057
102
{ACAD_REACTORS
330
21D
102
}
330
21D
100
AcDbXrecord
280
1
90
1
330
275
0
DICTIONARY
5
29D
102
{ACAD_REACTORS
330
21D
102
}
330
21D
100
AcDbDictionary
281
1
3
CANNOSCALE
350
2A3
3
CMLEADERSTYLE
350
29F
3
CTABLESTYLE
350
29E
3
CVIEWDETAILSTYLE
350
2A0
3
CVIEWSECTIONSTYLE
350
2A1
3
LAYEREVAL
350
2A5
3
LAYERNOTIFY
350
2A6
3
LIGHTINGUNITS
350
2A4
3
MSLTSCALE
350
2A2
0
ENDSEC
0
EOF
