0
SECTION
2
HEADER
9
$ACADVER
1
AC1027
9
$ACADMAINTVER
70
8
9
$DWGCODEPAGE
3
ANSI_1252
9
$LASTSAVEDBY
1
macc
9
$REQUIREDVERSIONS
160
0
9
$INSBASE
10
0.0
20
0.0
30
0.0
9
$EXTMIN
10
1.000000000000000E+20
20
1.000000000000000E+20
30
1.000000000000000E+20
9
$EXTMAX
10
-1.000000000000000E+20
20
-1.000000000000000E+20
30
-1.000000000000000E+20
9
$LIMMIN
10
0.0
20
0.0
9
$LIMMAX
10
12.0
20
9.0
9
$MEASUREMENT
70
1
9
$CELWEIGHT
370
-1
9
$ENDCAPS
280
0
9
$JOINSTYLE
280
0
9
$LWDISPLAY
290
0
9
$INSUNITS
70
0
9
$HYPERLINKBASE
1

9
$STYLESHEET
1

9
$XEDIT
290
1
9
$CEPSNTYPE
380
0
9
$PSTYLEMODE
290
1
9
$EXTNAMES
290
1
9
$PSVPSCALE
40
0.0
9
$OLESTARTUP
290
0
9
$SORTENTS
280
127
9
$INDEXCTL
280
0
9
$HIDETEXT
280
0
9
$XCLIPFRAME
280
2
9
$HALOGAP
280
0
9
$OBSCOLOR
70
257
9
$OBSLTYPE
280
0
9
$INTERSECTIONDISPLAY
280
0
9
$INTERSECTIONCOLOR
70
257
9
$DIMASSOC
280
1
9
$PROJECTNAME
1

9
$CAMERADISPLAY
290
0
9
$LENSLENGTH
40
50.0
9
$CAMERAHEIGHT
40
0.0
9
$STEPSPERSEC
40
2.0
9
$STEPSIZE
40
6.0
9
$3DDWFPREC
40
2.0
9
$PSOLWIDTH
40
0.25
9
$PSOLHEIGHT
40
4.0
9
$LOFTANG1
40
1.570796326794896
9
$LOFTANG2
40
1.570796326794896
9
$LOFTMAG1
40
0.0
9
$LOFTMAG2
40
0.0
9
$LOFTPARAM
70
7
9
$LOFTNORMALS
280
1
9
$LATITUDE
40
37.795
9
$LONGITUDE
40
-122.394
9
$NORTHDIRECTION
40
0.0
9
$TIMEZONE
70
-8000
9
$LIGHTGLYPHDISPLAY
280
1
9
$TILEMODELIGHTSYNCH
280
1
9
$CMATERIAL
347
222
9
$SOLIDHIST
280
0
9
$SHOWHIST
280
1
9
$DWFFRAME
280
2
9
$DGNFRAME
280
0
9
$REALWORLDSCALE
290
1
9
$INTERFERECOLOR
62
1
9
$INTERFEREOBJVS
345
244
9
$INTERFEREVPVS
346
241
9
$CSHADOW
280
0
9
$SHADOWPLANELOCATION
40
0.0
0
ENDSEC
0
SECTION
2
CLASSES
0
CLASS
1
ACDBDICTIONARYWDFLT
2
AcDbDictionaryWithDefault
3
ObjectDBX Classes
90
0
91
1
280
0
281
0
0
CLASS
1
MATERIAL
2
AcDbMaterial
3
ObjectDBX Classes
90
1153
91
3
280
0
281
0
0
CLASS
1
VISUALSTYLE
2
AcDbVisualStyle
3
ObjectDBX Classes
90
4095
91
24
280
0
281
0
0
CLASS
1
SCALE
2
AcDbScale
3
ObjectDBX Classes
90
1153
91
17
280
0
281
0
0
CLASS
1
TABLESTYLE
2
AcDbTableStyle
3
ObjectDBX Classes
90
4095
91
1
280
0
281
0
0
CLASS
1
MLEADERSTYLE
2
AcDbMLeaderStyle
3
ACDB_MLEADERSTYLE_CLASS
90
4095
91
1
280
0
281
0
0
CLASS
1
ACDBSECTIONVIEWSTYLE
2
AcDbSectionViewStyle
3
ObjectDBX Classes
90
1025
91
1
280
0
281
0
0
CLASS
1
ACDBDETAILVIEWSTYLE
2
AcDbDetailViewStyle
3
ObjectDBX Classes
90
1025
91
1
280
0
281
0
0
CLASS
1
DICTIONARYVAR
2
AcDbDictionaryVar
3
ObjectDBX Classes
90
0
91
9
280
0
281
0
0
CLASS
1
CELLSTYLEMAP
2
AcDbCellStyleMap
3
ObjectDBX Classes
90
1152
91
2
280
0
281
0
0
ENDSEC
0
SECTION
2
TABLES
0
TABLE
2
VPORT
5
219
330
0
100
AcDbSymbolTable
70
1
0
VPORT
5
285
330
219
100
AcDbSymbolTableRecord
100
AcDbViewportTableRecord
2
*ACTIVE
70
0
10
0.0
20
0.0
11
1.0
21
1.0
12
60.85393284500712
22
1.602311788490737
13
0.0
23
0.0
14
0.5
24
0.5
15
0.5
25
0.5
16
0.0
26
0.0
36
1.0
17
0.0
27
0.0
37
0.0
40
135.7601553851812
41
1.367970660146699
42
50.0
43
0.0
44
0.0
50
0.0
51
0.0
71
0
72
1000
73
1
74
3
75
0
76
1
77
0
78
0
281
0
65
1
110
0.0
120
0.0
130
0.0
111
1.0
121
0.0
131
0.0
112
0.0
122
1.0
132
0.0
79
0
146
0.0
348
240
60
3
61
5
292
1
282
0
141
0.0
142
0.0
63
250
421
3355443
1001
ACAD_NAV_VCDISPLAY
1070
3
0
ENDTAB
0
TABLE
2
LTYPE
5
216
330
0
100
AcDbSymbolTable
70
2
0
LTYPE
5
26B
330
216
100
AcDbSymbolTableRecord
100
AcDbLinetypeTableRecord
2
ByBlock
70
0
3

72
65
73
0
40
0.0
0
LTYPE
5
26C
330
216
100
AcDbSymbolTableRecord
100
AcDbLinetypeTableRecord
2
ByLayer
70
0
3

72
65
73
0
40
0.0
0
LTYPE
5
26D
330
216
100
AcDbSymbolTableRecord
100
AcDbLinetypeTableRecord
2
CONTINUOUS
70
0
3
Solid line
72
65
73
0
40
0.0
0
LTYPE
5
103D
330
216
100
AcDbSymbolTableRecord
100
AcDbLinetypeTableRecord
2
DOTTED
70
0
3
Dotted . . . . . . . . . . . . . . . . . . . .
72
65
73
2
40
3.0
49
0.0
74
0
49
-3.0
74
0
0
ENDTAB
0
TABLE
2
LAYER
5
213
102
{ACAD_XDICTIONARY
360
297
102
}
330
0
100
AcDbSymbolTable
70
4
0
LAYER
5
265
102
{ACAD_XDICTIONARY
360
292
102
}
330
213
100
AcDbSymbolTableRecord
100
AcDbLayerTableRecord
2
0
70
0
62
7
6
CONTINUOUS
370
-3
390
220
347
232
348
0
0
LAYER
5
1900
330
213
100
AcDbSymbolTableRecord
100
AcDbLayerTableRecord
2
gear
70
0
62
7
6
CONTINUOUS
370
-3
390
220
347
232
348
0
1001
AcAecLayerStandard
1000

1000

1001
AcCmTransparency
1071
0
0
LAYER
5
1901
330
213
100
AcDbSymbolTableRecord
100
AcDbLayerTableRecord
2
gear_guides
70
0
62
5
6
CONTINUOUS
370
-3
390
220
347
232
348
0
1001
AcAecLayerStandard
1000

1000

1001
AcCmTransparency
1071
0
0
LAYER
5
1902
330
213
100
AcDbSymbolTableRecord
100
AcDbLayerTableRecord
2
gear_texts
70
0
62
7
6
CONTINUOUS
370
-3
390
220
347
232
348
0
1001
AcAecLayerStandard
1000

1000

1001
AcCmTransparency
1071
0
0
ENDTAB
0
TABLE
2
STYLE
5
214
330
0
100
AcDbSymbolTable
70
3
0
STYLE
5
266
330
214
100
AcDbSymbolTableRecord
100
AcDbTextStyleTableRecord
2
STANDARD
70
0
40
0.0
41
1.0
50
0.0
71
0
42
0.2
3
txt
4

0
STYLE
5
26A
330
214
100
AcDbSymbolTableRecord
100
AcDbTextStyleTableRecord
2
ANNOTATIVE
70
0
40
0.0
41
1.0
50
0.0
71
0
42
0.2
3
txt
4

1001
ACADANNOTATIVE
1000
AnnotativeData
1002
{
1070
1
1070
1
1002
}
0
STYLE
5
301
330
214
100
AcDbSymbolTableRecord
100
AcDbTextStyleTableRecord
2

70
1
40
0.0
41
1.0
50
0.0
71
0
42
0.2
3
ltypeshp.shx
4

0
ENDTAB
0
TABLE
2
VIEW
5
217
330
0
100
AcDbSymbolTable
70
1
0
ENDTAB
0
TABLE
2
UCS
5
218
330
0
100
AcDbSymbolTable
70
0
0
ENDTAB
0
TABLE
2
APPID
5
21A
330
0
100
AcDbSymbolTable
70
10
0
APPID
5
267
330
21A
100
AcDbSymbolTableRecord
100
AcDbRegAppTableRecord
2
ACAD
70
0
0
APPID
5
26E
330
21A
100
AcDbSymbolTableRecord
100
AcDbRegAppTableRecord
2
ACADANNOTATIVE
70
0
0
APPID
5
286
330
21A
100
AcDbSymbolTableRecord
100
AcDbRegAppTableRecord
2
ACADANNOPO
70
0
0
APPID
5
287
330
21A
100
AcDbSymbolTableRecord
100
AcDbRegAppTableRecord
2
ACAD_DSTYLE_DIMJAG
70
0
0
APPID
5
288
330
21A
100
AcDbSymbolTableRecord
100
AcDbRegAppTableRecord
2
ACAD_DSTYLE_DIMTALN
70
0
0
APPID
5
289
330
21A
100
AcDbSymbolTableRecord
100
AcDbRegAppTableRecord
2
ACAD_MLEADERVER
70
0
0
APPID
5
28A
330
21A
100
AcDbSymbolTableRecord
100
AcDbRegAppTableRecord
2
ACAD_NAV_VCDISPLAY
70
0
0
APPID
5
2E7
330
21A
100
AcDbSymbolTableRecord
100
AcDbRegAppTableRecord
2
ACAD_EXEMPT_FROM_CAD_STANDARDS
70
0
0
APPID
5
2FC
330
21A
100
AcDbSymbolTableRecord
100
AcDbRegAppTableRecord
2
AcAecLayerStandard
70
0
0
APPID
5
2FD
330
21A
100
AcDbSymbolTableRecord
100
AcDbRegAppTableRecord
2
AcCmTransparency
70
0
0
ENDTAB
0
TABLE
2
DIMSTYLE
5
21B
330
0
100
AcDbSymbolTable
70
2
100
AcDbDimStyleTable
71
1
340
268
0
DIMSTYLE
105
268
330
21B
100
AcDbSymbolTableRecord
100
AcDbDimStyleTableRecord
2
STANDARD
70
0
279
2
340
266
0
DIMSTYLE
105
269
330
21B
100
AcDbSymbolTableRecord
100
AcDbDimStyleTableRecord
2
ANNOTATIVE
70
0
40
0.0
279
2
340
266
1001
ACADANNOTATIVE
1000
AnnotativeData
1002
{
1070
1
1070
1
1002
}
0
ENDTAB
0
TABLE
2
BLOCK_RECORD
5
212
330
0
100
AcDbSymbolTable
70
2
0
BLOCK_RECORD
5
281
330
212
100
AcDbSymbolTableRecord
100
AcDbBlockTableRecord
2
*Model_Space
340
284
70
0
280
1
281
0
0
BLOCK_RECORD
5
27D
330
212
100
AcDbSymbolTableRecord
100
AcDbBlockTableRecord
2
*Paper_Space
340
280
70
0
280
1
281
0
0
BLOCK_RECORD
5
28C
330
212
100
AcDbSymbolTableRecord
100
AcDbBlockTableRecord
2
$MODEL_SPACE
340
0
70
0
280
1
281
0
0
BLOCK_RECORD
5
28E
330
212
100
AcDbSymbolTableRecord
100
AcDbBlockTableRecord
2
$PAPER_SPACE
340
0
70
0
280
1
281
0
0
ENDTAB
0
ENDSEC
0
SECTION
2
BLOCKS
0
BLOCK
5
282
330
281
100
AcDbEntity
8
0
100
AcDbBlockBegin
2
*Model_Space
70
0
10
0.0
20
0.0
30
0.0
3
*Model_Space
1

0
ENDBLK
5
283
330
281
100
AcDbEntity
8
0
100
AcDbBlockEnd
0
BLOCK
5
27E
330
27D
100
AcDbEntity
67
1
8
0
100
AcDbBlockBegin
2
*Paper_Space
70
0
10
0.0
20
0.0
30
0.0
3
*Paper_Space
1

0
ENDBLK
5
27F
330
27D
100
AcDbEntity
67
1
8
0
100
AcDbBlockEnd
0
BLOCK
5
28D
330
28C
100
AcDbEntity
8
0
100
AcDbBlockBegin
2
$MODEL_SPACE
70
0
10
0.0
20
0.0
30
0.0
3
$MODEL_SPACE
1

0
ENDBLK
5
21
330
28C
100
AcDbEntity
8
0
100
AcDbBlockEnd
0
BLOCK
5
28F
330
28E
100
AcDbEntity
8
0
100
AcDbBlockBegin
2
$PAPER_SPACE
70
0
10
0.0
20
0.0
30
0.0
3
$PAPER_SPACE
1

0
ENDBLK
5
5B
330
28E
100
AcDbEntity
8
0
100
AcDbBlockEnd
0
ENDSEC
0
SECTION
2
ENTITIES
0
LWPOLYLINE
5
2000
100
AcDbEntity
100
AcDbPolyline
66
1
90
1512
70
1
43
0
10
24.947
20
0
30
0
10
25.62932
20
0.000045
30
0
10
25.64944
20
0.000694
30
0
10
25.686641
20
0.002825
30
0
10
25.740849
20
0.007322
30
0
10
25.811954
20
0.015065
30
0
10
25.899814
20
0.02693
30
0
10
26.004252
20
0.043785
30
0
10
26.125058
20
0.066496
30
0
10
26.261986
20
0.095916
30
0
10
26.41476
20
0.132893
30
0
10
26.58307
20
0.178263
30
0
10
26.766572
20
0.232851
30
0
10
26.964891
20
0.29747
30
0
10
27.177621
20
0.372918
30
0
10
27.404323
20
0.45998
30
0
10
27.644528
20
0.559425
30
0
10
27.897738
20
0.672006
30
0
10
28.163422
20
0.798455
30
0
10
28.441023
20
0.93949
30
0
10
28.729954
20
1.095804
30
0
10
29.0296
20
1.268074
30
0
10
29.183242
20
1.360396
30
0
10
29.222036
20
1.384135
30
0
10
29.24149
20
1.396104
30
0
10
29.251231
20
1.402114
30
0
10
29.256105
20
1.405125
30
0
10
29.25626
20
1.405479
30
0
10
29.155715
20
2.801493
30
0
10
29.155511
20
2.801822
30
0
10
29.150256
20
2.804103
30
0
10
29.139755
20
2.808655
30
0
10
29.118786
20
2.817712
30
0
10
29.076991
20
2.835647
30
0
10
28.911704
20
2.904999
30
0
10
28.590464
20
3.032551
30
0
10
28.282116
20
3.145848
30
0
10
27.987169
20
3.245646
30
0
10
27.706107
20
3.332718
30
0
10
27.439378
20
3.407851
30
0
10
27.187401
20
3.471848
30
0
10
26.950563
20
3.525525
30
0
10
26.729217
20
3.56971
30
0
10
26.523684
20
3.605242
30
0
10
26.334254
20
3.632971
30
0
10
26.16118
20
3.653753
30
0
10
26.004683
20
3.668456
30
0
10
25.864952
20
3.677951
30
0
10
25.742139
20
3.683115
30
0
10
25.636363
20
3.684831
30
0
10
25.54771
20
3.683982
30
0
10
25.476229
20
3.681456
30
0
10
25.421936
20
3.678138
30
0
10
25.384814
20
3.674917
30
0
10
25.364809
20
3.672675
30
0
10
24.689524
20
3.574943
30
0
10
24.27455
20
5.753174
30
0
10
24.938468
20
5.910572
30
0
10
24.957896
20
5.915843
30
0
10
24.993603
20
5.926496
30
0
10
25.045312
20
5.943373
30
0
10
25.112715
20
5.967306
30
0
10
25.195471
20
5.999112
30
0
10
25.293207
20
6.039599
30
0
10
25.405519
20
6.089556
30
0
10
25.531971
20
6.149762
30
0
10
25.6721
20
6.220974
30
0
10
25.82541
20
6.303936
30
0
10
25.991376
20
6.399371
30
0
10
26.169448
20
6.507983
30
0
10
26.359044
20
6.630456
30
0
10
26.559557
20
6.767453
30
0
10
26.770354
20
6.919613
30
0
10
26.990775
20
7.087553
30
0
10
27.220137
20
7.271865
30
0
10
27.45773
20
7.473117
30
0
10
27.702824
20
7.69185
30
0
10
27.954665
20
7.928579
30
0
10
28.082875
20
8.053845
30
0
10
28.115149
20
8.085891
30
0
10
28.131318
20
8.102024
30
0
10
28.139411
20
8.110118
30
0
10
28.143459
20
8.114171
30
0
10
28.143528
20
8.114552
30
0
10
27.723751
20
9.449749
30
0
10
27.723476
20
9.450022
30
0
10
27.717837
20
9.45103
30
0
10
27.706568
20
9.453037
30
0
10
27.684076
20
9.457015
30
0
10
27.639271
20
9.464827
30
0
10
27.462447
20
9.494193
30
0
10
27.12045
20
9.544223
30
0
10
26.794285
20
9.583356
30
0
10
26.484274
20
9.612445
30
0
10
26.190707
20
9.632352
30
0
10
25.913841
20
9.643948
30
0
10
25.653898
20
9.64811
30
0
10
25.411065
20
9.645722
30
0
10
25.185495
20
9.63767
30
0
10
24.977309
20
9.624845
30
0
10
24.78659
20
9.60814
30
0
10
24.613388
20
9.588449
30
0
10
24.45772
20
9.566665
30
0
10
24.319565
20
9.54368
30
0
10
24.198872
20
9.520382
30
0
10
24.095551
20
9.497658
30
0
10
24.009483
20
9.476387
30
0
10
23.940511
20
9.457444
30
0
10
23.888447
20
9.441696
30
0
10
23.853069
20
9.43
30
0
10
23.83412
20
9.423205
30
0
10
23.199576
20
9.172376
30
0
10
22.293453
20
11.196193
30
0
10
22.903177
20
11.502459
30
0
10
22.920865
20
11.512068
30
0
10
22.953153
20
11.530668
30
0
10
22.999576
20
11.559015
30
0
10
23.059643
20
11.597847
30
0
10
23.132833
20
11.647881
30
0
10
23.218598
20
11.709815
30
0
10
23.316361
20
11.784327
30
0
10
23.425521
20
11.872072
30
0
10
23.54545
20
11.973681
30
0
10
23.675495
20
12.089762
30
0
10
23.814979
20
12.220899
30
0
10
23.963203
20
12.36765
30
0
10
24.119444
20
12.530545
30
0
10
24.282959
20
12.710091
30
0
10
24.452983
20
12.906762
30
0
10
24.628733
20
13.121008
30
0
10
24.809407
20
13.353246
30
0
10
24.994184
20
13.603866
30
0
10
25.182228
20
13.873226
30
0
10
25.372687
20
14.161653
30
0
10
25.468552
20
14.31311
30
0
10
25.492566
20
14.351734
30
0
10
25.504579
20
14.371161
30
0
10
25.510587
20
14.380903
30
0
10
25.513592
20
14.385781
30
0
10
25.513571
20
14.386168
30
0
10
24.797191
20
15.588566
30
0
10
24.796861
20
15.588769
30
0
10
24.791141
20
15.588449
30
0
10
24.779714
20
15.587803
30
0
10
24.756911
20
15.586487
30
0
10
24.711512
20
15.583756
30
0
10
24.532681
20
15.571552
30
0
10
24.188366
20
15.541364
30
0
10
23.861967
20
15.504223
30
0
10
23.553605
20
15.461034
30
0
10
23.26336
20
15.412704
30
0
10
22.991283
20
15.360137
30
0
10
22.737386
20
15.30424
30
0
10
22.50165
20
15.245915
30
0
10
22.284017
20
15.18606
30
0
10
22.0844
20
15.12557
30
0
10
21.902674
20
15.065333
30
0
10
21.738682
20
15.006229
30
0
10
21.592234
20
14.949133
30
0
10
21.463104
20
14.894906
30
0
10
21.351037
20
14.844403
30
0
10
21.255742
20
14.798464
30
0
10
21.176899
20
14.757918
30
0
10
21.114155
20
14.723579
30
0
10
21.067126
20
14.696249
30
0
10
21.035398
20
14.676709
30
0
10
21.018527
20
14.665728
30
0
10
20.458933
20
14.275324
30
0
10
19.110511
20
16.035622
30
0
10
19.633169
20
16.474244
30
0
10
19.648165
20
16.487674
30
0
10
19.675293
20
16.513219
30
0
10
19.713927
20
16.551508
30
0
10
19.76342
20
16.603145
30
0
10
19.823099
20
16.668709
30
0
10
19.892268
20
16.748753
30
0
10
19.970213
20
16.843802
30
0
10
20.056195
20
16.954356
30
0
10
20.149458
20
17.080883
30
0
10
20.249228
20
17.223826
30
0
10
20.35471
20
17.383595
30
0
10
20.465095
20
17.560573
30
0
10
20.579559
20
17.75511
30
0
10
20.69726
20
17.967524
30
0
10
20.817346
20
18.198105
30
0
10
20.93895
20
18.447106
30
0
10
21.061196
20
18.714751
30
0
10
21.183195
20
19.001228
30
0
10
21.304052
20
19.306693
30
0
10
21.422862
20
19.631268
30
0
10
21.481214
20
19.80075
30
0
10
21.495673
20
19.843872
30
0
10
21.502882
20
19.865545
30
0
10
21.506482
20
19.87641
30
0
10
21.50828
20
19.88185
30
0
10
21.50817
20
19.882221
30
0
10
20.533809
20
20.887
30
0
10
20.533441
20
20.887121
30
0
10
20.527949
20
20.885491
30
0
10
20.516979
20
20.882227
30
0
10
20.495094
20
20.875688
30
0
10
20.451548
20
20.862561
30
0
10
20.280353
20
20.809444
30
0
10
19.95228
20
20.700665
30
0
10
19.643245
20
20.589253
30
0
10
19.353154
20
20.476115
30
0
10
19.081879
20
20.362152
30
0
10
18.829258
20
20.248258
30
0
10
18.595096
20
20.135315
30
0
10
18.379165
20
20.024197
30
0
10
18.181202
20
19.915766
30
0
10
18.000916
20
19.810871
30
0
10
17.83798
20
19.710349
30
0
10
17.692039
20
19.61502
30
0
10
17.562705
20
19.525689
30
0
10
17.449562
20
19.443144
30
0
10
17.352162
20
19.368158
30
0
10
17.27003
20
19.301481
30
0
10
17.202663
20
19.243845
30
0
10
17.149529
20
19.195963
30
0
10
17.110071
20
19.158523
30
0
10
17.083704
20
19.132193
30
0
10
17.069821
20
19.117617
30
0
10
16.615344
20
18.608685
30
0
10
14.897315
20
20.010567
30
0
10
15.304732
20
20.557899
30
0
10
15.316227
20
20.574425
30
0
10
15.336732
20
20.605538
30
0
10
15.365495
20
20.651704
30
0
10
15.401746
20
20.713363
30
0
10
15.444696
20
20.790923
30
0
10
15.493541
20
20.884761
30
0
10
15.547465
20
20.995223
30
0
10
15.605634
20
21.122626
30
0
10
15.667204
20
21.26725
30
0
10
15.73132
20
21.429348
30
0
10
15.797113
20
21.609137
30
0
10
15.863709
20
21.806801
30
0
10
15.930224
20
22.022491
30
0
10
15.995766
20
22.256324
30
0
10
16.05944
20
22.508383
30
0
10
16.120342
20
22.778716
30
0
10
16.17757
20
23.067338
30
0
10
16.230215
20
23.374228
30
0
10
16.277369
20
23.699331
30
0
10
16.318124
20
24.042556
30
0
10
16.335818
20
24.220927
30
0
10
16.339943
20
24.266221
30
0
10
16.341959
20
24.288973
30
0
10
16.342956
20
24.300375
30
0
10
16.343451
20
24.306083
30
0
10
16.343259
20
24.306418
30
0
10
15.163444
20
25.059411
30
0
10
15.163058
20
25.059444
30
0
10
15.15809
20
25.056591
30
0
10
15.148168
20
25.050885
30
0
10
15.128381
20
25.039475
30
0
10
15.089037
20
25.016659
30
0
10
14.934705
20
24.925494
30
0
10
14.640562
20
24.743989
30
0
10
14.36555
20
24.564311
30
0
10
14.10937
20
24.387323
30
0
10
13.871689
20
24.213872
30
0
10
13.652144
20
24.044789
30
0
10
13.45034
20
23.880889
30
0
10
13.265854
20
23.722969
30
0
10
13.098234
20
23.571808
30
0
10
12.946997
20
23.428164
30
0
10
12.811636
20
23.292775
30
0
10
12.691613
20
23.166359
30
0
10
12.586366
20
23.04961
30
0
10
12.495309
20
22.943198
30
0
10
12.417828
20
22.847771
30
0
10
12.353287
20
22.76395
30
0
10
12.301027
20
22.692332
30
0
10
12.260368
20
22.633487
30
0
10
12.230607
20
22.587956
30
0
10
12.211024
20
22.556256
30
0
10
12.200875
20
22.538871
30
0
10
11.876017
20
21.938848
30
0
10
9.881002
20
22.906737
30
0
10
10.151214
20
23.533273
30
0
10
10.158587
20
23.552004
30
0
10
10.171365
20
23.587006
30
0
10
10.188706
20
23.638562
30
0
10
10.209759
20
23.706919
30
0
10
10.233665
20
23.792293
30
0
10
10.259554
20
23.894866
30
0
10
10.286549
20
24.014787
30
0
10
10.31377
20
24.152169
30
0
10
10.340327
20
24.307095
30
0
10
10.365332
20
24.479609
30
0
10
10.38789
20
24.669725
30
0
10
10.407107
20
24.877419
30
0
10
10.422087
20
25.102634
30
0
10
10.431937
20
25.34528
30
0
10
10.435765
20
25.605228
30
0
10
10.432683
20
25.88232
30
0
10
10.421807
20
26.17636
30
0
10
10.402259
20
26.487118
30
0
10
10.373168
20
26.814332
30
0
10
10.333671
20
27.157704
30
0
10
10.309754
20
27.335348
30
0
10
10.303322
20
27.380372
30
0
10
10.300037
20
27.402976
30
0
10
10.298377
20
27.4143
30
0
10
10.297543
20
27.419968
30
0
10
10.297279
20
27.420251
30
0
10
8.975613
20
27.880862
30
0
10
8.97523
20
27.880805
30
0
10
8.971054
20
27.876883
30
0
10
8.962715
20
27.869043
30
0
10
8.946093
20
27.853377
30
0
10
8.913071
20
27.822103
30
0
10
8.783924
20
27.697804
30
0
10
8.539567
20
27.453357
30
0
10
8.313405
20
27.215101
30
0
10
8.104947
20
26.983805
30
0
10
7.913673
20
26.760216
30
0
10
7.739039
20
26.54506
30
0
10
7.580472
20
26.339038
30
0
10
7.437378
20
26.14283
30
0
10
7.309136
20
25.957087
30
0
10
7.195103
20
25.782438
30
0
10
7.094613
20
25.619482
30
0
10
7.006979
20
25.468794
30
0
10
6.931494
20
25.33092
30
0
10
6.867431
20
25.206377
30
0
10
6.814045
20
25.095654
30
0
10
6.770574
20
24.999209
30
0
10
6.736239
20
24.917469
30
0
10
6.710247
20
24.850834
30
0
10
6.691788
20
24.799667
30
0
10
6.680043
20
24.764305
30
0
10
6.674178
20
24.745048
30
0
10
6.496451
20
24.086281
30
0
10
4.332001
20
24.567999
30
0
10
4.45044
20
25.239961
30
0
10
4.453295
20
25.259888
30
0
10
4.457656
20
25.296894
30
0
10
4.46264
20
25.351059
30
0
10
4.467362
20
25.422429
30
0
10
4.470935
20
25.511014
30
0
10
4.472471
20
25.616793
30
0
10
4.471083
20
25.739706
30
0
10
4.465887
20
25.879663
30
0
10
4.456001
20
26.036538
30
0
10
4.440547
20
26.210168
30
0
10
4.418653
20
26.400362
30
0
10
4.389454
20
26.606889
30
0
10
4.352092
20
26.829488
30
0
10
4.305719
20
27.067865
30
0
10
4.249496
20
27.321689
30
0
10
4.182595
20
27.590601
30
0
10
4.104202
20
27.874207
30
0
10
4.013515
20
28.17208
30
0
10
3.909748
20
28.483765
30
0
10
3.792128
20
28.808774
30
0
10
3.727888
20
28.976113
30
0
10
3.711246
20
29.01844
30
0
10
3.702837
20
29.039677
30
0
10
3.698611
20
29.050313
30
0
10
3.696492
20
29.055636
30
0
10
3.696169
20
29.05585
30
0
10
2.303905
20
29.199249
30
0
10
2.303546
20
29.199105
30
0
10
2.300386
20
29.194326
30
0
10
2.294081
20
29.184774
30
0
10
2.281519
20
29.165697
30
0
10
2.2566
20
29.127651
30
0
10
2.159599
20
28.976919
30
0
10
1.978202
20
28.682708
30
0
10
1.813082
20
28.398717
30
0
10
1.663583
20
28.125582
30
0
10
1.529028
20
27.863909
30
0
10
1.40872
20
27.614279
30
0
10
1.30194
20
27.377243
30
0
10
1.207951
20
27.153324
30
0
10
1.126001
20
26.943013
30
0
10
1.055319
20
26.746774
30
0
10
0.995117
20
26.565036
30
0
10
0.944597
20
26.3982
30
0
10
0.902942
20
26.246634
30
0
10
0.869327
20
26.110675
30
0
10
0.842915
20
25.990624
30
0
10
0.822858
20
25.886754
30
0
10
0.808299
20
25.799299
30
0
10
0.798375
20
25.728466
30
0
10
0.792214
20
25.674422
30
0
10
0.78894
20
25.637304
30
0
10
0.787674
20
25.617214
30
0
10
0.76666
20
24.935217
30
0
10
-1.450539
20
24.904794
30
0
10
-1.490258
20
25.585957
30
0
10
-1.492075
20
25.606005
30
0
10
-1.496366
20
25.643019
30
0
10
-1.504007
20
25.696873
30
0
10
-1.515872
20
25.767408
30
0
10
-1.532824
20
25.85443
30
0
10
-1.555724
20
25.957711
30
0
10
-1.58542
20
26.076992
30
0
10
-1.622753
20
26.211978
30
0
10
-1.66855
20
26.362344
30
0
10
-1.72363
20
26.527731
30
0
10
-1.788795
20
26.707748
30
0
10
-1.864835
20
26.901975
30
0
10
-1.952525
20
27.109958
30
0
10
-2.052621
20
27.331214
30
0
10
-2.165865
20
27.565231
30
0
10
-2.292978
20
27.811466
30
0
10
-2.434662
20
28.069348
30
0
10
-2.591599
20
28.338279
30
0
10
-2.764449
20
28.617632
30
0
10
-2.953849
20
28.906754
30
0
10
-3.054949
20
29.054768
30
0
10
-3.080904
20
29.092117
30
0
10
-3.093984
20
29.110842
30
0
10
-3.100549
20
29.120217
30
0
10
-3.103839
20
29.124908
30
0
10
-3.104202
20
29.125041
30
0
10
-4.492007
20
28.943496
30
0
10
-4.492324
20
28.943273
30
0
10
-4.494296
20
28.937895
30
0
10
-4.498229
20
28.927146
30
0
10
-4.506052
20
28.905687
30
0
10
-4.521526
20
28.862919
30
0
10
-4.581151
20
28.69388
30
0
10
-4.689808
20
28.365767
30
0
10
-4.784985
20
28.051352
30
0
10
-4.867464
20
27.751102
30
0
10
-4.938046
20
27.465452
30
0
10
-4.997544
20
27.194806
30
0
10
-5.046781
20
26.939534
30
0
10
-5.086597
20
26.699975
30
0
10
-5.117837
20
26.476435
30
0
10
-5.141358
20
26.269184
30
0
10
-5.158025
20
26.078462
30
0
10
-5.168709
20
25.904472
30
0
10
-5.174287
20
25.747386
30
0
10
-5.175641
20
25.607339
30
0
10
-5.173656
20
25.484433
30
0
10
-5.169218
20
25.378737
30
0
10
-5.163217
20
25.290283
30
0
10
-5.156538
20
25.219069
30
0
10
-5.15007
20
25.165061
30
0
10
-5.144695
20
25.128189
30
0
10
-5.141294
20
25.108348
30
0
10
-5.004463
20
24.439889
30
0
10
-7.15488
20
23.898964
30
0
10
-7.350615
20
24.552607
30
0
10
-7.357007
20
24.571696
30
0
10
-7.369718
20
24.606722
30
0
10
-7.389573
20
24.657363
30
0
10
-7.417384
20
24.72326
30
0
10
-7.453949
20
24.804027
30
0
10
-7.50005
20
24.899243
30
0
10
-7.556453
20
25.00846
30
0
10
-7.623909
20
25.131198
30
0
10
-7.703149
20
25.266949
30
0
10
-7.794885
20
25.415176
30
0
10
-7.899808
20
25.575313
30
0
10
-8.018591
20
25.746768
30
0
10
-8.151881
20
25.928922
30
0
10
-8.300304
20
26.12113
30
0
10
-8.464464
20
26.322723
30
0
10
-8.644936
20
26.533007
30
0
10
-8.842272
20
26.751263
30
0
10
-9.056999
20
26.976753
30
0
10
-9.289613
20
27.208714
30
0
10
-9.540584
20
27.446365
30
0
10
-9.673093
20
27.567073
30
0
10
-9.706961
20
27.59743
30
0
10
-9.724007
20
27.612633
30
0
10
-9.732558
20
27.620242
30
0
10
-9.73684
20
27.624047
30
0
10
-9.737224
20
27.624094
30
0
10
-11.045754
20
27.127392
30
0
10
-11.046011
20
27.127103
30
0
10
-11.046689
20
27.121414
30
0
10
-11.048037
20
27.110048
30
0
10
-11.050701
20
27.087363
30
0
10
-11.055895
20
27.042179
30
0
10
-11.074929
20
26.863946
30
0
10
-11.10499
20
26.51962
30
0
10
-11.125092
20
26.191731
30
0
10
-11.136106
20
25.880553
30
0
10
-11.13891
20
25.586325
30
0
10
-11.134388
20
25.309254
30
0
10
-11.123429
20
25.049508
30
0
10
-11.106925
20
24.807224
30
0
10
-11.085771
20
24.582505
30
0
10
-11.060863
20
24.375416
30
0
10
-11.033097
20
24.185991
30
0
10
-11.003368
20
24.014227
30
0
10
-10.97257
20
23.860089
30
0
10
-10.94159
20
23.723505
30
0
10
-10.911314
20
23.60437
30
0
10
-10.882621
20
23.502546
30
0
10
-10.856382
20
23.41786
30
0
10
-10.833461
20
23.350106
30
0
10
-10.814712
20
23.299046
30
0
10
-10.800978
20
23.264407
30
0
10
-10.793094
20
23.245886
30
0
10
-10.505793
20
22.627
30
0
10
-12.4735
20
21.604736
30
0
10
-12.8147
20
22.19562
30
0
10
-12.825321
20
22.21272
30
0
10
-12.845767
20
22.243871
30
0
10
-12.876766
20
22.288568
30
0
10
-12.919024
20
22.346275
30
0
10
-12.973229
20
22.416432
30
0
10
-13.040046
20
22.49845
30
0
10
-13.120116
20
22.591716
30
0
10
-13.214059
20
22.695589
30
0
10
-13.322469
20
22.809407
30
0
10
-13.445915
20
22.932482
30
0
10
-13.584941
20
23.064106
30
0
10
-13.740062
20
23.203546
30
0
10
-13.911767
20
23.350051
30
0
10
-14.100516
20
23.50285
30
0
10
-14.306741
20
23.661151
30
0
10
-14.530843
20
23.824147
30
0
10
-14.773194
20
23.991011
30
0
10
-15.034133
20
24.160903
30
0
10
-15.313971
20
24.332968
30
0
10
-15.612984
20
24.506334
30
0
10
-15.769759
20
24.59323
30
0
10
-15.809714
20
24.614958
30
0
10
-15.829807
20
24.625821
30
0
10
-15.839881
20
24.631252
30
0
10
-15.844926
20
24.633968
30
0
10
-15.845311
20
24.633924
30
0
10
-17.004021
20
23.848844
30
0
10
-17.004204
20
23.848503
30
0
10
-17.003553
20
23.842811
30
0
10
-17.002243
20
23.83144
30
0
10
-16.999604
20
23.808753
30
0
10
-16.994237
20
23.763589
30
0
10
-16.971656
20
23.585771
30
0
10
-16.921499
20
23.243793
30
0
10
-16.865442
20
22.920106
30
0
10
-16.804397
20
22.614776
30
0
10
-16.739272
20
22.327833
30
0
10
-16.670975
20
22.059273
30
0
10
-16.600409
20
21.809056
30
0
10
-16.528476
20
21.577109
30
0
10
-16.456068
20
21.363325
30
0
10
-16.384073
20
21.167563
30
0
10
-16.313372
20
20.989647
30
0
10
-16.244833
20
20.829369
30
0
10
-16.179318
20
20.686488
30
0
10
-16.117675
20
20.56073
30
0
10
-16.060741
20
20.451789
30
0
10
-16.009339
20
20.359327
30
0
10
-15.964277
20
20.282975
30
0
10
-15.926348
20
20.222333
30
0
10
-15.896329
20
20.176973
30
0
10
-15.874978
20
20.146435
30
0
10
-15.863035
20
20.130231
30
0
10
-15.440753
20
19.594284
30
0
10
-17.11967
20
18.14579
30
0
10
-17.58794
20
18.642061
30
0
10
-17.602218
20
18.65625
30
0
10
-17.629297
20
18.681847
30
0
10
-17.669768
20
18.71819
30
0
10
-17.724196
20
18.764597
30
0
10
-17.793119
20
18.820362
30
0
10
-17.877049
20
18.88476
30
0
10
-17.97647
20
18.957046
30
0
10
-18.091835
20
19.036455
30
0
10
-18.223572
20
19.122204
30
0
10
-18.372073
20
19.213493
30
0
10
-18.537706
20
19.309507
30
0
10
-18.720803
20
19.409415
30
0
10
-18.921666
20
19.512374
30
0
10
-19.140565
20
19.617525
30
0
10
-19.377738
20
19.724
30
0
10
-19.633388
20
19.830921
30
0
10
-19.907688
20
19.937397
30
0
10
-20.200774
20
20.042533
30
0
10
-20.51275
20
20.145425
30
0
10
-20.843683
20
20.245161
30
0
10
-21.016272
20
20.29356
30
0
10
-21.060161
20
20.305488
30
0
10
-21.082217
20
20.311424
30
0
10
-21.093273
20
20.314386
30
0
10
-21.098808
20
20.315865
30
0
10
-21.099172
20
20.315734
30
0
10
-22.045598
20
19.284598
30
0
10
-22.045697
20
19.284224
30
0
10
-22.04375
20
19.278836
30
0
10
-22.039854
20
19.268074
30
0
10
-22.032053
20
19.246606
30
0
10
-22.016416
20
19.203898
30
0
10
-21.953435
20
19.03608
30
0
10
-21.825765
20
18.714887
30
0
10
-21.696572
20
18.412853
30
0
10
-21.566759
20
18.129832
30
0
10
-21.437215
20
17.865642
30
0
10
-21.308825
20
17.620071
30
0
10
-21.182458
20
17.392872
30
0
10
-21.058972
20
17.183767
30
0
10
-20.939214
20
16.992444
30
0
10
-20.824015
20
16.818561
30
0
10
-20.714188
20
16.661746
30
0
10
-20.610535
20
16.521595
30
0
10
-20.513835
20
16.397674
30
0
10
-20.424851
20
16.289521
30
0
10
-20.344329
20
16.196647
30
0
10
-20.272989
20
16.118531
30
0
10
-20.211534
20
16.054629
30
0
10
-20.160643
20
16.004369
30
0
10
-20.120972
20
15.967154
30
0
10
-20.093154
20
15.942363
30
0
10
-20.077795
20
15.929351
30
0
10
-19.543298
20
15.505234
30
0
10
-20.842914
20
13.7086
30
0
10
-21.41301
20
14.083504
30
0
10
-21.430176
20
14.094018
30
0
10
-21.462428
20
14.112679
30
0
10
-21.510189
20
14.13871
30
0
10
-21.573852
20
14.171314
30
0
10
-21.653777
20
14.209681
30
0
10
-21.750296
20
14.252988
30
0
10
-21.863707
20
14.300397
30
0
10
-21.994276
20
14.35106
30
0
10
-22.142236
20
14.404117
30
0
10
-22.307788
20
14.458699
30
0
10
-22.491098
20
14.513927
30
0
10
-22.6923
20
14.568918
30
0
10
-22.911493
20
14.622779
30
0
10
-23.148741
20
14.674614
30
0
10
-23.404076
20
14.723524
30
0
10
-23.677493
20
14.768605
30
0
10
-23.968954
20
14.808954
30
0
10
-24.278386
20
14.843665
30
0
10
-24.60568
20
14.871836
30
0
10
-24.950695
20
14.892566
30
0
10
-25.129793
20
14.899859
30
0
10
-25.17525
20
14.901343
30
0
10
-25.19808
20
14.902033
30
0
10
-25.209521
20
14.902365
30
0
10
-25.215248
20
14.902528
30
0
10
-25.215572
20
14.902316
30
0
10
-25.89869
20
13.680714
30
0
10
-25.898701
20
13.680328
30
0
10
-25.895564
20
13.675534
30
0
10
-25.889291
20
13.66596
30
0
10
-25.876749
20
13.64687
30
0
10
-25.851685
20
13.608919
30
0
10
-25.7517
20
13.460149
30
0
10
-25.553399
20
13.177057
30
0
10
-25.358035
20
12.912959
30
0
10
-25.166451
20
12.667503
30
0
10
-24.979473
20
12.440309
30
0
10
-24.797911
20
12.230966
30
0
10
-24.622554
20
12.039034
30
0
10
-24.454174
20
11.864043
30
0
10
-24.293522
20
11.705495
30
0
10
-24.141328
20
11.562867
30
0
10
-23.998298
20
11.435606
30
0
10
-23.865117
20
11.323137
30
0
10
-23.742445
20
11.224857
30
0
10
-23.630919
20
11.14014
30
0
10
-23.531148
20
11.068339
30
0
10
-23.443717
20
11.008781
30
0
10
-23.369181
20
10.960774
30
0
10
-23.308071
20
10.923605
30
0
10
-23.260888
20
10.896542
30
0
10
-23.228102
20
10.878835
30
0
10
-23.210157
20
10.869715
30
0
10
-22.592259
20
10.580294
30
0
10
-23.442512
20
8.532377
30
0
10
-24.083699
20
8.765701
30
0
10
-24.102827
20
8.771973
30
0
10
-24.138513
20
8.782694
30
0
10
-24.19099
20
8.797008
30
0
10
-24.260455
20
8.814051
30
0
10
-24.347075
20
8.832952
30
0
10
-24.45098
20
8.852833
30
0
10
-24.572267
20
8.87281
30
0
10
-24.711
20
8.891997
30
0
10
-24.867208
20
8.909501
30
0
10
-25.040884
20
8.924433
30
0
10
-25.23199
20
8.935898
30
0
10
-25.44045
20
8.943006
30
0
10
-25.666155
20
8.944866
30
0
10
-25.908963
20
8.940591
30
0
10
-26.168694
20
8.929298
30
0
10
-26.445138
20
8.91011
30
0
10
-26.738048
20
8.882155
30
0
10
-27.047144
20
8.844571
30
0
10
-27.372113
20
8.796504
30
0
10
-27.712607
20
8.737108
30
0
10
-27.88856
20
8.702902
30
0
10
-27.933134
20
8.693863
30
0
10
-27.955508
20
8.68927
30
0
10
-27.966717
20
8.686954
30
0
10
-27.972327
20
8.685792
30
0
10
-27.972594
20
8.685511
30
0
10
-28.355577
20
7.3393
30
0
10
-28.355498
20
7.338921
30
0
10
-28.35134
20
7.33498
30
0
10
-28.343029
20
7.327111
30
0
10
-28.326423
20
7.311428
30
0
10
-28.293282
20
7.28028
30
0
10
-28.161684
20
7.158579
30
0
10
-27.903442
20
6.928849
30
0
10
-27.652439
20
6.716923
30
0
10
-27.409413
20
6.522266
30
0
10
-27.175081
20
6.344316
30
0
10
-26.950135
20
6.182487
30
0
10
-26.735242
20
6.036169
30
0
10
-26.531045
20
5.904725
30
0
10
-26.33816
20
5.7875
30
0
10
-26.157176
20
5.683815
30
0
10
-25.988653
20
5.592969
30
0
10
-25.833125
20
5.514245
30
0
10
-25.691095
20
5.446905
30
0
10
-25.563038
20
5.390191
30
0
10
-25.449398
20
5.343334
30
0
10
-25.350588
20
5.305545
30
0
10
-25.26699
20
5.276021
30
0
10
-25.198956
20
5.253947
30
0
10
-25.146803
20
5.238495
30
0
10
-25.110818
20
5.228825
30
0
10
-25.091253
20
5.22409
30
0
10
-24.423266
20
5.084967
30
0
10
-24.778317
20
2.89617
30
0
10
-25.456029
20
2.975337
30
0
10
-25.476088
20
2.977029
30
0
10
-25.513285
20
2.979231
30
0
10
-25.567648
20
2.981057
30
0
10
-25.639172
20
2.981621
30
0
10
-25.727815
20
2.980037
30
0
10
-25.833504
20
2.97542
30
0
10
-25.956129
20
2.966888
30
0
10
-26.095547
20
2.953563
30
0
10
-26.251581
20
2.934572
30
0
10
-26.42402
20
2.909048
30
0
10
-26.612618
20
2.876133
30
0
10
-26.817098
20
2.834975
30
0
10
-27.037149
20
2.784733
30
0
10
-27.272425
20
2.724578
30
0
10
-27.522551
20
2.653691
30
0
10
-27.787118
20
2.571268
30
0
10
-28.065686
20
2.476517
30
0
10
-28.357783
20
2.368664
30
0
10
-28.662907
20
2.246949
30
0
10
-28.980526
20
2.110631
30
0
10
-29.143847
20
2.03677
30
0
10
-29.185135
20
2.017695
30
0
10
-29.205847
20
2.008066
30
0
10
-29.21622
20
2.003228
30
0
10
-29.221411
20
2.000803
30
0
10
-29.221605
20
2.000468
30
0
10
-29.283808
20
0.602222
30
0
10
-29.283644
20
0.601872
30
0
10
-29.278689
20
0.598996
30
0
10
-29.268787
20
0.593256
30
0
10
-29.249012
20
0.581825
30
0
10
-29.209581
20
0.559159
30
0
10
-29.053464
20
0.471087
30
0
10
-28.749204
20
0.307104
30
0
10
-28.456093
20
0.158776
30
0
10
-28.174727
20
0.025412
30
0
10
-27.905673
20
-0.093701
30
0
10
-27.64947
20
-0.199291
30
0
10
-27.406627
20
-0.292108
30
0
10
-27.177621
20
-0.372918
30
0
10
-26.962901
20
-0.442501
30
0
10
-26.762884
20
-0.501653
30
0
10
-26.577953
20
-0.551186
30
0
10
-26.408462
20
-0.59192
30
0
10
-26.254731
20
-0.624692
30
0
10
-26.117047
20
-0.650344
30
0
10
-25.995664
20
-0.669731
30
0
10
-25.890802
20
-0.683715
30
0
10
-25.80265
20
-0.693164
30
0
10
-25.731358
20
-0.698953
30
0
10
-25.677048
20
-0.701962
30
0
10
-25.639802
20
-0.703071
30
0
10
-25.619673
20
-0.703167
30
0
10
-24.937608
20
-0.684491
30
0
10
-24.778317
20
-2.89617
30
0
10
-25.456019
20
-2.975428
30
0
10
-25.475927
20
-2.978407
30
0
10
-25.512629
20
-2.984843
30
0
10
-25.565948
20
-2.995603
30
0
10
-25.635674
20
-3.011548
30
0
10
-25.721563
20
-3.033533
30
0
10
-25.823338
20
-3.062399
30
0
10
-25.94069
20
-3.09898
30
0
10
-26.073277
20
-3.144098
30
0
10
-26.220725
20
-3.198561
30
0
10
-26.38263
20
-3.263164
30
0
10
-26.558554
20
-3.338686
30
0
10
-26.74803
20
-3.425891
30
0
10
-26.950563
20
-3.525525
30
0
10
-27.165624
20
-3.638317
30
0
10
-27.392661
20
-3.764977
30
0
10
-27.631088
20
-3.906191
30
0
10
-27.880296
20
-4.06263
30
0
10
-28.139647
20
-4.234938
30
0
10
-28.408477
20
-4.423739
30
0
10
-28.686098
20
-4.62963
30
0
10
-28.827983
20
-4.739165
30
0
10
-28.863759
20
-4.767247
30
0
10
-28.881692
20
-4.781394
30
0
10
-28.890669
20
-4.788494
30
0
10
-28.895161
20
-4.79205
30
0
10
-28.895273
20
-4.792421
30
0
10
-28.633341
20
-6.167322
30
0
10
-28.633101
20
-6.167625
30
0
10
-28.627616
20
-6.169281
30
0
10
-28.616657
20
-6.172582
30
0
10
-28.594779
20
-6.179145
30
0
10
-28.551184
20
-6.192106
30
0
10
-28.378964
20
-6.241801
30
0
10
-28.045088
20
-6.331197
30
0
10
-27.725671
20
-6.40793
30
0
10
-27.421134
20
-6.472812
30
0
10
-27.131863
20
-6.526666
30
0
10
-26.858215
20
-6.570326
30
0
10
-26.600513
20
-6.604638
30
0
10
-26.359044
20
-6.630456
30
0
10
-26.134065
20
-6.648646
30
0
10
-25.925797
20
-6.660077
30
0
10
-25.734429
20
-6.665626
30
0
10
-25.560112
20
-6.666176
30
0
10
-25.402967
20
-6.662611
30
0
10
-25.263079
20
-6.655819
30
0
10
-25.140496
20
-6.646691
30
0
10
-25.035237
20
-6.636115
30
0
10
-24.947281
20
-6.62498
30
0
10
-24.876577
20
-6.614173
30
0
10
-24.823036
20
-6.604575
30
0
10
-24.786539
20
-6.597065
30
0
10
-24.766929
20
-6.592517
30
0
10
-24.107557
20
-6.417049
30
0
10
-23.442512
20
-8.532377
30
0
10
-24.083668
20
-8.765787
30
0
10
-24.102352
20
-8.773277
30
0
10
-24.136581
20
-8.788003
30
0
10
-24.185981
20
-8.810769
30
0
10
-24.25015
20
-8.842365
30
0
10
-24.328654
20
-8.883564
30
0
10
-24.421029
20
-8.935123
30
0
10
-24.526781
20
-8.997782
30
0
10
-24.645389
20
-9.07226
30
0
10
-24.776303
20
-9.159259
30
0
10
-24.918945
20
-9.259458
30
0
10
-25.07271
20
-9.373515
30
0
10
-25.236969
20
-9.502066
30
0
10
-25.411065
20
-9.645722
30
0
10
-25.594318
20
-9.80507
30
0
10
-25.786025
20
-9.980673
30
0
10
-25.985459
20
-10.173067
30
0
10
-26.191872
20
-10.38276
30
0
10
-26.404495
20
-10.610234
30
0
10
-26.622538
20
-10.855942
30
0
10
-26.845194
20
-11.120307
30
0
10
-26.957994
20
-11.259611
30
0
10
-26.986329
20
-11.295187
30
0
10
-27.000516
20
-11.313087
30
0
10
-27.007615
20
-11.322066
30
0
10
-27.011165
20
-11.326562
30
0
10
-27.011189
20
-11.326949
30
0
10
-26.439244
20
-12.604384
30
0
10
-26.43894
20
-12.604623
30
0
10
-26.433221
20
-12.60497
30
0
10
-26.421796
20
-12.605655
30
0
10
-26.398994
20
-12.606995
30
0
10
-26.353585
20
-12.609553
30
0
10
-26.174547
20
-12.618192
30
0
10
-25.829055
20
-12.628181
30
0
10
-25.500552
20
-12.629184
30
0
10
-25.18926
20
-12.622086
30
0
10
-24.895367
20
-12.607777
30
0
10
-24.619027
20
-12.587153
30
0
10
-24.360358
20
-12.561109
30
0
10
-24.119444
20
-12.530545
30
0
10
-23.896335
20
-12.496361
30
0
10
-23.691045
20
-12.459454
30
0
10
-23.503555
20
-12.420721
30
0
10
-23.33381
20
-12.381055
30
0
10
-23.181723
20
-12.341347
30
0
10
-23.047171
20
-12.302478
30
0
10
-22.929999
20
-12.265326
30
0
10
-22.830015
20
-12.230761
30
0
10
-22.746998
20
-12.199642
30
0
10
-22.680692
20
-12.17282
30
0
10
-22.630808
20
-12.151134
30
0
10
-22.597026
20
-12.13541
30
0
10
-22.578995
20
-12.126461
30
0
10
-21.977861
20
-11.803662
30
0
10
-20.842914
20
-13.7086
30
0
10
-21.41296
20
-14.08358
30
0
10
-21.429413
20
-14.095177
30
0
10
-21.459323
20
-14.1174
30
0
10
-21.502142
20
-14.150945
30
0
10
-21.557294
20
-14.196487
30
0
10
-21.624181
20
-14.25468
30
0
10
-21.702175
20
-14.326152
30
0
10
-21.790627
20
-14.41151
30
0
10
-21.888863
20
-14.511334
30
0
10
-21.996184
20
-14.626179
30
0
10
-22.111874
20
-14.756572
30
0
10
-22.235191
20
-14.903016
30
0
10
-22.365376
20
-15.065982
30
0
10
-22.50165
20
-15.245915
30
0
10
-22.643215
20
-15.443229
30
0
10
-22.789257
20
-15.65831
30
0
10
-22.938947
20
-15.89151
30
0
10
-23.091437
20
-16.143153
30
0
10
-23.24587
20
-16.41353
30
0
10
-23.401372
20
-16.702899
30
0
10
-23.557059
20
-17.011486
30
0
10
-23.634693
20
-17.173048
30
0
10
-23.65406
20
-17.214199
30
0
10
-23.663737
20
-17.234889
30
0
10
-23.668573
20
-17.245263
30
0
10
-23.670991
20
-17.250457
30
0
10
-23.670925
20
-17.250838
30
0
10
-22.8198
20
-18.36194
30
0
10
-22.819448
20
-18.362103
30
0
10
-22.813804
20
-18.361121
30
0
10
-22.802529
20
-18.359153
30
0
10
-22.780033
20
-18.355199
30
0
10
-22.735258
20
-18.347216
30
0
10
-22.559053
20
-18.314333
30
0
10
-22.22057
20
-18.244376
30
0
10
-21.900691
20
-18.169594
30
0
10
-21.599427
20
-18.090899
30
0
10
-21.316756
20
-18.0092
30
0
10
-21.052621
20
-17.925403
30
0
10
-20.80693
20
-17.840408
30
0
10
-20.579559
20
-17.75511
30
0
10
-20.370347
20
-17.670394
30
0
10
-20.179102
20
-17.587139
30
0
10
-20.005598
20
-17.506211
30
0
10
-19.849576
20
-17.428469
30
0
10
-19.710746
20
-17.354757
30
0
10
-19.588785
20
-17.285906
30
0
10
-19.483339
20
-17.222734
30
0
10
-19.394022
20
-17.166043
30
0
10
-19.320419
20
-17.116618
30
0
10
-19.262086
20
-17.075228
30
0
10
-19.218548
20
-17.042622
30
0
10
-19.189303
20
-17.019531
30
0
10
-19.17382
20
-17.006666
30
0
10
-18.663333
20
-16.553936
30
0
10
-17.11967
20
-18.14579
30
0
10
-17.587874
20
-18.642123
30
0
10
-17.601209
20
-18.657203
30
0
10
-17.625188
20
-18.685724
30
0
10
-17.659116
20
-18.72824
30
0
10
-17.702279
20
-18.785274
30
0
10
-17.753943
20
-18.857323
30
0
10
-17.813352
20
-18.944855
30
0
10
-17.879735
20
-19.048311
30
0
10
-17.952302
20
-19.168098
30
0
10
-18.030245
20
-19.304597
30
0
10
-18.112746
20
-19.458156
30
0
10
-18.198966
20
-19.629091
30
0
10
-18.28806
20
-19.817687
30
0
10
-18.379165
20
-20.024197
30
0
10
-18.47141
20
-20.24884
30
0
10
-18.563915
20
-20.491802
30
0
10
-18.65579
20
-20.753237
30
0
10
-18.746137
20
-21.033264
30
0
10
-18.834054
20
-21.331967
30
0
10
-18.918631
20
-21.649397
30
0
10
-18.998957
20
-21.985571
30
0
10
-19.037239
20
-22.160681
30
0
10
-19.046594
20
-22.20519
30
0
10
-19.051239
20
-22.227554
30
0
10
-19.053552
20
-22.238763
30
0
10
-19.054707
20
-22.244375
30
0
10
-19.054555
20
-22.244731
30
0
10
-17.970134
20
-23.1296
30
0
10
-17.969755
20
-23.129677
30
0
10
-17.964489
20
-23.12742
30
0
10
-17.953972
20
-23.122905
30
0
10
-17.932994
20
-23.113869
30
0
10
-17.891267
20
-23.095775
30
0
10
-17.727395
20
-23.023143
30
0
10
-17.414169
20
-22.877013
30
0
10
-17.120158
20
-22.730477
30
0
10
-16.845163
20
-22.584427
30
0
10
-16.588953
20
-22.439742
30
0
10
-16.351263
20
-22.29729
30
0
10
-16.131796
20
-22.157926
30
0
10
-15.930224
20
-22.022491
30
0
10
-15.746188
20
-21.891811
30
0
10
-15.579298
20
-21.766696
30
0
10
-15.429134
20
-21.647938
30
0
10
-15.295247
20
-21.53631
30
0
10
-15.177158
20
-21.432568
30
0
10
-15.074363
20
-21.337447
30
0
10
-14.986327
20
-21.25166
30
0
10
-14.912491
20
-21.175899
30
0
10
-14.852271
20
-21.110833
30
0
10
-14.805055
20
-21.057105
30
0
10
-14.77021
20
-21.015338
30
0
10
-14.747078
20
-20.986125
30
0
10
-14.734981
20
-20.970036
30
0
10
-14.34266
20
-20.411784
30
0
10
-12.4735
20
-21.604736
30
0
10
-12.814621
20
-22.195665
30
0
10
-12.824119
20
-22.213414
30
0
10
-12.840874
20
-22.246696
30
0
10
-12.864083
20
-22.29589
30
0
10
-12.89293
20
-22.361341
30
0
10
-12.926585
20
-22.443362
30
0
10
-12.964207
20
-22.542236
30
0
10
-13.004942
20
-22.658212
30
0
10
-13.047927
20
-22.791505
30
0
10
-13.092291
20
-22.9423
30
0
10
-13.137155
20
-23.110746
30
0
10
-13.181631
20
-23.296957
30
0
10
-13.224829
20
-23.501016
30
0
10
-13.265854
20
-23.722969
30
0
10
-13.303807
20
-23.96283
30
0
10
-13.337788
20
-24.220577
30
0
10
-13.366895
20
-24.496152
30
0
10
-13.390228
20
-24.789467
30
0
10
-13.406889
20
-25.100393
30
0
10
-13.415983
20
-25.428772
30
0
10
-13.416616
20
-25.774408
30
0
10
-13.413483
20
-25.953627
30
0
10
-13.412322
20
-25.999093
30
0
10
-13.411683
20
-26.021925
30
0
10
-13.411349
20
-26.033366
30
0
10
-13.411179
20
-26.039092
30
0
10
-13.410949
20
-26.039404
30
0
10
-12.151694
20
-26.650336
30
0
10
-12.151307
20
-26.650324
30
0
10
-12.146704
20
-26.646914
30
0
10
-12.137511
20
-26.640095
30
0
10
-12.119183
20
-26.626465
30
0
10
-12.082753
20
-26.599236
30
0
10
-11.940049
20
-26.49077
30
0
10
-11.668966
20
-26.276344
30
0
10
-11.416673
20
-26.065955
30
0
10
-11.182772
20
-25.860423
30
0
10
-10.966835
20
-25.660551
30
0
10
-10.768403
20
-25.467124
30
0
10
-10.586992
20
-25.280904
30
0
10
-10.422087
20
-25.102634
30
0
10
-10.273148
20
-24.933036
30
0
10
-10.139611
20
-24.772805
30
0
10
-10.020882
20
-24.622618
30
0
10
-9.916347
20
-24.483123
30
0
10
-9.825366
20
-24.354944
30
0
10
-9.747277
20
-24.238681
30
0
10
-9.681398
20
-24.134904
30
0
10
-9.627025
20
-24.044157
30
0
10
-9.583433
20
-23.966957
30
0
10
-9.54988
20
-23.903789
30
0
10
-9.525607
20
-23.855112
30
0
10
-9.509835
20
-23.821352
30
0
10
-9.501774
20
-23.802906
30
0
10
-9.248771
20
-23.169226
30
0
10
-7.15488
20
-23.898964
30
0
10
-7.350528
20
-24.552633
30
0
10
-7.355678
20
-24.572094
30
0
10
-7.364305
20
-24.608343
30
0
10
-7.375544
20
-24.661563
30
0
10
-7.388519
20
-24.731902
30
0
10
-7.402352
20
-24.819474
30
0
10
-7.416158
20
-24.924359
30
0
10
-7.429049
20
-25.046603
30
0
10
-7.440136
20
-25.186217
30
0
10
-7.448528
20
-25.343178
30
0
10
-7.453336
20
-25.517429
30
0
10
-7.45367
20
-25.708878
30
0
10
-7.448645
20
-25.917398
30
0
10
-7.437378
20
-26.14283
30
0
10
-7.418992
20
-26.384978
30
0
10
-7.392617
20
-26.643613
30
0
10
-7.357387
20
-26.918474
30
0
10
-7.312449
20
-27.209262
30
0
10
-7.256956
20
-27.51565
30
0
10
-7.190075
20
-27.837274
30
0
10
-7.110982
20
-28.17374
30
0
10
-7.066603
20
-28.347405
30
0
10
-7.054987
20
-28.391378
30
0
10
-7.049101
20
-28.413448
30
0
10
-7.046137
20
-28.424503
30
0
10
-7.044651
20
-28.430036
30
0
10
-7.044355
20
-28.430286
30
0
10
-5.678153
20
-28.734347
30
0
10
-5.677779
20
-28.734246
30
0
10
-5.674086
20
-28.729866
30
0
10
-5.666714
20
-28.72111
30
0
10
-5.652023
20
-28.703621
30
0
10
-5.622855
20
-28.668725
30
0
10
-5.509011
20
-28.530273
30
0
10
-5.294685
20
-28.259111
30
0
10
-5.097713
20
-27.99621
30
0
10
-4.917515
20
-27.742277
30
0
10
-4.753492
20
-27.497994
30
0
10
-4.605017
20
-27.264019
30
0
10
-4.47144
20
-27.040982
30
0
10
-4.352092
20
-26.829488
30
0
10
-4.246281
20
-26.630114
30
0
10
-4.153294
20
-26.443406
30
0
10
-4.072401
20
-26.269886
30
0
10
-4.002854
20
-26.110044
30
0
10
-3.943885
20
-25.964339
30
0
10
-3.894714
20
-25.833201
30
0
10
-3.854543
20
-25.717029
30
0
10
-3.822563
20
-25.616189
30
0
10
-3.79795
20
-25.531016
30
0
10
-3.779869
20
-25.461813
30
0
10
-3.767475
20
-25.40885
30
0
10
-3.759915
20
-25.372363
30
0
10
-3.756325
20
-25.352556
30
0
10
-3.656278
20
-24.67761
30
0
10
-1.450539
20
-24.904794
30
0
10
-1.490167
20
-25.585962
30
0
10
-1.49069
20
-25.606086
30
0
10
-1.490725
20
-25.643348
30
0
10
-1.489387
20
-25.697725
30
0
10
-1.485792
20
-25.76916
30
0
10
-1.479056
20
-25.857562
30
0
10
-1.468301
20
-25.962803
30
0
10
-1.452654
20
-26.084725
30
0
10
-1.431245
20
-26.223132
30
0
10
-1.403213
20
-26.377798
30
0
10
-1.367706
20
-26.548461
30
0
10
-1.323881
20
-26.734826
30
0
10
-1.270903
20
-26.936567
30
0
10
-1.207951
20
-27.153324
30
0
10
-1.134218
20
-27.384705
30
0
10
-1.048908
20
-27.630286
30
0
10
-0.95124
20
-27.889613
30
0
10
-0.840453
20
-28.1622
30
0
10
-0.715798
20
-28.447532
30
0
10
-0.576548
20
-28.745062
30
0
10
-0.421993
20
-29.054218
30
0
10
-0.33876
20
-29.212968
30
0
10
-0.317317
20
-29.253077
30
0
10
-0.306499
20
-29.273194
30
0
10
-0.301066
20
-29.283268
30
0
10
-0.298344
20
-29.288309
30
0
10
-0.297999
20
-29.288484
30
0
10
1.101499
20
-29.269281
30
0
10
1.101839
20
-29.269096
30
0
10
1.104422
20
-29.263983
30
0
10
1.109577
20
-29.253763
30
0
10
1.119838
20
-29.233357
30
0
10
1.140173
20
-29.192675
30
0
10
1.219019
20
-29.031701
30
0
10
1.365033
20
-28.718421
30
0
10
1.496067
20
-28.417181
30
0
10
1.612846
20
-28.128537
30
0
10
1.716113
20
-27.853013
30
0
10
1.806628
20
-27.591104
30
0
10
1.885168
20
-27.343274
30
0
10
1.952525
20
-27.109958
30
0
10
2.009505
20
-26.891555
30
0
10
2.056928
20
-26.688436
30
0
10
2.095624
20
-26.500939
30
0
10
2.126434
20
-26.329366
30
0
10
2.150212
20
-26.173989
30
0
10
2.167815
20
-26.035047
30
0
10
2.180112
20
-25.912742
30
0
10
2.187975
20
-25.807245
30
0
10
2.192282
20
-25.718692
30
0
10
2.193916
20
-25.647184
30
0
10
2.193762
20
-25.592791
30
0
10
2.192704
20
-25.555544
30
0
10
2.191629
20
-25.535443
30
0
10
2.133326
20
-24.855618
30
0
10
4.332001
20
-24.567999
30
0
10
4.45053
20
-25.239946
30
0
10
4.454662
20
-25.259647
30
0
10
4.463221
20
-25.295913
30
0
10
4.477063
20
-25.348516
30
0
10
4.497035
20
-25.417196
30
0
10
4.523976
20
-25.501662
30
0
10
4.558711
20
-25.601586
30
0
10
4.602054
20
-25.716613
30
0
10
4.654805
20
-25.846352
30
0
10
4.717749
20
-25.990384
30
0
10
4.791657
20
-26.148258
30
0
10
4.87728
20
-26.319493
30
0
10
4.975355
20
-26.503579
30
0
10
5.086597
20
-26.699975
30
0
10
5.211703
20
-26.908115
30
0
10
5.351348
20
-27.127403
30
0
10
5.506188
20
-27.357216
30
0
10
5.676852
20
-27.596906
30
0
10
5.863948
20
-27.845799
30
0
10
6.068061
20
-28.103197
30
0
10
6.289746
20
-28.368376
30
0
10
6.407346
20
-28.503652
30
0
10
6.43746
20
-28.537735
30
0
10
6.452626
20
-28.554815
30
0
10
6.460235
20
-28.563365
30
0
10
6.464047
20
-28.567642
30
0
10
6.464423
20
-28.567732
30
0
10
7.821768
20
-28.2263
30
0
10
7.822057
20
-28.226042
30
0
10
7.823391
20
-28.220471
30
0
10
7.82605
20
-28.209338
30
0
10
7.831329
20
-28.187116
30
0
10
7.841733
20
-28.142841
30
0
10
7.881331
20
-27.968023
30
0
10
7.951162
20
-27.629514
30
0
10
8.009194
20
-27.306176
30
0
10
8.056259
20
-26.998381
30
0
10
8.093201
20
-26.706468
30
0
10
8.120876
20
-26.430745
30
0
10
8.140146
20
-26.171483
30
0
10
8.151881
20
-25.928922
30
0
10
8.156958
20
-25.703266
30
0
10
8.15626
20
-25.494686
30
0
10
8.150673
20
-25.303318
30
0
10
8.141086
20
-25.129265
30
0
10
8.12839
20
-24.972593
30
0
10
8.113476
20
-24.833336
30
0
10
8.097236
20
-24.711492
30
0
10
8.080558
20
-24.607025
30
0
10
8.064327
20
-24.519866
30
0
10
8.049427
20
-24.449909
30
0
10
8.036732
20
-24.397018
30
0
10
8.027113
20
-24.361019
30
0
10
8.021432
20
-24.341707
30
0
10
7.807922
20
-23.693652
30
0
10
9.881002
20
-22.906737
30
0
10
10.151297
20
-23.533237
30
0
10
10.159861
20
-23.551454
30
0
10
10.176553
20
-23.584769
30
0
10
10.202153
20
-23.632762
30
0
10
10.237426
20
-23.694985
30
0
10
10.28312
20
-23.77096
30
0
10
10.339963
20
-23.860181
30
0
10
10.408664
20
-23.962111
30
0
10
10.489913
20
-24.076188
30
0
10
10.584377
20
-24.201822
30
0
10
10.6927
20
-24.338397
30
0
10
10.815505
20
-24.48527
30
0
10
10.953389
20
-24.641776
30
0
10
11.106925
20
-24.807224
30
0
10
11.276659
20
-24.980902
30
0
10
11.463112
20
-25.162074
30
0
10
11.666776
20
-25.349984
30
0
10
11.888116
20
-25.543856
30
0
10
12.127568
20
-25.742892
30
0
10
12.385538
20
-25.94628
30
0
10
12.662403
20
-26.153188
30
0
10
12.808029
20
-26.257697
30
0
10
12.845192
20
-26.283916
30
0
10
12.863888
20
-26.297038
30
0
10
12.873264
20
-26.303603
30
0
10
12.877959
20
-26.306885
30
0
10
12.878346
20
-26.306887
30
0
10
14.120365
20
-25.661633
30
0
10
14.120586
20
-25.661315
30
0
10
14.120599
20
-25.655586
30
0
10
14.120619
20
-25.644141
30
0
10
14.120631
20
-25.6213
30
0
10
14.120544
20
-25.575819
30
0
10
14.118758
20
-25.396581
30
0
10
14.108642
20
-25.051093
30
0
10
14.090542
20
-24.723087
30
0
10
14.065356
20
-24.412735
30
0
10
14.033984
20
-24.120171
30
0
10
13.997326
20
-23.845498
30
0
10
13.956286
20
-23.588781
30
0
10
13.911767
20
-23.350051
30
0
10
13.864667
20
-23.129307
30
0
10
13.815886
20
-22.92651
30
0
10
13.766317
20
-22.74159
30
0
10
13.716849
20
-22.574439
30
0
10
13.668364
20
-22.424918
30
0
10
13.621738
20
-22.292854
30
0
10
13.577836
20
-22.178039
30
0
10
13.537516
20
-22.080235
30
0
10
13.501623
20
-21.999168
30
0
10
13.470991
20
-21.934533
30
0
10
13.44644
20
-21.885995
30
0
10
13.428779
20
-21.853185
30
0
10
13.418797
20
-21.835704
30
0
10
13.061591
20
-21.254356
30
0
10
14.897315
20
-20.010567
30
0
10
15.304805
20
-20.557845
30
0
10
15.31734
20
-20.573596
30
0
10
15.341264
20
-20.602163
30
0
10
15.377242
20
-20.642959
30
0
10
15.425914
20
-20.695371
30
0
10
15.487898
20
-20.75876
30
0
10
15.563784
20
-20.832467
30
0
10
15.654141
20
-20.915806
30
0
10
15.759507
20
-21.008071
30
0
10
15.880398
20
-21.108534
30
0
10
16.017298
20
-21.216446
30
0
10
16.170664
20
-21.331039
30
0
10
16.340924
20
-21.451528
30
0
10
16.528476
20
-21.577109
30
0
10
16.733688
20
-21.706962
30
0
10
16.956896
20
-21.840252
30
0
10
17.198405
20
-21.976129
30
0
10
17.458489
20
-22.113729
30
0
10
17.737388
20
-22.25218
30
0
10
18.035309
20
-22.390593
30
0
10
18.352426
20
-22.528074
30
0
10
18.518229
20
-22.596183
30
0
10
18.560437
20
-22.613125
30
0
10
18.581654
20
-22.621582
30
0
10
18.592292
20
-22.625807
30
0
10
18.597617
20
-22.627918
30
0
10
18.597994
20
-22.62783
30
0
10
19.657728
20
-21.71354
30
0
10
19.65787
20
-21.71318
30
0
10
19.656562
20
-21.707602
30
0
10
19.653942
20
-21.696461
30
0
10
19.648686
20
-21.674233
30
0
10
19.638113
20
-21.629998
30
0
10
19.59504
20
-21.456003
30
0
10
19.505521
20
-21.122161
30
0
10
19.412266
20
-20.807171
30
0
10
19.316187
20
-20.510992
30
0
10
19.21819
20
-20.23355
30
0
10
19.119177
20
-19.974734
30
0
10
19.02004
20
-19.734401
30
0
10
18.921666
20
-19.512374
30
0
10
18.824929
20
-19.308441
30
0
10
18.730694
20
-19.122361
30
0
10
18.639816
20
-18.953856
30
0
10
18.553133
20
-18.802619
30
0
10
18.471474
20
-18.66831
30
0
10
18.395648
20
-18.550558
30
0
10
18.326452
20
-18.448963
30
0
10
18.264663
20
-18.363093
30
0
10
18.211042
20
-18.292489
30
0
10
18.16633
20
-18.236661
30
0
10
18.131248
20
-18.195092
30
0
10
18.106496
20
-18.16724
30
0
10
18.092752
20
-18.152532
30
0
10
17.611106
20
-17.669232
30
0
10
19.110511
20
-16.035622
30
0
10
19.633228
20
-16.474175
30
0
10
19.649057
20
-16.486611
30
0
10
19.678925
20
-16.50889
30
0
10
19.723341
20
-16.540289
30
0
10
19.782788
20
-16.580063
30
0
10
19.857719
20
-16.62745
30
0
10
19.948558
20
-16.68167
30
0
10
20.055698
20
-16.741925
30
0
10
20.179502
20
-16.807403
30
0
10
20.320303
20
-16.877279
30
0
10
20.478398
20
-16.95071
30
0
10
20.654057
20
-17.026847
30
0
10
20.847515
20
-17.104823
30
0
10
21.058972
20
-17.183767
30
0
10
21.288599
20
-17.262794
30
0
10
21.536529
20
-17.341016
30
0
10
21.802864
20
-17.417534
30
0
10
22.08767
20
-17.491446
30
0
10
22.39098
20
-17.561846
30
0
10
22.712791
20
-17.627823
30
0
10
23.053066
20
-17.688466
30
0
10
23.230106
20
-17.716502
30
0
10
23.275083
20
-17.723254
30
0
10
23.297679
20
-17.72659
30
0
10
23.309004
20
-17.728247
30
0
10
23.314673
20
-17.729074
30
0
10
23.31502
20
-17.728902
30
0
10
24.135338
20
-16.594865
30
0
10
24.135394
20
-16.594482
30
0
10
24.132834
20
-16.589356
30
0
10
24.127715
20
-16.579119
30
0
10
24.117475
20
-16.558702
30
0
10
24.096986
20
-16.518098
30
0
10
24.014948
20
-16.358727
30
0
10
23.850853
20
-16.054527
30
0
10
23.68747
20
-15.769534
30
0
10
23.525677
20
-15.503496
30
0
10
23.366339
20
-15.256132
30
0
10
23.210307
20
-15.027127
30
0
10
23.058419
20
-14.816134
30
0
10
22.911493
20
-14.622779
30
0
10
22.770333
20
-14.446652
30
0
10
22.635726
20
-14.28732
30
0
10
22.508437
20
-14.144315
30
0
10
22.389214
20
-14.017145
30
0
10
22.278781
20
-13.905288
30
0
10
22.177844
20
-13.808197
30
0
10
22.087083
20
-13.725298
30
0
10
22.007157
20
-13.655993
30
0
10
21.938699
20
-13.599657
30
0
10
21.882317
20
-13.555645
30
0
10
21.838595
20
-13.523288
30
0
10
21.808086
20
-13.501894
30
0
10
21.791321
20
-13.490752
30
0
10
21.211202
20
-13.131555
30
0
10
22.293453
20
-11.196193
30
0
10
22.903218
20
-11.502377
30
0
10
22.921488
20
-11.510828
30
0
10
22.955689
20
-11.525619
30
0
10
23.006149
20
-11.545928
30
0
10
23.073166
20
-11.570921
30
0
10
23.157005
20
-11.59975
30
0
10
23.2579
20
-11.631559
30
0
10
23.376048
20
-11.665482
30
0
10
23.511615
20
-11.700644
30
0
10
23.664735
20
-11.736165
30
0
10
23.835503
20
-11.771158
30
0
10
24.023986
20
-11.804732
30
0
10
24.230211
20
-11.835993
30
0
10
24.454174
20
-11.864043
30
0
10
24.695836
20
-11.887985
30
0
10
24.955123
20
-11.906921
30
0
10
25.231925
20
-11.919956
30
0
10
25.526099
20
-11.926195
30
0
10
25.837469
20
-11.924749
30
0
10
26.16582
20
-11.914733
30
0
10
26.510908
20
-11.895269
30
0
10
26.689642
20
-11.88172
30
0
10
26.734964
20
-11.877917
30
0
10
26.75772
20
-11.875952
30
0
10
26.769122
20
-11.874954
30
0
10
26.774829
20
-11.874451
30
0
10
26.775127
20
-11.874203
30
0
10
27.311806
20
-10.581556
30
0
10
27.311772
20
-10.58117
30
0
10
27.3081
20
-10.576773
30
0
10
27.300758
20
-10.567993
30
0
10
27.286085
20
-10.550488
30
0
10
27.256784
20
-10.515703
30
0
10
27.140204
20
-10.379547
30
0
10
26.910379
20
-10.12139
30
0
10
26.685676
20
-9.881758
30
0
10
26.466891
20
-9.660203
30
0
10
26.254802
20
-9.456252
30
0
10
26.050165
20
-9.269403
30
0
10
25.853712
20
-9.099126
30
0
10
25.666155
20
-8.944866
30
0
10
25.488183
20
-8.806041
30
0
10
25.32046
20
-8.682045
30
0
10
25.163623
20
-8.57225
30
0
10
25.018285
20
-8.476003
30
0
10
24.885034
20
-8.392629
30
0
10
24.764427
20
-8.321433
30
0
10
24.656995
20
-8.261699
30
0
10
24.56324
20
-8.212694
30
0
10
24.483635
20
-8.173665
30
0
10
24.418624
20
-8.143842
30
0
10
24.368617
20
-8.122439
30
0
10
24.333998
20
-8.108658
30
0
10
24.315115
20
-8.101683
30
0
10
23.667796
20
-7.885953
30
0
10
24.27455
20
-5.753174
30
0
10
24.938489
20
-5.910484
30
0
10
24.958216
20
-5.914493
30
0
10
24.994906
20
-5.920998
30
0
10
25.048689
20
-5.929123
30
0
10
25.119664
20
-5.937987
30
0
10
25.207892
20
-5.946704
30
0
10
25.313402
20
-5.954388
30
0
10
25.436189
20
-5.96015
30
0
10
25.576211
20
-5.9631
30
0
10
25.733394
20
-5.962352
30
0
10
25.90763
20
-5.95702
30
0
10
26.098775
20
-5.946222
30
0
10
26.30665
20
-5.929081
30
0
10
26.531045
20
-5.904725
30
0
10
26.771715
20
-5.872291
30
0
10
27.028379
20
-5.830921
30
0
10
27.300726
20
-5.779769
30
0
10
27.58841
20
-5.717999
30
0
10
27.891053
20
-5.644786
30
0
10
28.208244
20
-5.559317
30
0
10
28.539541
20
-5.460794
30
0
10
28.710333
20
-5.406392
30
0
10
28.753556
20
-5.39224
30
0
10
28.775246
20
-5.38508
30
0
10
28.78611
20
-5.381479
30
0
10
28.791547
20
-5.379673
30
0
10
28.791779
20
-5.379363
30
0
10
29.015888
20
-3.997793
30
0
10
29.015765
20
-3.997426
30
0
10
29.011178
20
-3.993994
30
0
10
29.002009
20
-3.987143
30
0
10
28.983695
20
-3.973494
30
0
10
28.947162
20
-3.946404
30
0
10
28.802325
20
-3.840803
30
0
10
28.519159
20
-3.642606
30
0
10
28.24525
20
-3.461253
30
0
10
27.981269
20
-3.296126
30
0
10
27.727863
20
-3.146584
30
0
10
27.48565
20
-3.011964
30
0
10
27.255224
20
-2.891582
30
0
10
27.037149
20
-2.784733
30
0
10
26.831959
20
-2.690693
30
0
10
26.640161
20
-2.60872
30
0
10
26.462231
20
-2.538053
30
0
10
26.298615
20
-2.477917
30
0
10
26.149728
20
-2.42752
30
0
10
26.015953
20
-2.386057
30
0
10
25.897641
20
-2.35271
30
0
10
25.795112
20
-2.326647
30
0
10
25.708653
20
-2.307027
30
0
10
25.638516
20
-2.293001
30
0
10
25.584922
20
-2.283708
30
0
10
25.548057
20
-2.278282
30
0
10
25.528074
20
-2.27585
30
0
10
24.848453
20
-2.215216
30
0
8
gear
0
CIRCLE
5
2001
100
AcDbEntity
100
AcDbCircle
10
27.199546
20
1.958977
30
0
40
0.79285
8
gear_guides
0
CIRCLE
5
2002
100
AcDbEntity
100
AcDbCircle
10
0
20
0
30
0
40
27.27
8
gear_guides
0
CIRCLE
5
2003
100
AcDbEntity
100
AcDbCircle
10
0
20
0
30
0
40
29.29
8
gear_guides
0
CIRCLE
5
2004
100
AcDbEntity
100
AcDbCircle
10
0
20
0
30
0
40
25.625418
8
gear_guides
0
LINE
5
2005
100
AcDbEntity
100
AcDbLine
10
1.6
20
0
30
0
11
-1.6
21
0
31
0
8
gear_guides
0
LINE
5
2006
100
AcDbEntity
100
AcDbLine
10
0
20
1.6
30
0
11
0
21
-1.6
31
0
8
gear_guides
0
LWPOLYLINE
5
2007
100
AcDbEntity
100
AcDbPolyline
66
1
90
11
70
0
43
0
10
-15.797883
20
10.835045
30
0
10
-15.682117
20
10.31429
30
0
10
-15.879176
20
10.008254
30
0
10
-16.070263
20
9.698454
30
0
10
-16.590012
20
9.578248
30
0
10
-17.25942
20
9.964731
30
0
10
-17.393839
20
10.497236
30
0
10
-17.187013
20
10.832552
30
0
10
-16.973724
20
11.163794
30
0
10
-16.435329
20
11.27224
30
0
10
-15.797883
20
10.835045
30
0
8
gear_texts
0
LWPOLYLINE
5
2008
100
AcDbEntity
100
AcDbPolyline
66
1
90
2
70
0
43
0
10
-15.306762
20
13.358168
30
0
10
-14.142001
20
12.341684
30
0
8
gear_texts
0
LWPOLYLINE
5
2009
100
AcDbEntity
100
AcDbPolyline
66
1
90
6
70
0
43
0
10
-14.724381
20
12.849926
30
0
10
-14.674727
20
12.313558
30
0
10
-14.609919
20
11.784041
30
0
10
-14.83568
20
11.49852
30
0
10
-15.365869
20
11.439466
30
0
10
-16.29589
20
12.131841
30
0
8
gear_texts
0
LWPOLYLINE
5
2010
100
AcDbEntity
100
AcDbPolyline
66
1
90
4
70
0
43
0
10
-12.873315
20
14.186228
30
0
10
-12.880764
20
13.652812
30
0
10
-13.41371
20
13.676392
30
0
10
-14.766821
20
15.056
30
0
8
gear_texts
0
LWPOLYLINE
5
2011
100
AcDbEntity
100
AcDbPolyline
66
1
90
5
70
0
43
0
10
-13.652474
20
15.044851
30
0
10
-13.941647
20
14.777282
30
0
10
-14.225577
20
14.504157
30
0
10
-14.504157
20
14.225577
30
0
10
-14.777282
20
13.941647
30
0
8
gear_texts
0
LWPOLYLINE
5
2012
100
AcDbEntity
100
AcDbPolyline
66
1
90
2
70
0
43
0
10
-11.568278
20
13.786537
30
0
10
-13.058837
20
15.562916
30
0
8
gear_texts
0
LWPOLYLINE
5
2013
100
AcDbEntity
100
AcDbPolyline
66
1
90
10
70
0
43
0
10
-12.810411
20
15.266853
30
0
10
-12.754596
20
15.813218
30
0
10
-12.445559
20
16.057574
30
0
10
-12.131841
20
16.29589
30
0
10
-11.588824
20
16.213655
30
0
10
-11.13935
20
15.584806
30
0
10
-11.208674
20
15.055862
30
0
10
-11.49852
20
14.83568
30
0
10
-11.784041
20
14.609919
30
0
10
-12.065131
20
14.378664
30
0
8
gear_texts
0
LWPOLYLINE
5
2014
100
AcDbEntity
100
AcDbPolyline
66
1
90
2
70
0
43
0
10
-9.814889
20
17.787792
30
0
10
-9.068029
20
16.434239
30
0
8
gear_texts
0
LWPOLYLINE
5
2015
100
AcDbEntity
100
AcDbPolyline
66
1
90
6
70
0
43
0
10
-9.441459
20
17.111016
30
0
10
-9.578248
20
16.590012
30
0
10
-9.698454
20
16.070263
30
0
10
-10.008254
20
15.879176
30
0
10
-10.526666
20
16.005018
30
0
10
-11.163794
20
16.973724
30
0
8
gear_texts
0
LWPOLYLINE
5
2016
100
AcDbEntity
100
AcDbPolyline
66
1
90
4
70
0
43
0
10
-7.244984
20
17.733627
30
0
10
-7.434422
20
17.234928
30
0
10
-7.927163
20
17.439363
30
0
10
-8.726817
20
19.198563
30
0
8
gear_texts
0
LWPOLYLINE
5
2017
100
AcDbEntity
100
AcDbPolyline
66
1
90
5
70
0
43
0
10
-7.683487
20
18.806957
30
0
10
-8.046735
20
18.654427
30
0
10
-8.406956
20
18.494883
30
0
10
-8.764015
20
18.328383
30
0
10
-9.117779
20
18.154991
30
0
8
gear_texts
0
LWPOLYLINE
5
2018
100
AcDbEntity
100
AcDbPolyline
66
1
90
4
70
0
43
0
10
-3.326491
20
18.865465
30
0
10
-3.617212
20
18.418174
30
0
10
-4.055504
20
18.722292
30
0
10
-4.464604
20
20.610906
30
0
8
gear_texts
0
LWPOLYLINE
5
2019
100
AcDbEntity
100
AcDbPolyline
66
1
90
5
70
0
43
0
10
-3.527827
20
20.0073
30
0
10
-3.915132
20
19.935128
30
0
10
-4.300964
20
19.85546
30
0
10
-4.685179
20
19.768325
30
0
10
-5.067632
20
19.673757
30
0
8
gear_texts
0
LWPOLYLINE
5
2020
100
AcDbEntity
100
AcDbPolyline
66
1
90
6
70
0
43
0
10
-2.644777
20
19.363191
30
0
10
-2.313669
20
19.794705
30
0
10
-1.966804
20
20.220516
30
0
10
-1.574332
20
20.254853
30
0
10
-1.158795
20
19.895744
30
0
10
-1.091379
20
18.738256
30
0
8
gear_texts
0
LWPOLYLINE
5
2021
100
AcDbEntity
100
AcDbPolyline
66
1
90
2
70
0
43
0
10
-2.54017
20
18.597336
30
0
10
-2.85399
20
20.894901
30
0
8
gear_texts
0
LWPOLYLINE
5
2022
100
AcDbEntity
100
AcDbPolyline
66
1
90
2
70
0
43
0
10
-0.363976
20
18.766483
30
0
10
-0.393953
20
20.312124
30
0
8
gear_texts
0
LWPOLYLINE
5
2023
100
AcDbEntity
100
AcDbPolyline
66
1
90
2
70
0
43
0
10
-0.401448
20
20.698535
30
0
10
-0.408942
20
21.084945
30
0
8
gear_texts
0
LWPOLYLINE
5
2024
100
AcDbEntity
100
AcDbPolyline
66
1
90
2
70
0
43
0
10
0.363976
20
18.766483
30
0
10
0.393953
20
20.312124
30
0
8
gear_texts
0
LWPOLYLINE
5
2025
100
AcDbEntity
100
AcDbPolyline
66
1
90
5
70
0
43
0
10
0.378964
20
19.539304
30
0
10
0.772772
20
19.914473
30
0
10
1.181267
20
20.281573
30
0
10
1.574332
20
20.254853
30
0
10
1.929389
20
19.835849
30
0
8
gear_texts
0
LWPOLYLINE
5
2026
100
AcDbEntity
100
AcDbPolyline
66
1
90
12
70
0
43
0
10
3.973684
20
18.344569
30
0
10
4.137324
20
19.100014
30
0
10
3.691692
20
18.797413
30
0
10
3.259378
20
18.484854
30
0
10
2.90032
20
18.544582
30
0
10
2.592473
20
18.980263
30
0
10
2.69708
20
19.746118
30
0
10
3.139195
20
20.071947
30
0
10
3.527827
20
20.0073
30
0
10
3.840652
20
19.55589
30
0
10
4.137324
20
19.100014
30
0
10
4.464604
20
20.610906
30
0
8
gear_texts
0
LWPOLYLINE
5
2027
100
AcDbEntity
100
AcDbPolyline
66
1
90
15
70
0
43
0
10
7.767232
20
17.087524
30
0
10
7.434422
20
17.234928
30
0
10
7.098816
20
17.37585
30
0
10
6.76054
20
17.510239
30
0
10
6.551907
20
18.001217
30
0
10
6.816277
20
18.727568
30
0
10
7.317351
20
18.952413
30
0
10
7.683487
20
18.806957
30
0
10
8.046735
20
18.654427
30
0
10
8.247025
20
18.143043
30
0
10
7.607302
20
16.735684
30
0
10
7.128266
20
16.525178
30
0
10
6.80648
20
16.660297
30
0
10
6.482135
20
16.789151
30
0
10
6.287537
20
17.274867
30
0
8
gear_texts
0
LWPOLYLINE
5
2028
100
AcDbEntity
100
AcDbPolyline
66
1
90
13
70
0
43
0
10
9.385006
20
16.255307
30
0
10
9.068029
20
16.434239
30
0
10
8.747643
20
16.60699
30
0
10
8.597419
20
17.11887
30
0
10
8.944326
20
17.809617
30
0
10
9.468114
20
17.974771
30
0
10
9.814889
20
17.787792
30
0
10
10.157972
20
17.594124
30
0
10
10.29754
20
17.062945
30
0
10
9.771489
20
16.924716
30
0
10
9.441459
20
17.111016
30
0
10
9.107878
20
17.290881
30
0
10
8.770873
20
17.464243
30
0
8
gear_texts
0
LWPOLYLINE
5
2029
100
AcDbEntity
100
AcDbPolyline
66
1
90
10
70
0
43
0
10
11.439466
20
15.365869
30
0
10
10.914613
20
15.270382
30
0
10
10.616448
20
15.47916
30
0
10
10.526666
20
16.005018
30
0
10
10.951418
20
16.650822
30
0
10
11.490838
20
16.754052
30
0
10
11.813561
20
16.528079
30
0
10
11.901049
20
15.985883
30
0
10
11.439466
20
15.365869
30
0
10
11.49852
20
14.83568
30
0
8
gear_texts
0
LWPOLYLINE
5
2030
100
AcDbEntity
100
AcDbPolyline
66
1
90
2
70
0
43
0
10
12.065131
20
14.378664
30
0
10
13.058837
20
15.562916
30
0
8
gear_texts
0
LWPOLYLINE
5
2031
100
AcDbEntity
100
AcDbPolyline
66
1
90
5
70
0
43
0
10
12.561984
20
14.97079
30
0
10
13.104047
20
15.015572
30
0
10
13.652474
20
15.044851
30
0
10
13.941647
20
14.777282
30
0
10
13.954955
20
14.228235
30
0
8
gear_texts
0
LWPOLYLINE
5
2032
100
AcDbEntity
100
AcDbPolyline
66
1
90
5
70
0
43
0
10
16.650822
20
10.951418
30
0
10
16.435329
20
11.27224
30
0
10
16.213655
20
11.588824
30
0
10
15.985883
20
11.901049
30
0
10
15.7521
20
12.208799
30
0
8
gear_texts
0
LWPOLYLINE
5
2033
100
AcDbEntity
100
AcDbPolyline
66
1
90
5
70
0
43
0
10
18.59187
20
7.178148
30
0
10
18.44918
20
7.537319
30
0
10
18.299552
20
7.893656
30
0
10
18.143043
20
8.247025
30
0
10
17.979711
20
8.597292
30
0
8
gear_texts
0
LWPOLYLINE
5
2034
100
AcDbEntity
100
AcDbPolyline
66
1
90
2
70
0
43
0
10
17.589803
20
7.5875
30
0
10
19.009302
20
8.199813
30
0
8
gear_texts
0
LWPOLYLINE
5
2035
100
AcDbEntity
100
AcDbPolyline
66
1
90
5
70
0
43
0
10
19.312957
20
7.456553
30
0
10
18.806957
20
7.683487
30
0
10
18.299552
20
7.893656
30
0
10
17.791203
20
8.087094
30
0
10
17.282366
20
8.263845
30
0
8
gear_texts
0
LWPOLYLINE
5
2036
100
AcDbEntity
100
AcDbPolyline
66
1
90
5
70
0
43
0
10
17.870782
20
6.899743
30
0
10
18.091404
20
7.391152
30
0
10
18.299552
20
7.893656
30
0
10
18.494883
20
8.406956
30
0
10
18.677056
20
8.930739
30
0
8
gear_texts
0
LWPOLYLINE
5
2037
100
AcDbEntity
100
AcDbPolyline
66
1
90
9
70
0
43
0
10
18.45481
20
5.137247
30
0
10
17.981475
20
5.3833
30
0
10
17.873705
20
5.730973
30
0
10
18.124883
20
6.201608
30
0
10
19.587564
20
6.702078
30
0
10
20.08187
20
6.438993
30
0
10
20.202955
20
6.048368
30
0
10
19.944116
20
5.551824
30
0
10
18.45481
20
5.137247
30
0
8
gear_texts
0
LWPOLYLINE
5
2038
100
AcDbEntity
100
AcDbPolyline
66
1
90
7
70
0
43
0
10
18.738256
20
1.091379
30
0
10
21.053231
20
1.226211
30
0
10
20.254853
20
1.574332
30
0
10
19.451181
20
1.891973
30
0
10
20.178575
20
2.358537
30
0
10
20.894901
20
2.85399
30
0
10
18.597336
20
2.54017
30
0
8
gear_texts
0
LWPOLYLINE
5
2039
100
AcDbEntity
100
AcDbPolyline
66
1
90
15
70
0
43
0
10
18.738256
20
-1.091379
30
0
10
18.755896
20
-0.727814
30
0
10
18.766483
20
-0.363976
30
0
10
18.770012
20
0
30
0
10
18.766483
20
0.363976
30
0
10
19.539304
20
0.378964
30
0
10
19.929461
20
0
30
0
10
19.925714
20
-0.386459
30
0
10
19.914473
20
-0.772772
30
0
10
20.281573
20
-1.181267
30
0
10
20.667402
20
-1.203739
30
0
10
21.073051
20
-0.81773
30
0
10
21.084945
20
-0.408942
30
0
10
21.08891
20
0
30
0
10
20.698535
20
0.401448
30
0
8
gear_texts
0
LWPOLYLINE
5
2040
100
AcDbEntity
100
AcDbPolyline
66
1
90
2
70
0
43
0
10
19.066513
20
-1.854557
30
0
10
18.681846
20
-1.817141
30
0
8
gear_texts
0
LWPOLYLINE
5
2041
100
AcDbEntity
100
AcDbPolyline
66
1
90
9
70
0
43
0
10
18.797413
20
-3.691692
30
0
10
18.484854
20
-3.259378
30
0
10
18.544582
20
-2.90032
30
0
10
18.980263
20
-2.592473
30
0
10
20.511973
20
-2.801686
30
0
10
20.835629
20
-3.258633
30
0
10
20.768523
20
-3.662051
30
0
10
20.314367
20
-3.989612
30
0
10
18.797413
20
-3.691692
30
0
8
gear_texts
0
LWPOLYLINE
5
2042
100
AcDbEntity
100
AcDbPolyline
66
1
90
15
70
0
43
0
10
17.873705
20
-5.730973
30
0
10
17.981475
20
-5.3833
30
0
10
18.082483
20
-5.033603
30
0
10
18.176691
20
-4.682013
30
0
10
18.264064
20
-4.328663
30
0
10
19.016195
20
-4.506921
30
0
10
19.29949
20
-4.971228
30
0
10
19.199463
20
-5.344536
30
0
10
19.092215
20
-5.715834
30
0
10
19.345815
20
-6.202986
30
0
10
19.713843
20
-6.320989
30
0
10
20.202955
20
-6.048368
30
0
10
20.316442
20
-5.655468
30
0
10
20.422289
20
-5.260442
30
0
10
20.144391
20
-4.774308
30
0
8
gear_texts
0
LWPOLYLINE
5
2043
100
AcDbEntity
100
AcDbPolyline
66
1
90
7
70
0
43
0
10
18.263532
20
-10.544455
30
0
10
16.255307
20
-9.385006
30
0
10
16.941821
20
-9.348102
30
0
10
17.632826
20
-9.287996
30
0
10
18.327678
20
-9.204506
30
0
10
19.025728
20
-9.097462
30
0
10
16.933694
20
-8.097122
30
0
8
gear_texts
0
LWPOLYLINE
5
2044
100
AcDbEntity
100
AcDbPolyline
66
1
90
5
70
0
43
0
10
16.29589
20
-12.131841
30
0
10
16.528079
20
-11.813561
30
0
10
16.754052
20
-11.490838
30
0
10
16.973724
20
-11.163794
30
0
10
17.187013
20
-10.832552
30
0
8
gear_texts
0
LWPOLYLINE
5
2045
100
AcDbEntity
100
AcDbPolyline
66
1
90
5
70
0
43
0
10
15.675876
20
-11.670257
30
0
10
15.899231
20
-11.364087
30
0
10
16.116606
20
-11.053643
30
0
10
16.32792
20
-10.739042
30
0
10
16.533094
20
-10.420403
30
0
8
gear_texts
0
LWPOLYLINE
5
2046
100
AcDbEntity
100
AcDbPolyline
66
1
90
15
70
0
43
0
10
13.652812
20
-12.880764
30
0
10
13.90002
20
-12.613596
30
0
10
14.142001
20
-12.341684
30
0
10
14.378664
20
-12.065131
30
0
10
14.609919
20
-11.784041
30
0
10
15.211569
20
-12.269319
30
0
10
15.266853
20
-12.810411
30
0
10
15.015572
20
-13.104047
30
0
10
14.758643
20
-13.392755
30
0
10
14.777282
20
-13.941647
30
0
10
15.0584
20
-14.206868
30
0
10
15.617266
20
-14.171914
30
0
10
15.889142
20
-13.866409
30
0
10
16.155043
20
-13.55569
30
0
10
16.114043
20
-12.997235
30
0
8
gear_texts
0
LWPOLYLINE
5
2047
100
AcDbEntity
100
AcDbPolyline
66
1
90
7
70
0
43
0
10
14.766821
20
-15.056
30
0
10
14.472088
20
-15.339518
30
0
10
14.171914
20
-15.617266
30
0
10
13.866409
20
-15.889142
30
0
10
13.55569
20
-16.155043
30
0
10
13.104047
20
-15.015572
30
0
10
12.613596
20
-13.90002
30
0
8
gear_texts
0
LWPOLYLINE
5
2048
100
AcDbEntity
100
AcDbPolyline
66
1
90
10
70
0
43
0
10
10.008254
20
-15.879176
30
0
10
9.698454
20
-16.070263
30
0
10
9.385006
20
-16.255307
30
0
10
9.068029
20
-16.434239
30
0
10
8.927761
20
-16.948935
30
0
10
9.648232
20
-18.316717
30
0
10
10.188318
20
-18.464569
30
0
10
10.544455
20
-18.263532
30
0
10
10.896627
20
-18.055627
30
0
10
11.244701
20
-17.840932
30
0
8
gear_texts
0
LWPOLYLINE
5
2049
100
AcDbEntity
100
AcDbPolyline
66
1
90
2
70
0
43
0
10
10.896627
20
-18.055627
30
0
10
9.698454
20
-16.070263
30
0
8
gear_texts
0
LWPOLYLINE
5
2050
100
AcDbEntity
100
AcDbPolyline
66
1
90
5
70
0
43
0
10
7.317351
20
-18.952413
30
0
10
7.683487
20
-18.806957
30
0
10
8.046735
20
-18.654427
30
0
10
8.406956
20
-18.494883
30
0
10
8.764015
20
-18.328383
30
0
8
gear_texts
0
LWPOLYLINE
5
2051
100
AcDbEntity
100
AcDbPolyline
66
1
90
5
70
0
43
0
10
7.038945
20
-18.231326
30
0
10
7.391152
20
-18.091404
30
0
10
7.740578
20
-17.944678
30
0
10
8.087094
20
-17.791203
30
0
10
8.430569
20
-17.631038
30
0
8
gear_texts
0
LWPOLYLINE
5
2052
100
AcDbEntity
100
AcDbPolyline
66
1
90
15
70
0
43
0
10
5.260442
20
-20.422289
30
0
10
5.655468
20
-20.316442
30
0
10
6.048368
20
-20.202955
30
0
10
6.438993
20
-20.08187
30
0
10
6.827196
20
-19.953234
30
0
10
6.576961
20
-19.221893
30
0
10
6.202986
20
-19.345815
30
0
10
5.826679
20
-19.462462
30
0
10
5.44818
20
-19.571789
30
0
10
4.971228
20
-19.29949
30
0
10
4.778418
20
-18.550958
30
0
10
5.033603
20
-18.082483
30
0
10
5.3833
20
-17.981475
30
0
10
5.730973
20
-17.873705
30
0
10
6.201608
20
-18.124883
30
0
8
gear_texts
0
LWPOLYLINE
5
2053
100
AcDbEntity
100
AcDbPolyline
66
1
90
9
70
0
43
0
10
2.644777
20
-19.363191
30
0
10
3.019757
20
-19.308264
30
0
10
3.393603
20
-19.246077
30
0
10
3.766172
20
-19.176651
30
0
10
4.137324
20
-19.100014
30
0
10
3.865478
20
-19.682303
30
0
10
3.572568
20
-20.261041
30
0
10
3.258633
20
-20.835629
30
0
10
2.90032
20
-18.544582
30
0
8
gear_texts
0
LWPOLYLINE
5
2054
100
AcDbEntity
100
AcDbPolyline
66
1
90
2
70
0
43
0
10
1.854557
20
-19.066513
30
0
10
1.817141
20
-18.681846
30
0
8
gear_texts
0
LWPOLYLINE
5
2055
100
AcDbEntity
100
AcDbPolyline
66
1
90
15
70
0
43
0
10
-0.408942
20
-21.084945
30
0
10
0
20
-21.08891
30
0
10
0.408942
20
-21.084945
30
0
10
0.81773
20
-21.073051
30
0
10
1.226211
20
-21.053231
30
0
10
1.181267
20
-20.281573
30
0
10
0.787758
20
-20.300666
30
0
10
0.393953
20
-20.312124
30
0
10
0
20
-20.315944
30
0
10
-0.386459
20
-19.925714
30
0
10
-0.37147
20
-19.152893
30
0
10
0
20
-18.770012
30
0
10
0.363976
20
-18.766483
30
0
10
0.727814
20
-18.755896
30
0
10
1.113851
20
-19.124086
30
0
8
gear_texts
0
LWPOLYLINE
5
2056
100
AcDbEntity
100
AcDbPolyline
66
1
90
9
70
0
43
0
10
-2.644777
20
-19.363191
30
0
10
-2.268801
20
-19.410836
30
0
10
-1.891973
20
-19.451181
30
0
10
-1.514433
20
-19.484211
30
0
10
-1.136323
20
-19.509915
30
0
10
-1.554365
20
-19.997973
30
0
10
-1.991748
20
-20.476961
30
0
10
-2.448273
20
-20.946315
30
0
10
-2.179065
20
-18.643096
30
0
8
gear_texts
0
LWPOLYLINE
5
2057
100
AcDbEntity
100
AcDbPolyline
66
1
90
2
70
0
43
0
10
-3.259378
20
-18.484854
30
0
10
-3.527827
20
-20.0073
30
0
8
gear_texts
0
LWPOLYLINE
5
2058
100
AcDbEntity
100
AcDbPolyline
66
1
90
6
70
0
43
0
10
-3.460715
20
-19.626688
30
0
10
-3.915132
20
-19.935128
30
0
10
-4.219144
20
-19.477737
30
0
10
-4.685179
20
-19.768325
30
0
10
-4.971228
20
-19.29949
30
0
10
-4.682013
20
-18.176691
30
0
8
gear_texts
0
LWPOLYLINE
5
2059
100
AcDbEntity
100
AcDbPolyline
66
1
90
2
70
0
43
0
10
-4.137324
20
-19.100014
30
0
10
-4.219144
20
-19.477737
30
0
8
gear_texts
0
LWPOLYLINE
5
2060
100
AcDbEntity
100
AcDbPolyline
66
1
90
2
70
0
43
0
10
-5.3833
20
-17.981475
30
0
10
-5.826679
20
-19.462462
30
0
8
gear_texts
0
LWPOLYLINE
5
2061
100
AcDbEntity
100
AcDbPolyline
66
1
90
6
70
0
43
0
10
-5.715834
20
-19.092215
30
0
10
-6.202986
20
-19.345815
30
0
10
-6.451843
20
-18.856223
30
0
10
-6.948462
20
-19.090743
30
0
10
-7.178148
20
-18.59187
30
0
10
-6.76054
20
-17.510239
30
0
8
gear_texts
0
LWPOLYLINE
5
2062
100
AcDbEntity
100
AcDbPolyline
66
1
90
2
70
0
43
0
10
-6.326725
20
-18.490553
30
0
10
-6.451843
20
-18.856223
30
0
8
gear_texts
0
LWPOLYLINE
5
2063
100
AcDbEntity
100
AcDbPolyline
66
1
90
11
70
0
43
0
10
-9.628174
20
-17.449404
30
0
10
-9.964731
20
-17.25942
30
0
10
-10.29754
20
-17.062945
30
0
10
-10.626477
20
-16.860054
30
0
10
-11.163794
20
-16.973724
30
0
10
-11.37617
20
-17.296626
30
0
10
-11.244701
20
-17.840932
30
0
10
-10.896627
20
-18.055627
30
0
10
-10.544455
20
-18.263532
30
0
10
-10.188318
20
-18.464569
30
0
10
-9.068029
20
-16.434239
30
0
8
gear_texts
0
LWPOLYLINE
5
2064
100
AcDbEntity
100
AcDbPolyline
66
1
90
7
70
0
43
0
10
-10.914613
20
-15.270382
30
0
10
-11.364087
20
-15.899231
30
0
10
-12.131841
20
-16.29589
30
0
10
-12.919078
20
-16.66852
30
0
10
-12.754596
20
-15.813218
30
0
10
-12.561984
20
-14.97079
30
0
10
-12.065131
20
-14.378664
30
0
8
gear_texts
0
LWPOLYLINE
5
2065
100
AcDbEntity
100
AcDbPolyline
66
1
90
5
70
0
43
0
10
-11.364087
20
-15.899231
30
0
10
-11.670257
20
-15.675876
30
0
10
-11.972039
20
-15.446627
30
0
10
-12.269319
20
-15.211569
30
0
10
-12.561984
20
-14.97079
30
0
8
gear_texts
0
LWPOLYLINE
5
2066
100
AcDbEntity
100
AcDbPolyline
66
1
90
5
70
0
43
0
10
-14.777282
20
-13.941647
30
0
10
-14.504157
20
-14.225577
30
0
10
-14.225577
20
-14.504157
30
0
10
-13.941647
20
-14.777282
30
0
10
-13.652474
20
-15.044851
30
0
8
gear_texts
0
LWPOLYLINE
5
2067
100
AcDbEntity
100
AcDbPolyline
66
1
90
5
70
0
43
0
10
-14.215047
20
-13.411205
30
0
10
-13.952313
20
-13.684332
30
0
10
-13.684332
20
-13.952313
30
0
10
-13.411205
20
-14.215047
30
0
10
-13.133035
20
-14.472436
30
0
8
gear_texts
0
LWPOLYLINE
5
2068
100
AcDbEntity
100
AcDbPolyline
66
1
90
15
70
0
43
0
10
-15.055862
20
-11.208674
30
0
10
-14.83568
20
-11.49852
30
0
10
-14.609919
20
-11.784041
30
0
10
-14.378664
20
-12.065131
30
0
10
-14.142001
20
-12.341684
30
0
10
-14.724381
20
-12.849926
30
0
10
-15.266853
20
-12.810411
30
0
10
-15.512393
20
-12.511957
30
0
10
-15.7521
20
-12.208799
30
0
10
-16.29589
20
-12.131841
30
0
10
-16.605897
20
-12.362632
30
0
10
-16.66852
20
-12.919078
30
0
10
-16.414868
20
-13.239874
30
0
10
-16.155043
20
-13.55569
30
0
10
-15.597952
20
-13.612288
30
0
8
gear_texts
0
LWPOLYLINE
5
2069
100
AcDbEntity
100
AcDbPolyline
66
1
90
9
70
0
43
0
10
-16.401157
20
-9.898149
30
0
10
-15.879176
20
-10.008254
30
0
10
-15.682117
20
-10.31429
30
0
10
-15.797883
20
-10.835045
30
0
10
-17.072774
20
-11.709435
30
0
10
-17.619528
20
-11.588546
30
0
10
-17.840932
20
-11.244701
30
0
10
-17.724733
20
-10.696931
30
0
10
-16.401157
20
-9.898149
30
0
8
gear_texts
0
ENDSEC
0
SECTION
2
OBJECTS
0
DICTIONARY
5
21D
330
0
100
AcDbDictionary
281
1
3
ACAD_CIP_PREVIOUS_PRODUCT_INFO
350
291
3
ACAD_COLOR
350
273
3
ACAD_DETAILVIEWSTYLE
350
27B
3
ACAD_GROUP
350
21E
3
ACAD_LAYOUT
350
272
3
ACAD_MATERIAL
350
221
3
ACAD_MLEADERSTYLE
350
276
3
ACAD_MLINESTYLE
350
26F
3
ACAD_PLOTSETTINGS
350
271
3
ACAD_PLOTSTYLENAME
350
21F
3
ACAD_SCALELIST
350
253
3
ACAD_SECTIONVIEWSTYLE
350
278
3
ACAD_TABLESTYLE
350
274
3
ACAD_VISUALSTYLE
350
23A
3
ACDB_RECOMPOSE_DATA
350
1057
3
AcDbVariableDictionary
350
29D
0
DICTIONARY
5
297
330
213
100
AcDbDictionary
280
1
281
1
3
ACAD_LAYERSTATES
360
298
0
DICTIONARY
5
292
330
265
100
AcDbDictionary
280
1
281
1
3
ADSK_XREC_LAYER_RECONCILED
360
293
0
XRECORD
5
291
102
{ACAD_REACTORS
330
21D
102
}
330
21D
100
AcDbXrecord
280
1
300
ACDMAC
300
2013
300
ACDMAC_F_S
0
DICTIONARY
5
273
102
{ACAD_REACTORS
330
21D
102
}
330
21D
100
AcDbDictionary
281
1
0
DICTIONARY
5
21E
102
{ACAD_REACTORS
330
21D
102
}
330
21D
100
AcDbDictionary
281
1
0
DICTIONARY
5
272
102
{ACAD_REACTORS
330
21D
102
}
330
21D
100
AcDbDictionary
281
1
3
Layout1
350
280
3
Model
350
284
0
DICTIONARY
5
221
102
{ACAD_REACTORS
330
21D
102
}
330
21D
100
AcDbDictionary
281
1
3
ByBlock
350
22A
3
ByLayer
350
222
3
Global
350
232
0
DICTIONARY
5
276
102
{ACAD_REACTORS
330
21D
102
}
330
21D
100
AcDbDictionary
281
1
3
Standard
350
277
0
DICTIONARY
5
26F
102
{ACAD_REACTORS
330
21D
102
}
330
21D
100
AcDbDictionary
281
1
3
Standard
350
270
0
DICTIONARY
5
271
102
{ACAD_REACTORS
330
21D
102
}
330
21D
100
AcDbDictionary
281
1
0
ACDBDICTIONARYWDFLT
5
21F
102
{ACAD_REACTORS
330
21D
102
}
330
21D
100
AcDbDictionary
281
1
3
Normal
350
220
100
AcDbDictionaryWithDefault
340
220
0
DICTIONARY
5
253
102
{ACAD_REACTORS
330
21D
102
}
330
21D
100
AcDbDictionary
281
1
3
A0
350
254
3
A1
350
255
3
A2
350
256
3
A3
350
257
3
A4
350
258
3
A5
350
259
3
A6
350
25A
3
A7
350
25B
3
A8
350
25C
3
A9
350
25D
3
B0
350
25E
3
B1
350
25F
3
B2
350
260
3
B3
350
261
3
B4
350
262
3
B5
350
263
3
B6
350
264
0
DICTIONARY
5
274
102
{ACAD_REACTORS
330
21D
102
}
330
21D
100
AcDbDictionary
281
1
3
Standard
350
275
0
DICTIONARY
5
23A
102
{ACAD_REACTORS
330
21D
102
}
330
21D
100
AcDbDictionary
281
1
3
2dWireframe
350
240
3
Basic
350
23F
3
Brighten
350
246
3
ColorChange
350
24A
3
Conceptual
350
243
3
Dim
350
245
3
EdgeColorOff
350
252
3
Facepattern
350
249
3
Flat
350
23B
3
FlatWithEdges
350
23C
3
Gouraud
350
23D
3
GouraudWithEdges
350
23E
3
Hidden
350
242
3
JitterOff
350
250
3
Linepattern
350
248
3
OverhangOff
350
251
3
Realistic
350
244
3
Shaded
350
24F
3
Shaded with edges
350
24E
3
Shades of Gray
350
24B
3
Sketchy
350
24C
3
Thicken
350
247
3
Wireframe
350
241
3
X-Ray
350
24D
0
XRECORD
5
1057
102
{ACAD_REACTORS
330
21D
102
}
330
21D
100
AcDbXrecord
280
1
90
1
330
275
0
DICTIONARY
5
29D
102
{ACAD_REACTORS
330
21D
102
}
330
21D
100
AcDbDictionary
281
1
3
CANNOSCALE
350
2A3
3
CMLEADERSTYLE
350
29F
3
CTABLESTYLE
350
29E
3
CVIEWDETAILSTYLE
350
2A0
3
CVIEWSECTIONSTYLE
350
2A1
3
LAYEREVAL
350
2A5
3
LAYERNOTIFY
350
2A6
3
LIGHTINGUNITS
350
2A4
3
MSLTSCALE
350
2A2
0
ENDSEC
0
EOF
