0
SECTION
2
HEADER
9
$ACADVER
1
AC1027
9
$ACADMAINTVER
70
8
9
$DWGCODEPAGE
3
ANSI_1252
9
$LASTSAVEDBY
1
macc
9
$REQUIREDVERSIONS
160
0
9
$INSBASE
10
0.0
20
0.0
30
0.0
9
$EXTMIN
10
1.000000000000000E+20
20
1.000000000000000E+20
30
1.000000000000000E+20
9
$EXTMAX
10
-1.000000000000000E+20
20
-1.000000000000000E+20
30
-1.000000000000000E+20
9
$LIMMIN
10
0.0
20
0.0
9
$LIMMAX
10
12.0
20
9.0
9
$MEASUREMENT
70
1
9
$CELWEIGHT
370
-1
9
$ENDCAPS
280
0
9
$JOINSTYLE
280
0
9
$LWDISPLAY
290
0
9
$INSUNITS
70
0
9
$HYPERLINKBASE
1

9
$STYLESHEET
1

9
$XEDIT
290
1
9
$CEPSNTYPE
380
0
9
$PSTYLEMODE
290
1
9
$EXTNAMES
290
1
9
$PSVPSCALE
40
0.0
9
$OLESTARTUP
290
0
9
$SORTENTS
280
127
9
$INDEXCTL
280
0
9
$HIDETEXT
280
0
9
$XCLIPFRAME
280
2
9
$HALOGAP
280
0
9
$OBSCOLOR
70
257
9
$OBSLTYPE
280
0
9
$INTERSECTIONDISPLAY
280
0
9
$INTERSECTIONCOLOR
70
257
9
$DIMASSOC
280
1
9
$PROJECTNAME
1

9
$CAMERADISPLAY
290
0
9
$LENSLENGTH
40
50.0
9
$CAMERAHEIGHT
40
0.0
9
$STEPSPERSEC
40
2.0
9
$STEPSIZE
40
6.0
9
$3DDWFPREC
40
2.0
9
$PSOLWIDTH
40
0.25
9
$PSOLHEIGHT
40
4.0
9
$LOFTANG1
40
1.570796326794896
9
$LOFTANG2
40
1.570796326794896
9
$LOFTMAG1
40
0.0
9
$LOFTMAG2
40
0.0
9
$LOFTPARAM
70
7
9
$LOFTNORMALS
280
1
9
$LATITUDE
40
37.795
9
$LONGITUDE
40
-122.394
9
$NORTHDIRECTION
40
0.0
9
$TIMEZONE
70
-8000
9
$LIGHTGLYPHDISPLAY
280
1
9
$TILEMODELIGHTSYNCH
280
1
9
$CMATERIAL
347
222
9
$SOLIDHIST
280
0
9
$SHOWHIST
280
1
9
$DWFFRAME
280
2
9
$DGNFRAME
280
0
9
$REALWORLDSCALE
290
1
9
$INTERFERECOLOR
62
1
9
$INTERFEREOBJVS
345
244
9
$INTERFEREVPVS
346
241
9
$CSHADOW
280
0
9
$SHADOWPLANELOCATION
40
0.0
0
ENDSEC
0
SECTION
2
CLASSES
0
CLASS
1
ACDBDICTIONARYWDFLT
2
AcDbDictionaryWithDefault
3
ObjectDBX Classes
90
0
91
1
280
0
281
0
0
CLASS
1
MATERIAL
2
AcDbMaterial
3
ObjectDBX Classes
90
1153
91
3
280
0
281
0
0
CLASS
1
VISUALSTYLE
2
AcDbVisualStyle
3
ObjectDBX Classes
90
4095
91
24
280
0
281
0
0
CLASS
1
SCALE
2
AcDbScale
3
ObjectDBX Classes
90
1153
91
17
280
0
281
0
0
CLASS
1
TABLESTYLE
2
AcDbTableStyle
3
ObjectDBX Classes
90
4095
91
1
280
0
281
0
0
CLASS
1
MLEADERSTYLE
2
AcDbMLeaderStyle
3
ACDB_MLEADERSTYLE_CLASS
90
4095
91
1
280
0
281
0
0
CLASS
1
ACDBSECTIONVIEWSTYLE
2
AcDbSectionViewStyle
3
ObjectDBX Classes
90
1025
91
1
280
0
281
0
0
CLASS
1
ACDBDETAILVIEWSTYLE
2
AcDbDetailViewStyle
3
ObjectDBX Classes
90
1025
91
1
280
0
281
0
0
CLASS
1
DICTIONARYVAR
2
AcDbDictionaryVar
3
ObjectDBX Classes
90
0
91
9
280
0
281
0
0
CLASS
1
CELLSTYLEMAP
2
AcDbCellStyleMap
3
ObjectDBX Classes
90
1152
91
2
280
0
281
0
0
ENDSEC
0
SECTION
2
TABLES
0
TABLE
2
VPORT
5
219
330
0
100
AcDbSymbolTable
70
1
0
VPORT
5
285
330
219
100
AcDbSymbolTableRecord
100
AcDbViewportTableRecord
2
*ACTIVE
70
0
10
0.0
20
0.0
11
1.0
21
1.0
12
60.85393284500712
22
1.602311788490737
13
0.0
23
0.0
14
0.5
24
0.5
15
0.5
25
0.5
16
0.0
26
0.0
36
1.0
17
0.0
27
0.0
37
0.0
40
135.7601553851812
41
1.367970660146699
42
50.0
43
0.0
44
0.0
50
0.0
51
0.0
71
0
72
1000
73
1
74
3
75
0
76
1
77
0
78
0
281
0
65
1
110
0.0
120
0.0
130
0.0
111
1.0
121
0.0
131
0.0
112
0.0
122
1.0
132
0.0
79
0
146
0.0
348
240
60
3
61
5
292
1
282
0
141
0.0
142
0.0
63
250
421
3355443
1001
ACAD_NAV_VCDISPLAY
1070
3
0
ENDTAB
0
TABLE
2
LTYPE
5
216
330
0
100
AcDbSymbolTable
70
2
0
LTYPE
5
26B
330
216
100
AcDbSymbolTableRecord
100
AcDbLinetypeTableRecord
2
ByBlock
70
0
3

72
65
73
0
40
0.0
0
LTYPE
5
26C
330
216
100
AcDbSymbolTableRecord
100
AcDbLinetypeTableRecord
2
ByLayer
70
0
3

72
65
73
0
40
0.0
0
LTYPE
5
26D
330
216
100
AcDbSymbolTableRecord
100
AcDbLinetypeTableRecord
2
CONTINUOUS
70
0
3
Solid line
72
65
73
0
40
0.0
0
LTYPE
5
103D
330
216
100
AcDbSymbolTableRecord
100
AcDbLinetypeTableRecord
2
DOTTED
70
0
3
Dotted . . . . . . . . . . . . . . . . . . . .
72
65
73
2
40
3.0
49
0.0
74
0
49
-3.0
74
0
0
ENDTAB
0
TABLE
2
LAYER
5
213
102
{ACAD_XDICTIONARY
360
297
102
}
330
0
100
AcDbSymbolTable
70
4
0
LAYER
5
265
102
{ACAD_XDICTIONARY
360
292
102
}
330
213
100
AcDbSymbolTableRecord
100
AcDbLayerTableRecord
2
0
70
0
62
7
6
CONTINUOUS
370
-3
390
220
347
232
348
0
0
LAYER
5
1900
330
213
100
AcDbSymbolTableRecord
100
AcDbLayerTableRecord
2
gear
70
0
62
7
6
CONTINUOUS
370
-3
390
220
347
232
348
0
1001
AcAecLayerStandard
1000

1000

1001
AcCmTransparency
1071
0
0
LAYER
5
1901
330
213
100
AcDbSymbolTableRecord
100
AcDbLayerTableRecord
2
gear_guides
70
0
62
5
6
CONTINUOUS
370
-3
390
220
347
232
348
0
1001
AcAecLayerStandard
1000

1000

1001
AcCmTransparency
1071
0
0
LAYER
5
1902
330
213
100
AcDbSymbolTableRecord
100
AcDbLayerTableRecord
2
gear_texts
70
0
62
7
6
CONTINUOUS
370
-3
390
220
347
232
348
0
1001
AcAecLayerStandard
1000

1000

1001
AcCmTransparency
1071
0
0
ENDTAB
0
TABLE
2
STYLE
5
214
330
0
100
AcDbSymbolTable
70
3
0
STYLE
5
266
330
214
100
AcDbSymbolTableRecord
100
AcDbTextStyleTableRecord
2
STANDARD
70
0
40
0.0
41
1.0
50
0.0
71
0
42
0.2
3
txt
4

0
STYLE
5
26A
330
214
100
AcDbSymbolTableRecord
100
AcDbTextStyleTableRecord
2
ANNOTATIVE
70
0
40
0.0
41
1.0
50
0.0
71
0
42
0.2
3
txt
4

1001
ACADANNOTATIVE
1000
AnnotativeData
1002
{
1070
1
1070
1
1002
}
0
STYLE
5
301
330
214
100
AcDbSymbolTableRecord
100
AcDbTextStyleTableRecord
2

70
1
40
0.0
41
1.0
50
0.0
71
0
42
0.2
3
ltypeshp.shx
4

0
ENDTAB
0
TABLE
2
VIEW
5
217
330
0
100
AcDbSymbolTable
70
1
0
ENDTAB
0
TABLE
2
UCS
5
218
330
0
100
AcDbSymbolTable
70
0
0
ENDTAB
0
TABLE
2
APPID
5
21A
330
0
100
AcDbSymbolTable
70
10
0
APPID
5
267
330
21A
100
AcDbSymbolTableRecord
100
AcDbRegAppTableRecord
2
ACAD
70
0
0
APPID
5
26E
330
21A
100
AcDbSymbolTableRecord
100
AcDbRegAppTableRecord
2
ACADANNOTATIVE
70
0
0
APPID
5
286
330
21A
100
AcDbSymbolTableRecord
100
AcDbRegAppTableRecord
2
ACADANNOPO
70
0
0
APPID
5
287
330
21A
100
AcDbSymbolTableRecord
100
AcDbRegAppTableRecord
2
ACAD_DSTYLE_DIMJAG
70
0
0
APPID
5
288
330
21A
100
AcDbSymbolTableRecord
100
AcDbRegAppTableRecord
2
ACAD_DSTYLE_DIMTALN
70
0
0
APPID
5
289
330
21A
100
AcDbSymbolTableRecord
100
AcDbRegAppTableRecord
2
ACAD_MLEADERVER
70
0
0
APPID
5
28A
330
21A
100
AcDbSymbolTableRecord
100
AcDbRegAppTableRecord
2
ACAD_NAV_VCDISPLAY
70
0
0
APPID
5
2E7
330
21A
100
AcDbSymbolTableRecord
100
AcDbRegAppTableRecord
2
ACAD_EXEMPT_FROM_CAD_STANDARDS
70
0
0
APPID
5
2FC
330
21A
100
AcDbSymbolTableRecord
100
AcDbRegAppTableRecord
2
AcAecLayerStandard
70
0
0
APPID
5
2FD
330
21A
100
AcDbSymbolTableRecord
100
AcDbRegAppTableRecord
2
AcCmTransparency
70
0
0
ENDTAB
0
TABLE
2
DIMSTYLE
5
21B
330
0
100
AcDbSymbolTable
70
2
100
AcDbDimStyleTable
71
1
340
268
0
DIMSTYLE
105
268
330
21B
100
AcDbSymbolTableRecord
100
AcDbDimStyleTableRecord
2
STANDARD
70
0
279
2
340
266
0
DIMSTYLE
105
269
330
21B
100
AcDbSymbolTableRecord
100
AcDbDimStyleTableRecord
2
ANNOTATIVE
70
0
40
0.0
279
2
340
266
1001
ACADANNOTATIVE
1000
AnnotativeData
1002
{
1070
1
1070
1
1002
}
0
ENDTAB
0
TABLE
2
BLOCK_RECORD
5
212
330
0
100
AcDbSymbolTable
70
2
0
BLOCK_RECORD
5
281
330
212
100
AcDbSymbolTableRecord
100
AcDbBlockTableRecord
2
*Model_Space
340
284
70
0
280
1
281
0
0
BLOCK_RECORD
5
27D
330
212
100
AcDbSymbolTableRecord
100
AcDbBlockTableRecord
2
*Paper_Space
340
280
70
0
280
1
281
0
0
BLOCK_RECORD
5
28C
330
212
100
AcDbSymbolTableRecord
100
AcDbBlockTableRecord
2
$MODEL_SPACE
340
0
70
0
280
1
281
0
0
BLOCK_RECORD
5
28E
330
212
100
AcDbSymbolTableRecord
100
AcDbBlockTableRecord
2
$PAPER_SPACE
340
0
70
0
280
1
281
0
0
ENDTAB
0
ENDSEC
0
SECTION
2
BLOCKS
0
BLOCK
5
282
330
281
100
AcDbEntity
8
0
100
AcDbBlockBegin
2
*Model_Space
70
0
10
0.0
20
0.0
30
0.0
3
*Model_Space
1

0
ENDBLK
5
283
330
281
100
AcDbEntity
8
0
100
AcDbBlockEnd
0
BLOCK
5
27E
330
27D
100
AcDbEntity
67
1
8
0
100
AcDbBlockBegin
2
*Paper_Space
70
0
10
0.0
20
0.0
30
0.0
3
*Paper_Space
1

0
ENDBLK
5
27F
330
27D
100
AcDbEntity
67
1
8
0
100
AcDbBlockEnd
0
BLOCK
5
28D
330
28C
100
AcDbEntity
8
0
100
AcDbBlockBegin
2
$MODEL_SPACE
70
0
10
0.0
20
0.0
30
0.0
3
$MODEL_SPACE
1

0
ENDBLK
5
21
330
28C
100
AcDbEntity
8
0
100
AcDbBlockEnd
0
BLOCK
5
28F
330
28E
100
AcDbEntity
8
0
100
AcDbBlockBegin
2
$PAPER_SPACE
70
0
10
0.0
20
0.0
30
0.0
3
$PAPER_SPACE
1

0
ENDBLK
5
5B
330
28E
100
AcDbEntity
8
0
100
AcDbBlockEnd
0
ENDSEC
0
SECTION
2
ENTITIES
0
LWPOLYLINE
5
2000
100
AcDbEntity
100
AcDbPolyline
66
1
90
630
70
1
43
0
10
12.827
20
0
30
0
10
14.238511
20
0.000025
30
0
10
14.265465
20
0.001243
30
0
10
14.323051
20
0.006401
30
0
10
14.410895
20
0.018347
30
0
10
14.528423
20
0.039898
30
0
10
14.674867
20
0.07383
30
0
10
14.849263
20
0.122865
30
0
10
15.05046
20
0.18966
30
0
10
15.277118
20
0.276794
30
0
10
15.527719
20
0.386757
30
0
10
15.800568
20
0.521939
30
0
10
16.093802
20
0.684618
30
0
10
16.405394
20
0.876951
30
0
10
16.733164
20
1.100965
30
0
10
17.074783
20
1.358543
30
0
10
17.096538
20
1.375796
30
0
10
17.107432
20
1.384475
30
0
10
17.112883
20
1.388827
30
0
10
17.113565
20
1.389372
30
0
10
17.113654
20
1.389868
30
0
10
16.967838
20
2.627043
30
0
10
16.967636
20
2.627506
30
0
10
16.966846
20
2.627877
30
0
10
16.960533
20
2.630843
30
0
10
16.947919
20
2.63675
30
0
10
16.922749
20
2.648473
30
0
10
16.530606
20
2.819568
30
0
10
16.159736
20
2.961239
30
0
10
15.811966
20
3.075859
30
0
10
15.488945
20
3.165905
30
0
10
15.192144
20
3.233946
30
0
10
14.922844
20
3.282632
30
0
10
14.682138
20
3.314682
30
0
10
14.470926
20
3.33287
30
0
10
14.289908
20
3.340016
30
0
10
14.139588
20
3.33897
30
0
10
14.02027
20
3.332606
30
0
10
13.932056
20
3.323801
30
0
10
13.874849
20
3.315429
30
0
10
13.84835
20
3.310347
30
0
10
12.475512
20
2.982204
30
0
10
11.718048
20
5.217211
30
0
10
13.007517
20
5.791347
30
0
10
13.031645
20
5.803423
30
0
10
13.082155
20
5.831558
30
0
10
13.157545
20
5.8782
30
0
10
13.256147
20
5.945691
30
0
10
13.376129
20
6.036253
30
0
10
13.515503
20
6.151982
30
0
10
13.672137
20
6.294837
30
0
10
13.843759
20
6.466628
30
0
10
14.027969
20
6.669013
30
0
10
14.222246
20
6.903485
30
0
10
14.423961
20
7.171368
30
0
10
14.630385
20
7.47381
30
0
10
14.838703
20
7.811772
30
0
10
15.046021
20
8.18603
30
0
10
15.058878
20
8.210641
30
0
10
15.0653
20
8.223
30
0
10
15.06851
20
8.229193
30
0
10
15.068911
20
8.229968
30
0
10
15.068791
20
8.230458
30
0
10
14.432377
20
9.301365
30
0
10
14.432004
20
9.301705
30
0
10
14.431132
20
9.301723
30
0
10
14.424158
20
9.301864
30
0
10
14.410232
20
9.302131
30
0
10
14.382469
20
9.302603
30
0
10
13.954638
20
9.299407
30
0
10
13.558209
20
9.277983
30
0
10
13.193885
20
9.241243
30
0
10
12.862166
20
9.192119
30
0
10
12.563349
20
9.133558
30
0
10
12.297529
20
9.068501
30
0
10
12.064598
20
8.999876
30
0
10
11.864248
20
8.930584
30
0
10
11.695974
20
8.863485
30
0
10
11.559075
20
8.80139
30
0
10
11.452661
20
8.747045
30
0
10
11.375655
20
8.703121
30
0
10
11.326798
20
8.672205
30
0
10
11.304658
20
8.656784
30
0
10
10.183975
20
7.798626
30
0
10
8.582938
20
9.532319
30
0
10
9.527405
20
10.581293
30
0
10
9.544535
20
10.602139
30
0
10
9.579235
20
10.648385
30
0
10
9.629137
20
10.721659
30
0
10
9.691763
20
10.823419
30
0
10
9.764537
20
10.954953
30
0
10
9.84479
20
11.117366
30
0
10
9.929778
20
11.311579
30
0
10
10.016689
20
11.538323
30
0
10
10.102655
20
11.798135
30
0
10
10.184768
20
12.091356
30
0
10
10.260086
20
12.418124
30
0
10
10.32565
20
12.778379
30
0
10
10.378496
20
13.171853
30
0
10
10.415666
20
13.598079
30
0
10
10.417401
20
13.625791
30
0
10
10.418241
20
13.639694
30
0
10
10.418654
20
13.646657
30
0
10
10.418706
20
13.647528
30
0
10
10.418397
20
13.647927
30
0
10
9.401426
20
14.367396
30
0
10
9.400947
20
14.367555
30
0
10
9.400143
20
14.367217
30
0
10
9.393715
20
14.364509
30
0
10
9.380884
20
14.359089
30
0
10
9.35533
20
14.348228
30
0
10
8.965787
20
14.171294
30
0
10
8.612345
20
13.99048
30
0
10
8.294462
20
13.808732
30
0
10
8.011402
20
13.628933
30
0
10
7.762238
20
13.453895
30
0
10
7.54586
20
13.286344
30
0
10
7.360979
20
13.12891
30
0
10
7.206134
20
12.984119
30
0
10
7.079699
20
12.854378
30
0
10
6.979893
20
12.741969
30
0
10
6.904783
20
12.64904
30
0
10
6.8523
20
12.577592
30
0
10
6.820242
20
12.529477
30
0
10
6.806288
20
12.506385
30
0
10
6.131537
20
11.266596
30
0
10
3.963761
20
12.199202
30
0
10
4.399918
20
13.541637
30
0
10
4.407089
20
13.567648
30
0
10
4.419978
20
13.62401
30
0
10
4.435762
20
13.711245
30
0
10
4.451585
20
13.829681
30
0
10
4.464567
20
13.979442
30
0
10
4.471823
20
14.160456
30
0
10
4.47047
20
14.372446
30
0
10
4.457642
20
14.614937
30
0
10
4.430501
20
14.887253
30
0
10
4.386251
20
15.188521
30
0
10
4.322148
20
15.517674
30
0
10
4.235516
20
15.87345
30
0
10
4.123752
20
16.254401
30
0
10
3.984347
20
16.658896
30
0
10
3.974661
20
16.684918
30
0
10
3.969774
20
16.697961
30
0
10
3.967319
20
16.70449
30
0
10
3.967012
20
16.705307
30
0
10
3.966567
20
16.705545
30
0
10
2.744884
20
16.949174
30
0
10
2.744382
20
16.949125
30
0
10
2.743784
20
16.948488
30
0
10
2.739013
20
16.9434
30
0
10
2.729496
20
16.93323
30
0
10
2.710569
20
16.912914
30
0
10
2.426669
20
16.592835
30
0
10
2.177327
20
16.283895
30
0
10
1.960851
20
15.988566
30
0
10
1.775393
20
15.709181
30
0
10
1.618965
20
15.447932
30
0
10
1.489443
20
15.206857
30
0
10
1.38458
20
14.987836
30
0
10
1.302014
20
14.792582
30
0
10
1.239281
20
14.622632
30
0
10
1.193824
20
14.479346
30
0
10
1.163005
20
14.363901
30
0
10
1.14412
20
14.277284
30
0
10
1.134403
20
14.220289
30
0
10
1.131048
20
14.193517
30
0
10
1.018901
20
12.786468
30
0
10
-1.340787
20
12.756732
30
0
10
-1.488355
20
14.160509
30
0
10
-1.492384
20
14.187188
30
0
10
-1.503533
20
14.243919
30
0
10
-1.524595
20
14.330033
30
0
10
-1.558313
20
14.444665
30
0
10
-1.607366
20
14.586759
30
0
10
-1.674363
20
14.755074
30
0
10
-1.761823
20
14.948187
30
0
10
-1.872172
20
15.164495
30
0
10
-2.007727
20
15.402229
30
0
10
-2.170689
20
15.659454
30
0
10
-2.363128
20
15.934077
30
0
10
-2.586978
20
16.223858
30
0
10
-2.844025
20
16.526416
30
0
10
-3.135901
20
16.839239
30
0
10
-3.155334
20
16.859071
30
0
10
-3.165104
20
16.868999
30
0
10
-3.170002
20
16.873965
30
0
10
-3.170615
20
16.874586
30
0
10
-3.171118
20
16.874623
30
0
10
-4.386274
20
16.600286
30
0
10
-4.386713
20
16.600036
30
0
10
-4.386999
20
16.599212
30
0
10
-4.389289
20
16.592623
30
0
10
-4.393846
20
16.579461
30
0
10
-4.402873
20
16.553203
30
0
10
-4.532041
20
16.145324
30
0
10
-4.634169
20
15.761678
30
0
10
-4.711809
20
15.403831
30
0
10
-4.767597
20
15.073168
30
0
10
-4.804242
20
14.77088
30
0
10
-4.824512
20
14.497966
30
0
10
-4.831225
20
14.255229
30
0
10
-4.827236
20
14.043273
30
0
10
-4.815421
20
13.8625
30
0
10
-4.798669
20
13.713113
30
0
10
-4.779867
20
13.595113
30
0
10
-4.761889
20
13.508303
30
0
10
-4.747584
20
13.452284
30
0
10
-4.73976
20
13.426462
30
0
10
-4.269913
20
12.095444
30
0
10
-6.4135
20
11.108508
30
0
10
-7.119278
20
12.3309
30
0
10
-7.133809
20
12.353634
30
0
10
-7.167069
20
12.400926
30
0
10
-7.221337
20
12.471028
30
0
10
-7.298764
20
12.562035
30
0
10
-7.401372
20
12.671893
30
0
10
-7.531036
20
12.798407
30
0
10
-7.68948
20
12.93925
30
0
10
-7.87827
20
13.091975
30
0
10
-8.098801
20
13.25402
30
0
10
-8.352296
20
13.422724
30
0
10
-8.639797
20
13.595333
30
0
10
-8.962159
20
13.769013
30
0
10
-9.320045
20
13.940863
30
0
10
-9.713924
20
14.107924
30
0
10
-9.739743
20
14.118138
30
0
10
-9.752706
20
14.123234
30
0
10
-9.759201
20
14.125778
30
0
10
-9.760013
20
14.126096
30
0
10
-9.760488
20
14.125925
30
0
10
-10.759006
20
13.381058
30
0
10
-10.759305
20
13.380651
30
0
10
-10.759231
20
13.379782
30
0
10
-10.758643
20
13.372831
30
0
10
-10.757453
20
13.358953
30
0
10
-10.755019
20
13.331294
30
0
10
-10.707121
20
12.90614
30
0
10
-10.644376
20
12.514122
30
0
10
-10.569755
20
12.155635
30
0
10
-10.486227
20
11.830868
30
0
10
-10.396751
20
11.539809
30
0
10
-10.304265
20
11.282246
30
0
10
-10.211668
20
11.057764
30
0
10
-10.121813
20
10.865754
30
0
10
-10.037492
20
10.705415
30
0
10
-9.961427
20
10.575757
30
0
10
-9.896256
20
10.475607
30
0
10
-9.844524
20
10.403614
30
0
10
-9.80867
20
10.358257
30
0
10
-9.79102
20
10.337849
30
0
10
-8.82042
20
9.313008
30
0
10
-10.377261
20
7.539521
30
0
10
-11.519212
20
8.369167
30
0
10
-11.541735
20
8.384024
30
0
10
-11.591355
20
8.4137
30
0
10
-11.669443
20
8.455669
30
0
10
-11.777193
20
8.507315
30
0
10
-11.915613
20
8.565941
30
0
10
-12.085524
20
8.628778
30
0
10
-12.287557
20
8.693
30
0
10
-12.522144
20
8.755733
30
0
10
-12.789519
20
8.814071
30
0
10
-13.089716
20
8.865084
30
0
10
-13.422568
20
8.905832
30
0
10
-13.787702
20
8.933381
30
0
10
-14.184545
20
8.944808
30
0
10
-14.612321
20
8.937221
30
0
10
-14.640062
20
8.93605
30
0
10
-14.653977
20
8.935433
30
0
10
-14.660945
20
8.935116
30
0
10
-14.661817
20
8.935076
30
0
10
-14.662181
20
8.934727
30
0
10
-15.271407
20
7.848123
30
0
10
-15.271515
20
7.84763
30
0
10
-15.271094
20
7.846865
30
0
10
-15.26773
20
7.840755
30
0
10
-15.260998
20
7.828561
30
0
10
-15.247525
20
7.804282
30
0
10
-15.030842
20
7.435368
30
0
10
-14.814074
20
7.102762
30
0
10
-14.600093
20
6.805618
30
0
10
-14.391692
20
6.542903
30
0
10
-14.191568
20
6.313401
30
0
10
-14.002317
20
6.115722
30
0
10
-13.826421
20
5.94831
30
0
10
-13.666237
20
5.809448
30
0
10
-13.52399
20
5.697268
30
0
10
-13.401765
20
5.609758
30
0
10
-13.301493
20
5.544773
30
0
10
-13.224951
20
5.500046
30
0
10
-13.173749
20
5.473193
30
0
10
-13.149324
20
5.461729
30
0
10
-11.845796
20
4.920268
30
0
10
-12.546699
20
2.666883
30
0
10
-13.927371
20
2.960328
30
0
10
-13.953989
20
2.964741
30
0
10
-14.011389
20
2.971668
30
0
10
-14.099797
20
2.978248
30
0
10
-14.219238
20
2.981603
30
0
10
-14.369536
20
2.97886
30
0
10
-14.550316
20
2.967155
30
0
10
-14.761003
20
2.943651
30
0
10
-15.000825
20
2.905546
30
0
10
-15.268812
20
2.850089
30
0
10
-15.563805
20
2.77459
30
0
10
-15.884454
20
2.676433
30
0
10
-16.229226
20
2.553086
30
0
10
-16.596408
20
2.402114
30
0
10
-16.984114
20
2.221192
30
0
10
-17.008982
20
2.208839
30
0
10
-17.021442
20
2.202615
30
0
10
-17.027679
20
2.199491
30
0
10
-17.028459
20
2.1991
30
0
10
-17.02865
20
2.198633
30
0
10
-17.143244
20
0.958176
30
0
10
-17.143142
20
0.957682
30
0
10
-17.142446
20
0.957154
30
0
10
-17.136887
20
0.952941
30
0
10
-17.125778
20
0.944539
30
0
10
-17.103595
20
0.92784
30
0
10
-16.755594
20
0.678952
30
0
10
-16.422283
20
0.463269
30
0
10
-16.105943
20
0.278849
30
0
10
-15.808703
20
0.123611
30
0
10
-15.532534
20
-0.004652
30
0
10
-15.279242
20
-0.108265
30
0
10
-15.05046
20
-0.18966
30
0
10
-14.847644
20
-0.251364
30
0
10
-14.672067
20
-0.295989
30
0
10
-14.524815
20
-0.32622
30
0
10
-14.406781
20
-0.344802
30
0
10
-14.318664
20
-0.354531
30
0
10
-14.260967
20
-0.358236
30
0
10
-14.233991
20
-0.358774
30
0
10
-12.822927
20
-0.323231
30
0
10
-12.546699
20
-2.666883
30
0
10
-13.92736
20
-2.960378
30
0
10
-13.953472
20
-2.967173
30
0
10
-14.008727
20
-2.984191
30
0
10
-14.092168
20
-3.01414
30
0
10
-14.202647
20
-3.059655
30
0
10
-14.338836
20
-3.123293
30
0
10
-14.499226
20
-3.207515
30
0
10
-14.682138
20
-3.314682
30
0
10
-14.885727
20
-3.447037
30
0
10
-15.10799
20
-3.6067
30
0
10
-15.346771
20
-3.795656
30
0
10
-15.599774
20
-4.015747
30
0
10
-15.864569
20
-4.268661
30
0
10
-16.138601
20
-4.555926
30
0
10
-16.419201
20
-4.878902
30
0
10
-16.436893
20
-4.900302
30
0
10
-16.445745
20
-4.911056
30
0
10
-16.450172
20
-4.916446
30
0
10
-16.450726
20
-4.917121
30
0
10
-16.45071
20
-4.917625
30
0
10
-16.050857
20
-6.097448
30
0
10
-16.050563
20
-6.097858
30
0
10
-16.049714
20
-6.098057
30
0
10
-16.042922
20
-6.099645
30
0
10
-16.029355
20
-6.102802
30
0
10
-16.002298
20
-6.109035
30
0
10
-15.583151
20
-6.19486
30
0
10
-15.190931
20
-6.256327
30
0
10
-14.826929
20
-6.296136
30
0
10
-14.492246
20
-6.317055
30
0
10
-14.187784
20
-6.321901
30
0
10
-13.914246
20
-6.313533
30
0
10
-13.672137
20
-6.294837
30
0
10
-13.461759
20
-6.268713
30
0
10
-13.283211
20
-6.238067
30
0
10
-13.136393
20
-6.205792
30
0
10
-13.021006
20
-6.174759
30
0
10
-12.93655
20
-6.147805
30
0
10
-12.882333
20
-6.127723
30
0
10
-12.857471
20
-6.117242
30
0
10
-11.582857
20
-5.51084
30
0
10
-10.377261
20
-7.539521
30
0
10
-11.519183
20
-8.369207
30
0
10
-11.540273
20
-8.386036
30
0
10
-11.583829
20
-8.424057
30
0
10
-11.647875
20
-8.485355
30
0
10
-11.73029
20
-8.571871
30
0
10
-11.828821
20
-8.6854
30
0
10
-11.941088
20
-8.827578
30
0
10
-12.064598
20
-8.999876
30
0
10
-12.196752
20
-9.203596
30
0
10
-12.334858
20
-9.439857
30
0
10
-12.47614
20
-9.709598
30
0
10
-12.617751
20
-10.013567
30
0
10
-12.756784
20
-10.352317
30
0
10
-12.890283
20
-10.726206
30
0
10
-13.015258
20
-11.135389
30
0
10
-13.022717
20
-11.162135
30
0
10
-13.02643
20
-11.17556
30
0
10
-13.028281
20
-11.182285
30
0
10
-13.028513
20
-11.183126
30
0
10
-13.028293
20
-11.183581
30
0
10
-12.183132
20
-12.098768
30
0
10
-12.182697
20
-12.099023
30
0
10
-12.18184
20
-12.098859
30
0
10
-12.174989
20
-12.097547
30
0
10
-12.161312
20
-12.094913
30
0
10
-12.134058
20
-12.089602
30
0
10
-11.71624
20
-11.997525
30
0
10
-11.332929
20
-11.894147
30
0
10
-10.984205
20
-11.782462
30
0
10
-10.669948
20
-11.665444
30
0
10
-10.389837
20
-11.546035
30
0
10
-10.143351
20
-11.427133
30
0
10
-9.929778
20
-11.311579
30
0
10
-9.748213
20
-11.202145
30
0
10
-9.597566
20
-11.101526
30
0
10
-9.47657
20
-11.012325
30
0
10
-9.38378
20
-10.937043
30
0
10
-9.317589
20
-10.878069
30
0
10
-9.276228
20
-10.83767
30
0
10
-9.257777
20
-10.817983
30
0
10
-8.340006
20
-9.745575
30
0
10
-6.4135
20
-11.108508
30
0
10
-7.119234
20
-12.330925
30
0
10
-7.131656
20
-12.354877
30
0
10
-7.155982
20
-12.407327
30
0
10
-7.189559
20
-12.489375
30
0
10
-7.229659
20
-12.601933
30
0
10
-7.273495
20
-12.745722
30
0
10
-7.318227
20
-12.921272
30
0
10
-7.360979
20
-13.12891
30
0
10
-7.398848
20
-13.368769
30
0
10
-7.428918
20
-13.640778
30
0
10
-7.448272
20
-13.944663
30
0
10
-7.454005
20
-14.27995
30
0
10
-7.443235
20
-14.645964
30
0
10
-7.413119
20
-15.041827
30
0
10
-7.360859
20
-15.466467
30
0
10
-7.356795
20
-15.493934
30
0
10
-7.354726
20
-15.507708
30
0
10
-7.353682
20
-15.514605
30
0
10
-7.353551
20
-15.515468
30
0
10
-7.353166
20
-15.515794
30
0
10
-6.208833
20
-16.008101
30
0
10
-6.208331
20
-16.008157
30
0
10
-6.207615
20
-16.007658
30
0
10
-6.20189
20
-16.003673
30
0
10
-6.190467
20
-15.995704
30
0
10
-6.167729
20
-15.979767
30
0
10
-5.823485
20
-15.725709
30
0
10
-5.51536
20
-15.475361
30
0
10
-5.242211
20
-15.231493
30
0
10
-5.002719
20
-14.996772
30
0
10
-4.795392
20
-14.773755
30
0
10
-4.618579
20
-14.564878
30
0
10
-4.47047
20
-14.372446
30
0
10
-4.349113
20
-14.198624
30
0
10
-4.252416
20
-14.045431
30
0
10
-4.178161
20
-13.914728
30
0
10
-4.124014
20
-13.808213
30
0
10
-4.087532
20
-13.727415
30
0
10
-4.066178
20
-13.673686
30
0
10
-4.05733
20
-13.648197
30
0
10
-3.655092
20
-12.295212
30
0
10
-1.340787
20
-12.756732
30
0
10
-1.488305
20
-14.160514
30
0
10
-1.489911
20
-14.187447
30
0
10
-1.4908
20
-14.245257
30
0
10
-1.488102
20
-14.333869
30
0
10
-1.478955
20
-14.453006
30
0
10
-1.460516
20
-14.602194
30
0
10
-1.429979
20
-14.78076
30
0
10
-1.38458
20
-14.987836
30
0
10
-1.321616
20
-15.222361
30
0
10
-1.23845
20
-15.483084
30
0
10
-1.13253
20
-15.768569
30
0
10
-1.001393
20
-16.077201
30
0
10
-0.842684
20
-16.40719
30
0
10
-0.654158
20
-16.75658
30
0
10
-0.4337
20
-17.123251
30
0
10
-0.418816
20
-17.146691
30
0
10
-0.411323
20
-17.158433
30
0
10
-0.407565
20
-17.164309
30
0
10
-0.407094
20
-17.165044
30
0
10
-0.40661
20
-17.165185
30
0
10
0.83903
20
-17.149488
30
0
10
0.839511
20
-17.149335
30
0
10
0.839963
20
-17.148588
30
0
10
0.843572
20
-17.142619
30
0
10
0.850766
20
-17.130692
30
0
10
0.865056
20
-17.106885
30
0
10
1.076204
20
-16.734775
30
0
10
1.255865
20
-16.380745
30
0
10
1.406208
20
-16.046861
30
0
10
1.529526
20
-15.735022
30
0
10
1.628219
20
-15.446959
30
0
10
1.704788
20
-15.184223
30
0
10
1.761823
20
-14.948187
30
0
10
1.801989
20
-14.740032
30
0
10
1.828016
20
-14.560753
30
0
10
1.84269
20
-14.411148
30
0
10
1.848832
20
-14.291818
30
0
10
1.849296
20
-14.203167
30
0
10
1.84695
20
-14.145398
30
0
10
1.844666
20
-14.118513
30
0
10
1.661821
20
-12.718895
30
0
10
3.963761
20
-12.199202
30
0
10
4.399966
20
-13.541621
30
0
10
4.409454
20
-13.566879
30
0
10
4.432154
20
-13.620053
30
0
10
4.470661
20
-13.699906
30
0
10
4.527475
20
-13.805023
30
0
10
4.604999
20
-13.933813
30
0
10
4.705526
20
-14.084521
30
0
10
4.831225
20
-14.255229
30
0
10
4.984136
20
-14.443868
30
0
10
5.166157
20
-14.648224
30
0
10
5.379037
20
-14.865945
30
0
10
5.624368
20
-15.094557
30
0
10
5.903576
20
-15.331464
30
0
10
6.217912
20
-15.573968
30
0
10
6.568449
20
-15.81927
30
0
10
6.591581
20
-15.834629
30
0
10
6.603201
20
-15.842309
30
0
10
6.609025
20
-15.846148
30
0
10
6.609753
20
-15.846628
30
0
10
6.610253
20
-15.84656
30
0
10
7.741817
20
-15.325572
30
0
10
7.742194
20
-15.325237
30
0
10
7.742303
20
-15.324371
30
0
10
7.743173
20
-15.31745
30
0
10
7.744894
20
-15.303628
30
0
10
7.748265
20
-15.276067
30
0
10
7.789807
20
-14.850246
30
0
10
7.809939
20
-14.453749
30
0
10
7.811482
20
-14.08758
30
0
10
7.797302
20
-13.752544
30
0
10
7.770296
20
-13.449243
30
0
10
7.733381
20
-13.178079
30
0
10
7.68948
20
-12.93925
30
0
10
7.64151
20
-12.732755
30
0
10
7.592368
20
-12.558388
30
0
10
7.544923
20
-12.415749
30
0
10
7.501998
20
-12.304237
30
0
10
7.466365
20
-12.223062
30
0
10
7.440725
20
-12.171241
30
0
10
7.427703
20
-12.14761
30
0
10
6.691389
20
-10.943365
30
0
10
8.582938
20
-9.532319
30
0
10
9.527442
20
-10.581259
30
0
10
9.546383
20
-10.600475
30
0
10
9.588749
20
-10.639818
30
0
10
9.656405
20
-10.697106
30
0
10
9.751063
20
-10.770026
30
0
10
9.874269
20
-10.85615
30
0
10
10.027403
20
-10.95294
30
0
10
10.211668
20
-11.057764
30
0
10
10.428085
20
-11.1679
30
0
10
10.677489
20
-11.280553
30
0
10
10.96052
20
-11.392865
30
0
10
11.277626
20
-11.501927
30
0
10
11.629053
20
-11.604789
30
0
10
12.014848
20
-11.698475
30
0
10
12.434853
20
-11.779994
30
0
10
12.462232
20
-11.784616
30
0
10
12.475972
20
-11.786905
30
0
10
12.482854
20
-11.788044
30
0
10
12.483714
20
-11.788186
30
0
10
12.484143
20
-11.78792
30
0
10
13.305974
20
-10.851726
30
0
10
13.306182
20
-10.851266
30
0
10
13.305929
20
-10.850431
30
0
10
13.303909
20
-10.843755
30
0
10
13.299859
20
-10.830428
30
0
10
13.291728
20
-10.803879
30
0
10
13.156482
20
-10.397975
30
0
10
13.013603
20
-10.027569
30
0
10
12.866079
20
-9.692429
30
0
10
12.716853
20
-9.392126
30
0
10
12.568819
20
-9.126031
30
0
10
12.424803
20
-8.893324
30
0
10
12.287557
20
-8.693
30
0
10
12.159744
20
-8.523868
30
0
10
12.04393
20
-8.384564
30
0
10
11.94257
20
-8.273555
30
0
10
11.858001
20
-8.189143
30
0
10
11.792431
20
-8.129479
30
0
10
11.74793
20
-8.092567
30
0
10
11.726423
20
-8.076275
30
0
10
10.563956
20
-7.275628
30
0
10
11.718048
20
-5.217211
30
0
10
13.007538
20
-5.791301
30
0
10
13.032657
20
-5.801152
30
0
10
13.087362
20
-5.819862
30
0
10
13.17247
20
-5.844678
30
0
10
13.288603
20
-5.872794
30
0
10
13.436187
20
-5.901359
30
0
10
13.615451
20
-5.927497
30
0
10
13.826421
20
-5.94831
30
0
10
14.068924
20
-5.9609
30
0
10
14.342585
20
-5.962372
30
0
10
14.646829
20
-5.949855
30
0
10
14.980879
20
-5.92051
30
0
10
15.343762
20
-5.87154
30
0
10
15.734309
20
-5.80021
30
0
10
16.151159
20
-5.703849
30
0
10
16.178051
20
-5.696936
30
0
10
16.191533
20
-5.693439
30
0
10
16.198284
20
-5.69168
30
0
10
16.199128
20
-5.69146
30
0
10
16.199412
20
-5.691043
30
0
10
16.569407
20
-4.501518
30
0
10
16.56941
20
-4.501013
30
0
10
16.568839
20
-4.500353
30
0
10
16.564278
20
-4.495076
30
0
10
16.555158
20
-4.484548
30
0
10
16.536931
20
-4.463601
30
0
10
16.248282
20
-4.147799
30
0
10
15.967098
20
-3.86753
30
0
10
15.696014
20
-3.621369
30
0
10
15.437545
20
-3.407724
30
0
10
15.194078
20
-3.224845
30
0
10
14.967863
20
-3.070833
30
0
10
14.761003
20
-2.943651
30
0
10
14.575449
20
-2.841127
30
0
10
14.412987
20
-2.760973
30
0
10
14.275238
20
-2.700787
30
0
10
14.163647
20
-2.658071
30
0
10
14.079478
20
-2.630234
30
0
10
14.023812
20
-2.614614
30
0
10
13.997537
20
-2.608479
30
0
10
12.609918
20
-2.349869
30
0
8
gear
0
CIRCLE
5
2001
100
AcDbEntity
100
AcDbCircle
10
15.045856
20
1.773334
30
0
40
0.79285
8
gear_guides
0
CIRCLE
5
2002
100
AcDbEntity
100
AcDbCircle
10
0
20
0
30
0
40
15.15
8
gear_guides
0
CIRCLE
5
2003
100
AcDbEntity
100
AcDbCircle
10
0
20
0
30
0
40
17.17
8
gear_guides
0
CIRCLE
5
2004
100
AcDbEntity
100
AcDbCircle
10
0
20
0
30
0
40
14.236343
8
gear_guides
0
LINE
5
2005
100
AcDbEntity
100
AcDbLine
10
1.6
20
0
30
0
11
-1.6
21
0
31
0
8
gear_guides
0
LINE
5
2006
100
AcDbEntity
100
AcDbLine
10
0
20
1.6
30
0
11
0
21
-1.6
31
0
8
gear_guides
0
LWPOLYLINE
5
2007
100
AcDbEntity
100
AcDbPolyline
66
1
90
2
70
0
43
0
10
-8.146371
20
4.70331
30
0
10
-8.844786
20
5.10654
30
0
8
gear_texts
0
LWPOLYLINE
5
2008
100
AcDbEntity
100
AcDbPolyline
66
1
90
2
70
0
43
0
10
-9.01939
20
5.207347
30
0
10
-9.193994
20
5.308155
30
0
8
gear_texts
0
LWPOLYLINE
5
2009
100
AcDbEntity
100
AcDbPolyline
66
1
90
2
70
0
43
0
10
-7.950381
20
5.027516
30
0
10
-8.631993
20
5.458542
30
0
8
gear_texts
0
LWPOLYLINE
5
2010
100
AcDbEntity
100
AcDbPolyline
66
1
90
6
70
0
43
0
10
-8.291187
20
5.243029
30
0
10
-8.352125
20
5.520092
30
0
10
-8.405199
20
5.80169
30
0
10
-8.286666
20
5.96977
30
0
10
-8.003593
20
6.01431
30
0
10
-7.520054
20
5.650954
30
0
8
gear_texts
0
LWPOLYLINE
5
2011
100
AcDbEntity
100
AcDbPolyline
66
1
90
2
70
0
43
0
10
-6.97407
20
5.694152
30
0
10
-7.911102
20
6.459215
30
0
8
gear_texts
0
LWPOLYLINE
5
2012
100
AcDbEntity
100
AcDbPolyline
66
1
90
10
70
0
43
0
10
-7.75493
20
6.331704
30
0
10
-7.779428
20
6.617211
30
0
10
-7.6446
20
6.772524
30
0
10
-7.506671
20
6.925091
30
0
10
-7.220293
20
6.935185
30
0
10
-6.929482
20
6.655858
30
0
10
-6.913918
20
6.378262
30
0
10
-7.040956
20
6.237742
30
0
10
-7.165138
20
6.094693
30
0
10
-7.286414
20
5.949173
30
0
8
gear_texts
0
LWPOLYLINE
5
2013
100
AcDbEntity
100
AcDbPolyline
66
1
90
2
70
0
43
0
10
-6.459215
20
7.911102
30
0
10
-5.949173
20
7.286414
30
0
8
gear_texts
0
LWPOLYLINE
5
2014
100
AcDbEntity
100
AcDbPolyline
66
1
90
6
70
0
43
0
10
-6.204194
20
7.598758
30
0
10
-6.225323
20
7.31871
30
0
10
-6.237742
20
7.040956
30
0
10
-6.378262
20
6.913918
30
0
10
-6.655858
20
6.929482
30
0
10
-7.074849
20
7.365698
30
0
8
gear_texts
0
LWPOLYLINE
5
2015
100
AcDbEntity
100
AcDbPolyline
66
1
90
4
70
0
43
0
10
-5.135273
20
8.120784
30
0
10
-5.186594
20
7.84753
30
0
10
-5.458099
20
7.907422
30
0
10
-6.030751
20
8.737051
30
0
8
gear_texts
0
LWPOLYLINE
5
2016
100
AcDbEntity
100
AcDbPolyline
66
1
90
5
70
0
43
0
10
-5.458542
20
8.631993
30
0
10
-5.631258
20
8.520324
30
0
10
-5.80169
20
8.405199
30
0
10
-5.96977
20
8.286666
30
0
10
-6.135428
20
8.164772
30
0
8
gear_texts
0
LWPOLYLINE
5
2017
100
AcDbEntity
100
AcDbPolyline
66
1
90
13
70
0
43
0
10
-3.428577
20
9.620387
30
0
10
-3.621608
20
9.549395
30
0
10
-3.81317
20
9.47453
30
0
10
-4.003186
20
9.395823
30
0
10
-4.108833
20
9.129453
30
0
10
-3.845133
20
9.02486
30
0
10
-3.66262
20
9.100459
30
0
10
-3.47862
20
9.172368
30
0
10
-3.225528
20
9.050643
30
0
10
-3.335633
20
8.795342
30
0
10
-3.512069
20
8.726388
30
0
10
-3.687081
20
8.653896
30
0
10
-3.860597
20
8.577895
30
0
8
gear_texts
0
LWPOLYLINE
5
2018
100
AcDbEntity
100
AcDbPolyline
66
1
90
13
70
0
43
0
10
-2.251151
20
9.13328
30
0
10
-2.434612
20
9.086096
30
0
10
-2.617086
20
9.035228
30
0
10
-2.858479
20
9.173182
30
0
10
-2.978441
20
9.558154
30
0
10
-2.841457
20
9.809848
30
0
10
-2.643339
20
9.865077
30
0
10
-2.44415
20
9.916306
30
0
10
-2.199671
20
9.766825
30
0
10
-2.347651
20
9.524793
30
0
10
-2.538976
20
9.475587
30
0
10
-2.729271
20
9.422538
30
0
10
-2.91846
20
9.365668
30
0
8
gear_texts
0
LWPOLYLINE
5
2019
100
AcDbEntity
100
AcDbPolyline
66
1
90
10
70
0
43
0
10
-0.945572
20
9.358973
30
0
10
-1.133843
20
9.338034
30
0
10
-1.321653
20
9.313309
30
0
10
-1.508928
20
9.284806
30
0
10
-1.731933
20
9.45085
30
0
10
-1.804617
20
9.847476
30
0
10
-1.638293
20
10.080823
30
0
10
-1.434963
20
10.111769
30
0
10
-1.231051
20
10.138614
30
0
10
-1.026639
20
10.161348
30
0
8
gear_texts
0
LWPOLYLINE
5
2020
100
AcDbEntity
100
AcDbPolyline
66
1
90
11
70
0
43
0
10
0.193482
20
9.606286
30
0
10
0
20
9.406619
30
0
10
-0.189422
20
9.404712
30
0
10
-0.378766
20
9.39899
30
0
10
-0.580131
20
9.590704
30
0
10
-0.604477
20
9.993199
30
0
10
-0.411239
20
10.204796
30
0
10
-0.205661
20
10.211008
30
0
10
0
20
10.213079
30
0
10
0.201601
20
10.009434
30
0
10
0.193482
20
9.606286
30
0
8
gear_texts
0
LWPOLYLINE
5
2021
100
AcDbEntity
100
AcDbPolyline
66
1
90
2
70
0
43
0
10
0.567958
20
9.389457
30
0
10
0.61665
20
10.194446
30
0
8
gear_texts
0
LWPOLYLINE
5
2022
100
AcDbEntity
100
AcDbPolyline
66
1
90
6
70
0
43
0
10
0.592304
20
9.791952
30
0
10
0.805588
20
9.979
30
0
10
1.026639
20
10.161348
30
0
10
1.231051
20
10.138614
30
0
10
1.406635
20
9.912154
30
0
10
1.321653
20
9.313309
30
0
8
gear_texts
0
LWPOLYLINE
5
2023
100
AcDbEntity
100
AcDbPolyline
66
1
90
12
70
0
43
0
10
2.434612
20
9.086096
30
0
10
2.538976
20
9.475587
30
0
10
2.299401
20
9.329036
30
0
10
2.066778
20
9.17676
30
0
10
1.881566
20
9.216518
30
0
10
1.731933
20
9.45085
30
0
10
1.804617
20
9.847476
30
0
10
2.042878
20
10.00668
30
0
10
2.243969
20
9.963513
30
0
10
2.3959
20
9.720549
30
0
10
2.538976
20
9.475587
30
0
10
2.747703
20
10.254567
30
0
8
gear_texts
0
LWPOLYLINE
5
2024
100
AcDbEntity
100
AcDbPolyline
66
1
90
15
70
0
43
0
10
4.371474
20
8.329148
30
0
10
4.202863
20
8.415487
30
0
10
4.032548
20
8.498414
30
0
10
3.860597
20
8.577895
30
0
10
3.766107
20
8.839378
30
0
10
3.92416
20
9.210341
30
0
10
4.191579
20
9.313305
30
0
10
4.378271
20
9.227011
30
0
10
4.563188
20
9.136974
30
0
10
4.652559
20
8.864711
30
0
10
4.277779
20
8.150626
30
0
10
4.0227
20
8.054744
30
0
10
3.859686
20
8.134116
30
0
10
3.695106
20
8.210189
30
0
10
3.608054
20
8.468415
30
0
8
gear_texts
0
LWPOLYLINE
5
2025
100
AcDbEntity
100
AcDbPolyline
66
1
90
13
70
0
43
0
10
5.186594
20
7.84753
30
0
10
5.027516
20
7.950381
30
0
10
4.8664
20
8.050009
30
0
10
4.804117
20
8.320975
30
0
10
5.005732
20
8.670182
30
0
10
5.283612
20
8.740162
30
0
10
5.458542
20
8.631993
30
0
10
5.631258
20
8.520324
30
0
10
5.68716
20
8.239274
30
0
10
5.408926
20
8.183927
30
0
10
5.243029
20
8.291187
30
0
10
5.075006
20
8.395085
30
0
10
4.904925
20
8.495579
30
0
8
gear_texts
0
LWPOLYLINE
5
2026
100
AcDbEntity
100
AcDbPolyline
66
1
90
10
70
0
43
0
10
6.225323
20
7.31871
30
0
10
5.949173
20
7.286414
30
0
10
5.80124
20
7.404735
30
0
10
5.772072
20
7.681233
30
0
10
6.01431
20
8.003593
30
0
10
6.298599
20
8.039567
30
0
10
6.459215
20
7.911102
30
0
10
6.486582
20
7.625856
30
0
10
6.225323
20
7.31871
30
0
10
6.237742
20
7.040956
30
0
8
gear_texts
0
LWPOLYLINE
5
2027
100
AcDbEntity
100
AcDbPolyline
66
1
90
2
70
0
43
0
10
6.516194
20
6.784077
30
0
10
7.074849
20
7.365698
30
0
8
gear_texts
0
LWPOLYLINE
5
2028
100
AcDbEntity
100
AcDbPolyline
66
1
90
5
70
0
43
0
10
6.795521
20
7.074887
30
0
10
7.079174
20
7.079174
30
0
10
7.365698
20
7.074849
30
0
10
7.506671
20
6.925091
30
0
10
7.493689
20
6.638829
30
0
8
gear_texts
0
LWPOLYLINE
5
2029
100
AcDbEntity
100
AcDbPolyline
66
1
90
5
70
0
43
0
10
8.769225
20
4.830125
30
0
10
8.670182
20
5.005732
30
0
10
8.567624
20
5.179309
30
0
10
8.46159
20
5.350785
30
0
10
8.352125
20
5.520092
30
0
8
gear_texts
0
LWPOLYLINE
5
2030
100
AcDbEntity
100
AcDbPolyline
66
1
90
5
70
0
43
0
10
9.616193
20
2.785364
30
0
10
9.558154
20
2.978441
30
0
10
9.496239
20
3.17031
30
0
10
9.430472
20
3.360894
30
0
10
9.360882
20
3.550114
30
0
8
gear_texts
0
LWPOLYLINE
5
2031
100
AcDbEntity
100
AcDbPolyline
66
1
90
2
70
0
43
0
10
9.11376
20
3.04262
30
0
10
9.878717
20
3.298
30
0
8
gear_texts
0
LWPOLYLINE
5
2032
100
AcDbEntity
100
AcDbPolyline
66
1
90
5
70
0
43
0
10
10.003502
20
2.89755
30
0
10
9.75064
20
3.038422
30
0
10
9.496239
20
3.17031
30
0
10
9.240558
20
3.293211
30
0
10
8.983855
20
3.407127
30
0
8
gear_texts
0
LWPOLYLINE
5
2033
100
AcDbEntity
100
AcDbPolyline
66
1
90
5
70
0
43
0
10
9.228883
20
2.673179
30
0
10
9.365668
20
2.91846
30
0
10
9.496239
20
3.17031
30
0
10
9.620387
20
3.428577
30
0
10
9.737908
20
3.693101
30
0
8
gear_texts
0
LWPOLYLINE
5
2034
100
AcDbEntity
100
AcDbPolyline
66
1
90
3
70
0
43
0
10
10.112062
20
2.492399
30
0
10
10.35689
20
2.332565
30
0
10
9.17676
20
2.066778
30
0
8
gear_texts
0
LWPOLYLINE
5
2035
100
AcDbEntity
100
AcDbPolyline
66
1
90
3
70
0
43
0
10
9.216518
20
1.881566
30
0
10
9.17676
20
2.066778
30
0
10
9.13328
20
2.251151
30
0
8
gear_texts
0
LWPOLYLINE
5
2036
100
AcDbEntity
100
AcDbPolyline
66
1
90
7
70
0
43
0
10
9.404712
20
-0.189422
30
0
10
10.614157
20
-0.213781
30
0
10
10.213079
20
0
30
0
10
9.80786
20
0.197541
30
0
10
10.204796
20
0.411239
30
0
10
10.59694
20
0.640997
30
0
10
9.389457
20
0.567958
30
0
8
gear_texts
0
LWPOLYLINE
5
2037
100
AcDbEntity
100
AcDbPolyline
66
1
90
15
70
0
43
0
10
9.313309
20
-1.321653
30
0
10
9.338034
20
-1.133843
30
0
10
9.358973
20
-0.945572
30
0
10
9.376116
20
-0.756918
30
0
10
9.389457
20
-0.567958
30
0
10
9.791952
20
-0.592304
30
0
10
9.979
20
-0.805588
30
0
10
9.960755
20
-1.006372
30
0
10
9.938469
20
-1.206749
30
0
10
10.111769
20
-1.434963
30
0
10
10.311384
20
-1.46329
30
0
10
10.538904
20
-1.279655
30
0
10
10.562536
20
-1.067173
30
0
10
10.581884
20
-0.854258
30
0
10
10.395693
20
-0.628824
30
0
8
gear_texts
0
LWPOLYLINE
5
2038
100
AcDbEntity
100
AcDbPolyline
66
1
90
2
70
0
43
0
10
9.45085
20
-1.731933
30
0
10
9.252538
20
-1.69559
30
0
8
gear_texts
0
LWPOLYLINE
5
2039
100
AcDbEntity
100
AcDbPolyline
66
1
90
9
70
0
43
0
10
9.228883
20
-2.673179
30
0
10
9.086096
20
-2.434612
30
0
10
9.13328
20
-2.251151
30
0
10
9.373448
20
-2.111075
30
0
10
10.160201
20
-2.288267
30
0
10
10.307819
20
-2.540649
30
0
10
10.254567
20
-2.747703
30
0
10
10.003502
20
-2.89755
30
0
10
9.228883
20
-2.673179
30
0
8
gear_texts
0
LWPOLYLINE
5
2040
100
AcDbEntity
100
AcDbPolyline
66
1
90
15
70
0
43
0
10
8.653896
20
-3.687081
30
0
10
8.726388
20
-3.512069
30
0
10
8.795342
20
-3.335633
30
0
10
8.860728
20
-3.157844
30
0
10
8.922521
20
-2.978775
30
0
10
9.304999
20
-3.106465
30
0
10
9.430472
20
-3.360894
30
0
10
9.360882
20
-3.550114
30
0
10
9.287495
20
-3.737895
30
0
10
9.395823
20
-4.003186
30
0
10
9.581305
20
-4.082212
30
0
10
9.848601
20
-3.963721
30
0
10
9.926422
20
-3.764595
30
0
10
10.000217
20
-3.563943
30
0
10
9.878717
20
-3.298
30
0
8
gear_texts
0
LWPOLYLINE
5
2041
100
AcDbEntity
100
AcDbPolyline
66
1
90
7
70
0
43
0
10
8.613838
20
-6.205467
30
0
10
7.632322
20
-5.498376
30
0
10
7.990385
20
-5.515364
30
0
10
8.352125
20
-5.520092
30
0
10
8.717195
20
-5.51242
30
0
10
9.085239
20
-5.492218
30
0
10
8.050009
20
-4.8664
30
0
8
gear_texts
0
LWPOLYLINE
5
2042
100
AcDbEntity
100
AcDbPolyline
66
1
90
5
70
0
43
0
10
7.506671
20
-6.925091
30
0
10
7.6446
20
-6.772524
30
0
10
7.779428
20
-6.617211
30
0
10
7.911102
20
-6.459215
30
0
10
8.039567
20
-6.298599
30
0
8
gear_texts
0
LWPOLYLINE
5
2043
100
AcDbEntity
100
AcDbPolyline
66
1
90
5
70
0
43
0
10
7.210294
20
-6.651676
30
0
10
7.342778
20
-6.505133
30
0
10
7.472283
20
-6.355952
30
0
10
7.598758
20
-6.204194
30
0
10
7.722151
20
-6.049919
30
0
8
gear_texts
0
LWPOLYLINE
5
2044
100
AcDbEntity
100
AcDbPolyline
66
1
90
3
70
0
43
0
10
7.364301
20
-7.364301
30
0
10
7.354176
20
-7.656508
30
0
10
6.516194
20
-6.784077
30
0
8
gear_texts
0
LWPOLYLINE
5
2045
100
AcDbEntity
100
AcDbPolyline
66
1
90
3
70
0
43
0
10
6.378262
20
-6.913918
30
0
10
6.516194
20
-6.784077
30
0
10
6.651484
20
-6.651484
30
0
8
gear_texts
0
LWPOLYLINE
5
2046
100
AcDbEntity
100
AcDbPolyline
66
1
90
15
70
0
43
0
10
6.205467
20
-8.613838
30
0
10
6.377666
20
-8.487132
30
0
10
6.547278
20
-8.356983
30
0
10
6.714236
20
-8.223446
30
0
10
6.87847
20
-8.086573
30
0
10
6.617211
20
-7.779428
30
0
10
6.459215
20
-7.911102
30
0
10
6.298599
20
-8.039567
30
0
10
6.135428
20
-8.164772
30
0
10
5.851921
20
-8.12308
30
0
10
5.616225
20
-7.795908
30
0
10
5.650954
20
-7.520054
30
0
10
5.80124
20
-7.404735
30
0
10
5.949173
20
-7.286414
30
0
10
6.225323
20
-7.31871
30
0
8
gear_texts
0
LWPOLYLINE
5
2047
100
AcDbEntity
100
AcDbPolyline
66
1
90
10
70
0
43
0
10
4.371474
20
-8.329148
30
0
10
4.202863
20
-8.415487
30
0
10
4.032548
20
-8.498414
30
0
10
3.860597
20
-8.577895
30
0
10
3.766107
20
-8.839378
30
0
10
4.082212
20
-9.581305
30
0
10
4.357069
20
-9.681011
30
0
10
4.551133
20
-9.591309
30
0
10
4.743351
20
-9.497718
30
0
10
4.933645
20
-9.400275
30
0
8
gear_texts
0
LWPOLYLINE
5
2048
100
AcDbEntity
100
AcDbPolyline
66
1
90
2
70
0
43
0
10
4.743351
20
-9.497718
30
0
10
4.202863
20
-8.415487
30
0
8
gear_texts
0
LWPOLYLINE
5
2049
100
AcDbEntity
100
AcDbPolyline
66
1
90
5
70
0
43
0
10
2.841457
20
-9.809848
30
0
10
3.038422
20
-9.75064
30
0
10
3.234155
20
-9.687478
30
0
10
3.428577
20
-9.620387
30
0
10
3.621608
20
-9.549395
30
0
8
gear_texts
0
LWPOLYLINE
5
2050
100
AcDbEntity
100
AcDbPolyline
66
1
90
5
70
0
43
0
10
2.729271
20
-9.422538
30
0
10
2.91846
20
-9.365668
30
0
10
3.106465
20
-9.304999
30
0
10
3.293211
20
-9.240558
30
0
10
3.47862
20
-9.172368
30
0
8
gear_texts
0
LWPOLYLINE
5
2051
100
AcDbEntity
100
AcDbPolyline
66
1
90
13
70
0
43
0
10
2.492399
20
-10.112062
30
0
10
2.332565
20
-10.35689
30
0
10
2.123535
20
-10.401761
30
0
10
1.913643
20
-10.442413
30
0
10
1.670634
20
-10.279827
30
0
10
1.638293
20
-10.080823
30
0
10
1.804617
20
-9.847476
30
0
10
1.57361
20
-9.682814
30
0
10
1.541269
20
-9.48381
30
0
10
1.69559
20
-9.252538
30
0
10
1.881566
20
-9.216518
30
0
10
2.066778
20
-9.17676
30
0
10
2.299401
20
-9.329036
30
0
8
gear_texts
0
LWPOLYLINE
5
2052
100
AcDbEntity
100
AcDbPolyline
66
1
90
2
70
0
43
0
10
2.00255
20
-9.809139
30
0
10
1.804617
20
-9.847476
30
0
8
gear_texts
0
LWPOLYLINE
5
2053
100
AcDbEntity
100
AcDbPolyline
66
1
90
9
70
0
43
0
10
0.580131
20
-9.590704
30
0
10
0.756918
20
-9.376116
30
0
10
0.945572
20
-9.358973
30
0
10
1.158145
20
-9.538179
30
0
10
1.255353
20
-10.338759
30
0
10
1.067173
20
-10.562536
30
0
10
0.854258
20
-10.581884
30
0
10
0.628824
20
-10.395693
30
0
10
0.580131
20
-9.590704
30
0
8
gear_texts
0
LWPOLYLINE
5
2054
100
AcDbEntity
100
AcDbPolyline
66
1
90
2
70
0
43
0
10
0.193482
20
-9.606286
30
0
10
0.189422
20
-9.404712
30
0
8
gear_texts
0
LWPOLYLINE
5
2055
100
AcDbEntity
100
AcDbPolyline
66
1
90
13
70
0
43
0
10
-0.209721
20
-10.412582
30
0
10
-0.427476
20
-10.607699
30
0
10
-0.640997
20
-10.59694
30
0
10
-0.854258
20
-10.581884
30
0
10
-1.046906
20
-10.361942
30
0
10
-1.026639
20
-10.161348
30
0
10
-0.805588
20
-9.979
30
0
10
-0.986106
20
-9.760161
30
0
10
-0.965839
20
-9.559567
30
0
10
-0.756918
20
-9.376116
30
0
10
-0.567958
20
-9.389457
30
0
10
-0.378766
20
-9.39899
30
0
10
-0.193482
20
-9.606286
30
0
8
gear_texts
0
LWPOLYLINE
5
2056
100
AcDbEntity
100
AcDbPolyline
66
1
90
2
70
0
43
0
10
-0.604477
20
-9.993199
30
0
10
-0.805588
20
-9.979
30
0
8
gear_texts
0
LWPOLYLINE
5
2057
100
AcDbEntity
100
AcDbPolyline
66
1
90
2
70
0
43
0
10
-1.321653
20
-9.313309
30
0
10
-1.434963
20
-10.111769
30
0
8
gear_texts
0
LWPOLYLINE
5
2058
100
AcDbEntity
100
AcDbPolyline
66
1
90
6
70
0
43
0
10
-1.406635
20
-9.912154
30
0
10
-1.638293
20
-10.080823
30
0
10
-1.804617
20
-9.847476
30
0
10
-2.042878
20
-10.00668
30
0
10
-2.199671
20
-9.766825
30
0
10
-2.066778
20
-9.17676
30
0
8
gear_texts
0
LWPOLYLINE
5
2059
100
AcDbEntity
100
AcDbPolyline
66
1
90
2
70
0
43
0
10
-1.768275
20
-9.649163
30
0
10
-1.804617
20
-9.847476
30
0
8
gear_texts
0
LWPOLYLINE
5
2060
100
AcDbEntity
100
AcDbPolyline
66
1
90
2
70
0
43
0
10
-2.434612
20
-9.086096
30
0
10
-2.643339
20
-9.865077
30
0
8
gear_texts
0
LWPOLYLINE
5
2061
100
AcDbEntity
100
AcDbPolyline
66
1
90
6
70
0
43
0
10
-2.591158
20
-9.670332
30
0
10
-2.841457
20
-9.809848
30
0
10
-2.978441
20
-9.558154
30
0
10
-3.234155
20
-9.687478
30
0
10
-3.360894
20
-9.430472
30
0
10
-3.157844
20
-8.860728
30
0
8
gear_texts
0
LWPOLYLINE
5
2062
100
AcDbEntity
100
AcDbPolyline
66
1
90
2
70
0
43
0
10
-2.91846
20
-9.365668
30
0
10
-2.978441
20
-9.558154
30
0
8
gear_texts
0
LWPOLYLINE
5
2063
100
AcDbEntity
100
AcDbPolyline
66
1
90
11
70
0
43
0
10
-4.652559
20
-8.864711
30
0
10
-4.830125
20
-8.769225
30
0
10
-5.005732
20
-8.670182
30
0
10
-5.179309
20
-8.567624
30
0
10
-5.458542
20
-8.631993
30
0
10
-5.566298
20
-8.802396
30
0
10
-5.492218
20
-9.085239
30
0
10
-5.308155
20
-9.193994
30
0
10
-5.121938
20
-9.29902
30
0
10
-4.933645
20
-9.400275
30
0
10
-4.371474
20
-8.329148
30
0
8
gear_texts
0
LWPOLYLINE
5
2064
100
AcDbEntity
100
AcDbPolyline
66
1
90
7
70
0
43
0
10
-5.343569
20
-7.741496
30
0
10
-5.57263
20
-8.073348
30
0
10
-5.96977
20
-8.286666
30
0
10
-6.377666
20
-8.487132
30
0
10
-6.298599
20
-8.039567
30
0
10
-6.204194
20
-7.598758
30
0
10
-5.949173
20
-7.286414
30
0
8
gear_texts
0
LWPOLYLINE
5
2065
100
AcDbEntity
100
AcDbPolyline
66
1
90
5
70
0
43
0
10
-5.57263
20
-8.073348
30
0
10
-5.734073
20
-7.959494
30
0
10
-5.893191
20
-7.842413
30
0
10
-6.049919
20
-7.722151
30
0
10
-6.204194
20
-7.598758
30
0
8
gear_texts
0
LWPOLYLINE
5
2066
100
AcDbEntity
100
AcDbPolyline
66
1
90
5
70
0
43
0
10
-7.365698
20
-7.074849
30
0
10
-7.221738
20
-7.221738
30
0
10
-7.074849
20
-7.365698
30
0
10
-6.925091
20
-7.506671
30
0
10
-6.772524
20
-7.6446
30
0
8
gear_texts
0
LWPOLYLINE
5
2067
100
AcDbEntity
100
AcDbPolyline
66
1
90
5
70
0
43
0
10
-7.074887
20
-6.795521
30
0
10
-6.936611
20
-6.936611
30
0
10
-6.795521
20
-7.074887
30
0
10
-6.651676
20
-7.210294
30
0
10
-6.505133
20
-7.342778
30
0
8
gear_texts
0
LWPOLYLINE
5
2068
100
AcDbEntity
100
AcDbPolyline
66
1
90
15
70
0
43
0
10
-7.520054
20
-5.650954
30
0
10
-7.404735
20
-5.80124
30
0
10
-7.286414
20
-5.949173
30
0
10
-7.165138
20
-6.094693
30
0
10
-7.040956
20
-6.237742
30
0
10
-7.342778
20
-6.505133
30
0
10
-7.625856
20
-6.486582
30
0
10
-7.75493
20
-6.331704
30
0
10
-7.880859
20
-6.174259
30
0
10
-8.164772
20
-6.135428
30
0
10
-8.325952
20
-6.256547
30
0
10
-8.356983
20
-6.547278
30
0
10
-8.223446
20
-6.714236
30
0
10
-8.086573
20
-6.87847
30
0
10
-7.795511
20
-6.90622
30
0
8
gear_texts
0
LWPOLYLINE
5
2069
100
AcDbEntity
100
AcDbPolyline
66
1
90
9
70
0
43
0
10
-8.222547
20
-4.970703
30
0
10
-7.950381
20
-5.027516
30
0
10
-7.84753
20
-5.186594
30
0
10
-7.907422
20
-5.458099
30
0
10
-8.571125
20
-5.916221
30
0
10
-8.856721
20
-5.85359
30
0
10
-8.972799
20
-5.674055
30
0
10
-8.9127
20
-5.387915
30
0
10
-8.222547
20
-4.970703
30
0
8
gear_texts
0
ENDSEC
0
SECTION
2
OBJECTS
0
DICTIONARY
5
21D
330
0
100
AcDbDictionary
281
1
3
ACAD_CIP_PREVIOUS_PRODUCT_INFO
350
291
3
ACAD_COLOR
350
273
3
ACAD_DETAILVIEWSTYLE
350
27B
3
ACAD_GROUP
350
21E
3
ACAD_LAYOUT
350
272
3
ACAD_MATERIAL
350
221
3
ACAD_MLEADERSTYLE
350
276
3
ACAD_MLINESTYLE
350
26F
3
ACAD_PLOTSETTINGS
350
271
3
ACAD_PLOTSTYLENAME
350
21F
3
ACAD_SCALELIST
350
253
3
ACAD_SECTIONVIEWSTYLE
350
278
3
ACAD_TABLESTYLE
350
274
3
ACAD_VISUALSTYLE
350
23A
3
ACDB_RECOMPOSE_DATA
350
1057
3
AcDbVariableDictionary
350
29D
0
DICTIONARY
5
297
330
213
100
AcDbDictionary
280
1
281
1
3
ACAD_LAYERSTATES
360
298
0
DICTIONARY
5
292
330
265
100
AcDbDictionary
280
1
281
1
3
ADSK_XREC_LAYER_RECONCILED
360
293
0
XRECORD
5
291
102
{ACAD_REACTORS
330
21D
102
}
330
21D
100
AcDbXrecord
280
1
300
ACDMAC
300
2013
300
ACDMAC_F_S
0
DICTIONARY
5
273
102
{ACAD_REACTORS
330
21D
102
}
330
21D
100
AcDbDictionary
281
1
0
DICTIONARY
5
21E
102
{ACAD_REACTORS
330
21D
102
}
330
21D
100
AcDbDictionary
281
1
0
DICTIONARY
5
272
102
{ACAD_REACTORS
330
21D
102
}
330
21D
100
AcDbDictionary
281
1
3
Layout1
350
280
3
Model
350
284
0
DICTIONARY
5
221
102
{ACAD_REACTORS
330
21D
102
}
330
21D
100
AcDbDictionary
281
1
3
ByBlock
350
22A
3
ByLayer
350
222
3
Global
350
232
0
DICTIONARY
5
276
102
{ACAD_REACTORS
330
21D
102
}
330
21D
100
AcDbDictionary
281
1
3
Standard
350
277
0
DICTIONARY
5
26F
102
{ACAD_REACTORS
330
21D
102
}
330
21D
100
AcDbDictionary
281
1
3
Standard
350
270
0
DICTIONARY
5
271
102
{ACAD_REACTORS
330
21D
102
}
330
21D
100
AcDbDictionary
281
1
0
ACDBDICTIONARYWDFLT
5
21F
102
{ACAD_REACTORS
330
21D
102
}
330
21D
100
AcDbDictionary
281
1
3
Normal
350
220
100
AcDbDictionaryWithDefault
340
220
0
DICTIONARY
5
253
102
{ACAD_REACTORS
330
21D
102
}
330
21D
100
AcDbDictionary
281
1
3
A0
350
254
3
A1
350
255
3
A2
350
256
3
A3
350
257
3
A4
350
258
3
A5
350
259
3
A6
350
25A
3
A7
350
25B
3
A8
350
25C
3
A9
350
25D
3
B0
350
25E
3
B1
350
25F
3
B2
350
260
3
B3
350
261
3
B4
350
262
3
B5
350
263
3
B6
350
264
0
DICTIONARY
5
274
102
{ACAD_REACTORS
330
21D
102
}
330
21D
100
AcDbDictionary
281
1
3
Standard
350
275
0
DICTIONARY
5
23A
102
{ACAD_REACTORS
330
21D
102
}
330
21D
100
AcDbDictionary
281
1
3
2dWireframe
350
240
3
Basic
350
23F
3
Brighten
350
246
3
ColorChange
350
24A
3
Conceptual
350
243
3
Dim
350
245
3
EdgeColorOff
350
252
3
Facepattern
350
249
3
Flat
350
23B
3
FlatWithEdges
350
23C
3
Gouraud
350
23D
3
GouraudWithEdges
350
23E
3
Hidden
350
242
3
JitterOff
350
250
3
Linepattern
350
248
3
OverhangOff
350
251
3
Realistic
350
244
3
Shaded
350
24F
3
Shaded with edges
350
24E
3
Shades of Gray
350
24B
3
Sketchy
350
24C
3
Thicken
350
247
3
Wireframe
350
241
3
X-Ray
350
24D
0
XRECORD
5
1057
102
{ACAD_REACTORS
330
21D
102
}
330
21D
100
AcDbXrecord
280
1
90
1
330
275
0
DICTIONARY
5
29D
102
{ACAD_REACTORS
330
21D
102
}
330
21D
100
AcDbDictionary
281
1
3
CANNOSCALE
350
2A3
3
CMLEADERSTYLE
350
29F
3
CTABLESTYLE
350
29E
3
CVIEWDETAILSTYLE
350
2A0
3
CVIEWSECTIONSTYLE
350
2A1
3
LAYEREVAL
350
2A5
3
LAYERNOTIFY
350
2A6
3
LIGHTINGUNITS
350
2A4
3
MSLTSCALE
350
2A2
0
ENDSEC
0
EOF
