0
SECTION
2
HEADER
9
$ACADVER
1
AC1027
9
$ACADMAINTVER
70
8
9
$DWGCODEPAGE
3
ANSI_1252
9
$LASTSAVEDBY
1
macc
9
$REQUIREDVERSIONS
160
0
9
$INSBASE
10
0.0
20
0.0
30
0.0
9
$EXTMIN
10
1.000000000000000E+20
20
1.000000000000000E+20
30
1.000000000000000E+20
9
$EXTMAX
10
-1.000000000000000E+20
20
-1.000000000000000E+20
30
-1.000000000000000E+20
9
$LIMMIN
10
0.0
20
0.0
9
$LIMMAX
10
12.0
20
9.0
9
$MEASUREMENT
70
1
9
$CELWEIGHT
370
-1
9
$ENDCAPS
280
0
9
$JOINSTYLE
280
0
9
$LWDISPLAY
290
0
9
$INSUNITS
70
0
9
$HYPERLINKBASE
1

9
$STYLESHEET
1

9
$XEDIT
290
1
9
$CEPSNTYPE
380
0
9
$PSTYLEMODE
290
1
9
$EXTNAMES
290
1
9
$PSVPSCALE
40
0.0
9
$OLESTARTUP
290
0
9
$SORTENTS
280
127
9
$INDEXCTL
280
0
9
$HIDETEXT
280
0
9
$XCLIPFRAME
280
2
9
$HALOGAP
280
0
9
$OBSCOLOR
70
257
9
$OBSLTYPE
280
0
9
$INTERSECTIONDISPLAY
280
0
9
$INTERSECTIONCOLOR
70
257
9
$DIMASSOC
280
1
9
$PROJECTNAME
1

9
$CAMERADISPLAY
290
0
9
$LENSLENGTH
40
50.0
9
$CAMERAHEIGHT
40
0.0
9
$STEPSPERSEC
40
2.0
9
$STEPSIZE
40
6.0
9
$3DDWFPREC
40
2.0
9
$PSOLWIDTH
40
0.25
9
$PSOLHEIGHT
40
4.0
9
$LOFTANG1
40
1.570796326794896
9
$LOFTANG2
40
1.570796326794896
9
$LOFTMAG1
40
0.0
9
$LOFTMAG2
40
0.0
9
$LOFTPARAM
70
7
9
$LOFTNORMALS
280
1
9
$LATITUDE
40
37.795
9
$LONGITUDE
40
-122.394
9
$NORTHDIRECTION
40
0.0
9
$TIMEZONE
70
-8000
9
$LIGHTGLYPHDISPLAY
280
1
9
$TILEMODELIGHTSYNCH
280
1
9
$CMATERIAL
347
222
9
$SOLIDHIST
280
0
9
$SHOWHIST
280
1
9
$DWFFRAME
280
2
9
$DGNFRAME
280
0
9
$REALWORLDSCALE
290
1
9
$INTERFERECOLOR
62
1
9
$INTERFEREOBJVS
345
244
9
$INTERFEREVPVS
346
241
9
$CSHADOW
280
0
9
$SHADOWPLANELOCATION
40
0.0
0
ENDSEC
0
SECTION
2
CLASSES
0
CLASS
1
ACDBDICTIONARYWDFLT
2
AcDbDictionaryWithDefault
3
ObjectDBX Classes
90
0
91
1
280
0
281
0
0
CLASS
1
MATERIAL
2
AcDbMaterial
3
ObjectDBX Classes
90
1153
91
3
280
0
281
0
0
CLASS
1
VISUALSTYLE
2
AcDbVisualStyle
3
ObjectDBX Classes
90
4095
91
24
280
0
281
0
0
CLASS
1
SCALE
2
AcDbScale
3
ObjectDBX Classes
90
1153
91
17
280
0
281
0
0
CLASS
1
TABLESTYLE
2
AcDbTableStyle
3
ObjectDBX Classes
90
4095
91
1
280
0
281
0
0
CLASS
1
MLEADERSTYLE
2
AcDbMLeaderStyle
3
ACDB_MLEADERSTYLE_CLASS
90
4095
91
1
280
0
281
0
0
CLASS
1
ACDBSECTIONVIEWSTYLE
2
AcDbSectionViewStyle
3
ObjectDBX Classes
90
1025
91
1
280
0
281
0
0
CLASS
1
ACDBDETAILVIEWSTYLE
2
AcDbDetailViewStyle
3
ObjectDBX Classes
90
1025
91
1
280
0
281
0
0
CLASS
1
DICTIONARYVAR
2
AcDbDictionaryVar
3
ObjectDBX Classes
90
0
91
9
280
0
281
0
0
CLASS
1
CELLSTYLEMAP
2
AcDbCellStyleMap
3
ObjectDBX Classes
90
1152
91
2
280
0
281
0
0
ENDSEC
0
SECTION
2
TABLES
0
TABLE
2
VPORT
5
219
330
0
100
AcDbSymbolTable
70
1
0
VPORT
5
285
330
219
100
AcDbSymbolTableRecord
100
AcDbViewportTableRecord
2
*ACTIVE
70
0
10
0.0
20
0.0
11
1.0
21
1.0
12
60.85393284500712
22
1.602311788490737
13
0.0
23
0.0
14
0.5
24
0.5
15
0.5
25
0.5
16
0.0
26
0.0
36
1.0
17
0.0
27
0.0
37
0.0
40
135.7601553851812
41
1.367970660146699
42
50.0
43
0.0
44
0.0
50
0.0
51
0.0
71
0
72
1000
73
1
74
3
75
0
76
1
77
0
78
0
281
0
65
1
110
0.0
120
0.0
130
0.0
111
1.0
121
0.0
131
0.0
112
0.0
122
1.0
132
0.0
79
0
146
0.0
348
240
60
3
61
5
292
1
282
0
141
0.0
142
0.0
63
250
421
3355443
1001
ACAD_NAV_VCDISPLAY
1070
3
0
ENDTAB
0
TABLE
2
LTYPE
5
216
330
0
100
AcDbSymbolTable
70
2
0
LTYPE
5
26B
330
216
100
AcDbSymbolTableRecord
100
AcDbLinetypeTableRecord
2
ByBlock
70
0
3

72
65
73
0
40
0.0
0
LTYPE
5
26C
330
216
100
AcDbSymbolTableRecord
100
AcDbLinetypeTableRecord
2
ByLayer
70
0
3

72
65
73
0
40
0.0
0
LTYPE
5
26D
330
216
100
AcDbSymbolTableRecord
100
AcDbLinetypeTableRecord
2
CONTINUOUS
70
0
3
Solid line
72
65
73
0
40
0.0
0
LTYPE
5
103D
330
216
100
AcDbSymbolTableRecord
100
AcDbLinetypeTableRecord
2
DOTTED
70
0
3
Dotted . . . . . . . . . . . . . . . . . . . .
72
65
73
2
40
3.0
49
0.0
74
0
49
-3.0
74
0
0
ENDTAB
0
TABLE
2
LAYER
5
213
102
{ACAD_XDICTIONARY
360
297
102
}
330
0
100
AcDbSymbolTable
70
4
0
LAYER
5
265
102
{ACAD_XDICTIONARY
360
292
102
}
330
213
100
AcDbSymbolTableRecord
100
AcDbLayerTableRecord
2
0
70
0
62
7
6
CONTINUOUS
370
-3
390
220
347
232
348
0
0
LAYER
5
1900
330
213
100
AcDbSymbolTableRecord
100
AcDbLayerTableRecord
2
gear
70
0
62
7
6
CONTINUOUS
370
-3
390
220
347
232
348
0
1001
AcAecLayerStandard
1000

1000

1001
AcCmTransparency
1071
0
0
LAYER
5
1901
330
213
100
AcDbSymbolTableRecord
100
AcDbLayerTableRecord
2
gear_guides
70
0
62
5
6
CONTINUOUS
370
-3
390
220
347
232
348
0
1001
AcAecLayerStandard
1000

1000

1001
AcCmTransparency
1071
0
0
LAYER
5
1902
330
213
100
AcDbSymbolTableRecord
100
AcDbLayerTableRecord
2
gear_texts
70
0
62
7
6
CONTINUOUS
370
-3
390
220
347
232
348
0
1001
AcAecLayerStandard
1000

1000

1001
AcCmTransparency
1071
0
0
ENDTAB
0
TABLE
2
STYLE
5
214
330
0
100
AcDbSymbolTable
70
3
0
STYLE
5
266
330
214
100
AcDbSymbolTableRecord
100
AcDbTextStyleTableRecord
2
STANDARD
70
0
40
0.0
41
1.0
50
0.0
71
0
42
0.2
3
txt
4

0
STYLE
5
26A
330
214
100
AcDbSymbolTableRecord
100
AcDbTextStyleTableRecord
2
ANNOTATIVE
70
0
40
0.0
41
1.0
50
0.0
71
0
42
0.2
3
txt
4

1001
ACADANNOTATIVE
1000
AnnotativeData
1002
{
1070
1
1070
1
1002
}
0
STYLE
5
301
330
214
100
AcDbSymbolTableRecord
100
AcDbTextStyleTableRecord
2

70
1
40
0.0
41
1.0
50
0.0
71
0
42
0.2
3
ltypeshp.shx
4

0
ENDTAB
0
TABLE
2
VIEW
5
217
330
0
100
AcDbSymbolTable
70
1
0
ENDTAB
0
TABLE
2
UCS
5
218
330
0
100
AcDbSymbolTable
70
0
0
ENDTAB
0
TABLE
2
APPID
5
21A
330
0
100
AcDbSymbolTable
70
10
0
APPID
5
267
330
21A
100
AcDbSymbolTableRecord
100
AcDbRegAppTableRecord
2
ACAD
70
0
0
APPID
5
26E
330
21A
100
AcDbSymbolTableRecord
100
AcDbRegAppTableRecord
2
ACADANNOTATIVE
70
0
0
APPID
5
286
330
21A
100
AcDbSymbolTableRecord
100
AcDbRegAppTableRecord
2
ACADANNOPO
70
0
0
APPID
5
287
330
21A
100
AcDbSymbolTableRecord
100
AcDbRegAppTableRecord
2
ACAD_DSTYLE_DIMJAG
70
0
0
APPID
5
288
330
21A
100
AcDbSymbolTableRecord
100
AcDbRegAppTableRecord
2
ACAD_DSTYLE_DIMTALN
70
0
0
APPID
5
289
330
21A
100
AcDbSymbolTableRecord
100
AcDbRegAppTableRecord
2
ACAD_MLEADERVER
70
0
0
APPID
5
28A
330
21A
100
AcDbSymbolTableRecord
100
AcDbRegAppTableRecord
2
ACAD_NAV_VCDISPLAY
70
0
0
APPID
5
2E7
330
21A
100
AcDbSymbolTableRecord
100
AcDbRegAppTableRecord
2
ACAD_EXEMPT_FROM_CAD_STANDARDS
70
0
0
APPID
5
2FC
330
21A
100
AcDbSymbolTableRecord
100
AcDbRegAppTableRecord
2
AcAecLayerStandard
70
0
0
APPID
5
2FD
330
21A
100
AcDbSymbolTableRecord
100
AcDbRegAppTableRecord
2
AcCmTransparency
70
0
0
ENDTAB
0
TABLE
2
DIMSTYLE
5
21B
330
0
100
AcDbSymbolTable
70
2
100
AcDbDimStyleTable
71
1
340
268
0
DIMSTYLE
105
268
330
21B
100
AcDbSymbolTableRecord
100
AcDbDimStyleTableRecord
2
STANDARD
70
0
279
2
340
266
0
DIMSTYLE
105
269
330
21B
100
AcDbSymbolTableRecord
100
AcDbDimStyleTableRecord
2
ANNOTATIVE
70
0
40
0.0
279
2
340
266
1001
ACADANNOTATIVE
1000
AnnotativeData
1002
{
1070
1
1070
1
1002
}
0
ENDTAB
0
TABLE
2
BLOCK_RECORD
5
212
330
0
100
AcDbSymbolTable
70
2
0
BLOCK_RECORD
5
281
330
212
100
AcDbSymbolTableRecord
100
AcDbBlockTableRecord
2
*Model_Space
340
284
70
0
280
1
281
0
0
BLOCK_RECORD
5
27D
330
212
100
AcDbSymbolTableRecord
100
AcDbBlockTableRecord
2
*Paper_Space
340
280
70
0
280
1
281
0
0
BLOCK_RECORD
5
28C
330
212
100
AcDbSymbolTableRecord
100
AcDbBlockTableRecord
2
$MODEL_SPACE
340
0
70
0
280
1
281
0
0
BLOCK_RECORD
5
28E
330
212
100
AcDbSymbolTableRecord
100
AcDbBlockTableRecord
2
$PAPER_SPACE
340
0
70
0
280
1
281
0
0
ENDTAB
0
ENDSEC
0
SECTION
2
BLOCKS
0
BLOCK
5
282
330
281
100
AcDbEntity
8
0
100
AcDbBlockBegin
2
*Model_Space
70
0
10
0.0
20
0.0
30
0.0
3
*Model_Space
1

0
ENDBLK
5
283
330
281
100
AcDbEntity
8
0
100
AcDbBlockEnd
0
BLOCK
5
27E
330
27D
100
AcDbEntity
67
1
8
0
100
AcDbBlockBegin
2
*Paper_Space
70
0
10
0.0
20
0.0
30
0.0
3
*Paper_Space
1

0
ENDBLK
5
27F
330
27D
100
AcDbEntity
67
1
8
0
100
AcDbBlockEnd
0
BLOCK
5
28D
330
28C
100
AcDbEntity
8
0
100
AcDbBlockBegin
2
$MODEL_SPACE
70
0
10
0.0
20
0.0
30
0.0
3
$MODEL_SPACE
1

0
ENDBLK
5
21
330
28C
100
AcDbEntity
8
0
100
AcDbBlockEnd
0
BLOCK
5
28F
330
28E
100
AcDbEntity
8
0
100
AcDbBlockBegin
2
$PAPER_SPACE
70
0
10
0.0
20
0.0
30
0.0
3
$PAPER_SPACE
1

0
ENDBLK
5
5B
330
28E
100
AcDbEntity
8
0
100
AcDbBlockEnd
0
ENDSEC
0
SECTION
2
ENTITIES
0
LWPOLYLINE
5
2000
100
AcDbEntity
100
AcDbPolyline
66
1
90
1104
70
1
43
0
10
20.907
20
0
30
0
10
21.832384
20
0.000039
30
0
10
21.85399
20
0.000795
30
0
10
21.895635
20
0.003472
30
0
10
21.957203
20
0.009287
30
0
10
22.038524
20
0.019448
30
0
10
22.139372
20
0.035159
30
0
10
22.259466
20
0.05761
30
0
10
22.398474
20
0.087982
30
0
10
22.556005
20
0.127438
30
0
10
22.73162
20
0.177127
30
0
10
22.924824
20
0.238178
30
0
10
23.135071
20
0.311699
30
0
10
23.361766
20
0.398773
30
0
10
23.604261
20
0.500461
30
0
10
23.861863
20
0.617795
30
0
10
24.133827
20
0.751777
30
0
10
24.419364
20
0.903379
30
0
10
24.717638
20
1.07354
30
0
10
25.02777
20
1.263164
30
0
10
25.186996
20
1.365547
30
0
10
25.207086
20
1.378707
30
0
10
25.212115
20
1.38201
30
0
10
25.21213
20
1.382389
30
0
10
25.10081
20
2.740776
30
0
10
25.100733
20
2.741148
30
0
10
25.095233
20
2.743588
30
0
10
25.073269
20
2.753302
30
0
10
24.899499
20
2.828395
30
0
10
24.562632
20
2.964997
30
0
10
24.240634
20
3.084327
30
0
10
23.934225
20
3.187419
30
0
10
23.644076
20
3.275336
30
0
10
23.370809
20
3.349164
30
0
10
23.114993
20
3.410015
30
0
10
22.877147
20
3.459021
30
0
10
22.657735
20
3.49733
30
0
10
22.457169
20
3.526111
30
0
10
22.275808
20
3.546546
30
0
10
22.113954
20
3.559829
30
0
10
21.971857
20
3.567164
30
0
10
21.849709
20
3.569764
30
0
10
21.747649
20
3.568846
30
0
10
21.665759
20
3.565632
30
0
10
21.604066
20
3.561345
30
0
10
21.562541
20
3.557207
30
0
10
21.5411
20
3.554435
30
0
10
20.628056
20
3.403814
30
0
10
20.131712
20
5.640641
30
0
10
21.02277
20
5.890344
30
0
10
21.043371
20
5.896901
30
0
10
21.082749
20
5.910715
30
0
10
21.140465
20
5.932925
30
0
10
21.216028
20
5.964649
30
0
10
21.308898
20
6.006986
30
0
10
21.418482
20
6.061006
30
0
10
21.54414
20
6.127755
30
0
10
21.685185
20
6.20825
30
0
10
21.840881
20
6.303477
30
0
10
22.010449
20
6.414389
30
0
10
22.193065
20
6.541907
30
0
10
22.38786
20
6.686914
30
0
10
22.593929
20
6.850256
30
0
10
22.810321
20
7.032739
30
0
10
23.036052
20
7.235127
30
0
10
23.270099
20
7.458145
30
0
10
23.511403
20
7.702469
30
0
10
23.758875
20
7.968734
30
0
10
23.884574
20
8.110279
30
0
10
23.900368
20
8.128371
30
0
10
23.904319
20
8.132908
30
0
10
23.904232
20
8.133278
30
0
10
23.430551
20
9.411258
30
0
10
23.430377
20
9.411595
30
0
10
23.424423
20
9.412461
30
0
10
23.400653
20
9.415889
30
0
10
23.213066
20
9.441315
30
0
10
22.851837
20
9.481966
30
0
10
22.509584
20
9.509996
30
0
10
22.186724
20
9.526597
30
0
10
21.883615
20
9.532973
30
0
10
21.600562
20
9.530337
30
0
10
21.337815
20
9.519913
30
0
10
21.095568
20
9.502931
30
0
10
20.873956
20
9.480623
30
0
10
20.673063
20
9.454225
30
0
10
20.492914
20
9.424972
30
0
10
20.333479
20
9.394094
30
0
10
20.194672
20
9.36282
30
0
10
20.076352
20
9.332368
30
0
10
19.978324
20
9.303949
30
0
10
19.900338
20
9.278761
30
0
10
19.842089
20
9.257988
30
0
10
19.803221
20
9.2428
30
0
10
19.783322
20
9.234346
30
0
10
18.944774
20
8.842974
30
0
10
17.863346
20
10.862942
30
0
10
18.653993
20
11.343789
30
0
10
18.67206
20
11.355662
30
0
10
18.706251
20
11.379587
30
0
10
18.755835
20
11.416545
30
0
10
18.820037
20
11.46748
30
0
10
18.898041
20
11.533302
30
0
10
18.988987
20
11.614885
30
0
10
19.091977
20
11.713061
30
0
10
19.206074
20
11.828624
30
0
10
19.330305
20
11.962326
30
0
10
19.46366
20
12.114875
30
0
10
19.6051
20
12.286933
30
0
10
19.75355
20
12.479118
30
0
10
19.907907
20
12.691999
30
0
10
20.067042
20
12.926097
30
0
10
20.229799
20
13.181882
30
0
10
20.394997
20
13.459774
30
0
10
20.561435
20
13.760142
30
0
10
20.727893
20
14.083299
30
0
10
20.810742
20
14.253509
30
0
10
20.821069
20
14.275191
30
0
10
20.82365
20
14.280626
30
0
10
20.823466
20
14.280958
30
0
10
20.022556
20
15.38375
30
0
10
20.022297
20
15.384028
30
0
10
20.01633
20
15.383255
30
0
10
19.992516
20
15.380143
30
0
10
19.805026
20
15.354016
30
0
10
19.446225
20
15.2957
30
0
10
19.109102
20
15.230353
30
0
10
18.793735
20
15.159232
30
0
10
18.500146
20
15.083593
30
0
10
18.228301
20
15.004688
30
0
10
17.978109
20
14.923763
30
0
10
17.749427
20
14.842053
30
0
10
17.542052
20
14.760782
30
0
10
17.35573
20
14.681163
30
0
10
17.190154
20
14.60439
30
0
10
17.044962
20
14.531643
30
0
10
16.91974
20
14.464078
30
0
10
16.814024
20
14.402834
30
0
10
16.727299
20
14.349021
30
0
10
16.659
20
14.303726
30
0
10
16.608515
20
14.268008
30
0
10
16.575186
20
14.242897
30
0
10
16.558306
20
14.229388
30
0
10
15.856444
20
13.626292
30
0
10
14.270139
20
15.279588
30
0
10
14.901734
20
15.955918
30
0
10
14.915929
20
15.972225
30
0
10
14.942397
20
16.004488
30
0
10
14.980171
20
16.053452
30
0
10
15.02825
20
16.11982
30
0
10
15.085602
20
16.204247
30
0
10
15.151165
20
16.307341
30
0
10
15.223848
20
16.429662
30
0
10
15.302536
20
16.571723
30
0
10
15.386087
20
16.733984
30
0
10
15.473341
20
16.916855
30
0
10
15.563115
20
17.120693
30
0
10
15.654209
20
17.345802
30
0
10
15.745408
20
17.592434
30
0
10
15.835483
20
17.860785
30
0
10
15.923194
20
18.150996
30
0
10
16.007291
20
18.463153
30
0
10
16.08652
20
18.797287
30
0
10
16.159617
20
19.153371
30
0
10
16.193473
20
19.339621
30
0
10
16.197567
20
19.363286
30
0
10
16.198586
20
19.369215
30
0
10
16.198319
20
19.369486
30
0
10
15.129579
20
20.215299
30
0
10
15.129255
20
20.215497
30
0
10
15.123718
20
20.213143
30
0
10
15.101627
20
20.203722
30
0
10
14.928138
20
20.127979
30
0
10
14.598375
20
19.975023
30
0
10
14.291384
20
19.821144
30
0
10
14.0069
20
19.667575
30
0
10
13.744606
20
19.515532
30
0
10
13.504129
20
19.36621
30
0
10
13.285049
20
19.220785
30
0
10
13.086892
20
19.080407
30
0
10
12.909134
20
18.946201
30
0
10
12.751202
20
18.819265
30
0
10
12.612479
20
18.700668
30
0
10
12.492298
20
18.591446
30
0
10
12.389948
20
18.492602
30
0
10
12.304676
20
18.405107
30
0
10
12.235686
20
18.329891
30
0
10
12.18214
20
18.267849
30
0
10
12.143164
20
18.219836
30
0
10
12.117846
20
18.186663
30
0
10
12.105236
20
18.169101
30
0
10
11.592115
20
17.399009
30
0
10
9.61858
20
18.563016
30
0
10
10.044282
20
19.384669
30
0
10
10.053551
20
19.404201
30
0
10
10.070333
20
19.442408
30
0
10
10.093496
20
19.499749
30
0
10
10.121887
20
19.576627
30
0
10
10.154334
20
19.673396
30
0
10
10.189651
20
19.790356
30
0
10
10.226637
20
19.927751
30
0
10
10.264079
20
20.085774
30
0
10
10.300755
20
20.264559
30
0
10
10.335435
20
20.464189
30
0
10
10.366885
20
20.684689
30
0
10
10.393867
20
20.926028
30
0
10
10.415143
20
21.188119
30
0
10
10.429478
20
21.470821
30
0
10
10.435638
20
21.773934
30
0
10
10.432398
20
22.097205
30
0
10
10.41854
20
22.440324
30
0
10
10.392857
20
22.802925
30
0
10
10.375208
20
22.991402
30
0
10
10.372765
20
23.015294
30
0
10
10.372146
20
23.021278
30
0
10
10.371816
20
23.021467
30
0
10
9.114511
20
23.547573
30
0
10
9.114145
20
23.547676
30
0
10
9.109449
20
23.543916
30
0
10
9.090719
20
23.528883
30
0
10
8.944099
20
23.409143
30
0
10
8.667831
20
23.17289
30
0
10
8.41374
20
22.941892
30
0
10
8.181238
20
22.717265
30
0
10
7.969691
20
22.500093
30
0
10
7.778419
20
22.291429
30
0
10
7.606698
20
22.09229
30
0
10
7.453762
20
21.903655
30
0
10
7.318804
20
21.726467
30
0
10
7.200976
20
21.561629
30
0
10
7.099394
20
21.410003
30
0
10
7.013138
20
21.272406
30
0
10
6.941251
20
21.149615
30
0
10
6.882747
20
21.042357
30
0
10
6.836608
20
20.951317
30
0
10
6.801786
20
20.87713
30
0
10
6.77721
20
20.820381
30
0
10
6.76178
20
20.781608
30
0
10
6.754376
20
20.761296
30
0
10
6.468051
20
19.881322
30
0
10
4.253655
20
20.469711
30
0
10
4.441892
20
21.375748
30
0
10
4.445548
20
21.397056
30
0
10
4.451399
20
21.438374
30
0
10
4.458233
20
21.499838
30
0
10
4.464829
20
21.581525
30
0
10
4.469965
20
21.68346
30
0
10
4.472417
20
21.80561
30
0
10
4.470963
20
21.94789
30
0
10
4.464382
20
22.110154
30
0
10
4.451462
20
22.292205
30
0
10
4.430997
20
22.493789
30
0
10
4.40179
20
22.714597
30
0
10
4.362659
20
22.954266
30
0
10
4.312436
20
23.212378
30
0
10
4.249967
20
23.488464
30
0
10
4.17412
20
23.781999
30
0
10
4.083782
20
24.092408
30
0
10
3.977866
20
24.419064
30
0
10
3.855307
20
24.76129
30
0
10
3.787461
20
24.938016
30
0
10
3.778663
20
24.960363
30
0
10
3.776452
20
24.965959
30
0
10
3.776084
20
24.966051
30
0
10
2.423461
20
25.133431
30
0
10
2.423081
20
25.133431
30
0
10
2.419573
20
25.128543
30
0
10
2.405594
20
25.109015
30
0
10
2.296716
20
24.954157
30
0
10
2.094434
20
24.652129
30
0
10
1.912088
20
24.361144
30
0
10
1.748811
20
24.082118
30
0
10
1.603701
20
23.815926
30
0
10
1.475818
20
23.563395
30
0
10
1.364193
20
23.32531
30
0
10
1.267821
20
23.102409
30
0
10
1.185672
20
22.89538
30
0
10
1.116687
20
22.704866
30
0
10
1.05978
20
22.531455
30
0
10
1.013845
20
22.375689
30
0
10
0.977753
20
22.238057
30
0
10
0.950356
20
22.118993
30
0
10
0.93049
20
22.01888
30
0
10
0.916975
20
21.938049
30
0
10
0.908621
20
21.876774
30
0
10
0.904224
20
21.835276
30
0
10
0.902575
20
21.813719
30
0
10
0.864282
20
20.889128
30
0
10
-1.426744
20
20.858261
30
0
10
-1.489933
20
21.781485
30
0
10
-1.492162
20
21.802989
30
0
10
-1.497675
20
21.844354
30
0
10
-1.507678
20
21.905382
30
0
10
-1.523365
20
21.98582
30
0
10
-1.545921
20
22.08536
30
0
10
-1.576516
20
22.203643
30
0
10
-1.616303
20
22.340254
30
0
10
-1.666417
20
22.494725
30
0
10
-1.727975
20
22.66654
30
0
10
-1.802068
20
22.855127
30
0
10
-1.889765
20
23.059867
30
0
10
-1.992107
20
23.280091
30
0
10
-2.110106
20
23.515082
30
0
10
-2.244745
20
23.764075
30
0
10
-2.396975
20
24.026262
30
0
10
-2.567709
20
24.300788
30
0
10
-2.757829
20
24.586754
30
0
10
-2.968175
20
24.883223
30
0
10
-3.081185
20
25.035091
30
0
10
-3.095685
20
25.054236
30
0
10
-3.099324
20
25.059028
30
0
10
-3.099703
20
25.059017
30
0
10
-4.447326
20
24.855257
30
0
10
-4.447692
20
24.855155
30
0
10
-4.449751
20
24.849502
30
0
10
-4.457944
20
24.826926
30
0
10
-4.521003
20
24.648436
30
0
10
-4.634298
20
24.303033
30
0
10
-4.731376
20
23.973642
30
0
10
-4.813317
20
23.660912
30
0
10
-4.881229
20
23.36544
30
0
10
-4.936237
20
23.087771
30
0
10
-4.979489
20
22.828399
30
0
10
-5.012148
20
22.587763
30
0
10
-5.035396
20
22.366248
30
0
10
-5.050423
20
22.164186
30
0
10
-5.058433
20
21.981853
30
0
10
-5.06064
20
21.81947
30
0
10
-5.058261
20
21.677204
30
0
10
-5.052519
20
21.555163
30
0
10
-5.044638
20
21.453404
30
0
10
-5.035843
20
21.371924
30
0
10
-5.027356
20
21.310667
30
0
10
-5.020394
20
21.269521
30
0
10
-5.016166
20
21.248319
30
0
10
-4.803587
20
20.347683
30
0
10
-7.001328
20
19.699849
30
0
10
-7.311257
20
20.571789
30
0
10
-7.319205
20
20.591895
30
0
10
-7.335674
20
20.630239
30
0
10
-7.36177
20
20.686305
30
0
10
-7.398577
20
20.759527
30
0
10
-7.447153
20
20.849291
30
0
10
-7.508525
20
20.954933
30
0
10
-7.583694
20
21.075743
30
0
10
-7.673626
20
21.210966
30
0
10
-7.779256
20
21.359801
30
0
10
-7.901482
20
21.521404
30
0
10
-8.041165
20
21.694892
30
0
10
-8.199127
20
21.879338
30
0
10
-8.376151
20
22.073779
30
0
10
-8.572975
20
22.277214
30
0
10
-8.790296
20
22.488607
30
0
10
-9.028766
20
22.706889
30
0
10
-9.288988
20
22.930957
30
0
10
-9.57152
20
23.159682
30
0
10
-9.721313
20
23.275429
30
0
10
-9.740441
20
23.289951
30
0
10
-9.745237
20
23.293584
30
0
10
-9.7456
20
23.293471
30
0
10
-10.988275
20
22.733682
30
0
10
-10.9886
20
22.733485
30
0
10
-10.989057
20
22.727486
30
0
10
-10.990855
20
22.703537
30
0
10
-11.003421
20
22.514653
30
0
10
-11.019326
20
22.151491
30
0
10
-11.023935
20
21.808124
30
0
10
-11.018464
20
21.484883
30
0
10
-11.00414
20
21.182046
30
0
10
-10.982194
20
20.899833
30
0
10
-10.953864
20
20.63841
30
0
10
-10.92039
20
20.397886
30
0
10
-10.883011
20
20.178314
30
0
10
-10.842965
20
19.97969
30
0
10
-10.801486
20
19.801957
30
0
10
-10.7598
20
19.645001
30
0
10
-10.719126
20
19.508652
30
0
10
-10.680671
20
19.392686
30
0
10
-10.645628
20
19.296826
30
0
10
-10.615177
20
19.220741
30
0
10
-10.590478
20
19.164045
30
0
10
-10.572672
20
19.126304
30
0
10
-10.562881
20
19.107029
30
0
10
-10.115196
20
18.297143
30
0
10
-12.056655
20
17.08039
30
0
10
-12.590338
20
17.836378
30
0
10
-12.603416
20
17.853594
30
0
10
-12.629619
20
17.886072
30
0
10
-12.669874
20
17.933018
30
0
10
-12.725072
20
17.993595
30
0
10
-12.796064
20
18.066925
30
0
10
-12.883662
20
18.152091
30
0
10
-12.988637
20
18.248141
30
0
10
-13.111718
20
18.354086
30
0
10
-13.253586
20
18.468903
30
0
10
-13.414879
20
18.591538
30
0
10
-13.596189
20
18.720906
30
0
10
-13.798056
20
18.855895
30
0
10
-14.020975
20
18.995365
30
0
10
-14.265386
20
19.138153
30
0
10
-14.531682
20
19.283075
30
0
10
-14.8202
20
19.428924
30
0
10
-15.131225
20
19.574476
30
0
10
-15.464989
20
19.718493
30
0
10
-15.640456
20
19.789534
30
0
10
-15.662793
20
19.798357
30
0
10
-15.668391
20
19.800561
30
0
10
-15.66871
20
19.800354
30
0
10
-16.714274
20
18.926055
30
0
10
-16.714534
20
18.925777
30
0
10
-16.713356
20
18.919877
30
0
10
-16.708626
20
18.896331
30
0
10
-16.669765
20
18.711061
30
0
10
-16.5871
20
18.357076
30
0
10
-16.498899
20
18.025198
30
0
10
-16.406422
20
17.71542
30
0
10
-16.310924
20
17.427677
30
0
10
-16.213652
20
17.16185
30
0
10
-16.115842
20
16.917765
30
0
10
-16.018716
20
16.695191
30
0
10
-15.923483
20
16.493846
30
0
10
-15.831334
20
16.313392
30
0
10
-15.743442
20
16.153441
30
0
10
-15.660955
20
16.013552
30
0
10
-15.585003
20
15.893232
30
0
10
-15.516687
20
15.791942
30
0
10
-15.457081
20
15.709092
30
0
10
-15.407231
20
15.644043
30
0
10
-15.368152
20
15.596114
30
0
10
-15.340824
20
15.564576
30
0
10
-15.326195
20
15.548657
30
0
10
-14.676608
20
14.889588
30
0
10
-16.217796
20
13.194156
30
0
10
-16.935651
20
13.778124
30
0
10
-16.952889
20
13.791173
30
0
10
-16.986883
20
13.815378
30
0
10
-17.038311
20
13.849722
30
0
10
-17.107805
20
13.893161
30
0
10
-17.195949
20
13.944617
30
0
10
-17.303276
20
14.002992
30
0
10
-17.430273
20
14.067158
30
0
10
-17.577373
20
14.135968
30
0
10
-17.744957
20
14.208251
30
0
10
-17.933356
20
14.282822
30
0
10
-18.142845
20
14.358476
30
0
10
-18.373646
20
14.433996
30
0
10
-18.625927
20
14.508152
30
0
10
-18.899799
20
14.579704
30
0
10
-19.195319
20
14.647405
30
0
10
-19.512488
20
14.710005
30
0
10
-19.851249
20
14.766246
30
0
10
-20.211491
20
14.814873
30
0
10
-20.399617
20
14.83594
30
0
10
-20.423507
20
14.838409
30
0
10
-20.429492
20
14.839021
30
0
10
-20.429743
20
14.838736
30
0
10
-21.200652
20
13.714768
30
0
10
-21.200827
20
13.714431
30
0
10
-21.198101
20
13.709067
30
0
10
-21.187194
20
13.687671
30
0
10
-21.099788
20
13.519755
30
0
10
-20.924685
20
13.201199
30
0
10
-20.750215
20
12.905425
30
0
10
-20.57759
20
12.632084
30
0
10
-20.408002
20
12.380777
30
0
10
-20.242618
20
12.151051
30
0
10
-20.082581
20
11.942406
30
0
10
-19.929007
20
11.75429
30
0
10
-19.782984
20
11.586105
30
0
10
-19.645566
20
11.437204
30
0
10
-19.517778
20
11.306898
30
0
10
-19.400609
20
11.19445
30
0
10
-19.295012
20
11.099085
30
0
10
-19.201901
20
11.019982
30
0
10
-19.122153
20
10.956285
30
0
10
-19.056601
20
10.907098
30
0
10
-19.00604
20
10.87149
30
0
10
-18.971217
20
10.848494
30
0
10
-18.952836
20
10.837113
30
0
10
-18.149522
20
10.377741
30
0
10
-19.176137
20
8.329372
30
0
10
-20.024925
20
8.69801
30
0
10
-20.045044
20
8.705925
30
0
10
-20.084307
20
8.72006
30
0
10
-20.143095
20
8.739256
30
0
10
-20.221731
20
8.762334
30
0
10
-20.320489
20
8.788102
30
0
10
-20.439586
20
8.815355
30
0
10
-20.579185
20
8.842878
30
0
10
-20.739394
20
8.869449
30
0
10
-20.920266
20
8.893839
30
0
10
-21.121798
20
8.914815
30
0
10
-21.34393
20
8.931144
30
0
10
-21.586547
20
8.941594
30
0
10
-21.849479
20
8.944935
30
0
10
-22.1325
20
8.939944
30
0
10
-22.435327
20
8.925405
30
0
10
-22.757623
20
8.900112
30
0
10
-23.098996
20
8.862871
30
0
10
-23.458999
20
8.812503
30
0
10
-23.645833
20
8.782032
30
0
10
-23.669503
20
8.777965
30
0
10
-23.675431
20
8.776939
30
0
10
-23.675596
20
8.776597
30
0
10
-24.114674
20
7.48632
30
0
10
-24.114752
20
7.485948
30
0
10
-24.11068
20
7.481519
30
0
10
-24.094404
20
7.463858
30
0
10
-23.964937
20
7.325751
30
0
10
-23.710382
20
7.066251
30
0
10
-23.462583
20
6.828516
30
0
10
-23.222613
20
6.611885
30
0
10
-22.991511
20
6.415651
30
0
10
-22.770281
20
6.239064
30
0
10
-22.559887
20
6.081334
30
0
10
-22.361255
20
5.941627
30
0
10
-22.175271
20
5.819076
30
0
10
-22.002776
20
5.712771
30
0
10
-21.844571
20
5.621774
30
0
10
-21.701409
20
5.545108
30
0
10
-21.573998
20
5.481769
30
0
10
-21.462998
20
5.430721
30
0
10
-21.369022
20
5.390901
30
0
10
-21.292631
20
5.361224
30
0
10
-21.234337
20
5.340577
30
0
10
-21.194601
20
5.32783
30
0
10
-21.173831
20
5.32183
30
0
10
-20.276369
20
5.096223
30
0
10
-20.712271
20
2.846836
30
0
10
-21.629041
20
2.972804
30
0
10
-21.650549
20
2.974997
30
0
10
-21.692171
20
2.978015
30
0
10
-21.753957
20
2.980639
30
0
10
-21.835904
20
2.981645
30
0
10
-21.937952
20
2.979813
30
0
10
-22.059985
20
2.973923
30
0
10
-22.201833
20
2.962763
30
0
10
-22.36327
20
2.945124
30
0
10
-22.544015
20
2.919811
30
0
10
-22.743732
20
2.885637
30
0
10
-22.962033
20
2.84143
30
0
10
-23.198473
20
2.786035
30
0
10
-23.452556
20
2.718314
30
0
10
-23.723735
20
2.637149
30
0
10
-24.01141
20
2.541448
30
0
10
-24.31493
20
2.430138
30
0
10
-24.633597
20
2.302177
30
0
10
-24.966661
20
2.156549
30
0
10
-25.138345
20
2.076801
30
0
10
-25.16004
20
2.066499
30
0
10
-25.165471
20
2.063911
30
0
10
-25.165538
20
2.063537
30
0
10
-25.240222
20
0.702645
30
0
10
-25.240196
20
0.702266
30
0
10
-25.23508
20
0.6991
30
0
10
-25.214643
20
0.686486
30
0
10
-25.052717
20
0.58843
30
0
10
-24.737588
20
0.407231
30
0
10
-24.434838
20
0.245167
30
0
10
-24.14532
20
0.101312
30
0
10
-23.869846
20
-0.025294
30
0
10
-23.609177
20
-0.135645
30
0
10
-23.364029
20
-0.230763
30
0
10
-23.135071
20
-0.311699
30
0
10
-22.922919
20
-0.379528
30
0
10
-22.728141
20
-0.435352
30
0
10
-22.551251
20
-0.480291
30
0
10
-22.392714
20
-0.51549
30
0
10
-22.252939
20
-0.542105
30
0
10
-22.132283
20
-0.561313
30
0
10
-22.031048
20
-0.574301
30
0
10
-21.949483
20
-0.582268
30
0
10
-21.887781
20
-0.586421
30
0
10
-21.846079
20
-0.587976
30
0
10
-21.82446
20
-0.58815
30
0
10
-20.899411
20
-0.563257
30
0
10
-20.712271
20
-2.846836
30
0
10
-21.629031
20
-2.972881
30
0
10
-21.650333
20
-2.976572
30
0
10
-21.691225
20
-2.984895
30
0
10
-21.751428
20
-2.999039
30
0
10
-21.830608
20
-3.020179
30
0
10
-21.928377
20
-3.049475
30
0
10
-22.044296
20
-3.08807
30
0
10
-22.177873
20
-3.137087
30
0
10
-22.328565
20
-3.197627
30
0
10
-22.495777
20
-3.270766
30
0
10
-22.678869
20
-3.357556
30
0
10
-22.877147
20
-3.459021
30
0
10
-23.089873
20
-3.576152
30
0
10
-23.316264
20
-3.709913
30
0
10
-23.555489
20
-3.86123
30
0
10
-23.806676
20
-4.030997
30
0
10
-24.06891
20
-4.220068
30
0
10
-24.341236
20
-4.429259
30
0
10
-24.622659
20
-4.659346
30
0
10
-24.766461
20
-4.782457
30
0
10
-24.784572
20
-4.79823
30
0
10
-24.789104
20
-4.802187
30
0
10
-24.789068
20
-4.802565
30
0
10
-24.493817
20
-6.133141
30
0
10
-24.49369
20
-6.133499
30
0
10
-24.48791
20
-6.135167
30
0
10
-24.464828
20
-6.1418
30
0
10
-24.28245
20
-6.192533
30
0
10
-23.930121
20
-6.281992
30
0
10
-23.594873
20
-6.356365
30
0
10
-23.27728
20
-6.416774
30
0
10
-22.977863
20
-6.464364
30
0
10
-22.697088
20
-6.500295
30
0
10
-22.435369
20
-6.525746
30
0
10
-22.193065
20
-6.541907
30
0
10
-21.97048
20
-6.549984
30
0
10
-21.767863
20
-6.551187
30
0
10
-21.585409
20
-6.546736
30
0
10
-21.423254
20
-6.537856
30
0
10
-21.281481
20
-6.525773
30
0
10
-21.160117
20
-6.511716
30
0
10
-21.059133
20
-6.49691
30
0
10
-20.978443
20
-6.482575
30
0
10
-20.917908
20
-6.469928
30
0
10
-20.877333
20
-6.460174
30
0
10
-20.856469
20
-6.454508
30
0
10
-19.972439
20
-6.180964
30
0
10
-19.176137
20
-8.329372
30
0
10
-20.024894
20
-8.698081
30
0
10
-20.04441
20
-8.707383
30
0
10
-20.081541
20
-8.72643
30
0
10
-20.135695
20
-8.756291
30
0
10
-20.206235
20
-8.79801
30
0
10
-20.292475
20
-8.852598
30
0
10
-20.393682
20
-8.921036
30
0
10
-20.509081
20
-9.004274
30
0
10
-20.637851
20
-9.103225
30
0
10
-20.779131
20
-9.218765
30
0
10
-20.932017
20
-9.351735
30
0
10
-21.095568
20
-9.502931
30
0
10
-21.268804
20
-9.673112
30
0
10
-21.450711
20
-9.862992
30
0
10
-21.64024
20
-10.07324
30
0
10
-21.83631
20
-10.304481
30
0
10
-22.037809
20
-10.557291
30
0
10
-22.243597
20
-10.832197
30
0
10
-22.452508
20
-11.129679
30
0
10
-22.557762
20
-11.287022
30
0
10
-22.570946
20
-11.307096
30
0
10
-22.574242
20
-11.312129
30
0
10
-22.574105
20
-11.312483
30
0
10
-21.930818
20
-12.51406
30
0
10
-21.9306
20
-12.514371
30
0
10
-21.924583
20
-12.514418
30
0
10
-21.900568
20
-12.514577
30
0
10
-21.711266
20
-12.514223
30
0
10
-21.347866
20
-12.505308
30
0
10
-21.004984
20
-12.486474
30
0
10
-20.682871
20
-12.458958
30
0
10
-20.381717
20
-12.424001
30
0
10
-20.101659
20
-12.382847
30
0
10
-19.842779
20
-12.336743
30
0
10
-19.6051
20
-12.286933
30
0
10
-19.38859
20
-12.234657
30
0
10
-19.193163
20
-12.18115
30
0
10
-19.018675
20
-12.127639
30
0
10
-18.864929
20
-12.075339
30
0
10
-18.731674
20
-12.025455
30
0
10
-18.618603
20
-11.979175
30
0
10
-18.525358
20
-11.937673
30
0
10
-18.451528
20
-11.9021
30
0
10
-18.39665
20
-11.87359
30
0
10
-18.360211
20
-11.85325
30
0
10
-18.341649
20
-11.842166
30
0
10
-17.564203
20
-11.340257
30
0
10
-16.217796
20
-13.194156
30
0
10
-16.935602
20
-13.778184
30
0
10
-16.951886
20
-13.792406
30
0
10
-16.9825
20
-13.820765
30
0
10
-17.02659
20
-13.86413
30
0
10
-17.083258
20
-13.923333
30
0
10
-17.151572
20
-13.999163
30
0
10
-17.230562
20
-14.09237
30
0
10
-17.319225
20
-14.203655
30
0
10
-17.416523
20
-14.333678
30
0
10
-17.521391
20
-14.483051
30
0
10
-17.632733
20
-14.652337
30
0
10
-17.749427
20
-14.842053
30
0
10
-17.870325
20
-15.052661
30
0
10
-17.994257
20
-15.284578
30
0
10
-18.120034
20
-15.538164
30
0
10
-18.246445
20
-15.813729
30
0
10
-18.372264
20
-16.111527
30
0
10
-18.496252
20
-16.431761
30
0
10
-18.617156
20
-16.774575
30
0
10
-18.676057
20
-16.95448
30
0
10
-18.683336
20
-16.977367
30
0
10
-18.685152
20
-16.983102
30
0
10
-18.684925
20
-16.983406
30
0
10
-17.741311
20
-17.966869
30
0
10
-17.741017
20
-17.967109
30
0
10
-17.735211
20
-17.965531
30
0
10
-17.712043
20
-17.959205
30
0
10
-17.529856
20
-17.907792
30
0
10
-17.182337
20
-17.801163
30
0
10
-16.857252
20
-17.690519
30
0
10
-16.554507
20
-17.577118
30
0
10
-16.273952
20
-17.462206
30
0
10
-16.015383
20
-17.34702
30
0
10
-15.778542
20
-17.232781
30
0
10
-15.563115
20
-17.120693
30
0
10
-15.368738
20
-17.011942
30
0
10
-15.194993
20
-16.907693
30
0
10
-15.041413
20
-16.80909
30
0
10
-14.907479
20
-16.71725
30
0
10
-14.792623
20
-16.633263
30
0
10
-14.696231
20
-16.558194
30
0
10
-14.617642
20
-16.493073
30
0
10
-14.556147
20
-16.4389
30
0
10
-14.510996
20
-16.396641
30
0
10
-14.481396
20
-16.367225
30
0
10
-14.466513
20
-16.351544
30
0
10
-13.85331
20
-15.658494
30
0
10
-12.056655
20
-17.08039
30
0
10
-12.590275
20
-17.836423
30
0
10
-12.602117
20
-17.854511
30
0
10
-12.623945
20
-17.890077
30
0
10
-12.6547
20
-17.943729
30
0
10
-12.693294
20
-18.016026
30
0
10
-12.738616
20
-18.107475
30
0
10
-12.78953
20
-18.218536
30
0
10
-12.844881
20
-18.349616
30
0
10
-12.903491
20
-18.501068
30
0
10
-12.96417
20
-18.673195
30
0
10
-13.02571
20
-18.866243
30
0
10
-13.086892
20
-19.080407
30
0
10
-13.146485
20
-19.315824
30
0
10
-13.203251
20
-19.572577
30
0
10
-13.255947
20
-19.850693
30
0
10
-13.303324
20
-20.150145
30
0
10
-13.344133
20
-20.470846
30
0
10
-13.377125
20
-20.812656
30
0
10
-13.401056
20
-21.175376
30
0
10
-13.409235
20
-21.364502
30
0
10
-13.410068
20
-21.388504
30
0
10
-13.41027
20
-21.394517
30
0
10
-13.409969
20
-21.394748
30
0
10
-12.236012
20
-22.087157
30
0
10
-12.235664
20
-22.087309
30
0
10
-12.230499
20
-22.084223
30
0
10
-12.209896
20
-22.071881
30
0
10
-12.048337
20
-21.973221
30
0
10
-11.742473
20
-21.776786
30
0
10
-11.459295
20
-21.582539
30
0
10
-11.198371
20
-21.391663
30
0
10
-10.959223
20
-21.20532
30
0
10
-10.741319
20
-21.024644
30
0
10
-10.544082
20
-20.850742
30
0
10
-10.366885
20
-20.684689
30
0
10
-10.209056
20
-20.527529
30
0
10
-10.069881
20
-20.38027
30
0
10
-9.948599
20
-20.243888
30
0
10
-9.844409
20
-20.119318
30
0
10
-9.756472
20
-20.007459
30
0
10
-9.683908
20
-19.909167
30
0
10
-9.625802
20
-19.825258
30
0
10
-9.581203
20
-19.756503
30
0
10
-9.549128
20
-19.703629
30
0
10
-9.528562
20
-19.667318
30
0
10
-9.518462
20
-19.648203
30
0
10
-9.11498
20
-18.815413
30
0
10
-7.001328
20
-19.699849
30
0
10
-7.311184
20
-20.571815
30
0
10
-7.317707
20
-20.592427
30
0
10
-7.32913
20
-20.632564
30
0
10
-7.344269
20
-20.692524
30
0
10
-7.361927
20
-20.772552
30
0
10
-7.380895
20
-20.872839
30
0
10
-7.399958
20
-20.993518
30
0
10
-7.41789
20
-21.13467
30
0
10
-7.433466
20
-21.296319
30
0
10
-7.445456
20
-21.478433
30
0
10
-7.45263
20
-21.680926
30
0
10
-7.453762
20
-21.903655
30
0
10
-7.447631
20
-22.14642
30
0
10
-7.433021
20
-22.408967
30
0
10
-7.408728
20
-22.690988
30
0
10
-7.373557
20
-22.992117
30
0
10
-7.326328
20
-23.311935
30
0
10
-7.265878
20
-23.649971
30
0
10
-7.19106
20
-24.005698
30
0
10
-7.14791
20
-24.190016
30
0
10
-7.142237
20
-24.213353
30
0
10
-7.140809
20
-24.219197
30
0
10
-7.140457
20
-24.219339
30
0
10
-5.823224
20
-24.569342
30
0
10
-5.822847
20
-24.569394
30
0
10
-5.818707
20
-24.565029
30
0
10
-5.802198
20
-24.547586
30
0
10
-5.673248
20
-24.408997
30
0
10
-5.431724
20
-24.137326
30
0
10
-5.211454
20
-23.87388
30
0
10
-5.011704
20
-23.619686
30
0
10
-4.831698
20
-23.375732
30
0
10
-4.670621
20
-23.142967
30
0
10
-4.527616
20
-22.922299
30
0
10
-4.40179
20
-22.714597
30
0
10
-4.292216
20
-22.520683
30
0
10
-4.197931
20
-22.341336
30
0
10
-4.117942
20
-22.177289
30
0
10
-4.051225
20
-22.029229
30
0
10
-3.996728
20
-21.897793
30
0
10
-3.953373
20
-21.783568
30
0
10
-3.92006
20
-21.687094
30
0
10
-3.895665
20
-21.608856
30
0
10
-3.879045
20
-21.549289
30
0
10
-3.869038
20
-21.508776
30
0
10
-3.86447
20
-21.487645
30
0
10
-3.700635
20
-20.576879
30
0
10
-1.426744
20
-20.858261
30
0
10
-1.489856
20
-21.78149
30
0
10
-1.490576
20
-21.803098
30
0
10
-1.490747
20
-21.844828
30
0
10
-1.489148
20
-21.90665
30
0
10
-1.484559
20
-21.988474
30
0
10
-1.475767
20
-22.090159
30
0
10
-1.461564
20
-22.211506
30
0
10
-1.440749
20
-22.352262
30
0
10
-1.412135
20
-22.512119
30
0
10
-1.374546
20
-22.690715
30
0
10
-1.326822
20
-22.887634
30
0
10
-1.267821
20
-23.102409
30
0
10
-1.19642
20
-23.334517
30
0
10
-1.111517
20
-23.583387
30
0
10
-1.012037
20
-23.848395
30
0
10
-0.896926
20
-24.128868
30
0
10
-0.765163
20
-24.424085
30
0
10
-0.615754
20
-24.733276
30
0
10
-0.447736
20
-25.055626
30
0
10
-0.356458
20
-25.221468
30
0
10
-0.344699
20
-25.242409
30
0
10
-0.341747
20
-25.247651
30
0
10
-0.34137
20
-25.247692
30
0
10
1.021446
20
-25.229331
30
0
10
1.021823
20
-25.22928
30
0
10
1.024632
20
-25.22396
30
0
10
1.035823
20
-25.20271
30
0
10
1.1226
20
-25.034469
30
0
10
1.281872
20
-24.70771
30
0
10
1.422897
20
-24.394605
30
0
10
1.546659
20
-24.095946
30
0
10
1.654171
20
-23.812473
30
0
10
1.746476
20
-23.544881
30
0
10
1.824643
20
-23.293814
30
0
10
1.889765
20
-23.059867
30
0
10
1.942959
20
-22.843581
30
0
10
1.98536
20
-22.645447
30
0
10
2.018124
20
-22.465903
30
0
10
2.042421
20
-22.305333
30
0
10
2.059436
20
-22.164067
30
0
10
2.070365
20
-22.042382
30
0
10
2.076414
20
-21.940497
30
0
10
2.078796
20
-21.858579
30
0
10
2.078729
20
-21.796737
30
0
10
2.077434
20
-21.755026
30
0
10
2.076132
20
-21.733446
30
0
10
1.988171
20
-20.812252
30
0
10
4.253655
20
-20.469711
30
0
10
4.441968
20
-21.375732
30
0
10
4.447104
20
-21.396733
30
0
10
4.458198
20
-21.436962
30
0
10
4.476417
20
-21.496059
30
0
10
4.502912
20
-21.573611
30
0
10
4.538812
20
-21.669153
30
0
10
4.585227
20
-21.782168
30
0
10
4.643246
20
-21.912089
30
0
10
4.713928
20
-22.058298
30
0
10
4.798307
20
-22.22013
30
0
10
4.89739
20
-22.396871
30
0
10
5.012148
20
-22.587763
30
0
10
5.143524
20
-22.792
30
0
10
5.292422
20
-23.008735
30
0
10
5.459712
20
-23.237076
30
0
10
5.646225
20
-23.476092
30
0
10
5.85275
20
-23.724812
30
0
10
6.080038
20
-23.982228
30
0
10
6.328794
20
-24.247293
30
0
10
6.461431
20
-24.382359
30
0
10
6.478403
20
-24.399351
30
0
10
6.48266
20
-24.403602
30
0
10
6.483035
20
-24.40354
30
0
10
7.79036
20
-24.018176
30
0
10
7.790709
20
-24.018025
30
0
10
7.791979
20
-24.012144
30
0
10
7.797021
20
-23.988663
30
0
10
7.835189
20
-23.803249
30
0
10
7.900397
20
-23.445636
30
0
10
7.951718
20
-23.106094
30
0
10
7.990313
20
-22.785119
30
0
10
8.017358
20
-22.483152
30
0
10
8.034045
20
-22.20058
30
0
10
8.041576
20
-21.937734
30
0
10
8.041165
20
-21.694892
30
0
10
8.034033
20
-21.472275
30
0
10
8.021406
20
-21.270049
30
0
10
8.004514
20
-21.088323
30
0
10
7.984589
20
-20.927152
30
0
10
7.96286
20
-20.786535
30
0
10
7.940553
20
-20.666413
30
0
10
7.91889
20
-20.566674
30
0
10
7.899083
20
-20.487151
30
0
10
7.882334
20
-20.42762
30
0
10
7.869833
20
-20.387806
30
0
10
7.862757
20
-20.367377
30
0
10
7.529522
20
-19.504075
30
0
10
9.61858
20
-18.563016
30
0
10
10.044351
20
-19.384633
30
0
10
10.054963
20
-19.403469
30
0
10
10.076499
20
-19.439213
30
0
10
10.109987
20
-19.491204
30
0
10
10.156422
20
-19.558732
30
0
10
10.216768
20
-19.641045
30
0
10
10.291953
20
-19.737347
30
0
10
10.382872
20
-19.846796
30
0
10
10.49038
20
-19.968514
30
0
10
10.615292
20
-20.101579
30
0
10
10.758385
20
-20.245034
30
0
10
10.92039
20
-20.397886
30
0
10
11.101996
20
-20.559105
30
0
10
11.303847
20
-20.72763
30
0
10
11.526539
20
-20.90237
30
0
10
11.770621
20
-21.082202
30
0
10
12.036592
20
-21.265979
30
0
10
12.324902
20
-21.452527
30
0
10
12.635947
20
-21.64065
30
0
10
12.800105
20
-21.734921
30
0
10
12.821033
20
-21.746704
30
0
10
12.826279
20
-21.74965
30
0
10
12.826623
20
-21.749489
30
0
10
13.981499
20
-21.025703
30
0
10
13.981794
20
-21.025464
30
0
10
13.98143
20
-21.019458
30
0
10
13.97995
20
-20.995487
30
0
10
13.966679
20
-20.806651
30
0
10
13.932985
20
-20.444707
30
0
10
13.890796
20
-20.10391
30
0
10
13.841362
20
-19.784425
30
0
10
13.785935
20
-19.486358
30
0
10
13.725766
20
-19.209762
30
0
10
13.662102
20
-18.954632
30
0
10
13.596189
20
-18.720906
30
0
10
13.529259
20
-18.508469
30
0
10
13.462541
20
-18.317148
30
0
10
13.397246
20
-18.146719
30
0
10
13.334577
20
-17.9969
30
0
10
13.275715
20
-17.86736
30
0
10
13.221828
20
-17.757711
30
0
10
13.174058
20
-17.667515
30
0
10
13.13353
20
-17.596285
30
0
10
13.101341
20
-17.543481
30
0
10
13.078563
20
-17.508515
30
0
10
13.066237
20
-17.490753
30
0
10
12.512444
20
-16.74937
30
0
10
14.270139
20
-15.279588
30
0
10
14.901791
20
-15.955865
30
0
10
14.917091
20
-15.97114
30
0
10
14.947472
20
-15.999748
30
0
10
14.993745
20
-16.040775
30
0
10
15.056677
20
-16.093271
30
0
10
15.136993
20
-16.156251
30
0
10
15.235372
20
-16.228697
30
0
10
15.352449
20
-16.309558
30
0
10
15.488809
20
-16.397756
30
0
10
15.64499
20
-16.492186
30
0
10
15.82148
20
-16.591716
30
0
10
16.018716
20
-16.695191
30
0
10
16.237084
20
-16.801435
30
0
10
16.476918
20
-16.909252
30
0
10
16.738496
20
-17.01743
30
0
10
17.022045
20
-17.124741
30
0
10
17.327735
20
-17.229945
30
0
10
17.655683
20
-17.33179
30
0
10
18.005949
20
-17.429018
30
0
10
18.189454
20
-17.475505
30
0
10
18.212784
20
-17.481204
30
0
10
18.218631
20
-17.482625
30
0
10
18.218919
20
-17.482377
30
0
10
19.135694
20
-16.47385
30
0
10
19.135913
20
-16.473539
30
0
10
19.133943
20
-16.467855
30
0
10
19.126051
20
-16.445172
30
0
10
19.062324
20
-16.266919
30
0
10
18.932228
20
-15.927487
30
0
10
18.799658
20
-15.61071
30
0
10
18.665861
20
-15.31641
30
0
10
18.532072
20
-15.044351
30
0
10
18.399509
20
-14.794245
30
0
10
18.269373
20
-14.565752
30
0
10
18.142845
20
-14.358476
30
0
10
18.021083
20
-14.171974
30
0
10
17.905221
20
-14.005749
30
0
10
17.796366
20
-13.859255
30
0
10
17.6956
20
-13.731901
30
0
10
17.603972
20
-13.623044
30
0
10
17.522499
20
-13.532
30
0
10
17.452167
20
-13.458037
30
0
10
17.393924
20
-13.400383
30
0
10
17.348682
20
-13.358221
30
0
10
17.317315
20
-13.330698
30
0
10
17.300655
20
-13.31692
30
0
10
16.567374
20
-12.752441
30
0
10
17.863346
20
-10.862942
30
0
10
18.654033
20
-11.343723
30
0
10
18.672886
20
-11.354304
30
0
10
18.70986
20
-11.373654
30
0
10
18.765486
20
-11.400676
30
0
10
18.840247
20
-11.434246
30
0
10
18.934577
20
-11.473222
30
0
10
19.048853
20
-11.516438
30
0
10
19.183404
20
-11.562714
30
0
10
19.338503
20
-11.610853
30
0
10
19.51437
20
-11.659644
30
0
10
19.711168
20
-11.707866
30
0
10
19.929007
20
-11.75429
30
0
10
20.167942
20
-11.797679
30
0
10
20.42797
20
-11.836792
30
0
10
20.709035
20
-11.870385
30
0
10
21.011021
20
-11.897216
30
0
10
21.333759
20
-11.916045
30
0
10
21.677024
20
-11.925634
30
0
10
22.040532
20
-11.924756
30
0
10
22.229775
20
-11.92001
30
0
10
22.253777
20
-11.919203
30
0
10
22.25979
20
-11.918994
30
0
10
22.26
20
-11.918678
30
0
10
22.870682
20
-10.700206
30
0
10
22.87081
20
-10.699848
30
0
10
22.867379
20
-10.694906
30
0
10
22.853659
20
-10.675194
30
0
10
22.744204
20
-10.520744
30
0
10
22.527354
20
-10.228999
30
0
10
22.314235
20
-9.959736
30
0
10
22.105998
20
-9.712447
30
0
10
21.903769
20
-9.486572
30
0
10
21.708645
20
-9.281506
30
0
10
21.521688
20
-9.096596
30
0
10
21.34393
20
-8.931144
30
0
10
21.176365
20
-8.784409
30
0
10
21.019952
20
-8.655607
30
0
10
20.875611
20
-8.543914
30
0
10
20.744222
20
-8.448469
30
0
10
20.626622
20
-8.36837
30
0
10
20.523607
20
-8.302683
30
0
10
20.435928
20
-8.250438
30
0
10
20.36429
20
-8.210636
30
0
10
20.309351
20
-8.182244
30
0
10
20.271721
20
-8.164204
30
0
10
20.251961
20
-8.155431
30
0
10
19.393579
20
-7.809722
30
0
10
20.131712
20
-5.640641
30
0
10
21.02279
20
-5.890269
30
0
10
21.0438
20
-5.895371
30
0
10
21.084622
20
-5.904028
30
0
10
21.145476
20
-5.91504
30
0
10
21.226523
20
-5.927196
30
0
10
21.327869
20
-5.939276
30
0
10
21.449568
20
-5.950058
30
0
10
21.591615
20
-5.958317
30
0
10
21.75395
20
-5.962825
30
0
10
21.936458
20
-5.962359
30
0
10
22.138969
20
-5.955697
30
0
10
22.361255
20
-5.941627
30
0
10
22.603036
20
-5.918943
30
0
10
22.863974
20
-5.886451
30
0
10
23.143679
20
-5.842968
30
0
10
23.441706
20
-5.78733
30
0
10
23.757556
20
-5.718386
30
0
10
24.090679
20
-5.635008
30
0
10
24.44047
20
-5.536089
30
0
10
24.621414
20
-5.480462
30
0
10
24.64431
20
-5.47321
30
0
10
24.650043
20
-5.471386
30
0
10
24.65016
20
-5.471025
30
0
10
24.909456
20
-4.132977
30
0
10
24.909482
20
-4.132598
30
0
10
24.904845
20
-4.128765
30
0
10
24.886316
20
-4.113485
30
0
10
24.73925
20
-3.994294
30
0
10
24.45173
20
-3.771872
30
0
10
24.173867
20
-3.570093
30
0
10
23.906634
20
-3.388156
30
0
10
23.650965
20
-3.225218
30
0
10
23.40775
20
-3.080401
30
0
10
23.177838
20
-2.952788
30
0
10
22.962033
20
-2.84143
30
0
10
22.761093
20
-2.745344
30
0
10
22.57573
20
-2.663518
30
0
10
22.406607
20
-2.59491
30
0
10
22.254339
20
-2.538453
30
0
10
22.11949
20
-2.493052
30
0
10
22.002574
20
-2.457594
30
0
10
21.90405
20
-2.430942
30
0
10
21.82433
20
-2.411943
30
0
10
21.763768
20
-2.399426
30
0
10
21.722666
20
-2.392208
30
0
10
21.701273
20
-2.389092
30
0
10
20.78145
20
-2.287792
30
0
8
gear
0
CIRCLE
5
2001
100
AcDbEntity
100
AcDbCircle
10
23.152386
20
1.897347
30
0
40
0.79285
8
gear_guides
0
CIRCLE
5
2002
100
AcDbEntity
100
AcDbCircle
10
0
20
0
30
0
40
23.23
8
gear_guides
0
CIRCLE
5
2003
100
AcDbEntity
100
AcDbCircle
10
0
20
0
30
0
40
25.25
8
gear_guides
0
CIRCLE
5
2004
100
AcDbEntity
100
AcDbCircle
10
0
20
0
30
0
40
21.82906
8
gear_guides
0
LINE
5
2005
100
AcDbEntity
100
AcDbLine
10
1.6
20
0
30
0
11
-1.6
21
0
31
0
8
gear_guides
0
LINE
5
2006
100
AcDbEntity
100
AcDbLine
10
0
20
1.6
30
0
11
0
21
-1.6
31
0
8
gear_guides
0
LWPOLYLINE
5
2007
100
AcDbEntity
100
AcDbPolyline
66
1
90
2
70
0
43
0
10
-13.504262
20
7.796689
30
0
10
-14.666785
20
8.467872
30
0
8
gear_texts
0
LWPOLYLINE
5
2008
100
AcDbEntity
100
AcDbPolyline
66
1
90
2
70
0
43
0
10
-14.957415
20
8.635668
30
0
10
-15.248046
20
8.803464
30
0
8
gear_texts
0
LWPOLYLINE
5
2009
100
AcDbEntity
100
AcDbPolyline
66
1
90
2
70
0
43
0
10
-13.178073
20
8.336177
30
0
10
-14.312515
20
9.053802
30
0
8
gear_texts
0
LWPOLYLINE
5
2010
100
AcDbEntity
100
AcDbPolyline
66
1
90
6
70
0
43
0
10
-13.745294
20
8.69499
30
0
10
-13.846644
20
9.156174
30
0
10
-13.934851
20
9.624934
30
0
10
-13.737438
20
9.904657
30
0
10
-13.266218
20
9.978603
30
0
10
-12.461642
20
9.373416
30
0
8
gear_texts
0
LWPOLYLINE
5
2011
100
AcDbEntity
100
AcDbPolyline
66
1
90
2
70
0
43
0
10
-11.552934
20
9.444662
30
0
10
-13.111846
20
10.719091
30
0
8
gear_texts
0
LWPOLYLINE
5
2012
100
AcDbEntity
100
AcDbPolyline
66
1
90
10
70
0
43
0
10
-12.852028
20
10.506686
30
0
10
-12.892483
20
10.981954
30
0
10
-12.667851
20
11.240329
30
0
10
-12.438041
20
11.49411
30
0
10
-11.961336
20
11.510496
30
0
10
-11.477711
20
11.045099
30
0
10
-11.452173
20
10.583061
30
0
10
-11.663768
20
10.349395
30
0
10
-11.870595
20
10.111499
30
0
10
-12.072571
20
9.869471
30
0
8
gear_texts
0
LWPOLYLINE
5
2013
100
AcDbEntity
100
AcDbPolyline
66
1
90
2
70
0
43
0
10
-10.692562
20
13.133489
30
0
10
-9.845045
20
12.092499
30
0
8
gear_texts
0
LWPOLYLINE
5
2014
100
AcDbEntity
100
AcDbPolyline
66
1
90
6
70
0
43
0
10
-10.268804
20
12.612994
30
0
10
-10.304578
20
12.146924
30
0
10
-10.325794
20
11.684666
30
0
10
-10.559887
20
11.473545
30
0
10
-11.021873
20
11.500017
30
0
10
-11.7185
20
12.226864
30
0
8
gear_texts
0
LWPOLYLINE
5
2015
100
AcDbEntity
100
AcDbPolyline
66
1
90
4
70
0
43
0
10
-8.488352
20
13.478871
30
0
10
-8.574553
20
13.024227
30
0
10
-9.026248
20
13.124745
30
0
10
-9.977073
20
14.507305
30
0
8
gear_texts
0
LWPOLYLINE
5
2016
100
AcDbEntity
100
AcDbPolyline
66
1
90
5
70
0
43
0
10
-9.024849
20
14.330789
30
0
10
-9.312699
20
14.145426
30
0
10
-9.596743
20
13.954281
30
0
10
-9.876865
20
13.757433
30
0
10
-10.15295
20
13.554963
30
0
8
gear_texts
0
LWPOLYLINE
5
2017
100
AcDbEntity
100
AcDbPolyline
66
1
90
13
70
0
43
0
10
-5.64197
20
15.968331
30
0
10
-5.963614
20
15.851017
30
0
10
-6.28282
20
15.727225
30
0
10
-6.599459
20
15.597005
30
0
10
-6.776408
20
15.154054
30
0
10
-6.337915
20
14.978878
30
0
10
-6.033825
20
15.103937
30
0
10
-5.727269
20
15.222823
30
0
10
-5.306574
20
15.019066
30
0
10
-5.490924
20
14.594629
30
0
10
-5.78483
20
14.480649
30
0
10
-6.076371
20
14.360751
30
0
10
-6.365429
20
14.234984
30
0
8
gear_texts
0
LWPOLYLINE
5
2018
100
AcDbEntity
100
AcDbPolyline
66
1
90
2
70
0
43
0
10
-4.596229
20
14.900608
30
0
10
-4.991898
20
16.183337
30
0
8
gear_texts
0
LWPOLYLINE
5
2019
100
AcDbEntity
100
AcDbPolyline
66
1
90
2
70
0
43
0
10
-5.090816
20
16.504019
30
0
10
-5.189733
20
16.824701
30
0
8
gear_texts
0
LWPOLYLINE
5
2020
100
AcDbEntity
100
AcDbPolyline
66
1
90
5
70
0
43
0
10
-2.99704
20
16.668449
30
0
10
-3.267324
20
16.275431
30
0
10
-3.52297
20
15.878433
30
0
10
-3.763931
20
15.477884
30
0
10
-3.99017
20
15.074216
30
0
8
gear_texts
0
LWPOLYLINE
5
2021
100
AcDbEntity
100
AcDbPolyline
66
1
90
5
70
0
43
0
10
-2.759488
20
15.347269
30
0
10
-3.135219
20
15.617378
30
0
10
-3.52297
20
15.878433
30
0
10
-3.922528
20
16.13006
30
0
10
-4.333667
20
16.371889
30
0
8
gear_texts
0
LWPOLYLINE
5
2022
100
AcDbEntity
100
AcDbPolyline
66
1
90
4
70
0
43
0
10
-0.901182
20
15.903457
30
0
10
-1.196728
20
15.547388
30
0
10
-1.543284
20
15.854033
30
0
10
-1.705854
20
17.524096
30
0
8
gear_texts
0
LWPOLYLINE
5
2023
100
AcDbEntity
100
AcDbPolyline
66
1
90
5
70
0
43
0
10
-0.958141
20
16.908619
30
0
10
-1.299749
20
16.885795
30
0
10
-1.640826
20
16.856071
30
0
10
-1.981233
20
16.819457
30
0
10
-2.32083
20
16.77597
30
0
8
gear_texts
0
LWPOLYLINE
5
2024
100
AcDbEntity
100
AcDbPolyline
66
1
90
6
70
0
43
0
10
-0.263034
20
16.262434
30
0
10
0.067118
20
16.600017
30
0
10
0.410811
20
16.930761
30
0
10
0.752979
20
16.918997
30
0
10
1.073144
20
16.565429
30
0
10
1.008059
20
15.56076
30
0
8
gear_texts
0
LWPOLYLINE
5
2025
100
AcDbEntity
100
AcDbPolyline
66
1
90
2
70
0
43
0
10
-0.25218
20
15.591339
30
0
10
-0.284743
20
17.604625
30
0
8
gear_texts
0
LWPOLYLINE
5
2026
100
AcDbEntity
100
AcDbPolyline
66
1
90
15
70
0
43
0
10
4.415155
20
14.955262
30
0
10
4.111936
20
15.041457
30
0
10
3.807035
20
15.121505
30
0
10
3.500579
20
15.195374
30
0
10
3.261404
20
15.591514
30
0
10
3.398827
20
16.248478
30
0
10
3.801929
20
16.503477
30
0
10
4.134767
20
16.42325
30
0
10
4.465914
20
16.336311
30
0
10
4.700216
20
15.920837
30
0
10
4.320135
20
14.633403
30
0
10
3.934946
20
14.39403
30
0
10
3.64317
20
14.470633
30
0
10
3.349905
20
14.541322
30
0
10
3.123982
20
14.93455
30
0
8
gear_texts
0
LWPOLYLINE
5
2027
100
AcDbEntity
100
AcDbPolyline
66
1
90
13
70
0
43
0
10
5.901736
20
14.433397
30
0
10
5.608762
20
14.54975
30
0
10
5.313496
20
14.660157
30
0
10
5.124011
20
15.082327
30
0
10
5.339916
20
15.717836
30
0
10
5.770912
20
15.922186
30
0
10
6.091596
20
15.802275
30
0
10
6.409791
20
15.675905
30
0
10
6.5921
20
15.235133
30
0
10
6.155764
20
15.054651
30
0
10
5.850179
20
15.176012
30
0
10
5.542204
20
15.291172
30
0
10
5.231964
20
15.400081
30
0
8
gear_texts
0
LWPOLYLINE
5
2028
100
AcDbEntity
100
AcDbPolyline
66
1
90
10
70
0
43
0
10
7.768478
20
13.906215
30
0
10
7.328069
20
13.764187
30
0
10
7.048331
20
13.90951
30
0
10
6.911321
20
14.351506
30
0
10
7.202536
20
14.956221
30
0
10
7.655091
20
15.106919
30
0
10
7.95891
20
14.949086
30
0
10
8.095811
20
14.492168
30
0
10
7.768478
20
13.906215
30
0
10
7.878447
20
13.456728
30
0
8
gear_texts
0
LWPOLYLINE
5
2029
100
AcDbEntity
100
AcDbPolyline
66
1
90
2
70
0
43
0
10
8.415946
20
13.127273
30
0
10
9.140439
20
14.257342
30
0
8
gear_texts
0
LWPOLYLINE
5
2030
100
AcDbEntity
100
AcDbPolyline
66
1
90
5
70
0
43
0
10
8.778193
20
13.692308
30
0
10
9.239983
20
13.790859
30
0
10
9.709269
20
13.876222
30
0
10
9.98779
20
13.677115
30
0
10
10.058877
20
13.205456
30
0
8
gear_texts
0
LWPOLYLINE
5
2031
100
AcDbEntity
100
AcDbPolyline
66
1
90
5
70
0
43
0
10
12.723642
20
10.661801
30
0
10
12.505516
20
10.916828
30
0
10
12.28228
20
11.167394
30
0
10
12.054023
20
11.413395
30
0
10
11.820841
20
11.654733
30
0
8
gear_texts
0
LWPOLYLINE
5
2032
100
AcDbEntity
100
AcDbPolyline
66
1
90
5
70
0
43
0
10
14.761788
20
7.593069
30
0
10
14.605279
20
7.889923
30
0
10
14.442801
20
8.183554
30
0
10
14.274421
20
8.47384
30
0
10
14.100208
20
8.760663
30
0
8
gear_texts
0
LWPOLYLINE
5
2033
100
AcDbEntity
100
AcDbPolyline
66
1
90
2
70
0
43
0
10
13.858845
20
7.852674
30
0
10
15.026758
20
8.514434
30
0
8
gear_texts
0
LWPOLYLINE
5
2034
100
AcDbEntity
100
AcDbPolyline
66
1
90
5
70
0
43
0
10
15.358641
20
7.900074
30
0
10
14.900542
20
8.049428
30
0
10
14.442801
20
8.183554
30
0
10
13.985847
20
8.302531
30
0
10
13.530103
20
8.406449
30
0
8
gear_texts
0
LWPOLYLINE
5
2035
100
AcDbEntity
100
AcDbPolyline
66
1
90
5
70
0
43
0
10
14.164934
20
7.286063
30
0
10
14.310016
20
7.730419
30
0
10
14.442801
20
8.183554
30
0
10
14.562996
20
8.645149
30
0
10
14.670312
20
9.114877
30
0
8
gear_texts
0
LWPOLYLINE
5
2036
100
AcDbEntity
100
AcDbPolyline
66
1
90
3
70
0
43
0
10
15.665421
20
7.272801
30
0
10
16.11642
20
7.089774
30
0
10
14.273327
20
6.278979
30
0
8
gear_texts
0
LWPOLYLINE
5
2037
100
AcDbEntity
100
AcDbPolyline
66
1
90
3
70
0
43
0
10
14.397339
20
5.989164
30
0
10
14.273327
20
6.278979
30
0
10
14.143482
20
6.566228
30
0
8
gear_texts
0
LWPOLYLINE
5
2038
100
AcDbEntity
100
AcDbPolyline
66
1
90
7
70
0
43
0
10
15.363723
20
2.666359
30
0
10
17.347617
20
3.010662
30
0
10
16.624369
20
3.232613
30
0
10
15.899507
20
3.426606
30
0
10
16.480116
20
3.90195
30
0
10
17.047738
20
4.402104
30
0
10
15.098138
20
3.898675
30
0
8
gear_texts
0
LWPOLYLINE
5
2039
100
AcDbEntity
100
AcDbPolyline
66
1
90
15
70
0
43
0
10
15.573467
20
0.78776
30
0
10
15.55436
20
1.102414
30
0
10
15.528897
20
1.416617
30
0
10
15.497087
20
1.730241
30
0
10
15.458944
20
2.043158
30
0
10
16.124341
20
2.131101
30
0
10
16.497645
20
1.841952
30
0
10
16.531508
20
1.50808
30
0
10
16.558616
20
1.17359
30
0
10
16.914119
20
0.855575
30
0
10
17.249282
20
0.872529
30
0
10
17.562871
20
1.244767
30
0
10
17.53412
20
1.599542
30
0
10
17.498202
20
1.953664
30
0
10
17.122435
20
2.263016
30
0
8
gear_texts
0
LWPOLYLINE
5
2040
100
AcDbEntity
100
AcDbPolyline
66
1
90
2
70
0
43
0
10
15.928156
20
0.161009
30
0
10
15.592582
20
0.157617
30
0
8
gear_texts
0
LWPOLYLINE
5
2041
100
AcDbEntity
100
AcDbPolyline
66
1
90
9
70
0
43
0
10
15.863101
20
-1.447104
30
0
10
15.55436
20
-1.102414
30
0
10
15.573467
20
-0.78776
30
0
10
15.921646
20
-0.48296
30
0
10
17.263395
20
-0.52366
30
0
10
17.584445
20
-0.889483
30
0
10
17.562871
20
-1.244767
30
0
10
17.199916
20
-1.569055
30
0
10
15.863101
20
-1.447104
30
0
8
gear_texts
0
LWPOLYLINE
5
2042
100
AcDbEntity
100
AcDbPolyline
66
1
90
15
70
0
43
0
10
15.243389
20
-3.285202
30
0
10
15.306683
20
-2.976388
30
0
10
15.363723
20
-2.666359
30
0
10
15.414483
20
-2.355239
30
0
10
15.458944
20
-2.043158
30
0
10
16.124341
20
-2.131101
30
0
10
16.409707
20
-2.507304
30
0
10
16.35567
20
-2.83851
30
0
10
16.294948
20
-3.168557
30
0
10
16.555625
20
-3.56801
30
0
10
16.883685
20
-3.638712
30
0
10
17.283212
20
-3.360725
30
0
10
17.347617
20
-3.010662
30
0
10
17.404932
20
-2.659368
30
0
10
17.122435
20
-2.263016
30
0
8
gear_texts
0
LWPOLYLINE
5
2043
100
AcDbEntity
100
AcDbPolyline
66
1
90
7
70
0
43
0
10
15.969808
20
-7.414115
30
0
10
14.143482
20
-6.566228
30
0
10
14.7341
20
-6.481678
30
0
10
15.326892
20
-6.37585
30
0
10
15.921236
20
-6.248625
30
0
10
16.51651
20
-6.099901
30
0
10
14.627662
20
-5.40231
30
0
8
gear_texts
0
LWPOLYLINE
5
2044
100
AcDbEntity
100
AcDbPolyline
66
1
90
5
70
0
43
0
10
14.38526
20
-8.93777
30
0
10
14.562996
20
-8.645149
30
0
10
14.73478
20
-8.348994
30
0
10
14.900542
20
-8.049428
30
0
10
15.060215
20
-7.746571
30
0
8
gear_texts
0
LWPOLYLINE
5
2045
100
AcDbEntity
100
AcDbPolyline
66
1
90
5
70
0
43
0
10
13.815155
20
-8.583556
30
0
10
13.985847
20
-8.302531
30
0
10
14.150823
20
-8.018114
30
0
10
14.310016
20
-7.730419
30
0
10
14.463361
20
-7.439566
30
0
8
gear_texts
0
LWPOLYLINE
5
2046
100
AcDbEntity
100
AcDbPolyline
66
1
90
15
70
0
43
0
10
12.151985
20
-9.771525
30
0
10
12.347031
20
-9.523879
30
0
10
12.537031
20
-9.27234
30
0
10
12.721908
20
-9.017012
30
0
10
12.901585
20
-8.757999
30
0
10
13.456906
20
-9.134968
30
0
10
13.543288
20
-9.599188
30
0
10
13.346475
20
-9.871002
30
0
10
13.144208
20
-10.138781
30
0
10
13.198096
20
-10.612713
30
0
10
13.459624
20
-10.82301
30
0
10
13.941384
20
-10.753683
30
0
10
14.155919
20
-10.469663
30
0
10
14.364668
20
-10.181365
30
0
10
14.289887
20
-9.700421
30
0
8
gear_texts
0
LWPOLYLINE
5
2047
100
AcDbEntity
100
AcDbPolyline
66
1
90
13
70
0
43
0
10
13.011144
20
-11.358221
30
0
10
13.027181
20
-11.844679
30
0
10
12.785082
20
-12.105601
30
0
10
12.537757
20
-12.361575
30
0
10
12.051148
20
-12.3721
30
0
10
11.816988
20
-12.131704
30
0
10
11.820841
20
-11.654733
30
0
10
11.348667
20
-11.65091
30
0
10
11.114506
20
-11.410514
30
0
10
11.103924
20
-10.947891
30
0
10
11.322965
20
-10.72119
30
0
10
11.537378
20
-10.490108
30
0
10
11.999889
20
-10.475435
30
0
8
gear_texts
0
LWPOLYLINE
5
2048
100
AcDbEntity
100
AcDbPolyline
66
1
90
2
70
0
43
0
10
12.054023
20
-11.413395
30
0
10
11.820841
20
-11.654733
30
0
8
gear_texts
0
LWPOLYLINE
5
2049
100
AcDbEntity
100
AcDbPolyline
66
1
90
10
70
0
43
0
10
9.196135
20
-12.593036
30
0
10
8.93969
20
-12.77636
30
0
10
8.679592
20
-12.954464
30
0
10
8.415946
20
-13.127273
30
0
10
8.324237
20
-13.580838
30
0
10
9.025737
20
-14.725322
30
0
10
9.502685
20
-14.822377
30
0
10
9.800374
20
-14.627254
30
0
10
10.094058
20
-14.426152
30
0
10
10.383617
20
-14.219155
30
0
8
gear_texts
0
LWPOLYLINE
5
2050
100
AcDbEntity
100
AcDbPolyline
66
1
90
2
70
0
43
0
10
10.094058
20
-14.426152
30
0
10
8.93969
20
-12.77636
30
0
8
gear_texts
0
LWPOLYLINE
5
2051
100
AcDbEntity
100
AcDbPolyline
66
1
90
5
70
0
43
0
10
7.038194
20
-15.404002
30
0
10
7.348144
20
-15.258578
30
0
10
7.655091
20
-15.106919
30
0
10
7.95891
20
-14.949086
30
0
10
8.259477
20
-14.785144
30
0
8
gear_texts
0
LWPOLYLINE
5
2052
100
AcDbEntity
100
AcDbPolyline
66
1
90
5
70
0
43
0
10
6.759262
20
-14.793523
30
0
10
7.056929
20
-14.653863
30
0
10
7.351711
20
-14.508215
30
0
10
7.64349
20
-14.356637
30
0
10
7.932144
20
-14.199191
30
0
8
gear_texts
0
LWPOLYLINE
5
2053
100
AcDbEntity
100
AcDbPolyline
66
1
90
9
70
0
43
0
10
4.919585
20
-15.502698
30
0
10
5.231964
20
-15.400081
30
0
10
5.542204
20
-15.291172
30
0
10
5.850179
20
-15.176012
30
0
10
6.155764
20
-15.054651
30
0
10
6.011124
20
-15.593521
30
0
10
5.847148
20
-16.132524
30
0
10
5.663774
20
-16.671099
30
0
10
5.016058
20
-14.764573
30
0
8
gear_texts
0
LWPOLYLINE
5
2054
100
AcDbEntity
100
AcDbPolyline
66
1
90
14
70
0
43
0
10
4.37742
20
-16.012597
30
0
10
4.052834
20
-16.097814
30
0
10
3.726592
20
-16.176452
30
0
10
3.398827
20
-16.248478
30
0
10
3.007615
20
-15.984061
30
0
10
2.945558
20
-15.654257
30
0
10
3.192693
20
-15.263032
30
0
10
3.500579
20
-15.195374
30
0
10
3.807035
20
-15.121505
30
0
10
4.20043
20
-15.36517
30
0
10
4.465914
20
-16.336311
30
0
10
4.216699
20
-16.748686
30
0
10
3.952604
20
-17.157529
30
0
10
3.60496
20
-17.233924
30
0
8
gear_texts
0
LWPOLYLINE
5
2055
100
AcDbEntity
100
AcDbPolyline
66
1
90
2
70
0
43
0
10
2.310385
20
-15.760527
30
0
10
2.26171
20
-15.428484
30
0
8
gear_texts
0
LWPOLYLINE
5
2056
100
AcDbEntity
100
AcDbPolyline
66
1
90
9
70
0
43
0
10
0.39453
20
-16.259775
30
0
10
0.723137
20
-16.248478
30
0
10
1.051449
20
-16.230539
30
0
10
1.379331
20
-16.205968
30
0
10
1.70665
20
-16.174774
30
0
10
1.417278
20
-16.651811
30
0
10
1.109302
20
-17.123578
30
0
10
0.78282
20
-17.589516
30
0
10
0.693296
20
-15.577958
30
0
8
gear_texts
0
LWPOLYLINE
5
2057
100
AcDbEntity
100
AcDbPolyline
66
1
90
14
70
0
43
0
10
-0.268461
20
-16.597982
30
0
10
-0.603931
20
-16.589163
30
0
10
-0.939154
20
-16.573565
30
0
10
-1.273994
20
-16.551194
30
0
10
-1.575798
20
-16.188045
30
0
10
-1.543284
20
-15.854033
30
0
10
-1.196728
20
-15.547388
30
0
10
-0.882196
20
-15.568403
30
0
10
-0.567304
20
-15.583055
30
0
10
-0.257607
20
-15.926887
30
0
10
-0.273889
20
-16.933529
30
0
10
-0.62835
20
-17.259902
30
0
10
-0.996113
20
-17.578727
30
0
10
-1.35126
20
-17.554999
30
0
8
gear_texts
0
LWPOLYLINE
5
2058
100
AcDbEntity
100
AcDbPolyline
66
1
90
2
70
0
43
0
10
-2.136876
20
-15.446268
30
0
10
-2.32083
20
-16.77597
30
0
8
gear_texts
0
LWPOLYLINE
5
2059
100
AcDbEntity
100
AcDbPolyline
66
1
90
6
70
0
43
0
10
-2.274841
20
-16.443545
30
0
10
-2.659478
20
-16.725627
30
0
10
-2.937652
20
-16.338154
30
0
10
-3.333377
20
-16.604458
30
0
10
-3.595661
20
-16.206057
30
0
10
-3.377589
20
-15.223184
30
0
8
gear_texts
0
LWPOLYLINE
5
2060
100
AcDbEntity
100
AcDbPolyline
66
1
90
2
70
0
43
0
10
-2.878264
20
-16.007859
30
0
10
-2.937652
20
-16.338154
30
0
8
gear_texts
0
LWPOLYLINE
5
2061
100
AcDbEntity
100
AcDbPolyline
66
1
90
2
70
0
43
0
10
-3.99017
20
-15.074216
30
0
10
-4.333667
20
-16.371889
30
0
8
gear_texts
0
LWPOLYLINE
5
2062
100
AcDbEntity
100
AcDbPolyline
66
1
90
6
70
0
43
0
10
-4.247793
20
-16.047471
30
0
10
-4.663735
20
-16.28094
30
0
10
-4.892981
20
-15.862655
30
0
10
-5.318021
20
-16.07912
30
0
10
-5.530171
20
-15.65191
30
0
10
-5.194775
20
-14.702645
30
0
8
gear_texts
0
LWPOLYLINE
5
2063
100
AcDbEntity
100
AcDbPolyline
66
1
90
2
70
0
43
0
10
-4.794064
20
-15.541972
30
0
10
-4.892981
20
-15.862655
30
0
8
gear_texts
0
LWPOLYLINE
5
2064
100
AcDbEntity
100
AcDbPolyline
66
1
90
11
70
0
43
0
10
-7.682456
20
-14.715466
30
0
10
-7.978357
20
-14.55716
30
0
10
-8.270996
20
-14.392904
30
0
10
-8.560256
20
-14.222767
30
0
10
-9.024849
20
-14.330789
30
0
10
-9.203682
20
-14.614762
30
0
10
-9.079423
20
-15.085356
30
0
10
-8.77262
20
-15.265812
30
0
10
-8.462232
20
-15.44003
30
0
10
-8.148386
20
-15.607937
30
0
10
-7.216527
20
-13.822995
30
0
8
gear_texts
0
LWPOLYLINE
5
2065
100
AcDbEntity
100
AcDbPolyline
66
1
90
7
70
0
43
0
10
-8.836083
20
-12.848232
30
0
10
-9.216413
20
-13.401257
30
0
10
-9.876865
20
-13.757433
30
0
10
-10.555324
20
-14.092162
30
0
10
-10.424887
20
-13.346954
30
0
10
-10.268804
20
-12.612994
30
0
10
-9.845045
20
-12.092499
30
0
8
gear_texts
0
LWPOLYLINE
5
2066
100
AcDbEntity
100
AcDbPolyline
66
1
90
5
70
0
43
0
10
-9.216413
20
-13.401257
30
0
10
-9.485434
20
-13.21221
30
0
10
-9.750577
20
-13.017765
30
0
10
-10.011736
20
-12.817999
30
0
10
-10.268804
20
-12.612994
30
0
8
gear_texts
0
LWPOLYLINE
5
2067
100
AcDbEntity
100
AcDbPolyline
66
1
90
5
70
0
43
0
10
-12.203148
20
-11.743194
30
0
10
-11.963269
20
-11.987478
30
0
10
-11.7185
20
-12.226864
30
0
10
-11.468942
20
-12.461252
30
0
10
-11.214696
20
-12.690548
30
0
8
gear_texts
0
LWPOLYLINE
5
2068
100
AcDbEntity
100
AcDbPolyline
66
1
90
5
70
0
43
0
10
-11.719524
20
-11.277798
30
0
10
-11.489151
20
-11.512401
30
0
10
-11.254082
20
-11.742299
30
0
10
-11.014414
20
-11.967399
30
0
10
-10.770245
20
-12.187607
30
0
8
gear_texts
0
LWPOLYLINE
5
2069
100
AcDbEntity
100
AcDbPolyline
66
1
90
15
70
0
43
0
10
-12.461642
20
-9.373416
30
0
10
-12.269614
20
-9.62341
30
0
10
-12.072571
20
-9.869471
30
0
10
-11.870595
20
-10.111499
30
0
10
-11.663768
20
-10.349395
30
0
10
-12.165809
20
-10.794862
30
0
10
-12.637011
20
-10.76434
30
0
10
-12.852028
20
-10.506686
30
0
10
-13.061792
20
-10.244738
30
0
10
-13.53441
20
-10.180333
30
0
10
-13.802602
20
-10.382062
30
0
10
-13.85397
20
-10.866066
30
0
10
-13.631484
20
-11.143901
30
0
10
-13.403427
20
-11.417182
30
0
10
-12.918871
20
-11.463063
30
0
8
gear_texts
0
LWPOLYLINE
5
2070
100
AcDbEntity
100
AcDbPolyline
66
1
90
9
70
0
43
0
10
-13.631073
20
-8.241718
30
0
10
-13.178073
20
-8.336177
30
0
10
-13.006866
20
-8.600866
30
0
10
-13.10647
20
-9.052763
30
0
10
-14.210978
20
-9.815657
30
0
10
-14.686422
20
-9.711482
30
0
10
-14.879737
20
-9.412615
30
0
10
-14.779791
20
-8.936264
30
0
10
-13.631073
20
-8.241718
30
0
8
gear_texts
0
ENDSEC
0
SECTION
2
OBJECTS
0
DICTIONARY
5
21D
330
0
100
AcDbDictionary
281
1
3
ACAD_CIP_PREVIOUS_PRODUCT_INFO
350
291
3
ACAD_COLOR
350
273
3
ACAD_DETAILVIEWSTYLE
350
27B
3
ACAD_GROUP
350
21E
3
ACAD_LAYOUT
350
272
3
ACAD_MATERIAL
350
221
3
ACAD_MLEADERSTYLE
350
276
3
ACAD_MLINESTYLE
350
26F
3
ACAD_PLOTSETTINGS
350
271
3
ACAD_PLOTSTYLENAME
350
21F
3
ACAD_SCALELIST
350
253
3
ACAD_SECTIONVIEWSTYLE
350
278
3
ACAD_TABLESTYLE
350
274
3
ACAD_VISUALSTYLE
350
23A
3
ACDB_RECOMPOSE_DATA
350
1057
3
AcDbVariableDictionary
350
29D
0
DICTIONARY
5
297
330
213
100
AcDbDictionary
280
1
281
1
3
ACAD_LAYERSTATES
360
298
0
DICTIONARY
5
292
330
265
100
AcDbDictionary
280
1
281
1
3
ADSK_XREC_LAYER_RECONCILED
360
293
0
XRECORD
5
291
102
{ACAD_REACTORS
330
21D
102
}
330
21D
100
AcDbXrecord
280
1
300
ACDMAC
300
2013
300
ACDMAC_F_S
0
DICTIONARY
5
273
102
{ACAD_REACTORS
330
21D
102
}
330
21D
100
AcDbDictionary
281
1
0
DICTIONARY
5
21E
102
{ACAD_REACTORS
330
21D
102
}
330
21D
100
AcDbDictionary
281
1
0
DICTIONARY
5
272
102
{ACAD_REACTORS
330
21D
102
}
330
21D
100
AcDbDictionary
281
1
3
Layout1
350
280
3
Model
350
284
0
DICTIONARY
5
221
102
{ACAD_REACTORS
330
21D
102
}
330
21D
100
AcDbDictionary
281
1
3
ByBlock
350
22A
3
ByLayer
350
222
3
Global
350
232
0
DICTIONARY
5
276
102
{ACAD_REACTORS
330
21D
102
}
330
21D
100
AcDbDictionary
281
1
3
Standard
350
277
0
DICTIONARY
5
26F
102
{ACAD_REACTORS
330
21D
102
}
330
21D
100
AcDbDictionary
281
1
3
Standard
350
270
0
DICTIONARY
5
271
102
{ACAD_REACTORS
330
21D
102
}
330
21D
100
AcDbDictionary
281
1
0
ACDBDICTIONARYWDFLT
5
21F
102
{ACAD_REACTORS
330
21D
102
}
330
21D
100
AcDbDictionary
281
1
3
Normal
350
220
100
AcDbDictionaryWithDefault
340
220
0
DICTIONARY
5
253
102
{ACAD_REACTORS
330
21D
102
}
330
21D
100
AcDbDictionary
281
1
3
A0
350
254
3
A1
350
255
3
A2
350
256
3
A3
350
257
3
A4
350
258
3
A5
350
259
3
A6
350
25A
3
A7
350
25B
3
A8
350
25C
3
A9
350
25D
3
B0
350
25E
3
B1
350
25F
3
B2
350
260
3
B3
350
261
3
B4
350
262
3
B5
350
263
3
B6
350
264
0
DICTIONARY
5
274
102
{ACAD_REACTORS
330
21D
102
}
330
21D
100
AcDbDictionary
281
1
3
Standard
350
275
0
DICTIONARY
5
23A
102
{ACAD_REACTORS
330
21D
102
}
330
21D
100
AcDbDictionary
281
1
3
2dWireframe
350
240
3
Basic
350
23F
3
Brighten
350
246
3
ColorChange
350
24A
3
Conceptual
350
243
3
Dim
350
245
3
EdgeColorOff
350
252
3
Facepattern
350
249
3
Flat
350
23B
3
FlatWithEdges
350
23C
3
Gouraud
350
23D
3
GouraudWithEdges
350
23E
3
Hidden
350
242
3
JitterOff
350
250
3
Linepattern
350
248
3
OverhangOff
350
251
3
Realistic
350
244
3
Shaded
350
24F
3
Shaded with edges
350
24E
3
Shades of Gray
350
24B
3
Sketchy
350
24C
3
Thicken
350
247
3
Wireframe
350
241
3
X-Ray
350
24D
0
XRECORD
5
1057
102
{ACAD_REACTORS
330
21D
102
}
330
21D
100
AcDbXrecord
280
1
90
1
330
275
0
DICTIONARY
5
29D
102
{ACAD_REACTORS
330
21D
102
}
330
21D
100
AcDbDictionary
281
1
3
CANNOSCALE
350
2A3
3
CMLEADERSTYLE
350
29F
3
CTABLESTYLE
350
29E
3
CVIEWDETAILSTYLE
350
2A0
3
CVIEWSECTIONSTYLE
350
2A1
3
LAYEREVAL
350
2A5
3
LAYERNOTIFY
350
2A6
3
LIGHTINGUNITS
350
2A4
3
MSLTSCALE
350
2A2
0
ENDSEC
0
EOF
