0
SECTION
2
HEADER
9
$ACADVER
1
AC1027
9
$ACADMAINTVER
70
8
9
$DWGCODEPAGE
3
ANSI_1252
9
$LASTSAVEDBY
1
macc
9
$REQUIREDVERSIONS
160
0
9
$INSBASE
10
0.0
20
0.0
30
0.0
9
$EXTMIN
10
1.000000000000000E+20
20
1.000000000000000E+20
30
1.000000000000000E+20
9
$EXTMAX
10
-1.000000000000000E+20
20
-1.000000000000000E+20
30
-1.000000000000000E+20
9
$LIMMIN
10
0.0
20
0.0
9
$LIMMAX
10
12.0
20
9.0
9
$MEASUREMENT
70
1
9
$CELWEIGHT
370
-1
9
$ENDCAPS
280
0
9
$JOINSTYLE
280
0
9
$LWDISPLAY
290
0
9
$INSUNITS
70
0
9
$HYPERLINKBASE
1

9
$STYLESHEET
1

9
$XEDIT
290
1
9
$CEPSNTYPE
380
0
9
$PSTYLEMODE
290
1
9
$EXTNAMES
290
1
9
$PSVPSCALE
40
0.0
9
$OLESTARTUP
290
0
9
$SORTENTS
280
127
9
$INDEXCTL
280
0
9
$HIDETEXT
280
0
9
$XCLIPFRAME
280
2
9
$HALOGAP
280
0
9
$OBSCOLOR
70
257
9
$OBSLTYPE
280
0
9
$INTERSECTIONDISPLAY
280
0
9
$INTERSECTIONCOLOR
70
257
9
$DIMASSOC
280
1
9
$PROJECTNAME
1

9
$CAMERADISPLAY
290
0
9
$LENSLENGTH
40
50.0
9
$CAMERAHEIGHT
40
0.0
9
$STEPSPERSEC
40
2.0
9
$STEPSIZE
40
6.0
9
$3DDWFPREC
40
2.0
9
$PSOLWIDTH
40
0.25
9
$PSOLHEIGHT
40
4.0
9
$LOFTANG1
40
1.570796326794896
9
$LOFTANG2
40
1.570796326794896
9
$LOFTMAG1
40
0.0
9
$LOFTMAG2
40
0.0
9
$LOFTPARAM
70
7
9
$LOFTNORMALS
280
1
9
$LATITUDE
40
37.795
9
$LONGITUDE
40
-122.394
9
$NORTHDIRECTION
40
0.0
9
$TIMEZONE
70
-8000
9
$LIGHTGLYPHDISPLAY
280
1
9
$TILEMODELIGHTSYNCH
280
1
9
$CMATERIAL
347
222
9
$SOLIDHIST
280
0
9
$SHOWHIST
280
1
9
$DWFFRAME
280
2
9
$DGNFRAME
280
0
9
$REALWORLDSCALE
290
1
9
$INTERFERECOLOR
62
1
9
$INTERFEREOBJVS
345
244
9
$INTERFEREVPVS
346
241
9
$CSHADOW
280
0
9
$SHADOWPLANELOCATION
40
0.0
0
ENDSEC
0
SECTION
2
CLASSES
0
CLASS
1
ACDBDICTIONARYWDFLT
2
AcDbDictionaryWithDefault
3
ObjectDBX Classes
90
0
91
1
280
0
281
0
0
CLASS
1
MATERIAL
2
AcDbMaterial
3
ObjectDBX Classes
90
1153
91
3
280
0
281
0
0
CLASS
1
VISUALSTYLE
2
AcDbVisualStyle
3
ObjectDBX Classes
90
4095
91
24
280
0
281
0
0
CLASS
1
SCALE
2
AcDbScale
3
ObjectDBX Classes
90
1153
91
17
280
0
281
0
0
CLASS
1
TABLESTYLE
2
AcDbTableStyle
3
ObjectDBX Classes
90
4095
91
1
280
0
281
0
0
CLASS
1
MLEADERSTYLE
2
AcDbMLeaderStyle
3
ACDB_MLEADERSTYLE_CLASS
90
4095
91
1
280
0
281
0
0
CLASS
1
ACDBSECTIONVIEWSTYLE
2
AcDbSectionViewStyle
3
ObjectDBX Classes
90
1025
91
1
280
0
281
0
0
CLASS
1
ACDBDETAILVIEWSTYLE
2
AcDbDetailViewStyle
3
ObjectDBX Classes
90
1025
91
1
280
0
281
0
0
CLASS
1
DICTIONARYVAR
2
AcDbDictionaryVar
3
ObjectDBX Classes
90
0
91
9
280
0
281
0
0
CLASS
1
CELLSTYLEMAP
2
AcDbCellStyleMap
3
ObjectDBX Classes
90
1152
91
2
280
0
281
0
0
ENDSEC
0
SECTION
2
TABLES
0
TABLE
2
VPORT
5
219
330
0
100
AcDbSymbolTable
70
1
0
VPORT
5
285
330
219
100
AcDbSymbolTableRecord
100
AcDbViewportTableRecord
2
*ACTIVE
70
0
10
0.0
20
0.0
11
1.0
21
1.0
12
60.85393284500712
22
1.602311788490737
13
0.0
23
0.0
14
0.5
24
0.5
15
0.5
25
0.5
16
0.0
26
0.0
36
1.0
17
0.0
27
0.0
37
0.0
40
135.7601553851812
41
1.367970660146699
42
50.0
43
0.0
44
0.0
50
0.0
51
0.0
71
0
72
1000
73
1
74
3
75
0
76
1
77
0
78
0
281
0
65
1
110
0.0
120
0.0
130
0.0
111
1.0
121
0.0
131
0.0
112
0.0
122
1.0
132
0.0
79
0
146
0.0
348
240
60
3
61
5
292
1
282
0
141
0.0
142
0.0
63
250
421
3355443
1001
ACAD_NAV_VCDISPLAY
1070
3
0
ENDTAB
0
TABLE
2
LTYPE
5
216
330
0
100
AcDbSymbolTable
70
2
0
LTYPE
5
26B
330
216
100
AcDbSymbolTableRecord
100
AcDbLinetypeTableRecord
2
ByBlock
70
0
3

72
65
73
0
40
0.0
0
LTYPE
5
26C
330
216
100
AcDbSymbolTableRecord
100
AcDbLinetypeTableRecord
2
ByLayer
70
0
3

72
65
73
0
40
0.0
0
LTYPE
5
26D
330
216
100
AcDbSymbolTableRecord
100
AcDbLinetypeTableRecord
2
CONTINUOUS
70
0
3
Solid line
72
65
73
0
40
0.0
0
LTYPE
5
103D
330
216
100
AcDbSymbolTableRecord
100
AcDbLinetypeTableRecord
2
DOTTED
70
0
3
Dotted . . . . . . . . . . . . . . . . . . . .
72
65
73
2
40
3.0
49
0.0
74
0
49
-3.0
74
0
0
ENDTAB
0
TABLE
2
LAYER
5
213
102
{ACAD_XDICTIONARY
360
297
102
}
330
0
100
AcDbSymbolTable
70
4
0
LAYER
5
265
102
{ACAD_XDICTIONARY
360
292
102
}
330
213
100
AcDbSymbolTableRecord
100
AcDbLayerTableRecord
2
0
70
0
62
7
6
CONTINUOUS
370
-3
390
220
347
232
348
0
0
LAYER
5
1900
330
213
100
AcDbSymbolTableRecord
100
AcDbLayerTableRecord
2
gear
70
0
62
7
6
CONTINUOUS
370
-3
390
220
347
232
348
0
1001
AcAecLayerStandard
1000

1000

1001
AcCmTransparency
1071
0
0
LAYER
5
1901
330
213
100
AcDbSymbolTableRecord
100
AcDbLayerTableRecord
2
gear_guides
70
0
62
5
6
CONTINUOUS
370
-3
390
220
347
232
348
0
1001
AcAecLayerStandard
1000

1000

1001
AcCmTransparency
1071
0
0
LAYER
5
1902
330
213
100
AcDbSymbolTableRecord
100
AcDbLayerTableRecord
2
gear_texts
70
0
62
7
6
CONTINUOUS
370
-3
390
220
347
232
348
0
1001
AcAecLayerStandard
1000

1000

1001
AcCmTransparency
1071
0
0
ENDTAB
0
TABLE
2
STYLE
5
214
330
0
100
AcDbSymbolTable
70
3
0
STYLE
5
266
330
214
100
AcDbSymbolTableRecord
100
AcDbTextStyleTableRecord
2
STANDARD
70
0
40
0.0
41
1.0
50
0.0
71
0
42
0.2
3
txt
4

0
STYLE
5
26A
330
214
100
AcDbSymbolTableRecord
100
AcDbTextStyleTableRecord
2
ANNOTATIVE
70
0
40
0.0
41
1.0
50
0.0
71
0
42
0.2
3
txt
4

1001
ACADANNOTATIVE
1000
AnnotativeData
1002
{
1070
1
1070
1
1002
}
0
STYLE
5
301
330
214
100
AcDbSymbolTableRecord
100
AcDbTextStyleTableRecord
2

70
1
40
0.0
41
1.0
50
0.0
71
0
42
0.2
3
ltypeshp.shx
4

0
ENDTAB
0
TABLE
2
VIEW
5
217
330
0
100
AcDbSymbolTable
70
1
0
ENDTAB
0
TABLE
2
UCS
5
218
330
0
100
AcDbSymbolTable
70
0
0
ENDTAB
0
TABLE
2
APPID
5
21A
330
0
100
AcDbSymbolTable
70
10
0
APPID
5
267
330
21A
100
AcDbSymbolTableRecord
100
AcDbRegAppTableRecord
2
ACAD
70
0
0
APPID
5
26E
330
21A
100
AcDbSymbolTableRecord
100
AcDbRegAppTableRecord
2
ACADANNOTATIVE
70
0
0
APPID
5
286
330
21A
100
AcDbSymbolTableRecord
100
AcDbRegAppTableRecord
2
ACADANNOPO
70
0
0
APPID
5
287
330
21A
100
AcDbSymbolTableRecord
100
AcDbRegAppTableRecord
2
ACAD_DSTYLE_DIMJAG
70
0
0
APPID
5
288
330
21A
100
AcDbSymbolTableRecord
100
AcDbRegAppTableRecord
2
ACAD_DSTYLE_DIMTALN
70
0
0
APPID
5
289
330
21A
100
AcDbSymbolTableRecord
100
AcDbRegAppTableRecord
2
ACAD_MLEADERVER
70
0
0
APPID
5
28A
330
21A
100
AcDbSymbolTableRecord
100
AcDbRegAppTableRecord
2
ACAD_NAV_VCDISPLAY
70
0
0
APPID
5
2E7
330
21A
100
AcDbSymbolTableRecord
100
AcDbRegAppTableRecord
2
ACAD_EXEMPT_FROM_CAD_STANDARDS
70
0
0
APPID
5
2FC
330
21A
100
AcDbSymbolTableRecord
100
AcDbRegAppTableRecord
2
AcAecLayerStandard
70
0
0
APPID
5
2FD
330
21A
100
AcDbSymbolTableRecord
100
AcDbRegAppTableRecord
2
AcCmTransparency
70
0
0
ENDTAB
0
TABLE
2
DIMSTYLE
5
21B
330
0
100
AcDbSymbolTable
70
2
100
AcDbDimStyleTable
71
1
340
268
0
DIMSTYLE
105
268
330
21B
100
AcDbSymbolTableRecord
100
AcDbDimStyleTableRecord
2
STANDARD
70
0
279
2
340
266
0
DIMSTYLE
105
269
330
21B
100
AcDbSymbolTableRecord
100
AcDbDimStyleTableRecord
2
ANNOTATIVE
70
0
40
0.0
279
2
340
266
1001
ACADANNOTATIVE
1000
AnnotativeData
1002
{
1070
1
1070
1
1002
}
0
ENDTAB
0
TABLE
2
BLOCK_RECORD
5
212
330
0
100
AcDbSymbolTable
70
2
0
BLOCK_RECORD
5
281
330
212
100
AcDbSymbolTableRecord
100
AcDbBlockTableRecord
2
*Model_Space
340
284
70
0
280
1
281
0
0
BLOCK_RECORD
5
27D
330
212
100
AcDbSymbolTableRecord
100
AcDbBlockTableRecord
2
*Paper_Space
340
280
70
0
280
1
281
0
0
BLOCK_RECORD
5
28C
330
212
100
AcDbSymbolTableRecord
100
AcDbBlockTableRecord
2
$MODEL_SPACE
340
0
70
0
280
1
281
0
0
BLOCK_RECORD
5
28E
330
212
100
AcDbSymbolTableRecord
100
AcDbBlockTableRecord
2
$PAPER_SPACE
340
0
70
0
280
1
281
0
0
ENDTAB
0
ENDSEC
0
SECTION
2
BLOCKS
0
BLOCK
5
282
330
281
100
AcDbEntity
8
0
100
AcDbBlockBegin
2
*Model_Space
70
0
10
0.0
20
0.0
30
0.0
3
*Model_Space
1

0
ENDBLK
5
283
330
281
100
AcDbEntity
8
0
100
AcDbBlockEnd
0
BLOCK
5
27E
330
27D
100
AcDbEntity
67
1
8
0
100
AcDbBlockBegin
2
*Paper_Space
70
0
10
0.0
20
0.0
30
0.0
3
*Paper_Space
1

0
ENDBLK
5
27F
330
27D
100
AcDbEntity
67
1
8
0
100
AcDbBlockEnd
0
BLOCK
5
28D
330
28C
100
AcDbEntity
8
0
100
AcDbBlockBegin
2
$MODEL_SPACE
70
0
10
0.0
20
0.0
30
0.0
3
$MODEL_SPACE
1

0
ENDBLK
5
21
330
28C
100
AcDbEntity
8
0
100
AcDbBlockEnd
0
BLOCK
5
28F
330
28E
100
AcDbEntity
8
0
100
AcDbBlockBegin
2
$PAPER_SPACE
70
0
10
0.0
20
0.0
30
0.0
3
$PAPER_SPACE
1

0
ENDBLK
5
5B
330
28E
100
AcDbEntity
8
0
100
AcDbBlockEnd
0
ENDSEC
0
SECTION
2
ENTITIES
0
LWPOLYLINE
5
2000
100
AcDbEntity
100
AcDbPolyline
66
1
90
440
70
1
43
0
10
8.787
20
0
30
0
10
10.441575
20
0.000019
30
0
10
10.47411
20
0.001843
30
0
10
10.548242
20
0.010453
30
0
10
10.663073
20
0.031115
30
0
10
10.817208
20
0.068995
30
0
10
11.008758
20
0.129123
30
0
10
11.235362
20
0.216347
30
0
10
11.494195
20
0.335293
30
0
10
11.781993
20
0.490332
30
0
10
12.09507
20
0.685536
30
0
10
12.429346
20
0.924647
30
0
10
12.780375
20
1.21104
30
0
10
12.960689
20
1.372916
30
0
10
13.006163
20
1.415389
30
0
10
13.028952
20
1.43693
30
0
10
13.040359
20
1.447776
30
0
10
13.046066
20
1.453219
30
0
10
13.04892
20
1.455945
30
0
10
13.04896
20
1.456551
30
0
10
12.873737
20
2.58143
30
0
10
12.873515
20
2.581996
30
0
10
12.869967
20
2.583725
30
0
10
12.862875
20
2.587174
30
0
10
12.848709
20
2.594037
30
0
10
12.820448
20
2.607625
30
0
10
12.76421
20
2.634255
30
0
10
12.543203
20
2.733617
30
0
10
12.121696
20
2.899672
30
0
10
11.73053
20
3.025781
30
0
10
11.372913
20
3.116511
30
0
10
11.051594
20
3.176667
30
0
10
10.768845
20
3.211252
30
0
10
10.526448
20
3.225418
30
0
10
10.325684
20
3.224435
30
0
10
10.167331
20
3.21364
30
0
10
10.051656
20
3.198395
30
0
10
9.978417
20
3.18405
30
0
10
9.946869
20
3.175892
30
0
10
8.37068
20
2.672654
30
0
10
7.392095
20
4.750611
30
0
10
8.784002
20
5.645157
30
0
10
8.810386
20
5.664281
30
0
10
8.868094
20
5.711604
30
0
10
8.953526
20
5.791068
30
0
10
9.062712
20
5.906267
30
0
10
9.191347
20
6.060409
30
0
10
9.334822
20
6.256298
30
0
10
9.488259
20
6.496298
30
0
10
9.64655
20
6.78232
30
0
10
9.804391
20
7.115798
30
0
10
9.956329
20
7.497674
30
0
10
10.096798
20
7.928384
30
0
10
10.160971
20
8.162048
30
0
10
10.176263
20
8.222363
30
0
10
10.183789
20
8.252805
30
0
10
10.187521
20
8.268097
30
0
10
10.18938
20
8.275761
30
0
10
10.190307
20
8.279597
30
0
10
10.190013
20
8.280129
30
0
10
9.43445
20
9.131705
30
0
10
9.433957
20
9.132061
30
0
10
9.430038
20
9.131597
30
0
10
9.422207
20
9.130665
30
0
10
9.40658
20
9.128779
30
0
10
9.375458
20
9.124932
30
0
10
9.313751
20
9.116929
30
0
10
9.074109
20
9.081032
30
0
10
8.629738
20
8.992843
30
0
10
8.232489
20
8.887452
30
0
10
7.88259
20
8.770436
30
0
10
7.579757
20
8.647326
30
0
10
7.323195
20
8.523554
30
0
10
7.111619
20
8.404422
30
0
10
6.943257
20
8.295054
30
0
10
6.815878
20
8.20036
30
0
10
6.726808
20
8.124997
30
0
10
6.672951
20
8.073333
30
0
10
6.650822
20
8.049414
30
0
10
5.596919
20
6.773911
30
0
10
3.650252
20
7.992936
30
0
10
4.33757
20
9.497998
30
0
10
4.349426
20
9.528351
30
0
10
4.372389
20
9.599361
30
0
10
4.401298
20
9.712398
30
0
10
4.43087
20
9.86834
30
0
10
4.455749
20
10.067558
30
0
10
4.470542
20
10.309918
30
0
10
4.469868
20
10.594774
30
0
10
4.448395
20
10.920969
30
0
10
4.400888
20
11.286844
30
0
10
4.322249
20
11.690243
30
0
10
4.207559
20
12.128522
30
0
10
4.135217
20
12.359787
30
0
10
4.115472
20
12.418796
30
0
10
4.105345
20
12.448474
30
0
10
4.100217
20
12.463356
30
0
10
4.097638
20
12.470808
30
0
10
4.096344
20
12.474537
30
0
10
4.095808
20
12.474825
30
0
10
2.999792
20
12.782728
30
0
10
2.999185
20
12.782761
30
0
10
2.996138
20
12.780252
30
0
10
2.990055
20
12.775234
30
0
10
2.977928
20
12.765199
30
0
10
2.953827
20
12.745136
30
0
10
2.906242
20
12.705043
30
0
10
2.724049
20
12.545284
30
0
10
2.3979
20
12.23085
30
0
10
2.120691
20
11.92742
30
0
10
1.889601
20
11.639811
30
0
10
1.7014
20
11.372519
30
0
10
1.552483
20
11.129688
30
0
10
1.438901
20
10.915081
30
0
10
1.356395
20
10.732052
30
0
10
1.300432
20
10.583524
30
0
10
1.266246
20
10.471969
30
0
10
1.24887
20
10.399389
30
0
10
1.243186
20
10.367303
30
0
10
1.046175
20
8.724499
30
0
10
-1.25052
20
8.697561
30
0
10
-1.486009
20
10.335292
30
0
10
-1.492445
20
10.367236
30
0
10
-1.511518
20
10.439388
30
0
10
-1.548312
20
10.550111
30
0
10
-1.607742
20
10.697285
30
0
10
-1.694519
20
10.878329
30
0
10
-1.813103
20
11.090213
30
0
10
-1.967675
20
11.329484
30
0
10
-2.162094
20
11.592288
30
0
10
-2.399866
20
11.874397
30
0
10
-2.684115
20
12.171242
30
0
10
-3.01755
20
12.47794
30
0
10
-3.20344
20
12.633382
30
0
10
-3.251952
20
12.672348
30
0
10
-3.276517
20
12.69184
30
0
10
-3.288877
20
12.701587
30
0
10
-3.295076
20
12.706461
30
0
10
-3.29818
20
12.708898
30
0
10
-3.298786
20
12.708852
30
0
10
-4.387279
20
12.375326
30
0
10
-4.387808
20
12.375025
30
0
10
-4.389014
20
12.371267
30
0
10
-4.391418
20
12.363756
30
0
10
-4.396195
20
12.348758
30
0
10
-4.405624
20
12.31885
30
0
10
-4.423978
20
12.259395
30
0
10
-4.490876
20
12.026497
30
0
10
-4.595255
20
11.585648
30
0
10
-4.664411
20
11.180516
30
0
10
-4.703323
20
10.813627
30
0
10
-4.717139
20
10.487018
30
0
10
-4.711132
20
10.202225
30
0
10
-4.690658
20
9.960279
30
0
10
-4.661113
20
9.761699
30
0
10
-4.627892
20
9.606494
30
0
10
-4.59634
20
9.494165
30
0
10
-4.571718
20
9.423713
30
0
10
-4.559153
20
9.393647
30
0
10
-3.836722
20
7.905121
30
0
10
-5.754261
20
6.640772
30
0
10
-6.837791
20
7.891204
30
0
10
-6.860476
20
7.914597
30
0
10
-6.915529
20
7.964984
30
0
10
-7.006343
20
8.038237
30
0
10
-7.135908
20
8.129918
30
0
10
-7.306788
20
8.235306
30
0
10
-7.521101
20
8.349443
30
0
10
-7.780495
20
8.467163
30
0
10
-8.086133
20
8.583137
30
0
10
-8.43868
20
8.691913
30
0
10
-8.838292
20
8.787958
30
0
10
-9.284609
20
8.8657
30
0
10
-9.525027
20
8.895966
30
0
10
-9.586905
20
8.902519
30
0
10
-9.618108
20
8.905636
30
0
10
-9.633776
20
8.907154
30
0
10
-9.641626
20
8.907903
30
0
10
-9.645555
20
8.908275
30
0
10
-9.64604
20
8.907908
30
0
10
-10.38142
20
8.038844
30
0
10
-10.381702
20
8.038305
30
0
10
-10.380685
20
8.034492
30
0
10
-10.378647
20
8.026874
30
0
10
-10.374558
20
8.011674
30
0
10
-10.36632
20
7.981417
30
0
10
-10.349617
20
7.921476
30
0
10
-10.279981
20
7.689382
30
0
10
-10.129449
20
7.262085
30
0
10
-9.968596
20
6.883878
30
0
10
-9.802976
20
6.554194
30
0
10
-9.63802
20
6.271963
30
0
10
-9.478996
20
6.035628
30
0
10
-9.330966
20
5.843159
30
0
10
-9.198751
20
5.692075
30
0
10
-9.086893
20
5.57947
30
0
10
-8.999621
20
5.502031
30
0
10
-8.940818
20
5.456075
30
0
10
-8.913993
20
5.437575
30
0
10
-7.501487
20
4.575922
30
0
10
-8.431065
20
2.475584
30
0
10
-10.018623
20
2.941714
30
0
10
-10.050354
20
2.94913
30
0
10
-10.123909
20
2.961753
30
0
10
-10.23991
20
2.97428
30
0
10
-10.398473
20
2.981359
30
0
10
-10.599204
20
2.977633
30
0
10
-10.841203
20
2.957784
30
0
10
-11.123063
20
2.916578
30
0
10
-11.442882
20
2.848901
30
0
10
-11.798272
20
2.749808
30
0
10
-12.186373
20
2.61456
30
0
10
-12.603869
20
2.438663
30
0
10
-12.822485
20
2.334145
30
0
10
-12.878083
20
2.306204
30
0
10
-12.906018
20
2.291956
30
0
10
-12.920019
20
2.284763
30
0
10
-12.927028
20
2.281148
30
0
10
-12.930534
20
2.279337
30
0
10
-12.930743
20
2.278766
30
0
10
-13.079534
20
1.150087
30
0
10
-13.07948
20
1.149481
30
0
10
-13.076562
20
1.146823
30
0
10
-13.07073
20
1.141516
30
0
10
-13.059071
20
1.130939
30
0
10
-13.035783
20
1.109939
30
0
10
-12.989325
20
1.068544
30
0
10
-12.805264
20
0.910943
30
0
10
-12.447614
20
0.632861
30
0
10
-12.107822
20
0.401657
30
0
10
-11.790253
20
0.21385
30
0
10
-11.498898
20
0.065604
30
0
10
-11.237345
20
-0.047239
30
0
10
-11.008758
20
-0.129123
30
0
10
-10.81585
20
-0.184742
30
0
10
-10.66087
20
-0.218997
30
0
10
-10.545585
20
-0.236959
30
0
10
-10.471271
20
-0.243829
30
0
10
-10.438703
20
-0.244889
30
0
10
-8.784583
20
-0.2061
30
0
10
-8.431065
20
-2.475584
30
0
10
-10.018613
20
-2.941749
30
0
10
-10.049315
20
-2.952666
30
0
10
-10.118019
20
-2.981813
30
0
10
-10.222378
20
-3.03399
30
0
10
-10.359596
20
-3.11376
30
0
10
-10.526448
20
-3.225418
30
0
10
-10.719299
20
-3.37295
30
0
10
-10.934137
20
-3.560001
30
0
10
-11.166597
20
-3.789841
30
0
10
-11.411997
20
-4.065342
30
0
10
-11.665367
20
-4.388943
30
0
10
-11.92149
20
-4.762632
30
0
10
-12.048895
20
-4.968751
30
0
10
-12.080561
20
-5.022315
30
0
10
-12.096358
20
-5.049404
30
0
10
-12.104247
20
-5.063025
30
0
10
-12.10819
20
-5.069855
30
0
10
-12.11016
20
-5.073274
30
0
10
-12.110028
20
-5.073868
30
0
10
-11.624988
20
-6.103815
30
0
10
-11.624615
20
-6.104296
30
0
10
-11.620723
20
-6.104955
30
0
10
-11.612947
20
-6.106266
30
0
10
-11.597422
20
-6.10886
30
0
10
-11.566477
20
-6.113936
30
0
10
-11.505014
20
-6.123643
30
0
10
-11.264966
20
-6.156715
30
0
10
-10.81375
20
-6.197292
30
0
10
-10.4029
20
-6.208087
30
0
10
-10.034208
20
-6.19439
30
0
10
-9.708956
20
-6.161584
30
0
10
-9.427917
20
-6.115108
30
0
10
-9.191347
20
-6.060409
30
0
10
-8.998993
20
-6.002905
30
0
10
-8.850096
20
-5.947933
30
0
10
-8.743401
20
-5.900717
30
0
10
-8.67717
20
-5.866318
30
0
10
-8.649199
20
-5.849603
30
0
10
-7.278635
20
-4.922686
30
0
10
-5.754261
20
-6.640772
30
0
10
-6.837763
20
-7.891228
30
0
10
-6.857691
20
-7.917011
30
0
10
-6.899729
20
-7.978675
30
0
10
-6.959313
20
-8.078989
30
0
10
-7.031621
20
-8.220282
30
0
10
-7.111619
20
-8.404422
30
0
10
-7.194094
20
-8.632797
30
0
10
-7.2737
20
-8.906304
30
0
10
-7.344996
20
-9.225336
30
0
10
-7.402493
20
-9.589775
30
0
10
-7.440689
20
-9.998988
30
0
10
-7.454122
20
-10.451825
30
0
10
-7.449866
20
-10.694104
30
0
10
-7.447546
20
-10.756285
30
0
10
-7.44619
20
-10.787614
30
0
10
-7.445463
20
-10.803338
30
0
10
-7.445087
20
-10.811215
30
0
10
-7.444896
20
-10.815157
30
0
10
-7.444463
20
-10.815584
30
0
10
-6.47959
20
-11.419799
30
0
10
-6.479017
20
-11.420001
30
0
10
-6.475387
20
-11.418452
30
0
10
-6.468136
20
-11.415351
30
0
10
-6.453673
20
-11.40914
30
0
10
-6.424896
20
-11.39668
30
0
10
-6.367943
20
-11.371616
30
0
10
-6.148121
20
-11.269658
30
0
10
-5.746597
20
-11.059848
30
0
10
-5.395131
20
-10.846808
30
0
10
-5.092373
20
-10.635955
30
0
10
-4.83649
20
-10.432512
30
0
10
-4.625192
20
-10.241473
30
0
10
-4.455749
20
-10.067558
30
0
10
-4.325019
20
-9.915188
30
0
10
-4.229479
20
-9.788443
30
0
10
-4.165249
20
-9.691038
30
0
10
-4.128129
20
-9.626294
30
0
10
-4.113635
20
-9.597109
30
0
10
-3.461773
20
-8.076354
30
0
10
-1.25052
20
-8.697561
30
0
10
-1.485973
20
-10.335297
30
0
10
-1.488797
20
-10.367761
30
0
10
-1.490824
20
-10.442364
30
0
10
-1.486715
20
-10.558967
30
0
10
-1.471156
20
-10.716923
30
0
10
-1.438901
20
-10.915081
30
0
10
-1.384814
20
-11.151792
30
0
10
-1.303914
20
-11.424918
30
0
10
-1.191411
20
-11.731851
30
0
10
-1.04275
20
-12.069521
30
0
10
-0.853645
20
-12.434424
30
0
10
-0.620123
20
-12.822638
30
0
10
-0.485557
20
-13.024154
30
0
10
-0.449988
20
-13.07521
30
0
10
-0.431909
20
-13.100833
30
0
10
-0.422797
20
-13.113667
30
0
10
-0.418222
20
-13.12009
30
0
10
-0.41593
20
-13.123303
30
0
10
-0.415335
20
-13.123429
30
0
10
0.723031
20
-13.110077
30
0
10
0.723623
20
-13.109938
30
0
10
0.725839
20
-13.106672
30
0
10
0.730262
20
-13.100143
30
0
10
0.739071
20
-13.087098
30
0
10
0.756544
20
-13.061058
30
0
10
0.790905
20
-13.009182
30
0
10
0.920709
20
-12.804565
30
0
10
1.145061
20
-12.410981
30
0
10
1.325554
20
-12.041743
30
0
10
1.466255
20
-11.700679
30
0
10
1.571528
20
-11.391192
30
0
10
1.645999
20
-11.116243
30
0
10
1.694519
20
-10.878329
30
0
10
1.722117
20
-10.679469
30
0
10
1.733967
20
-10.521191
30
0
10
1.735341
20
-10.404523
30
0
10
1.731564
20
-10.329989
30
0
10
1.727979
20
-10.297601
30
0
10
1.454178
20
-8.665837
30
0
10
3.650252
20
-7.992936
30
0
10
4.337604
20
-9.497983
30
0
10
4.352779
20
-9.52682
30
0
10
4.391407
20
-9.590676
30
0
10
4.457904
20
-9.686547
30
0
10
4.556391
20
-9.811016
30
0
10
4.690658
20
-9.960279
30
0
10
4.864134
20
-10.130171
30
0
10
5.079855
20
-10.316202
30
0
10
5.340439
20
-10.513587
30
0
10
5.648059
20
-10.717281
30
0
10
6.004425
20
-10.922019
30
0
10
6.41076
20
-11.122353
30
0
10
6.632913
20
-11.219127
30
0
10
6.690438
20
-11.242848
30
0
10
6.719499
20
-11.25463
30
0
10
6.734105
20
-11.2605
30
0
10
6.741426
20
-11.26343
30
0
10
6.745091
20
-11.264894
30
0
10
6.74566
20
-11.264678
30
0
10
7.696096
20
-10.637999
30
0
10
7.696518
20
-10.637561
30
0
10
7.696616
20
-10.633615
30
0
10
7.696808
20
-10.625732
30
0
10
7.697166
20
-10.609995
30
0
10
7.697786
20
-10.578643
30
0
10
7.698647
20
-10.516425
30
0
10
7.69722
20
-10.274113
30
0
10
7.673169
20
-9.821715
30
0
10
7.625385
20
-9.41351
30
0
10
7.559356
20
-9.05052
30
0
10
7.480596
20
-8.733248
30
0
10
7.394597
20
-8.461684
30
0
10
7.306788
20
-8.235306
30
0
10
7.222494
20
-8.053094
30
0
10
7.146892
20
-7.913535
30
0
10
7.084971
20
-7.814646
30
0
10
7.041498
20
-7.753985
30
0
10
7.020972
20
-7.728677
30
0
10
5.908438
20
-6.503978
30
0
10
7.392095
20
-4.750611
30
0
10
8.784022
20
-5.645126
30
0
10
8.812378
20
-5.661181
30
0
10
8.879397
20
-5.694016
30
0
10
8.98717
20
-5.738717
30
0
10
9.137316
20
-5.790181
30
0
10
9.330966
20
-5.843159
30
0
10
9.568754
20
-5.892293
30
0
10
9.850806
20
-5.932165
30
0
10
10.176737
20
-5.957333
30
0
10
10.545649
20
-5.962379
30
0
10
10.956133
20
-5.94195
30
0
10
11.406273
20
-5.8908
30
0
10
11.64548
20
-5.852107
30
0
10
11.706697
20
-5.840961
30
0
10
11.737515
20
-5.835161
30
0
10
11.752975
20
-5.832204
30
0
10
11.760718
20
-5.830711
30
0
10
11.764593
20
-5.82996
30
0
10
11.764955
20
-5.829471
30
0
10
12.225704
20
-4.78843
30
0
10
12.225823
20
-4.787834
30
0
10
12.223772
20
-4.784462
30
0
10
12.219671
20
-4.777726
30
0
10
12.211464
20
-4.764294
30
0
10
12.195036
20
-4.737583
30
0
10
12.162122
20
-4.684777
30
0
10
12.029918
20
-4.481703
30
0
10
11.765101
20
-4.114124
30
0
10
11.50421
20
-3.796555
30
0
10
11.252416
20
-3.526886
30
0
10
11.014629
20
-3.30256
30
0
10
10.795463
20
-3.120601
30
0
10
10.599204
20
-2.977633
30
0
10
10.42978
20
-2.869919
30
0
10
10.290728
20
-2.793388
30
0
10
10.185174
20
-2.743674
30
0
10
10.115806
20
-2.716146
30
0
10
10.084855
20
-2.705953
30
0
10
8.48681
20
-2.277152
30
0
8
gear
0
CIRCLE
5
2001
100
AcDbEntity
100
AcDbCircle
10
10.977616
20
1.709985
30
0
40
0.79285
8
gear_guides
0
CIRCLE
5
2002
100
AcDbEntity
100
AcDbCircle
10
0
20
0
30
0
40
11.11
8
gear_guides
0
CIRCLE
5
2003
100
AcDbEntity
100
AcDbCircle
10
0
20
0
30
0
40
13.13
8
gear_guides
0
CIRCLE
5
2004
100
AcDbEntity
100
AcDbCircle
10
0
20
0
30
0
40
10.439985
8
gear_guides
0
LINE
5
2005
100
AcDbEntity
100
AcDbLine
10
1.6
20
0
30
0
11
-1.6
21
0
31
0
8
gear_guides
0
LINE
5
2006
100
AcDbEntity
100
AcDbLine
10
0
20
1.6
30
0
11
0
21
-1.6
31
0
8
gear_guides
0
LWPOLYLINE
5
2007
100
AcDbEntity
100
AcDbPolyline
66
1
90
2
70
0
43
0
10
-5.453274
20
3.148449
30
0
10
-5.93057
20
3.424016
30
0
8
gear_texts
0
LWPOLYLINE
5
2008
100
AcDbEntity
100
AcDbPolyline
66
1
90
2
70
0
43
0
10
-6.049894
20
3.492908
30
0
10
-6.169218
20
3.561799
30
0
8
gear_texts
0
LWPOLYLINE
5
2009
100
AcDbEntity
100
AcDbPolyline
66
1
90
2
70
0
43
0
10
-5.319416
20
3.369679
30
0
10
-5.784996
20
3.664609
30
0
8
gear_texts
0
LWPOLYLINE
5
2010
100
AcDbEntity
100
AcDbPolyline
66
1
90
6
70
0
43
0
10
-5.552206
20
3.517144
30
0
10
-5.593679
20
3.706506
30
0
10
-5.629668
20
3.899022
30
0
10
-5.548428
20
4.013788
30
0
10
-5.354894
20
4.043828
30
0
10
-5.025033
20
3.794729
30
0
8
gear_texts
0
LWPOLYLINE
5
2011
100
AcDbEntity
100
AcDbPolyline
66
1
90
2
70
0
43
0
10
-4.6521
20
3.822878
30
0
10
-5.290812
20
4.347741
30
0
8
gear_texts
0
LWPOLYLINE
5
2012
100
AcDbEntity
100
AcDbPolyline
66
1
90
10
70
0
43
0
10
-5.18436
20
4.260264
30
0
10
-5.200429
20
4.455455
30
0
10
-5.107854
20
4.56129
30
0
10
-5.013126
20
4.665202
30
0
10
-4.817367
20
4.671232
30
0
10
-4.619535
20
4.4794
30
0
10
-4.609666
20
4.289744
30
0
10
-4.696771
20
4.194195
30
0
10
-4.781895
20
4.096877
30
0
10
-4.865004
20
3.997832
30
0
8
gear_texts
0
LWPOLYLINE
5
2013
100
AcDbEntity
100
AcDbPolyline
66
1
90
2
70
0
43
0
10
-4.293194
20
5.335169
30
0
10
-3.947675
20
4.905791
30
0
8
gear_texts
0
LWPOLYLINE
5
2014
100
AcDbEntity
100
AcDbPolyline
66
1
90
6
70
0
43
0
10
-4.120435
20
5.12048
30
0
10
-4.136134
20
4.929252
30
0
10
-4.145754
20
4.739583
30
0
10
-4.242193
20
4.653464
30
0
10
-4.431738
20
4.665279
30
0
10
-4.716423
20
4.964966
30
0
8
gear_texts
0
LWPOLYLINE
5
2015
100
AcDbEntity
100
AcDbPolyline
66
1
90
4
70
0
43
0
10
-3.387423
20
5.470877
30
0
10
-3.424113
20
5.284541
30
0
10
-3.609174
20
5.327193
30
0
10
-3.995584
20
5.897539
30
0
8
gear_texts
0
LWPOLYLINE
5
2016
100
AcDbEntity
100
AcDbPolyline
66
1
90
5
70
0
43
0
10
-3.605024
20
5.822314
30
0
10
-3.723807
20
5.747069
30
0
10
-3.84102
20
5.669401
30
0
10
-3.956614
20
5.589343
30
0
10
-4.070539
20
5.506928
30
0
8
gear_texts
0
LWPOLYLINE
5
2017
100
AcDbEntity
100
AcDbPolyline
66
1
90
5
70
0
43
0
10
-2.394779
20
5.823741
30
0
10
-2.656782
20
6.460892
30
0
10
-2.573341
20
6.642558
30
0
10
-2.436414
20
6.693993
30
0
10
-2.254004
20
6.612192
30
0
8
gear_texts
0
LWPOLYLINE
5
2018
100
AcDbEntity
100
AcDbPolyline
66
1
90
4
70
0
43
0
10
-2.29504
20
6.305571
30
0
10
-2.424021
20
6.25712
30
0
10
-2.551981
20
6.206032
30
0
10
-2.678864
20
6.152327
30
0
8
gear_texts
0
LWPOLYLINE
5
2019
100
AcDbEntity
100
AcDbPolyline
66
1
90
2
70
0
43
0
10
-1.785316
20
6.038508
30
0
10
-1.941575
20
6.567026
30
0
8
gear_texts
0
LWPOLYLINE
5
2020
100
AcDbEntity
100
AcDbPolyline
66
1
90
2
70
0
43
0
10
-1.98064
20
6.699155
30
0
10
-2.019705
20
6.831285
30
0
8
gear_texts
0
LWPOLYLINE
5
2021
100
AcDbEntity
100
AcDbPolyline
66
1
90
2
70
0
43
0
10
-1.5359
20
6.106713
30
0
10
-1.670329
20
6.6412
30
0
8
gear_texts
0
LWPOLYLINE
5
2022
100
AcDbEntity
100
AcDbPolyline
66
1
90
5
70
0
43
0
10
-1.603114
20
6.373957
30
0
10
-1.502764
20
6.539812
30
0
10
-1.396266
20
6.704177
30
0
10
-1.258323
20
6.731431
30
0
10
-1.097317
20
6.619919
30
0
8
gear_texts
0
LWPOLYLINE
5
2023
100
AcDbEntity
100
AcDbPolyline
66
1
90
13
70
0
43
0
10
-0.281146
20
6.842258
30
0
10
-0.421571
20
6.835044
30
0
10
-0.561818
20
6.824947
30
0
10
-0.701829
20
6.811973
30
0
10
-0.824611
20
6.659388
30
0
10
-0.673587
20
6.537857
30
0
10
-0.53921
20
6.550309
30
0
10
-0.404607
20
6.559999
30
0
10
-0.264176
20
6.429256
30
0
10
-0.387643
20
6.284955
30
0
10
-0.516603
20
6.275671
30
0
10
-0.645345
20
6.263741
30
0
10
-0.773815
20
6.249171
30
0
8
gear_texts
0
LWPOLYLINE
5
2024
100
AcDbEntity
100
AcDbPolyline
66
1
90
4
70
0
43
0
10
0.527907
20
6.41299
30
0
10
0.387643
20
6.284955
30
0
10
0.264176
20
6.429256
30
0
10
0.29246
20
7.117593
30
0
8
gear_texts
0
LWPOLYLINE
5
2025
100
AcDbEntity
100
AcDbPolyline
66
1
90
5
70
0
43
0
10
0.561818
20
6.824947
30
0
10
0.421571
20
6.835044
30
0
10
0.281146
20
6.842258
30
0
10
0.140603
20
6.846588
30
0
10
0
20
6.848032
30
0
8
gear_texts
0
LWPOLYLINE
5
2026
100
AcDbEntity
100
AcDbPolyline
66
1
90
15
70
0
43
0
10
1.908922
20
6.000579
30
0
10
1.785316
20
6.038508
30
0
10
1.660958
20
6.07389
30
0
10
1.5359
20
6.106713
30
0
10
1.441051
20
6.271244
30
0
10
1.502764
20
6.539812
30
0
10
1.670329
20
6.6412
30
0
10
1.806333
20
6.605506
30
0
10
1.941575
20
6.567026
30
0
10
2.03423
20
6.394478
30
0
10
1.867152
20
5.869279
30
0
10
1.707187
20
5.774248
30
0
10
1.588271
20
5.808083
30
0
10
1.468685
20
5.839469
30
0
10
1.379337
20
6.002676
30
0
8
gear_texts
0
LWPOLYLINE
5
2027
100
AcDbEntity
100
AcDbPolyline
66
1
90
13
70
0
43
0
10
2.513846
20
5.773344
30
0
10
2.394779
20
5.823741
30
0
10
2.274702
20
5.871683
30
0
10
2.200791
20
6.046623
30
0
10
2.29504
20
6.305571
30
0
10
2.473794
20
6.3856
30
0
10
2.604381
20
6.333462
30
0
10
2.73387
20
6.278654
30
0
10
2.804618
20
6.096028
30
0
10
2.623858
20
6.025999
30
0
10
2.49958
20
6.078602
30
0
10
2.374248
20
6.128641
30
0
10
2.247915
20
6.176097
30
0
8
gear_texts
0
LWPOLYLINE
5
2028
100
AcDbEntity
100
AcDbPolyline
66
1
90
10
70
0
43
0
10
3.274382
20
5.539273
30
0
10
3.092297
20
5.48531
30
0
10
2.979022
20
5.547644
30
0
10
2.927169
20
5.730341
30
0
10
3.052526
20
5.975744
30
0
10
3.23976
20
6.0332
30
0
10
3.36295
20
5.96541
30
0
10
3.414608
20
5.776494
30
0
10
3.274382
20
5.539273
30
0
10
3.31489
20
5.353731
30
0
8
gear_texts
0
LWPOLYLINE
5
2029
100
AcDbEntity
100
AcDbPolyline
66
1
90
2
70
0
43
0
10
3.531892
20
5.213124
30
0
10
3.84102
20
5.669401
30
0
8
gear_texts
0
LWPOLYLINE
5
2030
100
AcDbEntity
100
AcDbPolyline
66
1
90
5
70
0
43
0
10
3.686456
20
5.441262
30
0
10
3.877006
20
5.476884
30
0
10
4.070539
20
5.506928
30
0
10
4.182748
20
5.422191
30
0
10
4.206815
20
5.227824
30
0
8
gear_texts
0
LWPOLYLINE
5
2031
100
AcDbEntity
100
AcDbPolyline
66
1
90
5
70
0
43
0
10
5.270738
20
4.152922
30
0
10
5.18436
20
4.260264
30
0
10
5.095796
20
4.365811
30
0
10
5.005083
20
4.469516
30
0
10
4.912261
20
4.571338
30
0
8
gear_texts
0
LWPOLYLINE
5
2032
100
AcDbEntity
100
AcDbPolyline
66
1
90
5
70
0
43
0
10
6.066913
20
2.867055
30
0
10
6.006768
20
2.991015
30
0
10
5.944091
20
3.113715
30
0
10
5.878908
20
3.235101
30
0
10
5.811246
20
3.355124
30
0
8
gear_texts
0
LWPOLYLINE
5
2033
100
AcDbEntity
100
AcDbPolyline
66
1
90
2
70
0
43
0
10
5.699987
20
2.985845
30
0
10
6.188194
20
3.241584
30
0
8
gear_texts
0
LWPOLYLINE
5
2034
100
AcDbEntity
100
AcDbPolyline
66
1
90
5
70
0
43
0
10
6.31606
20
2.984795
30
0
10
6.130107
20
3.052431
30
0
10
5.944091
20
3.113715
30
0
10
5.758194
20
3.168674
30
0
10
5.572598
20
3.217341
30
0
8
gear_texts
0
LWPOLYLINE
5
2035
100
AcDbEntity
100
AcDbPolyline
66
1
90
5
70
0
43
0
10
5.817766
20
2.749315
30
0
10
5.883429
20
2.9296
30
0
10
5.944091
20
3.113715
30
0
10
5.999621
20
3.301529
30
0
10
6.049894
20
3.492908
30
0
8
gear_texts
0
LWPOLYLINE
5
2036
100
AcDbEntity
100
AcDbPolyline
66
1
90
3
70
0
43
0
10
6.433276
20
2.722972
30
0
10
6.615789
20
2.641401
30
0
10
5.84802
20
2.334864
30
0
8
gear_texts
0
LWPOLYLINE
5
2037
100
AcDbEntity
100
AcDbPolyline
66
1
90
3
70
0
43
0
10
5.894726
20
2.214301
30
0
10
5.84802
20
2.334864
30
0
10
5.798848
20
2.454442
30
0
8
gear_texts
0
LWPOLYLINE
5
2038
100
AcDbEntity
100
AcDbPolyline
66
1
90
7
70
0
43
0
10
6.240897
20
0.837931
30
0
10
7.060246
20
0.947941
30
0
10
6.766989
20
1.050431
30
0
10
6.472615
20
1.141297
30
0
10
6.718158
20
1.327364
30
0
10
6.958676
20
1.523973
30
0
10
6.151114
20
1.347115
30
0
8
gear_texts
0
LWPOLYLINE
5
2039
100
AcDbEntity
100
AcDbPolyline
66
1
90
15
70
0
43
0
10
6.296566
20
0.064647
30
0
10
6.293912
20
0.193913
30
0
10
6.288604
20
0.323098
30
0
10
6.280644
20
0.452147
30
0
10
6.270037
20
0.581004
30
0
10
6.544428
20
0.606431
30
0
10
6.692927
20
0.481827
30
0
10
6.701409
20
0.344307
30
0
10
6.707066
20
0.206642
30
0
10
6.847671
20
0.070305
30
0
10
6.985447
20
0.07172
30
0
10
7.12022
20
0.219372
30
0
10
7.114215
20
0.365517
30
0
10
7.105211
20
0.511508
30
0
10
6.956015
20
0.64457
30
0
8
gear_texts
0
LWPOLYLINE
5
2040
100
AcDbEntity
100
AcDbPolyline
66
1
90
2
70
0
43
0
10
6.43163
20
-0.198156
30
0
10
6.293912
20
-0.193913
30
0
8
gear_texts
0
LWPOLYLINE
5
2041
100
AcDbEntity
100
AcDbPolyline
66
1
90
9
70
0
43
0
10
6.377455
20
-0.856266
30
0
10
6.256786
20
-0.709617
30
0
10
6.270037
20
-0.581004
30
0
10
6.418072
20
-0.46204
30
0
10
6.967783
20
-0.501614
30
0
10
7.093211
20
-0.657283
30
0
10
7.07822
20
-0.802781
30
0
10
6.923688
20
-0.929606
30
0
10
6.377455
20
-0.856266
30
0
8
gear_texts
0
LWPOLYLINE
5
2042
100
AcDbEntity
100
AcDbPolyline
66
1
90
15
70
0
43
0
10
6.090622
20
-1.598513
30
0
10
6.122159
20
-1.473125
30
0
10
6.151114
20
-1.347115
30
0
10
6.177477
20
-1.220537
30
0
10
6.201234
20
-1.093445
30
0
10
6.472615
20
-1.141297
30
0
10
6.582988
20
-1.300657
30
0
10
6.554895
20
-1.435544
30
0
10
6.524039
20
-1.569826
30
0
10
6.623702
20
-1.738423
30
0
10
6.756972
20
-1.7734
30
0
10
6.925919
20
-1.666527
30
0
10
6.958676
20
-1.523973
30
0
10
6.988499
20
-1.380778
30
0
10
6.879685
20
-1.213074
30
0
8
gear_texts
0
LWPOLYLINE
5
2043
100
AcDbEntity
100
AcDbPolyline
66
1
90
7
70
0
43
0
10
6.310246
20
-3.305519
30
0
10
5.577936
20
-2.92191
30
0
10
5.82176
20
-2.898892
30
0
10
6.066913
20
-2.867055
30
0
10
6.313134
20
-2.826335
30
0
10
6.560162
20
-2.776678
30
0
10
5.798848
20
-2.454442
30
0
8
gear_texts
0
LWPOLYLINE
5
2044
100
AcDbEntity
100
AcDbPolyline
66
1
90
5
70
0
43
0
10
5.629668
20
-3.899022
30
0
10
5.708536
20
-3.782613
30
0
10
5.784996
20
-3.664609
30
0
10
5.859018
20
-3.54506
30
0
10
5.93057
20
-3.424016
30
0
8
gear_texts
0
LWPOLYLINE
5
2045
100
AcDbEntity
100
AcDbPolyline
66
1
90
5
70
0
43
0
10
5.403129
20
-3.742125
30
0
10
5.478823
20
-3.6304
30
0
10
5.552206
20
-3.517144
30
0
10
5.623249
20
-3.402405
30
0
10
5.691922
20
-3.286233
30
0
8
gear_texts
0
LWPOLYLINE
5
2046
100
AcDbEntity
100
AcDbPolyline
66
1
90
3
70
0
43
0
10
5.574801
20
-4.209894
30
0
10
5.595415
20
-4.408741
30
0
10
4.946061
20
-3.897102
30
0
8
gear_texts
0
LWPOLYLINE
5
2047
100
AcDbEntity
100
AcDbPolyline
66
1
90
3
70
0
43
0
10
4.865004
20
-3.997832
30
0
10
4.946061
20
-3.897102
30
0
10
5.025033
20
-3.794729
30
0
8
gear_texts
0
LWPOLYLINE
5
2048
100
AcDbEntity
100
AcDbPolyline
66
1
90
3
70
0
43
0
10
5.210625
20
-4.653064
30
0
10
5.214855
20
-4.852931
30
0
10
4.609666
20
-4.289744
30
0
8
gear_texts
0
LWPOLYLINE
5
2049
100
AcDbEntity
100
AcDbPolyline
66
1
90
3
70
0
43
0
10
4.520618
20
-4.383485
30
0
10
4.609666
20
-4.289744
30
0
10
4.696771
20
-4.194195
30
0
8
gear_texts
0
LWPOLYLINE
5
2050
100
AcDbEntity
100
AcDbPolyline
66
1
90
10
70
0
43
0
10
3.846118
20
-4.98581
30
0
10
3.74294
20
-5.063727
30
0
10
3.638183
20
-5.139509
30
0
10
3.531892
20
-5.213124
30
0
10
3.499036
20
-5.400173
30
0
10
3.798731
20
-5.862701
30
0
10
3.995584
20
-5.897539
30
0
10
4.115829
20
-5.814259
30
0
10
4.234339
20
-5.728528
30
0
10
4.351064
20
-5.640382
30
0
8
gear_texts
0
LWPOLYLINE
5
2051
100
AcDbEntity
100
AcDbPolyline
66
1
90
2
70
0
43
0
10
4.234339
20
-5.728528
30
0
10
3.74294
20
-5.063727
30
0
8
gear_texts
0
LWPOLYLINE
5
2052
100
AcDbEntity
100
AcDbPolyline
66
1
90
5
70
0
43
0
10
2.989335
20
-6.161121
30
0
10
3.115204
20
-6.098446
30
0
10
3.23976
20
-6.0332
30
0
10
3.36295
20
-5.96541
30
0
10
3.484722
20
-5.895105
30
0
8
gear_texts
0
LWPOLYLINE
5
2053
100
AcDbEntity
100
AcDbPolyline
66
1
90
5
70
0
43
0
10
2.869043
20
-5.913196
30
0
10
2.989847
20
-5.853043
30
0
10
3.109391
20
-5.790422
30
0
10
3.227623
20
-5.72536
30
0
10
3.344495
20
-5.657884
30
0
8
gear_texts
0
LWPOLYLINE
5
2054
100
AcDbEntity
100
AcDbPolyline
66
1
90
15
70
0
43
0
10
2.031722
20
-5.96012
30
0
10
2.153666
20
-5.917149
30
0
10
2.274702
20
-5.871683
30
0
10
2.394779
20
-5.823741
30
0
10
2.513846
20
-5.773344
30
0
10
2.623858
20
-6.025999
30
0
10
2.551981
20
-6.206032
30
0
10
2.424021
20
-6.25712
30
0
10
2.29504
20
-6.305571
30
0
10
2.209548
20
-6.481778
30
0
10
2.254004
20
-6.612192
30
0
10
2.436414
20
-6.693993
30
0
10
2.573341
20
-6.642558
30
0
10
2.709182
20
-6.588322
30
0
10
2.788876
20
-6.404982
30
0
8
gear_texts
0
LWPOLYLINE
5
2055
100
AcDbEntity
100
AcDbPolyline
66
1
90
15
70
0
43
0
10
1.283894
20
-6.16462
30
0
10
1.410194
20
-6.13696
30
0
10
1.5359
20
-6.106713
30
0
10
1.660958
20
-6.07389
30
0
10
1.785316
20
-6.038508
30
0
10
1.863446
20
-6.302767
30
0
10
1.769989
20
-6.472602
30
0
10
1.636722
20
-6.507578
30
0
10
1.502764
20
-6.539812
30
0
10
1.396266
20
-6.704177
30
0
10
1.424359
20
-6.839066
30
0
10
1.595334
20
-6.942663
30
0
10
1.737544
20
-6.908444
30
0
10
1.87902
20
-6.871313
30
0
10
1.98064
20
-6.699155
30
0
8
gear_texts
0
LWPOLYLINE
5
2056
100
AcDbEntity
100
AcDbPolyline
66
1
90
2
70
0
43
0
10
1.052254
20
-6.348062
30
0
10
1.029723
20
-6.212133
30
0
8
gear_texts
0
LWPOLYLINE
5
2057
100
AcDbEntity
100
AcDbPolyline
66
1
90
15
70
0
43
0
10
0.258519
20
-6.291589
30
0
10
0.387643
20
-6.284955
30
0
10
0.516603
20
-6.275671
30
0
10
0.645345
20
-6.263741
30
0
10
0.773815
20
-6.249171
30
0
10
0.807679
20
-6.522649
30
0
10
0.687708
20
-6.674915
30
0
10
0.550514
20
-6.687628
30
0
10
0.413089
20
-6.697521
30
0
10
0.281146
20
-6.842258
30
0
10
0.286803
20
-6.979926
30
0
10
0.438535
20
-7.110088
30
0
10
0.584426
20
-7.099585
30
0
10
0.73007
20
-7.086089
30
0
10
0.858475
20
-6.932867
30
0
8
gear_texts
0
LWPOLYLINE
5
2058
100
AcDbEntity
100
AcDbPolyline
66
1
90
15
70
0
43
0
10
-0.516603
20
-6.275671
30
0
10
-0.387643
20
-6.284955
30
0
10
-0.258519
20
-6.291589
30
0
10
-0.129287
20
-6.295571
30
0
10
0
20
-6.296898
30
0
10
0
20
-6.572465
30
0
10
-0.137774
20
-6.708834
30
0
10
-0.275489
20
-6.704591
30
0
10
-0.413089
20
-6.697521
30
0
10
-0.561818
20
-6.824947
30
0
10
-0.573122
20
-6.962266
30
0
10
-0.438535
20
-7.110088
30
0
10
-0.29246
20
-7.117593
30
0
10
-0.146261
20
-7.122097
30
0
10
0
20
-6.985815
30
0
8
gear_texts
0
LWPOLYLINE
5
2059
100
AcDbEntity
100
AcDbPolyline
66
1
90
2
70
0
43
0
10
-0.773815
20
-6.249171
30
0
10
-0.841543
20
-6.796127
30
0
8
gear_texts
0
LWPOLYLINE
5
2060
100
AcDbEntity
100
AcDbPolyline
66
1
90
6
70
0
43
0
10
-0.824611
20
-6.659388
30
0
10
-0.980903
20
-6.777416
30
0
10
-1.097317
20
-6.619919
30
0
10
-1.258323
20
-6.731431
30
0
10
-1.368173
20
-6.569288
30
0
10
-1.283894
20
-6.16462
30
0
8
gear_texts
0
LWPOLYLINE
5
2061
100
AcDbEntity
100
AcDbPolyline
66
1
90
2
70
0
43
0
10
-1.074786
20
-6.483991
30
0
10
-1.097317
20
-6.619919
30
0
8
gear_texts
0
LWPOLYLINE
5
2062
100
AcDbEntity
100
AcDbPolyline
66
1
90
2
70
0
43
0
10
-1.5359
20
-6.106713
30
0
10
-1.670329
20
-6.6412
30
0
8
gear_texts
0
LWPOLYLINE
5
2063
100
AcDbEntity
100
AcDbPolyline
66
1
90
6
70
0
43
0
10
-1.636722
20
-6.507578
30
0
10
-1.806333
20
-6.605506
30
0
10
-1.902511
20
-6.434896
30
0
10
-2.075999
20
-6.525777
30
0
10
-2.165091
20
-6.351363
30
0
10
-2.031722
20
-5.96012
30
0
8
gear_texts
0
LWPOLYLINE
5
2064
100
AcDbEntity
100
AcDbPolyline
66
1
90
2
70
0
43
0
10
-1.863446
20
-6.302767
30
0
10
-1.902511
20
-6.434896
30
0
8
gear_texts
0
LWPOLYLINE
5
2065
100
AcDbEntity
100
AcDbPolyline
66
1
90
11
70
0
43
0
10
-3.052526
20
-5.975744
30
0
10
-3.174575
20
-5.911811
30
0
10
-3.295287
20
-5.845385
30
0
10
-3.414608
20
-5.776494
30
0
10
-3.605024
20
-5.822314
30
0
10
-3.677558
20
-5.93946
30
0
10
-3.624948
20
-6.132325
30
0
10
-3.498276
20
-6.20546
30
0
10
-3.370129
20
-6.275977
30
0
10
-3.240561
20
-6.343849
30
0
10
-2.864491
20
-5.607639
30
0
8
gear_texts
0
LWPOLYLINE
5
2066
100
AcDbEntity
100
AcDbPolyline
66
1
90
7
70
0
43
0
10
-3.531892
20
-5.213124
30
0
10
-3.686456
20
-5.441262
30
0
10
-3.956614
20
-5.589343
30
0
10
-4.234339
20
-5.728528
30
0
10
-4.182748
20
-5.422191
30
0
10
-4.120435
20
-5.12048
30
0
10
-3.947675
20
-4.905791
30
0
8
gear_texts
0
LWPOLYLINE
5
2067
100
AcDbEntity
100
AcDbPolyline
66
1
90
5
70
0
43
0
10
-3.686456
20
-5.441262
30
0
10
-3.797398
20
-5.364426
30
0
10
-3.906739
20
-5.285327
30
0
10
-4.014433
20
-5.204001
30
0
10
-4.120435
20
-5.12048
30
0
8
gear_texts
0
LWPOLYLINE
5
2068
100
AcDbEntity
100
AcDbPolyline
66
1
90
5
70
0
43
0
10
-4.916284
20
-4.767148
30
0
10
-4.817369
20
-4.867083
30
0
10
-4.716423
20
-4.964966
30
0
10
-4.613489
20
-5.060757
30
0
10
-4.50861
20
-5.154413
30
0
8
gear_texts
0
LWPOLYLINE
5
2069
100
AcDbEntity
100
AcDbPolyline
66
1
90
5
70
0
43
0
10
-4.718451
20
-4.575316
30
0
10
-4.623517
20
-4.67123
30
0
10
-4.526633
20
-4.765175
30
0
10
-4.427841
20
-4.85711
30
0
10
-4.327182
20
-4.946998
30
0
8
gear_texts
0
LWPOLYLINE
5
2070
100
AcDbEntity
100
AcDbPolyline
66
1
90
15
70
0
43
0
10
-5.025033
20
-3.794729
30
0
10
-4.946061
20
-3.897102
30
0
10
-4.865004
20
-3.997832
30
0
10
-4.781895
20
-4.096877
30
0
10
-4.696771
20
-4.194195
30
0
10
-4.902313
20
-4.377742
30
0
10
-5.095796
20
-4.365811
30
0
10
-5.18436
20
-4.260264
30
0
10
-5.270738
20
-4.152922
30
0
10
-5.464848
20
-4.126861
30
0
10
-5.574801
20
-4.209894
30
0
10
-5.595415
20
-4.408741
30
0
10
-5.503715
20
-4.522696
30
0
10
-5.409696
20
-4.634744
30
0
10
-5.210625
20
-4.653064
30
0
8
gear_texts
0
LWPOLYLINE
5
2071
100
AcDbEntity
100
AcDbPolyline
66
1
90
9
70
0
43
0
10
-5.505365
20
-3.331078
30
0
10
-5.319416
20
-3.369679
30
0
10
-5.249109
20
-3.478186
30
0
10
-5.289859
20
-3.663676
30
0
10
-5.742938
20
-3.977471
30
0
10
-5.938249
20
-3.934827
30
0
10
-6.017786
20
-3.812074
30
0
10
-5.976902
20
-3.616387
30
0
10
-5.505365
20
-3.331078
30
0
8
gear_texts
0
ENDSEC
0
SECTION
2
OBJECTS
0
DICTIONARY
5
21D
330
0
100
AcDbDictionary
281
1
3
ACAD_CIP_PREVIOUS_PRODUCT_INFO
350
291
3
ACAD_COLOR
350
273
3
ACAD_DETAILVIEWSTYLE
350
27B
3
ACAD_GROUP
350
21E
3
ACAD_LAYOUT
350
272
3
ACAD_MATERIAL
350
221
3
ACAD_MLEADERSTYLE
350
276
3
ACAD_MLINESTYLE
350
26F
3
ACAD_PLOTSETTINGS
350
271
3
ACAD_PLOTSTYLENAME
350
21F
3
ACAD_SCALELIST
350
253
3
ACAD_SECTIONVIEWSTYLE
350
278
3
ACAD_TABLESTYLE
350
274
3
ACAD_VISUALSTYLE
350
23A
3
ACDB_RECOMPOSE_DATA
350
1057
3
AcDbVariableDictionary
350
29D
0
DICTIONARY
5
297
330
213
100
AcDbDictionary
280
1
281
1
3
ACAD_LAYERSTATES
360
298
0
DICTIONARY
5
292
330
265
100
AcDbDictionary
280
1
281
1
3
ADSK_XREC_LAYER_RECONCILED
360
293
0
XRECORD
5
291
102
{ACAD_REACTORS
330
21D
102
}
330
21D
100
AcDbXrecord
280
1
300
ACDMAC
300
2013
300
ACDMAC_F_S
0
DICTIONARY
5
273
102
{ACAD_REACTORS
330
21D
102
}
330
21D
100
AcDbDictionary
281
1
0
DICTIONARY
5
21E
102
{ACAD_REACTORS
330
21D
102
}
330
21D
100
AcDbDictionary
281
1
0
DICTIONARY
5
272
102
{ACAD_REACTORS
330
21D
102
}
330
21D
100
AcDbDictionary
281
1
3
Layout1
350
280
3
Model
350
284
0
DICTIONARY
5
221
102
{ACAD_REACTORS
330
21D
102
}
330
21D
100
AcDbDictionary
281
1
3
ByBlock
350
22A
3
ByLayer
350
222
3
Global
350
232
0
DICTIONARY
5
276
102
{ACAD_REACTORS
330
21D
102
}
330
21D
100
AcDbDictionary
281
1
3
Standard
350
277
0
DICTIONARY
5
26F
102
{ACAD_REACTORS
330
21D
102
}
330
21D
100
AcDbDictionary
281
1
3
Standard
350
270
0
DICTIONARY
5
271
102
{ACAD_REACTORS
330
21D
102
}
330
21D
100
AcDbDictionary
281
1
0
ACDBDICTIONARYWDFLT
5
21F
102
{ACAD_REACTORS
330
21D
102
}
330
21D
100
AcDbDictionary
281
1
3
Normal
350
220
100
AcDbDictionaryWithDefault
340
220
0
DICTIONARY
5
253
102
{ACAD_REACTORS
330
21D
102
}
330
21D
100
AcDbDictionary
281
1
3
A0
350
254
3
A1
350
255
3
A2
350
256
3
A3
350
257
3
A4
350
258
3
A5
350
259
3
A6
350
25A
3
A7
350
25B
3
A8
350
25C
3
A9
350
25D
3
B0
350
25E
3
B1
350
25F
3
B2
350
260
3
B3
350
261
3
B4
350
262
3
B5
350
263
3
B6
350
264
0
DICTIONARY
5
274
102
{ACAD_REACTORS
330
21D
102
}
330
21D
100
AcDbDictionary
281
1
3
Standard
350
275
0
DICTIONARY
5
23A
102
{ACAD_REACTORS
330
21D
102
}
330
21D
100
AcDbDictionary
281
1
3
2dWireframe
350
240
3
Basic
350
23F
3
Brighten
350
246
3
ColorChange
350
24A
3
Conceptual
350
243
3
Dim
350
245
3
EdgeColorOff
350
252
3
Facepattern
350
249
3
Flat
350
23B
3
FlatWithEdges
350
23C
3
Gouraud
350
23D
3
GouraudWithEdges
350
23E
3
Hidden
350
242
3
JitterOff
350
250
3
Linepattern
350
248
3
OverhangOff
350
251
3
Realistic
350
244
3
Shaded
350
24F
3
Shaded with edges
350
24E
3
Shades of Gray
350
24B
3
Sketchy
350
24C
3
Thicken
350
247
3
Wireframe
350
241
3
X-Ray
350
24D
0
XRECORD
5
1057
102
{ACAD_REACTORS
330
21D
102
}
330
21D
100
AcDbXrecord
280
1
90
1
330
275
0
DICTIONARY
5
29D
102
{ACAD_REACTORS
330
21D
102
}
330
21D
100
AcDbDictionary
281
1
3
CANNOSCALE
350
2A3
3
CMLEADERSTYLE
350
29F
3
CTABLESTYLE
350
29E
3
CVIEWDETAILSTYLE
350
2A0
3
CVIEWSECTIONSTYLE
350
2A1
3
LAYEREVAL
350
2A5
3
LAYERNOTIFY
350
2A6
3
LIGHTINGUNITS
350
2A4
3
MSLTSCALE
350
2A2
0
ENDSEC
0
EOF
