0
SECTION
2
HEADER
9
$ACADVER
1
AC1027
9
$ACADMAINTVER
70
8
9
$DWGCODEPAGE
3
ANSI_1252
9
$LASTSAVEDBY
1
macc
9
$REQUIREDVERSIONS
160
0
9
$INSBASE
10
0.0
20
0.0
30
0.0
9
$EXTMIN
10
1.000000000000000E+20
20
1.000000000000000E+20
30
1.000000000000000E+20
9
$EXTMAX
10
-1.000000000000000E+20
20
-1.000000000000000E+20
30
-1.000000000000000E+20
9
$LIMMIN
10
0.0
20
0.0
9
$LIMMAX
10
12.0
20
9.0
9
$MEASUREMENT
70
1
9
$CELWEIGHT
370
-1
9
$ENDCAPS
280
0
9
$JOINSTYLE
280
0
9
$LWDISPLAY
290
0
9
$INSUNITS
70
0
9
$HYPERLINKBASE
1

9
$STYLESHEET
1

9
$XEDIT
290
1
9
$CEPSNTYPE
380
0
9
$PSTYLEMODE
290
1
9
$EXTNAMES
290
1
9
$PSVPSCALE
40
0.0
9
$OLESTARTUP
290
0
9
$SORTENTS
280
127
9
$INDEXCTL
280
0
9
$HIDETEXT
280
0
9
$XCLIPFRAME
280
2
9
$HALOGAP
280
0
9
$OBSCOLOR
70
257
9
$OBSLTYPE
280
0
9
$INTERSECTIONDISPLAY
280
0
9
$INTERSECTIONCOLOR
70
257
9
$DIMASSOC
280
1
9
$PROJECTNAME
1

9
$CAMERADISPLAY
290
0
9
$LENSLENGTH
40
50.0
9
$CAMERAHEIGHT
40
0.0
9
$STEPSPERSEC
40
2.0
9
$STEPSIZE
40
6.0
9
$3DDWFPREC
40
2.0
9
$PSOLWIDTH
40
0.25
9
$PSOLHEIGHT
40
4.0
9
$LOFTANG1
40
1.570796326794896
9
$LOFTANG2
40
1.570796326794896
9
$LOFTMAG1
40
0.0
9
$LOFTMAG2
40
0.0
9
$LOFTPARAM
70
7
9
$LOFTNORMALS
280
1
9
$LATITUDE
40
37.795
9
$LONGITUDE
40
-122.394
9
$NORTHDIRECTION
40
0.0
9
$TIMEZONE
70
-8000
9
$LIGHTGLYPHDISPLAY
280
1
9
$TILEMODELIGHTSYNCH
280
1
9
$CMATERIAL
347
222
9
$SOLIDHIST
280
0
9
$SHOWHIST
280
1
9
$DWFFRAME
280
2
9
$DGNFRAME
280
0
9
$REALWORLDSCALE
290
1
9
$INTERFERECOLOR
62
1
9
$INTERFEREOBJVS
345
244
9
$INTERFEREVPVS
346
241
9
$CSHADOW
280
0
9
$SHADOWPLANELOCATION
40
0.0
0
ENDSEC
0
SECTION
2
CLASSES
0
CLASS
1
ACDBDICTIONARYWDFLT
2
AcDbDictionaryWithDefault
3
ObjectDBX Classes
90
0
91
1
280
0
281
0
0
CLASS
1
MATERIAL
2
AcDbMaterial
3
ObjectDBX Classes
90
1153
91
3
280
0
281
0
0
CLASS
1
VISUALSTYLE
2
AcDbVisualStyle
3
ObjectDBX Classes
90
4095
91
24
280
0
281
0
0
CLASS
1
SCALE
2
AcDbScale
3
ObjectDBX Classes
90
1153
91
17
280
0
281
0
0
CLASS
1
TABLESTYLE
2
AcDbTableStyle
3
ObjectDBX Classes
90
4095
91
1
280
0
281
0
0
CLASS
1
MLEADERSTYLE
2
AcDbMLeaderStyle
3
ACDB_MLEADERSTYLE_CLASS
90
4095
91
1
280
0
281
0
0
CLASS
1
ACDBSECTIONVIEWSTYLE
2
AcDbSectionViewStyle
3
ObjectDBX Classes
90
1025
91
1
280
0
281
0
0
CLASS
1
ACDBDETAILVIEWSTYLE
2
AcDbDetailViewStyle
3
ObjectDBX Classes
90
1025
91
1
280
0
281
0
0
CLASS
1
DICTIONARYVAR
2
AcDbDictionaryVar
3
ObjectDBX Classes
90
0
91
9
280
0
281
0
0
CLASS
1
CELLSTYLEMAP
2
AcDbCellStyleMap
3
ObjectDBX Classes
90
1152
91
2
280
0
281
0
0
ENDSEC
0
SECTION
2
TABLES
0
TABLE
2
VPORT
5
219
330
0
100
AcDbSymbolTable
70
1
0
VPORT
5
285
330
219
100
AcDbSymbolTableRecord
100
AcDbViewportTableRecord
2
*ACTIVE
70
0
10
0.0
20
0.0
11
1.0
21
1.0
12
60.85393284500712
22
1.602311788490737
13
0.0
23
0.0
14
0.5
24
0.5
15
0.5
25
0.5
16
0.0
26
0.0
36
1.0
17
0.0
27
0.0
37
0.0
40
135.7601553851812
41
1.367970660146699
42
50.0
43
0.0
44
0.0
50
0.0
51
0.0
71
0
72
1000
73
1
74
3
75
0
76
1
77
0
78
0
281
0
65
1
110
0.0
120
0.0
130
0.0
111
1.0
121
0.0
131
0.0
112
0.0
122
1.0
132
0.0
79
0
146
0.0
348
240
60
3
61
5
292
1
282
0
141
0.0
142
0.0
63
250
421
3355443
1001
ACAD_NAV_VCDISPLAY
1070
3
0
ENDTAB
0
TABLE
2
LTYPE
5
216
330
0
100
AcDbSymbolTable
70
2
0
LTYPE
5
26B
330
216
100
AcDbSymbolTableRecord
100
AcDbLinetypeTableRecord
2
ByBlock
70
0
3

72
65
73
0
40
0.0
0
LTYPE
5
26C
330
216
100
AcDbSymbolTableRecord
100
AcDbLinetypeTableRecord
2
ByLayer
70
0
3

72
65
73
0
40
0.0
0
LTYPE
5
26D
330
216
100
AcDbSymbolTableRecord
100
AcDbLinetypeTableRecord
2
CONTINUOUS
70
0
3
Solid line
72
65
73
0
40
0.0
0
LTYPE
5
103D
330
216
100
AcDbSymbolTableRecord
100
AcDbLinetypeTableRecord
2
DOTTED
70
0
3
Dotted . . . . . . . . . . . . . . . . . . . .
72
65
73
2
40
3.0
49
0.0
74
0
49
-3.0
74
0
0
ENDTAB
0
TABLE
2
LAYER
5
213
102
{ACAD_XDICTIONARY
360
297
102
}
330
0
100
AcDbSymbolTable
70
4
0
LAYER
5
265
102
{ACAD_XDICTIONARY
360
292
102
}
330
213
100
AcDbSymbolTableRecord
100
AcDbLayerTableRecord
2
0
70
0
62
7
6
CONTINUOUS
370
-3
390
220
347
232
348
0
0
LAYER
5
1900
330
213
100
AcDbSymbolTableRecord
100
AcDbLayerTableRecord
2
gear
70
0
62
7
6
CONTINUOUS
370
-3
390
220
347
232
348
0
1001
AcAecLayerStandard
1000

1000

1001
AcCmTransparency
1071
0
0
LAYER
5
1901
330
213
100
AcDbSymbolTableRecord
100
AcDbLayerTableRecord
2
gear_guides
70
0
62
5
6
CONTINUOUS
370
-3
390
220
347
232
348
0
1001
AcAecLayerStandard
1000

1000

1001
AcCmTransparency
1071
0
0
LAYER
5
1902
330
213
100
AcDbSymbolTableRecord
100
AcDbLayerTableRecord
2
gear_texts
70
0
62
7
6
CONTINUOUS
370
-3
390
220
347
232
348
0
1001
AcAecLayerStandard
1000

1000

1001
AcCmTransparency
1071
0
0
ENDTAB
0
TABLE
2
STYLE
5
214
330
0
100
AcDbSymbolTable
70
3
0
STYLE
5
266
330
214
100
AcDbSymbolTableRecord
100
AcDbTextStyleTableRecord
2
STANDARD
70
0
40
0.0
41
1.0
50
0.0
71
0
42
0.2
3
txt
4

0
STYLE
5
26A
330
214
100
AcDbSymbolTableRecord
100
AcDbTextStyleTableRecord
2
ANNOTATIVE
70
0
40
0.0
41
1.0
50
0.0
71
0
42
0.2
3
txt
4

1001
ACADANNOTATIVE
1000
AnnotativeData
1002
{
1070
1
1070
1
1002
}
0
STYLE
5
301
330
214
100
AcDbSymbolTableRecord
100
AcDbTextStyleTableRecord
2

70
1
40
0.0
41
1.0
50
0.0
71
0
42
0.2
3
ltypeshp.shx
4

0
ENDTAB
0
TABLE
2
VIEW
5
217
330
0
100
AcDbSymbolTable
70
1
0
ENDTAB
0
TABLE
2
UCS
5
218
330
0
100
AcDbSymbolTable
70
0
0
ENDTAB
0
TABLE
2
APPID
5
21A
330
0
100
AcDbSymbolTable
70
10
0
APPID
5
267
330
21A
100
AcDbSymbolTableRecord
100
AcDbRegAppTableRecord
2
ACAD
70
0
0
APPID
5
26E
330
21A
100
AcDbSymbolTableRecord
100
AcDbRegAppTableRecord
2
ACADANNOTATIVE
70
0
0
APPID
5
286
330
21A
100
AcDbSymbolTableRecord
100
AcDbRegAppTableRecord
2
ACADANNOPO
70
0
0
APPID
5
287
330
21A
100
AcDbSymbolTableRecord
100
AcDbRegAppTableRecord
2
ACAD_DSTYLE_DIMJAG
70
0
0
APPID
5
288
330
21A
100
AcDbSymbolTableRecord
100
AcDbRegAppTableRecord
2
ACAD_DSTYLE_DIMTALN
70
0
0
APPID
5
289
330
21A
100
AcDbSymbolTableRecord
100
AcDbRegAppTableRecord
2
ACAD_MLEADERVER
70
0
0
APPID
5
28A
330
21A
100
AcDbSymbolTableRecord
100
AcDbRegAppTableRecord
2
ACAD_NAV_VCDISPLAY
70
0
0
APPID
5
2E7
330
21A
100
AcDbSymbolTableRecord
100
AcDbRegAppTableRecord
2
ACAD_EXEMPT_FROM_CAD_STANDARDS
70
0
0
APPID
5
2FC
330
21A
100
AcDbSymbolTableRecord
100
AcDbRegAppTableRecord
2
AcAecLayerStandard
70
0
0
APPID
5
2FD
330
21A
100
AcDbSymbolTableRecord
100
AcDbRegAppTableRecord
2
AcCmTransparency
70
0
0
ENDTAB
0
TABLE
2
DIMSTYLE
5
21B
330
0
100
AcDbSymbolTable
70
2
100
AcDbDimStyleTable
71
1
340
268
0
DIMSTYLE
105
268
330
21B
100
AcDbSymbolTableRecord
100
AcDbDimStyleTableRecord
2
STANDARD
70
0
279
2
340
266
0
DIMSTYLE
105
269
330
21B
100
AcDbSymbolTableRecord
100
AcDbDimStyleTableRecord
2
ANNOTATIVE
70
0
40
0.0
279
2
340
266
1001
ACADANNOTATIVE
1000
AnnotativeData
1002
{
1070
1
1070
1
1002
}
0
ENDTAB
0
TABLE
2
BLOCK_RECORD
5
212
330
0
100
AcDbSymbolTable
70
2
0
BLOCK_RECORD
5
281
330
212
100
AcDbSymbolTableRecord
100
AcDbBlockTableRecord
2
*Model_Space
340
284
70
0
280
1
281
0
0
BLOCK_RECORD
5
27D
330
212
100
AcDbSymbolTableRecord
100
AcDbBlockTableRecord
2
*Paper_Space
340
280
70
0
280
1
281
0
0
BLOCK_RECORD
5
28C
330
212
100
AcDbSymbolTableRecord
100
AcDbBlockTableRecord
2
$MODEL_SPACE
340
0
70
0
280
1
281
0
0
BLOCK_RECORD
5
28E
330
212
100
AcDbSymbolTableRecord
100
AcDbBlockTableRecord
2
$PAPER_SPACE
340
0
70
0
280
1
281
0
0
ENDTAB
0
ENDSEC
0
SECTION
2
BLOCKS
0
BLOCK
5
282
330
281
100
AcDbEntity
8
0
100
AcDbBlockBegin
2
*Model_Space
70
0
10
0.0
20
0.0
30
0.0
3
*Model_Space
1

0
ENDBLK
5
283
330
281
100
AcDbEntity
8
0
100
AcDbBlockEnd
0
BLOCK
5
27E
330
27D
100
AcDbEntity
67
1
8
0
100
AcDbBlockBegin
2
*Paper_Space
70
0
10
0.0
20
0.0
30
0.0
3
*Paper_Space
1

0
ENDBLK
5
27F
330
27D
100
AcDbEntity
67
1
8
0
100
AcDbBlockEnd
0
BLOCK
5
28D
330
28C
100
AcDbEntity
8
0
100
AcDbBlockBegin
2
$MODEL_SPACE
70
0
10
0.0
20
0.0
30
0.0
3
$MODEL_SPACE
1

0
ENDBLK
5
21
330
28C
100
AcDbEntity
8
0
100
AcDbBlockEnd
0
BLOCK
5
28F
330
28E
100
AcDbEntity
8
0
100
AcDbBlockBegin
2
$PAPER_SPACE
70
0
10
0.0
20
0.0
30
0.0
3
$PAPER_SPACE
1

0
ENDBLK
5
5B
330
28E
100
AcDbEntity
8
0
100
AcDbBlockEnd
0
ENDSEC
0
SECTION
2
ENTITIES
0
LWPOLYLINE
5
2000
100
AcDbEntity
100
AcDbPolyline
66
1
90
2040
70
1
43
0
10
32.017
20
0
30
0
10
32.273959
20
0.000057
30
0
10
32.292318
20
0.00059
30
0
10
32.324251
20
0.002155
30
0
10
32.369718
20
0.005311
30
0
10
32.428662
20
0.010613
30
0
10
32.501006
20
0.018616
30
0
10
32.586661
20
0.029871
30
0
10
32.685517
20
0.044928
30
0
10
32.797448
20
0.064333
30
0
10
32.922313
20
0.088628
30
0
10
33.059951
20
0.118351
30
0
10
33.210186
20
0.154036
30
0
10
33.372828
20
0.196211
30
0
10
33.547666
20
0.245399
30
0
10
33.734475
20
0.302118
30
0
10
33.933016
20
0.366877
30
0
10
34.14303
20
0.440182
30
0
10
34.364246
20
0.522528
30
0
10
34.596375
20
0.614404
30
0
10
34.839114
20
0.716291
30
0
10
35.092144
20
0.828662
30
0
10
35.355131
20
0.951979
30
0
10
35.627729
20
1.086696
30
0
10
35.909574
20
1.233258
30
0
10
36.20029
20
1.392098
30
0
10
36.27431
20
1.433776
30
0
10
36.311517
20
1.454915
30
0
10
36.330169
20
1.46556
30
0
10
36.330439
20
1.465881
30
0
10
36.249856
20
2.827994
30
0
10
36.24955
20
2.828281
30
0
10
36.229773
20
2.836652
30
0
10
36.190333
20
2.853257
30
0
10
36.111916
20
2.885917
30
0
10
35.804499
20
3.009371
30
0
10
35.507339
20
3.121679
30
0
10
35.220758
20
3.223315
30
0
10
34.945065
20
3.314763
30
0
10
34.680551
20
3.396516
30
0
10
34.427492
20
3.469072
30
0
10
34.186149
20
3.532937
30
0
10
33.956767
20
3.588626
30
0
10
33.739575
20
3.636656
30
0
10
33.534783
20
3.677555
30
0
10
33.342589
20
3.711851
30
0
10
33.163171
20
3.740082
30
0
10
32.996691
20
3.762786
30
0
10
32.843296
20
3.780508
30
0
10
32.703114
20
3.793795
30
0
10
32.576256
20
3.803198
30
0
10
32.462817
20
3.80927
30
0
10
32.362876
20
3.812566
30
0
10
32.276491
20
3.813643
30
0
10
32.203707
20
3.81306
30
0
10
32.14455
20
3.811376
30
0
10
32.099028
20
3.809149
30
0
10
32.067133
20
3.806938
30
0
10
32.04884
20
3.805302
30
0
10
31.793666
20
3.775061
30
0
10
31.47185
20
5.883108
30
0
10
31.724423
20
5.930381
30
0
10
31.742372
20
5.934277
30
0
10
31.773473
20
5.941684
30
0
10
31.817586
20
5.95314
30
0
10
31.874552
20
5.969183
30
0
10
31.944194
20
5.990343
30
0
10
32.026323
20
6.017146
30
0
10
32.120729
20
6.050111
30
0
10
32.227188
20
6.089753
30
0
10
32.345462
20
6.136578
30
0
10
32.475295
20
6.191086
30
0
10
32.616416
20
6.253769
30
0
10
32.768538
20
6.325111
30
0
10
32.931361
20
6.405588
30
0
10
33.104568
20
6.495667
30
0
10
33.287828
20
6.595806
30
0
10
33.480797
20
6.706452
30
0
10
33.683115
20
6.828044
30
0
10
33.894409
20
6.96101
30
0
10
34.114293
20
7.105765
30
0
10
34.342367
20
7.262717
30
0
10
34.578217
20
7.432258
30
0
10
34.821419
20
7.614771
30
0
10
35.071535
20
7.810626
30
0
10
35.328114
20
8.020181
30
0
10
35.393215
20
8.074751
30
0
10
35.425904
20
8.102366
30
0
10
35.442283
20
8.116257
30
0
10
35.442489
20
8.116622
30
0
10
35.112991
20
9.440736
30
0
10
35.112637
20
9.440962
30
0
10
35.091658
20
9.445556
30
0
10
35.049839
20
9.454631
30
0
10
34.966756
20
9.472326
30
0
10
34.641889
20
9.53719
30
0
10
34.329152
20
9.592983
30
0
10
34.028775
20
9.640229
30
0
10
33.740973
20
9.679462
30
0
10
33.46594
20
9.711218
30
0
10
33.203858
20
9.736039
30
0
10
32.954889
20
9.754471
30
0
10
32.71918
20
9.767062
30
0
10
32.49686
20
9.774366
30
0
10
32.288041
20
9.776938
30
0
10
32.092817
20
9.775335
30
0
10
31.911267
20
9.770116
30
0
10
31.74345
20
9.761843
30
0
10
31.58941
20
9.751077
30
0
10
31.449173
20
9.73838
30
0
10
31.322748
20
9.724312
30
0
10
31.210125
20
9.709437
30
0
10
31.111279
20
9.694312
30
0
10
31.026168
20
9.679499
30
0
10
30.95473
20
9.665551
30
0
10
30.89689
20
9.653025
30
0
10
30.852552
20
9.642471
30
0
10
30.821606
20
9.634438
30
0
10
30.803925
20
9.629468
30
0
10
30.558653
20
9.552854
30
0
10
29.854963
20
11.565874
30
0
10
30.09455
20
11.658752
30
0
10
30.111477
20
11.66588
30
0
10
30.140688
20
11.678876
30
0
10
30.181945
20
11.698243
30
0
10
30.234992
20
11.72448
30
0
10
30.299561
20
11.758076
30
0
10
30.375366
20
11.799514
30
0
10
30.462107
20
11.849265
30
0
10
30.55947
20
11.907794
30
0
10
30.667126
20
11.975554
30
0
10
30.784733
20
12.052991
30
0
10
30.911932
20
12.140537
30
0
10
31.048355
20
12.238617
30
0
10
31.193618
20
12.347642
30
0
10
31.347324
20
12.468014
30
0
10
31.509063
20
12.600122
30
0
10
31.678415
20
12.744343
30
0
10
31.854946
20
12.90104
30
0
10
32.03821
20
13.070567
30
0
10
32.227752
20
13.253261
30
0
10
32.423102
20
13.449449
30
0
10
32.623784
20
13.659441
30
0
10
32.829308
20
13.883534
30
0
10
33.039177
20
14.122013
30
0
10
33.252882
20
14.375146
30
0
10
33.306847
20
14.440749
30
0
10
33.333905
20
14.473901
30
0
10
33.347452
20
14.490565
30
0
10
33.347588
20
14.490961
30
0
10
32.780394
20
15.731985
30
0
10
32.780006
20
15.732141
30
0
10
32.75854
20
15.732803
30
0
10
32.715765
20
15.734039
30
0
10
32.630845
20
15.736166
30
0
10
32.299591
20
15.740232
30
0
10
31.981927
20
15.737609
30
0
10
31.677983
20
15.728857
30
0
10
31.387872
20
15.714538
30
0
10
31.111687
20
15.695217
30
0
10
30.849507
20
15.671457
30
0
10
30.601391
20
15.643827
30
0
10
30.367381
20
15.612893
30
0
10
30.147504
20
15.579221
30
0
10
29.941768
20
15.543379
30
0
10
29.750163
20
15.505931
30
0
10
29.572663
20
15.467441
30
0
10
29.409223
20
15.428473
30
0
10
29.259785
20
15.389585
30
0
10
29.124269
20
15.351336
30
0
10
29.002581
20
15.314277
30
0
10
28.894609
20
15.27896
30
0
10
28.800225
20
15.245931
30
0
10
28.719285
20
15.21573
30
0
10
28.651627
20
15.188894
30
0
10
28.597073
20
15.165953
30
0
10
28.555429
20
15.147432
30
0
10
28.526487
20
15.133848
30
0
10
28.510019
20
15.125714
30
0
10
28.283001
20
15.005336
30
0
10
27.221402
20
16.854779
30
0
10
27.439843
20
16.990099
30
0
10
27.455172
20
17.000216
30
0
10
27.481498
20
17.018358
30
0
10
27.518493
20
17.044976
30
0
10
27.565817
20
17.080514
30
0
10
27.623113
20
17.125403
30
0
10
27.690013
20
17.180064
30
0
10
27.766135
20
17.244906
30
0
10
27.851086
20
17.320329
30
0
10
27.944458
20
17.406717
30
0
10
28.045833
20
17.504445
30
0
10
28.15478
20
17.613874
30
0
10
28.270858
20
17.735352
30
0
10
28.393614
20
17.869213
30
0
10
28.522584
20
18.015778
30
0
10
28.657295
20
18.175356
30
0
10
28.797263
20
18.348239
30
0
10
28.941995
20
18.534706
30
0
10
29.090989
20
18.735021
30
0
10
29.243733
20
18.949433
30
0
10
29.399707
20
19.178176
30
0
10
29.558386
20
19.421467
30
0
10
29.719234
20
19.67951
30
0
10
29.881709
20
19.952492
30
0
10
30.045262
20
20.240583
30
0
10
30.086254
20
20.314985
30
0
10
30.10676
20
20.352544
30
0
10
30.117014
20
20.371414
30
0
10
30.117075
20
20.371828
30
0
10
29.331501
20
21.487499
30
0
10
29.33109
20
21.487582
30
0
10
29.309868
20
21.484288
30
0
10
29.267595
20
21.477643
30
0
10
29.18373
20
21.46413
30
0
10
28.857369
20
21.407259
30
0
10
28.545596
20
21.34631
30
0
10
28.248436
20
21.281858
30
0
10
27.965895
20
21.214475
30
0
10
27.697963
20
21.144733
30
0
10
27.444613
20
21.073203
30
0
10
27.205798
20
21.000452
30
0
10
26.981457
20
20.927045
30
0
10
26.771512
20
20.853545
30
0
10
26.575864
20
20.780509
30
0
10
26.394403
20
20.708491
30
0
10
26.226997
20
20.638041
30
0
10
26.073501
20
20.569705
30
0
10
25.933752
20
20.50402
30
0
10
25.807572
20
20.44152
30
0
10
25.694765
20
20.382733
30
0
10
25.595122
20
20.328177
30
0
10
25.508414
20
20.278367
30
0
10
25.434401
20
20.233808
30
0
10
25.372826
20
20.194997
30
0
10
25.323417
20
20.162422
30
0
10
25.285885
20
20.136564
30
0
10
25.259932
20
20.117894
30
0
10
25.245239
20
20.106873
30
0
10
25.044206
20
19.94683
30
0
10
23.660849
20
21.569713
30
0
10
23.850705
20
21.742868
30
0
10
23.863914
20
21.75563
30
0
10
23.886458
20
21.7783
30
0
10
23.917933
20
21.811263
30
0
10
23.95792
20
21.854891
30
0
10
24.005992
20
21.909544
30
0
10
24.061709
20
21.975567
30
0
10
24.124621
20
22.053293
30
0
10
24.194266
20
22.143041
30
0
10
24.270174
20
22.245116
30
0
10
24.351866
20
22.359807
30
0
10
24.438851
20
22.487392
30
0
10
24.530631
20
22.62813
30
0
10
24.6267
20
22.782268
30
0
10
24.726543
20
22.950037
30
0
10
24.829638
20
23.131651
30
0
10
24.935455
20
23.327309
30
0
10
25.043459
20
23.537196
30
0
10
25.153108
20
23.761477
30
0
10
25.263853
20
24.000305
30
0
10
25.375141
20
24.253813
30
0
10
25.486413
20
24.522119
30
0
10
25.597107
20
24.805324
30
0
10
25.706655
20
25.103512
30
0
10
25.814487
20
25.416751
30
0
10
25.84111
20
25.497418
30
0
10
25.854365
20
25.538106
30
0
10
25.860977
20
25.558538
30
0
10
25.860961
20
25.558957
30
0
10
24.883759
20
26.511283
30
0
10
24.88334
20
26.511289
30
0
10
24.863085
20
26.504151
30
0
10
24.822752
20
26.489852
30
0
10
24.742798
20
26.461159
30
0
10
24.432444
20
26.345287
30
0
10
24.137179
20
26.228088
30
0
10
23.856921
20
26.11013
30
0
10
23.591573
20
25.991978
30
0
10
23.341018
20
25.874191
30
0
10
23.105125
20
25.757326
30
0
10
22.883745
20
25.641932
30
0
10
22.676712
20
25.528552
30
0
10
22.483847
20
25.417726
30
0
10
22.304951
20
25.309983
30
0
10
22.139813
20
25.205848
30
0
10
21.988202
20
25.105838
30
0
10
21.849877
20
25.01046
30
0
10
21.724577
20
24.920214
30
0
10
21.61203
20
24.835593
30
0
10
21.511946
20
24.757079
30
0
10
21.424023
20
24.685143
30
0
10
21.347945
20
24.620249
30
0
10
21.28338
20
24.562848
30
0
10
21.229985
20
24.513383
30
0
10
21.187402
20
24.472284
30
0
10
21.155261
20
24.43997
30
0
10
21.13318
20
24.416849
30
0
10
21.120763
20
24.403315
30
0
10
20.952561
20
24.209058
30
0
10
19.294553
20
25.550118
30
0
10
19.44936
20
25.75521
30
0
10
19.459999
20
25.770181
30
0
10
19.477994
20
25.796608
30
0
10
19.502875
20
25.834793
30
0
10
19.534165
20
25.885026
30
0
10
19.571377
20
25.947582
30
0
10
19.614013
20
26.022718
30
0
10
19.661571
20
26.110681
30
0
10
19.713539
20
26.211698
30
0
10
19.769399
20
26.325983
30
0
10
19.828625
20
26.453733
30
0
10
19.890685
20
26.595128
30
0
10
19.955042
20
26.750335
30
0
10
20.021152
20
26.919501
30
0
10
20.088468
20
27.102759
30
0
10
20.156436
20
27.300224
30
0
10
20.2245
20
27.511995
30
0
10
20.292099
20
27.738154
30
0
10
20.358669
20
27.978764
30
0
10
20.423644
20
28.233875
30
0
10
20.486455
20
28.503515
30
0
10
20.546531
20
28.787699
30
0
10
20.603301
20
29.086422
30
0
10
20.656192
20
29.399663
30
0
10
20.704631
20
29.727382
30
0
10
20.715977
20
29.811568
30
0
10
20.72153
20
29.853998
30
0
10
20.724276
20
29.875298
30
0
10
20.724183
20
29.875707
30
0
10
19.58863
20
30.632257
30
0
10
19.588217
20
30.632185
30
0
10
19.569618
20
30.621448
30
0
10
19.5326
20
30.599981
30
0
10
19.45928
20
30.557084
30
0
10
19.175501
20
30.386158
30
0
10
18.906799
20
30.2167
30
0
10
18.652988
20
30.049253
30
0
10
18.413868
20
29.884355
30
0
10
18.189223
20
29.722535
30
0
10
17.97882
20
29.564314
30
0
10
17.782413
20
29.410206
30
0
10
17.599739
20
29.260715
30
0
10
17.430522
20
29.116337
30
0
10
17.27447
20
28.977557
30
0
10
17.131278
20
28.844851
30
0
10
17.000626
20
28.718685
30
0
10
16.882181
20
28.599513
30
0
10
16.775598
20
28.487781
30
0
10
16.680515
20
28.38392
30
0
10
16.596563
20
28.288352
30
0
10
16.523355
20
28.201485
30
0
10
16.460497
20
28.123717
30
0
10
16.407579
20
28.05543
30
0
10
16.364182
20
27.996996
30
0
10
16.329876
20
27.948772
30
0
10
16.30422
20
27.911102
30
0
10
16.286763
20
27.884317
30
0
10
16.277044
20
27.868733
30
0
10
16.147401
20
27.646876
30
0
10
14.271205
20
28.660443
30
0
10
14.38569
20
28.890489
30
0
10
14.393397
20
28.90716
30
0
10
14.40623
20
28.936444
30
0
10
14.423671
20
28.978551
30
0
10
14.445198
20
29.033678
30
0
10
14.470281
20
29.102006
30
0
10
14.498385
20
29.183698
30
0
10
14.52897
20
29.278901
30
0
10
14.561492
20
29.387748
30
0
10
14.595401
20
29.510351
30
0
10
14.630144
20
29.646808
30
0
10
14.665167
20
29.797199
30
0
10
14.699909
20
29.961589
30
0
10
14.733809
20
30.140022
30
0
10
14.766305
20
30.332529
30
0
10
14.796831
20
30.539121
30
0
10
14.824823
20
30.759793
30
0
10
14.849715
20
30.994522
30
0
10
14.870939
20
31.243268
30
0
10
14.887931
20
31.505974
30
0
10
14.900127
20
31.782565
30
0
10
14.906962
20
32.072949
30
0
10
14.907875
20
32.377017
30
0
10
14.902307
20
32.694643
30
0
10
14.889703
20
33.025683
30
0
10
14.885387
20
33.11052
30
0
10
14.883049
20
33.153248
30
0
10
14.881834
20
33.17469
30
0
10
14.881667
20
33.175075
30
0
10
13.626434
20
33.710086
30
0
10
13.626041
20
33.70994
30
0
10
13.609732
20
33.695967
30
0
10
13.577289
20
33.668064
30
0
10
13.513099
20
33.612425
30
0
10
13.26556
20
33.392265
30
0
10
13.032571
20
33.176318
30
0
10
12.81385
20
32.965085
30
0
10
12.609101
20
32.759057
30
0
10
12.418015
20
32.558713
30
0
10
12.240268
20
32.364525
30
0
10
12.075522
20
32.176951
30
0
10
11.923428
20
31.99644
30
0
10
11.783621
20
31.823426
30
0
10
11.655727
20
31.658334
30
0
10
11.539358
20
31.501576
30
0
10
11.434113
20
31.353551
30
0
10
11.339583
20
31.214645
30
0
10
11.255345
20
31.08523
30
0
10
11.180966
20
30.965667
30
0
10
11.116004
20
30.8563
30
0
10
11.060005
20
30.75746
30
0
10
11.012506
20
30.669465
30
0
10
10.973037
20
30.592617
30
0
10
10.941116
20
30.527204
30
0
10
10.916255
20
30.473498
30
0
10
10.897958
20
30.431755
30
0
10
10.88572
20
30.402219
30
0
10
10.879031
20
30.385114
30
0
10
10.79236
20
30.143212
30
0
10
8.761868
20
30.794772
30
0
10
8.832133
20
31.041937
30
0
10
8.836645
20
31.059741
30
0
10
8.843879
20
31.090883
30
0
10
8.853286
20
31.135478
30
0
10
8.864317
20
31.193623
30
0
10
8.876417
20
31.265396
30
0
10
8.889032
20
31.350861
30
0
10
8.901603
20
31.450064
30
0
10
8.91357
20
31.563033
30
0
10
8.924374
20
31.689779
30
0
10
8.933452
20
31.830297
30
0
10
8.940243
20
31.984563
30
0
10
8.944187
20
32.152537
30
0
10
8.944723
20
32.334162
30
0
10
8.941293
20
32.529362
30
0
10
8.933338
20
32.738045
30
0
10
8.920305
20
32.960103
30
0
10
8.901642
20
33.195409
30
0
10
8.876798
20
33.44382
30
0
10
8.845229
20
33.705175
30
0
10
8.806393
20
33.979298
30
0
10
8.759753
20
34.265993
30
0
10
8.704779
20
34.565052
30
0
10
8.640942
20
34.876246
30
0
10
8.567724
20
35.199333
30
0
10
8.547893
20
35.281933
30
0
10
8.537743
20
35.323504
30
0
10
8.53261
20
35.344358
30
0
10
8.532375
20
35.344705
30
0
10
7.200206
20
35.639958
30
0
10
7.199847
20
35.639742
30
0
10
7.186383
20
35.623011
30
0
10
7.159619
20
35.589621
30
0
10
7.106746
20
35.523135
30
0
10
6.903876
20
35.261239
30
0
10
6.714534
20
35.006157
30
0
10
6.538351
20
34.758331
30
0
10
6.374946
20
34.518188
30
0
10
6.223927
20
34.286144
30
0
10
6.084888
20
34.062601
30
0
10
5.957414
20
33.847949
30
0
10
5.841078
20
33.642563
30
0
10
5.735444
20
33.446806
30
0
10
5.640063
20
33.261025
30
0
10
5.554479
20
33.085553
30
0
10
5.478226
20
32.92071
30
0
10
5.410829
20
32.766799
30
0
10
5.351805
20
32.624109
30
0
10
5.300663
20
32.492915
30
0
10
5.256903
20
32.373473
30
0
10
5.220019
20
32.266026
30
0
10
5.189498
20
32.170802
30
0
10
5.164821
20
32.08801
30
0
10
5.145464
20
32.017845
30
0
10
5.130895
20
31.960485
30
0
10
5.120579
20
31.916091
30
0
10
5.113977
20
31.884809
30
0
10
5.110544
20
31.866766
30
0
10
5.069799
20
31.613058
30
0
10
2.954156
20
31.880421
30
0
10
2.977808
20
32.136289
30
0
10
2.978972
20
32.154619
30
0
10
2.98036
20
32.18656
30
0
10
2.981413
20
32.232125
30
0
10
2.981572
20
32.291306
30
0
10
2.980278
20
32.364081
30
0
10
2.976974
20
32.450408
30
0
10
2.971102
20
32.550232
30
0
10
2.962108
20
32.663476
30
0
10
2.949438
20
32.790049
30
0
10
2.932541
20
32.929843
30
0
10
2.910871
20
33.08273
30
0
10
2.883882
20
33.248569
30
0
10
2.851036
20
33.4272
30
0
10
2.811796
20
33.618446
30
0
10
2.765631
20
33.822115
30
0
10
2.712017
20
34.037997
30
0
10
2.650434
20
34.265867
30
0
10
2.580368
20
34.505483
30
0
10
2.501312
20
34.756587
30
0
10
2.412767
20
35.018906
30
0
10
2.314242
20
35.29215
30
0
10
2.205251
20
35.576015
30
0
10
2.08532
20
35.870181
30
0
10
1.953982
20
36.174313
30
0
10
1.919311
20
36.251862
30
0
10
1.901695
20
36.290861
30
0
10
1.892817
20
36.310416
30
0
10
1.892522
20
36.310714
30
0
10
0.528784
20
36.356155
30
0
10
0.52847
20
36.355877
30
0
10
0.51831
20
36.336956
30
0
10
0.498137
20
36.299217
30
0
10
0.458381
20
36.224147
30
0
10
0.307089
20
35.929433
30
0
10
0.167842
20
35.643903
30
0
10
0.040197
20
35.367923
30
0
10
-0.076299
20
35.101843
30
0
10
-0.182109
20
34.846
30
0
10
-0.277705
20
34.600716
30
0
10
-0.363566
20
34.366295
30
0
10
-0.440182
20
34.14303
30
0
10
-0.508048
20
33.931196
30
0
10
-0.567668
20
33.731052
30
0
10
-0.619551
20
33.542842
30
0
10
-0.664216
20
33.366794
30
0
10
-0.702184
20
33.203119
30
0
10
-0.733984
20
33.052014
30
0
10
-0.760148
20
32.913655
30
0
10
-0.781216
20
32.788206
30
0
10
-0.797729
20
32.675812
30
0
10
-0.810233
20
32.576601
30
0
10
-0.819276
20
32.490684
30
0
10
-0.825411
20
32.418157
30
0
10
-0.829192
20
32.359096
30
0
10
-0.831175
20
32.313563
30
0
10
-0.831916
20
32.2816
30
0
10
-0.831975
20
32.263234
30
0
10
-0.825408
20
32.006359
30
0
10
-2.954156
20
31.880421
30
0
10
-2.977922
20
32.136279
30
0
10
-2.980146
20
32.15451
30
0
10
-2.984651
20
32.186163
30
0
10
-2.991989
20
32.231145
30
0
10
-3.002707
20
32.289347
30
0
10
-3.017351
20
32.360645
30
0
10
-3.036462
20
32.444896
30
0
10
-3.060576
20
32.541941
30
0
10
-3.090226
20
32.651604
30
0
10
-3.125938
20
32.773694
30
0
10
-3.168234
20
32.908003
30
0
10
-3.217628
20
33.054305
30
0
10
-3.27463
20
33.212361
30
0
10
-3.33974
20
33.381915
30
0
10
-3.413454
20
33.562694
30
0
10
-3.496256
20
33.754412
30
0
10
-3.588626
20
33.956767
30
0
10
-3.691031
20
34.169441
30
0
10
-3.803934
20
34.392103
30
0
10
-3.927784
20
34.624405
30
0
10
-4.063022
20
34.865987
30
0
10
-4.210078
20
35.116475
30
0
10
-4.369373
20
35.37548
30
0
10
-4.541315
20
35.6426
30
0
10
-4.726301
20
35.91742
30
0
10
-4.774631
20
35.987278
30
0
10
-4.799113
20
36.022376
30
0
10
-4.811433
20
36.039966
30
0
10
-4.811778
20
36.040205
30
0
10
-6.160645
20
35.834286
30
0
10
-6.160903
20
35.833955
30
0
10
-6.167413
20
35.81349
30
0
10
-6.180308
20
35.772686
30
0
10
-6.205593
20
35.69159
30
0
10
-6.300156
20
35.374093
30
0
10
-6.384566
20
35.067839
30
0
10
-6.459326
20
34.773103
30
0
10
-6.524947
20
34.490148
30
0
10
-6.581944
20
34.219218
30
0
10
-6.630841
20
33.960545
30
0
10
-6.672166
20
33.714339
30
0
10
-6.706452
20
33.480797
30
0
10
-6.734238
20
33.260099
30
0
10
-6.756066
20
33.052408
30
0
10
-6.772483
20
32.857869
30
0
10
-6.784039
20
32.676612
30
0
10
-6.791285
20
32.508747
30
0
10
-6.794778
20
32.354371
30
0
10
-6.795074
20
32.213561
30
0
10
-6.792732
20
32.086377
30
0
10
-6.788311
20
31.972862
30
0
10
-6.782372
20
31.873042
30
0
10
-6.775474
20
31.786927
30
0
10
-6.768178
20
31.714507
30
0
10
-6.761042
20
31.655758
30
0
10
-6.754624
20
31.610635
30
0
10
-6.74948
20
31.57908
30
0
10
-6.746163
20
31.561016
30
0
10
-6.692507
20
31.309721
30
0
10
-8.761868
20
30.794772
30
0
10
-8.832243
20
31.041906
30
0
10
-8.837779
20
31.059418
30
0
10
-8.848024
20
31.089704
30
0
10
-8.863502
20
31.132572
30
0
10
-8.884732
20
31.187814
30
0
10
-8.912228
20
31.255207
30
0
10
-8.946494
20
31.334512
30
0
10
-8.98803
20
31.425473
30
0
10
-9.037325
20
31.527821
30
0
10
-9.094863
20
31.64127
30
0
10
-9.161118
20
31.76552
30
0
10
-9.236555
20
31.900255
30
0
10
-9.321628
20
32.045146
30
0
10
-9.416786
20
32.199848
30
0
10
-9.522462
20
32.364005
30
0
10
-9.639083
20
32.537244
30
0
10
-9.767062
20
32.71918
30
0
10
-9.906803
20
32.909416
30
0
10
-10.058697
20
33.107541
30
0
10
-10.223123
20
33.31313
30
0
10
-10.400449
20
33.525749
30
0
10
-10.591029
20
33.744951
30
0
10
-10.795203
20
33.970275
30
0
10
-11.013301
20
34.201252
30
0
10
-11.245635
20
34.437402
30
0
10
-11.305979
20
34.49719
30
0
10
-11.336493
20
34.527191
30
0
10
-11.351836
20
34.542219
30
0
10
-11.352218
20
34.54239
30
0
10
-12.640282
20
34.092123
30
0
10
-12.640474
20
34.091751
30
0
10
-12.643113
20
34.070438
30
0
10
-12.64829
20
34.02796
30
0
10
-12.658244
20
33.943598
30
0
10
-12.692857
20
33.614132
30
0
10
-12.719555
20
33.297581
30
0
10
-12.738885
20
32.994127
30
0
10
-12.751395
20
32.703931
30
0
10
-12.757639
20
32.427142
30
0
10
-12.758172
20
32.163888
30
0
10
-12.753553
20
31.914281
30
0
10
-12.744343
20
31.678415
30
0
10
-12.731102
20
31.45637
30
0
10
-12.714396
20
31.248204
30
0
10
-12.694786
20
31.053961
30
0
10
-12.672839
20
30.873666
30
0
10
-12.649117
20
30.707329
30
0
10
-12.624184
20
30.554939
30
0
10
-12.598601
20
30.416472
30
0
10
-12.572929
20
30.291884
30
0
10
-12.547725
20
30.181114
30
0
10
-12.523545
20
30.084086
30
0
10
-12.500941
20
30.000704
30
0
10
-12.480462
20
29.930858
30
0
10
-12.462653
20
29.87442
30
0
10
-12.448053
20
29.831245
30
0
10
-12.437198
20
29.801173
30
0
10
-12.430618
20
29.784025
30
0
10
-12.3317
20
29.546869
30
0
10
-14.271205
20
28.660443
30
0
10
-14.385793
20
28.890438
30
0
10
-14.394452
20
28.906635
30
0
10
-14.410088
20
28.934523
30
0
10
-14.433179
20
28.973816
30
0
10
-14.464199
20
29.024217
30
0
10
-14.503609
20
29.08541
30
0
10
-14.551864
20
29.157068
30
0
10
-14.609407
20
29.238849
30
0
10
-14.676669
20
29.330396
30
0
10
-14.754074
20
29.431341
30
0
10
-14.842032
20
29.541301
30
0
10
-14.940941
20
29.65988
30
0
10
-15.05119
20
29.786671
30
0
10
-15.173154
20
29.921255
30
0
10
-15.307194
20
30.063198
30
0
10
-15.453662
20
30.212059
30
0
10
-15.612893
20
30.367381
30
0
10
-15.78521
20
30.528701
30
0
10
-15.970923
20
30.695541
30
0
10
-16.170327
20
30.867417
30
0
10
-16.383702
20
31.043832
30
0
10
-16.611315
20
31.224282
30
0
10
-16.853416
20
31.408253
30
0
10
-17.110242
20
31.595222
30
0
10
-17.382013
20
31.78466
30
0
10
-17.452315
20
31.832342
30
0
10
-17.487822
20
31.856225
30
0
10
-17.505665
20
31.868177
30
0
10
-17.506073
20
31.868276
30
0
10
-18.689468
20
31.188995
30
0
10
-18.689588
20
31.188593
30
0
10
-18.688266
20
31.167158
30
0
10
-18.68555
20
31.124452
30
0
10
-18.679833
20
31.039697
30
0
10
-18.653317
20
30.709481
30
0
10
-18.621395
20
30.393414
30
0
10
-18.584636
20
30.091575
30
0
10
-18.54361
20
29.804022
30
0
10
-18.498888
20
29.530798
30
0
10
-18.451039
20
29.271929
30
0
10
-18.400634
20
29.02742
30
0
10
-18.348239
20
28.797263
30
0
10
-18.294424
20
28.581431
30
0
10
-18.239751
20
28.37988
30
0
10
-18.184784
20
28.192547
30
0
10
-18.130081
20
28.019355
30
0
10
-18.076199
20
27.860209
30
0
10
-18.023689
20
27.714996
30
0
10
-17.973098
20
27.583587
30
0
10
-17.92497
20
27.465837
30
0
10
-17.879841
20
27.361585
30
0
10
-17.838244
20
27.270652
30
0
10
-17.800704
20
27.192843
30
0
10
-17.767739
20
27.12795
30
0
10
-17.739862
20
27.075745
30
0
10
-17.717578
20
27.035988
30
0
10
-17.701382
20
27.008422
30
0
10
-17.691763
20
26.992776
30
0
10
-17.550952
20
26.777833
30
0
10
-19.294553
20
25.550118
30
0
10
-19.449451
20
25.755141
30
0
10
-19.46094
20
25.769471
30
0
10
-19.481433
20
25.794011
30
0
10
-19.511351
20
25.828392
30
0
10
-19.551104
20
25.872235
30
0
10
-19.601088
20
25.925145
30
0
10
-19.661688
20
25.986716
30
0
10
-19.733278
20
26.05653
30
0
10
-19.816217
20
26.134159
30
0
10
-19.910853
20
26.219162
30
0
10
-20.017518
20
26.311088
30
0
10
-20.136532
20
26.409473
30
0
10
-20.268201
20
26.513848
30
0
10
-20.412818
20
26.623729
30
0
10
-20.570658
20
26.738626
30
0
10
-20.741985
20
26.858038
30
0
10
-20.927045
20
26.981457
30
0
10
-21.126071
20
27.108367
30
0
10
-21.339279
20
27.238242
30
0
10
-21.566869
20
27.370551
30
0
10
-21.809028
20
27.504755
30
0
10
-22.065922
20
27.640308
30
0
10
-22.337706
20
27.776661
30
0
10
-22.624514
20
27.913255
30
0
10
-22.926467
20
28.049529
30
0
10
-23.004334
20
28.083481
30
0
10
-23.043625
20
28.100434
30
0
10
-23.06336
20
28.108903
30
0
10
-23.063779
20
28.108926
30
0
10
-24.102207
20
27.223762
30
0
10
-24.102251
20
27.223345
30
0
10
-24.097013
20
27.202518
30
0
10
-24.086496
20
27.161038
30
0
10
-24.065303
20
27.078777
30
0
10
-23.978561
20
26.759055
30
0
10
-23.889106
20
26.454236
30
0
10
-23.79751
20
26.164291
30
0
10
-23.704345
20
25.889173
30
0
10
-23.610179
20
25.628819
30
0
10
-23.515578
20
25.383149
30
0
10
-23.421102
20
25.152066
30
0
10
-23.327309
20
24.935455
30
0
10
-23.234751
20
24.733187
30
0
10
-23.143974
20
24.545113
30
0
10
-23.05552
20
24.37107
30
0
10
-22.969925
20
24.210879
30
0
10
-22.887717
20
24.064343
30
0
10
-22.809418
20
23.931251
30
0
10
-22.735543
20
23.811376
30
0
10
-22.666597
20
23.704475
30
0
10
-22.603081
20
23.61029
30
0
10
-22.545483
20
23.528548
30
0
10
-22.494285
20
23.458963
30
0
10
-22.449957
20
23.401231
30
0
10
-22.412963
20
23.355038
30
0
10
-22.383752
20
23.320053
30
0
10
-22.362767
20
23.295932
30
0
10
-22.350437
20
23.282319
30
0
10
-22.172528
20
23.096911
30
0
10
-23.660849
20
21.569713
30
0
10
-23.850782
20
21.742783
30
0
10
-23.864708
20
21.754758
30
0
10
-23.889362
20
21.775115
30
0
10
-23.925088
20
21.803413
30
0
10
-23.97222
20
21.839205
30
0
10
-24.031075
20
21.882029
30
0
10
-24.101957
20
21.931417
30
0
10
-24.185157
20
21.986888
30
0
10
-24.280948
20
22.047955
30
0
10
-24.389591
20
22.114122
30
0
10
-24.511331
20
22.184882
30
0
10
-24.646397
20
22.259724
30
0
10
-24.795004
20
22.338127
30
0
10
-24.957348
20
22.419564
30
0
10
-25.133613
20
22.503501
30
0
10
-25.323965
20
22.589399
30
0
10
-25.528552
20
22.676712
30
0
10
-25.747509
20
22.76489
30
0
10
-25.980951
20
22.853377
30
0
10
-26.228978
20
22.941613
30
0
10
-26.491673
20
23.029036
30
0
10
-26.769101
20
23.115077
30
0
10
-27.061312
20
23.199168
30
0
10
-27.368336
20
23.280735
30
0
10
-27.690188
20
23.359205
30
0
10
-27.772967
20
23.378271
30
0
10
-27.814705
20
23.387715
30
0
10
-27.83566
20
23.392415
30
0
10
-27.836076
20
23.392359
30
0
10
-28.694174
20
22.331457
30
0
10
-28.694141
20
22.331039
30
0
10
-28.685165
20
22.311529
30
0
10
-28.667206
20
22.272687
30
0
10
-28.631257
20
22.195722
30
0
10
-28.487244
20
21.897383
30
0
10
-28.343301
20
21.614191
30
0
10
-28.199988
20
21.346013
30
0
10
-28.057856
20
21.092698
30
0
10
-27.917454
20
20.85408
30
0
10
-27.779322
20
20.629976
30
0
10
-27.643993
20
20.420188
30
0
10
-27.511995
20
20.2245
30
0
10
-27.383846
20
20.042683
30
0
10
-27.260056
20
19.874492
30
0
10
-27.141129
20
19.719666
30
0
10
-27.027556
20
19.57793
30
0
10
-26.919822
20
19.448995
30
0
10
-26.8184
20
19.332557
30
0
10
-26.723756
20
19.228297
30
0
10
-26.636341
20
19.135885
30
0
10
-26.5566
20
19.054974
30
0
10
-26.484963
20
18.985208
30
0
10
-26.42185
20
18.926215
30
0
10
-26.367669
20
18.877612
30
0
10
-26.322816
20
18.839003
30
0
10
-26.287675
20
18.809981
30
0
10
-26.262615
20
18.790127
30
0
10
-26.247993
20
18.779012
30
0
10
-26.039045
20
18.629451
30
0
10
-27.221402
20
16.854779
30
0
10
-27.439903
20
16.990001
30
0
10
-27.455792
20
16.999214
30
0
10
-27.483767
20
17.014693
30
0
10
-27.524085
20
17.035946
30
0
10
-27.576991
20
17.062467
30
0
10
-27.642713
20
17.093748
30
0
10
-27.721463
20
17.12927
30
0
10
-27.813438
20
17.168509
30
0
10
-27.91882
20
17.210935
30
0
10
-28.037771
20
17.256011
30
0
10
-28.17044
20
17.303197
30
0
10
-28.316959
20
17.351946
30
0
10
-28.477442
20
17.401708
30
0
10
-28.651986
20
17.451928
30
0
10
-28.840673
20
17.502047
30
0
10
-29.043568
20
17.551505
30
0
10
-29.260715
20
17.599739
30
0
10
-29.492146
20
17.646182
30
0
10
-29.737873
20
17.690268
30
0
10
-29.99789
20
17.731427
30
0
10
-30.272176
20
17.76909
30
0
10
-30.560691
20
17.802689
30
0
10
-30.863378
20
17.831655
30
0
10
-31.180162
20
17.855418
30
0
10
-31.510952
20
17.873412
30
0
10
-31.595826
20
17.876942
30
0
10
-31.638588
20
17.878556
30
0
10
-31.66005
20
17.879325
30
0
10
-31.660449
20
17.879195
30
0
10
-32.308996
20
16.678681
30
0
10
-32.308887
20
16.678276
30
0
10
-32.296479
20
16.660747
30
0
10
-32.271688
20
16.625867
30
0
10
-32.222209
20
16.556818
30
0
10
-32.025828
20
16.290021
30
0
10
-31.8323
20
16.0381
30
0
10
-31.642149
20
15.800822
30
0
10
-31.455891
20
15.577937
30
0
10
-31.274034
20
15.369181
30
0
10
-31.097074
20
15.174275
30
0
10
-30.925501
20
14.992925
30
0
10
-30.759793
20
14.824823
30
0
10
-30.600417
20
14.66965
30
0
10
-30.44783
20
14.527068
30
0
10
-30.302478
20
14.396732
30
0
10
-30.164796
20
14.278278
30
0
10
-30.035204
20
14.171335
30
0
10
-29.914114
20
14.075515
30
0
10
-29.801923
20
13.990422
30
0
10
-29.699017
20
13.915645
30
0
10
-29.605766
20
13.850765
30
0
10
-29.522529
20
13.79535
30
0
10
-29.44965
20
13.748958
30
0
10
-29.387461
20
13.711138
30
0
10
-29.336278
20
13.681428
30
0
10
-29.296402
20
13.659357
30
0
10
-29.268121
20
13.644446
30
0
10
-29.251706
20
13.636207
30
0
10
-29.018833
20
13.527587
30
0
10
-29.854963
20
11.565874
30
0
10
-30.094591
20
11.658645
30
0
10
-30.111903
20
11.664781
30
0
10
-30.142245
20
11.674857
30
0
10
-30.185782
20
11.688339
30
0
10
-30.24266
20
11.704687
30
0
10
-30.313011
20
11.723359
30
0
10
-30.396947
20
11.743806
30
0
10
-30.494567
20
11.765476
30
0
10
-30.60595
20
11.787816
30
0
10
-30.731158
20
11.810268
30
0
10
-30.870239
20
11.832273
30
0
10
-31.023221
20
11.853269
30
0
10
-31.190114
20
11.872695
30
0
10
-31.370915
20
11.889987
30
0
10
-31.565599
20
11.904582
30
0
10
-31.774126
20
11.915916
30
0
10
-31.99644
20
11.923428
30
0
10
-32.232464
20
11.926555
30
0
10
-32.482107
20
11.924737
30
0
10
-32.74526
20
11.917418
30
0
10
-33.021797
20
11.90404
30
0
10
-33.311573
20
11.884053
30
0
10
-33.614428
20
11.856906
30
0
10
-33.930185
20
11.822056
30
0
10
-34.258649
20
11.778961
30
0
10
-34.342726
20
11.766836
30
0
10
-34.385057
20
11.760565
30
0
10
-34.406295
20
11.757377
30
0
10
-34.406663
20
11.757175
30
0
10
-34.823573
20
10.457932
30
0
10
-34.823392
20
10.457554
30
0
10
-34.807974
20
10.442604
30
0
10
-34.777196
20
10.412873
30
0
10
-34.715872
20
10.354091
30
0
10
-34.473811
20
10.127922
30
0
10
-34.237288
20
9.915851
30
0
10
-34.006775
20
9.717554
30
0
10
-33.782733
20
9.532689
30
0
10
-33.565613
20
9.360903
30
0
10
-33.355853
20
9.201832
30
0
10
-33.153879
20
9.055096
30
0
10
-32.960103
20
8.920305
30
0
10
-32.774928
20
8.797059
30
0
10
-32.59874
20
8.684943
30
0
10
-32.431914
20
8.583534
30
0
10
-32.274809
20
8.492397
30
0
10
-32.127773
20
8.411087
30
0
10
-31.991138
20
8.339149
30
0
10
-31.865222
20
8.276119
30
0
10
-31.750327
20
8.221525
30
0
10
-31.646743
20
8.174884
30
0
10
-31.55474
20
8.135707
30
0
10
-31.474579
20
8.103497
30
0
10
-31.406499
20
8.077748
30
0
10
-31.350728
20
8.057949
30
0
10
-31.307475
20
8.043581
30
0
10
-31.276936
20
8.034121
30
0
10
-31.259286
20
8.029038
30
0
10
-31.01042
20
7.965057
30
0
10
-31.47185
20
5.883108
30
0
10
-31.724444
20
5.930268
30
0
10
-31.742588
20
5.933118
30
0
10
-31.774265
20
5.937447
30
0
10
-31.819538
20
5.9427
30
0
10
-31.878452
20
5.948319
30
0
10
-31.951036
20
5.953745
30
0
10
-32.0373
20
5.958421
30
0
10
-32.13724
20
5.961785
30
0
10
-32.250831
20
5.963278
30
0
10
-32.378033
20
5.96234
30
0
10
-32.518789
20
5.958414
30
0
10
-32.673024
20
5.950943
30
0
10
-32.840645
20
5.939371
30
0
10
-33.021545
20
5.923147
30
0
10
-33.215596
20
5.90172
30
0
10
-33.422655
20
5.874545
30
0
10
-33.642563
20
5.841078
30
0
10
-33.875144
20
5.800783
30
0
10
-34.120202
20
5.753124
30
0
10
-34.37753
20
5.697575
30
0
10
-34.646899
20
5.633612
30
0
10
-34.928069
20
5.560719
30
0
10
-35.220779
20
5.478385
30
0
10
-35.524756
20
5.386108
30
0
10
-35.839709
20
5.283391
30
0
10
-35.920127
20
5.256023
30
0
10
-35.960584
20
5.242081
30
0
10
-35.980875
20
5.235045
30
0
10
-35.981199
20
5.234779
30
0
10
-36.152276
20
3.881051
30
0
10
-36.152028
20
3.880713
30
0
10
-36.134125
20
3.86885
30
0
10
-36.098408
20
3.845281
30
0
10
-36.027327
20
3.798768
30
0
10
-35.74783
20
3.620928
30
0
10
-35.476366
20
3.45593
30
0
10
-35.213341
20
3.303365
30
0
10
-34.959145
20
3.162816
30
0
10
-34.714156
20
3.033851
30
0
10
-34.478738
20
2.916031
30
0
10
-34.25324
20
2.808906
30
0
10
-34.037997
20
2.712017
30
0
10
-33.833328
20
2.624895
30
0
10
-33.639539
20
2.547063
30
0
10
-33.456919
20
2.478035
30
0
10
-33.285743
20
2.417317
30
0
10
-33.12627
20
2.364409
30
0
10
-32.978743
20
2.318802
30
0
10
-32.843389
20
2.279983
30
0
10
-32.720419
20
2.24743
30
0
10
-32.610028
20
2.220618
30
0
10
-32.512393
20
2.199013
30
0
10
-32.427678
20
2.182081
30
0
10
-32.356026
20
2.16928
30
0
10
-32.297566
20
2.160066
30
0
10
-32.25241
20
2.15389
30
0
10
-32.220652
20
2.150203
30
0
10
-32.202369
20
2.14845
30
0
10
-31.945984
20
2.131287
30
0
10
-32.017
20
0
30
0
10
-32.273959
20
-0.000057
30
0
10
-32.292318
20
-0.00059
30
0
10
-32.324251
20
-0.002155
30
0
10
-32.369718
20
-0.005311
30
0
10
-32.428662
20
-0.010613
30
0
10
-32.501006
20
-0.018616
30
0
10
-32.586661
20
-0.029871
30
0
10
-32.685517
20
-0.044928
30
0
10
-32.797448
20
-0.064333
30
0
10
-32.922313
20
-0.088628
30
0
10
-33.059951
20
-0.118351
30
0
10
-33.210186
20
-0.154036
30
0
10
-33.372828
20
-0.196211
30
0
10
-33.547666
20
-0.245399
30
0
10
-33.734475
20
-0.302118
30
0
10
-33.933016
20
-0.366877
30
0
10
-34.14303
20
-0.440182
30
0
10
-34.364246
20
-0.522528
30
0
10
-34.596375
20
-0.614404
30
0
10
-34.839114
20
-0.716291
30
0
10
-35.092144
20
-0.828662
30
0
10
-35.355131
20
-0.951979
30
0
10
-35.627729
20
-1.086696
30
0
10
-35.909574
20
-1.233258
30
0
10
-36.20029
20
-1.392098
30
0
10
-36.27431
20
-1.433776
30
0
10
-36.311517
20
-1.454915
30
0
10
-36.330169
20
-1.46556
30
0
10
-36.330439
20
-1.465881
30
0
10
-36.249856
20
-2.827994
30
0
10
-36.24955
20
-2.828281
30
0
10
-36.229773
20
-2.836652
30
0
10
-36.190333
20
-2.853257
30
0
10
-36.111916
20
-2.885917
30
0
10
-35.804499
20
-3.009371
30
0
10
-35.507339
20
-3.121679
30
0
10
-35.220758
20
-3.223315
30
0
10
-34.945065
20
-3.314763
30
0
10
-34.680551
20
-3.396516
30
0
10
-34.427492
20
-3.469072
30
0
10
-34.186149
20
-3.532937
30
0
10
-33.956767
20
-3.588626
30
0
10
-33.739575
20
-3.636656
30
0
10
-33.534783
20
-3.677555
30
0
10
-33.342589
20
-3.711851
30
0
10
-33.163171
20
-3.740082
30
0
10
-32.996691
20
-3.762786
30
0
10
-32.843296
20
-3.780508
30
0
10
-32.703114
20
-3.793795
30
0
10
-32.576256
20
-3.803198
30
0
10
-32.462817
20
-3.80927
30
0
10
-32.362876
20
-3.812566
30
0
10
-32.276491
20
-3.813643
30
0
10
-32.203707
20
-3.81306
30
0
10
-32.14455
20
-3.811376
30
0
10
-32.099028
20
-3.809149
30
0
10
-32.067133
20
-3.806938
30
0
10
-32.04884
20
-3.805302
30
0
10
-31.793666
20
-3.775061
30
0
10
-31.47185
20
-5.883108
30
0
10
-31.724423
20
-5.930381
30
0
10
-31.742372
20
-5.934277
30
0
10
-31.773473
20
-5.941684
30
0
10
-31.817586
20
-5.95314
30
0
10
-31.874552
20
-5.969183
30
0
10
-31.944194
20
-5.990343
30
0
10
-32.026323
20
-6.017146
30
0
10
-32.120729
20
-6.050111
30
0
10
-32.227188
20
-6.089753
30
0
10
-32.345462
20
-6.136578
30
0
10
-32.475295
20
-6.191086
30
0
10
-32.616416
20
-6.253769
30
0
10
-32.768538
20
-6.325111
30
0
10
-32.931361
20
-6.405588
30
0
10
-33.104568
20
-6.495667
30
0
10
-33.287828
20
-6.595806
30
0
10
-33.480797
20
-6.706452
30
0
10
-33.683115
20
-6.828044
30
0
10
-33.894409
20
-6.96101
30
0
10
-34.114293
20
-7.105765
30
0
10
-34.342367
20
-7.262717
30
0
10
-34.578217
20
-7.432258
30
0
10
-34.821419
20
-7.614771
30
0
10
-35.071535
20
-7.810626
30
0
10
-35.328114
20
-8.020181
30
0
10
-35.393215
20
-8.074751
30
0
10
-35.425904
20
-8.102366
30
0
10
-35.442283
20
-8.116257
30
0
10
-35.442489
20
-8.116622
30
0
10
-35.112991
20
-9.440736
30
0
10
-35.112637
20
-9.440962
30
0
10
-35.091658
20
-9.445556
30
0
10
-35.049839
20
-9.454631
30
0
10
-34.966756
20
-9.472326
30
0
10
-34.641889
20
-9.53719
30
0
10
-34.329152
20
-9.592983
30
0
10
-34.028775
20
-9.640229
30
0
10
-33.740973
20
-9.679462
30
0
10
-33.46594
20
-9.711218
30
0
10
-33.203858
20
-9.736039
30
0
10
-32.954889
20
-9.754471
30
0
10
-32.71918
20
-9.767062
30
0
10
-32.49686
20
-9.774366
30
0
10
-32.288041
20
-9.776938
30
0
10
-32.092817
20
-9.775335
30
0
10
-31.911267
20
-9.770116
30
0
10
-31.74345
20
-9.761843
30
0
10
-31.58941
20
-9.751077
30
0
10
-31.449173
20
-9.73838
30
0
10
-31.322748
20
-9.724312
30
0
10
-31.210125
20
-9.709437
30
0
10
-31.111279
20
-9.694312
30
0
10
-31.026168
20
-9.679499
30
0
10
-30.95473
20
-9.665551
30
0
10
-30.89689
20
-9.653025
30
0
10
-30.852552
20
-9.642471
30
0
10
-30.821606
20
-9.634438
30
0
10
-30.803925
20
-9.629468
30
0
10
-30.558653
20
-9.552854
30
0
10
-29.854963
20
-11.565874
30
0
10
-30.09455
20
-11.658752
30
0
10
-30.111477
20
-11.66588
30
0
10
-30.140688
20
-11.678876
30
0
10
-30.181945
20
-11.698243
30
0
10
-30.234992
20
-11.72448
30
0
10
-30.299561
20
-11.758076
30
0
10
-30.375366
20
-11.799514
30
0
10
-30.462107
20
-11.849265
30
0
10
-30.55947
20
-11.907794
30
0
10
-30.667126
20
-11.975554
30
0
10
-30.784733
20
-12.052991
30
0
10
-30.911932
20
-12.140537
30
0
10
-31.048355
20
-12.238617
30
0
10
-31.193618
20
-12.347642
30
0
10
-31.347324
20
-12.468014
30
0
10
-31.509063
20
-12.600122
30
0
10
-31.678415
20
-12.744343
30
0
10
-31.854946
20
-12.90104
30
0
10
-32.03821
20
-13.070567
30
0
10
-32.227752
20
-13.253261
30
0
10
-32.423102
20
-13.449449
30
0
10
-32.623784
20
-13.659441
30
0
10
-32.829308
20
-13.883534
30
0
10
-33.039177
20
-14.122013
30
0
10
-33.252882
20
-14.375146
30
0
10
-33.306847
20
-14.440749
30
0
10
-33.333905
20
-14.473901
30
0
10
-33.347452
20
-14.490565
30
0
10
-33.347588
20
-14.490961
30
0
10
-32.780394
20
-15.731985
30
0
10
-32.780006
20
-15.732141
30
0
10
-32.75854
20
-15.732803
30
0
10
-32.715765
20
-15.734039
30
0
10
-32.630845
20
-15.736166
30
0
10
-32.299591
20
-15.740232
30
0
10
-31.981927
20
-15.737609
30
0
10
-31.677983
20
-15.728857
30
0
10
-31.387872
20
-15.714538
30
0
10
-31.111687
20
-15.695217
30
0
10
-30.849507
20
-15.671457
30
0
10
-30.601391
20
-15.643827
30
0
10
-30.367381
20
-15.612893
30
0
10
-30.147504
20
-15.579221
30
0
10
-29.941768
20
-15.543379
30
0
10
-29.750163
20
-15.505931
30
0
10
-29.572663
20
-15.467441
30
0
10
-29.409223
20
-15.428473
30
0
10
-29.259785
20
-15.389585
30
0
10
-29.124269
20
-15.351336
30
0
10
-29.002581
20
-15.314277
30
0
10
-28.894609
20
-15.27896
30
0
10
-28.800225
20
-15.245931
30
0
10
-28.719285
20
-15.21573
30
0
10
-28.651627
20
-15.188894
30
0
10
-28.597073
20
-15.165953
30
0
10
-28.555429
20
-15.147432
30
0
10
-28.526487
20
-15.133848
30
0
10
-28.510019
20
-15.125714
30
0
10
-28.283001
20
-15.005336
30
0
10
-27.221402
20
-16.854779
30
0
10
-27.439843
20
-16.990099
30
0
10
-27.455172
20
-17.000216
30
0
10
-27.481498
20
-17.018358
30
0
10
-27.518493
20
-17.044976
30
0
10
-27.565817
20
-17.080514
30
0
10
-27.623113
20
-17.125403
30
0
10
-27.690013
20
-17.180064
30
0
10
-27.766135
20
-17.244906
30
0
10
-27.851086
20
-17.320329
30
0
10
-27.944458
20
-17.406717
30
0
10
-28.045833
20
-17.504445
30
0
10
-28.15478
20
-17.613874
30
0
10
-28.270858
20
-17.735352
30
0
10
-28.393614
20
-17.869213
30
0
10
-28.522584
20
-18.015778
30
0
10
-28.657295
20
-18.175356
30
0
10
-28.797263
20
-18.348239
30
0
10
-28.941995
20
-18.534706
30
0
10
-29.090989
20
-18.735021
30
0
10
-29.243733
20
-18.949433
30
0
10
-29.399707
20
-19.178176
30
0
10
-29.558386
20
-19.421467
30
0
10
-29.719234
20
-19.67951
30
0
10
-29.881709
20
-19.952492
30
0
10
-30.045262
20
-20.240583
30
0
10
-30.086254
20
-20.314985
30
0
10
-30.10676
20
-20.352544
30
0
10
-30.117014
20
-20.371414
30
0
10
-30.117075
20
-20.371828
30
0
10
-29.331501
20
-21.487499
30
0
10
-29.33109
20
-21.487582
30
0
10
-29.309868
20
-21.484288
30
0
10
-29.267595
20
-21.477643
30
0
10
-29.18373
20
-21.46413
30
0
10
-28.857369
20
-21.407259
30
0
10
-28.545596
20
-21.34631
30
0
10
-28.248436
20
-21.281858
30
0
10
-27.965895
20
-21.214475
30
0
10
-27.697963
20
-21.144733
30
0
10
-27.444613
20
-21.073203
30
0
10
-27.205798
20
-21.000452
30
0
10
-26.981457
20
-20.927045
30
0
10
-26.771512
20
-20.853545
30
0
10
-26.575864
20
-20.780509
30
0
10
-26.394403
20
-20.708491
30
0
10
-26.226997
20
-20.638041
30
0
10
-26.073501
20
-20.569705
30
0
10
-25.933752
20
-20.50402
30
0
10
-25.807572
20
-20.44152
30
0
10
-25.694765
20
-20.382733
30
0
10
-25.595122
20
-20.328177
30
0
10
-25.508414
20
-20.278367
30
0
10
-25.434401
20
-20.233808
30
0
10
-25.372826
20
-20.194997
30
0
10
-25.323417
20
-20.162422
30
0
10
-25.285885
20
-20.136564
30
0
10
-25.259932
20
-20.117894
30
0
10
-25.245239
20
-20.106873
30
0
10
-25.044206
20
-19.94683
30
0
10
-23.660849
20
-21.569713
30
0
10
-23.850705
20
-21.742868
30
0
10
-23.863914
20
-21.75563
30
0
10
-23.886458
20
-21.7783
30
0
10
-23.917933
20
-21.811263
30
0
10
-23.95792
20
-21.854891
30
0
10
-24.005992
20
-21.909544
30
0
10
-24.061709
20
-21.975567
30
0
10
-24.124621
20
-22.053293
30
0
10
-24.194266
20
-22.143041
30
0
10
-24.270174
20
-22.245116
30
0
10
-24.351866
20
-22.359807
30
0
10
-24.438851
20
-22.487392
30
0
10
-24.530631
20
-22.62813
30
0
10
-24.6267
20
-22.782268
30
0
10
-24.726543
20
-22.950037
30
0
10
-24.829638
20
-23.131651
30
0
10
-24.935455
20
-23.327309
30
0
10
-25.043459
20
-23.537196
30
0
10
-25.153108
20
-23.761477
30
0
10
-25.263853
20
-24.000305
30
0
10
-25.375141
20
-24.253813
30
0
10
-25.486413
20
-24.522119
30
0
10
-25.597107
20
-24.805324
30
0
10
-25.706655
20
-25.103512
30
0
10
-25.814487
20
-25.416751
30
0
10
-25.84111
20
-25.497418
30
0
10
-25.854365
20
-25.538106
30
0
10
-25.860977
20
-25.558538
30
0
10
-25.860961
20
-25.558957
30
0
10
-24.883759
20
-26.511283
30
0
10
-24.88334
20
-26.511289
30
0
10
-24.863085
20
-26.504151
30
0
10
-24.822752
20
-26.489852
30
0
10
-24.742798
20
-26.461159
30
0
10
-24.432444
20
-26.345287
30
0
10
-24.137179
20
-26.228088
30
0
10
-23.856921
20
-26.11013
30
0
10
-23.591573
20
-25.991978
30
0
10
-23.341018
20
-25.874191
30
0
10
-23.105125
20
-25.757326
30
0
10
-22.883745
20
-25.641932
30
0
10
-22.676712
20
-25.528552
30
0
10
-22.483847
20
-25.417726
30
0
10
-22.304951
20
-25.309983
30
0
10
-22.139813
20
-25.205848
30
0
10
-21.988202
20
-25.105838
30
0
10
-21.849877
20
-25.01046
30
0
10
-21.724577
20
-24.920214
30
0
10
-21.61203
20
-24.835593
30
0
10
-21.511946
20
-24.757079
30
0
10
-21.424023
20
-24.685143
30
0
10
-21.347945
20
-24.620249
30
0
10
-21.28338
20
-24.562848
30
0
10
-21.229985
20
-24.513383
30
0
10
-21.187402
20
-24.472284
30
0
10
-21.155261
20
-24.43997
30
0
10
-21.13318
20
-24.416849
30
0
10
-21.120763
20
-24.403315
30
0
10
-20.952561
20
-24.209058
30
0
10
-19.294553
20
-25.550118
30
0
10
-19.44936
20
-25.75521
30
0
10
-19.459999
20
-25.770181
30
0
10
-19.477994
20
-25.796608
30
0
10
-19.502875
20
-25.834793
30
0
10
-19.534165
20
-25.885026
30
0
10
-19.571377
20
-25.947582
30
0
10
-19.614013
20
-26.022718
30
0
10
-19.661571
20
-26.110681
30
0
10
-19.713539
20
-26.211698
30
0
10
-19.769399
20
-26.325983
30
0
10
-19.828625
20
-26.453733
30
0
10
-19.890685
20
-26.595128
30
0
10
-19.955042
20
-26.750335
30
0
10
-20.021152
20
-26.919501
30
0
10
-20.088468
20
-27.102759
30
0
10
-20.156436
20
-27.300224
30
0
10
-20.2245
20
-27.511995
30
0
10
-20.292099
20
-27.738154
30
0
10
-20.358669
20
-27.978764
30
0
10
-20.423644
20
-28.233875
30
0
10
-20.486455
20
-28.503515
30
0
10
-20.546531
20
-28.787699
30
0
10
-20.603301
20
-29.086422
30
0
10
-20.656192
20
-29.399663
30
0
10
-20.704631
20
-29.727382
30
0
10
-20.715977
20
-29.811568
30
0
10
-20.72153
20
-29.853998
30
0
10
-20.724276
20
-29.875298
30
0
10
-20.724183
20
-29.875707
30
0
10
-19.58863
20
-30.632257
30
0
10
-19.588217
20
-30.632185
30
0
10
-19.569618
20
-30.621448
30
0
10
-19.5326
20
-30.599981
30
0
10
-19.45928
20
-30.557084
30
0
10
-19.175501
20
-30.386158
30
0
10
-18.906799
20
-30.2167
30
0
10
-18.652988
20
-30.049253
30
0
10
-18.413868
20
-29.884355
30
0
10
-18.189223
20
-29.722535
30
0
10
-17.97882
20
-29.564314
30
0
10
-17.782413
20
-29.410206
30
0
10
-17.599739
20
-29.260715
30
0
10
-17.430522
20
-29.116337
30
0
10
-17.27447
20
-28.977557
30
0
10
-17.131278
20
-28.844851
30
0
10
-17.000626
20
-28.718685
30
0
10
-16.882181
20
-28.599513
30
0
10
-16.775598
20
-28.487781
30
0
10
-16.680515
20
-28.38392
30
0
10
-16.596563
20
-28.288352
30
0
10
-16.523355
20
-28.201485
30
0
10
-16.460497
20
-28.123717
30
0
10
-16.407579
20
-28.05543
30
0
10
-16.364182
20
-27.996996
30
0
10
-16.329876
20
-27.948772
30
0
10
-16.30422
20
-27.911102
30
0
10
-16.286763
20
-27.884317
30
0
10
-16.277044
20
-27.868733
30
0
10
-16.147401
20
-27.646876
30
0
10
-14.271205
20
-28.660443
30
0
10
-14.38569
20
-28.890489
30
0
10
-14.393397
20
-28.90716
30
0
10
-14.40623
20
-28.936444
30
0
10
-14.423671
20
-28.978551
30
0
10
-14.445198
20
-29.033678
30
0
10
-14.470281
20
-29.102006
30
0
10
-14.498385
20
-29.183698
30
0
10
-14.52897
20
-29.278901
30
0
10
-14.561492
20
-29.387748
30
0
10
-14.595401
20
-29.510351
30
0
10
-14.630144
20
-29.646808
30
0
10
-14.665167
20
-29.797199
30
0
10
-14.699909
20
-29.961589
30
0
10
-14.733809
20
-30.140022
30
0
10
-14.766305
20
-30.332529
30
0
10
-14.796831
20
-30.539121
30
0
10
-14.824823
20
-30.759793
30
0
10
-14.849715
20
-30.994522
30
0
10
-14.870939
20
-31.243268
30
0
10
-14.887931
20
-31.505974
30
0
10
-14.900127
20
-31.782565
30
0
10
-14.906962
20
-32.072949
30
0
10
-14.907875
20
-32.377017
30
0
10
-14.902307
20
-32.694643
30
0
10
-14.889703
20
-33.025683
30
0
10
-14.885387
20
-33.11052
30
0
10
-14.883049
20
-33.153248
30
0
10
-14.881834
20
-33.17469
30
0
10
-14.881667
20
-33.175075
30
0
10
-13.626434
20
-33.710086
30
0
10
-13.626041
20
-33.70994
30
0
10
-13.609732
20
-33.695967
30
0
10
-13.577289
20
-33.668064
30
0
10
-13.513099
20
-33.612425
30
0
10
-13.26556
20
-33.392265
30
0
10
-13.032571
20
-33.176318
30
0
10
-12.81385
20
-32.965085
30
0
10
-12.609101
20
-32.759057
30
0
10
-12.418015
20
-32.558713
30
0
10
-12.240268
20
-32.364525
30
0
10
-12.075522
20
-32.176951
30
0
10
-11.923428
20
-31.99644
30
0
10
-11.783621
20
-31.823426
30
0
10
-11.655727
20
-31.658334
30
0
10
-11.539358
20
-31.501576
30
0
10
-11.434113
20
-31.353551
30
0
10
-11.339583
20
-31.214645
30
0
10
-11.255345
20
-31.08523
30
0
10
-11.180966
20
-30.965667
30
0
10
-11.116004
20
-30.8563
30
0
10
-11.060005
20
-30.75746
30
0
10
-11.012506
20
-30.669465
30
0
10
-10.973037
20
-30.592617
30
0
10
-10.941116
20
-30.527204
30
0
10
-10.916255
20
-30.473498
30
0
10
-10.897958
20
-30.431755
30
0
10
-10.88572
20
-30.402219
30
0
10
-10.879031
20
-30.385114
30
0
10
-10.79236
20
-30.143212
30
0
10
-8.761868
20
-30.794772
30
0
10
-8.832133
20
-31.041937
30
0
10
-8.836645
20
-31.059741
30
0
10
-8.843879
20
-31.090883
30
0
10
-8.853286
20
-31.135478
30
0
10
-8.864317
20
-31.193623
30
0
10
-8.876417
20
-31.265396
30
0
10
-8.889032
20
-31.350861
30
0
10
-8.901603
20
-31.450064
30
0
10
-8.91357
20
-31.563033
30
0
10
-8.924374
20
-31.689779
30
0
10
-8.933452
20
-31.830297
30
0
10
-8.940243
20
-31.984563
30
0
10
-8.944187
20
-32.152537
30
0
10
-8.944723
20
-32.334162
30
0
10
-8.941293
20
-32.529362
30
0
10
-8.933338
20
-32.738045
30
0
10
-8.920305
20
-32.960103
30
0
10
-8.901642
20
-33.195409
30
0
10
-8.876798
20
-33.44382
30
0
10
-8.845229
20
-33.705175
30
0
10
-8.806393
20
-33.979298
30
0
10
-8.759753
20
-34.265993
30
0
10
-8.704779
20
-34.565052
30
0
10
-8.640942
20
-34.876246
30
0
10
-8.567724
20
-35.199333
30
0
10
-8.547893
20
-35.281933
30
0
10
-8.537743
20
-35.323504
30
0
10
-8.53261
20
-35.344358
30
0
10
-8.532375
20
-35.344705
30
0
10
-7.200206
20
-35.639958
30
0
10
-7.199847
20
-35.639742
30
0
10
-7.186383
20
-35.623011
30
0
10
-7.159619
20
-35.589621
30
0
10
-7.106746
20
-35.523135
30
0
10
-6.903876
20
-35.261239
30
0
10
-6.714534
20
-35.006157
30
0
10
-6.538351
20
-34.758331
30
0
10
-6.374946
20
-34.518188
30
0
10
-6.223927
20
-34.286144
30
0
10
-6.084888
20
-34.062601
30
0
10
-5.957414
20
-33.847949
30
0
10
-5.841078
20
-33.642563
30
0
10
-5.735444
20
-33.446806
30
0
10
-5.640063
20
-33.261025
30
0
10
-5.554479
20
-33.085553
30
0
10
-5.478226
20
-32.92071
30
0
10
-5.410829
20
-32.766799
30
0
10
-5.351805
20
-32.624109
30
0
10
-5.300663
20
-32.492915
30
0
10
-5.256903
20
-32.373473
30
0
10
-5.220019
20
-32.266026
30
0
10
-5.189498
20
-32.170802
30
0
10
-5.164821
20
-32.08801
30
0
10
-5.145464
20
-32.017845
30
0
10
-5.130895
20
-31.960485
30
0
10
-5.120579
20
-31.916091
30
0
10
-5.113977
20
-31.884809
30
0
10
-5.110544
20
-31.866766
30
0
10
-5.069799
20
-31.613058
30
0
10
-2.954156
20
-31.880421
30
0
10
-2.977808
20
-32.136289
30
0
10
-2.978972
20
-32.154619
30
0
10
-2.98036
20
-32.18656
30
0
10
-2.981413
20
-32.232125
30
0
10
-2.981572
20
-32.291306
30
0
10
-2.980278
20
-32.364081
30
0
10
-2.976974
20
-32.450408
30
0
10
-2.971102
20
-32.550232
30
0
10
-2.962108
20
-32.663476
30
0
10
-2.949438
20
-32.790049
30
0
10
-2.932541
20
-32.929843
30
0
10
-2.910871
20
-33.08273
30
0
10
-2.883882
20
-33.248569
30
0
10
-2.851036
20
-33.4272
30
0
10
-2.811796
20
-33.618446
30
0
10
-2.765631
20
-33.822115
30
0
10
-2.712017
20
-34.037997
30
0
10
-2.650434
20
-34.265867
30
0
10
-2.580368
20
-34.505483
30
0
10
-2.501312
20
-34.756587
30
0
10
-2.412767
20
-35.018906
30
0
10
-2.314242
20
-35.29215
30
0
10
-2.205251
20
-35.576015
30
0
10
-2.08532
20
-35.870181
30
0
10
-1.953982
20
-36.174313
30
0
10
-1.919311
20
-36.251862
30
0
10
-1.901695
20
-36.290861
30
0
10
-1.892817
20
-36.310416
30
0
10
-1.892522
20
-36.310714
30
0
10
-0.528784
20
-36.356155
30
0
10
-0.52847
20
-36.355877
30
0
10
-0.51831
20
-36.336956
30
0
10
-0.498137
20
-36.299217
30
0
10
-0.458381
20
-36.224147
30
0
10
-0.307089
20
-35.929433
30
0
10
-0.167842
20
-35.643903
30
0
10
-0.040197
20
-35.367923
30
0
10
0.076299
20
-35.101843
30
0
10
0.182109
20
-34.846
30
0
10
0.277705
20
-34.600716
30
0
10
0.363566
20
-34.366295
30
0
10
0.440182
20
-34.14303
30
0
10
0.508048
20
-33.931196
30
0
10
0.567668
20
-33.731052
30
0
10
0.619551
20
-33.542842
30
0
10
0.664216
20
-33.366794
30
0
10
0.702184
20
-33.203119
30
0
10
0.733984
20
-33.052014
30
0
10
0.760148
20
-32.913655
30
0
10
0.781216
20
-32.788206
30
0
10
0.797729
20
-32.675812
30
0
10
0.810233
20
-32.576601
30
0
10
0.819276
20
-32.490684
30
0
10
0.825411
20
-32.418157
30
0
10
0.829192
20
-32.359096
30
0
10
0.831175
20
-32.313563
30
0
10
0.831916
20
-32.2816
30
0
10
0.831975
20
-32.263234
30
0
10
0.825408
20
-32.006359
30
0
10
2.954156
20
-31.880421
30
0
10
2.977922
20
-32.136279
30
0
10
2.980146
20
-32.15451
30
0
10
2.984651
20
-32.186163
30
0
10
2.991989
20
-32.231145
30
0
10
3.002707
20
-32.289347
30
0
10
3.017351
20
-32.360645
30
0
10
3.036462
20
-32.444896
30
0
10
3.060576
20
-32.541941
30
0
10
3.090226
20
-32.651604
30
0
10
3.125938
20
-32.773694
30
0
10
3.168234
20
-32.908003
30
0
10
3.217628
20
-33.054305
30
0
10
3.27463
20
-33.212361
30
0
10
3.33974
20
-33.381915
30
0
10
3.413454
20
-33.562694
30
0
10
3.496256
20
-33.754412
30
0
10
3.588626
20
-33.956767
30
0
10
3.691031
20
-34.169441
30
0
10
3.803934
20
-34.392103
30
0
10
3.927784
20
-34.624405
30
0
10
4.063022
20
-34.865987
30
0
10
4.210078
20
-35.116475
30
0
10
4.369373
20
-35.37548
30
0
10
4.541315
20
-35.6426
30
0
10
4.726301
20
-35.91742
30
0
10
4.774631
20
-35.987278
30
0
10
4.799113
20
-36.022376
30
0
10
4.811433
20
-36.039966
30
0
10
4.811778
20
-36.040205
30
0
10
6.160645
20
-35.834286
30
0
10
6.160903
20
-35.833955
30
0
10
6.167413
20
-35.81349
30
0
10
6.180308
20
-35.772686
30
0
10
6.205593
20
-35.69159
30
0
10
6.300156
20
-35.374093
30
0
10
6.384566
20
-35.067839
30
0
10
6.459326
20
-34.773103
30
0
10
6.524947
20
-34.490148
30
0
10
6.581944
20
-34.219218
30
0
10
6.630841
20
-33.960545
30
0
10
6.672166
20
-33.714339
30
0
10
6.706452
20
-33.480797
30
0
10
6.734238
20
-33.260099
30
0
10
6.756066
20
-33.052408
30
0
10
6.772483
20
-32.857869
30
0
10
6.784039
20
-32.676612
30
0
10
6.791285
20
-32.508747
30
0
10
6.794778
20
-32.354371
30
0
10
6.795074
20
-32.213561
30
0
10
6.792732
20
-32.086377
30
0
10
6.788311
20
-31.972862
30
0
10
6.782372
20
-31.873042
30
0
10
6.775474
20
-31.786927
30
0
10
6.768178
20
-31.714507
30
0
10
6.761042
20
-31.655758
30
0
10
6.754624
20
-31.610635
30
0
10
6.74948
20
-31.57908
30
0
10
6.746163
20
-31.561016
30
0
10
6.692507
20
-31.309721
30
0
10
8.761868
20
-30.794772
30
0
10
8.832243
20
-31.041906
30
0
10
8.837779
20
-31.059418
30
0
10
8.848024
20
-31.089704
30
0
10
8.863502
20
-31.132572
30
0
10
8.884732
20
-31.187814
30
0
10
8.912228
20
-31.255207
30
0
10
8.946494
20
-31.334512
30
0
10
8.98803
20
-31.425473
30
0
10
9.037325
20
-31.527821
30
0
10
9.094863
20
-31.64127
30
0
10
9.161118
20
-31.76552
30
0
10
9.236555
20
-31.900255
30
0
10
9.321628
20
-32.045146
30
0
10
9.416786
20
-32.199848
30
0
10
9.522462
20
-32.364005
30
0
10
9.639083
20
-32.537244
30
0
10
9.767062
20
-32.71918
30
0
10
9.906803
20
-32.909416
30
0
10
10.058697
20
-33.107541
30
0
10
10.223123
20
-33.31313
30
0
10
10.400449
20
-33.525749
30
0
10
10.591029
20
-33.744951
30
0
10
10.795203
20
-33.970275
30
0
10
11.013301
20
-34.201252
30
0
10
11.245635
20
-34.437402
30
0
10
11.305979
20
-34.49719
30
0
10
11.336493
20
-34.527191
30
0
10
11.351836
20
-34.542219
30
0
10
11.352218
20
-34.54239
30
0
10
12.640282
20
-34.092123
30
0
10
12.640474
20
-34.091751
30
0
10
12.643113
20
-34.070438
30
0
10
12.64829
20
-34.02796
30
0
10
12.658244
20
-33.943598
30
0
10
12.692857
20
-33.614132
30
0
10
12.719555
20
-33.297581
30
0
10
12.738885
20
-32.994127
30
0
10
12.751395
20
-32.703931
30
0
10
12.757639
20
-32.427142
30
0
10
12.758172
20
-32.163888
30
0
10
12.753553
20
-31.914281
30
0
10
12.744343
20
-31.678415
30
0
10
12.731102
20
-31.45637
30
0
10
12.714396
20
-31.248204
30
0
10
12.694786
20
-31.053961
30
0
10
12.672839
20
-30.873666
30
0
10
12.649117
20
-30.707329
30
0
10
12.624184
20
-30.554939
30
0
10
12.598601
20
-30.416472
30
0
10
12.572929
20
-30.291884
30
0
10
12.547725
20
-30.181114
30
0
10
12.523545
20
-30.084086
30
0
10
12.500941
20
-30.000704
30
0
10
12.480462
20
-29.930858
30
0
10
12.462653
20
-29.87442
30
0
10
12.448053
20
-29.831245
30
0
10
12.437198
20
-29.801173
30
0
10
12.430618
20
-29.784025
30
0
10
12.3317
20
-29.546869
30
0
10
14.271205
20
-28.660443
30
0
10
14.385793
20
-28.890438
30
0
10
14.394452
20
-28.906635
30
0
10
14.410088
20
-28.934523
30
0
10
14.433179
20
-28.973816
30
0
10
14.464199
20
-29.024217
30
0
10
14.503609
20
-29.08541
30
0
10
14.551864
20
-29.157068
30
0
10
14.609407
20
-29.238849
30
0
10
14.676669
20
-29.330396
30
0
10
14.754074
20
-29.431341
30
0
10
14.842032
20
-29.541301
30
0
10
14.940941
20
-29.65988
30
0
10
15.05119
20
-29.786671
30
0
10
15.173154
20
-29.921255
30
0
10
15.307194
20
-30.063198
30
0
10
15.453662
20
-30.212059
30
0
10
15.612893
20
-30.367381
30
0
10
15.78521
20
-30.528701
30
0
10
15.970923
20
-30.695541
30
0
10
16.170327
20
-30.867417
30
0
10
16.383702
20
-31.043832
30
0
10
16.611315
20
-31.224282
30
0
10
16.853416
20
-31.408253
30
0
10
17.110242
20
-31.595222
30
0
10
17.382013
20
-31.78466
30
0
10
17.452315
20
-31.832342
30
0
10
17.487822
20
-31.856225
30
0
10
17.505665
20
-31.868177
30
0
10
17.506073
20
-31.868276
30
0
10
18.689468
20
-31.188995
30
0
10
18.689588
20
-31.188593
30
0
10
18.688266
20
-31.167158
30
0
10
18.68555
20
-31.124452
30
0
10
18.679833
20
-31.039697
30
0
10
18.653317
20
-30.709481
30
0
10
18.621395
20
-30.393414
30
0
10
18.584636
20
-30.091575
30
0
10
18.54361
20
-29.804022
30
0
10
18.498888
20
-29.530798
30
0
10
18.451039
20
-29.271929
30
0
10
18.400634
20
-29.02742
30
0
10
18.348239
20
-28.797263
30
0
10
18.294424
20
-28.581431
30
0
10
18.239751
20
-28.37988
30
0
10
18.184784
20
-28.192547
30
0
10
18.130081
20
-28.019355
30
0
10
18.076199
20
-27.860209
30
0
10
18.023689
20
-27.714996
30
0
10
17.973098
20
-27.583587
30
0
10
17.92497
20
-27.465837
30
0
10
17.879841
20
-27.361585
30
0
10
17.838244
20
-27.270652
30
0
10
17.800704
20
-27.192843
30
0
10
17.767739
20
-27.12795
30
0
10
17.739862
20
-27.075745
30
0
10
17.717578
20
-27.035988
30
0
10
17.701382
20
-27.008422
30
0
10
17.691763
20
-26.992776
30
0
10
17.550952
20
-26.777833
30
0
10
19.294553
20
-25.550118
30
0
10
19.449451
20
-25.755141
30
0
10
19.46094
20
-25.769471
30
0
10
19.481433
20
-25.794011
30
0
10
19.511351
20
-25.828392
30
0
10
19.551104
20
-25.872235
30
0
10
19.601088
20
-25.925145
30
0
10
19.661688
20
-25.986716
30
0
10
19.733278
20
-26.05653
30
0
10
19.816217
20
-26.134159
30
0
10
19.910853
20
-26.219162
30
0
10
20.017518
20
-26.311088
30
0
10
20.136532
20
-26.409473
30
0
10
20.268201
20
-26.513848
30
0
10
20.412818
20
-26.623729
30
0
10
20.570658
20
-26.738626
30
0
10
20.741985
20
-26.858038
30
0
10
20.927045
20
-26.981457
30
0
10
21.126071
20
-27.108367
30
0
10
21.339279
20
-27.238242
30
0
10
21.566869
20
-27.370551
30
0
10
21.809028
20
-27.504755
30
0
10
22.065922
20
-27.640308
30
0
10
22.337706
20
-27.776661
30
0
10
22.624514
20
-27.913255
30
0
10
22.926467
20
-28.049529
30
0
10
23.004334
20
-28.083481
30
0
10
23.043625
20
-28.100434
30
0
10
23.06336
20
-28.108903
30
0
10
23.063779
20
-28.108926
30
0
10
24.102207
20
-27.223762
30
0
10
24.102251
20
-27.223345
30
0
10
24.097013
20
-27.202518
30
0
10
24.086496
20
-27.161038
30
0
10
24.065303
20
-27.078777
30
0
10
23.978561
20
-26.759055
30
0
10
23.889106
20
-26.454236
30
0
10
23.79751
20
-26.164291
30
0
10
23.704345
20
-25.889173
30
0
10
23.610179
20
-25.628819
30
0
10
23.515578
20
-25.383149
30
0
10
23.421102
20
-25.152066
30
0
10
23.327309
20
-24.935455
30
0
10
23.234751
20
-24.733187
30
0
10
23.143974
20
-24.545113
30
0
10
23.05552
20
-24.37107
30
0
10
22.969925
20
-24.210879
30
0
10
22.887717
20
-24.064343
30
0
10
22.809418
20
-23.931251
30
0
10
22.735543
20
-23.811376
30
0
10
22.666597
20
-23.704475
30
0
10
22.603081
20
-23.61029
30
0
10
22.545483
20
-23.528548
30
0
10
22.494285
20
-23.458963
30
0
10
22.449957
20
-23.401231
30
0
10
22.412963
20
-23.355038
30
0
10
22.383752
20
-23.320053
30
0
10
22.362767
20
-23.295932
30
0
10
22.350437
20
-23.282319
30
0
10
22.172528
20
-23.096911
30
0
10
23.660849
20
-21.569713
30
0
10
23.850782
20
-21.742783
30
0
10
23.864708
20
-21.754758
30
0
10
23.889362
20
-21.775115
30
0
10
23.925088
20
-21.803413
30
0
10
23.97222
20
-21.839205
30
0
10
24.031075
20
-21.882029
30
0
10
24.101957
20
-21.931417
30
0
10
24.185157
20
-21.986888
30
0
10
24.280948
20
-22.047955
30
0
10
24.389591
20
-22.114122
30
0
10
24.511331
20
-22.184882
30
0
10
24.646397
20
-22.259724
30
0
10
24.795004
20
-22.338127
30
0
10
24.957348
20
-22.419564
30
0
10
25.133613
20
-22.503501
30
0
10
25.323965
20
-22.589399
30
0
10
25.528552
20
-22.676712
30
0
10
25.747509
20
-22.76489
30
0
10
25.980951
20
-22.853377
30
0
10
26.228978
20
-22.941613
30
0
10
26.491673
20
-23.029036
30
0
10
26.769101
20
-23.115077
30
0
10
27.061312
20
-23.199168
30
0
10
27.368336
20
-23.280735
30
0
10
27.690188
20
-23.359205
30
0
10
27.772967
20
-23.378271
30
0
10
27.814705
20
-23.387715
30
0
10
27.83566
20
-23.392415
30
0
10
27.836076
20
-23.392359
30
0
10
28.694174
20
-22.331457
30
0
10
28.694141
20
-22.331039
30
0
10
28.685165
20
-22.311529
30
0
10
28.667206
20
-22.272687
30
0
10
28.631257
20
-22.195722
30
0
10
28.487244
20
-21.897383
30
0
10
28.343301
20
-21.614191
30
0
10
28.199988
20
-21.346013
30
0
10
28.057856
20
-21.092698
30
0
10
27.917454
20
-20.85408
30
0
10
27.779322
20
-20.629976
30
0
10
27.643993
20
-20.420188
30
0
10
27.511995
20
-20.2245
30
0
10
27.383846
20
-20.042683
30
0
10
27.260056
20
-19.874492
30
0
10
27.141129
20
-19.719666
30
0
10
27.027556
20
-19.57793
30
0
10
26.919822
20
-19.448995
30
0
10
26.8184
20
-19.332557
30
0
10
26.723756
20
-19.228297
30
0
10
26.636341
20
-19.135885
30
0
10
26.5566
20
-19.054974
30
0
10
26.484963
20
-18.985208
30
0
10
26.42185
20
-18.926215
30
0
10
26.367669
20
-18.877612
30
0
10
26.322816
20
-18.839003
30
0
10
26.287675
20
-18.809981
30
0
10
26.262615
20
-18.790127
30
0
10
26.247993
20
-18.779012
30
0
10
26.039045
20
-18.629451
30
0
10
27.221402
20
-16.854779
30
0
10
27.439903
20
-16.990001
30
0
10
27.455792
20
-16.999214
30
0
10
27.483767
20
-17.014693
30
0
10
27.524085
20
-17.035946
30
0
10
27.576991
20
-17.062467
30
0
10
27.642713
20
-17.093748
30
0
10
27.721463
20
-17.12927
30
0
10
27.813438
20
-17.168509
30
0
10
27.91882
20
-17.210935
30
0
10
28.037771
20
-17.256011
30
0
10
28.17044
20
-17.303197
30
0
10
28.316959
20
-17.351946
30
0
10
28.477442
20
-17.401708
30
0
10
28.651986
20
-17.451928
30
0
10
28.840673
20
-17.502047
30
0
10
29.043568
20
-17.551505
30
0
10
29.260715
20
-17.599739
30
0
10
29.492146
20
-17.646182
30
0
10
29.737873
20
-17.690268
30
0
10
29.99789
20
-17.731427
30
0
10
30.272176
20
-17.76909
30
0
10
30.560691
20
-17.802689
30
0
10
30.863378
20
-17.831655
30
0
10
31.180162
20
-17.855418
30
0
10
31.510952
20
-17.873412
30
0
10
31.595826
20
-17.876942
30
0
10
31.638588
20
-17.878556
30
0
10
31.66005
20
-17.879325
30
0
10
31.660449
20
-17.879195
30
0
10
32.308996
20
-16.678681
30
0
10
32.308887
20
-16.678276
30
0
10
32.296479
20
-16.660747
30
0
10
32.271688
20
-16.625867
30
0
10
32.222209
20
-16.556818
30
0
10
32.025828
20
-16.290021
30
0
10
31.8323
20
-16.0381
30
0
10
31.642149
20
-15.800822
30
0
10
31.455891
20
-15.577937
30
0
10
31.274034
20
-15.369181
30
0
10
31.097074
20
-15.174275
30
0
10
30.925501
20
-14.992925
30
0
10
30.759793
20
-14.824823
30
0
10
30.600417
20
-14.66965
30
0
10
30.44783
20
-14.527068
30
0
10
30.302478
20
-14.396732
30
0
10
30.164796
20
-14.278278
30
0
10
30.035204
20
-14.171335
30
0
10
29.914114
20
-14.075515
30
0
10
29.801923
20
-13.990422
30
0
10
29.699017
20
-13.915645
30
0
10
29.605766
20
-13.850765
30
0
10
29.522529
20
-13.79535
30
0
10
29.44965
20
-13.748958
30
0
10
29.387461
20
-13.711138
30
0
10
29.336278
20
-13.681428
30
0
10
29.296402
20
-13.659357
30
0
10
29.268121
20
-13.644446
30
0
10
29.251706
20
-13.636207
30
0
10
29.018833
20
-13.527587
30
0
10
29.854963
20
-11.565874
30
0
10
30.094591
20
-11.658645
30
0
10
30.111903
20
-11.664781
30
0
10
30.142245
20
-11.674857
30
0
10
30.185782
20
-11.688339
30
0
10
30.24266
20
-11.704687
30
0
10
30.313011
20
-11.723359
30
0
10
30.396947
20
-11.743806
30
0
10
30.494567
20
-11.765476
30
0
10
30.60595
20
-11.787816
30
0
10
30.731158
20
-11.810268
30
0
10
30.870239
20
-11.832273
30
0
10
31.023221
20
-11.853269
30
0
10
31.190114
20
-11.872695
30
0
10
31.370915
20
-11.889987
30
0
10
31.565599
20
-11.904582
30
0
10
31.774126
20
-11.915916
30
0
10
31.99644
20
-11.923428
30
0
10
32.232464
20
-11.926555
30
0
10
32.482107
20
-11.924737
30
0
10
32.74526
20
-11.917418
30
0
10
33.021797
20
-11.90404
30
0
10
33.311573
20
-11.884053
30
0
10
33.614428
20
-11.856906
30
0
10
33.930185
20
-11.822056
30
0
10
34.258649
20
-11.778961
30
0
10
34.342726
20
-11.766836
30
0
10
34.385057
20
-11.760565
30
0
10
34.406295
20
-11.757377
30
0
10
34.406663
20
-11.757175
30
0
10
34.823573
20
-10.457932
30
0
10
34.823392
20
-10.457554
30
0
10
34.807974
20
-10.442604
30
0
10
34.777196
20
-10.412873
30
0
10
34.715872
20
-10.354091
30
0
10
34.473811
20
-10.127922
30
0
10
34.237288
20
-9.915851
30
0
10
34.006775
20
-9.717554
30
0
10
33.782733
20
-9.532689
30
0
10
33.565613
20
-9.360903
30
0
10
33.355853
20
-9.201832
30
0
10
33.153879
20
-9.055096
30
0
10
32.960103
20
-8.920305
30
0
10
32.774928
20
-8.797059
30
0
10
32.59874
20
-8.684943
30
0
10
32.431914
20
-8.583534
30
0
10
32.274809
20
-8.492397
30
0
10
32.127773
20
-8.411087
30
0
10
31.991138
20
-8.339149
30
0
10
31.865222
20
-8.276119
30
0
10
31.750327
20
-8.221525
30
0
10
31.646743
20
-8.174884
30
0
10
31.55474
20
-8.135707
30
0
10
31.474579
20
-8.103497
30
0
10
31.406499
20
-8.077748
30
0
10
31.350728
20
-8.057949
30
0
10
31.307475
20
-8.043581
30
0
10
31.276936
20
-8.034121
30
0
10
31.259286
20
-8.029038
30
0
10
31.01042
20
-7.965057
30
0
10
31.47185
20
-5.883108
30
0
10
31.724444
20
-5.930268
30
0
10
31.742588
20
-5.933118
30
0
10
31.774265
20
-5.937447
30
0
10
31.819538
20
-5.9427
30
0
10
31.878452
20
-5.948319
30
0
10
31.951036
20
-5.953745
30
0
10
32.0373
20
-5.958421
30
0
10
32.13724
20
-5.961785
30
0
10
32.250831
20
-5.963278
30
0
10
32.378033
20
-5.96234
30
0
10
32.518789
20
-5.958414
30
0
10
32.673024
20
-5.950943
30
0
10
32.840645
20
-5.939371
30
0
10
33.021545
20
-5.923147
30
0
10
33.215596
20
-5.90172
30
0
10
33.422655
20
-5.874545
30
0
10
33.642563
20
-5.841078
30
0
10
33.875144
20
-5.800783
30
0
10
34.120202
20
-5.753124
30
0
10
34.37753
20
-5.697575
30
0
10
34.646899
20
-5.633612
30
0
10
34.928069
20
-5.560719
30
0
10
35.220779
20
-5.478385
30
0
10
35.524756
20
-5.386108
30
0
10
35.839709
20
-5.283391
30
0
10
35.920127
20
-5.256023
30
0
10
35.960584
20
-5.242081
30
0
10
35.980875
20
-5.235045
30
0
10
35.981199
20
-5.234779
30
0
10
36.152276
20
-3.881051
30
0
10
36.152028
20
-3.880713
30
0
10
36.134125
20
-3.86885
30
0
10
36.098408
20
-3.845281
30
0
10
36.027327
20
-3.798768
30
0
10
35.74783
20
-3.620928
30
0
10
35.476366
20
-3.45593
30
0
10
35.213341
20
-3.303365
30
0
10
34.959145
20
-3.162816
30
0
10
34.714156
20
-3.033851
30
0
10
34.478738
20
-2.916031
30
0
10
34.25324
20
-2.808906
30
0
10
34.037997
20
-2.712017
30
0
10
33.833328
20
-2.624895
30
0
10
33.639539
20
-2.547063
30
0
10
33.456919
20
-2.478035
30
0
10
33.285743
20
-2.417317
30
0
10
33.12627
20
-2.364409
30
0
10
32.978743
20
-2.318802
30
0
10
32.843389
20
-2.279983
30
0
10
32.720419
20
-2.24743
30
0
10
32.610028
20
-2.220618
30
0
10
32.512393
20
-2.199013
30
0
10
32.427678
20
-2.182081
30
0
10
32.356026
20
-2.16928
30
0
10
32.297566
20
-2.160066
30
0
10
32.25241
20
-2.15389
30
0
10
32.220652
20
-2.150203
30
0
10
32.202369
20
-2.14845
30
0
10
31.945984
20
-2.131287
30
0
8
gear
0
CIRCLE
5
2001
100
AcDbEntity
100
AcDbCircle
10
34.280063
20
2.02802
30
0
40
0.79285
8
gear_guides
0
CIRCLE
5
2002
100
AcDbEntity
100
AcDbCircle
10
0
20
0
30
0
40
34.34
8
gear_guides
0
CIRCLE
5
2003
100
AcDbEntity
100
AcDbCircle
10
0
20
0
30
0
40
36.36
8
gear_guides
0
CIRCLE
5
2004
100
AcDbEntity
100
AcDbCircle
10
0
20
0
30
0
40
32.269045
8
gear_guides
0
LINE
5
2005
100
AcDbEntity
100
AcDbLine
10
1.6
20
0
30
0
11
-1.6
21
0
31
0
8
gear_guides
0
LINE
5
2006
100
AcDbEntity
100
AcDbLine
10
0
20
1.6
30
0
11
0
21
-1.6
31
0
8
gear_guides
0
LWPOLYLINE
5
2007
100
AcDbEntity
100
AcDbPolyline
66
1
90
11
70
0
43
0
10
-20.641984
20
13.930208
30
0
10
-20.503784
20
13.320418
30
0
10
-20.733891
20
12.959339
30
0
10
-20.95764
20
12.594286
30
0
10
-21.566332
20
12.451327
30
0
10
-22.34907
20
12.903242
30
0
10
-22.507051
20
13.525389
30
0
10
-22.26676
20
13.917431
30
0
10
-22.019641
20
14.305205
30
0
10
-21.391175
20
14.435798
30
0
10
-20.641984
20
13.930208
30
0
8
gear_texts
0
LWPOLYLINE
5
2008
100
AcDbEntity
100
AcDbPolyline
66
1
90
2
70
0
43
0
10
-20.105244
20
16.890312
30
0
10
-18.721176
20
15.727563
30
0
8
gear_texts
0
LWPOLYLINE
5
2009
100
AcDbEntity
100
AcDbPolyline
66
1
90
6
70
0
43
0
10
-19.41321
20
16.308938
30
0
10
-19.344762
20
15.681913
30
0
10
-19.260415
20
15.062375
30
0
10
-19.521215
20
14.7228
30
0
10
-20.141543
20
14.644468
30
0
10
-21.238083
20
15.441738
30
0
8
gear_texts
0
LWPOLYLINE
5
2010
100
AcDbEntity
100
AcDbPolyline
66
1
90
4
70
0
43
0
10
-17.2821
20
17.929619
30
0
10
-17.274139
20
17.304416
30
0
10
-17.899328
20
17.313471
30
0
10
-19.523445
20
18.88443
30
0
8
gear_texts
0
LWPOLYLINE
5
2011
100
AcDbEntity
100
AcDbPolyline
66
1
90
5
70
0
43
0
10
-18.222967
20
18.905739
30
0
10
-18.551227
20
18.583742
30
0
10
-18.873798
20
18.256046
30
0
10
-19.190582
20
17.922752
30
0
10
-19.501481
20
17.583962
30
0
8
gear_texts
0
LWPOLYLINE
5
2012
100
AcDbEntity
100
AcDbPolyline
66
1
90
2
70
0
43
0
10
-15.737564
20
17.51531
30
0
10
-17.549785
20
19.532243
30
0
8
gear_texts
0
LWPOLYLINE
5
2013
100
AcDbEntity
100
AcDbPolyline
66
1
90
10
70
0
43
0
10
-17.247748
20
19.196088
30
0
10
-17.20507
20
19.836559
30
0
10
-16.855078
20
20.134791
30
0
10
-16.499918
20
20.426849
30
0
10
-15.86193
20
20.356173
30
0
10
-15.306392
20
19.643232
30
0
10
-15.364045
20
19.020642
30
0
10
-15.694756
20
18.748689
30
0
10
-16.020653
20
18.470987
30
0
10
-16.341638
20
18.187621
30
0
8
gear_texts
0
LWPOLYLINE
5
2014
100
AcDbEntity
100
AcDbPolyline
66
1
90
2
70
0
43
0
10
-13.878417
20
22.291098
30
0
10
-12.923011
20
20.756553
30
0
8
gear_texts
0
LWPOLYLINE
5
2015
100
AcDbEntity
100
AcDbPolyline
66
1
90
6
70
0
43
0
10
-13.400714
20
21.523825
30
0
10
-13.530025
20
20.906474
30
0
10
-13.6419
20
20.29131
30
0
10
-13.995125
20
20.049318
30
0
10
-14.609175
20
20.167157
30
0
10
-15.404523
20
21.265092
30
0
8
gear_texts
0
LWPOLYLINE
5
2016
100
AcDbEntity
100
AcDbPolyline
66
1
90
4
70
0
43
0
10
-10.872163
20
22.403979
30
0
10
-11.058418
20
21.807111
30
0
10
-11.649997
20
22.009539
30
0
10
-12.707073
20
24.006601
30
0
8
gear_texts
0
LWPOLYLINE
5
2017
100
AcDbEntity
100
AcDbPolyline
66
1
90
5
70
0
43
0
10
-11.464062
20
23.623691
30
0
10
-11.875973
20
23.419324
30
0
10
-12.284243
20
23.207776
30
0
10
-12.688745
20
22.989111
30
0
10
-13.089357
20
22.763396
30
0
8
gear_texts
0
LWPOLYLINE
5
2018
100
AcDbEntity
100
AcDbPolyline
66
1
90
15
70
0
43
0
10
-6.266258
20
23.634143
30
0
10
-6.679149
20
23.520792
30
0
10
-7.089992
20
23.400229
30
0
10
-7.498661
20
23.27249
30
0
10
-8.051137
20
23.565259
30
0
10
-8.343348
20
24.420547
30
0
10
-8.053042
20
24.993039
30
0
10
-7.61416
20
25.130222
30
0
10
-7.172943
20
25.259698
30
0
10
-6.613709
20
24.944608
30
0
10
-6.150441
20
23.197321
30
0
10
-6.432252
20
22.651339
30
0
10
-6.827909
20
22.535232
30
0
10
-7.221471
20
22.412215
30
0
10
-7.758925
20
22.70997
30
0
8
gear_texts
0
LWPOLYLINE
5
2019
100
AcDbEntity
100
AcDbPolyline
66
1
90
13
70
0
43
0
10
-4.17553
20
24.091568
30
0
10
-4.596752
20
24.014757
30
0
10
-5.016564
20
23.930583
30
0
10
-5.535288
20
24.279679
30
0
10
-5.736189
20
25.160897
30
0
10
-5.387442
20
25.699785
30
0
10
-4.936593
20
25.790183
30
0
10
-4.48423
20
25.872672
30
0
10
-3.961126
20
25.500668
30
0
10
-4.32988
20
24.98212
30
0
10
-4.766672
20
24.90247
30
0
10
-5.202003
20
24.815184
30
0
10
-5.635738
20
24.720288
30
0
8
gear_texts
0
LWPOLYLINE
5
2020
100
AcDbEntity
100
AcDbPolyline
66
1
90
10
70
0
43
0
10
-1.655908
20
24.847539
30
0
10
-2.052812
20
24.364414
30
0
10
-2.479137
20
24.324732
30
0
10
-2.958388
20
24.726305
30
0
10
-3.065761
20
25.623733
30
0
10
-2.662421
20
26.123074
30
0
10
-2.204577
20
26.16569
30
0
10
-1.716008
20
25.749367
30
0
10
-1.655908
20
24.847539
30
0
10
-1.198405
20
24.421354
30
0
8
gear_texts
0
LWPOLYLINE
5
2021
100
AcDbEntity
100
AcDbPolyline
66
1
90
2
70
0
43
0
10
-0.342527
20
24.448341
30
0
10
-0.367851
20
26.255821
30
0
8
gear_texts
0
LWPOLYLINE
5
2022
100
AcDbEntity
100
AcDbPolyline
66
1
90
5
70
0
43
0
10
-0.355189
20
25.352081
30
0
10
0.090383
20
25.806325
30
0
10
0.551753
20
26.252601
30
0
10
1.011372
20
26.238914
30
0
10
1.44537
20
25.765976
30
0
8
gear_texts
0
LWPOLYLINE
5
2023
100
AcDbEntity
100
AcDbPolyline
66
1
90
5
70
0
43
0
10
4.764853
20
23.98197
30
0
10
5.205189
20
26.198222
30
0
10
5.758957
20
26.544698
30
0
10
6.222892
20
26.439784
30
0
10
6.573698
20
25.888748
30
0
8
gear_texts
0
LWPOLYLINE
5
2024
100
AcDbEntity
100
AcDbPolyline
66
1
90
4
70
0
43
0
10
5.91229
20
25.1201
30
0
10
5.471511
20
25.219777
30
0
10
5.029055
20
25.311721
30
0
10
4.585056
20
25.395902
30
0
8
gear_texts
0
LWPOLYLINE
5
2025
100
AcDbEntity
100
AcDbPolyline
66
1
90
2
70
0
43
0
10
6.843739
20
23.47343
30
0
10
7.349701
20
25.208835
30
0
8
gear_texts
0
LWPOLYLINE
5
2026
100
AcDbEntity
100
AcDbPolyline
66
1
90
2
70
0
43
0
10
7.476192
20
25.642686
30
0
10
7.602682
20
26.076538
30
0
8
gear_texts
0
LWPOLYLINE
5
2027
100
AcDbEntity
100
AcDbPolyline
66
1
90
2
70
0
43
0
10
7.661492
20
23.219394
30
0
10
8.227911
20
24.936017
30
0
8
gear_texts
0
LWPOLYLINE
5
2028
100
AcDbEntity
100
AcDbPolyline
66
1
90
5
70
0
43
0
10
7.944701
20
24.077705
30
0
10
8.5142
20
24.361506
30
0
10
9.096029
20
24.632615
30
0
10
9.52597
20
24.46956
30
0
10
9.781697
20
23.880808
30
0
8
gear_texts
0
LWPOLYLINE
5
2029
100
AcDbEntity
100
AcDbPolyline
66
1
90
13
70
0
43
0
10
12.446503
20
23.12116
30
0
10
12.039725
20
23.335563
30
0
10
11.629255
20
23.54281
30
0
10
11.21522
20
23.742837
30
0
10
10.611912
20
23.523646
30
0
10
10.829185
20
22.925595
30
0
10
11.22897
20
22.732453
30
0
10
11.625311
20
22.53234
30
0
10
11.803879
20
21.927395
30
0
10
11.210897
20
21.729116
30
0
10
10.828684
20
21.922096
30
0
10
10.443151
20
22.108353
30
0
10
10.054416
20
22.287831
30
0
8
gear_texts
0
LWPOLYLINE
5
2030
100
AcDbEntity
100
AcDbPolyline
66
1
90
4
70
0
43
0
10
14.038458
20
20.568518
30
0
10
13.427951
20
20.433522
30
0
10
13.309618
20
21.047477
30
0
10
14.517282
20
22.957245
30
0
8
gear_texts
0
LWPOLYLINE
5
2031
100
AcDbEntity
100
AcDbPolyline
66
1
90
5
70
0
43
0
10
14.802736
20
21.688303
30
0
10
14.420687
20
21.944185
30
0
10
14.034216
20
22.193338
30
0
10
13.643442
20
22.435685
30
0
10
13.248484
20
22.671152
30
0
8
gear_texts
0
LWPOLYLINE
5
2032
100
AcDbEntity
100
AcDbPolyline
66
1
90
15
70
0
43
0
10
17.394926
20
17.182993
30
0
10
17.091372
20
17.484957
30
0
10
16.782576
20
17.781559
30
0
10
16.468634
20
18.072708
30
0
10
16.44813
20
18.697626
30
0
10
17.045107
20
19.376247
30
0
10
17.68617
20
19.408835
30
0
10
18.023322
20
19.09616
30
0
10
18.354947
20
18.77763
30
0
10
18.359439
20
18.135754
30
0
10
17.073422
20
16.865405
30
0
10
16.459584
20
16.83862
30
0
10
16.162203
20
17.124258
30
0
10
15.859866
20
17.404645
30
0
10
15.851154
20
18.019005
30
0
8
gear_texts
0
LWPOLYLINE
5
2033
100
AcDbEntity
100
AcDbPolyline
66
1
90
13
70
0
43
0
10
18.830882
20
15.596043
30
0
10
18.554897
20
15.923395
30
0
10
18.273221
20
16.245864
30
0
10
18.318369
20
16.869486
30
0
10
18.983225
20
17.481755
30
0
10
19.624171
20
17.446931
30
0
10
19.926671
20
17.100621
30
0
10
20.223061
20
16.749068
30
0
10
20.16021
20
16.110261
30
0
10
19.526972
20
16.172556
30
0
10
19.240784
20
16.512008
30
0
10
18.948696
20
16.846397
30
0
10
18.650797
20
17.175621
30
0
8
gear_texts
0
LWPOLYLINE
5
2034
100
AcDbEntity
100
AcDbPolyline
66
1
90
10
70
0
43
0
10
20.739054
20
13.785277
30
0
10
20.122565
20
13.889604
30
0
10
19.876262
20
14.239836
30
0
10
19.986565
20
14.855283
30
0
10
20.711967
20
15.394448
30
0
10
21.345726
20
15.292595
30
0
10
21.610238
20
14.91647
30
0
10
21.491767
20
14.285607
30
0
10
20.739054
20
13.785277
30
0
10
20.596585
20
13.176471
30
0
8
gear_texts
0
LWPOLYLINE
5
2035
100
AcDbEntity
100
AcDbPolyline
66
1
90
2
70
0
43
0
10
21.045344
20
12.447176
30
0
10
22.601239
20
13.367404
30
0
8
gear_texts
0
LWPOLYLINE
5
2036
100
AcDbEntity
100
AcDbPolyline
66
1
90
5
70
0
43
0
10
21.823291
20
12.90729
30
0
10
22.438904
20
12.746379
30
0
10
23.055454
20
12.567797
30
0
10
23.271991
20
12.162152
30
0
10
23.07727
20
11.550508
30
0
8
gear_texts
0
LWPOLYLINE
5
2037
100
AcDbEntity
100
AcDbPolyline
66
1
90
5
70
0
43
0
10
24.861664
20
6.91898
30
0
10
24.736695
20
7.353266
30
0
10
24.604141
20
7.785297
30
0
10
24.464042
20
8.214941
30
0
10
24.316441
20
8.642065
30
0
8
gear_texts
0
LWPOLYLINE
5
2038
100
AcDbEntity
100
AcDbPolyline
66
1
90
5
70
0
43
0
10
25.726398
20
2.031511
30
0
10
25.68688
20
2.481689
30
0
10
25.639486
20
2.931105
30
0
10
25.584229
20
3.379623
30
0
10
25.521126
20
3.827104
30
0
8
gear_texts
0
LWPOLYLINE
5
2039
100
AcDbEntity
100
AcDbPolyline
66
1
90
2
70
0
43
0
10
24.741505
20
2.828448
30
0
10
26.537466
20
3.033762
30
0
8
gear_texts
0
LWPOLYLINE
5
2040
100
AcDbEntity
100
AcDbPolyline
66
1
90
5
70
0
43
0
10
26.627422
20
2.102661
30
0
10
26.1367
20
2.525147
30
0
10
25.639486
20
2.931105
30
0
10
25.136206
20
3.32044
30
0
10
24.627291
20
3.693066
30
0
8
gear_texts
0
LWPOLYLINE
5
2041
100
AcDbEntity
100
AcDbPolyline
66
1
90
5
70
0
43
0
10
24.825374
20
1.960361
30
0
10
25.23706
20
2.43823
30
0
10
25.639486
20
2.931105
30
0
10
26.032251
20
3.438806
30
0
10
26.414961
20
3.961142
30
0
8
gear_texts
0
LWPOLYLINE
5
2042
100
AcDbEntity
100
AcDbPolyline
66
1
90
9
70
0
43
0
10
24.9017
20
-0.218041
30
0
10
24.449803
20
0.214084
30
0
10
24.442305
20
0.642186
30
0
10
24.878794
20
1.089869
30
0
10
26.68472
20
1.168982
30
0
10
27.152857
20
0.713402
30
0
10
27.161186
20
0.237825
30
0
10
26.709289
20
-0.233868
30
0
10
24.9017
20
-0.218041
30
0
8
gear_texts
0
LWPOLYLINE
5
2043
100
AcDbEntity
100
AcDbPolyline
66
1
90
7
70
0
43
0
10
23.956607
20
-4.890776
30
0
10
26.613296
20
-5.433143
30
0
10
25.815761
20
-4.801037
30
0
10
25.004522
20
-4.198577
30
0
10
25.968043
20
-3.894123
30
0
10
26.928296
20
-3.557171
30
0
10
24.240161
20
-3.202074
30
0
8
gear_texts
0
LWPOLYLINE
5
2044
100
AcDbEntity
100
AcDbPolyline
66
1
90
15
70
0
43
0
10
23.311563
20
-7.376296
30
0
10
23.437153
20
-6.966962
30
0
10
23.555556
20
-6.555491
30
0
10
23.666736
20
-6.14201
30
0
10
23.770659
20
-5.726646
30
0
10
24.649349
20
-5.938333
30
0
10
24.979008
20
-6.482572
30
0
10
24.861664
20
-6.91898
30
0
10
24.736695
20
-7.353266
30
0
10
25.035
20
-7.92163
30
0
10
25.46586
20
-8.057964
30
0
10
26.036237
20
-7.739569
30
0
10
26.167771
20
-7.282468
30
0
10
26.29128
20
-6.823134
30
0
10
25.967383
20
-6.255864
30
0
8
gear_texts
0
LWPOLYLINE
5
2045
100
AcDbEntity
100
AcDbPolyline
66
1
90
2
70
0
43
0
10
23.464798
20
-8.339391
30
0
10
23.038977
20
-8.188054
30
0
8
gear_texts
0
LWPOLYLINE
5
2046
100
AcDbEntity
100
AcDbPolyline
66
1
90
9
70
0
43
0
10
22.645659
20
-10.359359
30
0
10
22.409402
20
-9.780459
30
0
10
22.57723
20
-9.386554
30
0
10
23.158395
20
-9.155925
30
0
10
24.839439
20
-9.820544
30
0
10
25.080952
20
-10.427484
30
0
10
24.894513
20
-10.865072
30
0
10
24.289484
20
-11.111334
30
0
10
22.645659
20
-10.359359
30
0
8
gear_texts
0
LWPOLYLINE
5
2047
100
AcDbEntity
100
AcDbPolyline
66
1
90
15
70
0
43
0
10
21.045344
20
-12.447176
30
0
10
21.260077
20
-12.076748
30
0
10
21.46829
20
-11.702616
30
0
10
21.66992
20
-11.324895
30
0
10
21.864905
20
-10.943702
30
0
10
22.673148
20
-11.348239
30
0
10
22.871473
20
-11.952838
30
0
10
22.658663
20
-12.351502
30
0
10
22.438904
20
-12.746379
30
0
10
22.601239
20
-13.367404
30
0
10
22.990212
20
-13.597461
30
0
10
23.617732
20
-13.41601
30
0
10
23.849035
20
-13.000388
30
0
10
24.073026
20
-12.58078
30
0
10
23.885512
20
-11.955045
30
0
8
gear_texts
0
LWPOLYLINE
5
2048
100
AcDbEntity
100
AcDbPolyline
66
1
90
7
70
0
43
0
10
20.299646
20
-18.047464
30
0
10
18.273221
20
-16.245864
30
0
10
19.069312
20
-16.364855
30
0
10
19.875016
20
-16.460812
30
0
10
20.689769
20
-16.533437
30
0
10
21.512997
20
-16.582447
30
0
10
19.365448
20
-14.927093
30
0
8
gear_texts
0
LWPOLYLINE
5
2049
100
AcDbEntity
100
AcDbPolyline
66
1
90
5
70
0
43
0
10
17.68617
20
-19.408835
30
0
10
18.023322
20
-19.09616
30
0
10
18.354947
20
-18.77763
30
0
10
18.680944
20
-18.453342
30
0
10
19.001212
20
-18.123395
30
0
8
gear_texts
0
LWPOLYLINE
5
2050
100
AcDbEntity
100
AcDbPolyline
66
1
90
5
70
0
43
0
10
17.077402
20
-18.740771
30
0
10
17.402949
20
-18.43886
30
0
10
17.723159
20
-18.131293
30
0
10
18.037935
20
-17.818167
30
0
10
18.347179
20
-17.499577
30
0
8
gear_texts
0
LWPOLYLINE
5
2051
100
AcDbEntity
100
AcDbPolyline
66
1
90
13
70
0
43
0
10
17.288202
20
-20.360719
30
0
10
17.215443
20
-21.009881
30
0
10
16.844904
20
-21.308115
30
0
10
16.4692
20
-21.599816
30
0
10
15.820772
20
-21.52078
30
0
10
15.553099
20
-21.156668
30
0
10
15.647176
20
-20.521708
30
0
10
15.017753
20
-20.428443
30
0
10
14.750079
20
-20.064331
30
0
10
14.825152
20
-19.4436
30
0
10
15.163351
20
-19.181019
30
0
10
15.4969
20
-18.912556
30
0
10
16.118199
20
-18.982779
30
0
8
gear_texts
0
LWPOLYLINE
5
2052
100
AcDbEntity
100
AcDbPolyline
66
1
90
2
70
0
43
0
10
16.004128
20
-20.244567
30
0
10
15.647176
20
-20.521708
30
0
8
gear_texts
0
LWPOLYLINE
5
2053
100
AcDbEntity
100
AcDbPolyline
66
1
90
9
70
0
43
0
10
12.792464
20
-21.890798
30
0
10
13.173827
20
-21.663436
30
0
10
13.551151
20
-21.429431
30
0
10
13.924319
20
-21.188854
30
0
10
14.293217
20
-20.941779
30
0
10
14.255231
20
-21.692408
30
0
10
14.195238
20
-22.447974
30
0
10
14.113057
20
-23.207934
30
0
10
12.704212
20
-20.891187
30
0
8
gear_texts
0
LWPOLYLINE
5
2054
100
AcDbEntity
100
AcDbPolyline
66
1
90
10
70
0
43
0
10
9.662597
20
-22.460475
30
0
10
9.267815
20
-22.62623
30
0
10
8.870191
20
-22.785048
30
0
10
8.469848
20
-22.936878
30
0
10
8.216005
20
-23.508285
30
0
10
8.812396
20
-25.214727
30
0
10
9.409119
20
-25.480484
30
0
10
9.853859
20
-25.311816
30
0
10
10.295578
20
-25.135387
30
0
10
10.734139
20
-24.951249
30
0
8
gear_texts
0
LWPOLYLINE
5
2055
100
AcDbEntity
100
AcDbPolyline
66
1
90
2
70
0
43
0
10
10.295578
20
-25.135387
30
0
10
9.267815
20
-22.62623
30
0
8
gear_texts
0
LWPOLYLINE
5
2056
100
AcDbEntity
100
AcDbPolyline
66
1
90
5
70
0
43
0
10
6.015824
20
-25.559995
30
0
10
6.462477
20
-25.450734
30
0
10
6.907148
20
-25.333669
30
0
10
7.349701
20
-25.208835
30
0
10
7.79
20
-25.076271
30
0
8
gear_texts
0
LWPOLYLINE
5
2057
100
AcDbEntity
100
AcDbPolyline
66
1
90
5
70
0
43
0
10
5.808756
20
-24.680205
30
0
10
6.240035
20
-24.574705
30
0
10
6.6694
20
-24.46167
30
0
10
7.09672
20
-24.341133
30
0
10
7.521864
20
-24.213132
30
0
8
gear_texts
0
LWPOLYLINE
5
2058
100
AcDbEntity
100
AcDbPolyline
66
1
90
14
70
0
43
0
10
5.029055
20
-25.311721
30
0
10
4.585056
20
-25.395902
30
0
10
4.139651
20
-25.472296
30
0
10
3.692977
20
-25.540879
30
0
10
3.188342
20
-25.153303
30
0
10
3.131514
20
-24.704976
30
0
10
3.498966
20
-24.199089
30
0
10
3.922175
20
-24.13411
30
0
10
4.34418
20
-24.061729
30
0
10
4.85292
20
-24.42522
30
0
10
5.117122
20
-25.754971
30
0
10
4.74564
20
-26.285352
30
0
10
4.357128
20
-26.810483
30
0
10
3.886987
20
-26.882669
30
0
8
gear_texts
0
LWPOLYLINE
5
2059
100
AcDbEntity
100
AcDbPolyline
66
1
90
19
70
0
43
0
10
1.89633
20
-25.736716
30
0
10
2.305614
20
-25.249521
30
0
10
2.264519
20
-24.799479
30
0
10
1.796706
20
-24.384637
30
0
10
1.369437
20
-24.41236
30
0
10
0.941748
20
-24.432597
30
0
10
0.523266
20
-24.897157
30
0
10
0.532762
20
-25.348971
30
0
10
0.993966
20
-25.787335
30
0
10
1.44537
20
-25.765976
30
0
10
1.89633
20
-25.736716
30
0
10
2.387804
20
-26.149605
30
0
10
2.428899
20
-26.599648
30
0
10
1.995954
20
-27.088794
30
0
10
1.521302
20
-27.119591
30
0
10
1.046184
20
-27.142072
30
0
10
0.561249
20
-26.704415
30
0
10
0.551753
20
-26.252601
30
0
10
0.993966
20
-25.787335
30
0
8
gear_texts
0
LWPOLYLINE
5
2060
100
AcDbEntity
100
AcDbPolyline
66
1
90
2
70
0
43
0
10
-0.348858
20
-24.900211
30
0
10
-0.342527
20
-24.448341
30
0
8
gear_texts
0
LWPOLYLINE
5
2061
100
AcDbEntity
100
AcDbPolyline
66
1
90
14
70
0
43
0
10
-1.264854
20
-25.775468
30
0
10
-1.716008
20
-25.749367
30
0
10
-2.166636
20
-25.715371
30
0
10
-2.6166
20
-25.673488
30
0
10
-3.012075
20
-25.175019
30
0
10
-2.958388
20
-24.726305
30
0
10
-2.479137
20
-24.324732
30
0
10
-2.052812
20
-24.364414
30
0
10
-1.625857
20
-24.396624
30
0
10
-1.220554
20
-24.872725
30
0
10
-1.287003
20
-26.226839
30
0
10
-1.776108
20
-26.651196
30
0
10
-2.28046
20
-27.066328
30
0
10
-2.754063
20
-27.022245
30
0
8
gear_texts
0
LWPOLYLINE
5
2062
100
AcDbEntity
100
AcDbPolyline
66
1
90
19
70
0
43
0
10
-4.407055
20
-25.427396
30
0
10
-3.89176
20
-25.054109
30
0
10
-3.822394
20
-24.60755
30
0
10
-4.17553
20
-24.091568
30
0
10
-4.596752
20
-24.014757
30
0
10
-5.016564
20
-23.930583
30
0
10
-5.535288
20
-24.279679
30
0
10
-5.635738
20
-24.720288
30
0
10
-5.294722
20
-25.257484
30
0
10
-4.851633
20
-25.346326
30
0
10
-4.407055
20
-25.427396
30
0
10
-4.030492
20
-25.947227
30
0
10
-4.099858
20
-26.393787
30
0
10
-4.63858
20
-26.763224
30
0
10
-5.106513
20
-26.677895
30
0
10
-5.572881
20
-26.584386
30
0
10
-5.937089
20
-26.042115
30
0
10
-5.836639
20
-25.601506
30
0
10
-5.294722
20
-25.257484
30
0
8
gear_texts
0
LWPOLYLINE
5
2063
100
AcDbEntity
100
AcDbPolyline
66
1
90
2
70
0
43
0
10
-6.266258
20
-23.634143
30
0
10
-6.729526
20
-25.381429
30
0
8
gear_texts
0
LWPOLYLINE
5
2064
100
AcDbEntity
100
AcDbPolyline
66
1
90
6
70
0
43
0
10
-6.613709
20
-24.944608
30
0
10
-7.172943
20
-25.259698
30
0
10
-7.483118
20
-24.697724
30
0
10
-8.053042
20
-24.993039
30
0
10
-8.343348
20
-24.420547
30
0
10
-7.905031
20
-23.137614
30
0
8
gear_texts
0
LWPOLYLINE
5
2065
100
AcDbEntity
100
AcDbPolyline
66
1
90
2
70
0
43
0
10
-7.352076
20
-24.265225
30
0
10
-7.483118
20
-24.697724
30
0
8
gear_texts
0
LWPOLYLINE
5
2066
100
AcDbEntity
100
AcDbPolyline
66
1
90
2
70
0
43
0
10
-8.710374
20
-22.846621
30
0
10
-9.354337
20
-24.535685
30
0
8
gear_texts
0
LWPOLYLINE
5
2067
100
AcDbEntity
100
AcDbPolyline
66
1
90
6
70
0
43
0
10
-9.193346
20
-24.113419
30
0
10
-9.782541
20
-24.368122
30
0
10
-10.032068
20
-23.776716
30
0
10
-10.62982
20
-24.010631
30
0
10
-10.858485
20
-23.41085
30
0
10
-10.288035
20
-22.180961
30
0
8
gear_texts
0
LWPOLYLINE
5
2068
100
AcDbEntity
100
AcDbPolyline
66
1
90
2
70
0
43
0
10
-9.856389
20
-23.360346
30
0
10
-10.032068
20
-23.776716
30
0
8
gear_texts
0
LWPOLYLINE
5
2069
100
AcDbEntity
100
AcDbPolyline
66
1
90
11
70
0
43
0
10
-13.639565
20
-21.907461
30
0
10
-14.02109
20
-21.665263
30
0
10
-14.398316
20
-21.416421
30
0
10
-14.771126
20
-21.161012
30
0
10
-15.404523
20
-21.265092
30
0
10
-15.66964
20
-21.63107
30
0
10
-15.547127
20
-22.272706
30
0
10
-15.154731
20
-22.541533
30
0
10
-14.757688
20
-22.803448
30
0
10
-14.35612
20
-23.05837
30
0
10
-12.923011
20
-20.756553
30
0
8
gear_texts
0
LWPOLYLINE
5
2070
100
AcDbEntity
100
AcDbPolyline
66
1
90
7
70
0
43
0
10
-15.028623
20
-19.286762
30
0
10
-15.584161
20
-19.999703
30
0
10
-16.499918
20
-20.426849
30
0
10
-17.43524
20
-20.827842
30
0
10
-17.20507
20
-19.836559
30
0
10
-16.945711
20
-18.859932
30
0
10
-16.341638
20
-18.187621
30
0
8
gear_texts
0
LWPOLYLINE
5
2071
100
AcDbEntity
100
AcDbPolyline
66
1
90
5
70
0
43
0
10
-15.584161
20
-19.999703
30
0
10
-15.931982
20
-19.723746
30
0
10
-16.274917
20
-19.44174
30
0
10
-16.612861
20
-19.153773
30
0
10
-16.945711
20
-18.859932
30
0
8
gear_texts
0
LWPOLYLINE
5
2072
100
AcDbEntity
100
AcDbPolyline
66
1
90
5
70
0
43
0
10
-19.501481
20
-17.583962
30
0
10
-19.190582
20
-17.922752
30
0
10
-18.873798
20
-18.256046
30
0
10
-18.551227
20
-18.583742
30
0
10
-18.222967
20
-18.905739
30
0
8
gear_texts
0
LWPOLYLINE
5
2073
100
AcDbEntity
100
AcDbPolyline
66
1
90
5
70
0
43
0
10
-18.830228
20
-16.978712
30
0
10
-18.530031
20
-17.305841
30
0
10
-18.224151
20
-17.627663
30
0
10
-17.912683
20
-17.944079
30
0
10
-17.595722
20
-18.254992
30
0
8
gear_texts
0
LWPOLYLINE
5
2074
100
AcDbEntity
100
AcDbPolyline
66
1
90
15
70
0
43
0
10
-19.77603
20
-14.378712
30
0
10
-19.521215
20
-14.7228
30
0
10
-19.260415
20
-15.062375
30
0
10
-18.993708
20
-15.39733
30
0
10
-18.721176
20
-15.727563
30
0
10
-19.41321
20
-16.308938
30
0
10
-20.04687
20
-16.25108
30
0
10
-20.328365
20
-15.897552
30
0
10
-20.603627
20
-15.53915
30
0
10
-21.238083
20
-15.441738
30
0
10
-21.603597
20
-15.707495
30
0
10
-21.686038
20
-16.355499
30
0
10
-21.396316
20
-16.73273
30
0
10
-21.100032
20
-17.104831
30
0
10
-20.451261
20
-17.180999
30
0
8
gear_texts
0
LWPOLYLINE
5
2075
100
AcDbEntity
100
AcDbPolyline
66
1
90
9
70
0
43
0
10
-21.344993
20
-12.827061
30
0
10
-20.733891
20
-12.959339
30
0
10
-20.503784
20
-13.320418
30
0
10
-20.641984
20
-13.930208
30
0
10
-22.140365
20
-14.941387
30
0
10
-22.77757
20
-14.797598
30
0
10
-23.033194
20
-14.396477
30
0
10
-22.894404
20
-13.758164
30
0
10
-21.344993
20
-12.827061
30
0
8
gear_texts
0
ENDSEC
0
SECTION
2
OBJECTS
0
DICTIONARY
5
21D
330
0
100
AcDbDictionary
281
1
3
ACAD_CIP_PREVIOUS_PRODUCT_INFO
350
291
3
ACAD_COLOR
350
273
3
ACAD_DETAILVIEWSTYLE
350
27B
3
ACAD_GROUP
350
21E
3
ACAD_LAYOUT
350
272
3
ACAD_MATERIAL
350
221
3
ACAD_MLEADERSTYLE
350
276
3
ACAD_MLINESTYLE
350
26F
3
ACAD_PLOTSETTINGS
350
271
3
ACAD_PLOTSTYLENAME
350
21F
3
ACAD_SCALELIST
350
253
3
ACAD_SECTIONVIEWSTYLE
350
278
3
ACAD_TABLESTYLE
350
274
3
ACAD_VISUALSTYLE
350
23A
3
ACDB_RECOMPOSE_DATA
350
1057
3
AcDbVariableDictionary
350
29D
0
DICTIONARY
5
297
330
213
100
AcDbDictionary
280
1
281
1
3
ACAD_LAYERSTATES
360
298
0
DICTIONARY
5
292
330
265
100
AcDbDictionary
280
1
281
1
3
ADSK_XREC_LAYER_RECONCILED
360
293
0
XRECORD
5
291
102
{ACAD_REACTORS
330
21D
102
}
330
21D
100
AcDbXrecord
280
1
300
ACDMAC
300
2013
300
ACDMAC_F_S
0
DICTIONARY
5
273
102
{ACAD_REACTORS
330
21D
102
}
330
21D
100
AcDbDictionary
281
1
0
DICTIONARY
5
21E
102
{ACAD_REACTORS
330
21D
102
}
330
21D
100
AcDbDictionary
281
1
0
DICTIONARY
5
272
102
{ACAD_REACTORS
330
21D
102
}
330
21D
100
AcDbDictionary
281
1
3
Layout1
350
280
3
Model
350
284
0
DICTIONARY
5
221
102
{ACAD_REACTORS
330
21D
102
}
330
21D
100
AcDbDictionary
281
1
3
ByBlock
350
22A
3
ByLayer
350
222
3
Global
350
232
0
DICTIONARY
5
276
102
{ACAD_REACTORS
330
21D
102
}
330
21D
100
AcDbDictionary
281
1
3
Standard
350
277
0
DICTIONARY
5
26F
102
{ACAD_REACTORS
330
21D
102
}
330
21D
100
AcDbDictionary
281
1
3
Standard
350
270
0
DICTIONARY
5
271
102
{ACAD_REACTORS
330
21D
102
}
330
21D
100
AcDbDictionary
281
1
0
ACDBDICTIONARYWDFLT
5
21F
102
{ACAD_REACTORS
330
21D
102
}
330
21D
100
AcDbDictionary
281
1
3
Normal
350
220
100
AcDbDictionaryWithDefault
340
220
0
DICTIONARY
5
253
102
{ACAD_REACTORS
330
21D
102
}
330
21D
100
AcDbDictionary
281
1
3
A0
350
254
3
A1
350
255
3
A2
350
256
3
A3
350
257
3
A4
350
258
3
A5
350
259
3
A6
350
25A
3
A7
350
25B
3
A8
350
25C
3
A9
350
25D
3
B0
350
25E
3
B1
350
25F
3
B2
350
260
3
B3
350
261
3
B4
350
262
3
B5
350
263
3
B6
350
264
0
DICTIONARY
5
274
102
{ACAD_REACTORS
330
21D
102
}
330
21D
100
AcDbDictionary
281
1
3
Standard
350
275
0
DICTIONARY
5
23A
102
{ACAD_REACTORS
330
21D
102
}
330
21D
100
AcDbDictionary
281
1
3
2dWireframe
350
240
3
Basic
350
23F
3
Brighten
350
246
3
ColorChange
350
24A
3
Conceptual
350
243
3
Dim
350
245
3
EdgeColorOff
350
252
3
Facepattern
350
249
3
Flat
350
23B
3
FlatWithEdges
350
23C
3
Gouraud
350
23D
3
GouraudWithEdges
350
23E
3
Hidden
350
242
3
JitterOff
350
250
3
Linepattern
350
248
3
OverhangOff
350
251
3
Realistic
350
244
3
Shaded
350
24F
3
Shaded with edges
350
24E
3
Shades of Gray
350
24B
3
Sketchy
350
24C
3
Thicken
350
247
3
Wireframe
350
241
3
X-Ray
350
24D
0
XRECORD
5
1057
102
{ACAD_REACTORS
330
21D
102
}
330
21D
100
AcDbXrecord
280
1
90
1
330
275
0
DICTIONARY
5
29D
102
{ACAD_REACTORS
330
21D
102
}
330
21D
100
AcDbDictionary
281
1
3
CANNOSCALE
350
2A3
3
CMLEADERSTYLE
350
29F
3
CTABLESTYLE
350
29E
3
CVIEWDETAILSTYLE
350
2A0
3
CVIEWSECTIONSTYLE
350
2A1
3
LAYEREVAL
350
2A5
3
LAYERNOTIFY
350
2A6
3
LIGHTINGUNITS
350
2A4
3
MSLTSCALE
350
2A2
0
ENDSEC
0
EOF
