0
SECTION
2
HEADER
9
$ACADVER
1
AC1027
9
$ACADMAINTVER
70
8
9
$DWGCODEPAGE
3
ANSI_1252
9
$LASTSAVEDBY
1
macc
9
$REQUIREDVERSIONS
160
0
9
$INSBASE
10
0.0
20
0.0
30
0.0
9
$EXTMIN
10
1.000000000000000E+20
20
1.000000000000000E+20
30
1.000000000000000E+20
9
$EXTMAX
10
-1.000000000000000E+20
20
-1.000000000000000E+20
30
-1.000000000000000E+20
9
$LIMMIN
10
0.0
20
0.0
9
$LIMMAX
10
12.0
20
9.0
9
$MEASUREMENT
70
1
9
$CELWEIGHT
370
-1
9
$ENDCAPS
280
0
9
$JOINSTYLE
280
0
9
$LWDISPLAY
290
0
9
$INSUNITS
70
0
9
$HYPERLINKBASE
1

9
$STYLESHEET
1

9
$XEDIT
290
1
9
$CEPSNTYPE
380
0
9
$PSTYLEMODE
290
1
9
$EXTNAMES
290
1
9
$PSVPSCALE
40
0.0
9
$OLESTARTUP
290
0
9
$SORTENTS
280
127
9
$INDEXCTL
280
0
9
$HIDETEXT
280
0
9
$XCLIPFRAME
280
2
9
$HALOGAP
280
0
9
$OBSCOLOR
70
257
9
$OBSLTYPE
280
0
9
$INTERSECTIONDISPLAY
280
0
9
$INTERSECTIONCOLOR
70
257
9
$DIMASSOC
280
1
9
$PROJECTNAME
1

9
$CAMERADISPLAY
290
0
9
$LENSLENGTH
40
50.0
9
$CAMERAHEIGHT
40
0.0
9
$STEPSPERSEC
40
2.0
9
$STEPSIZE
40
6.0
9
$3DDWFPREC
40
2.0
9
$PSOLWIDTH
40
0.25
9
$PSOLHEIGHT
40
4.0
9
$LOFTANG1
40
1.570796326794896
9
$LOFTANG2
40
1.570796326794896
9
$LOFTMAG1
40
0.0
9
$LOFTMAG2
40
0.0
9
$LOFTPARAM
70
7
9
$LOFTNORMALS
280
1
9
$LATITUDE
40
37.795
9
$LONGITUDE
40
-122.394
9
$NORTHDIRECTION
40
0.0
9
$TIMEZONE
70
-8000
9
$LIGHTGLYPHDISPLAY
280
1
9
$TILEMODELIGHTSYNCH
280
1
9
$CMATERIAL
347
222
9
$SOLIDHIST
280
0
9
$SHOWHIST
280
1
9
$DWFFRAME
280
2
9
$DGNFRAME
280
0
9
$REALWORLDSCALE
290
1
9
$INTERFERECOLOR
62
1
9
$INTERFEREOBJVS
345
244
9
$INTERFEREVPVS
346
241
9
$CSHADOW
280
0
9
$SHADOWPLANELOCATION
40
0.0
0
ENDSEC
0
SECTION
2
CLASSES
0
CLASS
1
ACDBDICTIONARYWDFLT
2
AcDbDictionaryWithDefault
3
ObjectDBX Classes
90
0
91
1
280
0
281
0
0
CLASS
1
MATERIAL
2
AcDbMaterial
3
ObjectDBX Classes
90
1153
91
3
280
0
281
0
0
CLASS
1
VISUALSTYLE
2
AcDbVisualStyle
3
ObjectDBX Classes
90
4095
91
24
280
0
281
0
0
CLASS
1
SCALE
2
AcDbScale
3
ObjectDBX Classes
90
1153
91
17
280
0
281
0
0
CLASS
1
TABLESTYLE
2
AcDbTableStyle
3
ObjectDBX Classes
90
4095
91
1
280
0
281
0
0
CLASS
1
MLEADERSTYLE
2
AcDbMLeaderStyle
3
ACDB_MLEADERSTYLE_CLASS
90
4095
91
1
280
0
281
0
0
CLASS
1
ACDBSECTIONVIEWSTYLE
2
AcDbSectionViewStyle
3
ObjectDBX Classes
90
1025
91
1
280
0
281
0
0
CLASS
1
ACDBDETAILVIEWSTYLE
2
AcDbDetailViewStyle
3
ObjectDBX Classes
90
1025
91
1
280
0
281
0
0
CLASS
1
DICTIONARYVAR
2
AcDbDictionaryVar
3
ObjectDBX Classes
90
0
91
9
280
0
281
0
0
CLASS
1
CELLSTYLEMAP
2
AcDbCellStyleMap
3
ObjectDBX Classes
90
1152
91
2
280
0
281
0
0
ENDSEC
0
SECTION
2
TABLES
0
TABLE
2
VPORT
5
219
330
0
100
AcDbSymbolTable
70
1
0
VPORT
5
285
330
219
100
AcDbSymbolTableRecord
100
AcDbViewportTableRecord
2
*ACTIVE
70
0
10
0.0
20
0.0
11
1.0
21
1.0
12
60.85393284500712
22
1.602311788490737
13
0.0
23
0.0
14
0.5
24
0.5
15
0.5
25
0.5
16
0.0
26
0.0
36
1.0
17
0.0
27
0.0
37
0.0
40
135.7601553851812
41
1.367970660146699
42
50.0
43
0.0
44
0.0
50
0.0
51
0.0
71
0
72
1000
73
1
74
3
75
0
76
1
77
0
78
0
281
0
65
1
110
0.0
120
0.0
130
0.0
111
1.0
121
0.0
131
0.0
112
0.0
122
1.0
132
0.0
79
0
146
0.0
348
240
60
3
61
5
292
1
282
0
141
0.0
142
0.0
63
250
421
3355443
1001
ACAD_NAV_VCDISPLAY
1070
3
0
ENDTAB
0
TABLE
2
LTYPE
5
216
330
0
100
AcDbSymbolTable
70
2
0
LTYPE
5
26B
330
216
100
AcDbSymbolTableRecord
100
AcDbLinetypeTableRecord
2
ByBlock
70
0
3

72
65
73
0
40
0.0
0
LTYPE
5
26C
330
216
100
AcDbSymbolTableRecord
100
AcDbLinetypeTableRecord
2
ByLayer
70
0
3

72
65
73
0
40
0.0
0
LTYPE
5
26D
330
216
100
AcDbSymbolTableRecord
100
AcDbLinetypeTableRecord
2
CONTINUOUS
70
0
3
Solid line
72
65
73
0
40
0.0
0
LTYPE
5
103D
330
216
100
AcDbSymbolTableRecord
100
AcDbLinetypeTableRecord
2
DOTTED
70
0
3
Dotted . . . . . . . . . . . . . . . . . . . .
72
65
73
2
40
3.0
49
0.0
74
0
49
-3.0
74
0
0
ENDTAB
0
TABLE
2
LAYER
5
213
102
{ACAD_XDICTIONARY
360
297
102
}
330
0
100
AcDbSymbolTable
70
4
0
LAYER
5
265
102
{ACAD_XDICTIONARY
360
292
102
}
330
213
100
AcDbSymbolTableRecord
100
AcDbLayerTableRecord
2
0
70
0
62
7
6
CONTINUOUS
370
-3
390
220
347
232
348
0
0
LAYER
5
1900
330
213
100
AcDbSymbolTableRecord
100
AcDbLayerTableRecord
2
gear
70
0
62
7
6
CONTINUOUS
370
-3
390
220
347
232
348
0
1001
AcAecLayerStandard
1000

1000

1001
AcCmTransparency
1071
0
0
LAYER
5
1901
330
213
100
AcDbSymbolTableRecord
100
AcDbLayerTableRecord
2
gear_guides
70
0
62
5
6
CONTINUOUS
370
-3
390
220
347
232
348
0
1001
AcAecLayerStandard
1000

1000

1001
AcCmTransparency
1071
0
0
LAYER
5
1902
330
213
100
AcDbSymbolTableRecord
100
AcDbLayerTableRecord
2
gear_texts
70
0
62
7
6
CONTINUOUS
370
-3
390
220
347
232
348
0
1001
AcAecLayerStandard
1000

1000

1001
AcCmTransparency
1071
0
0
ENDTAB
0
TABLE
2
STYLE
5
214
330
0
100
AcDbSymbolTable
70
3
0
STYLE
5
266
330
214
100
AcDbSymbolTableRecord
100
AcDbTextStyleTableRecord
2
STANDARD
70
0
40
0.0
41
1.0
50
0.0
71
0
42
0.2
3
txt
4

0
STYLE
5
26A
330
214
100
AcDbSymbolTableRecord
100
AcDbTextStyleTableRecord
2
ANNOTATIVE
70
0
40
0.0
41
1.0
50
0.0
71
0
42
0.2
3
txt
4

1001
ACADANNOTATIVE
1000
AnnotativeData
1002
{
1070
1
1070
1
1002
}
0
STYLE
5
301
330
214
100
AcDbSymbolTableRecord
100
AcDbTextStyleTableRecord
2

70
1
40
0.0
41
1.0
50
0.0
71
0
42
0.2
3
ltypeshp.shx
4

0
ENDTAB
0
TABLE
2
VIEW
5
217
330
0
100
AcDbSymbolTable
70
1
0
ENDTAB
0
TABLE
2
UCS
5
218
330
0
100
AcDbSymbolTable
70
0
0
ENDTAB
0
TABLE
2
APPID
5
21A
330
0
100
AcDbSymbolTable
70
10
0
APPID
5
267
330
21A
100
AcDbSymbolTableRecord
100
AcDbRegAppTableRecord
2
ACAD
70
0
0
APPID
5
26E
330
21A
100
AcDbSymbolTableRecord
100
AcDbRegAppTableRecord
2
ACADANNOTATIVE
70
0
0
APPID
5
286
330
21A
100
AcDbSymbolTableRecord
100
AcDbRegAppTableRecord
2
ACADANNOPO
70
0
0
APPID
5
287
330
21A
100
AcDbSymbolTableRecord
100
AcDbRegAppTableRecord
2
ACAD_DSTYLE_DIMJAG
70
0
0
APPID
5
288
330
21A
100
AcDbSymbolTableRecord
100
AcDbRegAppTableRecord
2
ACAD_DSTYLE_DIMTALN
70
0
0
APPID
5
289
330
21A
100
AcDbSymbolTableRecord
100
AcDbRegAppTableRecord
2
ACAD_MLEADERVER
70
0
0
APPID
5
28A
330
21A
100
AcDbSymbolTableRecord
100
AcDbRegAppTableRecord
2
ACAD_NAV_VCDISPLAY
70
0
0
APPID
5
2E7
330
21A
100
AcDbSymbolTableRecord
100
AcDbRegAppTableRecord
2
ACAD_EXEMPT_FROM_CAD_STANDARDS
70
0
0
APPID
5
2FC
330
21A
100
AcDbSymbolTableRecord
100
AcDbRegAppTableRecord
2
AcAecLayerStandard
70
0
0
APPID
5
2FD
330
21A
100
AcDbSymbolTableRecord
100
AcDbRegAppTableRecord
2
AcCmTransparency
70
0
0
ENDTAB
0
TABLE
2
DIMSTYLE
5
21B
330
0
100
AcDbSymbolTable
70
2
100
AcDbDimStyleTable
71
1
340
268
0
DIMSTYLE
105
268
330
21B
100
AcDbSymbolTableRecord
100
AcDbDimStyleTableRecord
2
STANDARD
70
0
279
2
340
266
0
DIMSTYLE
105
269
330
21B
100
AcDbSymbolTableRecord
100
AcDbDimStyleTableRecord
2
ANNOTATIVE
70
0
40
0.0
279
2
340
266
1001
ACADANNOTATIVE
1000
AnnotativeData
1002
{
1070
1
1070
1
1002
}
0
ENDTAB
0
TABLE
2
BLOCK_RECORD
5
212
330
0
100
AcDbSymbolTable
70
2
0
BLOCK_RECORD
5
281
330
212
100
AcDbSymbolTableRecord
100
AcDbBlockTableRecord
2
*Model_Space
340
284
70
0
280
1
281
0
0
BLOCK_RECORD
5
27D
330
212
100
AcDbSymbolTableRecord
100
AcDbBlockTableRecord
2
*Paper_Space
340
280
70
0
280
1
281
0
0
BLOCK_RECORD
5
28C
330
212
100
AcDbSymbolTableRecord
100
AcDbBlockTableRecord
2
$MODEL_SPACE
340
0
70
0
280
1
281
0
0
BLOCK_RECORD
5
28E
330
212
100
AcDbSymbolTableRecord
100
AcDbBlockTableRecord
2
$PAPER_SPACE
340
0
70
0
280
1
281
0
0
ENDTAB
0
ENDSEC
0
SECTION
2
BLOCKS
0
BLOCK
5
282
330
281
100
AcDbEntity
8
0
100
AcDbBlockBegin
2
*Model_Space
70
0
10
0.0
20
0.0
30
0.0
3
*Model_Space
1

0
ENDBLK
5
283
330
281
100
AcDbEntity
8
0
100
AcDbBlockEnd
0
BLOCK
5
27E
330
27D
100
AcDbEntity
67
1
8
0
100
AcDbBlockBegin
2
*Paper_Space
70
0
10
0.0
20
0.0
30
0.0
3
*Paper_Space
1

0
ENDBLK
5
27F
330
27D
100
AcDbEntity
67
1
8
0
100
AcDbBlockEnd
0
BLOCK
5
28D
330
28C
100
AcDbEntity
8
0
100
AcDbBlockBegin
2
$MODEL_SPACE
70
0
10
0.0
20
0.0
30
0.0
3
$MODEL_SPACE
1

0
ENDBLK
5
21
330
28C
100
AcDbEntity
8
0
100
AcDbBlockEnd
0
BLOCK
5
28F
330
28E
100
AcDbEntity
8
0
100
AcDbBlockBegin
2
$PAPER_SPACE
70
0
10
0.0
20
0.0
30
0.0
3
$PAPER_SPACE
1

0
ENDBLK
5
5B
330
28E
100
AcDbEntity
8
0
100
AcDbBlockEnd
0
ENDSEC
0
SECTION
2
ENTITIES
0
LWPOLYLINE
5
2000
100
AcDbEntity
100
AcDbPolyline
66
1
90
968
70
1
43
0
10
19.897
20
0
30
0
10
20.88315
20
0.000037
30
0
10
20.905212
20
0.000828
30
0
10
20.948219
20
0.003685
30
0
10
21.012041
20
0.009938
30
0
10
21.096484
20
0.020906
30
0
10
21.201292
20
0.037904
30
0
10
21.326147
20
0.06223
30
0
10
21.470668
20
0.09517
30
0
10
21.634415
20
0.137991
30
0
10
21.816885
20
0.191942
30
0
10
22.017516
20
0.258247
30
0
10
22.235689
20
0.338106
30
0
10
22.470724
20
0.432693
30
0
10
22.721888
20
0.54315
30
0
10
22.988391
20
0.670586
30
0
10
23.269389
20
0.816078
30
0
10
23.563986
20
0.980664
30
0
10
23.871235
20
1.165343
30
0
10
24.19014
20
1.371072
30
0
10
24.200282
20
1.377851
30
0
10
24.200785
20
1.378267
30
0
10
24.095175
20
2.645774
30
0
10
24.094611
20
2.646102
30
0
10
24.083486
20
2.651108
30
0
10
23.734933
20
2.801224
30
0
10
23.401358
20
2.932509
30
0
10
23.083585
20
3.046072
30
0
10
22.782384
20
3.143055
30
0
10
22.498466
20
3.22463
30
0
10
22.232485
20
3.291998
30
0
10
21.985037
20
3.346385
30
0
10
21.756657
20
3.389037
30
0
10
21.54782
20
3.421225
30
0
10
21.358937
20
3.444235
30
0
10
21.190362
20
3.459367
30
0
10
21.042382
20
3.467935
30
0
10
20.915223
20
3.471263
30
0
10
20.809047
20
3.470681
30
0
10
20.723953
20
3.467524
30
0
10
20.659977
20
3.463128
30
0
10
20.61709
20
3.458829
30
0
10
20.595201
20
3.455958
30
0
10
19.622643
20
3.292794
30
0
10
19.091032
20
5.605633
30
0
10
20.037225
20
5.883499
30
0
10
20.058171
20
5.890473
30
0
10
20.098631
20
5.905332
30
0
10
20.158106
20
5.929311
30
0
10
20.236038
20
5.963626
30
0
10
20.331812
20
6.009463
30
0
10
20.444756
20
6.067979
30
0
10
20.574143
20
6.140301
30
0
10
20.719193
20
6.22752
30
0
10
20.879072
20
6.330693
30
0
10
21.052896
20
6.450837
30
0
10
21.239731
20
6.588928
30
0
10
21.438598
20
6.745901
30
0
10
21.648469
20
6.922644
30
0
10
21.868274
20
7.120001
30
0
10
22.096899
20
7.338766
30
0
10
22.333194
20
7.579683
30
0
10
22.575967
20
7.843443
30
0
10
22.823993
20
8.130684
30
0
10
22.831815
20
8.140045
30
0
10
22.83218
20
8.140587
30
0
10
22.373751
20
9.326997
30
0
10
22.373117
20
9.327152
30
0
10
22.361033
20
9.328822
30
0
10
21.984305
20
9.374658
30
0
10
21.627255
20
9.406646
30
0
10
21.29036
20
9.426082
30
0
10
20.974036
20
9.434279
30
0
10
20.678637
20
9.432561
30
0
10
20.40445
20
9.422264
30
0
10
20.151703
20
9.404733
30
0
10
19.920558
20
9.381316
30
0
10
19.711111
20
9.353364
30
0
10
19.523397
20
9.322227
30
0
10
19.357387
20
9.289253
30
0
10
19.212987
20
9.255783
30
0
10
19.090041
20
9.223152
30
0
10
18.98833
20
9.19268
30
0
10
18.907573
20
9.165677
30
0
10
18.847427
20
9.143435
30
0
10
18.807488
20
9.127228
30
0
10
18.787295
20
9.118306
30
0
10
17.900101
20
8.68775
30
0
10
16.738422
20
10.75713
30
0
10
17.568004
20
11.290314
30
0
10
17.586136
20
11.302908
30
0
10
17.620771
20
11.328563
30
0
10
17.671081
20
11.368327
30
0
10
17.736189
20
11.423208
30
0
10
17.815169
20
11.494171
30
0
10
17.907052
20
11.582137
30
0
10
18.010823
20
11.687982
30
0
10
18.125425
20
11.812533
30
0
10
18.24976
20
11.95657
30
0
10
18.382695
20
12.120819
30
0
10
18.523057
20
12.305954
30
0
10
18.669644
20
12.512595
30
0
10
18.82122
20
12.741307
30
0
10
18.976519
20
12.992596
30
0
10
19.13425
20
13.26691
30
0
10
19.2931
20
13.56464
30
0
10
19.451729
20
13.886113
30
0
10
19.608783
20
14.231596
30
0
10
19.61365
20
14.242782
30
0
10
19.613848
20
14.243404
30
0
10
18.839738
20
15.252602
30
0
10
18.839086
20
15.252572
30
0
10
18.827021
20
15.25077
30
0
10
18.45264
20
15.188613
30
0
10
18.101041
20
15.118713
30
0
10
17.772317
20
15.042447
30
0
10
17.466497
20
14.961193
30
0
10
17.183547
20
14.876321
30
0
10
16.923368
20
14.789194
30
0
10
16.685798
20
14.701166
30
0
10
16.470613
20
14.613577
30
0
10
16.277525
20
14.527749
30
0
10
16.106188
20
14.444988
30
0
10
15.956192
20
14.366579
30
0
10
15.827071
20
14.293783
30
0
10
15.718299
20
14.227835
30
0
10
15.629292
20
14.169943
30
0
10
15.559414
20
14.121282
30
0
10
15.50797
20
14.082996
30
0
10
15.474216
20
14.056193
30
0
10
15.457354
20
14.041943
30
0
10
14.727399
20
13.378877
30
0
10
13.029764
20
15.037149
30
0
10
13.675527
20
15.782456
30
0
10
13.689377
20
15.799648
30
0
10
13.715381
20
15.834021
30
0
10
13.75245
20
15.886349
30
0
10
13.799459
20
15.957349
30
0
10
13.855248
20
16.047689
30
0
10
13.918626
20
16.157978
30
0
10
13.988373
20
16.288771
30
0
10
14.063242
20
16.440565
30
0
10
14.141962
20
16.613797
30
0
10
14.223237
20
16.808844
30
0
10
14.305756
20
17.026025
30
0
10
14.388187
20
17.265594
30
0
10
14.469187
20
17.527745
30
0
10
14.547399
20
17.812607
30
0
10
14.621458
20
18.120249
30
0
10
14.689993
20
18.450671
30
0
10
14.751627
20
18.803813
30
0
10
14.804985
20
19.179549
30
0
10
14.806504
20
19.191653
30
0
10
14.806519
20
19.192306
30
0
10
13.779442
20
19.942532
30
0
10
13.778824
20
19.94232
30
0
10
13.767756
20
19.937191
30
0
10
13.426051
20
19.772077
30
0
10
13.108388
20
19.605951
30
0
10
12.814466
20
19.440163
30
0
10
12.543926
20
19.27604
30
0
10
12.296349
20
19.11489
30
0
10
12.071255
20
18.957992
30
0
10
11.868109
20
18.806599
30
0
10
11.686317
20
18.661932
30
0
10
11.525231
20
18.525182
30
0
10
11.384151
20
18.397502
30
0
10
11.262321
20
18.28001
30
0
10
11.158939
20
18.173786
30
0
10
11.073153
20
18.079865
30
0
10
11.004062
20
17.999241
30
0
10
10.950723
20
17.932864
30
0
10
10.91215
20
17.881636
30
0
10
10.887314
20
17.846408
30
0
10
10.87515
20
17.827986
30
0
10
10.36157
20
16.986126
30
0
10
8.265513
20
18.098948
30
0
10
8.67514
20
18.995997
30
0
10
8.683586
20
19.016394
30
0
10
8.698852
20
19.056702
30
0
10
8.719678
20
19.117353
30
0
10
8.744779
20
19.198721
30
0
10
8.772856
20
19.301119
30
0
10
8.802595
20
19.424797
30
0
10
8.832669
20
19.569942
30
0
10
8.86174
20
19.73668
30
0
10
8.888465
20
19.925072
30
0
10
8.911497
20
20.135117
30
0
10
8.929487
20
20.366748
30
0
10
8.941085
20
20.619837
30
0
10
8.944947
20
20.894189
30
0
10
8.939736
20
21.189548
30
0
10
8.924122
20
21.505592
30
0
10
8.89679
20
21.841939
30
0
10
8.856436
20
22.19814
30
0
10
8.801776
20
22.573689
30
0
10
8.799823
20
22.585731
30
0
10
8.799653
20
22.586361
30
0
10
7.602817
20
23.016837
30
0
10
7.602284
20
23.016459
30
0
10
7.593109
20
23.00842
30
0
10
7.311764
20
22.753725
30
0
10
7.053771
20
22.504832
30
0
10
6.818463
20
22.262952
30
0
10
6.605121
20
22.029257
30
0
10
6.412974
20
21.804884
30
0
10
6.241201
20
21.590926
30
0
10
6.088936
20
21.388432
30
0
10
5.955265
20
21.198409
30
0
10
5.839232
20
21.021814
30
0
10
5.739837
20
20.85956
30
0
10
5.656044
20
20.712504
30
0
10
5.586777
20
20.581456
30
0
10
5.530926
20
20.467171
30
0
10
5.487348
20
20.370348
30
0
10
5.45487
20
20.291632
30
0
10
5.432292
20
20.231612
30
0
10
5.418387
20
20.190814
30
0
10
5.411906
20
20.169711
30
0
10
5.156309
20
19.21726
30
0
10
2.831638
20
19.694477
30
0
10
2.971945
20
20.670595
30
0
10
2.974302
20
20.692545
30
0
10
2.977595
20
20.735521
30
0
10
2.980489
20
20.799583
30
0
10
2.981649
20
20.884727
30
0
10
2.97974
20
20.990888
30
0
10
2.973431
20
21.117934
30
0
10
2.961394
20
21.265672
30
0
10
2.942312
20
21.433846
30
0
10
2.914879
20
21.622137
30
0
10
2.877801
20
21.830162
30
0
10
2.829804
20
22.057479
30
0
10
2.769628
20
22.303583
30
0
10
2.69604
20
22.56791
30
0
10
2.607828
20
22.849837
30
0
10
2.503807
20
23.14868
30
0
10
2.382822
20
23.463702
30
0
10
2.24375
20
23.794106
30
0
10
2.085499
20
24.139043
30
0
10
2.080233
20
24.150047
30
0
10
2.079892
20
24.150603
30
0
10
0.810257
20
24.226454
30
0
10
0.809853
20
24.225942
30
0
10
0.803314
20
24.215643
30
0
10
0.605121
20
23.892001
30
0
10
0.4277
20
23.580505
30
0
10
0.270069
20
23.282129
30
0
10
0.131208
20
22.997795
30
0
10
0.010057
20
22.728377
30
0
10
-0.094478
20
22.474691
30
0
10
-0.183526
20
22.237502
30
0
10
-0.258247
20
22.017516
30
0
10
-0.319828
20
21.815385
30
0
10
-0.369483
20
21.6317
30
0
10
-0.408452
20
21.466994
30
0
10
-0.437993
20
21.321739
30
0
10
-0.459384
20
21.196348
30
0
10
-0.473918
20
21.09117
30
0
10
-0.482904
20
21.006493
30
0
10
-0.487657
20
20.942543
30
0
10
-0.489505
20
20.899481
30
0
10
-0.489778
20
20.877406
30
0
10
-0.466685
20
19.891526
30
0
10
-2.831638
20
19.694477
30
0
10
-2.972019
20
20.670584
30
0
10
-2.975942
20
20.69231
30
0
10
-2.98489
20
20.734472
30
0
10
-3.000162
20
20.796754
30
0
10
-3.023036
20
20.878777
30
0
10
-3.054777
20
20.980099
30
0
10
-3.096624
20
21.100221
30
0
10
-3.149796
20
21.238584
30
0
10
-3.215485
20
21.39457
30
0
10
-3.294854
20
21.567504
30
0
10
-3.389037
20
21.756657
30
0
10
-3.499133
20
21.961244
30
0
10
-3.626206
20
22.180426
30
0
10
-3.771283
20
22.413314
30
0
10
-3.93535
20
22.658968
30
0
10
-4.119351
20
22.9164
30
0
10
-4.324187
20
23.184576
30
0
10
-4.550712
20
23.462415
30
0
10
-4.799733
20
23.748795
30
0
10
-4.807885
20
23.757869
30
0
10
-4.808369
20
23.758308
30
0
10
-6.047945
20
23.473388
30
0
10
-6.048189
20
23.472783
30
0
10
-6.051561
20
23.461059
30
0
10
-6.150545
20
23.09469
30
0
10
-6.233021
20
22.745826
30
0
10
-6.300204
20
22.415126
30
0
10
-6.353335
20
22.103189
30
0
10
-6.393674
20
21.810551
30
0
10
-6.422503
20
21.537691
30
0
10
-6.44112
20
21.285021
30
0
10
-6.450837
20
21.052896
30
0
10
-6.452977
20
20.841603
30
0
10
-6.448871
20
20.651369
30
0
10
-6.439858
20
20.482356
30
0
10
-6.42728
20
20.334662
30
0
10
-6.412477
20
20.208324
30
0
10
-6.396791
20
20.103311
30
0
10
-6.381556
20
20.019533
30
0
10
-6.3681
20
19.956834
30
0
10
-6.357741
20
19.914995
30
0
10
-6.351784
20
19.893738
30
0
10
-6.051872
20
18.954299
30
0
10
-8.265513
20
18.098948
30
0
10
-8.675208
20
18.995966
30
0
10
-8.685092
20
19.015706
30
0
10
-8.705557
20
19.05364
30
0
10
-8.737757
20
19.109096
30
0
10
-8.782813
20
19.181352
30
0
10
-8.841814
20
19.269628
30
0
10
-8.915808
20
19.373094
30
0
10
-9.005807
20
19.490872
30
0
10
-9.112782
20
19.622033
30
0
10
-9.237658
20
19.765601
30
0
10
-9.381316
20
19.920558
30
0
10
-9.544591
20
20.085839
30
0
10
-9.728268
20
20.260342
30
0
10
-9.93308
20
20.442924
30
0
10
-10.15971
20
20.632404
30
0
10
-10.408785
20
20.82757
30
0
10
-10.680877
20
21.027173
30
0
10
-10.976503
20
21.229938
30
0
10
-11.296118
20
21.434561
30
0
10
-11.306497
20
21.440971
30
0
10
-11.307085
20
21.441255
30
0
10
-12.416178
20
20.818648
30
0
10
-12.416242
20
20.817998
30
0
10
-12.416175
20
20.8058
30
0
10
-12.407931
20
20.426384
30
0
10
-12.38878
20
20.068415
30
0
10
-12.360072
20
19.732183
30
0
10
-12.323168
20
19.417913
30
0
10
-12.279427
20
19.125765
30
0
10
-12.230215
20
18.855834
30
0
10
-12.176893
20
18.608155
30
0
10
-12.120819
20
18.382695
30
0
10
-12.063344
20
18.179358
30
0
10
-12.005809
20
17.997986
30
0
10
-11.949545
20
17.838359
30
0
10
-11.895866
20
17.700192
30
0
10
-11.846069
20
17.583141
30
0
10
-11.801433
20
17.486802
30
0
10
-11.763212
20
17.410709
30
0
10
-11.732637
20
17.354341
30
0
10
-11.71091
20
17.317115
30
0
10
-11.699206
20
17.298397
30
0
10
-11.146772
20
16.481508
30
0
10
-13.029764
20
15.037149
30
0
10
-13.675583
20
15.782407
30
0
10
-13.690629
20
15.798563
30
0
10
-13.720952
20
15.829194
30
0
10
-13.767471
20
15.873333
30
0
10
-13.831059
20
15.929968
30
0
10
-13.912539
20
15.998045
30
0
10
-14.012686
20
16.076474
30
0
10
-14.132222
20
16.164126
30
0
10
-14.271816
20
16.259835
30
0
10
-14.432081
20
16.362407
30
0
10
-14.613577
20
16.470613
30
0
10
-14.816803
20
16.5832
30
0
10
-15.042202
20
16.698886
30
0
10
-15.290158
20
16.81637
30
0
10
-15.56099
20
16.934326
30
0
10
-15.85496
20
17.051413
30
0
10
-16.172266
20
17.166274
30
0
10
-16.513042
20
17.277539
30
0
10
-16.87736
20
17.383826
30
0
10
-16.889124
20
17.387053
30
0
10
-16.889769
20
17.387159
30
0
10
-17.778527
20
16.477305
30
0
10
-17.778405
20
16.476664
30
0
10
-17.774903
20
16.464978
30
0
10
-17.6601
20
16.103254
30
0
10
-17.540873
20
15.765181
30
0
10
-17.418601
20
15.450656
30
0
10
-17.294651
20
15.159513
30
0
10
-17.170375
20
14.891522
30
0
10
-17.047108
20
14.646391
30
0
10
-16.926166
20
14.423767
30
0
10
-16.808844
20
14.223237
30
0
10
-16.69641
20
14.044329
30
0
10
-16.590108
20
13.886514
30
0
10
-16.491151
20
13.749204
30
0
10
-16.40072
20
13.631757
30
0
10
-16.319964
20
13.533477
30
0
10
-16.249994
20
13.453616
30
0
10
-16.191883
20
13.391373
30
0
10
-16.146665
20
13.345902
30
0
10
-16.115331
20
13.316306
30
0
10
-16.098827
20
13.301643
30
0
10
-15.338626
20
12.673482
30
0
10
-16.738422
20
10.75713
30
0
10
-17.568044
20
11.290252
30
0
10
-17.587031
20
11.301515
30
0
10
-17.624756
20
11.322362
30
0
10
-17.681826
20
11.351607
30
0
10
-17.758794
20
11.388033
30
0
10
-17.856154
20
11.430397
30
0
10
-17.97434
20
11.477434
30
0
10
-18.113728
20
11.527858
30
0
10
-18.274632
20
11.580363
30
0
10
-18.457303
20
11.633627
30
0
10
-18.661932
20
11.686317
30
0
10
-18.888646
20
11.737088
30
0
10
-19.137508
20
11.784586
30
0
10
-19.408518
20
11.827453
30
0
10
-19.701612
20
11.864329
30
0
10
-20.016661
20
11.893853
30
0
10
-20.353474
20
11.914666
30
0
10
-20.711793
20
11.925415
30
0
10
-21.091298
20
11.924758
30
0
10
-21.103495
20
11.924539
30
0
10
-21.104143
20
11.92446
30
0
10
-21.700565
20
10.801069
30
0
10
-21.700267
20
10.800488
30
0
10
-21.693615
20
10.790262
30
0
10
-21.481552
20
10.475534
30
0
10
-21.271909
20
10.184745
30
0
10
-21.065978
20
9.917409
30
0
10
-20.865025
20
9.67298
30
0
10
-20.670281
20
9.450857
30
0
10
-20.482946
20
9.250384
30
0
10
-20.304182
20
9.070851
30
0
10
-20.135117
20
8.911497
30
0
10
-19.976833
20
8.771513
30
0
10
-19.830375
20
8.650039
30
0
10
-19.696742
20
8.54617
30
0
10
-19.576885
20
8.458958
30
0
10
-19.471712
20
8.387411
30
0
10
-19.382076
20
8.330497
30
0
10
-19.308784
20
8.287148
30
0
10
-19.252587
20
8.256258
30
0
10
-19.214184
20
8.236688
30
0
10
-19.194218
20
8.22727
30
0
10
-18.287837
20
7.838727
30
0
10
-19.091032
20
5.605633
30
0
10
-20.037246
20
5.883428
30
0
10
-20.058638
20
5.888884
30
0
10
-20.100708
20
5.898259
30
0
10
-20.163705
20
5.910241
30
0
10
-20.247818
20
5.923507
30
0
10
-20.353169
20
5.936726
30
0
10
-20.47982
20
5.948561
30
0
10
-20.627768
20
5.957672
30
0
10
-20.796946
20
5.962718
30
0
10
-20.987224
20
5.96236
30
0
10
-21.198409
20
5.955265
30
0
10
-21.430242
20
5.940107
30
0
10
-21.682406
20
5.915568
30
0
10
-21.954515
20
5.880347
30
0
10
-22.246126
20
5.833155
30
0
10
-22.556731
20
5.772723
30
0
10
-22.885764
20
5.697802
30
0
10
-23.232598
20
5.607166
30
0
10
-23.596545
20
5.499616
30
0
10
-23.608186
20
5.495969
30
0
10
-23.608786
20
5.495711
30
0
10
-23.864552
20
4.249794
30
0
10
-23.864103
20
4.24932
30
0
10
-23.85484
20
4.241383
30
0
10
-23.562697
20
3.999148
30
0
10
-23.279622
20
3.779202
30
0
10
-23.006715
20
3.580713
30
0
10
-22.745038
20
3.4028
30
0
10
-22.495603
20
3.24454
30
0
10
-22.259377
20
3.104966
30
0
10
-22.037274
20
2.983068
30
0
10
-21.830162
20
2.877801
30
0
10
-21.638852
20
2.788081
30
0
10
-21.464103
20
2.712789
30
0
10
-21.30662
20
2.650777
30
0
10
-21.167048
20
2.600865
30
0
10
-21.045977
20
2.561847
30
0
10
-20.943938
20
2.532492
30
0
10
-20.861402
20
2.511547
30
0
10
-20.798779
20
2.497741
30
0
10
-20.756418
20
2.489784
30
0
10
-20.734607
20
2.486371
30
0
10
-19.755475
20
2.368924
30
0
10
-19.897
20
0
30
0
10
-20.88315
20
-0.000037
30
0
10
-20.905212
20
-0.000828
30
0
10
-20.948219
20
-0.003685
30
0
10
-21.012041
20
-0.009938
30
0
10
-21.096484
20
-0.020906
30
0
10
-21.201292
20
-0.037904
30
0
10
-21.326147
20
-0.06223
30
0
10
-21.470668
20
-0.09517
30
0
10
-21.634415
20
-0.137991
30
0
10
-21.816885
20
-0.191942
30
0
10
-22.017516
20
-0.258247
30
0
10
-22.235689
20
-0.338106
30
0
10
-22.470724
20
-0.432693
30
0
10
-22.721888
20
-0.54315
30
0
10
-22.988391
20
-0.670586
30
0
10
-23.269389
20
-0.816078
30
0
10
-23.563986
20
-0.980664
30
0
10
-23.871235
20
-1.165343
30
0
10
-24.19014
20
-1.371072
30
0
10
-24.200282
20
-1.377851
30
0
10
-24.200785
20
-1.378267
30
0
10
-24.095175
20
-2.645774
30
0
10
-24.094611
20
-2.646102
30
0
10
-24.083486
20
-2.651108
30
0
10
-23.734933
20
-2.801224
30
0
10
-23.401358
20
-2.932509
30
0
10
-23.083585
20
-3.046072
30
0
10
-22.782384
20
-3.143055
30
0
10
-22.498466
20
-3.22463
30
0
10
-22.232485
20
-3.291998
30
0
10
-21.985037
20
-3.346385
30
0
10
-21.756657
20
-3.389037
30
0
10
-21.54782
20
-3.421225
30
0
10
-21.358937
20
-3.444235
30
0
10
-21.190362
20
-3.459367
30
0
10
-21.042382
20
-3.467935
30
0
10
-20.915223
20
-3.471263
30
0
10
-20.809047
20
-3.470681
30
0
10
-20.723953
20
-3.467524
30
0
10
-20.659977
20
-3.463128
30
0
10
-20.61709
20
-3.458829
30
0
10
-20.595201
20
-3.455958
30
0
10
-19.622643
20
-3.292794
30
0
10
-19.091032
20
-5.605633
30
0
10
-20.037225
20
-5.883499
30
0
10
-20.058171
20
-5.890473
30
0
10
-20.098631
20
-5.905332
30
0
10
-20.158106
20
-5.929311
30
0
10
-20.236038
20
-5.963626
30
0
10
-20.331812
20
-6.009463
30
0
10
-20.444756
20
-6.067979
30
0
10
-20.574143
20
-6.140301
30
0
10
-20.719193
20
-6.22752
30
0
10
-20.879072
20
-6.330693
30
0
10
-21.052896
20
-6.450837
30
0
10
-21.239731
20
-6.588928
30
0
10
-21.438598
20
-6.745901
30
0
10
-21.648469
20
-6.922644
30
0
10
-21.868274
20
-7.120001
30
0
10
-22.096899
20
-7.338766
30
0
10
-22.333194
20
-7.579683
30
0
10
-22.575967
20
-7.843443
30
0
10
-22.823993
20
-8.130684
30
0
10
-22.831815
20
-8.140045
30
0
10
-22.83218
20
-8.140587
30
0
10
-22.373751
20
-9.326997
30
0
10
-22.373117
20
-9.327152
30
0
10
-22.361033
20
-9.328822
30
0
10
-21.984305
20
-9.374658
30
0
10
-21.627255
20
-9.406646
30
0
10
-21.29036
20
-9.426082
30
0
10
-20.974036
20
-9.434279
30
0
10
-20.678637
20
-9.432561
30
0
10
-20.40445
20
-9.422264
30
0
10
-20.151703
20
-9.404733
30
0
10
-19.920558
20
-9.381316
30
0
10
-19.711111
20
-9.353364
30
0
10
-19.523397
20
-9.322227
30
0
10
-19.357387
20
-9.289253
30
0
10
-19.212987
20
-9.255783
30
0
10
-19.090041
20
-9.223152
30
0
10
-18.98833
20
-9.19268
30
0
10
-18.907573
20
-9.165677
30
0
10
-18.847427
20
-9.143435
30
0
10
-18.807488
20
-9.127228
30
0
10
-18.787295
20
-9.118306
30
0
10
-17.900101
20
-8.68775
30
0
10
-16.738422
20
-10.75713
30
0
10
-17.568004
20
-11.290314
30
0
10
-17.586136
20
-11.302908
30
0
10
-17.620771
20
-11.328563
30
0
10
-17.671081
20
-11.368327
30
0
10
-17.736189
20
-11.423208
30
0
10
-17.815169
20
-11.494171
30
0
10
-17.907052
20
-11.582137
30
0
10
-18.010823
20
-11.687982
30
0
10
-18.125425
20
-11.812533
30
0
10
-18.24976
20
-11.95657
30
0
10
-18.382695
20
-12.120819
30
0
10
-18.523057
20
-12.305954
30
0
10
-18.669644
20
-12.512595
30
0
10
-18.82122
20
-12.741307
30
0
10
-18.976519
20
-12.992596
30
0
10
-19.13425
20
-13.26691
30
0
10
-19.2931
20
-13.56464
30
0
10
-19.451729
20
-13.886113
30
0
10
-19.608783
20
-14.231596
30
0
10
-19.61365
20
-14.242782
30
0
10
-19.613848
20
-14.243404
30
0
10
-18.839738
20
-15.252602
30
0
10
-18.839086
20
-15.252572
30
0
10
-18.827021
20
-15.25077
30
0
10
-18.45264
20
-15.188613
30
0
10
-18.101041
20
-15.118713
30
0
10
-17.772317
20
-15.042447
30
0
10
-17.466497
20
-14.961193
30
0
10
-17.183547
20
-14.876321
30
0
10
-16.923368
20
-14.789194
30
0
10
-16.685798
20
-14.701166
30
0
10
-16.470613
20
-14.613577
30
0
10
-16.277525
20
-14.527749
30
0
10
-16.106188
20
-14.444988
30
0
10
-15.956192
20
-14.366579
30
0
10
-15.827071
20
-14.293783
30
0
10
-15.718299
20
-14.227835
30
0
10
-15.629292
20
-14.169943
30
0
10
-15.559414
20
-14.121282
30
0
10
-15.50797
20
-14.082996
30
0
10
-15.474216
20
-14.056193
30
0
10
-15.457354
20
-14.041943
30
0
10
-14.727399
20
-13.378877
30
0
10
-13.029764
20
-15.037149
30
0
10
-13.675527
20
-15.782456
30
0
10
-13.689377
20
-15.799648
30
0
10
-13.715381
20
-15.834021
30
0
10
-13.75245
20
-15.886349
30
0
10
-13.799459
20
-15.957349
30
0
10
-13.855248
20
-16.047689
30
0
10
-13.918626
20
-16.157978
30
0
10
-13.988373
20
-16.288771
30
0
10
-14.063242
20
-16.440565
30
0
10
-14.141962
20
-16.613797
30
0
10
-14.223237
20
-16.808844
30
0
10
-14.305756
20
-17.026025
30
0
10
-14.388187
20
-17.265594
30
0
10
-14.469187
20
-17.527745
30
0
10
-14.547399
20
-17.812607
30
0
10
-14.621458
20
-18.120249
30
0
10
-14.689993
20
-18.450671
30
0
10
-14.751627
20
-18.803813
30
0
10
-14.804985
20
-19.179549
30
0
10
-14.806504
20
-19.191653
30
0
10
-14.806519
20
-19.192306
30
0
10
-13.779442
20
-19.942532
30
0
10
-13.778824
20
-19.94232
30
0
10
-13.767756
20
-19.937191
30
0
10
-13.426051
20
-19.772077
30
0
10
-13.108388
20
-19.605951
30
0
10
-12.814466
20
-19.440163
30
0
10
-12.543926
20
-19.27604
30
0
10
-12.296349
20
-19.11489
30
0
10
-12.071255
20
-18.957992
30
0
10
-11.868109
20
-18.806599
30
0
10
-11.686317
20
-18.661932
30
0
10
-11.525231
20
-18.525182
30
0
10
-11.384151
20
-18.397502
30
0
10
-11.262321
20
-18.28001
30
0
10
-11.158939
20
-18.173786
30
0
10
-11.073153
20
-18.079865
30
0
10
-11.004062
20
-17.999241
30
0
10
-10.950723
20
-17.932864
30
0
10
-10.91215
20
-17.881636
30
0
10
-10.887314
20
-17.846408
30
0
10
-10.87515
20
-17.827986
30
0
10
-10.36157
20
-16.986126
30
0
10
-8.265513
20
-18.098948
30
0
10
-8.67514
20
-18.995997
30
0
10
-8.683586
20
-19.016394
30
0
10
-8.698852
20
-19.056702
30
0
10
-8.719678
20
-19.117353
30
0
10
-8.744779
20
-19.198721
30
0
10
-8.772856
20
-19.301119
30
0
10
-8.802595
20
-19.424797
30
0
10
-8.832669
20
-19.569942
30
0
10
-8.86174
20
-19.73668
30
0
10
-8.888465
20
-19.925072
30
0
10
-8.911497
20
-20.135117
30
0
10
-8.929487
20
-20.366748
30
0
10
-8.941085
20
-20.619837
30
0
10
-8.944947
20
-20.894189
30
0
10
-8.939736
20
-21.189548
30
0
10
-8.924122
20
-21.505592
30
0
10
-8.89679
20
-21.841939
30
0
10
-8.856436
20
-22.19814
30
0
10
-8.801776
20
-22.573689
30
0
10
-8.799823
20
-22.585731
30
0
10
-8.799653
20
-22.586361
30
0
10
-7.602817
20
-23.016837
30
0
10
-7.602284
20
-23.016459
30
0
10
-7.593109
20
-23.00842
30
0
10
-7.311764
20
-22.753725
30
0
10
-7.053771
20
-22.504832
30
0
10
-6.818463
20
-22.262952
30
0
10
-6.605121
20
-22.029257
30
0
10
-6.412974
20
-21.804884
30
0
10
-6.241201
20
-21.590926
30
0
10
-6.088936
20
-21.388432
30
0
10
-5.955265
20
-21.198409
30
0
10
-5.839232
20
-21.021814
30
0
10
-5.739837
20
-20.85956
30
0
10
-5.656044
20
-20.712504
30
0
10
-5.586777
20
-20.581456
30
0
10
-5.530926
20
-20.467171
30
0
10
-5.487348
20
-20.370348
30
0
10
-5.45487
20
-20.291632
30
0
10
-5.432292
20
-20.231612
30
0
10
-5.418387
20
-20.190814
30
0
10
-5.411906
20
-20.169711
30
0
10
-5.156309
20
-19.21726
30
0
10
-2.831638
20
-19.694477
30
0
10
-2.971945
20
-20.670595
30
0
10
-2.974302
20
-20.692545
30
0
10
-2.977595
20
-20.735521
30
0
10
-2.980489
20
-20.799583
30
0
10
-2.981649
20
-20.884727
30
0
10
-2.97974
20
-20.990888
30
0
10
-2.973431
20
-21.117934
30
0
10
-2.961394
20
-21.265672
30
0
10
-2.942312
20
-21.433846
30
0
10
-2.914879
20
-21.622137
30
0
10
-2.877801
20
-21.830162
30
0
10
-2.829804
20
-22.057479
30
0
10
-2.769628
20
-22.303583
30
0
10
-2.69604
20
-22.56791
30
0
10
-2.607828
20
-22.849837
30
0
10
-2.503807
20
-23.14868
30
0
10
-2.382822
20
-23.463702
30
0
10
-2.24375
20
-23.794106
30
0
10
-2.085499
20
-24.139043
30
0
10
-2.080233
20
-24.150047
30
0
10
-2.079892
20
-24.150603
30
0
10
-0.810257
20
-24.226454
30
0
10
-0.809853
20
-24.225942
30
0
10
-0.803314
20
-24.215643
30
0
10
-0.605121
20
-23.892001
30
0
10
-0.4277
20
-23.580505
30
0
10
-0.270069
20
-23.282129
30
0
10
-0.131208
20
-22.997795
30
0
10
-0.010057
20
-22.728377
30
0
10
0.094478
20
-22.474691
30
0
10
0.183526
20
-22.237502
30
0
10
0.258247
20
-22.017516
30
0
10
0.319828
20
-21.815385
30
0
10
0.369483
20
-21.6317
30
0
10
0.408452
20
-21.466994
30
0
10
0.437993
20
-21.321739
30
0
10
0.459384
20
-21.196348
30
0
10
0.473918
20
-21.09117
30
0
10
0.482904
20
-21.006493
30
0
10
0.487657
20
-20.942543
30
0
10
0.489505
20
-20.899481
30
0
10
0.489778
20
-20.877406
30
0
10
0.466685
20
-19.891526
30
0
10
2.831638
20
-19.694477
30
0
10
2.972019
20
-20.670584
30
0
10
2.975942
20
-20.69231
30
0
10
2.98489
20
-20.734472
30
0
10
3.000162
20
-20.796754
30
0
10
3.023036
20
-20.878777
30
0
10
3.054777
20
-20.980099
30
0
10
3.096624
20
-21.100221
30
0
10
3.149796
20
-21.238584
30
0
10
3.215485
20
-21.39457
30
0
10
3.294854
20
-21.567504
30
0
10
3.389037
20
-21.756657
30
0
10
3.499133
20
-21.961244
30
0
10
3.626206
20
-22.180426
30
0
10
3.771283
20
-22.413314
30
0
10
3.93535
20
-22.658968
30
0
10
4.119351
20
-22.9164
30
0
10
4.324187
20
-23.184576
30
0
10
4.550712
20
-23.462415
30
0
10
4.799733
20
-23.748795
30
0
10
4.807885
20
-23.757869
30
0
10
4.808369
20
-23.758308
30
0
10
6.047945
20
-23.473388
30
0
10
6.048189
20
-23.472783
30
0
10
6.051561
20
-23.461059
30
0
10
6.150545
20
-23.09469
30
0
10
6.233021
20
-22.745826
30
0
10
6.300204
20
-22.415126
30
0
10
6.353335
20
-22.103189
30
0
10
6.393674
20
-21.810551
30
0
10
6.422503
20
-21.537691
30
0
10
6.44112
20
-21.285021
30
0
10
6.450837
20
-21.052896
30
0
10
6.452977
20
-20.841603
30
0
10
6.448871
20
-20.651369
30
0
10
6.439858
20
-20.482356
30
0
10
6.42728
20
-20.334662
30
0
10
6.412477
20
-20.208324
30
0
10
6.396791
20
-20.103311
30
0
10
6.381556
20
-20.019533
30
0
10
6.3681
20
-19.956834
30
0
10
6.357741
20
-19.914995
30
0
10
6.351784
20
-19.893738
30
0
10
6.051872
20
-18.954299
30
0
10
8.265513
20
-18.098948
30
0
10
8.675208
20
-18.995966
30
0
10
8.685092
20
-19.015706
30
0
10
8.705557
20
-19.05364
30
0
10
8.737757
20
-19.109096
30
0
10
8.782813
20
-19.181352
30
0
10
8.841814
20
-19.269628
30
0
10
8.915808
20
-19.373094
30
0
10
9.005807
20
-19.490872
30
0
10
9.112782
20
-19.622033
30
0
10
9.237658
20
-19.765601
30
0
10
9.381316
20
-19.920558
30
0
10
9.544591
20
-20.085839
30
0
10
9.728268
20
-20.260342
30
0
10
9.93308
20
-20.442924
30
0
10
10.15971
20
-20.632404
30
0
10
10.408785
20
-20.82757
30
0
10
10.680877
20
-21.027173
30
0
10
10.976503
20
-21.229938
30
0
10
11.296118
20
-21.434561
30
0
10
11.306497
20
-21.440971
30
0
10
11.307085
20
-21.441255
30
0
10
12.416178
20
-20.818648
30
0
10
12.416242
20
-20.817998
30
0
10
12.416175
20
-20.8058
30
0
10
12.407931
20
-20.426384
30
0
10
12.38878
20
-20.068415
30
0
10
12.360072
20
-19.732183
30
0
10
12.323168
20
-19.417913
30
0
10
12.279427
20
-19.125765
30
0
10
12.230215
20
-18.855834
30
0
10
12.176893
20
-18.608155
30
0
10
12.120819
20
-18.382695
30
0
10
12.063344
20
-18.179358
30
0
10
12.005809
20
-17.997986
30
0
10
11.949545
20
-17.838359
30
0
10
11.895866
20
-17.700192
30
0
10
11.846069
20
-17.583141
30
0
10
11.801433
20
-17.486802
30
0
10
11.763212
20
-17.410709
30
0
10
11.732637
20
-17.354341
30
0
10
11.71091
20
-17.317115
30
0
10
11.699206
20
-17.298397
30
0
10
11.146772
20
-16.481508
30
0
10
13.029764
20
-15.037149
30
0
10
13.675583
20
-15.782407
30
0
10
13.690629
20
-15.798563
30
0
10
13.720952
20
-15.829194
30
0
10
13.767471
20
-15.873333
30
0
10
13.831059
20
-15.929968
30
0
10
13.912539
20
-15.998045
30
0
10
14.012686
20
-16.076474
30
0
10
14.132222
20
-16.164126
30
0
10
14.271816
20
-16.259835
30
0
10
14.432081
20
-16.362407
30
0
10
14.613577
20
-16.470613
30
0
10
14.816803
20
-16.5832
30
0
10
15.042202
20
-16.698886
30
0
10
15.290158
20
-16.81637
30
0
10
15.56099
20
-16.934326
30
0
10
15.85496
20
-17.051413
30
0
10
16.172266
20
-17.166274
30
0
10
16.513042
20
-17.277539
30
0
10
16.87736
20
-17.383826
30
0
10
16.889124
20
-17.387053
30
0
10
16.889769
20
-17.387159
30
0
10
17.778527
20
-16.477305
30
0
10
17.778405
20
-16.476664
30
0
10
17.774903
20
-16.464978
30
0
10
17.6601
20
-16.103254
30
0
10
17.540873
20
-15.765181
30
0
10
17.418601
20
-15.450656
30
0
10
17.294651
20
-15.159513
30
0
10
17.170375
20
-14.891522
30
0
10
17.047108
20
-14.646391
30
0
10
16.926166
20
-14.423767
30
0
10
16.808844
20
-14.223237
30
0
10
16.69641
20
-14.044329
30
0
10
16.590108
20
-13.886514
30
0
10
16.491151
20
-13.749204
30
0
10
16.40072
20
-13.631757
30
0
10
16.319964
20
-13.533477
30
0
10
16.249994
20
-13.453616
30
0
10
16.191883
20
-13.391373
30
0
10
16.146665
20
-13.345902
30
0
10
16.115331
20
-13.316306
30
0
10
16.098827
20
-13.301643
30
0
10
15.338626
20
-12.673482
30
0
10
16.738422
20
-10.75713
30
0
10
17.568044
20
-11.290252
30
0
10
17.587031
20
-11.301515
30
0
10
17.624756
20
-11.322362
30
0
10
17.681826
20
-11.351607
30
0
10
17.758794
20
-11.388033
30
0
10
17.856154
20
-11.430397
30
0
10
17.97434
20
-11.477434
30
0
10
18.113728
20
-11.527858
30
0
10
18.274632
20
-11.580363
30
0
10
18.457303
20
-11.633627
30
0
10
18.661932
20
-11.686317
30
0
10
18.888646
20
-11.737088
30
0
10
19.137508
20
-11.784586
30
0
10
19.408518
20
-11.827453
30
0
10
19.701612
20
-11.864329
30
0
10
20.016661
20
-11.893853
30
0
10
20.353474
20
-11.914666
30
0
10
20.711793
20
-11.925415
30
0
10
21.091298
20
-11.924758
30
0
10
21.103495
20
-11.924539
30
0
10
21.104143
20
-11.92446
30
0
10
21.700565
20
-10.801069
30
0
10
21.700267
20
-10.800488
30
0
10
21.693615
20
-10.790262
30
0
10
21.481552
20
-10.475534
30
0
10
21.271909
20
-10.184745
30
0
10
21.065978
20
-9.917409
30
0
10
20.865025
20
-9.67298
30
0
10
20.670281
20
-9.450857
30
0
10
20.482946
20
-9.250384
30
0
10
20.304182
20
-9.070851
30
0
10
20.135117
20
-8.911497
30
0
10
19.976833
20
-8.771513
30
0
10
19.830375
20
-8.650039
30
0
10
19.696742
20
-8.54617
30
0
10
19.576885
20
-8.458958
30
0
10
19.471712
20
-8.387411
30
0
10
19.382076
20
-8.330497
30
0
10
19.308784
20
-8.287148
30
0
10
19.252587
20
-8.256258
30
0
10
19.214184
20
-8.236688
30
0
10
19.194218
20
-8.22727
30
0
10
18.287837
20
-7.838727
30
0
10
19.091032
20
-5.605633
30
0
10
20.037246
20
-5.883428
30
0
10
20.058638
20
-5.888884
30
0
10
20.100708
20
-5.898259
30
0
10
20.163705
20
-5.910241
30
0
10
20.247818
20
-5.923507
30
0
10
20.353169
20
-5.936726
30
0
10
20.47982
20
-5.948561
30
0
10
20.627768
20
-5.957672
30
0
10
20.796946
20
-5.962718
30
0
10
20.987224
20
-5.96236
30
0
10
21.198409
20
-5.955265
30
0
10
21.430242
20
-5.940107
30
0
10
21.682406
20
-5.915568
30
0
10
21.954515
20
-5.880347
30
0
10
22.246126
20
-5.833155
30
0
10
22.556731
20
-5.772723
30
0
10
22.885764
20
-5.697802
30
0
10
23.232598
20
-5.607166
30
0
10
23.596545
20
-5.499616
30
0
10
23.608186
20
-5.495969
30
0
10
23.608786
20
-5.495711
30
0
10
23.864552
20
-4.249794
30
0
10
23.864103
20
-4.24932
30
0
10
23.85484
20
-4.241383
30
0
10
23.562697
20
-3.999148
30
0
10
23.279622
20
-3.779202
30
0
10
23.006715
20
-3.580713
30
0
10
22.745038
20
-3.4028
30
0
10
22.495603
20
-3.24454
30
0
10
22.259377
20
-3.104966
30
0
10
22.037274
20
-2.983068
30
0
10
21.830162
20
-2.877801
30
0
10
21.638852
20
-2.788081
30
0
10
21.464103
20
-2.712789
30
0
10
21.30662
20
-2.650777
30
0
10
21.167048
20
-2.600865
30
0
10
21.045977
20
-2.561847
30
0
10
20.943938
20
-2.532492
30
0
10
20.861402
20
-2.511547
30
0
10
20.798779
20
-2.497741
30
0
10
20.756418
20
-2.489784
30
0
10
20.734607
20
-2.486371
30
0
10
19.755475
20
-2.368924
30
0
8
gear
0
CIRCLE
5
2001
100
AcDbEntity
100
AcDbCircle
10
22.14327
20
1.844987
30
0
40
0.79285
8
gear_guides
0
CIRCLE
5
2002
100
AcDbEntity
100
AcDbCircle
10
0
20
0
30
0
40
22.22
8
gear_guides
0
CIRCLE
5
2003
100
AcDbEntity
100
AcDbCircle
10
0
20
0
30
0
40
24.24
8
gear_guides
0
CIRCLE
5
2004
100
AcDbEntity
100
AcDbCircle
10
0
20
0
30
0
40
20.87997
8
gear_guides
0
LINE
5
2005
100
AcDbEntity
100
AcDbLine
10
1.6
20
0
30
0
11
-1.6
21
0
31
0
8
gear_guides
0
LINE
5
2006
100
AcDbEntity
100
AcDbLine
10
0
20
1.6
30
0
11
0
21
-1.6
31
0
8
gear_guides
0
LWPOLYLINE
5
2007
100
AcDbEntity
100
AcDbPolyline
66
1
90
2
70
0
43
0
10
-12.834108
20
7.409775
30
0
10
-13.93894
20
8.047651
30
0
8
gear_texts
0
LWPOLYLINE
5
2008
100
AcDbEntity
100
AcDbPolyline
66
1
90
2
70
0
43
0
10
-14.215148
20
8.20712
30
0
10
-14.491356
20
8.366588
30
0
8
gear_texts
0
LWPOLYLINE
5
2009
100
AcDbEntity
100
AcDbPolyline
66
1
90
2
70
0
43
0
10
-12.524106
20
7.922491
30
0
10
-13.602251
20
8.604504
30
0
8
gear_texts
0
LWPOLYLINE
5
2010
100
AcDbEntity
100
AcDbPolyline
66
1
90
6
70
0
43
0
10
-13.063179
20
8.263498
30
0
10
-13.159499
20
8.701795
30
0
10
-13.243329
20
9.147293
30
0
10
-13.055712
20
9.413135
30
0
10
-12.607877
20
9.483412
30
0
10
-11.843228
20
8.908257
30
0
8
gear_texts
0
LWPOLYLINE
5
2011
100
AcDbEntity
100
AcDbPolyline
66
1
90
2
70
0
43
0
10
-10.979615
20
8.975967
30
0
10
-12.461166
20
10.187152
30
0
8
gear_texts
0
LWPOLYLINE
5
2012
100
AcDbEntity
100
AcDbPolyline
66
1
90
10
70
0
43
0
10
-12.214241
20
9.985288
30
0
10
-12.252689
20
10.436971
30
0
10
-12.039204
20
10.682523
30
0
10
-11.820799
20
10.923711
30
0
10
-11.36775
20
10.939283
30
0
10
-10.908126
20
10.496982
30
0
10
-10.883855
20
10.057872
30
0
10
-11.084949
20
9.835802
30
0
10
-11.281512
20
9.609712
30
0
10
-11.473465
20
9.379695
30
0
8
gear_texts
0
LWPOLYLINE
5
2013
100
AcDbEntity
100
AcDbPolyline
66
1
90
2
70
0
43
0
10
-10.16194
20
12.481735
30
0
10
-9.356481
20
11.492404
30
0
8
gear_texts
0
LWPOLYLINE
5
2014
100
AcDbEntity
100
AcDbPolyline
66
1
90
6
70
0
43
0
10
-9.75921
20
11.98707
30
0
10
-9.793209
20
11.544128
30
0
10
-9.813372
20
11.10481
30
0
10
-10.035849
20
10.904166
30
0
10
-10.474909
20
10.929324
30
0
10
-11.136965
20
11.620101
30
0
8
gear_texts
0
LWPOLYLINE
5
2015
100
AcDbEntity
100
AcDbPolyline
66
1
90
4
70
0
43
0
10
-8.067114
20
12.809977
30
0
10
-8.149038
20
12.377895
30
0
10
-8.578317
20
12.473424
30
0
10
-9.481957
20
13.787375
30
0
8
gear_texts
0
LWPOLYLINE
5
2016
100
AcDbEntity
100
AcDbPolyline
66
1
90
5
70
0
43
0
10
-8.576988
20
13.619619
30
0
10
-8.850553
20
13.443454
30
0
10
-9.120501
20
13.261794
30
0
10
-9.386722
20
13.074715
30
0
10
-9.649106
20
12.882293
30
0
8
gear_texts
0
LWPOLYLINE
5
2017
100
AcDbEntity
100
AcDbPolyline
66
1
90
5
70
0
43
0
10
-5.774829
20
13.648093
30
0
10
-6.396241
20
15.116724
30
0
10
-6.207672
20
15.539112
30
0
10
-5.892284
20
15.661424
30
0
10
-5.468236
20
15.476616
30
0
8
gear_texts
0
LWPOLYLINE
5
2018
100
AcDbEntity
100
AcDbPolyline
66
1
90
4
70
0
43
0
10
-5.555359
20
14.765895
30
0
10
-5.852714
20
14.650577
30
0
10
-6.147676
20
14.529272
30
0
10
-6.440126
20
14.402029
30
0
8
gear_texts
0
LWPOLYLINE
5
2019
100
AcDbEntity
100
AcDbPolyline
66
1
90
2
70
0
43
0
10
-4.368139
20
14.16116
30
0
10
-4.744173
20
15.380232
30
0
8
gear_texts
0
LWPOLYLINE
5
2020
100
AcDbEntity
100
AcDbPolyline
66
1
90
2
70
0
43
0
10
-4.838182
20
15.685001
30
0
10
-4.93219
20
15.989769
30
0
8
gear_texts
0
LWPOLYLINE
5
2021
100
AcDbEntity
100
AcDbPolyline
66
1
90
5
70
0
43
0
10
-3.501781
20
14.399883
30
0
10
-3.878598
20
15.949411
30
0
10
-3.624474
20
16.335923
30
0
10
-3.293507
20
16.405853
30
0
10
-2.904752
20
16.155175
30
0
8
gear_texts
0
LWPOLYLINE
5
2022
100
AcDbEntity
100
AcDbPolyline
66
1
90
4
70
0
43
0
10
-3.105182
20
15.467757
30
0
10
-3.417225
20
15.401826
30
0
10
-3.727871
20
15.3296
30
0
10
-4.036994
20
15.251109
30
0
8
gear_texts
0
LWPOLYLINE
5
2023
100
AcDbEntity
100
AcDbPolyline
66
1
90
4
70
0
43
0
10
-0.856461
20
15.114242
30
0
10
-1.13734
20
14.775843
30
0
10
-1.466698
20
15.06727
30
0
10
-1.6212
20
16.654456
30
0
8
gear_texts
0
LWPOLYLINE
5
2024
100
AcDbEntity
100
AcDbPolyline
66
1
90
5
70
0
43
0
10
-0.910592
20
16.069522
30
0
10
-1.235248
20
16.047831
30
0
10
-1.5594
20
16.019582
30
0
10
-1.882913
20
15.984786
30
0
10
-2.205658
20
15.943456
30
0
8
gear_texts
0
LWPOLYLINE
5
2025
100
AcDbEntity
100
AcDbPolyline
66
1
90
6
70
0
43
0
10
-0.249981
20
15.455405
30
0
10
0.063787
20
15.776235
30
0
10
0.390424
20
16.090566
30
0
10
0.715612
20
16.079385
30
0
10
1.019889
20
15.743363
30
0
10
0.958034
20
14.788552
30
0
8
gear_texts
0
LWPOLYLINE
5
2026
100
AcDbEntity
100
AcDbPolyline
66
1
90
2
70
0
43
0
10
-0.239665
20
14.817613
30
0
10
-0.270613
20
16.730988
30
0
8
gear_texts
0
LWPOLYLINE
5
2027
100
AcDbEntity
100
AcDbPolyline
66
1
90
15
70
0
43
0
10
4.196052
20
14.213101
30
0
10
3.907879
20
14.295019
30
0
10
3.61811
20
14.371095
30
0
10
3.326862
20
14.441298
30
0
10
3.099556
20
14.81778
30
0
10
3.230159
20
15.442141
30
0
10
3.613257
20
15.684486
30
0
10
3.929577
20
15.60824
30
0
10
4.244292
20
15.525615
30
0
10
4.466966
20
15.130759
30
0
10
4.105747
20
13.907215
30
0
10
3.739673
20
13.679721
30
0
10
3.462376
20
13.752523
30
0
10
3.183664
20
13.819704
30
0
10
2.968953
20
14.193418
30
0
8
gear_texts
0
LWPOLYLINE
5
2028
100
AcDbEntity
100
AcDbPolyline
66
1
90
13
70
0
43
0
10
5.608861
20
13.717134
30
0
10
5.330425
20
13.827713
30
0
10
5.049812
20
13.932641
30
0
10
4.86973
20
14.333861
30
0
10
5.074921
20
14.937832
30
0
10
5.484528
20
15.132042
30
0
10
5.789299
20
15.018081
30
0
10
6.091703
20
14.897983
30
0
10
6.264964
20
14.479084
30
0
10
5.850282
20
14.307558
30
0
10
5.559862
20
14.422897
30
0
10
5.26717
20
14.532341
30
0
10
4.972325
20
14.635847
30
0
8
gear_texts
0
LWPOLYLINE
5
2029
100
AcDbEntity
100
AcDbPolyline
66
1
90
10
70
0
43
0
10
7.382964
20
13.216114
30
0
10
6.964411
20
13.081134
30
0
10
6.698555
20
13.219245
30
0
10
6.568344
20
13.639307
30
0
10
6.845108
20
14.214013
30
0
10
7.275205
20
14.357233
30
0
10
7.563947
20
14.207232
30
0
10
7.694053
20
13.772988
30
0
10
7.382964
20
13.216114
30
0
10
7.487476
20
12.788933
30
0
8
gear_texts
0
LWPOLYLINE
5
2030
100
AcDbEntity
100
AcDbPolyline
66
1
90
2
70
0
43
0
10
7.998302
20
12.475827
30
0
10
8.686841
20
13.549816
30
0
8
gear_texts
0
LWPOLYLINE
5
2031
100
AcDbEntity
100
AcDbPolyline
66
1
90
5
70
0
43
0
10
8.342571
20
13.012822
30
0
10
8.781445
20
13.106482
30
0
10
9.227443
20
13.187609
30
0
10
9.492142
20
12.998383
30
0
10
9.559702
20
12.55013
30
0
8
gear_texts
0
LWPOLYLINE
5
2032
100
AcDbEntity
100
AcDbPolyline
66
1
90
5
70
0
43
0
10
12.092227
20
10.132705
30
0
10
11.884925
20
10.375076
30
0
10
11.672767
20
10.613207
30
0
10
11.455838
20
10.847001
30
0
10
11.234227
20
11.076362
30
0
8
gear_texts
0
LWPOLYLINE
5
2033
100
AcDbEntity
100
AcDbPolyline
66
1
90
5
70
0
43
0
10
14.029229
20
7.21626
30
0
10
13.880487
20
7.498383
30
0
10
13.726072
20
7.777442
30
0
10
13.566048
20
8.053322
30
0
10
13.40048
20
8.325912
30
0
8
gear_texts
0
LWPOLYLINE
5
2034
100
AcDbEntity
100
AcDbPolyline
66
1
90
2
70
0
43
0
10
13.171095
20
7.462982
30
0
10
14.281049
20
8.091902
30
0
8
gear_texts
0
LWPOLYLINE
5
2035
100
AcDbEntity
100
AcDbPolyline
66
1
90
5
70
0
43
0
10
14.596463
20
7.50803
30
0
10
14.161097
20
7.649972
30
0
10
13.726072
20
7.777442
30
0
10
13.291794
20
7.890515
30
0
10
12.858667
20
7.989276
30
0
8
gear_texts
0
LWPOLYLINE
5
2036
100
AcDbEntity
100
AcDbPolyline
66
1
90
5
70
0
43
0
10
13.461994
20
6.924489
30
0
10
13.599876
20
7.346794
30
0
10
13.726072
20
7.777442
30
0
10
13.840301
20
8.21613
30
0
10
13.942292
20
8.662548
30
0
8
gear_texts
0
LWPOLYLINE
5
2037
100
AcDbEntity
100
AcDbPolyline
66
1
90
3
70
0
43
0
10
14.888018
20
6.911885
30
0
10
15.316636
20
6.737941
30
0
10
13.565008
20
5.967382
30
0
8
gear_texts
0
LWPOLYLINE
5
2038
100
AcDbEntity
100
AcDbPolyline
66
1
90
3
70
0
43
0
10
13.682865
20
5.691949
30
0
10
13.565008
20
5.967382
30
0
10
13.441607
20
6.240377
30
0
8
gear_texts
0
LWPOLYLINE
5
2039
100
AcDbEntity
100
AcDbPolyline
66
1
90
7
70
0
43
0
10
14.601292
20
2.53404
30
0
10
16.486735
20
2.861256
30
0
10
15.799379
20
3.072193
30
0
10
15.110488
20
3.256559
30
0
10
15.662284
20
3.708314
30
0
10
16.201737
20
4.183648
30
0
10
14.348888
20
3.705201
30
0
8
gear_texts
0
LWPOLYLINE
5
2040
100
AcDbEntity
100
AcDbPolyline
66
1
90
15
70
0
43
0
10
14.800628
20
0.748668
30
0
10
14.782469
20
1.047706
30
0
10
14.75827
20
1.346317
30
0
10
14.728038
20
1.644377
30
0
10
14.691788
20
1.941765
30
0
10
15.324164
20
2.025344
30
0
10
15.678943
20
1.750545
30
0
10
15.711126
20
1.433241
30
0
10
15.736888
20
1.115351
30
0
10
16.07475
20
0.813117
30
0
10
16.39328
20
0.829229
30
0
10
16.691307
20
1.182995
30
0
10
16.663982
20
1.520164
30
0
10
16.629847
20
1.856713
30
0
10
16.272728
20
2.150713
30
0
8
gear_texts
0
LWPOLYLINE
5
2041
100
AcDbEntity
100
AcDbPolyline
66
1
90
2
70
0
43
0
10
15.137715
20
0.153019
30
0
10
14.818794
20
0.149795
30
0
8
gear_texts
0
LWPOLYLINE
5
2042
100
AcDbEntity
100
AcDbPolyline
66
1
90
9
70
0
43
0
10
15.075888
20
-1.375291
30
0
10
14.782469
20
-1.047706
30
0
10
14.800628
20
-0.748668
30
0
10
15.131529
20
-0.458993
30
0
10
16.406693
20
-0.497673
30
0
10
16.71181
20
-0.845342
30
0
10
16.691307
20
-1.182995
30
0
10
16.346364
20
-1.49119
30
0
10
15.075888
20
-1.375291
30
0
8
gear_texts
0
LWPOLYLINE
5
2043
100
AcDbEntity
100
AcDbPolyline
66
1
90
15
70
0
43
0
10
14.48693
20
-3.122172
30
0
10
14.547083
20
-2.828684
30
0
10
14.601292
20
-2.53404
30
0
10
14.649534
20
-2.23836
30
0
10
14.691788
20
-1.941765
30
0
10
15.324164
20
-2.025344
30
0
10
15.59537
20
-2.382878
30
0
10
15.544013
20
-2.697648
30
0
10
15.486305
20
-3.011316
30
0
10
15.734046
20
-3.390946
30
0
10
16.045825
20
-3.45814
30
0
10
16.425526
20
-3.193948
30
0
10
16.486735
20
-2.861256
30
0
10
16.541205
20
-2.527396
30
0
10
16.272728
20
-2.150713
30
0
8
gear_texts
0
LWPOLYLINE
5
2044
100
AcDbEntity
100
AcDbPolyline
66
1
90
7
70
0
43
0
10
15.177301
20
-7.046187
30
0
10
13.441607
20
-6.240377
30
0
10
14.002915
20
-6.160022
30
0
10
14.566289
20
-6.059446
30
0
10
15.131139
20
-5.938534
30
0
10
15.696872
20
-5.797192
30
0
10
13.901759
20
-5.134218
30
0
8
gear_texts
0
LWPOLYLINE
5
2045
100
AcDbEntity
100
AcDbPolyline
66
1
90
5
70
0
43
0
10
13.671386
20
-8.49423
30
0
10
13.840301
20
-8.21613
30
0
10
14.003561
20
-7.934672
30
0
10
14.161097
20
-7.649972
30
0
10
14.312846
20
-7.362145
30
0
8
gear_texts
0
LWPOLYLINE
5
2046
100
AcDbEntity
100
AcDbPolyline
66
1
90
5
70
0
43
0
10
13.129573
20
-8.157594
30
0
10
13.291794
20
-7.890515
30
0
10
13.448583
20
-7.620212
30
0
10
13.599876
20
-7.346794
30
0
10
13.745611
20
-7.070375
30
0
8
gear_texts
0
LWPOLYLINE
5
2047
100
AcDbEntity
100
AcDbPolyline
66
1
90
15
70
0
43
0
10
11.548938
20
-9.28661
30
0
10
11.734305
20
-9.051253
30
0
10
11.914876
20
-8.812197
30
0
10
12.090578
20
-8.569539
30
0
10
12.261339
20
-8.32338
30
0
10
12.789102
20
-8.681641
30
0
10
12.871197
20
-9.122825
30
0
10
12.684151
20
-9.381149
30
0
10
12.491921
20
-9.63564
30
0
10
12.543136
20
-10.086053
30
0
10
12.791685
20
-10.285914
30
0
10
13.249538
20
-10.220027
30
0
10
13.453426
20
-9.950102
30
0
10
13.651816
20
-9.676111
30
0
10
13.580746
20
-9.219034
30
0
8
gear_texts
0
LWPOLYLINE
5
2048
100
AcDbEntity
100
AcDbPolyline
66
1
90
15
70
0
43
0
10
10.340405
20
-10.615796
30
0
10
10.552888
20
-10.404597
30
0
10
10.761058
20
-10.189147
30
0
10
10.964831
20
-9.969532
30
0
10
11.164122
20
-9.745843
30
0
10
11.644658
20
-10.165332
30
0
10
11.672767
20
-10.613207
30
0
10
11.455838
20
-10.847001
30
0
10
11.234227
20
-11.076362
30
0
10
11.230565
20
-11.529663
30
0
10
11.453105
20
-11.75813
30
0
10
11.915566
20
-11.748127
30
0
10
12.150617
20
-11.504856
30
0
10
12.380703
20
-11.256883
30
0
10
12.365461
20
-10.794565
30
0
8
gear_texts
0
LWPOLYLINE
5
2049
100
AcDbEntity
100
AcDbPolyline
66
1
90
10
70
0
43
0
10
8.739773
20
-11.968102
30
0
10
8.496055
20
-12.142329
30
0
10
8.248864
20
-12.311594
30
0
10
7.998302
20
-12.475827
30
0
10
7.911143
20
-12.906884
30
0
10
8.577831
20
-13.994573
30
0
10
9.03111
20
-14.086811
30
0
10
9.314027
20
-13.901371
30
0
10
9.593137
20
-13.710249
30
0
10
9.868327
20
-13.513524
30
0
8
gear_texts
0
LWPOLYLINE
5
2050
100
AcDbEntity
100
AcDbPolyline
66
1
90
2
70
0
43
0
10
9.593137
20
-13.710249
30
0
10
8.496055
20
-12.142329
30
0
8
gear_texts
0
LWPOLYLINE
5
2051
100
AcDbEntity
100
AcDbPolyline
66
1
90
5
70
0
43
0
10
6.688921
20
-14.639572
30
0
10
6.98349
20
-14.501366
30
0
10
7.275205
20
-14.357233
30
0
10
7.563947
20
-14.207232
30
0
10
7.849597
20
-14.051425
30
0
8
gear_texts
0
LWPOLYLINE
5
2052
100
AcDbEntity
100
AcDbPolyline
66
1
90
5
70
0
43
0
10
6.423831
20
-14.059389
30
0
10
6.706726
20
-13.92666
30
0
10
6.98688
20
-13.788239
30
0
10
7.264179
20
-13.644183
30
0
10
7.538509
20
-13.494551
30
0
8
gear_texts
0
LWPOLYLINE
5
2053
100
AcDbEntity
100
AcDbPolyline
66
1
90
9
70
0
43
0
10
4.675449
20
-14.73337
30
0
10
4.972325
20
-14.635847
30
0
10
5.26717
20
-14.532341
30
0
10
5.559862
20
-14.422897
30
0
10
5.850282
20
-14.307558
30
0
10
5.71282
20
-14.819686
30
0
10
5.556981
20
-15.331942
30
0
10
5.382707
20
-15.84379
30
0
10
4.767135
20
-14.031875
30
0
8
gear_texts
0
LWPOLYLINE
5
2054
100
AcDbEntity
100
AcDbPolyline
66
1
90
9
70
0
43
0
10
2.858361
20
-15.190846
30
0
10
3.164857
20
-15.129961
30
0
10
3.470059
20
-15.062892
30
0
10
3.773844
20
-14.989667
30
0
10
4.076085
20
-14.910317
30
0
10
3.877666
20
-15.402049
30
0
10
3.660989
20
-15.891684
30
0
10
3.426063
20
-16.378684
30
0
10
3.034254
20
-14.505599
30
0
8
gear_texts
0
LWPOLYLINE
5
2055
100
AcDbEntity
100
AcDbPolyline
66
1
90
2
70
0
43
0
10
2.195732
20
-14.978404
30
0
10
2.149472
20
-14.662839
30
0
8
gear_texts
0
LWPOLYLINE
5
2056
100
AcDbEntity
100
AcDbPolyline
66
1
90
9
70
0
43
0
10
0.374951
20
-15.452878
30
0
10
0.687251
20
-15.442141
30
0
10
0.99927
20
-15.425093
30
0
10
1.310881
20
-15.401741
30
0
10
1.621956
20
-15.372094
30
0
10
1.346945
20
-15.825459
30
0
10
1.054252
20
-16.273814
30
0
10
0.743972
20
-16.71663
30
0
10
0.658891
20
-14.804896
30
0
8
gear_texts
0
LWPOLYLINE
5
2057
100
AcDbEntity
100
AcDbPolyline
66
1
90
9
70
0
43
0
10
-1.497599
20
-15.384707
30
0
10
-1.186294
20
-15.411837
30
0
10
-0.874505
20
-15.432669
30
0
10
-0.562358
20
-15.447193
30
0
10
-0.249981
20
-15.455405
30
0
10
-0.577829
20
-15.872162
30
0
10
-0.922622
20
-16.281807
30
0
10
-1.284203
20
-16.683825
30
0
10
-1.13734
20
-14.775843
30
0
8
gear_texts
0
LWPOLYLINE
5
2058
100
AcDbEntity
100
AcDbPolyline
66
1
90
2
70
0
43
0
10
-2.030832
20
-14.679742
30
0
10
-2.205658
20
-15.943456
30
0
8
gear_texts
0
LWPOLYLINE
5
2059
100
AcDbEntity
100
AcDbPolyline
66
1
90
6
70
0
43
0
10
-2.161951
20
-15.627528
30
0
10
-2.527501
20
-15.895612
30
0
10
-2.79187
20
-15.527367
30
0
10
-3.167957
20
-15.780456
30
0
10
-3.417225
20
-15.401826
30
0
10
-3.209975
20
-14.467728
30
0
8
gear_texts
0
LWPOLYLINE
5
2060
100
AcDbEntity
100
AcDbPolyline
66
1
90
2
70
0
43
0
10
-2.735429
20
-15.213463
30
0
10
-2.79187
20
-15.527367
30
0
8
gear_texts
0
LWPOLYLINE
5
2061
100
AcDbEntity
100
AcDbPolyline
66
1
90
2
70
0
43
0
10
-3.792157
20
-14.326152
30
0
10
-4.118607
20
-15.559428
30
0
8
gear_texts
0
LWPOLYLINE
5
2062
100
AcDbEntity
100
AcDbPolyline
66
1
90
6
70
0
43
0
10
-4.036994
20
-15.251109
30
0
10
-4.432296
20
-15.472992
30
0
10
-4.650165
20
-15.075464
30
0
10
-5.054112
20
-15.281187
30
0
10
-5.255735
20
-14.875178
30
0
10
-4.936982
20
-13.97302
30
0
8
gear_texts
0
LWPOLYLINE
5
2063
100
AcDbEntity
100
AcDbPolyline
66
1
90
2
70
0
43
0
10
-4.556156
20
-14.770696
30
0
10
-4.650165
20
-15.075464
30
0
8
gear_texts
0
LWPOLYLINE
5
2064
100
AcDbEntity
100
AcDbPolyline
66
1
90
11
70
0
43
0
10
-7.301212
20
-13.985205
30
0
10
-7.582428
20
-13.834755
30
0
10
-7.860545
20
-13.678651
30
0
10
-8.13545
20
-13.516956
30
0
10
-8.576988
20
-13.619619
30
0
10
-8.746946
20
-13.889499
30
0
10
-8.628853
20
-14.33674
30
0
10
-8.337275
20
-14.508241
30
0
10
-8.042291
20
-14.673812
30
0
10
-7.744019
20
-14.833387
30
0
10
-6.858404
20
-13.137023
30
0
8
gear_texts
0
LWPOLYLINE
5
2065
100
AcDbEntity
100
AcDbPolyline
66
1
90
7
70
0
43
0
10
-8.397589
20
-12.210634
30
0
10
-8.759045
20
-12.736214
30
0
10
-9.386722
20
-13.074715
30
0
10
-10.031512
20
-13.392833
30
0
10
-9.907548
20
-12.684606
30
0
10
-9.75921
20
-11.98707
30
0
10
-9.356481
20
-11.492404
30
0
8
gear_texts
0
LWPOLYLINE
5
2066
100
AcDbEntity
100
AcDbPolyline
66
1
90
5
70
0
43
0
10
-8.759045
20
-12.736214
30
0
10
-9.014715
20
-12.556549
30
0
10
-9.266701
20
-12.371753
30
0
10
-9.5149
20
-12.181901
30
0
10
-9.75921
20
-11.98707
30
0
8
gear_texts
0
LWPOLYLINE
5
2067
100
AcDbEntity
100
AcDbPolyline
66
1
90
5
70
0
43
0
10
-11.597563
20
-11.160433
30
0
10
-11.369587
20
-11.392595
30
0
10
-11.136965
20
-11.620101
30
0
10
-10.899791
20
-11.842858
30
0
10
-10.658163
20
-12.060775
30
0
8
gear_texts
0
LWPOLYLINE
5
2068
100
AcDbEntity
100
AcDbPolyline
66
1
90
5
70
0
43
0
10
-11.137938
20
-10.718133
30
0
10
-10.918997
20
-10.941094
30
0
10
-10.695594
20
-11.159583
30
0
10
-10.46782
20
-11.373512
30
0
10
-10.235768
20
-11.582793
30
0
8
gear_texts
0
LWPOLYLINE
5
2069
100
AcDbEntity
100
AcDbPolyline
66
1
90
15
70
0
43
0
10
-11.843228
20
-8.908257
30
0
10
-11.66073
20
-9.145845
30
0
10
-11.473465
20
-9.379695
30
0
10
-11.281512
20
-9.609712
30
0
10
-11.084949
20
-9.835802
30
0
10
-11.562076
20
-10.259163
30
0
10
-12.009895
20
-10.230156
30
0
10
-12.214241
20
-9.985288
30
0
10
-12.413596
20
-9.736339
30
0
10
-12.86276
20
-9.67513
30
0
10
-13.117643
20
-9.866848
30
0
10
-13.166462
20
-10.326834
30
0
10
-12.955016
20
-10.590881
30
0
10
-12.738277
20
-10.8506
30
0
10
-12.277767
20
-10.894204
30
0
8
gear_texts
0
LWPOLYLINE
5
2070
100
AcDbEntity
100
AcDbPolyline
66
1
90
9
70
0
43
0
10
-12.954626
20
-7.83272
30
0
10
-12.524106
20
-7.922491
30
0
10
-12.361395
20
-8.174045
30
0
10
-12.456057
20
-8.603516
30
0
10
-13.505753
20
-9.328552
30
0
10
-13.957603
20
-9.229546
30
0
10
-14.141324
20
-8.94551
30
0
10
-14.046338
20
-8.492799
30
0
10
-12.954626
20
-7.83272
30
0
8
gear_texts
0
ENDSEC
0
SECTION
2
OBJECTS
0
DICTIONARY
5
21D
330
0
100
AcDbDictionary
281
1
3
ACAD_CIP_PREVIOUS_PRODUCT_INFO
350
291
3
ACAD_COLOR
350
273
3
ACAD_DETAILVIEWSTYLE
350
27B
3
ACAD_GROUP
350
21E
3
ACAD_LAYOUT
350
272
3
ACAD_MATERIAL
350
221
3
ACAD_MLEADERSTYLE
350
276
3
ACAD_MLINESTYLE
350
26F
3
ACAD_PLOTSETTINGS
350
271
3
ACAD_PLOTSTYLENAME
350
21F
3
ACAD_SCALELIST
350
253
3
ACAD_SECTIONVIEWSTYLE
350
278
3
ACAD_TABLESTYLE
350
274
3
ACAD_VISUALSTYLE
350
23A
3
ACDB_RECOMPOSE_DATA
350
1057
3
AcDbVariableDictionary
350
29D
0
DICTIONARY
5
297
330
213
100
AcDbDictionary
280
1
281
1
3
ACAD_LAYERSTATES
360
298
0
DICTIONARY
5
292
330
265
100
AcDbDictionary
280
1
281
1
3
ADSK_XREC_LAYER_RECONCILED
360
293
0
XRECORD
5
291
102
{ACAD_REACTORS
330
21D
102
}
330
21D
100
AcDbXrecord
280
1
300
ACDMAC
300
2013
300
ACDMAC_F_S
0
DICTIONARY
5
273
102
{ACAD_REACTORS
330
21D
102
}
330
21D
100
AcDbDictionary
281
1
0
DICTIONARY
5
21E
102
{ACAD_REACTORS
330
21D
102
}
330
21D
100
AcDbDictionary
281
1
0
DICTIONARY
5
272
102
{ACAD_REACTORS
330
21D
102
}
330
21D
100
AcDbDictionary
281
1
3
Layout1
350
280
3
Model
350
284
0
DICTIONARY
5
221
102
{ACAD_REACTORS
330
21D
102
}
330
21D
100
AcDbDictionary
281
1
3
ByBlock
350
22A
3
ByLayer
350
222
3
Global
350
232
0
DICTIONARY
5
276
102
{ACAD_REACTORS
330
21D
102
}
330
21D
100
AcDbDictionary
281
1
3
Standard
350
277
0
DICTIONARY
5
26F
102
{ACAD_REACTORS
330
21D
102
}
330
21D
100
AcDbDictionary
281
1
3
Standard
350
270
0
DICTIONARY
5
271
102
{ACAD_REACTORS
330
21D
102
}
330
21D
100
AcDbDictionary
281
1
0
ACDBDICTIONARYWDFLT
5
21F
102
{ACAD_REACTORS
330
21D
102
}
330
21D
100
AcDbDictionary
281
1
3
Normal
350
220
100
AcDbDictionaryWithDefault
340
220
0
DICTIONARY
5
253
102
{ACAD_REACTORS
330
21D
102
}
330
21D
100
AcDbDictionary
281
1
3
A0
350
254
3
A1
350
255
3
A2
350
256
3
A3
350
257
3
A4
350
258
3
A5
350
259
3
A6
350
25A
3
A7
350
25B
3
A8
350
25C
3
A9
350
25D
3
B0
350
25E
3
B1
350
25F
3
B2
350
260
3
B3
350
261
3
B4
350
262
3
B5
350
263
3
B6
350
264
0
DICTIONARY
5
274
102
{ACAD_REACTORS
330
21D
102
}
330
21D
100
AcDbDictionary
281
1
3
Standard
350
275
0
DICTIONARY
5
23A
102
{ACAD_REACTORS
330
21D
102
}
330
21D
100
AcDbDictionary
281
1
3
2dWireframe
350
240
3
Basic
350
23F
3
Brighten
350
246
3
ColorChange
350
24A
3
Conceptual
350
243
3
Dim
350
245
3
EdgeColorOff
350
252
3
Facepattern
350
249
3
Flat
350
23B
3
FlatWithEdges
350
23C
3
Gouraud
350
23D
3
GouraudWithEdges
350
23E
3
Hidden
350
242
3
JitterOff
350
250
3
Linepattern
350
248
3
OverhangOff
350
251
3
Realistic
350
244
3
Shaded
350
24F
3
Shaded with edges
350
24E
3
Shades of Gray
350
24B
3
Sketchy
350
24C
3
Thicken
350
247
3
Wireframe
350
241
3
X-Ray
350
24D
0
XRECORD
5
1057
102
{ACAD_REACTORS
330
21D
102
}
330
21D
100
AcDbXrecord
280
1
90
1
330
275
0
DICTIONARY
5
29D
102
{ACAD_REACTORS
330
21D
102
}
330
21D
100
AcDbDictionary
281
1
3
CANNOSCALE
350
2A3
3
CMLEADERSTYLE
350
29F
3
CTABLESTYLE
350
29E
3
CVIEWDETAILSTYLE
350
2A0
3
CVIEWSECTIONSTYLE
350
2A1
3
LAYEREVAL
350
2A5
3
LAYERNOTIFY
350
2A6
3
LIGHTINGUNITS
350
2A4
3
MSLTSCALE
350
2A2
0
ENDSEC
0
EOF
